<svg width="10" height="6" viewBox="0 0 10 6" fill="none" xmlns="http://www.w3.org/2000/svg">
<path d="M9.24397 0H0.756025C0.605875 0.000655882 0.459282 0.0476818 0.334785 0.135132C0.210287 0.222582 0.113475 0.346528 0.056591 0.491298C-0.000293732 0.636068 -0.0146952 0.795159 0.0152063 0.948456C0.0451078 1.10175 0.11797 1.24237 0.224579 1.35253L4.46096 5.76604C4.53154 5.84017 4.61551 5.89901 4.70803 5.93917C4.80054 5.97933 4.89978 6 5 6C5.10022 6 5.19946 5.97933 5.29197 5.93917C5.38449 5.89901 5.46846 5.84017 5.53904 5.76604L9.77542 1.35253C9.88203 1.24237 9.95489 1.10175 9.98479 0.948456C10.0147 0.795159 10.0003 0.636068 9.94341 0.491298C9.88652 0.346528 9.78971 0.222582 9.66522 0.135132C9.54072 0.0476818 9.39413 0.000655882 9.24397 0Z" fill="#050505"/>
</svg>
