<svg width="14" height="14" viewBox="0 0 14 14" fill="none" xmlns="http://www.w3.org/2000/svg">
<path d="M10.8825 0.542705L3.77052 7.6547C3.49888 7.92487 3.28354 8.24623 3.13695 8.60019C2.99036 8.95415 2.91543 9.33367 2.91652 9.71678V10.5002C2.91652 10.6549 2.97797 10.8033 3.08737 10.9127C3.19677 11.0221 3.34514 11.0835 3.49985 11.0835H4.28326C4.66638 11.0846 5.0459 11.0097 5.39986 10.8631C5.75381 10.7165 6.07518 10.5012 6.34535 10.2295L13.4573 3.11754C13.7982 2.7758 13.9897 2.31281 13.9897 1.83012C13.9897 1.34743 13.7982 0.884438 13.4573 0.542705C13.1107 0.211309 12.6495 0.0263672 12.1699 0.0263672C11.6903 0.0263672 11.2292 0.211309 10.8825 0.542705ZM12.6325 2.2927L5.52051 9.4047C5.19159 9.73162 4.74702 9.91565 4.28326 9.91687H4.08318V9.71678C4.0844 9.25303 4.26843 8.80846 4.59535 8.47954L11.7073 1.36754C11.8319 1.24851 11.9976 1.18209 12.1699 1.18209C12.3422 1.18209 12.5079 1.24851 12.6325 1.36754C12.755 1.49034 12.8238 1.65669 12.8238 1.83012C12.8238 2.00355 12.755 2.1699 12.6325 2.2927Z" fill="black"/>
<path d="M13.4167 5.23775C13.262 5.23775 13.1136 5.29921 13.0042 5.4086C12.8948 5.518 12.8333 5.66637 12.8333 5.82108V8.75H10.5C10.0359 8.75 9.59075 8.93437 9.26256 9.26256C8.93437 9.59075 8.75 10.0359 8.75 10.5V12.8333H2.91667C2.45254 12.8333 2.00742 12.649 1.67923 12.3208C1.35104 11.9926 1.16667 11.5475 1.16667 11.0833V2.91667C1.16667 2.45254 1.35104 2.00742 1.67923 1.67923C2.00742 1.35104 2.45254 1.16667 2.91667 1.16667H8.19116C8.34587 1.16667 8.49425 1.10521 8.60364 0.995812C8.71304 0.886416 8.7745 0.738043 8.7745 0.583333C8.7745 0.428624 8.71304 0.280251 8.60364 0.170854C8.49425 0.0614581 8.34587 0 8.19116 0L2.91667 0C2.1434 0.00092625 1.40207 0.308514 0.855295 0.855295C0.308514 1.40207 0.00092625 2.1434 0 2.91667L0 11.0833C0.00092625 11.8566 0.308514 12.5979 0.855295 13.1447C1.40207 13.6915 2.1434 13.9991 2.91667 14H9.53341C9.91661 14.0011 10.2962 13.9262 10.6503 13.7796C11.0043 13.633 11.3258 13.4176 11.5961 13.146L13.1454 11.5955C13.4171 11.3253 13.6325 11.004 13.7792 10.65C13.9259 10.2961 14.0009 9.91656 14 9.53341V5.82108C14 5.66637 13.9385 5.518 13.8291 5.4086C13.7197 5.29921 13.5714 5.23775 13.4167 5.23775ZM10.7712 12.3212C10.5368 12.5551 10.2402 12.717 9.91666 12.7878V10.5C9.91666 10.3453 9.97812 10.1969 10.0875 10.0875C10.1969 9.97812 10.3453 9.91666 10.5 9.91666H12.7896C12.7174 10.2395 12.5557 10.5355 12.3229 10.7707L10.7712 12.3212Z" fill="black"/>
</svg>
