<svg width="3" height="12" viewBox="0 0 3 12" fill="none" xmlns="http://www.w3.org/2000/svg">
<path fill-rule="evenodd" clip-rule="evenodd" d="M3 1.5C3 2.32843 2.32843 3 1.5 3C0.671573 3 0 2.32843 0 1.5C0 0.671573 0.671573 0 1.5 0C2.32843 0 3 0.671573 3 1.5ZM3 5.7C3 6.52843 2.32843 7.2 1.5 7.2C0.671573 7.2 0 6.52843 0 5.7C0 4.87157 0.671573 4.2 1.5 4.2C2.32843 4.2 3 4.87157 3 5.7ZM1.5 12C2.32843 12 3 11.3284 3 10.5C3 9.67157 2.32843 9 1.5 9C0.671573 9 0 9.67157 0 10.5C0 11.3284 0.671573 12 1.5 12Z" fill="black"/>
</svg>
