<svg width="48" height="43" viewBox="0 0 48 43" fill="none" xmlns="http://www.w3.org/2000/svg">
<g clip-path="url(#clip0_2266_4035)">
<path d="M10.9836 22.2679C6.84525 13.8858 10.9448 5.86301 15.7014 2.60065C21.1821 -1.15797 28.3881 -0.835993 33.4473 3.5147C38.3836 7.75895 40.4489 15.3361 36.9933 22.2426C37.1227 22.3331 37.2649 22.2892 37.3981 22.2892C39.5751 22.2892 41.7516 22.2892 43.9277 22.2892C46.3422 22.2892 47.9962 23.9896 47.9975 26.4722C47.9975 30.5861 47.9975 34.7 47.9975 38.8138C47.9975 41.2939 46.3396 42.9956 43.9251 42.9956H4.06737C1.65677 42.9956 0.00399405 41.2912 0.00270081 38.8085C0.00270081 34.6947 0.00270081 30.5808 0.00270081 26.4669C0.00270081 23.9882 1.66064 22.2919 4.07771 22.2892C6.34951 22.2892 8.62259 22.2892 10.897 22.2892C10.9266 22.2861 10.9558 22.2789 10.9836 22.2679Z" fill="black"/>
<path d="M2.51147 24.371C2.8806 24.0424 3.35701 23.8698 3.84481 23.888C6.45587 23.888 9.06822 23.888 11.6793 23.8787C11.7895 23.8749 11.8988 23.9014 11.9958 23.9554C12.0929 24.0094 12.1742 24.089 12.2315 24.186C14.43 27.1623 17.3062 29.0756 20.8652 29.8805C20.9741 29.9031 21.0774 29.9482 21.1689 30.0129C21.2605 30.0776 21.3384 30.1606 21.398 30.257C22.0149 31.1684 22.646 32.0705 23.2784 32.9699C23.7284 33.6072 24.2729 33.6085 24.7229 32.9699C25.3566 32.0718 25.9864 31.1698 26.6033 30.257C26.6638 30.1617 26.7424 30.0798 26.8344 30.0165C26.9264 29.9532 27.0299 29.9096 27.1387 29.8885C30.7098 29.0645 33.598 27.1495 35.8034 24.1435C35.8604 24.0554 35.9389 23.9845 36.0312 23.9377C36.1234 23.891 36.2259 23.8702 36.3285 23.8774C38.9395 23.8853 41.5519 23.8774 44.163 23.8867C44.4626 23.8858 44.7594 23.9457 45.0366 24.0629C45.3137 24.1802 45.5656 24.3525 45.7779 24.5699C45.9903 24.7874 46.1589 25.0458 46.2741 25.3304C46.3893 25.6149 46.4489 25.9201 46.4494 26.2283C46.4623 30.5072 46.4623 34.786 46.4494 39.0649C46.4439 39.6868 46.2 40.2814 45.7705 40.7192C45.3411 41.1569 44.761 41.4026 44.1565 41.4025C43.4956 41.4145 42.8335 41.3866 42.1739 41.4132C41.8649 41.4251 41.7989 41.3174 41.8041 41.014C41.8196 39.8871 41.8131 38.7589 41.8041 37.6306C41.8041 36.0087 40.8497 35.0295 39.2745 35.0282H9.19237C8.99968 35.0282 8.8044 35.0189 8.613 35.0149C8.01294 34.802 7.60039 34.319 7.15422 33.9026C4.80957 31.7192 3.04817 29.1687 2.54769 25.8704C2.47268 25.3875 2.28904 24.8766 2.51147 24.371Z" fill="#02B558"/>
<path d="M24.0336 1.58496C27.2989 1.58923 30.4457 2.8437 32.8613 5.10404C35.2769 7.36439 36.7882 10.4688 37.101 13.8127C37.4138 17.1565 36.5056 20.5005 34.5533 23.1932C32.6011 25.886 29.7445 27.7348 26.5399 28.3796C26.3345 28.4122 26.1382 28.4896 25.9642 28.6066C25.7902 28.7236 25.6426 28.8776 25.5312 29.0582C25.1342 29.6808 24.6738 30.2556 24.2832 30.8889C24.0388 31.2801 23.9134 31.1803 23.709 30.8676C23.3042 30.2503 22.8568 29.6609 22.4559 29.0396C22.348 28.8665 22.2058 28.7187 22.0387 28.6059C21.8716 28.4931 21.6832 28.4178 21.4859 28.385C17.6269 27.5774 14.6706 25.4299 12.6544 21.9574C7.95216 13.8547 12.8096 3.22944 21.8675 1.76724C22.5835 1.64612 23.308 1.58516 24.0336 1.58496Z" fill="#E3E6F4"/>
<path d="M2.51147 24.3701C2.6201 27.0803 3.56547 29.4499 5.1859 31.5787C6.18429 32.8892 7.38441 33.9669 8.613 35.0207C7.02748 35.1537 6.19721 36.0678 6.19462 37.7016C6.19462 38.7953 6.18557 39.8902 6.19462 40.9839C6.19462 41.2846 6.15453 41.4309 5.80665 41.415C5.14839 41.3857 4.48626 41.415 3.82541 41.4043C3.22119 41.3994 2.64319 41.1498 2.21665 40.7095C1.79012 40.2692 1.54942 39.6737 1.54672 39.052C1.53637 34.775 1.53637 30.4975 1.54672 26.2195C1.53851 25.8518 1.62307 25.4881 1.79215 25.164C1.96123 24.8399 2.20905 24.5664 2.51147 24.3701Z" fill="#008036"/>
<path d="M11.1322 36.6439C11.3094 36.6439 11.4853 36.6279 11.6625 36.6279H39.1283C40.0763 36.6279 40.4462 37.0936 40.2664 38.0449C40.2431 38.1633 40.216 38.2272 40.0931 38.2205C40.0129 38.2205 39.9327 38.2205 39.8526 38.2205H14.0304C13.9347 38.2205 13.8377 38.2099 13.742 38.2046C12.8936 37.981 12.1992 37.4329 11.4323 37.039C11.2874 36.9645 11.1064 36.8767 11.1322 36.6439Z" fill="#E9C095"/>
<path d="M18.1002 39.8307C18.2606 39.8307 18.421 39.8147 18.5826 39.8147C25.6463 39.8147 32.71 39.8107 39.7737 39.8027C40.1772 39.8027 40.2794 39.9012 40.2677 40.3136C40.238 41.406 40.2587 41.4073 39.1891 41.4073H24.2871C24.0944 41.4073 23.8991 41.3967 23.7077 41.3913C21.945 41.2064 20.2548 40.6928 18.5606 40.1939C18.3718 40.138 18.1403 40.1034 18.1002 39.8307Z" fill="#E9C095"/>
<path d="M18.1002 39.8306C18.9822 40.2724 19.9444 40.4467 20.8807 40.7008C21.817 40.9549 22.765 41.1625 23.7077 41.39C22.6447 41.39 21.5803 41.4059 20.516 41.4059C16.4035 41.4059 12.291 41.4059 8.17975 41.4166C7.81635 41.4166 7.72583 41.3288 7.7323 40.9562C7.75428 39.8147 7.73229 39.812 8.86 39.8147C11.9405 39.8191 15.0206 39.8244 18.1002 39.8306Z" fill="#D5A06D"/>
<path d="M11.1322 36.6439C11.828 37.2253 12.6453 37.5859 13.4342 37.9984C13.5467 38.0569 13.6773 38.0742 13.742 38.2046C11.8306 38.2046 9.91917 38.2126 8.00776 38.2245C7.79696 38.2245 7.74912 38.1593 7.73618 37.9465C7.68445 36.8927 7.92241 36.6253 8.96476 36.6279C9.68769 36.6306 10.4093 36.6386 11.1322 36.6439Z" fill="#D5A06D"/>
<path d="M42.6201 25.4816C43.0774 25.489 43.5223 25.6353 43.8988 25.9023C44.2754 26.1692 44.5668 26.5448 44.7363 26.9817C44.9058 27.4187 44.9458 27.8975 44.8514 28.3578C44.757 28.8181 44.5323 29.2394 44.2057 29.5687C43.879 29.8979 43.465 30.1204 43.0157 30.208C42.5664 30.2957 42.1019 30.2446 41.6808 30.0613C41.2596 29.878 40.9006 29.5705 40.6489 29.1777C40.3973 28.7849 40.2642 28.3243 40.2664 27.8539C40.2693 27.539 40.3325 27.2278 40.4524 26.9381C40.5723 26.6485 40.7465 26.3859 40.9651 26.1656C41.1837 25.9452 41.4424 25.7714 41.7264 25.6541C42.0104 25.5367 42.3141 25.4781 42.6201 25.4816Z" fill="black"/>
<path d="M32.807 7.43923C33.4536 7.41395 33.676 7.57228 33.8584 8.19495C33.9321 8.44641 33.9877 8.70186 34.0524 8.95599C34.3602 9.6811 34.1532 10.3969 33.9489 11.0848C33.2829 13.3107 31.0921 14.7197 28.8406 14.411C28.7462 14.3909 28.65 14.3806 28.5535 14.3804C28.4723 14.3799 28.3923 14.4013 28.3215 14.4423C28.2508 14.4834 28.1917 14.5428 28.15 14.6145C28.0453 14.8061 28.1914 14.9245 28.3026 15.0403C29.1424 15.9104 29.9843 16.7779 30.8283 17.6427C31.7957 18.6379 32.7682 19.6305 33.7291 20.6323C33.9037 20.8133 34.139 20.9769 34.064 21.2976C34.076 21.4704 34.0485 21.6437 33.9835 21.8036C33.9186 21.9635 33.8182 22.1056 33.6903 22.2183C32.7604 23.1563 31.8358 24.0996 30.9305 25.0602C30.6356 25.3715 30.3188 25.5245 29.905 25.4687C29.6023 25.5352 29.4859 25.2664 29.3269 25.1054C27.5655 23.3053 25.8144 21.4945 24.053 19.693C23.9056 19.5427 23.7801 19.254 23.5073 19.3963C23.2344 19.5387 23.2616 19.8207 23.2991 20.0988C23.6599 22.7744 21.6709 25.3356 19.0508 25.5778C18.89 25.5974 18.7271 25.5678 18.5826 25.4926C18.166 25.4704 17.7528 25.4026 17.3501 25.2904C16.613 25.0668 16.4759 24.8673 16.5393 24.0836C16.5005 23.8428 16.6841 23.7284 16.8134 23.5913C17.2389 23.1403 17.6592 22.68 18.1067 22.2609C18.4714 21.9242 18.474 21.5144 18.4455 21.078C18.4365 20.945 18.377 20.8479 18.2438 20.8412C17.8442 20.8173 17.4458 20.7654 17.1212 21.122C16.7139 21.569 16.2858 21.9961 15.8578 22.4232C15.7284 22.5562 15.612 22.7412 15.3831 22.7172C14.6848 22.9527 14.3485 22.7718 14.13 22.052C13.9901 21.5487 13.9179 21.0281 13.9153 20.5046C13.7394 19.7595 14.0136 19.0943 14.3227 18.465C14.7631 17.5615 15.468 16.8231 16.3381 16.3538C17.2082 15.8845 18.1995 15.708 19.1723 15.8492C19.3792 15.8685 19.5871 15.8256 19.7707 15.7257C19.9544 15.6258 20.1059 15.4732 20.2069 15.2864C20.2405 15.2298 20.2546 15.1631 20.2468 15.0972C20.2391 15.0313 20.21 14.97 20.1642 14.9232C19.9302 14.6252 19.6469 14.4057 19.259 14.4655C18.4585 14.5853 17.8946 14.2194 17.3605 13.6353C16.3569 12.5363 15.2913 11.4959 14.2567 10.4235C14.0808 10.2412 13.8468 10.0763 13.9205 9.75827C13.9089 9.58574 13.9369 9.41284 14.002 9.25342C14.0671 9.09399 14.1676 8.95248 14.2955 8.84023C15.4939 7.62239 16.6859 6.39702 17.8713 5.1641C18.0507 4.95073 18.2976 4.80937 18.5684 4.76495C18.8607 4.61328 19.0727 4.7889 19.2564 4.97251C20.5225 6.24845 21.7704 7.54301 23.0197 8.83092C23.3805 9.20612 23.3508 9.67711 23.3314 10.1388C23.3111 10.3284 23.337 10.5203 23.4068 10.697C23.4765 10.8738 23.588 11.0299 23.731 11.1513C23.9146 11.3083 24.0582 11.3149 24.238 11.1513C24.5677 10.8506 24.7423 10.5419 24.6751 10.031C24.3259 7.39666 26.505 4.76495 29.0889 4.64787C29.362 4.62152 29.6371 4.66731 29.8881 4.78092C30.1688 4.8501 30.4507 4.90731 30.7262 4.99114C31.3366 5.17474 31.4905 5.41024 31.4581 6.07149C31.5099 6.34424 31.3288 6.50124 31.1723 6.66489C30.7494 7.11725 30.3291 7.57627 29.8791 7.99537C29.5144 8.33199 29.5131 8.74045 29.5377 9.17552C29.5454 9.30856 29.5984 9.40835 29.7329 9.41633C30.1326 9.44028 30.5309 9.49616 30.8568 9.14225C31.2874 8.67392 31.7362 8.22156 32.1875 7.77318C32.3647 7.59756 32.5212 7.38468 32.807 7.43923Z" fill="black"/>
<path d="M34.064 21.2967C33.9397 21.0651 33.7803 20.8554 33.592 20.6753C31.7814 18.8127 29.9709 16.9464 28.1604 15.0766C28.0479 14.9596 27.7452 14.8678 27.9198 14.6283C28.0944 14.3888 28.2755 14.1599 28.6712 14.2371C30.1261 14.5232 31.4245 14.116 32.5225 13.1155C33.7304 12.0152 34.1636 10.5876 34.0537 8.95508C34.4417 9.2571 34.5956 9.72543 34.7857 10.1525C35.6131 12.0081 35.9601 14.0522 35.7931 16.0865C35.6521 17.8587 35.1866 19.5551 34.2619 21.0865C34.2031 21.1633 34.1368 21.2338 34.064 21.2967Z" fill="#F6F6FD"/>
<path d="M18.5826 25.4922C20.9247 25.2953 22.5283 24.0061 23.0727 21.8773C23.2472 21.2534 23.2747 20.5957 23.1529 19.9588C23.1197 19.8504 23.1166 19.7347 23.144 19.6246C23.1714 19.5145 23.2283 19.4146 23.3081 19.3361C23.5396 19.086 23.6676 19.0806 23.9082 19.3361C25.6196 21.1172 27.3392 22.8911 29.0669 24.658C29.3398 24.9374 29.6256 25.2049 29.905 25.4789C29.0256 26.1562 27.9948 26.4861 26.9538 26.7402C24.2188 27.4463 21.3265 27.0826 18.8374 25.7198C18.7294 25.6766 18.6393 25.5962 18.5826 25.4922Z" fill="#F6F6FD"/>
<path d="M29.9024 4.77236C29.023 4.74442 28.172 4.85352 27.3676 5.26065C25.5209 6.19199 24.5225 8.19703 24.8522 10.3325C24.8936 10.6065 24.2755 11.5166 24.0259 11.5485C23.8965 11.5658 23.2499 10.8687 23.2267 10.6824C23.2215 10.6493 23.2215 10.6156 23.2267 10.5826C23.4374 9.49958 22.8969 8.79043 22.1649 8.10523C21.1652 7.16724 20.2367 6.14808 19.2823 5.1582C19.1029 4.94337 18.8547 4.80176 18.5826 4.75906C18.8296 4.44905 19.1995 4.34128 19.5306 4.1936C21.2523 3.40863 23.1334 3.06486 25.0126 3.19174C26.5016 3.30808 27.9569 3.70684 29.3049 4.36789C29.5266 4.46364 29.7292 4.60077 29.9024 4.77236Z" fill="#F6F6FD"/>
<path d="M13.9347 9.74805C14.0511 9.96487 14.1995 10.1619 14.3744 10.3321C15.4814 11.4657 16.6001 12.594 17.6812 13.7488C18.0821 14.1799 18.5076 14.4327 19.0818 14.3223C19.656 14.2118 20.0466 14.5045 20.3996 14.9236C20.538 15.0873 20.5367 15.1698 20.3996 15.3228C20.0039 15.7658 19.6482 16.0479 18.9408 15.9627C16.56 15.6767 14.1325 17.4662 13.9256 20.4944C13.3838 19.8291 13.226 18.983 12.9984 18.186C12.7011 17.141 12.5649 16.0546 12.5949 14.9662C12.6302 13.248 13.0138 11.5563 13.7213 9.99951C13.7591 9.89104 13.8353 9.80124 13.9347 9.74805Z" fill="#F6F6FD"/>
<path d="M32.807 7.43865C32.0789 7.94557 31.5525 8.67202 30.9124 9.27473C30.6912 9.48228 29.7704 9.67387 29.5157 9.54082C29.4771 9.51929 29.4455 9.4864 29.4251 9.44636C29.2958 9.18026 29.4833 8.23961 29.6838 8.01076C30.2696 7.34552 30.977 6.81333 31.4698 6.0616C31.5487 6.01637 31.5823 5.84473 31.7284 5.99508C32.1052 6.39422 32.4871 6.7876 32.8742 7.17522C33.0191 7.32157 32.8484 7.35749 32.807 7.43865Z" fill="#F6F6FD"/>
<path d="M15.3896 22.7156C15.9707 22.1178 16.5518 21.5213 17.1329 20.9261C17.3036 20.7518 18.3059 20.5908 18.4985 20.7079C18.5335 20.7292 18.5774 20.7837 18.5736 20.817C18.5154 21.3146 18.7611 21.8508 18.2774 22.2938C17.6657 22.8526 17.1135 23.4833 16.5393 24.0833C16.1229 23.6562 15.5913 23.3356 15.3896 22.7156Z" fill="#F6F6FD"/>
<path d="M42.6201 27.0692C42.774 27.0764 42.9224 27.1306 43.0463 27.2248C43.1702 27.3191 43.264 27.4491 43.3157 27.5984C43.3675 27.7477 43.3749 27.9095 43.337 28.0632C43.299 28.2168 43.2175 28.3554 43.1028 28.4612C42.988 28.5669 42.8452 28.6352 42.6926 28.6572C42.5401 28.6792 42.3846 28.654 42.2459 28.5848C42.1073 28.5155 41.9919 28.4054 41.9144 28.2684C41.8368 28.1314 41.8007 27.9738 41.8105 27.8156C41.8235 27.6069 41.9156 27.4117 42.067 27.2722C42.2184 27.1326 42.417 27.0597 42.6201 27.0692Z" fill="#E6E8F4"/>
<path d="M24.8199 14.7257L24.6595 14.9213C23.7013 16.0855 23.7013 16.0841 22.6692 15.0224C22.1106 14.449 21.5325 13.8928 21.001 13.2928C20.635 12.8803 20.225 12.6528 19.687 12.7406C19.149 12.8284 18.7287 12.6076 18.3472 12.1872C17.6166 11.3716 16.838 10.5999 16.0621 9.8282C15.8513 9.61798 15.8358 9.5009 16.0621 9.2827C16.838 8.51235 17.5997 7.72337 18.3524 6.92907C18.527 6.74546 18.6279 6.72683 18.8128 6.92108C19.7026 7.85242 20.6001 8.78377 21.5118 9.69781C21.7097 9.89605 21.7058 10.1129 21.6773 10.3325C21.5687 11.1427 21.8493 11.7468 22.4533 12.2869C23.2034 12.9628 23.8758 13.7279 24.582 14.4556C24.6518 14.5315 24.7255 14.6166 24.8199 14.7257Z" fill="#008036"/>
<path d="M32.1681 21.4966C32.088 21.5897 32.0297 21.6656 31.9638 21.7334C31.453 22.2656 30.9292 22.7779 30.4326 23.3194C30.2296 23.5416 30.1145 23.483 29.9347 23.2968C28.1543 21.4536 26.3671 19.6162 24.5729 17.7845C24.3543 17.5623 24.3686 17.4413 24.5807 17.235C25.0842 16.7472 25.5735 16.2438 26.0485 15.7249C26.2438 15.5134 26.3615 15.4788 26.5826 15.709C28.3613 17.5566 30.1459 19.3971 31.9366 21.2305C32.0155 21.3103 32.0828 21.3981 32.1681 21.4966Z" fill="#008036"/>
<path d="M19.0417 23.7961C19.1012 23.707 19.118 23.6564 19.1529 23.6325C20.6117 22.6253 20.0582 21.0939 20.0892 19.7302C20.097 19.3403 19.7349 19.1141 19.3301 19.1102C18.5723 19.1035 17.8144 19.1102 17.0566 19.1102C16.9356 19.1113 16.8162 19.1388 16.7063 19.1909C16.5964 19.2429 16.4985 19.3183 16.419 19.4122C16.1539 19.6996 15.8862 19.9856 15.5797 20.3142C15.5797 18.884 16.9557 17.5788 18.4248 17.5202C18.7959 17.5048 19.1665 17.5608 19.5176 17.6852C19.6983 17.7608 19.8979 17.7742 20.0867 17.7237C20.2754 17.6731 20.4432 17.5611 20.5651 17.4045C20.8574 17.0745 21.1833 16.7738 21.4808 16.4478C21.6269 16.2882 21.7394 16.2909 21.8687 16.4478C22.1726 16.8004 22.6305 17.0452 22.4934 17.6666C22.4597 17.8209 22.4753 17.9659 22.3498 18.087C22.1726 18.256 22.0162 18.4489 21.8325 18.6099C21.4536 18.9412 21.3889 19.3204 21.5286 19.8073C22.0576 21.6767 20.8393 23.6578 19.0417 23.7961Z" fill="#02B558"/>
<path d="M28.9337 6.46066C28.904 6.52718 28.8988 6.56709 28.8768 6.58173C27.4025 7.59024 27.925 9.13493 27.9082 10.5173C27.9082 10.9085 28.2638 11.1333 28.6673 11.1373C29.4239 11.1453 30.1817 11.1373 30.9396 11.1373C31.0606 11.1372 31.1801 11.1103 31.2902 11.0584C31.4002 11.0065 31.498 10.9309 31.5771 10.8366C31.8358 10.5625 32.0802 10.2871 32.3789 9.95983C32.4125 10.0481 32.4286 10.1425 32.4264 10.2373C32.4242 10.332 32.4037 10.4254 32.366 10.512C32.1292 11.2962 31.6031 11.9538 30.9005 12.3435C30.1979 12.7333 29.3748 12.8242 28.6078 12.5969C28.0647 12.4332 27.6857 12.5357 27.3146 12.9561C27.0068 13.31 26.721 13.7424 26.1287 13.5748C25.9606 13.5269 25.1562 12.9215 25.1484 12.7419C25.1484 12.6248 25.2428 12.5742 25.3075 12.5064C25.5661 12.2336 25.8157 11.9489 26.0963 11.7014C26.5141 11.3329 26.602 10.9338 26.4429 10.3776C26.2237 9.59661 26.308 8.7585 26.6782 8.04028C27.0483 7.32207 27.6754 6.77999 28.4268 6.52851C28.5859 6.45625 28.7619 6.4327 28.9337 6.46066Z" fill="#02B558"/>
</g>
<defs>
<clipPath id="clip0_2266_4035">
<rect width="48" height="43" fill="white"/>
</clipPath>
</defs>
</svg>
