<svg width="30" height="30" viewBox="0 0 30 30" fill="none" xmlns="http://www.w3.org/2000/svg">
<path d="M29.9992 14.1178V15.8786C29.953 16.2638 29.9142 16.6505 29.8577 17.0342C29.3402 20.5794 27.7899 23.5905 25.1664 26.0264C23.0606 27.9984 20.4174 29.3006 17.5717 29.7682C17.0168 29.8628 16.4553 29.9215 15.8975 29.9971H14.1383C13.5797 29.9237 13.0175 29.8665 12.4626 29.7675C8.45376 29.0506 5.20212 27.0594 2.86014 23.7372C-0.212646 19.3747 -0.79611 14.6115 1.04155 9.60409C3.06833 4.08598 8.51828 0.199606 14.3824 0.00664499C17.5724 -0.0990069 20.5353 0.666973 23.1976 2.44031C26.7959 4.83509 28.9884 8.18146 29.7676 12.4435C29.8702 13.0004 29.9237 13.5624 29.9992 14.1178ZM19.0091 22.8363C19.6331 22.84 20.2505 22.7086 20.8189 22.4511C21.5395 22.1216 22.0599 21.5508 22.6053 21.0072C23.0092 20.6051 23.0085 20.2859 22.6053 19.878C21.7521 19.0196 20.8969 18.1636 20.0398 17.3101C19.6161 16.886 19.2965 16.8904 18.8669 17.3233C18.4073 17.7884 17.9521 18.258 17.4903 18.7173C16.9201 19.2866 16.2442 19.3409 15.5904 18.875C13.9197 17.6835 12.4451 16.2381 11.2202 14.591C10.6939 13.8852 10.7378 13.2293 11.3602 12.602C11.8476 12.1097 12.3417 11.6247 12.8262 11.1302C13.178 10.7721 13.181 10.4383 12.8262 10.0832C11.9407 9.18907 11.0513 8.2986 10.158 7.41181C9.81643 7.07358 9.48072 7.07652 9.1318 7.41181C8.84299 7.68842 8.55931 7.97162 8.28517 8.26217C7.38869 9.2101 6.98042 10.3282 7.16221 11.6372C7.28975 12.5579 7.67092 13.398 8.09826 14.2051C9.9198 17.649 12.5792 20.2456 16.0793 21.9566C17.0036 22.4019 17.9646 22.7666 19.0091 22.8363Z" fill="white"/>
</svg>
