<svg width="13" height="14" viewBox="0 0 13 14" fill="none" xmlns="http://www.w3.org/2000/svg">
<path d="M0.25843 7.14305C0.221037 3.76723 2.99466 0.984584 6.43649 0.949219C8.08012 0.949276 9.65744 1.59012 10.8262 2.73273C11.995 3.87535 12.661 5.42757 12.6798 7.05262C12.6985 8.67767 12.0684 10.2445 10.9262 11.4131C9.78408 12.5818 8.22194 13.258 6.57875 13.2951C3.12147 13.3489 0.296637 10.6041 0.25843 7.14305ZM6.48608 12.0532C9.21744 12.0653 11.4724 9.86942 11.4911 7.18002C11.5106 4.43033 9.27271 2.17818 6.51859 2.17496C5.8626 2.17285 5.2126 2.29852 4.60573 2.54478C3.99886 2.79105 3.447 3.15309 2.98163 3.61024C2.51627 4.06739 2.14653 4.6107 1.89352 5.20914C1.64051 5.80758 1.50919 6.44941 1.50706 7.09803C1.50492 7.74665 1.63202 8.38934 1.88108 8.98939C2.13014 9.58945 2.49629 10.1351 2.95863 10.5952C3.42098 11.0554 3.97047 11.421 4.5757 11.6711C5.18094 11.9213 5.83009 12.0511 6.48608 12.0532Z" fill="#8391A1"/>
</svg>
