<svg width="24" height="24" viewBox="0 0 24 24" fill="none" xmlns="http://www.w3.org/2000/svg">
<g clip-path="url(#clip0_1907_5380)">
<path d="M7.27469 15.2534C7.52107 15.6245 7.8544 15.9236 8.24277 16.122C8.63114 16.3204 9.06169 16.4116 9.49335 16.3868H21.3707C21.4809 16.3775 21.5911 16.4047 21.6857 16.4645C21.7803 16.5242 21.8545 16.6135 21.8978 16.7197C21.9392 16.8088 21.9542 16.9087 21.9411 17.0068C21.928 17.1048 21.8873 17.1966 21.8242 17.2705C21.7881 17.3238 21.7416 17.3685 21.6878 17.4016C21.6339 17.4347 21.5738 17.4555 21.5117 17.4626H21.2788C17.336 17.4626 13.3973 17.4626 9.46268 17.4626C8.77821 17.4869 8.10138 17.3056 7.51259 16.9401C6.9238 16.5747 6.44767 16.0404 6.14082 15.4006C5.86564 14.779 5.68777 14.1153 5.61383 13.4348C4.9601 10.0196 4.3105 6.62371 3.66495 3.24698C3.54237 2.60664 3.41362 1.96629 3.3033 1.32595C3.3033 1.16587 3.21754 1.10182 3.04594 1.10822C2.27372 1.10822 1.50148 1.10822 0.723139 1.10822C0.579943 1.12824 0.434354 1.09832 0.309122 1.02306C0.183891 0.947791 0.0859501 0.831414 0.0305176 0.69202V0.448687C0.074178 0.303264 0.166098 0.178863 0.289671 0.097875C0.413243 0.0168871 0.560423 -0.015378 0.704735 0.00684992H3.54225C3.97126 0.00684992 4.15518 0.134928 4.21647 0.576763C4.40033 1.47324 4.57186 2.3761 4.74959 3.27899C4.82372 3.39272 4.86627 3.52576 4.87228 3.66321L6.82117 13.8318C6.88382 14.2836 7.02947 14.7185 7.25015 15.1125C7.27097 15.1561 7.2795 15.2049 7.27469 15.2534Z" fill="#465B65"/>
<path d="M21.9162 21.3042C21.9101 21.8442 21.7507 22.3701 21.4582 22.8154C21.1657 23.2606 20.7534 23.6052 20.2733 23.8054C19.7932 24.0055 19.2672 24.0523 18.7616 23.9398C18.2561 23.8272 17.7938 23.5605 17.4335 23.1733C17.0733 22.786 16.8312 22.2958 16.7378 21.7647C16.6444 21.2335 16.7041 20.6853 16.9091 20.1896C17.1142 19.6939 17.4554 19.2729 17.8896 18.98C18.3239 18.6871 18.8315 18.5355 19.3483 18.5443C20.0381 18.5578 20.6949 18.8553 21.1759 19.3722C21.6568 19.889 21.9228 20.5834 21.9162 21.3042Z" fill="#465B65"/>
<path d="M6.26368 21.2782C6.26247 20.7384 6.41445 20.2104 6.70059 19.7609C6.98673 19.3115 7.39416 18.9609 7.87112 18.7534C8.34808 18.546 8.87325 18.4911 9.3801 18.5956C9.88695 18.7001 10.3526 18.9594 10.7184 19.3407C11.0841 19.7219 11.3334 20.2079 11.4346 20.7373C11.5359 21.2666 11.4845 21.8154 11.2871 22.3142C11.0897 22.813 10.7551 23.2394 10.3256 23.5395C9.89611 23.8395 9.39115 23.9996 8.87451 23.9996C8.53194 24.0005 8.19248 23.9307 7.87576 23.7943C7.55903 23.6579 7.27124 23.4576 7.02872 23.2048C6.7862 22.952 6.59381 22.6517 6.46253 22.3211C6.33125 21.9905 6.26368 21.6361 6.26368 21.2782Z" fill="#465B65"/>
<path d="M23.3995 3.27875H4.71924C4.71924 3.362 4.71912 3.45167 4.74976 3.54131C5.40349 6.95647 6.05734 10.3716 6.71107 13.7868C6.76611 14.3125 6.9567 14.8126 7.26259 15.2339L9.92864 14.8497L14.66 14.2094L19.4404 13.569C20.4455 13.4282 21.4506 13.2937 22.4557 13.1464C22.5917 13.1431 22.7211 13.0843 22.8161 12.9826C22.9112 12.8808 22.9644 12.7443 22.9644 12.6021C23.0808 11.6864 23.1849 10.7708 23.2952 9.86148L23.994 4.05999C24.0295 3.96589 24.0406 3.86369 24.0263 3.76366C24.012 3.66363 23.9727 3.56928 23.9124 3.49011C23.8522 3.41095 23.7731 3.34974 23.6831 3.31264C23.593 3.27554 23.4953 3.26385 23.3995 3.27875ZM8.91731 13.0824C8.77941 13.093 8.64303 13.0467 8.53756 12.9532C8.43208 12.8598 8.366 12.7268 8.35352 12.5829C8.24933 11.9938 8.16355 11.3983 8.06549 10.8028C7.82442 9.27875 7.58135 7.75473 7.33621 6.23072C7.27492 5.84651 7.42195 5.5904 7.73451 5.49435C8.04708 5.3983 8.29222 5.6416 8.34738 6.03221C8.69059 8.13894 9.02762 10.2521 9.36469 12.3588C9.36699 12.3972 9.36699 12.4357 9.36469 12.474C9.38048 12.6163 9.34258 12.7594 9.25906 12.873C9.17553 12.9866 9.05296 13.0617 8.91731 13.0824ZM11.2892 12.4997C11.1985 12.4615 11.1199 12.3974 11.0625 12.3147C11.0051 12.232 10.9711 12.1341 10.9644 12.0322L10.6886 8.96499C10.6089 8.03009 10.5292 7.10159 10.4556 6.20512C10.4556 5.78889 10.5476 5.56478 10.7927 5.49435C10.8731 5.46655 10.9587 5.45937 11.0423 5.47344C11.1259 5.48751 11.2049 5.52241 11.2729 5.57517C11.3408 5.62793 11.3956 5.69701 11.4325 5.77657C11.4695 5.85613 11.4877 5.9438 11.4854 6.03221L11.8714 10.5146C11.9082 10.9564 11.951 11.3919 11.9939 11.7953C12.0368 12.1987 11.6814 12.6918 11.2892 12.4997ZM14.2249 11.9682C14.1604 11.9863 14.0931 11.9907 14.0271 11.9811C13.961 11.9715 13.8974 11.948 13.8402 11.9121C13.783 11.8763 13.7334 11.8287 13.6941 11.7723C13.6549 11.716 13.627 11.6519 13.612 11.584C13.5897 11.4724 13.5794 11.3586 13.5813 11.2446C13.5813 10.4058 13.5813 9.5605 13.5813 8.72165C13.5813 7.88281 13.5813 7.00554 13.5813 6.16029C13.5813 5.69924 13.7958 5.45591 14.1635 5.51995C14.2651 5.52705 14.3618 5.5683 14.4391 5.63755C14.5165 5.7068 14.5702 5.80034 14.5925 5.90417C14.6048 6.00837 14.6048 6.11374 14.5925 6.21794C14.5925 7.92551 14.5925 9.63309 14.5925 11.3407C14.6293 11.68 14.4945 11.8849 14.2249 11.9682ZM17.4852 8.44631C17.3994 9.27022 17.3075 10.0963 17.2095 10.9244C17.2071 10.9979 17.1908 11.0701 17.1613 11.1369C17.1318 11.2036 17.0898 11.2635 17.0378 11.313C16.9859 11.3626 16.9249 11.4007 16.8586 11.4253C16.7923 11.4498 16.722 11.4602 16.6518 11.4559C16.5776 11.4469 16.506 11.4218 16.4416 11.3823C16.3772 11.3429 16.3214 11.2898 16.2776 11.2266C16.2338 11.1634 16.203 11.0914 16.1872 11.0151C16.1715 10.9389 16.1711 10.86 16.186 10.7836C16.3495 9.19553 16.5191 7.60748 16.6947 6.01943C16.6946 5.93945 16.7112 5.86037 16.7432 5.78775C16.7753 5.71512 16.8221 5.6507 16.8804 5.59889C16.9388 5.54709 17.0072 5.50919 17.0809 5.48782C17.1547 5.46645 17.2321 5.4621 17.3076 5.47512C17.5957 5.47512 17.755 5.73766 17.7427 6.15388C17.6508 6.89027 17.571 7.66509 17.4852 8.44631ZM20.5864 7.24888L19.8326 10.4506C19.8156 10.5776 19.7567 10.6944 19.666 10.781C19.5754 10.8675 19.4587 10.9182 19.3361 10.9244C19.2307 10.9332 19.1256 10.9061 19.0361 10.8473C18.9466 10.7884 18.8778 10.7009 18.8398 10.5978C18.7968 10.4649 18.7968 10.321 18.8398 10.1881C19.1707 8.79852 19.5078 7.40898 19.8387 6.02584C19.8538 5.95305 19.8764 5.88219 19.9062 5.81452C19.9493 5.68928 20.0373 5.58648 20.1517 5.52792C20.2661 5.46935 20.3979 5.45962 20.5191 5.50076C20.6495 5.53572 20.7622 5.62156 20.834 5.74065C20.9058 5.85974 20.9312 6.00303 20.9051 6.1411L20.5864 7.24888Z" fill="#008036"/>
</g>
<defs>
<clipPath id="clip0_1907_5380">
<rect width="24" height="24" fill="white"/>
</clipPath>
</defs>
</svg>
