<svg width="46" height="46" viewBox="0 0 46 46" fill="none" xmlns="http://www.w3.org/2000/svg">
<g clip-path="url(#clip0_2266_4058)">
<path d="M42.1044 16.0946C41.9613 16.0866 41.8238 16.036 41.7097 15.9492C41.5955 15.8625 41.51 15.7436 41.4639 15.6079C41.2535 14.9946 40.9057 14.4376 40.447 13.9795C39.9883 13.5213 39.4309 13.174 38.8173 12.9642C38.6757 12.9082 38.5542 12.8106 38.4689 12.6844C38.3837 12.5581 38.3386 12.409 38.3395 12.2567C38.3405 12.1043 38.3875 11.9558 38.4744 11.8307C38.5613 11.7055 38.6839 11.6095 38.8263 11.5553C39.4397 11.3449 39.997 10.9973 40.4556 10.539C40.9143 10.0806 41.2622 9.52358 41.4729 8.91036C41.5289 8.76869 41.6265 8.64727 41.7528 8.56202C41.879 8.47676 42.0281 8.43166 42.1805 8.43263C42.3329 8.4336 42.4814 8.4806 42.6066 8.56745C42.7318 8.6543 42.8278 8.77696 42.882 8.91933C43.0935 9.53216 43.4419 10.0888 43.9007 10.5468C44.3595 11.0049 44.9166 11.3524 45.5299 11.563C45.6756 11.612 45.801 11.7078 45.8867 11.8354C45.9724 11.963 46.0136 12.1153 46.0038 12.2687C46.011 12.4225 45.9675 12.5745 45.88 12.7012C45.7926 12.828 45.666 12.9226 45.5196 12.9706C44.9074 13.1829 44.3513 13.5312 43.8931 13.9893C43.435 14.4474 43.0866 15.0034 42.8743 15.6155C42.7437 15.9524 42.4772 16.0971 42.1044 16.0946Z" fill="black"/>
<path d="M12.2657 21.4887C12.2625 21.6399 12.2132 21.7865 12.1244 21.909C12.0356 22.0314 11.9115 22.1239 11.7687 22.1739C11.1556 22.3862 10.5991 22.7356 10.1416 23.1955C9.68402 23.6554 9.33755 24.2137 9.12853 24.8278C9.07897 24.9736 8.98236 25.0987 8.85389 25.1836C8.72542 25.2684 8.57237 25.3082 8.41884 25.2966C8.26516 25.3017 8.114 25.2567 7.98809 25.1684C7.86218 25.0802 7.76834 24.9535 7.72069 24.8073C7.25056 23.5354 6.39228 22.6568 5.11254 22.1893C4.95741 22.1422 4.82258 22.0444 4.72966 21.9115C4.63675 21.7787 4.59114 21.6185 4.60014 21.4566C4.59763 21.295 4.6483 21.137 4.74435 21.0069C4.8404 20.8769 4.97651 20.782 5.13176 20.7368C5.72243 20.5346 6.2593 20.2006 6.70165 19.7601C7.144 19.3196 7.48022 18.7841 7.68482 18.1943C7.81292 17.8511 8.05504 17.6346 8.44062 17.6397C8.60242 17.6381 8.76036 17.6892 8.89049 17.7854C9.02063 17.8815 9.11589 18.0174 9.16183 18.1726C9.36422 18.7629 9.69837 19.2995 10.1389 19.7415C10.5795 20.1836 11.1149 20.5196 11.7046 20.724C11.8684 20.7734 12.0117 20.8747 12.1129 21.0126C12.2141 21.1505 12.2678 21.3176 12.2657 21.4887Z" fill="black"/>
<path d="M3.83409 34.5006C3.67323 34.5019 3.51609 34.4521 3.38533 34.3584C3.25456 34.2648 3.15692 34.132 3.10647 33.9793C2.90218 33.3809 2.5639 32.8371 2.11745 32.3894C1.67099 31.9417 1.12815 31.6018 0.530345 31.3958C0.374902 31.3503 0.238757 31.2549 0.142913 31.1243C0.0470684 30.9938 -0.00315195 30.8353 2.71018e-06 30.6734C2.71018e-06 30.2892 0.213928 30.0471 0.555959 29.9203C1.13879 29.7196 1.66855 29.3895 2.10542 28.9546C2.54229 28.5198 2.87491 27.9917 3.07829 27.4098C3.20639 27.0679 3.43568 26.8411 3.81999 26.836C4.20429 26.8309 4.44769 27.0525 4.57451 27.3932C4.77588 27.9754 5.10632 28.5046 5.54112 28.9411C5.97591 29.3776 6.50382 29.7102 7.08531 29.9139C7.42734 30.042 7.65408 30.2725 7.65792 30.6568C7.66176 31.041 7.4427 31.2844 7.10195 31.4112C6.5122 31.616 5.97686 31.9525 5.5365 32.395C5.09615 32.8375 4.76234 33.3745 4.56042 33.9652C4.51126 34.1196 4.41455 34.2545 4.2841 34.3507C4.15365 34.4468 3.99615 34.4993 3.83409 34.5006Z" fill="black"/>
<path d="M42.9294 24.2948C42.9128 23.1651 42.3978 22.2313 41.3576 21.8138C40.6659 21.5358 40.6261 21.158 40.6223 20.5521C40.5992 16.2639 37.2007 12.6263 32.9362 12.2818C31.7726 12.1816 30.6009 12.324 29.4952 12.7C28.3895 13.076 27.3738 13.6774 26.5125 14.4661C25.6513 15.2547 24.9631 16.2136 24.4915 17.2819C24.02 18.3502 23.7753 19.5048 23.7731 20.6725C23.7654 21.5986 23.7628 22.5259 23.7731 23.452C23.7731 23.7017 23.709 23.776 23.4554 23.7709C22.5779 23.7555 21.6979 23.7594 20.8204 23.7709C20.2234 23.7709 19.939 24.0578 19.9352 24.6508C19.9275 25.5935 19.9352 26.5362 19.9352 27.4776C19.9352 27.9387 20.1222 28.2461 20.5757 28.3524C20.7217 28.3845 20.7858 28.4165 20.8024 28.5804C21.0202 30.7083 21.2444 32.8349 21.475 34.9603C21.5031 35.2229 21.4199 35.2792 21.1739 35.2754C20.4232 35.26 19.67 35.2382 18.9219 35.2754C18.4684 35.301 18.3903 35.1473 18.3915 34.7285C18.4035 24.0591 18.4065 13.3893 18.4005 2.71904C18.4005 2.5282 18.4005 2.33479 18.3941 2.14395C18.372 1.80898 18.2766 1.48295 18.1148 1.18886C17.9529 0.894765 17.7284 0.639781 17.4572 0.4419C17.186 0.24402 16.8747 0.108065 16.5452 0.0436311C16.2157 -0.020803 15.876 -0.0121466 15.5503 0.0689904C14.4396 0.352056 13.8004 1.23327 13.8004 2.49362C13.8004 13.2424 13.8038 23.9916 13.8106 34.7413C13.8106 35.1896 13.6825 35.2767 13.2649 35.2728C10.9809 35.2523 8.69683 35.2626 6.41149 35.2638C5.17788 35.2638 4.61806 35.8441 4.59116 37.0788C4.57451 37.9344 4.67572 38.79 4.44129 39.6469C3.98397 41.3209 3.58813 43.0129 3.16924 44.6985C2.93097 45.6604 3.1987 45.9973 4.19405 45.9973H39.6577C40.3392 45.9973 40.6454 45.7347 40.6325 45.1096C40.5978 43.2267 40.6933 41.3437 40.9182 39.474C41.2026 37.0327 41.4409 34.5863 41.6868 32.1412C41.706 31.9503 41.8149 31.8747 41.943 31.7774C42.2521 31.5622 42.5037 31.2745 42.6758 30.9396C42.848 30.6047 42.9355 30.2327 42.9307 29.8561C42.9409 28.0002 42.955 26.1468 42.9294 24.2948ZM38.7021 21.4769C37.5684 21.4641 36.4334 21.4769 35.2997 21.4769C34.2454 21.4769 33.1911 21.4769 32.1369 21.4769C30.7418 21.4769 29.7157 22.1916 29.2712 23.5032C29.1892 23.7466 29.0842 23.7799 28.8754 23.7799C27.7891 23.7735 26.6977 23.7799 25.6165 23.7799C25.4704 23.7799 25.286 23.8452 25.2975 23.5698C25.3564 22.1212 25.1694 20.6636 25.4756 19.2252C25.8169 17.6357 26.7098 16.2182 27.9962 15.2239C29.2826 14.2295 30.8794 13.7224 32.5039 13.7924C34.1283 13.8623 35.6756 14.5048 36.8717 15.6061C38.0678 16.7073 38.8356 18.1963 39.039 19.8093C39.0928 20.2396 39.0825 20.67 39.1184 21.0978C39.1414 21.4487 38.9826 21.4731 38.7021 21.4705V21.4769Z" fill="black"/>
<path d="M36.0452 22.9986C37.307 22.9986 38.5688 22.9986 39.8319 22.9986C40.8823 22.9986 41.4011 23.5109 41.4037 24.5459C41.4037 26.2865 41.4037 28.0272 41.4037 29.7678C41.4037 30.471 40.7914 30.8758 40.2508 30.5543C39.9587 30.3801 39.8665 30.1073 39.8665 29.7858C39.8665 28.9238 39.855 28.0605 39.8767 27.1985C39.8844 26.8936 39.7845 26.8322 39.4924 26.8296C38.3306 26.8296 38.3305 26.8129 38.3305 27.9823C38.3305 28.5895 38.3305 29.1966 38.3305 29.8037C38.3229 30.334 38.0231 30.6606 37.5619 30.6619C37.1008 30.6631 36.8023 30.3365 36.7933 29.8075C36.7844 28.9289 36.7792 28.0502 36.7933 27.1716C36.7933 26.8962 36.7113 26.8296 36.4436 26.8245C35.2536 26.804 35.2535 26.795 35.2535 27.9554C35.2535 28.5792 35.2625 29.2017 35.2535 29.8242C35.2446 30.3455 34.9256 30.6747 34.4696 30.6619C34.0135 30.649 33.733 30.3314 33.7266 29.8332C33.7163 28.9558 33.7099 28.0758 33.7266 27.1985C33.7266 26.9026 33.6484 26.8257 33.3538 26.8245C32.1855 26.8168 32.1855 26.8053 32.1855 27.9772C32.1855 28.5843 32.1855 29.1915 32.1855 29.7986C32.1778 30.3288 31.8781 30.6606 31.4284 30.6619C30.9788 30.6631 30.6598 30.3083 30.6598 29.7973C30.6509 27.9759 30.6457 26.1559 30.6598 24.3345C30.6675 23.5442 31.2388 23.0088 32.0523 23.0024C33.3935 22.9909 34.7194 22.9986 36.0452 22.9986Z" fill="#E9C095"/>
<path d="M15.3312 18.5884C15.3312 13.2883 15.3312 7.9882 15.3312 2.6881C15.322 2.52885 15.325 2.36913 15.3402 2.21034C15.4029 1.79279 15.654 1.55583 16.0793 1.53534C16.2735 1.52444 16.4642 1.59054 16.61 1.7193C16.7558 1.84806 16.845 2.0291 16.8582 2.22315C16.8667 2.33437 16.8689 2.44599 16.8646 2.55745C16.8646 13.2857 16.8676 24.0136 16.8735 34.7411C16.8735 35.1509 16.7916 35.2918 16.3535 35.2777C15.3286 35.2444 15.3286 35.2688 15.3286 34.2531L15.3312 18.5884Z" fill="#02B558"/>
<path d="M16.046 38.3328C12.9011 38.3328 9.75622 38.3238 6.61133 38.343C6.2014 38.343 6.11045 38.2265 6.1207 37.8371C6.14504 36.7996 6.1207 36.7996 7.17113 36.7996C13.3004 36.7996 19.4305 36.7958 25.5614 36.7881C25.9995 36.7881 26.0879 36.9162 26.0738 37.3196C26.0456 38.3328 26.0661 38.3328 25.049 38.3328H16.046Z" fill="#02B558"/>
<path d="M28.5923 42.9336H37.9911C39.1197 42.9336 39.1081 42.9336 39.112 44.0799C39.112 44.3925 39.0274 44.4744 38.7161 44.4732C35.5879 44.4621 32.4605 44.4621 29.334 44.4732C29.0291 44.4732 28.9176 44.3669 28.8638 44.0953C28.7908 43.7226 28.6922 43.3537 28.5923 42.9336Z" fill="#008036"/>
<path d="M25.3013 26.8324C24.1369 26.8324 22.9737 26.8247 21.8093 26.8324C21.5441 26.8324 21.4634 26.7658 21.4596 26.4917C21.4391 25.2928 21.4288 25.2941 22.6215 25.2941C24.6455 25.2941 26.6708 25.3031 28.696 25.2852C29.047 25.2852 29.1521 25.3594 29.1444 25.7245C29.1239 26.8273 29.1444 26.8273 28.0286 26.8273L25.3013 26.8324Z" fill="#008036"/>
<path d="M16.1088 44.4664H15.7245C14.6343 44.4664 14.6446 44.4664 14.7919 43.4085C14.9392 42.3505 15.0724 41.2925 15.1941 40.232C15.2249 39.9681 15.2838 39.8324 15.5912 39.8592C16.0332 39.8977 16.5853 39.7312 16.8915 39.9476C17.1976 40.1641 17.0619 40.7443 17.1208 41.167C17.263 42.1596 17.3629 43.16 17.5051 44.1526C17.5448 44.4318 17.4487 44.4792 17.2079 44.4703C16.8402 44.4562 16.4726 44.4664 16.1088 44.4664Z" fill="#D5A06D"/>
<path d="M12.0211 44.4665H11.7815C10.9386 44.4665 10.9386 44.4665 11.141 43.6711C11.4241 42.5452 11.7123 41.4206 11.9839 40.2922C12.0544 39.9976 12.1389 39.8029 12.504 39.8593C12.8883 39.9208 13.4276 39.6902 13.6377 39.9579C13.8042 40.1718 13.5916 40.6829 13.5455 41.0607C13.4174 42.0559 13.2893 43.0499 13.1855 44.0464C13.1522 44.3947 13.0343 44.5164 12.691 44.4716C12.468 44.4557 12.2443 44.454 12.0211 44.4665Z" fill="#E9C095"/>
<path d="M21.2469 44.4671C20.5731 44.4671 19.939 44.4607 19.3049 44.4671C19.114 44.4671 19.0692 44.3915 19.0487 44.2199C18.8779 42.8452 18.7028 41.4717 18.5235 40.0995C18.503 39.9445 18.5235 39.8497 18.7067 39.8625C18.7387 39.8644 18.7708 39.8644 18.8028 39.8625C20.094 39.7959 20.094 39.7959 20.4015 41.0422C20.6794 42.1719 20.9574 43.2964 21.2469 44.4671Z" fill="#E9C095"/>
<path d="M6.71637 39.8662C7.44912 39.8662 7.45039 39.8662 7.27361 40.5784C6.98282 41.7516 6.68178 42.9249 6.40123 44.1007C6.3359 44.3735 6.2283 44.5118 5.92598 44.4708C5.57114 44.4221 5.07923 44.6284 4.90117 44.3786C4.76538 44.1929 5.00364 43.7254 5.08691 43.386C5.31365 42.4573 5.5468 41.5313 5.77866 40.604C5.95672 39.8662 5.95801 39.8662 6.71637 39.8662Z" fill="#E9C095"/>
<path d="M8.62253 44.467C7.87954 44.467 7.87696 44.467 8.05118 43.7651C8.33941 42.6123 8.6366 41.4519 8.9133 40.2914C8.98504 39.9917 9.07729 39.8034 9.43853 39.8611C9.778 39.9136 10.2443 39.7176 10.4326 39.9482C10.5607 40.1083 10.3365 40.5681 10.2571 40.8909C10.0231 41.8489 9.78568 42.8061 9.54485 43.7625C9.36807 44.467 9.36551 44.467 8.62253 44.467Z" fill="#D5A06D"/>
<path d="M21.6966 39.9164C21.7236 39.902 21.7519 39.89 21.7811 39.8806C23.1556 39.7819 23.1544 39.7819 23.4797 41.1038C23.753 42.2138 24.0276 43.3183 24.3034 44.4173C24.2766 44.4323 24.2483 44.4443 24.2189 44.4531C22.8444 44.5518 22.8456 44.5518 22.5203 43.2299C22.2478 42.1216 21.9733 41.0171 21.6966 39.9164Z" fill="#D5A06D"/>
<path d="M24.7505 39.8661C25.2027 39.8661 25.6139 39.8661 26.0315 39.8661C26.0617 39.8612 26.0926 39.8627 26.1222 39.8703C26.1519 39.878 26.1796 39.8917 26.2037 39.9106C26.2277 39.9295 26.2476 39.9531 26.2621 39.9801C26.2766 40.007 26.2853 40.0367 26.2877 40.0672C26.6464 41.5184 27.0141 42.9683 27.3779 44.4131C27.3418 44.4343 27.303 44.4507 27.2626 44.4618C25.9073 44.5117 25.9098 44.5117 25.587 43.2027C25.3129 42.105 25.0362 41.0099 24.7505 39.8661Z" fill="#E9C095"/>
<path d="M43.584 12.2165C43.4444 12.3446 43.388 12.3907 43.3278 12.4368C42.9608 12.7177 42.6333 13.0469 42.3542 13.4153C42.1992 13.628 42.1147 13.5895 41.9699 13.4038C41.7023 13.0466 41.3858 12.7288 41.0297 12.4598C40.8554 12.3318 40.7824 12.2459 41.0066 12.082C41.3898 11.7966 41.729 11.4566 42.0135 11.0727C42.1031 10.9536 42.1723 10.8806 42.2966 11.0496C42.6017 11.458 42.9636 11.8208 43.3713 12.1268C43.4388 12.1642 43.5101 12.1943 43.584 12.2165Z" fill="#E9C095"/>
<path d="M9.8113 21.5185C9.74989 21.5416 9.69071 21.5704 9.63452 21.6043C9.24029 21.9013 8.88934 22.2518 8.59177 22.6456C8.47391 22.8019 8.39449 22.8134 8.2728 22.6456C7.9766 22.2506 7.62546 21.9 7.23005 21.6043C7.09298 21.4993 7.08401 21.4262 7.23005 21.3174C7.63659 21.01 7.99832 20.6474 8.30482 20.2402C8.39577 20.1211 8.46367 20.1121 8.56102 20.2402C8.87853 20.6587 9.25177 21.0319 9.67039 21.3494C9.721 21.4026 9.76807 21.4591 9.8113 21.5185Z" fill="#E9C095"/>
<path d="M3.79437 29.3467C3.93912 29.3582 3.96346 29.4671 4.02111 29.535C4.29802 29.8847 4.61633 30.1995 4.96906 30.4725C5.15353 30.6083 5.20093 30.6903 4.98572 30.8478C4.61096 31.1188 4.28187 31.4478 4.01087 31.8225C3.84818 32.0467 3.75465 31.9788 3.63424 31.7982C3.32551 31.355 2.86563 31.0553 2.5172 30.6455C2.9015 30.2727 3.3332 29.9435 3.65474 29.5055C3.69957 29.4479 3.75465 29.3928 3.79437 29.3467Z" fill="#E9C095"/>
<path d="M39.0835 31.466C38.8542 31.4045 38.7197 31.2905 38.4648 31.457C37.6552 31.986 36.8059 31.9796 35.9886 31.457C35.7721 31.32 35.6466 31.2931 35.4134 31.4455C34.5846 31.986 33.7251 31.9783 32.895 31.4455C32.6887 31.3174 32.5721 31.3084 32.3621 31.4455C30.8043 32.4369 28.8674 31.4045 28.7983 29.5563C28.7842 29.172 28.7752 28.7878 28.7983 28.4035C28.8175 28.0987 28.7317 27.9975 28.414 28C26.4019 28.0154 24.389 28.0154 22.3753 28C22.0576 28 21.9717 28.0769 22.0076 28.3984C22.2373 30.4477 22.4542 32.4949 22.6584 34.54C22.6865 34.8243 22.7698 34.9243 23.0593 34.914C23.874 34.8948 24.6888 34.905 25.5035 34.9076C26.6692 34.9076 27.2969 35.5109 27.2534 36.6854C27.2035 38.0251 27.3718 39.3639 27.7517 40.6496C27.8349 40.9403 27.9374 41.0531 28.2641 41.0492C29.9576 41.0313 31.6511 41.0403 33.3433 41.0403C35.0355 41.0403 36.7623 41.0403 38.4674 41.0403C38.7236 41.0403 38.8517 41.0095 38.885 40.6944C39.1502 38.0585 39.423 35.4225 39.7292 32.7917C39.7958 32.1807 39.8586 31.6735 39.0835 31.466ZM36.4728 32.6085C37.2274 32.6085 37.2273 32.6085 37.2273 33.3988C37.2273 34.1417 37.2274 34.1417 36.4728 34.1417C35.694 34.1417 35.694 34.1417 35.694 33.3732C35.694 32.6047 35.6965 32.6085 36.4728 32.6085ZM36.9084 39.5148C35.694 39.5519 35.694 39.5596 35.694 38.362C35.694 37.5794 35.7055 36.7968 35.694 36.0155C35.694 35.7402 35.7747 35.6723 36.0437 35.6684C37.2338 35.6466 37.2338 35.6377 37.2338 36.8455V37.614C37.2338 38.1404 37.221 38.6681 37.2338 39.1946C37.2414 39.4469 37.1556 39.5084 36.9084 39.5148Z" fill="#02B558"/>
</g>
<defs>
<clipPath id="clip0_2266_4058">
<rect width="46" height="46" fill="white"/>
</clipPath>
</defs>
</svg>
