<svg width="43" height="43" viewBox="0 0 43 43" fill="none" xmlns="http://www.w3.org/2000/svg">
<g clip-path="url(#clip0_2266_4079)">
<path d="M37.1281 23.1819C37.6469 23.3266 37.7659 23.4837 37.767 24.0514C37.767 26.6813 37.7794 29.3111 37.767 31.941C37.767 32.2608 37.8636 32.3965 38.1612 32.502C39.5012 32.9931 40.6674 33.8664 41.5151 35.0136C42.3629 36.1608 42.855 37.5314 42.9304 38.9554C42.9899 39.8418 42.9405 40.7293 42.9573 41.6145C42.9472 42.4167 42.6204 42.7869 41.74 43.0012H29.3056C29.076 42.9776 28.8556 42.8984 28.6636 42.7703C28.4716 42.6422 28.3138 42.4692 28.204 42.2663C28.0839 42.0498 27.9873 42.0677 27.8301 42.2248C27.5893 42.4802 27.2944 42.6786 26.967 42.8055C26.6397 42.9324 26.2881 42.9847 25.9379 42.9586H3.12068C2.96908 42.9586 2.81298 42.99 2.66475 42.926C1.17572 42.7454 0.0280703 41.4193 0.0033654 39.8496C-0.0752411 34.8502 3.36323 30.0326 8.11668 28.4708C8.76079 28.2601 9.41751 28.0899 10.083 27.9614C9.59653 27.6685 9.12989 27.3439 8.68602 26.9898C7.09434 25.6837 6.00955 23.8629 5.61924 21.8423C5.6119 21.7552 5.57566 21.673 5.51626 21.6087C5.45687 21.5445 5.37771 21.5019 5.29135 21.4878C3.61366 20.984 2.51766 19.5647 2.48397 17.8829C2.44804 16.1416 3.4699 14.7022 5.18802 14.121C5.44742 14.0335 5.44405 13.8888 5.44293 13.6879C5.44293 10.8509 5.44293 8.01271 5.44293 5.17342C5.43685 4.57574 5.61749 3.99105 5.95966 3.50076C6.30184 3.01048 6.78852 2.63901 7.35194 2.4381C7.7169 2.30234 8.00662 2.35059 8.21998 2.69278C8.44457 2.98673 8.42886 3.23581 8.17395 3.49947C8.02682 3.62925 7.86056 3.73559 7.68099 3.81474C7.41505 3.94581 7.19249 4.15062 7.03995 4.40469C6.88741 4.65876 6.81133 4.95134 6.82079 5.24747C6.81405 6.54781 6.82079 7.84928 6.82079 9.14962C6.82079 9.54231 6.86909 9.57821 7.23181 9.46153C7.83259 9.26967 8.44569 9.12494 9.06219 8.99479C11.0241 8.60359 13.0269 8.45625 15.0251 8.55611C17.2047 8.65999 19.3679 8.98669 21.4809 9.53109C21.9458 9.65114 21.9525 9.64328 21.9537 9.17206C21.9537 7.84517 21.9537 6.5179 21.9537 5.19025C21.9537 4.56083 21.7066 4.04698 21.1148 3.80913C19.0789 2.99346 17.0453 2.16771 14.97 1.45302C14.3783 1.29707 13.8055 1.40702 13.2542 1.62019C12.3558 1.9665 11.4593 2.31169 10.5647 2.65576C10.437 2.71141 10.3037 2.75352 10.1672 2.78141C9.73036 2.84873 9.47095 2.64678 9.40357 2.19014C9.36203 1.83224 9.52598 1.59551 9.85275 1.46985C10.9319 1.05136 12.0077 0.621654 13.097 0.235702C13.9753 -0.0832557 14.9399 -0.0712885 15.81 0.26936C17.7404 1.00087 19.6741 1.7279 21.5842 2.51327C22.7588 2.99346 23.3472 3.93591 23.3506 5.20596C23.3581 8.00486 23.3581 10.8034 23.3506 13.6015C23.3506 13.9056 23.4056 14.0503 23.7313 14.1625C24.5054 14.426 25.1751 14.9294 25.6431 15.5994C26.1111 16.2693 26.353 17.071 26.3336 17.8878C26.3142 18.7046 26.0345 19.4939 25.5352 20.141C25.0358 20.788 24.3429 21.259 23.5572 21.4855C23.3461 21.5483 23.2271 21.6168 23.1788 21.849C22.6454 24.4564 21.2148 26.4344 18.9486 27.8189C18.9015 27.8481 18.8532 27.8762 18.806 27.9064C18.797 27.9132 18.7948 27.9311 18.787 27.948C23.7594 29.025 26.9721 32.0128 28.4836 36.9236C28.8517 35.9441 29.4144 35.0491 30.1377 34.2926C30.9113 33.4789 31.8663 32.8592 32.9249 32.484C33.209 32.3853 33.2618 32.2473 33.2618 31.9735C33.255 25.9995 33.255 20.0251 33.2618 14.0503C33.2618 13.6655 33.2988 13.3154 33.7525 13.1976C34.2185 13.0495 34.5228 13.2167 34.6194 13.679C34.6531 13.9017 34.6637 14.1272 34.6509 14.3521C34.6509 18.9821 34.6509 23.6127 34.6509 28.2442C34.6509 29.0295 34.6509 29.0295 35.4369 29.0295C36.4835 29.0295 36.3869 29.0755 36.3948 28.0725C36.4049 26.614 36.3735 25.1633 36.4094 23.7081C36.5554 23.266 36.7238 23.1449 37.1281 23.1819Z" fill="black"/>
<path d="M2.66251 42.928C2.9556 42.928 3.24869 42.9212 3.54178 42.9212L26.0008 42.9111C26.0424 42.9142 26.0837 42.9206 26.1243 42.9302C26.1301 42.9351 26.1345 42.9414 26.1371 42.9485C26.1397 42.9556 26.1404 42.9633 26.1391 42.9707C26.1379 42.9782 26.1347 42.9852 26.13 42.9911C26.1252 42.997 26.119 43.0015 26.112 43.0043H2.6715L2.66251 42.928Z" fill="#444444"/>
<path d="M43 41.741L42.9607 41.7343L42.9236 41.75L42.9304 38.9541C42.9356 38.9492 42.9419 38.9457 42.9488 38.9438C42.9556 38.942 42.9629 38.9419 42.9698 38.9436C42.9767 38.9453 42.9831 38.9486 42.9884 38.9534C42.9937 38.9582 42.9976 38.9642 43 38.9709V41.741Z" fill="#5B5B5B"/>
<path d="M36.5251 23.6037C36.5251 25.2956 36.515 26.9886 36.5251 28.6805C36.5251 29.0227 36.4397 29.1596 36.0759 29.136C35.6436 29.108 35.209 29.1226 34.7744 29.136C34.5756 29.136 34.4903 29.0642 34.5083 28.8656C34.5172 28.768 34.5083 28.6693 34.5083 28.5717C34.5083 23.7039 34.5083 18.8361 34.5083 13.9683C34.5083 13.3681 34.3353 13.1987 33.7413 13.1919C33.8394 12.9846 33.8903 12.7582 33.8903 12.5289C33.8903 12.2995 33.8394 12.0731 33.7413 11.8658C34.2432 11.684 34.3948 11.3183 34.4072 10.7999C34.4216 10.5239 34.5391 10.2633 34.7363 10.0695C34.9336 9.87575 35.1964 9.76287 35.4729 9.75314C35.9861 9.72846 36.4465 10.0897 36.5958 10.6451C36.6406 10.8358 36.6598 11.0316 36.6531 11.2274C36.6531 14.4826 36.6531 17.7362 36.6531 20.9884C36.6581 21.1563 36.6469 21.3242 36.6194 21.4899C36.524 21.7906 36.5745 22.0991 36.57 22.4054C36.5775 22.8054 36.5624 23.2054 36.5251 23.6037Z" fill="#02B558"/>
<path d="M36.5239 21.5123C36.5239 18.0574 36.5239 14.6037 36.5239 11.151C36.5361 10.9555 36.5148 10.7594 36.461 10.571C36.3049 10.1222 35.8749 9.80918 35.4437 9.85631C35.2046 9.87986 34.9815 9.98679 34.8136 10.1583C34.6456 10.3298 34.5434 10.555 34.5251 10.7943C34.5172 10.8907 34.5251 10.9895 34.5251 11.0871C34.5172 11.6873 34.3499 11.8556 33.7559 11.8612C33.4841 11.8164 33.346 11.6256 33.2865 11.3855C33.0023 10.2557 33.83 8.93406 34.9787 8.66816C36.1971 8.38543 37.4223 9.11694 37.6974 10.2984C37.749 10.5304 37.7739 10.7675 37.7715 11.0052C37.776 14.3606 37.776 17.7163 37.7715 21.0725C37.7715 21.6458 37.6514 21.804 37.1348 21.9397C36.744 21.9958 36.5846 21.8837 36.5239 21.5123Z" fill="black"/>
<path d="M9.40919 2.19026C9.64501 2.7086 9.88419 2.80621 10.4367 2.59304C11.3732 2.2329 12.3053 1.86153 13.2441 1.50587C13.7977 1.29606 14.367 1.17714 14.9566 1.34879C14.4276 1.73026 13.7954 1.88285 13.2048 2.11958C12.376 2.45616 11.5406 2.77031 10.7028 3.08109C9.76742 3.42778 9.11948 4.13909 9.16665 5.3149C9.21044 6.38749 9.17786 7.46344 9.17561 8.53715C9.17561 8.73125 9.19919 8.93208 9.06332 9.09813C8.36484 9.28774 7.66526 9.47398 6.96903 9.67033C6.77363 9.72642 6.70063 9.69725 6.70287 9.47286C6.71186 8.00535 6.68829 6.53671 6.71749 5.07032C6.73096 4.359 7.14644 3.89002 7.8 3.61178C8.28062 3.4087 8.37496 3.18095 8.22785 2.68953C8.66018 2.6166 9.08915 2.53133 9.40919 2.19026Z" fill="#008036"/>
<path d="M36.5239 21.5127C36.6362 21.7808 36.8608 21.8942 37.1303 21.9402C37.1303 22.353 37.1303 22.7644 37.1303 23.1743C36.8743 23.2371 36.6373 23.3291 36.5273 23.5995C36.4004 22.9098 36.3993 22.2028 36.5239 21.5127Z" fill="#726C76"/>
<path d="M8.97126 14.6173C9.33241 14.4347 9.65914 14.191 9.93698 13.897C10.4622 13.3466 11.1411 12.967 11.8853 12.8076C13.5298 12.4518 15.2305 12.4419 16.8791 12.7784C17.6647 12.9504 18.3847 13.3432 18.9543 13.9105C19.8796 14.799 20.3838 14.8843 21.5472 14.3503C21.71 14.2762 21.8706 14.1977 22.0233 14.1259C22.1356 14.1932 22.1008 14.2874 22.1008 14.3604C22.1008 16.4012 22.1165 18.442 22.0884 20.4817C22.0379 24.0316 19.0104 27.3324 15.4765 27.7206C15.3642 27.7329 15.2519 27.7307 15.1396 27.7352C14.1728 27.9046 13.3429 27.623 12.5568 27.0519C10.5759 25.618 9.3463 23.7264 9.0038 21.3019C8.80953 19.932 8.84547 18.5453 8.8713 17.163C8.86806 17.1068 8.87636 17.0506 8.89567 16.9977C8.91499 16.9448 8.9449 16.8965 8.9836 16.8556C9.14755 16.7524 9.33395 16.7714 9.51363 16.7703C10.2559 16.7703 10.9971 16.7703 11.7393 16.7703C11.8934 16.7759 12.0476 16.7703 12.2009 16.7535C12.4782 16.7131 12.7264 16.6256 12.7825 16.3047C12.8353 16.0029 12.6702 15.8335 12.4075 15.728C12.0818 15.6158 11.7461 15.6764 11.4159 15.6697C10.8185 15.6596 10.2211 15.6697 9.6192 15.6697C8.84774 15.6652 8.63999 15.3286 8.97126 14.6173Z" fill="#E9C095"/>
<path d="M6.86234 35.6105C7.17677 36.7325 7.80336 37.2138 8.95214 37.2138H19.8627C21.1934 37.2138 21.9638 36.4419 21.9671 35.1C21.9671 33.5921 21.9671 32.0842 21.9671 30.5C22.4327 30.7433 22.8728 31.0323 23.281 31.3628C23.3562 31.4222 23.3439 31.5131 23.3439 31.595C23.3386 34.9212 23.3323 38.2475 23.3248 41.5737C23.1945 41.6511 23.0519 41.6141 22.9149 41.6141C17.2725 41.6141 11.6296 41.6141 5.98644 41.6141C5.48785 41.6141 5.48785 41.6141 5.48785 41.1204C5.48785 38.6858 5.49459 36.2511 5.48785 33.8165C5.48785 32.9975 6.03134 32.533 6.56137 32.0618C6.7635 31.8834 6.83652 32.0416 6.83539 32.2581C6.8309 33.223 6.8309 34.1882 6.83539 35.1539C6.83203 35.3064 6.80283 35.4624 6.86234 35.6105Z" fill="#E9C095"/>
<path d="M9.06221 9.09948C9.06221 7.81372 9.09366 6.52797 9.04537 5.24445C9.00495 4.17411 9.60684 3.37528 10.5804 3.00054C11.9549 2.46275 13.3313 1.92983 14.7095 1.40176C14.7898 1.37816 14.8722 1.36201 14.9554 1.35352C15.7876 1.5061 16.5343 1.90103 17.3136 2.19386C18.5489 2.65386 19.7639 3.1363 20.9857 3.6165C21.7459 3.91494 22.0884 4.41084 22.0918 5.21865C22.0974 6.6166 22.0806 8.01343 22.1019 9.41139C22.1019 9.77826 22.002 9.81192 21.6819 9.72666C18.818 8.9504 15.8555 8.59884 12.8892 8.68324C11.6035 8.71578 10.3323 8.89641 9.06221 9.09948Z" fill="#008036"/>
<path d="M36.515 32.591C36.6374 33.1194 36.981 33.4156 37.4841 33.5906C40.0579 34.4882 41.6536 36.6984 41.7153 39.4405C41.7299 40.0553 41.7153 40.6746 41.7153 41.285C41.7153 41.5913 41.5929 41.7461 41.2662 41.745C37.9235 41.7353 34.5805 41.7296 31.2371 41.7281C31.202 41.6936 31.1745 41.6521 31.1563 41.6063C31.1381 41.5605 31.1297 41.5115 31.1315 41.4622C31.1484 40.402 31.008 39.3305 31.2034 38.2826C31.6762 35.7324 33.1371 33.9665 35.5414 32.987C35.7884 32.8872 36.0433 32.812 36.2488 32.6313C36.3241 32.5674 36.4139 32.5158 36.515 32.591Z" fill="#02B558"/>
<path d="M10.9005 29.2315C10.9611 29.8856 10.8668 30.543 10.9768 31.1971C11.1195 32.0473 11.5735 32.8141 12.2506 33.3483C12.9278 33.8826 13.7796 34.146 14.6404 34.0876C15.5012 34.0291 16.3094 33.6528 16.9079 33.0319C17.5064 32.4109 17.8524 31.5898 17.8785 30.7282C17.8897 30.2951 17.8897 29.862 17.8785 29.4289C17.8785 29.2225 17.9111 29.1137 18.1536 29.1507C18.9571 29.2662 19.747 29.4613 20.5118 29.733C20.678 29.7936 20.7128 29.8946 20.7128 30.0494C20.7128 31.7828 20.7128 33.5162 20.7061 35.2496C20.7061 35.7276 20.4444 35.9542 19.9559 35.9542C16.2494 35.9542 12.5437 35.9542 8.83873 35.9542C8.38393 35.9542 8.12792 35.7298 8.12567 35.3125C8.12567 33.7608 8.13352 32.2103 8.13913 30.6586C8.86119 29.9944 9.73037 29.5838 10.6265 29.2214C10.6687 29.1979 10.7166 29.1865 10.7649 29.1883C10.8132 29.1901 10.8601 29.205 10.9005 29.2315Z" fill="#02B558"/>
<path d="M8.97124 14.6171C8.98472 15.5416 8.98472 15.5416 9.928 15.5416C10.6534 15.5416 11.3788 15.5416 12.1043 15.5416C12.239 15.5416 12.3861 15.5001 12.5018 15.6123C12.339 15.7997 12.1166 15.7469 11.9134 15.7492C10.9757 15.7582 10.038 15.7413 9.10599 15.7582C8.62087 15.7671 8.39402 16.0891 8.58492 16.4583C8.62627 16.5319 8.68295 16.5958 8.75112 16.6456C8.83871 16.7129 8.93977 16.769 8.97571 16.8835C8.97571 17.7911 8.94877 18.6999 8.98358 19.6053C9.03411 20.8833 9.16324 22.1466 9.67755 23.3493C10.275 24.745 11.2014 25.858 12.3872 26.7825C12.8072 27.1112 13.2856 27.3311 13.7348 27.6161C13.8687 27.6927 14.0222 27.7282 14.1761 27.7182C14.4973 27.7182 14.8184 27.7272 15.1385 27.7328C13.7857 27.9224 12.4073 27.6929 11.1891 27.0753C8.30645 25.6572 6.79159 23.3179 6.71635 20.1012C6.67143 18.2141 6.70736 16.3248 6.70848 14.4365C6.70848 14.3243 6.71748 14.2211 6.72534 14.0674C7.462 14.3871 8.13689 14.855 8.97124 14.6171Z" fill="#E2B988"/>
<path d="M9.05773 10.4351C10.3671 10.1052 11.7056 9.98631 13.0464 9.93807C15.9919 9.82587 18.8768 10.2399 21.7156 11.014C22.0042 11.0926 22.0637 11.2261 22.1142 11.5189C22.2737 12.4557 21.8897 12.9415 21.0138 13.222C20.3187 13.4464 20.34 13.507 19.8156 12.9976C18.9676 12.1698 17.8814 11.6284 16.7095 11.4493C15.1306 11.1968 13.5203 11.2139 11.9471 11.4998C10.8893 11.6928 9.97405 12.1809 9.15654 12.8664C8.97799 12.8664 8.95552 12.7261 8.94766 12.6094C8.90555 11.9571 8.90555 11.3028 8.94766 10.6505C8.95747 10.5679 8.99652 10.4915 9.05773 10.4351Z" fill="#02B558"/>
<path d="M36.515 32.5906C35.8412 33.1213 34.981 33.275 34.2691 33.7507C32.5217 34.9276 31.51 36.5702 31.2573 38.6312C31.1327 39.6488 31.2349 40.6945 31.2337 41.7278C30.7307 41.7278 30.2231 41.7334 29.7256 41.7424C29.4752 41.7424 29.3068 41.6448 29.3124 41.3834C29.3348 40.3119 29.2057 39.2326 29.4527 38.1712C29.9569 36.0002 31.2393 34.4867 33.3157 33.6688C34.3611 33.2571 34.5105 33.0742 34.5105 31.9477C34.5105 31.5147 34.5184 31.0816 34.5105 30.6485C34.5049 30.4421 34.5543 30.3422 34.7856 30.349C35.2606 30.3624 35.7356 30.3613 36.2106 30.349C36.4476 30.3433 36.5284 30.4264 36.5228 30.6642C36.5094 31.306 36.5161 31.9489 36.515 32.5906Z" fill="#008036"/>
<path d="M24.6027 32.4365C26.103 34.0757 26.998 35.8764 27.3719 37.9341C27.4883 38.5526 27.5454 39.1807 27.5426 39.81C27.551 40.2836 27.3805 40.743 27.0649 41.0965C26.7494 41.45 26.3121 41.6717 25.8402 41.7173C24.605 41.8665 24.605 41.8665 24.605 40.6358V32.4365H24.6027Z" fill="#02B558"/>
<path d="M4.18074 41.405C4.19534 41.5554 4.25599 41.7349 3.99884 41.7259C3.59458 41.7125 3.18806 41.7674 2.78492 41.6822C1.92699 41.5004 1.27793 40.8284 1.27231 39.9588C1.25322 37.1282 2.21109 34.6565 4.18074 32.4541V36.4527C3.89214 37.6566 3.6395 38.8661 3.7226 40.1159C3.75404 40.5849 3.98647 40.9899 4.18074 41.405Z" fill="#02B558"/>
<path d="M16.6432 29.9475C16.6253 30.3087 16.6433 30.679 16.5815 31.0324C16.4809 31.5669 16.1872 32.0458 15.7562 32.378C15.3253 32.7102 14.7872 32.8726 14.2442 32.8342C13.7012 32.7958 13.1913 32.5594 12.8115 32.1699C12.4316 31.7803 12.2083 31.2649 12.184 30.7216C12.1559 30.1607 12.184 29.5997 12.1717 29.0466C12.1717 28.8323 12.2402 28.7784 12.44 28.8222C13.7365 29.1307 15.0874 29.1307 16.3839 28.8222C16.568 28.7784 16.6365 28.83 16.6287 29.023C16.6174 29.3304 16.6287 29.6378 16.6287 29.9452L16.6432 29.9475Z" fill="#E2B988"/>
<path d="M23.3551 15.3896C24.3602 15.6802 25.0395 16.6238 25.0699 17.7267C25.0991 18.7443 24.4354 19.8135 23.5977 20.1277C23.3338 20.2264 23.3551 20.0783 23.3551 19.9122V15.3896Z" fill="#D5A06D"/>
<path d="M5.44519 15.3887C5.44519 16.919 5.44519 18.4179 5.44519 19.9124C5.44519 20.1289 5.42611 20.2232 5.16895 20.1087C4.27059 19.7059 3.69677 18.713 3.74843 17.6012C3.76991 17.103 3.94424 16.6235 4.24778 16.2277C4.55132 15.8319 4.96935 15.539 5.44519 15.3887Z" fill="#D5A06D"/>
<path d="M9.05774 10.4355C9.05774 11.1087 9.05774 11.774 9.05774 12.4438C9.05774 12.5908 9.00383 12.7557 9.1543 12.8713C8.59283 13.5176 8.57486 13.4581 7.78318 13.1967C6.88482 12.9027 6.5412 12.3911 6.68606 11.4644C6.7321 11.1715 6.79835 11.0235 7.08022 10.9427C7.73602 10.7553 8.38173 10.5354 9.05774 10.4355Z" fill="#008036"/>
<path d="M6.86238 35.6107C6.73211 35.4671 6.78937 35.291 6.78824 35.1294C6.78824 34.1129 6.78824 33.0976 6.78824 31.9487C6.14367 32.6825 5.48452 33.1985 5.51371 34.233C5.57884 36.524 5.54177 38.8184 5.52493 41.1117C5.52493 41.4819 5.62039 41.5807 5.99209 41.5795C11.7708 41.5683 17.5495 41.5657 23.3282 41.5717C23.2316 41.731 23.0767 41.648 22.9531 41.648C17.2575 41.6525 11.5627 41.6558 5.86855 41.6581C5.54514 41.6581 5.44408 41.5863 5.44632 41.2463C5.4613 38.0862 5.4613 34.926 5.44632 31.7658C5.43524 31.6494 5.45781 31.5322 5.51135 31.4282C5.5649 31.3242 5.64715 31.2377 5.74839 31.179C6.09651 30.9546 6.42218 30.691 6.859 30.5059L6.86238 35.6107Z" fill="#E9C095"/>
<path d="M4.18073 41.4045C3.80455 41.1599 3.69 40.7403 3.64284 40.3622C3.48001 39.0562 3.70686 37.7817 4.08418 36.5262C4.09316 36.4948 4.14705 36.4768 4.18073 36.4521V41.4045Z" fill="#02B558"/>
<path d="M10.9005 29.2312C10.1694 29.4388 9.52712 29.8303 8.87918 30.2129C8.62988 30.361 8.42437 30.582 8.13352 30.6617C8.09984 29.607 7.98642 29.8572 8.91959 29.5397C9.43462 29.3737 9.96335 29.2536 10.4996 29.1807C10.6254 29.1583 10.7893 29.0494 10.9005 29.2312Z" fill="#008036"/>
<path d="M14.3928 24.9453C13.1576 24.9397 12.0459 23.8615 12.0785 22.7092C12.0908 22.2773 12.2862 22.026 12.6309 21.9979C13.0251 21.9665 13.2755 22.1999 13.3373 22.6531C13.4215 23.2826 13.8291 23.682 14.394 23.6876C14.9588 23.6932 15.3664 23.305 15.4675 22.6778C15.5427 22.1988 15.7662 21.98 16.1581 22.0047C16.5501 22.0293 16.7308 22.2908 16.7263 22.7822C16.7174 23.9254 15.6157 24.9498 14.3928 24.9453Z" fill="black"/>
<path d="M18.1828 15.6043C18.7005 15.6043 19.217 15.5975 19.7347 15.6043C20.1839 15.611 20.4736 15.8657 20.4691 16.2314C20.4646 16.5972 20.1918 16.853 19.7673 16.8564C18.6915 16.8676 17.615 16.8676 16.5377 16.8564C16.1076 16.8564 15.8538 16.5938 15.8549 16.2225C15.856 15.8511 16.1065 15.6144 16.5467 15.6054C17.0913 15.5953 17.637 15.6043 18.1828 15.6043Z" fill="#010101"/>
<path d="M8.97352 16.8854C8.47718 16.7126 8.29973 16.4949 8.36149 16.128C8.42326 15.7612 8.68939 15.6052 9.05884 15.6074C10.2065 15.6074 11.3542 15.6074 12.5018 15.6142C12.8387 15.7578 13.0184 16.0035 12.9319 16.3749C12.8376 16.7776 12.5254 16.8618 12.1593 16.8629C11.0936 16.8674 10.0358 16.8775 8.97352 16.8854Z" fill="#010101"/>
<path d="M18.4265 17.9668C18.5595 17.9657 18.6914 17.9915 18.8142 18.0426C18.937 18.0937 19.0481 18.1691 19.141 18.2643C19.2338 18.3595 19.3064 18.4725 19.3544 18.5964C19.4024 18.7204 19.4248 18.8527 19.4203 18.9856C19.416 19.2468 19.3105 19.4962 19.126 19.6813C18.9415 19.8665 18.6924 19.973 18.431 19.9785C18.1623 19.9774 17.9047 19.871 17.7136 19.6822C17.5225 19.4933 17.4132 19.2372 17.4091 18.9687C17.4112 18.7011 17.5195 18.4453 17.7103 18.2574C17.901 18.0696 18.1586 17.965 18.4265 17.9668Z" fill="#010100"/>
<path d="M11.4047 18.9709C11.4156 19.1105 11.3974 19.2509 11.3511 19.3831C11.3048 19.5153 11.2316 19.6365 11.1359 19.7388C11.0402 19.8412 10.9243 19.9226 10.7955 19.9778C10.6666 20.033 10.5277 20.0608 10.3875 20.0595C10.2474 20.0582 10.109 20.0277 9.98123 19.9701C9.85347 19.9125 9.73909 19.8289 9.64539 19.7247C9.55169 19.6205 9.48071 19.498 9.43695 19.365C9.39319 19.2319 9.37764 19.0912 9.39125 18.9518C9.41577 18.7005 9.53364 18.4675 9.72161 18.2987C9.90958 18.13 10.154 18.0377 10.4067 18.0401C10.6594 18.0425 10.902 18.1394 11.0868 18.3117C11.2715 18.484 11.3849 18.7192 11.4047 18.9709Z" fill="#010100"/>
</g>
<defs>
<clipPath id="clip0_2266_4079">
<rect width="43" height="43" fill="white"/>
</clipPath>
</defs>
</svg>
