<svg width="28" height="28" viewBox="0 0 28 28" fill="none" xmlns="http://www.w3.org/2000/svg">
<path d="M28 13.875C27.9554 18.2564 26.3996 21.8179 23.152 24.601C22.8416 24.8667 22.8408 24.8675 22.6026 24.5392C20.727 21.9503 18.8495 19.3626 16.9702 16.7759C16.8397 16.5971 16.8624 16.5004 16.9872 16.3387C17.3737 15.8485 17.6336 15.2702 17.7437 14.6551C17.8538 14.04 17.8107 13.4071 17.6183 12.8127C17.4259 12.2183 17.0901 11.6807 16.6408 11.2477C16.1914 10.8147 15.6424 10.4997 15.0425 10.3306C14.8431 10.2729 14.7775 10.1973 14.7783 9.98361C14.7864 6.7512 14.7864 3.51905 14.7783 0.28718C14.7783 0.0287824 14.8658 -0.0102163 15.0903 0.00766031C17.7416 0.22543 20.153 1.10137 22.2833 2.69645C25.4378 5.05941 27.2926 8.213 27.8744 12.1223C27.9036 12.323 27.9287 12.5245 27.9417 12.726C27.9643 13.1478 27.9838 13.5727 28 13.875Z" fill="#008036"/>
<path d="M13.0985 27.9999C8.42957 28.0162 3.2412 24.566 1.12307 19.4159C0.969117 19.0413 0.969117 19.0422 1.35563 18.9154C4.36617 17.9343 7.37564 16.9514 10.384 15.9666C10.6158 15.8902 10.7211 15.9259 10.8597 16.134C11.3347 16.8473 12.0382 17.377 12.8539 17.6353C13.6696 17.8937 14.5488 17.8654 15.3463 17.5551C15.5546 17.4739 15.6396 17.5194 15.7563 17.6811C17.647 20.2976 19.5404 22.91 21.4366 25.5184C21.5808 25.7166 21.5589 25.7938 21.3555 25.9189C19.1045 27.2971 16.6639 27.9951 13.0985 27.9999Z" fill="#008036"/>
<path d="M0 13.5857C0.0980466 9.59112 1.74701 6.0613 4.98903 3.28231C5.15109 3.14011 5.22645 3.15149 5.35286 3.32619C7.25221 5.95892 9.15695 8.58841 11.0671 11.2146C11.1635 11.3471 11.183 11.4357 11.0671 11.577C10.439 12.3198 10.1286 13.2811 10.2033 14.252C10.2163 14.456 10.0915 14.4576 9.97239 14.4958C8.64997 14.9292 7.32648 15.3625 6.0019 15.7959C4.26705 16.3647 2.52895 16.9189 0.797335 17.495C0.554244 17.5763 0.473222 17.5348 0.420552 17.2878C0.142004 16.0736 0.000924983 14.8317 0 13.5857Z" fill="#008036"/>
<path d="M13.259 5.12849C13.259 6.72845 13.2517 8.32758 13.2663 9.92753C13.2663 10.1819 13.1852 10.2761 12.9527 10.3338C12.4203 10.4711 12.4211 10.485 12.0994 10.0405C10.2654 7.51176 8.43092 4.98303 6.59586 2.45431C6.45811 2.26498 6.4581 2.17966 6.6704 2.04802C8.56064 0.842329 10.7255 0.13827 12.9616 0.00197064C13.2047 -0.0134682 13.2655 0.0596545 13.2638 0.297738C13.2541 1.90826 13.259 3.51798 13.259 5.12849Z" fill="#008036"/>
</svg>
