<svg width="26" height="21" viewBox="0 0 26 21" fill="none" xmlns="http://www.w3.org/2000/svg">
<path d="M12.4837 20.9968C9.82176 20.9968 7.15978 20.9968 4.49779 20.9968C1.9152 20.9968 0.00569032 19.1168 0.00243871 16.568C-0.000812902 13.353 -0.000812902 10.1379 0.00243871 6.92284C0.00243871 4.36606 1.90218 2.48522 4.48071 2.47799C5.28385 2.47799 6.0862 2.47238 6.88935 2.48203C6.95858 2.49175 7.02907 2.4771 7.0885 2.44066C7.14793 2.40423 7.19253 2.34833 7.21451 2.2827C7.32994 2.02629 7.45837 1.77551 7.59575 1.52956C8.1404 0.548159 8.97769 0.0233092 10.1158 0.0120565C11.7009 -0.00401883 13.2858 -0.00401883 14.8704 0.0120565C16.0166 0.0225055 16.8628 0.55296 17.4099 1.54722C17.5725 1.84622 17.6538 2.27064 17.9058 2.42175C18.1708 2.57768 18.5935 2.47075 18.9479 2.47799C19.7186 2.49406 20.4998 2.43782 21.259 2.5407C22.2828 2.67387 23.2234 3.16845 23.9074 3.93328C24.5915 4.69811 24.9729 5.68163 24.9813 6.70259C25.01 10.0591 25.01 13.4154 24.9813 16.7714C24.9594 19.1264 23.0084 20.9895 20.6266 20.996C17.9099 21.0024 15.1964 20.9968 12.4837 20.9968ZM12.4748 19.7678C15.1276 19.7678 17.7795 19.7678 20.4307 19.7678C22.4012 19.7678 23.7262 18.4625 23.7286 16.5222C23.7319 13.3264 23.7319 10.1312 23.7286 6.93649C23.7343 6.71543 23.7198 6.4943 23.6855 6.27578C23.401 4.73335 22.1557 3.72382 20.5079 3.70373C19.5433 3.69248 18.5781 3.69248 17.6123 3.70373C17.2514 3.70775 17.0214 3.56631 16.8718 3.244C16.6938 2.8614 16.4922 2.48926 16.2979 2.1139C16.002 1.54242 15.5183 1.2418 14.8777 1.23698C13.2931 1.22412 11.7082 1.22412 10.1231 1.23698C9.46869 1.2418 8.98501 1.55126 8.68343 2.13399C8.49565 2.50131 8.2981 2.86381 8.12577 3.23756C7.97132 3.57273 7.72989 3.71016 7.35758 3.70534C6.40323 3.69141 5.44834 3.69141 4.49291 3.70534C2.57853 3.72704 1.26569 5.03558 1.26325 6.92845C1.25837 10.1339 1.26054 13.3393 1.26975 16.5447C1.26742 16.9354 1.32695 17.324 1.44615 17.6965C1.88187 18.9898 3.05244 19.7654 4.52135 19.7686C7.17195 19.7724 9.82311 19.7721 12.4748 19.7678Z" fill="#8391A1"/>
<path d="M6.25843 11.143C6.22104 7.76723 8.99466 4.98458 12.4365 4.94922C14.0801 4.94928 15.6574 5.59012 16.8262 6.73273C17.995 7.87535 18.661 9.42757 18.6798 11.0526C18.6985 12.6777 18.0684 14.2445 16.9262 15.4131C15.7841 16.5818 14.2219 17.258 12.5787 17.2951C9.12147 17.3489 6.29664 14.6041 6.25843 11.143ZM12.4861 16.0532C15.2174 16.0653 17.4724 13.8694 17.4911 11.18C17.5106 8.43033 15.2727 6.17818 12.5186 6.17496C11.8626 6.17285 11.2126 6.29852 10.6057 6.54478C9.99886 6.79105 9.447 7.15309 8.98163 7.61024C8.51627 8.06739 8.14653 8.6107 7.89352 9.20914C7.64051 9.80758 7.50919 10.4494 7.50706 11.098C7.50492 11.7466 7.63202 12.3893 7.88108 12.9894C8.13014 13.5894 8.49629 14.1351 8.95863 14.5952C9.42098 15.0554 9.97047 15.421 10.5757 15.6711C11.1809 15.9213 11.8301 16.0511 12.4861 16.0532V16.0532Z" fill="#8391A1"/>
</svg>
