<svg width="14" height="13" viewBox="0 0 14 13" fill="none" xmlns="http://www.w3.org/2000/svg">
<g clip-path="url(#clip0_1907_3947)">
<path d="M13.5924 11.6876C13.686 11.7002 13.7742 11.7403 13.8464 11.8034C13.9187 11.8664 13.972 11.9496 14.0001 12.0432V12.9215L13.9212 12.9783C13.7308 12.9925 13.5396 12.9925 13.3492 12.9783C13.0854 12.9783 12.8217 12.9783 12.5545 12.9783C12.4757 12.9783 12.4312 12.9499 12.4312 12.8681C12.4312 12.5125 12.4312 12.1321 12.4312 11.7623C12.4348 11.7339 12.4454 11.7069 12.462 11.684C12.5957 11.623 12.7454 11.6105 12.8868 11.6485C13.0849 11.6674 13.2838 11.6757 13.4828 11.6734C13.5199 11.6708 13.5571 11.6756 13.5924 11.6876Z" fill="#717080"/>
<path d="M14 4.23101H13.9794C13.9645 4.21966 13.9526 4.20458 13.9449 4.18717C13.9371 4.16976 13.9336 4.15059 13.9349 4.13144C13.9195 3.86499 13.9195 3.59783 13.9349 3.33138C13.9419 3.3139 13.9524 3.29815 13.9657 3.28516H13.9897L14 4.23101Z" fill="#EE886F"/>
<path d="M0.411133 11.6874C0.566955 11.6573 0.726098 11.6501 0.883853 11.6661C0.986618 11.6661 1.01745 11.6377 1.01745 11.531C1.01745 9.41885 1.01745 7.30551 1.01745 5.191C1.01745 5.12699 1.08251 5.13411 1.12362 5.13055C1.36186 5.10289 1.58118 4.98264 1.73751 4.79399C1.89383 4.60533 1.9756 4.36226 1.96632 4.1136C1.96632 3.85403 1.96632 3.59445 1.96632 3.33488C1.96337 3.31962 1.96337 3.30391 1.96632 3.28865C1.96632 3.27087 1.9937 3.24954 2.0211 3.27088C2.04724 3.32082 2.05689 3.37827 2.04853 3.43443C2.04853 3.60867 2.04853 3.79003 2.04853 3.96071C2.05242 4.21612 2.13127 4.46421 2.27458 4.67186C2.35918 4.80838 2.47955 4.91702 2.62152 4.98504C2.7635 5.05306 2.92122 5.07762 3.07618 5.05588C3.24237 5.03878 3.40074 4.97426 3.53376 4.86945C3.66678 4.76463 3.76922 4.62362 3.82977 4.46206C3.93696 4.13166 3.97547 3.78142 3.9428 3.43443C3.9428 3.36332 3.91883 3.27799 3.99762 3.22821C4.00823 3.23281 4.01757 3.24009 4.02475 3.24942C4.03194 3.25874 4.03673 3.26978 4.03872 3.28154C4.03872 3.28154 4.03872 3.31354 4.03872 3.32776C4.03872 3.61223 4.03872 3.8967 4.03872 4.18116C4.05324 4.4317 4.15937 4.66702 4.3354 4.83909C4.51143 5.01115 4.74409 5.10696 4.98588 5.10696C5.22766 5.10696 5.46032 5.01115 5.63635 4.83909C5.81238 4.66702 5.91851 4.4317 5.93303 4.18116C5.93303 3.90025 5.93303 3.61579 5.93303 3.33132C5.93133 3.31596 5.93133 3.30045 5.93303 3.28509C5.93303 3.24598 5.93301 3.19976 5.99809 3.20332C6.02861 3.25551 6.03961 3.31751 6.02895 3.37755C6.02895 3.57667 6.02895 3.7758 6.02895 3.97492C6.03698 4.28221 6.15982 4.57421 6.3715 4.78919C6.47556 4.89705 6.604 4.97615 6.74508 5.01924C6.88616 5.06233 7.03537 5.06804 7.17912 5.03587C7.32287 5.00369 7.45657 4.93464 7.568 4.83503C7.67944 4.73542 7.76506 4.60842 7.81705 4.46562C7.90689 4.2406 7.94781 3.99778 7.93694 3.75446C7.91813 3.6003 7.9251 3.44392 7.95751 3.29221C7.96363 3.28808 7.97074 3.28588 7.97804 3.28588C7.98534 3.28588 7.9925 3.28808 7.99861 3.29221C8.01134 3.30209 8.02088 3.31571 8.026 3.33132C8.05341 3.61223 8.026 3.8967 8.026 4.18116C8.03447 4.42111 8.12676 4.64964 8.28568 4.82411C8.44459 4.99858 8.65925 5.10704 8.88957 5.12925C9.11988 5.15146 9.35013 5.0859 9.53729 4.9448C9.72444 4.8037 9.8557 4.59673 9.9066 4.36251C9.92204 4.1744 9.92204 3.98525 9.9066 3.79713C9.9066 3.64423 9.9066 3.4949 9.9066 3.342C9.90382 3.32673 9.90382 3.31105 9.9066 3.29577C9.91324 3.2819 9.92406 3.27066 9.93741 3.26376C10.0093 3.29576 9.99223 3.36332 9.99223 3.42022C9.99223 3.60512 9.99223 3.7758 9.99223 3.97492C9.99088 4.13222 10.0206 4.28815 10.0795 4.43309C10.1384 4.57803 10.2253 4.70889 10.3348 4.81764C10.4398 4.92697 10.5712 5.00508 10.7151 5.04385C10.8591 5.08262 11.0105 5.08064 11.1535 5.0381C11.3582 4.9804 11.5396 4.8557 11.6707 4.68252C11.7384 4.59911 11.7833 4.49844 11.8009 4.39094C11.8009 4.32694 11.8009 4.23449 11.9242 4.28071C11.9293 4.37686 11.9155 4.47308 11.8837 4.56355C11.8519 4.65401 11.8028 4.73684 11.7392 4.80699C11.7088 4.85398 11.6705 4.89492 11.6262 4.92787C11.5647 4.97086 11.5162 5.03114 11.4865 5.10167C11.4568 5.17219 11.447 5.25004 11.4584 5.32612C11.4584 5.61769 11.4584 5.90928 11.4584 6.20085C11.4584 6.27197 11.4583 6.34664 11.407 6.39642C11.3357 6.41054 11.2624 6.41054 11.1912 6.39642C9.42018 6.39642 7.64919 6.39642 5.87821 6.39642C5.48085 6.39642 5.45002 6.42842 5.45002 6.83733V9.91311C5.45002 10.1656 5.50483 10.2225 5.75147 10.2225H10.4067C10.6979 10.2225 10.9856 10.2225 11.2734 10.2225C11.3275 10.2172 11.3818 10.231 11.4275 10.2616C11.4583 10.3098 11.4716 10.3677 11.4652 10.4251C11.4652 10.7558 11.4652 11.0865 11.4652 11.4172C11.4652 11.627 11.4172 11.6697 11.222 11.6697H4.71353C4.65943 11.6784 4.60408 11.6684 4.55597 11.6412C4.50963 11.5638 4.49369 11.4709 4.51144 11.3817V6.83733C4.51144 6.76977 4.51144 6.70577 4.51144 6.63821C4.51198 6.59741 4.49998 6.5575 4.47719 6.52425C4.4544 6.491 4.42201 6.46617 4.3847 6.45332C4.33479 6.43228 4.28082 6.42375 4.22714 6.42843C3.54204 6.42843 2.82611 6.42843 2.12388 6.42843C2.08399 6.42479 2.04388 6.42479 2.004 6.42843C1.83615 6.45688 1.79161 6.50664 1.78819 6.68088C1.78819 6.77688 1.78819 6.87645 1.78819 6.97602V11.4243C1.80321 11.514 1.79 11.6062 1.75051 11.6874C1.69559 11.7202 1.6316 11.7327 1.56895 11.723H0.541303C0.534452 11.7372 0.465941 11.7479 0.411133 11.6874Z" fill="#E9E9EA"/>
<path d="M0.41106 11.6875H1.80522C1.84671 11.659 1.89601 11.6453 1.94568 11.6484C2.32933 11.6484 2.70955 11.6484 3.08978 11.6484C3.55907 11.6484 4.02497 11.6484 4.49427 11.6484C4.5392 11.6472 4.58374 11.6569 4.62439 11.6768C5.0423 11.6768 5.46366 11.6768 5.88157 11.6768C7.68338 11.6768 9.48177 11.6768 11.2802 11.6768C11.6227 11.6768 11.9447 11.652 12.277 11.652C12.3103 11.6453 12.3446 11.646 12.3776 11.654C12.4106 11.662 12.4417 11.677 12.4688 11.6982C12.4688 12.0786 12.4688 12.4591 12.4688 12.8431C12.4688 12.9498 12.4996 12.9783 12.599 12.9747H13.9212C13.8801 13.0174 13.8253 13.0031 13.7774 12.9996H0.236357C0.0376778 12.9996 0.0034044 12.9605 0.0034044 12.7614V12.2102C-0.0090681 12.0848 0.026859 11.9594 0.103259 11.8615C0.179659 11.7635 0.290328 11.7009 0.41106 11.6875Z" fill="#8C8A97"/>
<path d="M0.966064 1.33329V0.383896C0.966064 0.0994318 1.0517 0.0283158 1.30861 0.0283158H11.3248H12.695C12.745 0.0173947 12.7971 0.0249399 12.8423 0.0496497C12.8158 0.0720454 12.7849 0.0880985 12.7517 0.0967016C12.7185 0.105305 12.684 0.106231 12.6504 0.0994144H11.7358C11.5782 0.0994144 11.568 0.0994144 11.568 0.277204C11.568 0.56878 11.568 0.860363 11.568 1.15194C11.5778 1.22234 11.5671 1.29418 11.5371 1.35818C11.4789 1.41507 11.4036 1.40085 11.3316 1.40085C10.8246 1.40085 10.304 1.40085 9.80386 1.40085C9.74111 1.39731 9.67819 1.39731 9.61544 1.40085C9.09819 1.37951 8.58778 1.40085 8.06025 1.40085C8.00144 1.40393 7.94299 1.41226 7.88555 1.42574C7.71994 1.40142 7.55253 1.39308 7.38544 1.40085H4.41895C3.84689 1.40085 3.27141 1.40085 2.7062 1.40085C2.18895 1.40085 1.67855 1.40085 1.15787 1.40085C1.123 1.40811 1.08693 1.40568 1.05325 1.39382C1.01957 1.38195 0.989484 1.36107 0.966064 1.33329Z" fill="#FEC851"/>
<path d="M11.3246 1.35484H11.5165C11.5592 1.3263 11.6096 1.31261 11.6603 1.31573H12.9072C12.9319 1.31264 12.957 1.31517 12.9806 1.32315C13.0043 1.33114 13.026 1.34438 13.0442 1.36196L13.9828 3.31409V3.34964C13.9639 3.36708 13.9415 3.37996 13.9172 3.38733C13.8929 3.39471 13.8674 3.3964 13.8424 3.3923C13.2737 3.3923 12.7051 3.3923 12.1296 3.3923H12.0474C12.0234 3.38638 12.0018 3.37269 11.9858 3.3532C11.9017 3.18686 11.835 3.01163 11.7871 2.8305C11.6398 2.3967 11.4822 1.97 11.3418 1.53975C11.3246 1.4473 11.2801 1.39751 11.3246 1.35484Z" fill="#F05432"/>
<path d="M0.965904 1.33301H2.67865C2.71633 1.3899 2.67865 1.44324 2.67865 1.49302C2.4834 2.04773 2.28816 2.59887 2.09633 3.15713C2.08809 3.19886 2.06479 3.23574 2.03123 3.26024L2.00727 3.28514C1.95881 3.32152 1.89859 3.33683 1.83942 3.32781H0.202026C0.143792 3.32781 0.0821366 3.32781 0.0341797 3.2887C0.267113 2.80511 0.496622 2.31795 0.719279 1.83437C0.801491 1.6708 0.883693 1.50013 0.965904 1.33301Z" fill="#F05432"/>
<path d="M1.99703 3.32433C1.99703 3.63368 1.99703 3.9466 1.99703 4.25951C1.97486 4.48801 1.87881 4.702 1.72456 4.86664C1.57031 5.03128 1.36694 5.13687 1.14751 5.16623L1.01391 5.19112C0.757855 5.18785 0.512596 5.08347 0.328058 4.89918C0.14352 4.71488 0.0335535 4.46453 0.0205078 4.19906C0.0205078 3.92527 0.0205078 3.64791 0.0205078 3.37412C0.0205078 3.32433 0.0204911 3.2959 0.089001 3.2959C0.722718 3.2959 1.35645 3.2959 1.98674 3.2959L1.99703 3.32433Z" fill="#E5202B"/>
<path d="M13.0375 1.35512H11.5098C11.5098 0.963986 11.5098 0.572852 11.5098 0.181714C11.5098 0.0857079 11.5372 0.0537109 11.6331 0.0537109C12.0339 0.0537109 12.4312 0.0537109 12.832 0.0537109C12.8976 0.0650743 12.9563 0.102744 12.9954 0.158623C13.0345 0.214501 13.0508 0.284096 13.041 0.352386C13.0375 0.66174 13.0375 0.999544 13.0375 1.35512Z" fill="#FAA62A"/>
<path d="M1.99699 3.32433H0.157503C0.0478875 3.32433 0.0273362 3.36345 0.0307617 3.46301C0.0307617 3.71192 0.0307617 3.96082 0.0307617 4.21328C-0.00179036 3.90841 -0.00179036 3.60076 0.0307617 3.2959H2.00385L1.99699 3.32433Z" fill="#F05C50"/>
<path d="M11.9825 3.29219L12.0064 3.32064C12.039 3.37201 12.0524 3.43397 12.0441 3.49487V4.16336C12.0422 4.41402 12.1352 4.65542 12.3031 4.83563C12.4709 5.01585 12.7002 5.12046 12.9416 5.12697C12.9964 5.12697 13.0547 5.12697 13.0923 5.1732C13.0101 5.1732 12.9861 5.24076 12.9861 5.32965C12.9861 7.39676 12.9861 9.46032 12.9861 11.5203C12.9861 11.6448 13.0273 11.6696 13.1334 11.6661C13.2866 11.6482 13.4415 11.6554 13.5924 11.6874H12.4689H4.62109C4.62109 11.6874 4.62109 11.6696 4.62109 11.6625H11.3248C11.4515 11.6625 11.4789 11.6056 11.4789 11.4919C11.4789 11.0936 11.4789 10.6989 11.4789 10.3007C11.544 10.2295 11.6331 10.258 11.7119 10.2509C11.8968 10.2509 11.9585 10.1869 11.9585 9.9913C11.9585 8.89256 11.9585 7.79027 11.9585 6.69153C11.9585 6.58841 11.9585 6.49241 11.8352 6.44618C11.7732 6.42067 11.7063 6.41091 11.6399 6.41773C11.5851 6.41773 11.5234 6.41773 11.4789 6.37506C11.4789 5.98037 11.4789 5.58213 11.4789 5.18744C11.4764 5.14601 11.4843 5.10461 11.5017 5.06724C11.5191 5.02988 11.5454 4.9978 11.5783 4.97407C11.6913 4.89403 11.7855 4.78848 11.8537 4.66533C11.9219 4.54218 11.9624 4.40461 11.9722 4.26291C11.9387 4.21188 11.9241 4.15001 11.9311 4.08868C11.9311 3.854 11.9311 3.61932 11.9311 3.37752C11.9322 3.3418 11.9403 3.30671 11.955 3.27441L11.9825 3.29219Z" fill="#BABBC1"/>
<path d="M13.0922 5.17393C12.8506 5.20023 12.608 5.13371 12.4104 4.98694C12.2129 4.84017 12.074 4.62333 12.02 4.37744C12.0017 4.25992 11.9948 4.1408 11.9994 4.02186C11.9994 3.79429 11.9994 3.56316 11.9994 3.33203H13.9588C13.9588 3.63427 13.9588 3.94007 13.9588 4.24231C13.9405 4.47771 13.8441 4.69923 13.6861 4.86912C13.5281 5.039 13.3182 5.14672 13.0922 5.17393Z" fill="#E51F2B"/>
<path d="M11.4822 6.38281C11.6021 6.4077 11.7254 6.35791 11.8248 6.4148C11.7971 6.43625 11.7655 6.45146 11.7319 6.45942C11.6983 6.46739 11.6634 6.46793 11.6295 6.46103H10.7149C10.5059 6.46103 10.5025 6.46103 10.5025 6.68149C10.5025 7.80512 10.5025 8.92877 10.5025 10.0524C10.5025 10.1377 10.5231 10.2266 10.4614 10.2978H5.74793C5.52185 10.2978 5.46021 10.2337 5.46021 9.99194V6.71706C5.46021 6.45749 5.52188 6.38991 5.77194 6.38991H9.48859C10.1634 6.39347 10.8211 6.38637 11.4822 6.38281Z" fill="#2EBEC3"/>
<path d="M4.62773 11.6667C4.62625 11.6749 4.62625 11.6833 4.62773 11.6916H3.1034C3.08384 11.6651 3.06979 11.6346 3.06213 11.6022C3.05447 11.5697 3.05335 11.536 3.05887 11.5031V6.60679C3.05887 6.40766 3.05885 6.40054 3.25753 6.40054H4.34C4.38394 6.38992 4.42966 6.38992 4.4736 6.40054C4.57979 6.40054 4.62088 6.47877 4.63116 6.57833C4.63466 6.61974 4.63466 6.66137 4.63116 6.70278V11.4818C4.62431 11.5529 4.62431 11.6098 4.62773 11.6667Z" fill="#12B0C0"/>
<path d="M4.47363 6.41419C4.06942 6.41419 3.66177 6.41419 3.25756 6.41419C3.13424 6.41419 3.1 6.44976 3.1 6.58132C3.1 8.28337 3.1 9.98778 3.1 11.6946H1.81201C1.81201 10.0352 1.81201 8.37582 1.81201 6.71645C1.81201 6.45687 1.8634 6.39642 2.11346 6.39642C2.86364 6.39642 3.61385 6.39642 4.36403 6.39642C4.3824 6.39056 4.40178 6.38913 4.42077 6.39221C4.43976 6.39529 4.45785 6.40279 4.47363 6.41419Z" fill="#2EBEC3"/>
<path d="M2.02449 3.26751L2.55889 1.71007L2.6822 1.35449H4.39495C4.43605 1.41138 4.39495 1.47183 4.39495 1.52872C4.28876 2.04076 4.18598 2.5528 4.07979 3.06483C4.07979 3.13239 4.07979 3.21063 3.99758 3.24974C3.91537 3.28885 3.97362 3.3493 3.97362 3.40264C3.97362 3.61243 3.97362 3.82932 3.97362 4.03912C3.96783 4.21991 3.92221 4.39693 3.84027 4.55658C3.75832 4.71622 3.64223 4.85425 3.5009 4.96008C3.3775 5.0418 3.23747 5.09268 3.0919 5.10868C2.94634 5.12468 2.7992 5.10536 2.66204 5.05227C2.52489 4.99918 2.40149 4.91376 2.30156 4.80273C2.20162 4.69171 2.12789 4.55811 2.08617 4.41247C2.02216 4.03468 2.00145 3.65036 2.02449 3.26751Z" fill="white"/>
<path d="M6.13165 1.35449H7.77247C7.817 1.35449 7.85127 1.3545 7.8684 1.40784C7.88552 1.46117 7.91293 1.49672 7.91636 1.55006C7.95404 2.03009 7.98485 2.51012 8.02253 2.97238C8.04692 3.07846 8.03607 3.18999 7.99171 3.28885C7.98144 3.47715 7.98144 3.66592 7.99171 3.85423C8.00793 4.13743 7.93456 4.41837 7.78276 4.65428C7.71391 4.77444 7.62005 4.8771 7.50808 4.9548C7.39611 5.0325 7.26883 5.08328 7.13555 5.10338C7.00226 5.12349 6.86636 5.11242 6.73772 5.07102C6.60907 5.02962 6.49094 4.95891 6.39199 4.86406C6.26998 4.73201 6.17452 4.57609 6.11112 4.40537C6.03455 4.21438 6.00398 4.0069 6.02205 3.80088C6.02205 3.60176 6.02205 3.40264 6.02205 3.20707C5.97332 3.09547 5.9636 2.96972 5.99462 2.85149C6.0323 2.40346 6.05287 1.95186 6.09397 1.50383C6.09055 1.45049 6.08027 1.38649 6.13165 1.35449Z" fill="white"/>
<path d="M11.972 3.38115C11.972 3.68339 11.972 3.98563 11.972 4.28788C11.9608 4.28919 11.9498 4.29284 11.9399 4.29857C11.93 4.30431 11.9213 4.31203 11.9143 4.3213C11.9073 4.33056 11.9021 4.34117 11.8991 4.35253C11.8961 4.36388 11.8953 4.37576 11.8967 4.38745C11.8693 4.54827 11.7924 4.69551 11.6775 4.80703C11.5295 4.97181 11.3283 5.07433 11.1122 5.09505C11.0074 5.11495 10.8997 5.11294 10.7956 5.08912C10.6915 5.06531 10.593 5.02017 10.5059 4.95637C10.3303 4.83123 10.1934 4.65582 10.112 4.45145C10.0252 4.24075 9.98882 4.01141 10.0058 3.78296C10.0219 3.60961 10.0138 3.43476 9.98181 3.2638C9.927 3.23536 9.92017 3.17846 9.90989 3.12156C9.79685 2.58464 9.69066 2.05483 9.56734 1.50368C9.55644 1.48041 9.55078 1.45489 9.55078 1.42902C9.55078 1.40315 9.55644 1.37761 9.56734 1.35434C9.58676 1.34409 9.60756 1.3369 9.62902 1.33301H11.2938C11.5062 1.95527 11.722 2.5811 11.9344 3.20692C11.9439 3.23246 11.9519 3.25857 11.9583 3.28514C11.8624 3.3527 11.7562 3.31358 11.6535 3.32425H11.513C11.6672 3.3598 11.8213 3.29581 11.972 3.38115Z" fill="white"/>
<path d="M10.4751 10.2973C10.4751 9.05277 10.4751 7.80822 10.4751 6.56724C10.4751 6.43924 10.5128 6.41079 10.6292 6.41435H11.8453C11.9926 6.41435 12.0097 6.5388 12.0097 6.6597V9.09543C12.0097 9.4119 12.0097 9.72836 12.0097 10.0448C12.0097 10.2262 11.9344 10.3008 11.7631 10.3044H11.489L10.4751 10.2973Z" fill="#12B0C0"/>
<path d="M9.59137 1.35443L9.98531 3.26389C9.98684 3.27331 9.98684 3.28293 9.98531 3.29234C9.93735 3.34212 9.87569 3.33145 9.81746 3.33501H8.18349C8.12482 3.34363 8.06514 3.32973 8.01565 3.2959C7.98139 2.79453 7.95059 2.29315 7.91634 1.79178C7.91634 1.66022 7.91631 1.52866 7.89233 1.40065C7.89233 1.35443 7.93344 1.34375 7.97454 1.34375H9.56398C9.57342 1.34637 9.58259 1.34996 9.59137 1.35443Z" fill="#F05432"/>
<path d="M6.13156 1.35449C6.09388 1.9732 6.05278 2.59546 6.01168 3.21773L5.98772 3.30662C5.96441 3.32471 5.93783 3.3378 5.9096 3.34512C5.88138 3.35245 5.85202 3.35386 5.82326 3.34929H4.18933C4.13014 3.3587 4.06978 3.34336 4.02148 3.30662V3.24974L4.41195 1.35449H6.13156Z" fill="#F05432"/>
<path d="M5.98774 3.3245C5.98774 3.64097 5.98774 3.95745 5.98774 4.27392C5.96104 4.53114 5.84184 4.76843 5.65397 4.93844C5.4661 5.10844 5.22339 5.19865 4.97426 5.19101C4.72514 5.18338 4.48791 5.07848 4.31003 4.89727C4.13215 4.71605 4.02668 4.47186 4.01465 4.21345C4.01465 3.91832 4.01465 3.61963 4.01465 3.3245C4.04205 3.29961 4.07631 3.3245 4.10714 3.3245H5.89181C5.92949 3.31028 5.96033 3.29961 5.98774 3.3245Z" fill="#E51F2B"/>
<path d="M9.98196 3.3245C9.98196 3.64097 9.98196 3.95745 9.98196 4.27392C9.95423 4.53156 9.83375 4.7688 9.6446 4.93809C9.45545 5.10738 9.21163 5.19618 8.96205 5.18674C8.71247 5.17729 8.47555 5.07029 8.29878 4.88715C8.12201 4.70402 8.01846 4.45829 8.00888 4.19924C7.99346 3.90788 7.99346 3.61586 8.00888 3.3245C8.03971 3.29961 8.07054 3.3245 8.10137 3.3245H9.88951C9.92034 3.31028 9.95456 3.29961 9.98196 3.3245Z" fill="#E51F2B"/>
<path d="M5.98773 3.32496H4.01807V3.29297H5.9843L5.98773 3.32496Z" fill="#EF5353"/>
<path d="M9.98188 3.32433H8.00879V3.2959H9.97845L9.98188 3.32433Z" fill="#EF5353"/>
<path d="M11.9722 3.38167H11.5783C11.5474 3.38167 11.5063 3.38168 11.5063 3.33901C11.5063 3.29634 11.5474 3.29988 11.5817 3.29988H11.9722V3.38167Z" fill="#E9E9EA"/>
<path d="M4.04883 8.95333C4.05816 9.04196 4.05816 9.13138 4.04883 9.22001C4.03966 9.26902 4.01309 9.31267 3.97439 9.34231C3.93569 9.37194 3.88769 9.3854 3.83988 9.38003C3.79359 9.38121 3.74856 9.36434 3.71368 9.33274C3.6788 9.30114 3.65659 9.25712 3.65146 9.20936C3.6292 9.05614 3.6292 8.9003 3.65146 8.74708C3.65412 8.69678 3.67574 8.64958 3.71163 8.61565C3.74751 8.58173 3.7948 8.56382 3.8433 8.56576C3.8937 8.55974 3.94433 8.57469 3.98414 8.60734C4.02394 8.63999 4.04967 8.6877 4.05568 8.73999C4.05775 8.81118 4.05546 8.88243 4.04883 8.95333Z" fill="#FDFEFE"/>
</g>
<defs>
<clipPath id="clip0_1907_3947">
<rect width="14" height="13" fill="white"/>
</clipPath>
</defs>
</svg>
