<svg width="37" height="41" viewBox="0 0 37 41" fill="none" xmlns="http://www.w3.org/2000/svg">
<g clip-path="url(#clip0_2269_4109)">
<path d="M18.251 40.9996C17.7397 40.807 17.1967 40.6915 16.7399 40.3641C15.7478 39.6527 15.1569 38.7156 15.1394 37.4982C15.1122 35.4988 15.1264 33.4973 15.1253 31.4968C15.1253 28.8302 15.1253 26.1629 15.1253 23.4949C15.1253 22.8391 15.1252 22.8338 15.7609 22.5845C15.9342 22.5161 15.8699 22.3888 15.8699 22.2861C15.8764 21.672 15.8699 21.059 15.8699 20.445C15.8699 19.9272 16.0879 19.7197 16.6102 19.7133C17.031 19.7133 17.454 19.693 17.8738 19.7197C18.1736 19.7379 18.2347 19.6266 18.2249 19.3581C18.2041 18.8232 18.215 18.2883 18.2194 17.7535C18.2292 16.4644 18.9466 15.6685 20.2331 15.4513C23.7088 14.8619 27.1824 14.2553 30.656 13.6573C31.9926 13.4277 33.3293 13.1994 34.6659 12.9727C35.4869 12.8347 35.7562 12.5287 35.7562 11.7093C35.7562 10.3357 35.7562 8.96174 35.7562 7.58744C35.7562 6.72306 35.4051 6.38502 34.5176 6.3786C33.7544 6.3786 33.7544 6.3786 33.7544 7.12744C33.7544 7.8613 33.7621 8.59516 33.7544 9.32902C33.7381 10.6213 32.8027 11.5306 31.4802 11.5349C29.5374 11.5349 27.5934 11.5285 25.6495 11.5413C25.2134 11.5413 24.9517 11.3841 24.8482 10.9711C24.774 10.616 24.9234 10.372 25.2919 10.2608C25.4899 10.2142 25.6938 10.1972 25.897 10.2105C27.7013 10.2105 29.5046 10.2105 31.309 10.2105C32.0602 10.2105 32.3382 9.94949 32.3993 9.22418C32.3938 6.98516 32.3993 4.74613 32.3993 2.5071C32.3993 1.61705 32.1125 1.33036 31.2065 1.33036C27.9605 1.33036 24.7144 1.33036 21.4684 1.33036C20.9232 1.33036 20.9003 1.35389 20.8993 1.8984C20.8993 3.44529 20.8993 4.99111 20.8993 6.53692C20.8993 7.25581 20.6812 7.89981 20.1611 8.42828C19.435 9.16856 18.5465 9.34721 17.5794 9.07014C16.5917 8.78665 16.028 8.09023 15.835 7.09962C15.7336 6.58399 15.7707 6.06409 15.7631 5.54525C15.7532 4.86273 15.4774 4.46799 14.9203 4.34925C14.409 4.24227 13.9696 4.51292 13.6981 5.10985C13.6546 5.22218 13.6335 5.34167 13.636 5.46181C13.636 6.82041 13.6261 8.17902 13.636 9.53763C13.6436 10.2062 13.6589 10.2073 14.3632 10.2073H22.5085C22.7253 10.1937 22.943 10.2081 23.1561 10.2501C23.542 10.3496 23.7099 10.5999 23.6489 10.9754C23.5638 11.4033 23.2793 11.5434 22.853 11.5424C19.8766 11.5338 16.8991 11.5424 13.9216 11.5285C13.5684 11.5285 13.5019 11.6269 13.5106 11.9478C13.5346 12.8036 13.5248 13.6595 13.5171 14.5089C13.5041 15.8471 12.4639 16.8912 11.1404 16.9062C9.77756 16.9212 8.71456 15.9092 8.6873 14.5527C8.67059 13.6734 8.67059 12.7929 8.6873 11.9114C8.69275 11.6215 8.62953 11.5263 8.31226 11.5317C7.12933 11.552 5.9464 11.5424 4.76457 11.5392C3.43991 11.5392 2.52627 10.7069 2.44996 9.40819C2.4336 9.13325 2.34747 9.07656 2.09453 9.08725C1.63335 9.10437 1.17109 9.10116 0.708821 9.08725C0.223658 9.07442 0.00342724 8.8733 0.00124673 8.39725C-0.00747531 6.64996 -0.00747531 4.90267 0.00124673 3.15538C0.00124673 2.6804 0.225838 2.47929 0.708821 2.47287C1.1918 2.46645 1.69005 2.46538 2.17739 2.47287C2.36274 2.47287 2.4445 2.43329 2.44232 2.2311C2.4216 0.966632 3.47806 -0.0154171 4.91828 -0.00578919C13.713 0.0220248 22.5077 0.0220248 31.3025 -0.00578919C32.6893 -0.00578919 33.8417 0.957004 33.761 2.40868C33.7152 3.22064 33.761 4.0358 33.7457 4.8499C33.7392 5.12162 33.8275 5.20292 34.0892 5.18046C34.307 5.16861 34.5254 5.16861 34.7433 5.18046C36.0178 5.21897 36.9369 6.06623 36.9663 7.32C37.0034 8.87972 37.0001 10.4416 36.9663 12.0024C36.9424 13.1171 36.2141 13.913 35.1031 14.1055C30.6258 14.8822 26.1481 15.6542 21.6701 16.4216C21.2024 16.5018 20.7324 16.5756 20.2669 16.6644C19.7719 16.7586 19.4645 17.087 19.4492 17.5727C19.4285 18.2145 19.4492 18.8564 19.435 19.4929C19.435 19.679 19.5048 19.7143 19.6727 19.7069C20.1088 19.6983 20.5449 19.7069 20.981 19.7069C21.5796 19.7069 21.7791 19.9058 21.7834 20.5028C21.7878 21.0997 21.7834 21.6795 21.7834 22.2636C21.7834 22.4562 21.7922 22.5642 22.0473 22.5995C22.4365 22.653 22.5423 22.9643 22.5423 23.3173C22.5423 24.3586 22.5423 25.3991 22.5423 26.4389C22.5423 27.6392 22.5423 28.8406 22.5423 30.0408C22.5423 30.5511 22.4234 30.6923 21.9252 30.8335C21.5599 30.8613 21.3354 30.7094 21.2525 30.3671C21.2189 30.1833 21.2076 29.9962 21.2187 29.8098C21.2187 28.0496 21.2187 26.2895 21.2187 24.5294C21.2187 23.9218 21.2067 23.9121 20.5744 23.9111H17.2316C16.5066 23.9111 16.5055 23.9111 16.5055 24.6096C16.5055 28.6747 16.5055 32.7399 16.5055 36.805C16.5055 37.0575 16.5055 37.311 16.5055 37.5635C16.4717 38.4193 17.3396 39.6613 18.8245 39.6805C19.4003 39.6825 19.9567 39.4764 20.3874 39.1015C20.8181 38.7265 21.0931 38.2091 21.1598 37.648C21.2928 36.7173 21.2056 35.7823 21.2252 34.8494C21.2394 34.1156 21.2078 33.3817 21.2383 32.6489C21.259 32.1472 21.4989 31.9429 21.9339 32.0071C22.4125 32.128 22.5455 32.2767 22.5466 32.7559C22.5521 34.2611 22.5662 35.7662 22.5466 37.2714C22.5194 39.0355 21.4564 40.3909 19.8046 40.8616C19.6422 40.9076 19.4514 40.8434 19.3173 40.9846L18.251 40.9996Z" fill="black"/>
<path d="M16.3843 37.7192C16.3734 37.5202 16.3527 37.3212 16.3527 37.1212C16.3527 32.8303 16.3527 28.5395 16.3407 24.2487C16.3407 23.8518 16.4498 23.7683 16.8379 23.7747C18.1953 23.7983 19.5537 23.7961 20.9111 23.7747C21.2589 23.7747 21.3341 23.8817 21.3319 24.2027C21.3167 26.1475 21.3232 28.0934 21.3254 30.0393C21.3254 30.5742 21.4148 30.6812 21.925 30.8395V32.0237C21.4366 32.1478 21.3232 32.2805 21.3221 32.7726C21.3221 34.1975 21.3221 35.6214 21.3221 37.0452C21.3221 37.2966 21.2785 37.548 21.2556 37.7941C20.4292 39.0414 18.5736 39.4062 17.2282 38.5825C16.8717 38.3685 16.5065 38.1546 16.3843 37.7192Z" fill="#008036"/>
<path d="M23.6509 10.9823C23.5528 10.4838 23.3827 10.3468 22.8463 10.3458C19.8764 10.3458 16.9066 10.3404 13.9356 10.3533C13.6085 10.3533 13.5061 10.2891 13.5115 9.94781C13.5322 8.4833 13.5115 7.01985 13.5203 5.55534C13.5203 5.38739 13.4756 5.20766 13.5955 5.05469C13.7688 5.22906 13.7274 5.45264 13.7285 5.66125C13.7339 6.74171 13.7285 7.82218 13.7285 8.90265C13.7285 9.37656 13.7612 9.40972 14.2333 9.40972C19.9157 9.40972 25.5981 9.40972 31.2805 9.40972C31.5531 9.4098 31.8239 9.3657 32.0819 9.27921C32.2214 9.23321 32.3599 9.16367 32.518 9.2193C32.5496 9.9446 32.1756 10.3415 31.4342 10.3426C29.511 10.3426 27.5889 10.3426 25.6657 10.3426C25.1326 10.3426 24.9876 10.4592 24.8524 10.9769L23.6509 10.9823Z" fill="#D5A06D"/>
<path d="M32.518 9.22003C32.1171 9.44501 31.6603 9.55614 31.1988 9.54096C25.5054 9.53454 19.8125 9.53454 14.1199 9.54096C13.5988 9.54096 13.5988 9.54095 13.5988 9.01463V5.05648C13.7688 4.49806 14.2605 4.14824 14.8068 4.20066C15.0945 4.2209 15.3649 4.34363 15.5669 4.54578C15.7689 4.74792 15.8886 5.01553 15.9036 5.29825C15.9275 5.77644 15.8981 6.26104 15.9188 6.73816C15.9701 7.95235 16.8379 8.92691 17.9772 9.06812C19.1983 9.21895 20.2788 8.55891 20.644 7.43886C20.7345 7.14528 20.7769 6.83941 20.7694 6.53276C20.7694 4.8789 20.7694 3.22503 20.7617 1.57117C20.7617 1.30159 20.8141 1.21387 21.1106 1.21387C24.5351 1.22563 27.9607 1.22028 31.3852 1.22242C32.1658 1.22242 32.5387 1.58615 32.5387 2.34568C32.5351 4.63499 32.5282 6.92644 32.518 9.22003Z" fill="#E9C095"/>
<path d="M9.14288 5.1584C9.71745 5.15091 9.90606 4.96263 9.90606 4.38067C9.90606 3.41788 9.9126 2.46365 9.90606 1.5062C9.90606 1.28369 9.96493 1.20988 10.1993 1.21095C13.2651 1.21808 16.3306 1.22057 19.3956 1.21843C19.4227 1.2211 19.4493 1.22648 19.4752 1.23448C19.5385 1.34681 19.5101 1.46983 19.5101 1.58751C19.5101 3.18467 19.4992 4.78291 19.5199 6.38007C19.5199 6.7577 19.3586 6.9524 19.037 7.0658C18.7759 7.16339 18.496 7.20316 18.2175 7.18226C17.9389 7.16136 17.6685 7.08031 17.4256 6.94491C17.3336 6.90273 17.2571 6.83381 17.2064 6.74751C17.1556 6.6612 17.1332 6.56169 17.1421 6.46245C17.1643 5.9972 17.1592 5.53108 17.1268 5.0664C17.0431 4.593 16.8387 4.14808 16.5326 3.77305C16.295 3.42216 16.1827 3.00495 15.8382 2.70328C15.0521 2.02183 13.7296 2.22616 13.2499 3.14081C13.1507 3.33016 13.0395 3.51416 12.9555 3.70993C12.4605 4.28868 12.2828 4.953 12.2883 5.70719C12.309 8.47897 12.297 11.2507 12.2959 14.0225C12.2959 14.1819 12.2861 14.3434 12.2806 14.5018C11.7868 15.165 10.4196 15.1436 9.93004 14.5018C9.9235 12.9549 9.91697 11.408 9.91043 9.86111C9.91043 8.95394 9.91043 8.0425 9.91043 7.13961C9.91043 6.6304 9.73271 6.44854 9.22029 6.39077C9.12434 5.97998 9.17559 5.56812 9.14288 5.1584Z" fill="#02B558"/>
<path d="M9.14288 5.15848C9.4209 5.5543 9.29878 5.97365 9.21919 6.39086C9.09954 6.4074 8.98691 6.45614 8.89377 6.53167C8.80063 6.60721 8.73062 6.70657 8.69153 6.81876C8.6272 7.61574 8.65989 8.41486 8.67188 9.21184C8.67734 9.56058 8.52907 9.66114 8.22162 9.66221C7.04088 9.66221 5.86013 9.67291 4.67829 9.66221C4.46054 9.65367 4.24685 9.60162 4.0503 9.50923C3.82135 9.40868 3.68506 9.26426 3.68615 8.99254C3.69269 6.70109 3.68615 4.40964 3.68615 2.11927C3.68983 2.07925 3.70053 2.04017 3.71777 2.00373C3.83443 1.50949 4.13752 1.22815 4.6423 1.2228C5.90373 1.20782 7.16515 1.2228 8.42658 1.20996C8.66316 1.20996 8.68498 1.30945 8.68389 1.49666C8.67626 2.48192 8.68388 3.46717 8.67843 4.45136C8.67952 4.79369 8.78528 5.05043 9.14288 5.15848Z" fill="#E9C095"/>
<path d="M3.72213 2.00391C3.72213 4.21476 3.72614 6.42562 3.73413 8.63648C3.73413 9.25588 3.93909 9.51583 4.57144 9.52974C5.83396 9.55755 7.09647 9.52974 8.35899 9.54151C8.63046 9.54151 8.62064 9.38104 8.61955 9.19918C8.61955 8.51952 8.61955 7.84022 8.61955 7.16127C8.61955 7.04573 8.58685 6.91843 8.69043 6.82215C8.69043 7.89192 8.67625 8.95527 8.69043 10.0208C8.69043 10.2882 8.61191 10.3535 8.34698 10.3503C7.1477 10.3374 5.95606 10.3503 4.76114 10.3428C4.08409 10.3428 3.67961 9.97583 3.67089 9.31151C3.65562 6.95159 3.66216 4.59275 3.66434 2.23284C3.67475 2.15464 3.69413 2.07784 3.72213 2.00391Z" fill="#D5A06D"/>
<path d="M1.28324 3.71309C1.61032 3.63179 1.93738 3.70026 2.25465 3.67565C2.43563 3.66174 2.44653 3.76551 2.44544 3.9003C2.43672 4.95296 2.42982 6.00597 2.42473 7.05933C2.11401 7.26259 1.77058 7.19092 1.4435 7.14813C1.41619 7.14689 1.38939 7.14037 1.36466 7.12893C1.33993 7.11749 1.31777 7.10136 1.29942 7.08147C1.28108 7.06158 1.26693 7.03832 1.25779 7.01304C1.24865 6.98776 1.24469 6.96096 1.24616 6.93417C1.2647 5.85905 1.18948 4.785 1.28324 3.71309Z" fill="#E2DFE3"/>
<path d="M16.3843 37.7188C16.6452 38.0639 16.979 38.3495 17.3629 38.5562C17.7468 38.7629 18.1717 38.8857 18.6085 38.9162C19.0453 38.9467 19.4837 38.8841 19.8935 38.7328C20.3034 38.5815 20.675 38.3451 20.9831 38.0397C21.0692 37.9552 21.164 37.8792 21.2545 37.799C21.1526 38.366 20.8479 38.8788 20.3953 39.2452C19.9427 39.6116 19.3717 39.8076 18.785 39.7981C18.1983 39.7885 17.6343 39.574 17.1943 39.1931C16.7543 38.8122 16.4671 38.2898 16.3843 37.7198V37.7188Z" fill="#02B558"/>
<path d="M20.5404 21.7053C20.6157 22.5793 20.6156 22.5793 19.738 22.5793C18.9813 22.5793 18.2247 22.5643 17.4692 22.5857C17.1715 22.5942 17.044 22.5258 17.0909 22.2188C17.1076 22.0478 17.1145 21.876 17.1116 21.7042C17.2413 21.5844 17.4059 21.579 17.5684 21.578C18.4057 21.573 19.2438 21.573 20.0825 21.578C20.246 21.5625 20.4095 21.6079 20.5404 21.7053Z" fill="#D4CFD5"/>
<path d="M20.5404 21.7056H17.1116C17.0581 20.9118 17.0581 20.9118 17.8344 20.9118C18.6106 20.9118 19.376 20.9289 20.1447 20.9033C20.4783 20.8926 20.6222 20.9728 20.5644 21.3119C20.5482 21.4425 20.5402 21.574 20.5404 21.7056Z" fill="#E2DFE3"/>
<path d="M12.9566 3.71204C13.0765 2.73641 13.8375 2.24752 14.6552 2.18227C15.4402 2.11915 16.2623 2.72357 16.4552 3.46599L16.5337 3.77409C15.2974 2.74283 14.2311 2.72464 12.9566 3.71204Z" fill="#008036"/>
<path d="M17.1279 5.06629C17.2598 5.38722 17.1792 5.72099 17.1857 6.04834C17.201 6.73513 17.3503 6.93946 18.0263 7.0443C18.2546 7.07853 18.487 7.07853 18.7153 7.0443C19.2954 6.9555 19.4731 6.72978 19.4785 6.14248C19.4785 4.50573 19.4785 2.8697 19.4785 1.23438C19.5603 1.26754 19.5472 1.34135 19.5472 1.40233C19.5472 3.16317 19.557 4.92401 19.5396 6.68485C19.5319 7.3695 19.05 7.84769 18.4122 7.87871C17.6916 7.91295 17.1748 7.4369 17.1377 6.66667C17.1105 6.13392 17.129 5.6001 17.1279 5.06629Z" fill="#008036"/>
<path d="M9.93114 14.502C10.1623 14.6089 10.388 14.7298 10.6267 14.8165C11.2395 15.0411 11.765 14.7854 12.2817 14.5041C12.2654 15.2326 11.7606 15.73 11.0596 15.7108C10.401 15.6937 9.9235 15.1802 9.93114 14.502Z" fill="#008036"/>
<path d="M1.28323 3.71289C1.28323 4.70992 1.29631 5.70694 1.28323 6.70825C1.28323 6.98746 1.36826 7.09016 1.65281 7.06769C1.90902 7.04736 2.16742 7.06769 2.42472 7.06769C2.49123 7.8989 2.49013 7.88285 1.65063 7.90318C1.31701 7.91174 1.21453 7.82723 1.21999 7.48811C1.24179 6.35843 1.21999 5.22662 1.22762 4.09587C1.22871 3.96322 1.16439 3.82201 1.28323 3.71289Z" fill="#D2CDD3"/>
</g>
<defs>
<clipPath id="clip0_2269_4109">
<rect width="37" height="41" fill="white"/>
</clipPath>
</defs>
</svg>
