<svg width="28" height="28" viewBox="0 0 28 28" fill="none" xmlns="http://www.w3.org/2000/svg">
<g clip-path="url(#clip0_1491_4523)">
<path d="M17.2176 0.378443C14.5238 -0.257618 11.7018 -0.0805995 9.10853 0.887116C6.51526 1.85483 4.26718 3.56978 2.64855 5.81512C1.02991 8.06045 0.113422 10.7353 0.0149634 13.5015C-0.0834954 16.2677 0.640499 19.001 2.0954 21.3557C3.5503 23.7104 5.67076 25.5809 8.18866 26.7305C10.7066 27.8802 13.5088 28.2574 16.2411 27.8144C18.9734 27.3715 21.513 26.1284 23.5387 24.2421C25.5645 22.3559 26.9854 19.9114 27.6219 17.2176C28.0446 15.4288 28.1108 13.5742 27.8166 11.7598C27.5225 9.94539 26.8739 8.20669 25.9077 6.64299C24.9416 5.0793 23.6768 3.72123 22.1858 2.64635C20.6947 1.57147 19.0066 0.80083 17.2176 0.378443V0.378443Z" fill="#5F259F"/>
<path d="M20.3528 10.3474C20.3452 10.0814 20.2353 9.82844 20.046 9.64129C19.8568 9.45413 19.6026 9.34714 19.3365 9.34255H17.4589L13.1591 4.40473C12.9579 4.17873 12.6967 4.0146 12.4058 3.93149C12.1149 3.84837 11.8063 3.84971 11.5162 3.93533L10.0259 4.40473C9.97298 4.42268 9.92516 4.45319 9.88656 4.49365C9.84796 4.5341 9.81973 4.5833 9.80428 4.63704C9.78883 4.69078 9.78662 4.74746 9.79784 4.80224C9.80906 4.85702 9.83338 4.90826 9.86871 4.9516L14.565 9.40863H7.45107C7.39939 9.40635 7.34781 9.41488 7.29963 9.43368C7.25144 9.45249 7.20772 9.48115 7.17125 9.51783C7.13478 9.55451 7.10638 9.5984 7.08786 9.6467C7.06934 9.69499 7.06111 9.74662 7.0637 9.79828V10.5799C7.06838 10.8479 7.17696 11.1037 7.36654 11.2933C7.55612 11.4829 7.8119 11.5914 8.07997 11.5961H9.176V15.3513C9.176 18.1655 10.6617 19.8084 13.1636 19.8084C13.9129 19.8314 14.6587 19.6979 15.3534 19.4164V21.923C15.3513 22.0878 15.3822 22.2515 15.4443 22.4042C15.5064 22.557 15.5984 22.6957 15.715 22.8123C15.8316 22.9289 15.9704 23.021 16.1231 23.0831C16.2759 23.1452 16.4395 23.1761 16.6044 23.1739H17.6981C17.8198 23.1654 17.9343 23.1133 18.0206 23.027C18.1069 22.9407 18.159 22.8262 18.1675 22.7045V11.5209H19.9608C20.0131 11.5239 20.0654 11.5158 20.1143 11.4972C20.1632 11.4785 20.2076 11.4498 20.2446 11.4128C20.2816 11.3757 20.3103 11.3313 20.329 11.2824C20.3476 11.2335 20.3557 11.1813 20.3528 11.129V10.3474ZM15.3397 17.0717C14.8465 17.2874 14.3125 17.3939 13.7743 17.3839C12.5233 17.3839 11.899 16.7595 11.899 15.3513V11.5984H15.3397V17.0672V17.0717Z" fill="white"/>
</g>
<defs>
<clipPath id="clip0_1491_4523">
<rect width="28" height="28" fill="white"/>
</clipPath>
</defs>
</svg>
