<svg width="19" height="25" viewBox="0 0 19 25" fill="none" xmlns="http://www.w3.org/2000/svg">
<path fill-rule="evenodd" clip-rule="evenodd" d="M12.8473 11.4468C11.8195 12.1335 10.6112 12.5001 9.37501 12.5001C7.71791 12.4984 6.12915 11.8394 4.9574 10.6677C3.78565 9.4959 3.12663 7.90714 3.12498 6.25004C3.12498 5.0139 3.49154 3.80552 4.1783 2.7777C4.86506 1.74989 5.84118 0.948809 6.98323 0.475758C8.12527 0.00270805 9.38195 -0.121064 10.5943 0.120095C11.8067 0.361254 12.9204 0.956513 13.7945 1.8306C14.6685 2.70468 15.2638 3.81833 15.505 5.03072C15.7461 6.24311 15.6223 7.49978 15.1493 8.64182C14.6762 9.78387 13.8752 10.76 12.8473 11.4468ZM11.6899 2.78556C11.0047 2.32772 10.1991 2.08335 9.37501 2.08335C8.26994 2.08335 7.21012 2.52234 6.42872 3.30374C5.64731 4.08515 5.20832 5.14496 5.20832 6.25004C5.20832 7.07413 5.4527 7.87972 5.91054 8.56493C6.36838 9.25014 7.01913 9.78419 7.78049 10.0996C8.54185 10.4149 9.37963 10.4974 10.1879 10.3367C10.9962 10.1759 11.7386 9.77906 12.3213 9.19633C12.904 8.61361 13.3009 7.87118 13.4616 7.06292C13.6224 6.25466 13.5399 5.41688 13.2245 4.65552C12.9092 3.89415 12.3751 3.2434 11.6899 2.78556ZM2.74893 17.3323C4.5065 15.5748 6.88948 14.5862 9.37505 14.5834C11.8606 14.5862 14.2436 15.5748 16.0012 17.3323C17.7587 19.0899 18.7473 21.4729 18.7501 23.9585C18.7501 24.2347 18.6404 24.4997 18.445 24.695C18.2497 24.8904 17.9847 25.0001 17.7084 25.0001C17.4322 25.0001 17.1672 24.8904 16.9719 24.695C16.7765 24.4997 16.6668 24.2347 16.6668 23.9585C16.6668 22.0246 15.8985 20.1699 14.5311 18.8024C13.1636 17.435 11.3089 16.6668 9.37505 16.6668C7.44117 16.6668 5.5865 17.435 4.21904 18.8024C2.85158 20.1699 2.08335 22.0246 2.08335 23.9585C2.08335 24.2347 1.9736 24.4997 1.77825 24.695C1.58289 24.8904 1.31794 25.0001 1.04167 25.0001C0.765404 25.0001 0.50045 24.8904 0.305099 24.695C0.109747 24.4997 0 24.2347 0 23.9585C0.00275715 21.4729 0.991368 19.0899 2.74893 17.3323Z" fill="black"/>
</svg>
