<svg width="40" height="45" viewBox="0 0 40 45" fill="none" xmlns="http://www.w3.org/2000/svg">
<g clip-path="url(#clip0_2266_4017)">
<path d="M5.07197 11.1865C5.09045 11.1033 5.12602 11.0249 5.1764 10.9562C5.22679 10.8875 5.29088 10.8301 5.36461 10.7877C5.43834 10.7452 5.52009 10.7186 5.60463 10.7096C5.68917 10.7006 5.77464 10.7094 5.85562 10.7354C6.22084 10.8227 6.33936 11.1089 6.33936 11.463C6.33936 13.7577 6.33936 16.0531 6.33936 18.3494C6.33936 18.7908 6.51109 18.9073 6.95129 18.803C7.17139 18.7496 7.07463 18.604 7.06738 18.4949C6.9456 17.0657 6.95936 15.6281 7.10849 14.2016C7.37002 11.5054 8.27693 8.91254 9.7521 6.64335C10.0617 6.1752 10.2358 6.10971 10.7728 6.25768C11.1598 6.47356 11.2565 6.7428 11.0703 7.16728C10.8469 7.61092 10.599 8.04173 10.3277 8.45771C9.70922 9.6215 9.23875 10.8585 8.92734 12.1398C8.41216 14.0803 8.41942 16.0499 8.46296 18.0292C8.46296 18.5434 8.61049 18.9727 9.17163 19.1522C9.38567 19.246 9.58918 19.3622 9.77872 19.4991C10.2358 19.7635 10.2625 19.7417 10.5043 19.3075C10.9681 18.4582 11.5495 17.6791 12.2312 16.9934C13.135 16.0739 14.1844 15.3108 15.3368 14.7352C17.3177 13.7649 19.2841 12.7607 21.0957 11.4873C22.4259 10.551 23.6764 9.5177 24.581 8.13268C24.8886 7.69305 25.0943 7.18999 25.183 6.66034C25.2717 6.13069 25.2412 5.58785 25.0938 5.07155C24.8301 4.12798 24.3391 3.79082 23.3571 3.71563C21.7294 3.59435 20.4547 4.32689 19.2768 5.32624C19.0866 5.50763 18.8755 5.6656 18.648 5.79681C18.5054 5.87527 18.3401 5.90194 18.1801 5.87233C18.0202 5.84272 17.8753 5.75864 17.77 5.63429C17.6637 5.52209 17.5958 5.3788 17.5762 5.22525C17.5566 5.0717 17.5864 4.9159 17.6612 4.78048C17.8298 4.52325 18.0487 4.30294 18.3045 4.13284C19.2933 3.23047 20.4928 2.59232 21.7923 2.27724C21.9337 2.23918 22.0775 2.21081 22.2228 2.19234C22.3726 2.18864 22.522 2.17568 22.6702 2.15354C22.141 1.8457 21.561 1.6354 20.9578 1.53258C19.4873 1.29001 18.1159 1.61262 16.7929 2.23115C15.2909 2.93216 14.0428 3.99215 12.8432 5.11279C12.6013 5.32867 12.386 5.52271 12.0402 5.4742C11.8443 5.44509 11.6677 5.38931 11.5975 5.17585C11.5046 5.03462 11.4637 4.86532 11.4818 4.6971C11.4999 4.52887 11.5759 4.37223 11.6967 4.25412C13.3172 2.63138 15.0998 1.24151 17.2959 0.482289C17.8619 0.288239 18.4545 0.166958 19.035 0.0117188H20.7014C21.0231 0.162107 21.3811 0.123297 21.7173 0.220322C24.136 0.92375 25.829 2.40338 26.528 4.89448C26.5489 4.98478 26.5929 5.06806 26.6557 5.13611C26.7185 5.20416 26.7978 5.25465 26.886 5.28258C29.6529 6.42019 30.9566 8.62993 31.392 11.4727C31.4164 11.5877 31.4301 11.7046 31.4331 11.822C31.4089 12.5352 31.6895 13.0785 32.1369 13.6534C32.9786 14.7279 32.9568 16.0523 32.8383 17.3524C32.7948 17.8376 32.6884 18.3033 32.6134 18.7738C32.64 18.786 32.6521 18.7981 32.6666 18.7981C33.651 18.8927 33.651 18.8927 33.651 17.9079C33.651 15.7863 33.651 13.6631 33.651 11.5382C33.651 10.9488 33.9969 10.6214 34.4685 10.7426C34.7805 10.8227 34.8845 11.0798 34.9813 11.3442C35.0912 11.5014 35.1346 11.6959 35.1022 11.8851C35.1022 14.2573 35.1022 16.6296 35.1022 19.0019C35.1022 19.9721 34.7975 20.2535 33.8348 20.2583H33.7913C31.7161 20.2826 32.1925 20.0158 30.1633 21.4056C29.6413 21.7564 29.1406 22.1379 28.6637 22.5481C28.3735 22.7907 28.3009 23.0914 28.4678 23.3146C28.6782 23.5911 28.9515 23.5572 29.2176 23.4213C30.2504 22.9362 31.2928 22.4778 32.328 22.0023C33.3632 21.5269 34.2 22.0023 34.3331 23.1715C34.4105 23.8579 34.4129 24.5444 34.4613 25.2284C34.5242 26.0919 34.0888 26.8099 33.5857 27.4697C32.3232 29.1288 30.751 30.4556 29.0797 31.6733C29.0338 31.7072 29.0797 31.6611 29.0434 31.6975C28.8427 31.8697 28.4799 31.9789 28.625 32.3233C28.7701 32.6678 29.1281 32.6678 29.428 32.6459C30.0856 32.5904 30.7295 32.4265 31.3339 32.1608C33.6099 31.3288 35.7093 30.2203 37.25 28.2798C38.0962 27.2366 38.5537 25.9304 38.544 24.5856C38.544 20.302 38.544 16.0167 38.544 11.7299C38.544 11.4873 38.5029 11.2302 38.6697 11.0022C38.6891 10.9464 38.7085 10.893 38.7254 10.8348C38.7391 10.7541 38.7691 10.677 38.8136 10.6084C38.858 10.5397 38.916 10.4809 38.9839 10.4354C39.0519 10.39 39.1283 10.359 39.2086 10.3442C39.289 10.3295 39.3714 10.3314 39.451 10.3497C39.5315 10.3572 39.6098 10.3808 39.6811 10.4191C39.7524 10.4574 39.8154 10.5096 39.8663 10.5727C39.9173 10.6357 39.9551 10.7083 39.9776 10.7863C40.0002 10.8642 40.007 10.9458 39.9976 11.0264C39.9976 12.4624 39.9976 13.8984 39.9976 15.3343C39.9976 18.3348 39.9831 21.3377 39.9976 24.3406C40.0121 26.6935 39.1003 28.6315 37.4193 30.2203C35.407 32.1196 32.9883 33.262 30.3398 33.9533C29.815 34.0905 29.2662 34.1079 28.7338 34.0043C27.9478 33.8442 27.3262 33.4488 27.1278 32.6411C26.9295 31.8334 27.273 31.1736 27.9405 30.7006C29.3525 29.7332 30.6507 28.6087 31.8104 27.3484C32.0819 27.0421 32.3378 26.7224 32.5771 26.3903C32.7505 26.1731 32.8782 25.9229 32.9526 25.6548C33.027 25.3868 33.0466 25.1064 33.0101 24.8306C32.9448 24.3455 32.9955 23.8385 32.8722 23.317L29.2756 24.9301C28.729 25.2381 28.2356 24.998 27.7519 24.7578C27.4828 24.6072 27.2589 24.3869 27.1037 24.1199C26.6078 23.2273 26.6852 22.422 27.3455 21.5924C27.691 21.2804 28.0561 20.9912 28.4388 20.7265C28.5335 20.6724 28.6062 20.5866 28.6443 20.4842C28.6823 20.3818 28.6832 20.2692 28.6468 20.1661C28.317 19.0169 27.8286 17.9196 27.1956 16.9061C26.066 15.0554 24.4528 13.7795 22.4888 12.916C22.3478 12.842 22.1886 12.81 22.0301 12.8237C21.8715 12.8375 21.7202 12.8964 21.5939 12.9936C19.9747 14.0704 18.2768 15.0231 16.5147 15.8437C14.6248 16.6985 13.0317 18.0987 11.9386 19.8654C11.9071 19.9163 11.8757 19.9648 11.8467 20.0158C11.4766 20.6585 11.4669 20.678 12.0643 21.1049C12.8214 21.6433 13.2737 22.3177 13.1769 23.2879C13.0754 24.3479 11.9821 25.2284 10.9421 25.0441C10.8987 25.0424 10.8562 25.0311 10.8178 25.011C10.7793 24.9908 10.7457 24.9624 10.7196 24.9276L7.11333 23.3122C6.97952 23.9972 6.93803 24.6972 6.98998 25.3933C7.05528 26.1526 7.61158 26.6983 8.09289 27.2441C9.24454 28.5254 10.5436 29.6653 11.9628 30.6399C12.4755 30.9989 12.8456 31.4501 12.8915 32.0953C12.9151 32.4925 12.8035 32.8858 12.575 33.211C12.3465 33.5363 12.0147 33.774 11.6338 33.8854C11.0215 34.0993 10.3592 34.1239 9.73276 33.9558C6.80859 33.199 4.14321 31.9377 2.05348 29.6746C0.697332 28.2393 -0.0426683 26.3273 -0.00723727 24.3503C0.00485609 19.9721 -0.00723727 15.5963 -0.00723727 11.2181C-0.00723727 10.6408 0.164485 10.3836 0.563566 10.34C0.962647 10.2963 1.1755 10.4855 1.3303 11.0677C1.49477 11.2884 1.44639 11.5528 1.44639 11.7954C1.44639 16.0111 1.44639 20.2292 1.44639 24.4449C1.43946 25.2598 1.59317 26.068 1.89866 26.8231C2.20416 27.5782 2.65542 28.2653 3.22653 28.845C4.66322 30.378 6.46513 31.3191 8.38556 32.0686C8.96474 32.3126 9.56905 32.4916 10.1875 32.6023C10.4383 32.6884 10.7106 32.6884 10.9614 32.6023C11.1573 32.5416 11.3774 32.5004 11.4161 32.2506C11.4548 32.0007 11.2783 31.911 11.1235 31.7994C10.4922 31.3507 9.87304 30.8874 9.28047 30.3853C8.07113 29.3617 6.92709 28.2798 6.06604 26.9336C5.65696 26.3042 5.48541 25.5489 5.58231 24.8039C5.65729 24.0762 5.62101 23.3486 5.78064 22.6209C6.17247 21.8374 6.76988 21.59 7.53418 21.9296C8.5984 22.4034 9.65697 22.8885 10.7099 23.3849L10.7873 23.4237C11.0727 23.5644 11.3533 23.6081 11.5661 23.3122C11.7354 23.0696 11.6483 22.747 11.3484 22.5117C10.8647 22.1333 10.381 21.7622 9.88272 21.4105C9.45542 21.1097 9.01683 20.8235 8.56696 20.5518C8.36016 20.4126 8.12111 20.329 7.8728 20.3093C7.2512 20.2074 6.62477 20.2753 6.00075 20.2535C5.31385 20.2316 5.07923 20.0449 4.90509 19.3705C4.84462 18.4658 4.88332 17.561 4.87848 16.6563C4.87848 15.0918 4.87848 13.5297 4.87848 11.9676C4.85782 11.831 4.86428 11.6917 4.89748 11.5577C4.93069 11.4236 4.98999 11.2975 5.07197 11.1865Z" fill="black"/>
<path d="M10.7244 24.9405C11.5322 25.0399 12.2312 24.8507 12.7319 24.157C13.0036 23.7881 13.1334 23.3332 13.0974 22.876C13.0614 22.4188 12.862 21.9899 12.536 21.6683C12.2613 21.4028 11.9661 21.1594 11.6532 20.9406C11.605 20.9192 11.5624 20.887 11.5286 20.8465C11.4949 20.8059 11.4708 20.7581 11.4585 20.7067C11.4461 20.6554 11.4456 20.6019 11.4572 20.5503C11.4687 20.4988 11.4919 20.4506 11.525 20.4094C12.4133 18.6262 13.8324 17.164 15.5859 16.2252C17.6805 15.1046 19.8428 14.1053 21.7971 12.7324C21.8464 12.6894 21.9065 12.6609 21.9709 12.6497C22.0353 12.6386 22.1015 12.6454 22.1623 12.6693C24.3052 13.5304 26.0975 14.8184 27.2729 16.8656C27.4071 17.2204 27.4744 17.5971 27.4713 17.9765C27.5692 19.0068 27.608 20.0418 27.5874 21.0765C27.5834 21.2665 27.5389 21.4534 27.4568 21.6247C27.1499 21.9458 26.9573 22.3594 26.9088 22.8015C26.8602 23.2435 26.9585 23.6893 27.1883 24.0697C27.2832 24.285 27.2944 24.5281 27.2197 24.7513C26.8001 26.3425 26.0279 27.8184 24.9607 29.0689C24.3694 29.7133 23.7218 30.3035 23.0258 30.8323C22.2004 31.3093 21.2646 31.5602 20.312 31.56C18.0119 31.6255 16.0672 30.7062 14.3137 29.2872C13.4839 28.617 12.7789 27.8048 12.2312 26.8882C11.9724 26.4516 11.6967 26.0999 11.1525 26.0708L10.7244 24.9405Z" fill="#E9C095"/>
<path d="M11.6024 5.16448C12.0861 5.49679 12.311 5.48466 12.7464 5.05775C13.9727 3.84495 15.2908 2.77283 16.8581 2.0597C18.6576 1.24712 20.4861 1.00698 22.3606 1.83169C22.6068 1.93356 22.836 2.07262 23.0403 2.24404C20.965 2.28285 19.4123 3.27493 17.9611 4.55323C17.8406 4.63735 17.7496 4.75736 17.701 4.89624C17.6524 5.03512 17.6486 5.18583 17.6902 5.327C17.7249 5.44735 17.7949 5.55447 17.8911 5.63447C17.9873 5.71448 18.1052 5.76369 18.2295 5.77574C18.5222 5.82425 18.7278 5.6399 18.9237 5.46283C19.5594 4.85754 20.2899 4.36097 21.086 3.99291C22.2155 3.50779 23.3571 3.38651 24.5157 3.91529C24.6876 3.99005 24.8262 4.12558 24.9051 4.29612C25.6307 5.71995 25.4493 7.06859 24.5713 8.35416C23.6933 9.63974 22.5009 10.6124 21.248 11.5075C19.3542 12.8634 17.2645 13.8724 15.2014 14.9349C13.1632 15.9599 11.4999 17.6042 10.4487 19.6333C10.3084 19.9025 10.2068 19.9195 9.96493 19.7618C9.55586 19.4651 9.11542 19.2146 8.65159 19.0147C8.58215 18.9956 8.52089 18.9542 8.4772 18.8968C8.43351 18.8394 8.4098 18.7692 8.40972 18.697C8.05176 14.6899 8.59596 10.8768 10.809 7.41788C11.1646 6.86726 11.1525 6.7096 10.7679 6.25601C11.0606 5.89944 11.4839 5.6496 11.6024 5.16448Z" fill="#02B558"/>
<path d="M11.1477 26.0805C11.6314 25.8961 11.9095 26.146 12.1417 26.5414C13.4139 28.763 15.4857 30.412 17.932 31.15C19.4929 31.6384 21.1748 31.5646 22.6871 30.9414C22.7898 30.8904 22.8877 30.8303 22.9798 30.7619C25.0357 29.765 26.7287 28.3703 27.8631 26.3449C28.1582 25.8161 28.4581 25.7239 28.9176 25.9519C29.3337 26.3619 29.3603 26.5535 29.0773 27.0629C28.1127 28.8101 26.6976 30.2653 24.98 31.2762C24.8652 31.3299 24.7701 31.4186 24.7085 31.5297C24.6468 31.6407 24.6217 31.7685 24.6366 31.8947C24.6559 32.6394 24.6535 33.3864 24.6366 34.1311C24.6366 34.3737 24.714 34.4464 24.9365 34.4998C26.0515 34.769 27.1665 35.0528 28.2767 35.3415C28.5229 35.4161 28.7651 35.5036 29.0023 35.6035C29.1746 35.6467 29.3238 35.7546 29.4191 35.9049C29.5145 36.0551 29.5488 36.2363 29.515 36.4112C29.4183 36.9497 29.0797 37.151 28.521 36.9424C27.9009 36.7254 27.2685 36.5456 26.6272 36.4039C25.9016 36.2099 25.1445 36.0328 24.4044 35.846C24.1064 35.7857 23.827 35.6552 23.5893 35.4652C23.4521 35.3236 23.3458 35.155 23.2771 34.97C23.2084 34.785 23.1788 34.5877 23.1902 34.3906C23.1902 33.8206 23.1902 33.2506 23.1902 32.6927C23.1902 32.4089 23.1128 32.3289 22.8298 32.4283C20.9763 33.0966 18.9477 33.0915 17.0976 32.4138C16.8267 32.3192 16.7638 32.4016 16.7735 32.6563C16.7735 32.9765 16.7735 33.2967 16.7735 33.6266C16.7892 33.9191 16.7892 34.2122 16.7735 34.5046C16.7058 35.2711 16.4083 35.6447 15.6633 35.8436C14.5217 36.1492 13.3583 36.3797 12.2264 36.7217C10.2431 37.3184 9.03131 38.6622 8.67818 40.7142C8.53548 41.5365 8.57176 42.3782 8.48469 43.2078C8.45809 43.4503 8.58143 43.557 8.81363 43.5643C8.97326 43.5643 9.13531 43.5643 9.29736 43.5643H29.3312C29.5078 43.5643 29.6819 43.5643 29.8561 43.5643C30.2939 43.5643 30.7316 43.5643 31.1694 43.5643C31.3678 43.5643 31.5346 43.4988 31.5105 43.266C31.3798 42.092 31.4669 40.8937 31.0799 39.7488C30.9004 39.3009 30.6785 38.8712 30.4172 38.4657C30.1197 37.949 30.1753 37.6531 30.5817 37.379C31.0654 37.1825 31.2807 37.2529 31.5879 37.6652C32.5021 38.878 32.7972 40.297 32.8601 41.7888C32.8964 42.5771 32.9544 43.3654 32.9931 44.1562C33.0221 44.7626 32.7827 45.0124 32.1683 45.0124H7.81956C7.2947 45.0124 6.9948 44.8014 7.01173 44.3623C7.06736 42.9312 7.03349 41.4807 7.34308 40.0811C7.90664 37.5367 9.53198 35.9576 12.016 35.2639C12.9979 34.9922 13.9944 34.7666 14.9861 34.5362C15.2279 34.478 15.3392 34.3809 15.332 34.102C15.3102 33.3573 15.3102 32.6078 15.332 31.8632C15.3447 31.7429 15.3193 31.6217 15.2594 31.5167C15.1995 31.4117 15.1081 31.3284 14.9982 31.2786C13.3193 30.281 11.9307 28.8592 10.9711 27.155C10.6978 26.6602 10.7365 26.4565 11.1477 26.0805Z" fill="black"/>
<path d="M10.2552 32.7068C9.8611 32.6933 9.47237 32.6112 9.1063 32.4642C7.38155 31.9112 5.75947 31.077 4.30524 29.995C2.79357 28.8234 1.68098 27.3801 1.38591 25.4251C1.33993 25.0916 1.3181 24.7552 1.3206 24.4185C1.3206 20.0524 1.3206 15.6903 1.3206 11.3323C1.3206 11.245 1.33512 11.1576 1.34237 11.0703C2.2784 11.0703 3.20958 11.1843 4.14318 11.2619C4.32458 11.4754 4.27622 11.7325 4.27622 11.9751C4.27622 14.1387 4.27622 16.3016 4.27622 18.4636C4.27622 19.1331 4.27621 19.1331 4.90265 19.3562C4.94227 19.375 4.97894 19.3995 5.01149 19.429C5.22192 20.0451 5.33318 20.1106 5.97896 20.1324C6.62475 20.1542 7.32616 20.0378 7.9913 20.2149C8.87695 20.7241 9.70984 21.3206 10.4777 21.9953C10.6589 22.1462 10.7942 22.3452 10.8682 22.5694C10.9421 22.7937 10.9518 23.0343 10.8961 23.2639C10.8792 23.3633 10.884 23.5186 10.7002 23.4798C9.65293 23.0116 8.60806 22.5386 7.55594 22.0729C6.77471 21.726 6.25953 21.9152 5.86287 22.6793C5.80623 22.7256 5.73518 22.7505 5.66212 22.7496C5.04535 22.7496 5.00907 22.803 4.93651 23.3949C4.87363 23.9212 4.88572 24.4476 4.84702 24.9715C4.78898 25.7598 5.08889 26.3905 5.55569 26.9872C6.79405 28.593 8.34442 29.8543 9.96493 31.0404C10.4051 31.363 10.7728 31.705 10.7317 32.3235C10.7147 32.6534 10.6131 32.8232 10.2552 32.7068Z" fill="#E9C095"/>
<path d="M31.3121 32.2775C30.5865 32.5953 29.8392 32.8281 29.0289 32.7141C28.7677 32.6753 28.4847 32.6244 28.4121 32.3139C28.3396 32.0034 28.579 31.8676 28.7822 31.7245C30.2005 30.7418 31.5107 29.6107 32.6908 28.3505C33.2424 27.7855 33.7071 27.1413 34.0694 26.4391C34.2796 26.018 34.3723 25.5479 34.3379 25.0783C34.2871 24.4234 34.2508 23.766 34.1976 23.1087C34.1178 22.0899 33.3801 21.6533 32.4416 22.0705C31.3508 22.5557 30.2648 23.0675 29.1789 23.5526C28.6468 23.7951 28.1775 23.475 28.2283 22.951C28.2355 22.8646 28.2607 22.7806 28.3024 22.7045C28.3441 22.6284 28.4013 22.562 28.4702 22.5096C29.4314 21.7234 30.4501 21.0107 31.5177 20.3775C31.8476 20.1886 32.2243 20.0978 32.6037 20.1155C33.0874 20.1373 33.5712 20.1155 34.0549 20.1155C34.7418 20.1155 34.9619 19.8899 34.9643 19.1865C34.9643 16.8288 34.9643 14.4719 34.9643 12.1158C34.9643 11.8538 34.9643 11.5895 34.9813 11.3275C35.7662 11.2204 36.557 11.1629 37.3491 11.1553C37.4059 11.2315 37.4464 11.3187 37.4681 11.4114C37.4897 11.504 37.492 11.6002 37.4749 11.6938C37.4749 16.1011 37.5112 20.5084 37.458 24.9158C37.4386 26.6331 36.684 28.1127 35.523 29.3741C34.3838 30.6164 32.9778 31.5827 31.4113 32.1999C31.3714 32.2154 31.3368 32.2424 31.3121 32.2775Z" fill="#E9C095"/>
<path d="M31.3121 32.278C31.8588 31.8632 32.4949 31.6061 33.0681 31.2422C34.899 30.0779 36.3938 28.6323 37.0613 26.4929C37.2505 25.9107 37.35 25.3029 37.3564 24.6906C37.3564 20.1822 37.3564 15.6722 37.3564 11.1606C37.7797 10.9786 38.2465 11.1606 38.6722 10.998C38.6722 13.4722 38.677 15.9463 38.6867 18.4204C38.6867 20.3221 38.6528 22.2262 38.6867 24.1303C38.7375 26.3401 37.8619 28.1011 36.2414 29.5297C34.801 30.7714 33.124 31.7064 31.3121 32.278Z" fill="#D5A06D"/>
<path d="M30.5817 37.3695C30.51 37.4254 30.4503 37.4953 30.4062 37.5749C30.3621 37.6546 30.3344 37.7423 30.325 37.8329C30.3155 37.9235 30.3243 38.0151 30.351 38.1022C30.3776 38.1893 30.4216 38.2701 30.4801 38.3397C31.2396 39.3512 31.4935 40.5228 31.5443 41.7477C31.5661 42.2741 31.5903 42.798 31.6459 43.3195C31.6798 43.6203 31.5758 43.693 31.2952 43.6785C30.8308 43.6542 30.3664 43.6639 29.8996 43.6591C29.7498 43.1741 29.6819 42.6675 29.6989 42.1601C29.6929 41.269 29.5626 40.3832 29.3119 39.5283C28.9128 38.3155 28.0784 37.4325 27.0577 36.7097C26.9005 36.5981 26.6683 36.552 26.6586 36.2949C27.2833 36.3946 27.8955 36.5613 28.4847 36.7922C29.0289 37.0056 29.2708 36.9062 29.5271 36.3968C29.5126 36.5884 29.6457 36.6733 29.769 36.7679C30.0496 36.9644 30.3132 37.1706 30.5817 37.3695Z" fill="#D5A06D"/>
<path d="M28.9176 25.9444C28.4339 25.8086 28.134 26.0366 27.8994 26.4586C26.8758 28.2974 25.2938 29.7607 23.3837 30.6355C23.258 30.6938 23.1418 30.8053 22.9798 30.7544L24.0319 29.8472C25.0871 28.9261 25.9235 27.7799 26.4796 26.4926C26.8231 25.7261 27.1689 24.9475 27.1883 24.0791C27.4152 24.4105 27.7334 24.6684 28.1041 24.8213C28.4748 24.9742 28.8819 25.0155 29.2756 24.9402C29.1571 25.2749 29.0386 25.6097 28.9176 25.9444Z" fill="#D5A06D"/>
<path d="M5.01149 19.4244C4.13352 19.4244 4.13351 19.4244 4.13351 18.5512V11.2573C4.4431 11.2015 4.76962 11.3519 5.06954 11.1846C5.05503 11.3883 5.02843 11.5897 5.02843 11.7934C5.02843 14.1754 5.02843 16.5589 5.02843 18.9441C5.03326 19.1042 5.01875 19.257 5.01149 19.4244Z" fill="#D5A06D"/>
<path d="M27.9864 7.46102C29.1353 8.40943 29.6795 9.69258 29.9915 11.0994C30.0601 11.3357 30.0911 11.5812 30.0834 11.8271C29.9625 11.8975 29.8924 11.7859 29.8125 11.7495C29.671 11.6681 29.5035 11.6449 29.3452 11.6847C29.1869 11.7245 29.0502 11.8242 28.9636 11.963C28.9144 12.0319 28.8797 12.1101 28.8616 12.1928C28.8434 12.2756 28.8422 12.3612 28.8581 12.4444C28.8739 12.5277 28.9064 12.6068 28.9537 12.6771C29.0009 12.7473 29.0619 12.8072 29.1329 12.8532C29.4945 13.1495 29.8768 13.4194 30.2769 13.6609C31.1549 14.1678 31.4863 14.9683 31.5613 15.9167C31.6115 16.9129 31.4963 17.9105 31.2202 18.8687C31.2096 18.9257 31.1865 18.9796 31.1526 19.0265C31.1187 19.0735 31.0749 19.1124 31.0243 19.1403C30.6929 19.3223 30.364 19.5066 30.0085 19.7055C29.041 16.5522 27.3141 14.0005 24.4673 12.2928C24.5519 11.895 24.9196 11.7519 25.1784 11.5166C26.1676 10.6119 27.0504 9.63194 27.5366 8.36334C27.6056 8.17111 27.6637 7.97514 27.7107 7.77635C27.747 7.63566 27.7567 7.44404 27.9864 7.46102Z" fill="#02B558"/>
<path d="M27.9864 7.46137C27.6986 7.77912 27.7301 8.21816 27.5704 8.58927C27.0553 9.78753 26.2208 10.7238 25.2799 11.5873C25.0139 11.8299 24.7382 12.0725 24.4673 12.315L23.2386 11.6965C24.847 10.2945 26.3006 8.83669 26.6828 6.62695C27.1658 6.82031 27.6081 7.10341 27.9864 7.46137Z" fill="#008036"/>
<path d="M10.2552 32.7065C10.693 32.6265 10.7825 32.02 10.4293 31.5786C10.1465 31.2854 9.827 31.0302 9.47878 30.8194C8.37694 30.0115 7.34385 29.1134 6.39014 28.1342C5.87802 27.6184 5.42754 27.0445 5.04778 26.4242C4.84647 26.1014 4.74078 25.7279 4.74303 25.3472C4.7369 24.6184 4.76839 23.8897 4.83736 23.1641C4.89057 22.7033 5.13002 22.5141 5.57505 22.6087L5.87012 22.6717C5.72391 23.5656 5.65594 24.4706 5.66696 25.3763C5.66696 26.1404 6.04911 26.771 6.49657 27.3604C7.74218 29.0099 9.29981 30.3245 10.959 31.5301C11.0292 31.581 11.1017 31.6295 11.1718 31.6853C11.3871 31.8527 11.6774 32.0031 11.5782 32.3378C11.479 32.6725 11.1719 32.6822 10.8986 32.7259C10.6871 32.7851 10.4627 32.7783 10.2552 32.7065Z" fill="#D5A06D"/>
<path d="M27.4568 21.6341C27.4423 20.4673 27.4834 19.2982 27.3552 18.1363C27.2953 17.7186 27.2678 17.2969 27.2729 16.875C28.0252 17.9277 28.4339 19.1381 28.833 20.3509C28.8959 20.5377 28.7774 20.6129 28.6613 20.7026L27.4568 21.6341Z" fill="#D5A06C"/>
<path d="M10.7002 23.4748C10.825 23.2113 10.8509 22.9115 10.7732 22.6304C10.6954 22.3493 10.5193 22.1057 10.277 21.9443C9.58279 21.4179 8.87412 20.9085 8.1727 20.3895C8.10752 20.3346 8.04686 20.2746 7.9913 20.21C8.44601 20.256 8.78462 20.552 9.14742 20.7776C9.93034 21.2814 10.6845 21.8289 11.4065 22.4173C11.7935 22.7229 11.8902 23.031 11.6846 23.3511C11.479 23.6713 11.1791 23.7247 10.7002 23.4748Z" fill="#D4A06C"/>
<path d="M26.6586 36.3014C27.3973 36.7596 28.0586 37.3327 28.6177 37.9993C29.2382 38.7936 29.6177 39.7501 29.711 40.7548C29.8246 41.725 29.8416 42.6953 29.8996 43.6655C29.7545 43.6655 29.6094 43.6801 29.4619 43.6801C22.5848 43.6801 15.7077 43.6801 8.83057 43.6801C8.43632 43.6801 8.31055 43.5976 8.34683 43.195C8.43874 42.3654 8.42907 41.5237 8.54274 40.699C8.83782 38.5742 10.3011 37.0242 12.4634 36.4857C13.5107 36.2237 14.558 35.969 15.6077 35.7047C16.3672 35.513 16.6211 35.1807 16.6356 34.4021C16.6356 34.1256 16.6501 33.8466 16.6574 33.5701C16.919 33.5374 17.1842 33.5892 17.4144 33.7181C18.6016 34.1361 19.8708 34.265 21.1174 34.094C21.4125 34.0577 21.6447 34.111 21.6931 34.4603C21.7342 34.7684 21.9349 34.8896 22.2179 34.9673C22.7017 35.108 23.2241 35.1516 23.6691 35.4184C24.3947 35.8211 25.2171 35.8696 25.9862 36.1097C26.2136 36.1801 26.4385 36.2359 26.6586 36.3014Z" fill="#E9C095"/>
<path d="M23.6764 35.4188C23.0764 35.3269 22.4844 35.1882 21.9059 35.0041C21.8033 34.9851 21.712 34.927 21.6511 34.842C21.5902 34.757 21.5645 34.6516 21.5794 34.5481C21.6181 34.206 21.4391 34.1527 21.1585 34.1988C19.6305 34.4258 18.0695 34.2069 16.6622 33.5681C16.6622 33.1873 16.6622 32.8089 16.6356 32.4305C16.6187 32.1515 16.7058 32.103 16.9597 32.2C17.7902 32.5211 18.6644 32.7141 19.5525 32.7725C20.7176 32.8313 21.882 32.6437 22.9701 32.2219C23.287 32.1055 23.3329 32.1855 23.3257 32.4838C23.3063 33.1121 23.3257 33.7427 23.3257 34.371C23.3116 34.5603 23.3355 34.7504 23.3957 34.9304C23.4559 35.1103 23.5513 35.2764 23.6764 35.4188Z" fill="#D5A06D"/>
</g>
<defs>
<clipPath id="clip0_2266_4017">
<rect width="40" height="45" fill="white"/>
</clipPath>
</defs>
</svg>
