<svg width="40" height="39" viewBox="0 0 40 39" fill="none" xmlns="http://www.w3.org/2000/svg">
<g clip-path="url(#clip0_1644_4443)">
<path d="M18.3538 0H21.5553C21.6047 0.112731 21.7094 0.0693727 21.7924 0.0770807C23.285 0.213899 24.7559 0.473084 26.1695 0.956766C32.9341 3.27112 37.3164 7.78934 39.3164 14.5114C39.7314 15.9128 39.9454 17.3635 39.9526 18.8222C39.8058 18.7426 39.6657 18.6518 39.5337 18.5505C38.8314 17.928 38.136 17.2979 37.4406 16.6697C36.2552 15.6002 35.0885 14.5211 33.8962 13.4641C33.6601 13.255 33.4507 12.9987 33.1356 12.886C32.9899 12.5319 32.7702 12.2114 32.4906 11.9446C31.9552 11.4263 31.4267 10.8992 30.8853 10.3866C30.7118 10.2153 30.517 10.0657 30.3055 9.9415C29.3167 9.38555 28.2162 9.57826 27.3272 10.4454C23.9877 13.6854 20.6511 16.9292 17.3176 20.1769C17.0667 20.4226 16.9491 20.3985 16.718 20.1672C15.3824 18.8318 14.0301 17.5118 12.6807 16.1889C11.5368 15.0664 10.1647 15.0693 9.00798 16.1889C8.53777 16.6456 8.06856 17.1036 7.60033 17.5629C6.41494 18.7191 6.41494 20.0266 7.60625 21.1982C10.0528 23.605 12.4996 26.0116 14.9468 28.4178C15.2945 28.7608 15.6472 29.0922 16.0867 29.3254C16.1085 29.5229 16.2715 29.6241 16.3969 29.7465C19.1766 32.461 21.957 35.1745 24.7381 37.8871C24.8734 38.0191 25.0453 38.129 25.0769 38.3371C23.694 38.7591 22.2616 38.9277 20.8214 38.9836C17.2129 39.1214 13.7792 38.4161 10.6142 36.7117C4.78338 33.5706 1.31743 28.7852 0.216334 22.3554C0.145211 21.9391 0.174845 21.5055 0 21.1028V17.9011C0.0987825 17.8664 0.0750764 17.7797 0.0819912 17.7084C0.339814 15.1155 1.04413 12.6451 2.33917 10.3654C5.57133 4.67559 10.4825 1.29046 17.0726 0.210045C17.4993 0.140673 17.9429 0.169578 18.3538 0Z" fill="#02B558"/>
<path d="M39.9526 18.8219C40.0514 19.7218 39.9842 20.6217 39.8894 21.5149C39.678 23.5122 39.189 25.4499 38.3345 27.2796C35.7227 32.8679 31.3931 36.5399 25.3456 38.2954C25.2571 38.3147 25.1673 38.3282 25.0769 38.3358C25.0453 38.1277 24.8734 38.0179 24.7381 37.8859C21.9584 35.1714 19.178 32.4578 16.3969 29.7452C16.2714 29.6228 16.1085 29.5217 16.0867 29.3241C17.203 29.6903 18.1375 29.4311 18.9435 28.5919C19.8049 27.692 20.6979 26.8248 21.5899 25.9576C25.1961 22.4479 28.807 18.942 32.4224 15.44C33.1751 14.7115 33.4478 13.88 33.1356 12.8818C33.4507 12.9984 33.6601 13.2547 33.8962 13.4599C35.0885 14.5198 36.2601 15.596 37.4405 16.6655C38.132 17.2957 38.8314 17.9239 39.5337 18.5463C39.6656 18.649 39.8056 18.7411 39.9526 18.8219Z" fill="#30CF7C"/>
<path d="M33.1356 12.8821C33.4477 13.8803 33.1751 14.7128 32.4224 15.4402C28.805 18.9403 25.1941 22.4462 21.5899 25.9579C20.7008 26.8251 19.8049 27.6922 18.9435 28.5921C18.1374 29.4314 17.203 29.6905 16.0867 29.3244C15.6471 29.0922 15.2965 28.7598 14.9468 28.4168C12.5029 26.008 10.056 23.6015 7.60624 21.1972C6.41591 20.0256 6.41393 18.7219 7.60031 17.5619C8.06986 17.1032 8.53907 16.6453 9.00796 16.1879C10.1647 15.0654 11.5368 15.0625 12.6807 16.1879C14.0301 17.5108 15.3824 18.8308 16.7179 20.1662C16.9491 20.3975 17.0666 20.4216 17.3175 20.1759C20.6465 16.9224 23.9831 13.6789 27.3272 10.4454C28.2162 9.57823 29.3167 9.38552 30.3055 9.94147C30.517 10.0657 30.7118 10.2152 30.8853 10.3866C31.4267 10.8992 31.9551 11.4262 32.4905 11.9446C32.7697 12.2102 32.9894 12.5294 33.1356 12.8821Z" fill="#FDFEFE"/>
</g>
<defs>
<clipPath id="clip0_1644_4443">
<rect width="40" height="39" fill="white"/>
</clipPath>
</defs>
</svg>
