<svg width="46" height="46" viewBox="0 0 46 46" fill="none" xmlns="http://www.w3.org/2000/svg">
<g clip-path="url(#clip0_2271_4125)">
<path d="M0 21.6497C0.0144061 21.6497 0.0396286 21.6497 0.0420296 21.6377C0.548645 20.2819 1.57267 19.8196 2.94486 19.9325C3.37704 19.9673 3.81644 19.9193 4.24382 19.9769C4.74323 20.0442 5.16821 20.3023 5.56438 20.7274C5.72525 20.2639 5.87171 19.8508 6.01097 19.4353C6.33391 18.4746 6.65684 17.514 6.97138 16.5533C7.31713 15.4905 7.9654 14.6847 8.97983 14.2068C9.21993 14.0939 9.20071 13.9354 9.20431 13.7397C9.27514 9.86089 10.6737 6.54773 13.4601 3.8422C19.6007 -2.12125 29.8207 -0.975633 34.5123 6.18988C35.9972 8.43365 36.7904 11.0644 36.7933 13.7553C36.7821 13.8551 36.8048 13.9558 36.8577 14.0411C36.9106 14.1265 36.9906 14.1916 37.085 14.226C37.5356 14.4483 37.9367 14.7592 38.2645 15.1401C38.5922 15.521 38.8399 15.964 38.9926 16.4428C39.438 17.7565 39.8762 19.0727 40.3132 20.3876C40.3456 20.4849 40.3456 20.5977 40.4752 20.6818C41.0575 20.0309 41.8282 19.8844 42.665 19.9361C43.2148 19.9709 43.7718 19.8688 44.3169 20.0237C44.8471 20.1734 45.3062 20.5081 45.611 20.9672C45.9158 21.4263 46.0462 21.9794 45.9784 22.5263C45.9066 23.0727 45.6411 23.5752 45.2302 23.9424C44.8193 24.3096 44.2903 24.517 43.7394 24.527C43.3541 24.5342 42.9675 24.527 42.4393 24.527C42.7766 24.8512 43.0311 25.0902 43.2796 25.3363C43.9487 26.0016 44.6158 26.6685 45.2809 27.337C45.513 27.5617 45.6963 27.8319 45.8194 28.1307C45.9425 28.4294 46.0027 28.7503 45.9964 29.0734C45.9964 32.3974 45.9964 35.7201 45.9964 39.0405C45.9964 39.9916 45.5618 40.7061 44.7166 41.1408C44.5006 41.2513 44.4597 41.381 44.4645 41.5887C44.4765 42.1123 44.4645 42.6359 44.4645 43.1594C44.4645 44.8262 44.0816 45.4038 42.5821 46.0019H36.2939C35.0309 45.6932 34.373 44.8514 34.3586 43.5185C34.3526 43.0105 34.3586 42.5014 34.3586 41.9922C34.3586 41.692 34.2386 41.5479 33.9288 41.5599C33.8088 41.5599 33.6887 41.5599 33.5687 41.5599H12.4277C11.639 41.5599 11.639 41.5599 11.6378 42.3525C11.6378 42.7571 11.6378 43.1606 11.6378 43.5653C11.6161 44.8983 10.9079 45.7509 9.6137 46.0031H3.32541C2.10449 45.7101 1.4178 44.837 1.40459 43.5581C1.40459 42.9769 1.39739 42.3933 1.40459 41.8121C1.41844 41.6861 1.39527 41.5588 1.33791 41.4457C1.28056 41.3327 1.19151 41.2388 1.08166 41.1756C0.4658 40.801 0.0564252 40.2798 0.00120168 39.534V28.4862C0.0852375 27.947 0.369765 27.5339 0.75753 27.1652C1.58228 26.3655 2.38901 25.5465 3.29179 24.6338C1.71312 24.7719 0.473003 24.4513 0.00120168 22.8325L0 21.6497Z" fill="black"/>
<path d="M2.06248 39.8071C1.60389 39.663 1.52706 39.3039 1.52706 38.886C1.52706 36.3706 1.52706 33.8548 1.52706 31.3387C1.52706 30.6181 1.53546 29.8976 1.52706 29.1771C1.5199 29.0205 1.54691 28.8641 1.60619 28.719C1.66548 28.5738 1.75565 28.4433 1.87042 28.3365C3.07093 27.1453 4.26622 25.948 5.45633 24.7448C5.52533 24.6685 5.61022 24.6083 5.70502 24.5685C5.79982 24.5286 5.90223 24.5101 6.00497 24.5142C8.68451 24.5214 11.3657 24.5214 14.0484 24.5142C14.2568 24.5139 14.4587 24.587 14.6186 24.7207C19.5912 28.5323 26.3272 28.5503 31.3418 24.7616C31.5503 24.5949 31.8108 24.507 32.0777 24.513C34.4415 24.5286 36.8065 24.5298 39.1715 24.5358C39.3523 24.6088 39.5138 24.7227 39.6433 24.8684C40.5389 25.7679 41.4189 26.6853 42.342 27.5572C43.0624 28.2332 43.1272 29.0594 43.0432 29.9481C43.0312 30.0681 43.0155 30.2375 42.8031 30.1786C42.2904 29.338 41.5005 29.1735 40.5929 29.2179C39.8318 29.2552 39.0659 29.242 38.3035 29.2179C37.9887 29.2048 37.6745 29.2545 37.3791 29.3642C37.0837 29.4739 36.8132 29.6414 36.5832 29.8568C35.9277 30.4476 35.2242 30.9844 34.5495 31.5536C33.9709 32.0436 33.7524 32.6992 33.9661 33.3549C34.1546 33.9373 34.7764 34.3516 35.5267 34.3564C37.4572 34.366 39.3888 34.3564 41.3204 34.3564C41.8642 34.3564 42.2556 34.109 42.5846 33.7019C42.6818 33.5819 42.7202 33.3417 42.9723 33.4269C43.0984 33.5963 43.0924 33.7944 43.0924 33.9889C43.0924 35.6349 43.0924 37.2821 43.0924 38.9305C43.0924 39.0049 43.0924 39.0794 43.0816 39.155C43.0264 39.7062 42.8991 39.8251 42.3541 39.8251H26.8002C18.7304 39.8251 10.6606 39.8251 2.59073 39.8251C2.41905 39.8419 2.23656 39.8803 2.06248 39.8071Z" fill="#02B558"/>
<path d="M26.5913 25.5022C23.7485 26.3992 20.9297 26.2755 18.2202 25.0771C13.8875 23.1557 11.3773 19.7933 10.8094 15.0884C10.0027 8.37317 15.1061 2.18396 21.8253 1.58954C23.4856 1.44303 25.1087 1.57633 26.6898 2.12152C29.2253 3.38362 31.1052 5.3182 32.3994 7.81117C33.2916 9.51503 33.7769 11.4025 33.8172 13.3255C33.8628 15.3201 33.5471 17.2295 32.7476 19.056C32.1971 20.3037 31.4586 21.4595 30.5578 22.4832C29.696 23.4598 28.6953 24.3042 27.5878 24.9894C27.2696 25.19 26.9203 25.3149 26.5913 25.5022Z" fill="#02B558"/>
<path d="M26.5913 25.5027C27.0715 25.0704 27.6718 24.829 28.1916 24.4531C31.0909 22.3504 32.9132 19.5692 33.5135 16.0255C33.9625 13.3704 33.6707 10.8054 32.523 8.34003C31.3369 5.79541 29.5218 3.84762 27.1015 2.44382C26.9491 2.35616 26.7798 2.28531 26.6898 2.11719C28.3974 2.59972 29.9606 3.4941 31.2421 4.72185C34.5903 7.8873 35.9157 11.7949 34.9793 16.2945C34.0249 20.871 31.1737 23.9103 26.7642 25.4726C26.7075 25.4876 26.6497 25.4977 26.5913 25.5027Z" fill="#008036"/>
<path d="M2.06247 39.8076C2.69154 39.8076 3.3194 39.8004 3.94727 39.8004H42.1452C42.8727 39.8004 42.9387 39.7391 42.9399 39.0138C42.9399 37.2926 42.9399 35.5714 42.9399 33.8501C42.9399 33.706 42.9867 33.5475 42.8655 33.4226C42.7609 32.3444 42.7609 31.2586 42.8655 30.1803C43.0419 29.2605 43.0359 28.4006 42.288 27.6753C41.2292 26.6498 40.2075 25.587 39.1667 24.5399C39.9062 24.4198 40.4812 24.6011 41.0191 25.2004C41.9963 26.2907 43.0695 27.2947 44.114 28.3226C44.2332 28.4347 44.3271 28.571 44.3892 28.7225C44.4513 28.8739 44.4803 29.0369 44.4741 29.2004C44.4669 32.4331 44.4669 35.6662 44.4741 38.8997C44.4741 39.5902 44.1908 39.8604 43.4837 39.8724C43.0035 39.878 42.5233 39.8812 42.0431 39.882C28.9359 39.882 15.8283 39.882 2.72035 39.882C2.49825 39.8808 2.26656 39.9529 2.06247 39.8076Z" fill="#008036"/>
<path d="M9.35077 15.7617C9.74854 18.4388 10.9165 20.9423 12.7122 22.9669H6.49358C6.43476 22.8468 6.52237 22.7459 6.55838 22.6378C7.17905 20.7669 7.80812 18.8984 8.42759 17.0274C8.57828 16.5107 8.90485 16.063 9.35077 15.7617Z" fill="#E9C095"/>
<path d="M8.25592 44.4561C6.79009 44.4561 5.32546 44.4742 3.86083 44.4669C3.38063 44.4669 3.07691 44.1535 3.06611 43.6744C3.0493 43.0163 3.0661 42.3534 3.0565 41.7002C3.0565 41.46 3.15496 41.4012 3.37465 41.4024C5.06377 41.4132 6.75288 41.4156 8.442 41.4216C8.53972 41.5362 8.58882 41.6844 8.57885 41.8347C8.58485 42.4735 8.59925 43.1124 8.57044 43.756C8.55843 44.0214 8.50322 44.2856 8.25592 44.4561Z" fill="#687B88"/>
<path d="M41.2232 44.4549C39.7573 44.4549 38.2915 44.4742 36.8257 44.467C36.3455 44.467 36.0417 44.1535 36.0297 43.6732C36.0129 43.0151 36.0298 42.3522 36.0202 41.6978C36.0142 41.4492 36.121 41.4012 36.3395 41.4024C38.0298 41.4144 39.7201 41.4168 41.4104 41.4228C41.5087 41.5366 41.5579 41.6847 41.5473 41.8347C41.5473 42.4735 41.5689 43.1124 41.5389 43.756C41.5269 44.0202 41.4729 44.2856 41.2232 44.4549Z" fill="#687B88"/>
<path d="M38.085 22.9811H33.2758C34.6275 21.4559 35.6326 19.6557 36.2218 17.7045C36.4475 17.6853 36.4884 17.869 36.5376 18.0155C37.0586 19.5526 37.572 21.0921 38.0778 22.634C38.1036 22.6881 38.1175 22.7469 38.1188 22.8068C38.12 22.8666 38.1085 22.926 38.085 22.9811Z" fill="#E9C095"/>
<path d="M38.085 22.9812C37.546 21.3733 37.0106 19.7653 36.4643 18.1598C36.4103 18.0001 36.4187 17.7935 36.2242 17.7047C36.3443 17.1679 36.4715 16.6335 36.5844 16.0943C36.6372 15.8361 36.7044 15.7413 36.9361 15.967C37.2068 16.2251 37.4125 16.5436 37.5364 16.8965C38.1799 18.8178 38.8101 20.7392 39.4572 22.6606C39.5616 22.968 39.4788 23.0208 39.1967 23.0052C38.8269 22.98 38.4548 22.986 38.085 22.9812Z" fill="#E9C095"/>
<path d="M8.25592 44.456C8.57406 43.7475 8.40479 42.9982 8.44201 42.2656C8.45641 41.9846 8.44201 41.7024 8.44201 41.425C8.84298 41.425 9.24515 41.425 9.64252 41.4106C9.85381 41.4046 9.97626 41.4527 9.97266 41.7024C9.96065 42.3713 9.98105 43.0402 9.96304 43.7091C9.96242 43.81 9.94186 43.9099 9.90258 44.0029C9.8633 44.0959 9.80604 44.1803 9.73411 44.2511C9.66217 44.322 9.57699 44.3779 9.4834 44.4157C9.3898 44.4536 9.28966 44.4726 9.18872 44.4716C8.88019 44.4812 8.56685 44.4608 8.25592 44.456Z" fill="#3E4950"/>
<path d="M41.2231 44.4543C41.5461 43.717 41.3696 42.9377 41.4104 42.1727C41.4236 41.9217 41.4104 41.6696 41.4104 41.4186C41.7994 41.4186 42.1896 41.4186 42.5773 41.4018C42.8414 41.3886 42.9531 41.4678 42.9447 41.7524C42.9279 42.3661 42.9447 42.9809 42.9375 43.5945C42.9303 44.1505 42.6254 44.4555 42.0755 44.4664C41.7922 44.4748 41.5077 44.4603 41.2231 44.4543Z" fill="#3E4950"/>
<path d="M42.671 22.9973C42.4777 22.9973 42.2724 23.0357 42.0912 22.9877C41.8511 22.9228 41.4141 23.2614 41.3997 22.6682C41.3805 21.8528 41.5761 21.4962 42.1368 21.4734C42.659 21.4506 43.1824 21.4554 43.7046 21.4734C43.9007 21.4774 44.088 21.5555 44.2288 21.6921C44.3696 21.8287 44.4534 22.0136 44.4633 22.2095C44.4605 22.4129 44.3802 22.6076 44.2387 22.7538C44.0973 22.8999 43.9054 22.9866 43.7022 22.9961C43.6722 22.9961 43.6422 22.9961 43.6122 22.9961L42.671 22.9973Z" fill="#008036"/>
<path d="M3.28699 22.9978C2.97245 22.9978 2.65914 23.005 2.3446 22.9978C1.8764 22.9822 1.52345 22.6376 1.53185 22.2209C1.5415 22.0173 1.62998 21.8255 1.77855 21.6861C1.92712 21.5467 2.12409 21.4706 2.32778 21.4739C2.79118 21.4595 3.25458 21.4643 3.71798 21.4739C4.32424 21.4811 4.58835 21.7429 4.58955 22.353C4.58955 23.1359 4.65798 22.987 3.95929 23.0026C3.73479 23.0014 3.51028 22.9978 3.28699 22.9978Z" fill="#008036"/>
<path d="M23.015 29.123C25.7081 29.123 28.4009 29.123 31.0932 29.123C31.5735 29.123 32.0152 29.213 32.385 29.5373C32.5638 29.6868 32.7083 29.8732 32.8084 30.0837C32.9085 30.2943 32.9619 30.524 32.965 30.7571C32.9681 30.9902 32.9207 31.2213 32.8262 31.4344C32.7317 31.6475 32.5922 31.8377 32.4174 31.9918C31.5771 32.734 30.7019 33.4329 29.8339 34.1534C29.5389 34.3898 29.1698 34.5145 28.7919 34.5052H17.2117C16.7742 34.5027 16.3526 34.3409 16.0256 34.0501C15.2585 33.404 14.4878 32.7652 13.7182 32.1287C13.0976 31.6112 12.8875 30.9387 13.1288 30.253C13.3701 29.5673 13.9848 29.1398 14.8011 29.1386C17.5399 29.125 20.2778 29.1198 23.015 29.123Z" fill="black"/>
<path d="M42.8619 30.1835C42.9725 31.2614 42.9725 32.3479 42.8619 33.4258C42.5677 34.1643 42.0215 34.5066 41.228 34.5066C39.3276 34.4958 37.4283 34.5066 35.5279 34.5066C34.6876 34.5066 34.0873 34.1187 33.834 33.4258C33.5807 32.7329 33.7992 32.022 34.4607 31.4756C35.2098 30.8572 35.9625 30.2411 36.7044 29.6131C37.0958 29.2823 37.5972 29.1108 38.109 29.1327C39.1259 29.1423 40.1427 29.1459 41.1596 29.1327C41.9663 29.1099 42.5449 29.4329 42.8619 30.1835Z" fill="black"/>
<path d="M7.60882 34.4985C6.63521 34.4985 5.66282 34.4985 4.6904 34.4985C3.69998 34.4901 3.07331 33.856 3.06491 32.8581C3.0585 32.156 3.0585 31.4527 3.06491 30.7482C3.07451 29.7875 3.70837 29.1415 4.67118 29.1295C5.79365 29.115 6.91613 29.1295 8.03261 29.1295C8.45636 29.1235 8.86825 29.2696 9.19352 29.5413C10.0111 30.2186 10.837 30.8863 11.6438 31.5828C11.9154 31.7984 12.1113 32.0949 12.203 32.4294C12.2948 32.7639 12.2776 33.1189 12.154 33.4429C11.9043 34.0878 11.3196 34.4889 10.5777 34.4961C9.58369 34.5057 8.59685 34.4985 7.60882 34.4985Z" fill="black"/>
<path d="M22.9766 36.8109H29.529C29.6787 36.8056 29.8286 36.8088 29.978 36.8205C30.1526 36.8276 30.318 36.9006 30.4411 37.0246C30.5642 37.1486 30.6359 37.3147 30.6418 37.4894C30.6827 37.882 30.4954 38.1462 30.1268 38.2843C29.9395 38.3388 29.7438 38.3584 29.5494 38.342H16.4434C16.3088 38.3474 16.1739 38.3426 16.04 38.3275C15.5994 38.2603 15.3317 37.9469 15.3485 37.5326C15.3653 37.1183 15.6535 36.8289 16.1096 36.8121C16.6619 36.7977 17.2165 36.8121 17.77 36.8121L22.9766 36.8109Z" fill="black"/>
<path d="M7.24748 38.3408C6.39632 38.3408 5.54518 38.3552 4.69522 38.3408C4.04094 38.3264 3.66518 37.7884 3.91248 37.2601C4.06135 36.9406 4.32785 36.8181 4.67599 36.8193C6.40713 36.8193 8.13947 36.8193 9.87061 36.8193C10.4036 36.8193 10.7002 37.0871 10.711 37.5399C10.7254 38.0118 10.4217 38.33 9.88743 38.3408C9.00986 38.3528 8.12866 38.3408 7.24748 38.3408Z" fill="black"/>
<path d="M38.7261 36.8112C39.5773 36.8112 40.4284 36.8112 41.2796 36.8112C41.8342 36.8112 42.1416 37.0862 42.1464 37.557C42.1512 38.0277 41.8306 38.3315 41.2964 38.3351C39.5797 38.3455 37.8625 38.3455 36.145 38.3351C35.5796 38.3351 35.265 38.0169 35.2818 37.5281C35.2974 37.067 35.6048 36.8136 36.1738 36.8076C37.025 36.8076 37.8749 36.8112 38.7261 36.8112Z" fill="black"/>
<path d="M23.7797 9.31171C23.811 7.41796 25.0835 5.81602 26.817 5.43174C27.3993 5.30205 27.9587 5.32487 28.3777 5.83523C28.7967 6.34559 28.7919 6.87037 28.517 7.43237C28.3885 7.69296 28.3669 7.93673 28.5998 8.1697C28.8327 8.40266 29.08 8.37384 29.3405 8.24655C29.8855 7.97876 30.4114 7.98356 30.9012 8.36664C31.4138 8.77253 31.4618 9.32732 31.3418 9.91574C30.9972 11.6198 29.3621 13.0091 27.6322 13.0067C27.428 12.9986 27.2247 13.037 27.0375 13.119C26.8504 13.2009 26.6842 13.3243 26.5517 13.4799C25.8494 14.2244 25.8314 14.2112 26.5457 14.9209C27.699 16.0753 28.8523 17.2294 30.0056 18.383C30.7979 19.1779 30.8051 20.0173 30.0308 20.8183C29.7499 21.1089 29.465 21.3955 29.176 21.6781C28.4173 22.4203 27.5517 22.4251 26.8002 21.6781C25.5145 20.4016 24.2395 19.1155 22.9586 17.8354C22.8385 17.7153 22.7449 17.4415 22.518 17.5484C22.2911 17.6553 22.1938 17.8822 22.195 18.1776C22.2046 20.0906 20.9801 21.7166 19.237 22.1405C18.5875 22.2966 17.9729 22.2605 17.5359 21.6721C17.3828 21.4755 17.2899 21.2387 17.2686 20.9904C17.2473 20.7421 17.2984 20.493 17.4158 20.2731C17.5587 19.9765 17.6559 19.6931 17.3642 19.4121C17.0725 19.1311 16.8228 19.2716 16.5419 19.3917C16.0184 19.6139 15.5106 19.5838 15.0688 19.2068C14.6486 18.8465 14.5142 18.3878 14.6258 17.833C14.8 16.9051 15.2968 16.0687 16.0282 15.472C16.7597 14.8753 17.6786 14.5567 18.6223 14.5727C18.7119 14.5781 18.8017 14.5781 18.8913 14.5727C18.972 14.5546 19.0476 14.5184 19.1123 14.4668C19.177 14.4152 19.2291 14.3496 19.2646 14.2748C19.3667 14.1175 19.1758 14.0503 19.0953 13.9674C18.7004 13.5579 18.2886 13.1641 17.8948 12.7546C17.7496 12.6045 17.6631 12.5552 17.4759 12.7317C16.5058 13.648 15.7951 13.6288 14.8551 12.6921C14.4097 12.2478 13.9595 11.8083 13.5226 11.3568C12.8635 10.6735 12.8551 9.79566 13.5226 9.11477C14.603 8.01479 15.7003 6.93161 16.7892 5.84003C17.2442 5.38371 17.788 5.26122 18.399 5.40893C19.2118 5.60467 20.0245 5.80401 20.8337 6.01896C22.0882 6.3528 22.4628 7.71577 21.5648 8.65484C20.9465 9.3009 20.9465 9.3009 21.5648 9.92175C21.8289 10.1871 22.105 10.4405 22.3547 10.7191C22.5288 10.9137 22.6512 10.9593 22.8349 10.7299C23.0077 10.5229 23.1981 10.3312 23.404 10.1571C23.6789 9.91694 23.8986 9.65395 23.7797 9.31171Z" fill="black"/>
<path d="M23.003 30.6521C25.6529 30.6521 28.3025 30.6521 30.9516 30.6521C31.1017 30.6521 31.3249 30.5621 31.385 30.7614C31.4318 30.9139 31.2313 31.0016 31.1221 31.0904C30.4462 31.6584 29.7607 32.2156 29.0896 32.7885C28.9426 32.9149 28.7526 32.9798 28.5589 32.9698C24.847 32.9698 21.1346 32.9698 17.4218 32.9698C17.258 32.9867 17.094 32.9394 16.9644 32.8377C16.2693 32.2469 15.5622 31.6705 14.8647 31.0808C14.7567 30.9896 14.5478 30.9055 14.6066 30.7518C14.6762 30.5705 14.8983 30.6545 15.0532 30.6533C17.7023 30.6509 20.3523 30.6505 23.003 30.6521Z" fill="#687B88"/>
<path d="M38.3611 32.9687C37.4343 32.9687 36.5075 32.9687 35.5819 32.9687C35.4859 32.9687 35.3551 33.0179 35.3082 32.8882C35.2614 32.7586 35.3803 32.7057 35.4583 32.6481C36.193 32.0356 36.9301 31.428 37.6624 30.8132C37.7733 30.7137 37.9181 30.6604 38.067 30.6643C39.0682 30.6643 40.0695 30.6727 41.0683 30.6643C41.3084 30.6643 41.4152 30.7207 41.4068 30.9861C41.3888 31.5541 41.39 32.1221 41.4068 32.6901C41.414 32.9375 41.3168 32.9867 41.0935 32.9843C40.1835 32.9627 39.2723 32.9687 38.3611 32.9687Z" fill="#E9C095"/>
<path d="M7.64606 32.9684C6.74928 32.9684 5.85251 32.9552 4.95572 32.9756C4.6556 32.9828 4.57635 32.8879 4.58716 32.5985C4.60877 32.0473 4.60036 31.4926 4.58716 30.9402C4.58716 30.7276 4.6532 30.652 4.86929 30.6544C5.90013 30.6616 6.93137 30.6616 7.96301 30.6544C8.1683 30.6544 8.29314 30.7744 8.43 30.8825C9.10869 31.4429 9.78617 32.0069 10.4625 32.5745C10.5597 32.6562 10.735 32.7198 10.687 32.8747C10.6389 33.0296 10.4553 32.9648 10.334 32.966C9.43964 32.972 8.54284 32.9684 7.64606 32.9684Z" fill="#E9C095"/>
<path d="M18.9717 20.6043C19.4519 18.8811 18.1073 17.2972 16.2105 17.8051C16.5286 16.6655 17.6751 15.921 18.8144 16.1408C19.0169 16.1897 19.229 16.182 19.4274 16.1184C19.6258 16.0549 19.8029 15.938 19.9393 15.7805C21.5984 14.0993 23.2695 12.4269 24.9526 10.7633C25.1019 10.6295 25.2155 10.4607 25.2834 10.272C25.3513 10.0834 25.3713 9.88083 25.3416 9.68256C25.2096 8.39284 25.8638 7.33368 26.9995 6.99023C26.7966 7.83083 26.8794 8.60179 27.5145 9.22503C28.1496 9.84827 28.9011 9.99478 29.7499 9.73179C29.4978 10.8642 28.284 11.6736 27.1568 11.449C26.963 11.4 26.7594 11.4056 26.5686 11.4654C26.3779 11.5252 26.2075 11.6368 26.0763 11.7877C24.382 13.5001 22.6793 15.2041 20.9681 16.8997C20.829 17.0225 20.7249 17.18 20.6665 17.3562C20.6081 17.5323 20.5974 17.7208 20.6356 17.9024C20.7243 18.4771 20.6057 19.0646 20.3008 19.5597C19.9959 20.0548 19.5247 20.4251 18.9717 20.6043Z" fill="#E9C095"/>
<path d="M20.5203 7.52692C19.3066 8.74219 18.1601 9.89621 17.004 11.0406C16.7327 11.3096 16.495 11.7924 16.1637 11.7695C15.8791 11.7515 15.6126 11.3156 15.3557 11.049C15.0988 10.7824 14.6354 10.5687 14.6426 10.2397C14.6498 9.91062 15.1024 9.69447 15.3629 9.43028C16.1181 8.66413 16.8876 7.9124 17.6439 7.14865C17.7162 7.05627 17.8158 6.98903 17.9285 6.95648C18.0412 6.92393 18.1613 6.92773 18.2718 6.96733C18.9777 7.16066 19.704 7.32398 20.5203 7.52692Z" fill="#E9C095"/>
<path d="M24.7593 15.3076C24.8386 15.3809 24.9058 15.4385 24.9694 15.501C26.26 16.7919 27.5469 18.0864 28.8447 19.3701C29.0284 19.5514 29.0296 19.6691 28.8447 19.836C28.5542 20.093 28.3056 20.5422 27.9935 20.5866C27.7018 20.6286 27.4521 20.1387 27.1892 19.8781C26.1087 18.8045 25.0343 17.7165 23.9478 16.6478C23.7209 16.4256 23.7077 16.2875 23.9538 16.0834C24.1711 15.9008 24.3596 15.6847 24.5625 15.4829C24.6093 15.4253 24.6789 15.3725 24.7593 15.3076Z" fill="#D5A06D"/>
<path d="M21.4507 12.187C21.3462 12.2498 21.2478 12.3222 21.1566 12.4032C20.4087 13.1453 20.4111 13.1477 19.68 12.4176C19.4267 12.1642 19.1782 11.9048 18.9165 11.6574C18.7772 11.5253 18.7616 11.4173 18.9165 11.2972C18.9275 11.2874 18.9379 11.277 18.9477 11.266C19.7952 10.3353 19.7952 10.3353 20.6764 11.2155C20.8877 11.4281 21.1002 11.6382 21.3103 11.852C21.3602 11.8913 21.3993 11.9427 21.4238 12.0013C21.4484 12.0599 21.4576 12.1238 21.4507 12.187Z" fill="#D5A06D"/>
</g>
<defs>
<clipPath id="clip0_2271_4125">
<rect width="46" height="46" fill="white"/>
</clipPath>
</defs>
</svg>
