<svg width="27" height="28" viewBox="0 0 27 28" fill="none" xmlns="http://www.w3.org/2000/svg">
<g clip-path="url(#clip0_1491_4540)">
<path d="M23.0656 4.06898C20.5274 1.44659 17.1524 0.00159998 13.5566 0C6.14684 0 0.116802 6.22387 0.113836 13.8739C0.112972 16.3193 0.731816 18.7063 1.90807 20.8104L0.000976562 28L7.12713 26.0707C9.09053 27.1763 11.3012 27.7588 13.5508 27.7598H13.5565H13.5566C20.9651 27.7598 26.9961 21.5348 26.9992 13.8851C27.0005 10.1776 25.6034 6.69155 23.0656 4.06898ZM13.5566 25.4164H13.5522C11.547 25.4153 9.58064 24.8595 7.86548 23.8087L7.4573 23.5589L3.22849 24.7036L4.35752 20.4482L4.09158 20.0119C2.97306 18.1757 2.38258 16.0537 2.38342 13.8748C2.38587 7.51634 7.39781 2.34344 13.5608 2.34344C16.5453 2.34472 19.3503 3.54581 21.4599 5.72546C23.5694 7.90509 24.7303 10.8026 24.7294 13.8842C24.7268 20.2428 19.7147 25.4164 13.5566 25.4164Z" fill="#E0E0E0"/>
<path d="M0.61792 27.2018L2.4379 20.3407C1.31509 18.3326 0.724625 16.0545 0.725333 13.7213C0.728278 6.42084 6.48292 0.481445 13.5536 0.481445C16.9853 0.483045 20.2062 1.86195 22.6279 4.36462C25.0501 6.86726 26.3832 10.1938 26.3818 13.7316C26.3789 21.0322 20.6239 26.9722 13.5541 26.9722C13.5536 26.9722 13.5544 26.9722 13.5541 26.9722H13.5484C11.4015 26.9715 9.29201 26.415 7.41843 25.3608L0.61792 27.2018Z" fill="url(#paint0_linear_1491_4540)"/>
<path fill-rule="evenodd" clip-rule="evenodd" d="M10.2347 7.98415C9.98604 7.41326 9.72419 7.40183 9.48758 7.39184C9.29405 7.38327 9.07249 7.3838 8.85129 7.3838C8.62991 7.3838 8.27017 7.46969 7.96595 7.81273C7.66156 8.15576 6.80371 8.98503 6.80371 10.6716C6.80371 12.3584 7.99363 13.9882 8.15948 14.2171C8.32552 14.4457 10.4565 18.0174 13.8313 19.3915C16.6361 20.5335 17.2068 20.3063 17.8156 20.2492C18.4244 20.192 19.78 19.4201 20.0567 18.6195C20.3334 17.8192 20.3334 17.1331 20.2504 16.9897C20.1674 16.8469 19.946 16.7612 19.614 16.5897C19.2819 16.4183 17.6496 15.5889 17.3452 15.4746C17.0408 15.3603 16.8194 15.3031 16.598 15.6464C16.3766 15.9892 15.7407 16.7612 15.547 16.9897C15.3533 17.2188 15.1596 17.2474 14.8275 17.076C14.4954 16.904 13.4261 16.5424 12.1575 15.3745C11.1704 14.466 10.504 13.3439 10.3103 13.0007C10.1166 12.6578 10.2896 12.4721 10.4561 12.3012C10.6052 12.1476 10.7882 11.901 10.9542 11.7008C11.1199 11.5007 11.1752 11.3578 11.2859 11.1292C11.3966 10.9003 11.3413 10.7001 11.2583 10.5287C11.1752 10.3573 10.53 8.662 10.2347 7.98415Z" fill="white"/>
<path d="M22.9556 4.02521C20.4466 1.43292 17.1103 0.00455252 13.5558 0.00292969C6.23107 0.00292969 0.270259 6.15535 0.267315 13.7176C0.266451 16.1349 0.878189 18.4945 2.04094 20.5745L0.155762 27.6815L7.20012 25.7744C9.141 26.8672 11.3263 27.4431 13.5501 27.444H13.5557H13.5558C20.8793 27.444 26.841 21.2905 26.8441 13.7286C26.8453 10.0637 25.4643 6.61768 22.9556 4.02521ZM13.5558 25.1276H13.5515C11.5693 25.1265 9.62544 24.5771 7.92998 23.5383L7.52648 23.2914L3.34621 24.423L4.46228 20.2164L4.19939 19.7852C3.09371 17.97 2.51 15.8724 2.51086 13.7185C2.51327 7.43303 7.46768 2.31952 13.5599 2.31952C16.5102 2.32077 19.283 3.50807 21.3684 5.6627C23.4537 7.81732 24.6012 10.6816 24.6004 13.7278C24.5978 20.0134 19.6432 25.1276 13.5558 25.1276Z" fill="white"/>
</g>
<defs>
<linearGradient id="paint0_linear_1491_4540" x1="13.4999" y1="27.2018" x2="13.4999" y2="0.48149" gradientUnits="userSpaceOnUse">
<stop stop-color="#20B038"/>
<stop offset="1" stop-color="#60D66A"/>
</linearGradient>
<clipPath id="clip0_1491_4540">
<rect width="27" height="28" fill="white"/>
</clipPath>
</defs>
</svg>
