<svg width="46" height="38" viewBox="0 0 46 38" fill="none" xmlns="http://www.w3.org/2000/svg">
<g clip-path="url(#clip0_1907_4119)">
<path d="M2.52151 28.314C1.75781 28.2415 1.05199 27.8768 0.552289 27.2964C0.312143 26.9971 0.240146 26.626 0 26.3386V25.0456C0.189292 24.6508 0.414288 24.2741 0.672333 23.9202C0.935096 23.6496 1.25081 23.4356 1.59985 23.2914C1.94889 23.1473 2.3239 23.076 2.70164 23.0821C2.84455 22.9706 3.02555 22.919 3.206 22.9385C7.28849 22.9385 11.3589 22.9385 15.4414 22.9385C16.3179 22.9385 17.1945 22.9385 18.0711 22.9385C21.3491 22.9385 24.627 22.9385 27.905 22.9385C29.1057 22.9385 30.3065 22.9385 31.4112 22.9385H31.5791C31.7418 22.9687 31.9089 22.9687 32.0716 22.9385C34.401 22.9385 36.7302 22.9385 39.0597 22.9385C39.6072 22.8968 40.1573 22.8968 40.7048 22.9385C41.141 23.0097 41.5533 23.1853 41.9067 23.4501C42.2601 23.7148 42.544 24.061 42.734 24.459C42.9247 24.8651 43.0103 25.3124 42.9828 25.76C42.9554 26.2076 42.816 26.6411 42.5771 27.0211C42.3382 27.401 42.0077 27.7152 41.6156 27.9348C41.2235 28.1544 40.7822 28.2724 40.3325 28.2781C27.8809 28.2781 15.4294 28.2781 2.98981 28.2781H2.5816L2.52151 28.314Z" fill="#E09A77"/>
<path d="M23.3662 37.9876C19.764 37.9876 16.1618 38.1672 12.7277 37.0897C9.66597 36.2691 6.89574 34.6102 4.73083 32.3008C4.41687 31.9605 4.13554 31.5918 3.89038 31.1993C3.94498 31.1495 4.00975 31.1119 4.08019 31.0892C4.15063 31.0665 4.22505 31.0591 4.29859 31.0676H8.3811C8.46878 31.0562 8.55755 31.0562 8.64523 31.0676C8.81466 31.3122 9.05492 31.4993 9.33383 31.6041C9.61274 31.7089 9.91709 31.7264 10.2062 31.6543H10.4224C10.7187 31.7301 11.0309 31.7146 11.3181 31.6099C11.6054 31.5052 11.8541 31.3161 12.0314 31.0676C12.2541 31.0317 12.481 31.0317 12.7037 31.0676H26.0079C26.2306 31.0317 26.4575 31.0317 26.6802 31.0676C27.1365 31.7261 27.8811 31.6902 28.5055 31.6543H28.9496C29.1561 31.6949 29.3703 31.665 29.5576 31.5694C29.745 31.4739 29.8946 31.3182 29.9824 31.1275C30.1291 31.048 30.2964 31.0146 30.4626 31.0317H34.1849C34.5578 31.0157 34.9234 31.1377 35.2115 31.3741C35.4997 31.6106 35.6897 31.9449 35.7457 32.3127C35.7948 32.5471 35.7809 32.7903 35.7049 33.0175C35.629 33.2446 35.4939 33.4477 35.3136 33.6058C34.5906 34.2875 33.7836 34.8748 32.9121 35.3537C30.6353 36.6618 28.1216 37.5081 25.5156 37.8439C25.0578 37.9036 24.5961 37.9277 24.1347 37.9158C23.8763 37.8997 23.617 37.9239 23.3662 37.9876Z" fill="#D67F4F"/>
<path d="M8.70522 31.1759H3.9023C3.27536 30.313 2.81147 29.3433 2.53345 28.3145C2.70548 28.2611 2.88981 28.2611 3.06185 28.3145H40.2844C41.1129 28.3145 41.9535 28.1589 42.782 28.2188C43.0101 28.2188 43.2383 28.2188 43.4304 28.3624C42.7051 30.7952 41.1669 32.9075 39.0716 34.3486C36.5159 36.1977 33.5425 37.3902 30.4144 37.8205C28.2963 38.0874 26.1595 38.1756 24.0266 38.0839C25.5076 37.9772 26.9729 37.7123 28.3972 37.2937C30.701 36.6513 32.8581 35.5698 34.7491 34.1091C35.037 33.9202 35.2755 33.6658 35.4454 33.3668C35.5538 33.1538 35.6049 32.9163 35.5934 32.6777C35.5819 32.4391 35.5084 32.2076 35.38 32.0059C35.2516 31.8042 35.0728 31.6392 34.8611 31.5273C34.6495 31.4154 34.4123 31.3603 34.1728 31.3675H29.9582C29.8361 31.1379 29.6424 30.9541 29.4062 30.8439C29.1701 30.7338 28.9044 30.7032 28.6493 30.7569C28.4419 30.7809 28.2324 30.7809 28.0249 30.7569C27.7681 30.7004 27.4998 30.7295 27.2611 30.8398C27.0225 30.9501 26.8269 31.1355 26.7042 31.3675H11.8992C11.7753 31.1401 11.5807 30.9588 11.3447 30.8509C11.1088 30.743 10.844 30.7142 10.5903 30.7689C10.3829 30.7928 10.1735 30.7928 9.96605 30.7689C9.73902 30.7059 9.49841 30.7109 9.27422 30.7833C9.05003 30.8557 8.85212 30.9922 8.70522 31.1759Z" fill="#C76E3D"/>
<path d="M27.9411 23.1067H18.0592C17.867 22.7834 18.0592 22.4602 18.0592 22.1489C18.1467 20.9165 17.9237 19.6818 17.4107 18.5572C17.0273 17.8012 16.5601 17.0904 16.0178 16.4381C16.0839 15.5612 16.3466 14.7102 16.7863 13.9479C17.3272 12.8749 18.1592 11.9748 19.1878 11.3499C19.8114 10.9574 20.511 10.7004 21.241 10.5956C21.3016 10.5693 21.367 10.5557 21.4331 10.5557C21.4992 10.5557 21.5647 10.5693 21.6253 10.5956C22.4444 10.5625 23.2617 10.6969 24.0267 10.9907C24.2429 11.302 24.0267 11.6013 24.0267 11.9126C24.0267 12.2239 23.5704 11.9126 23.3543 11.9126C22.886 11.8049 22.6099 11.9126 22.5018 12.2478C22.3937 12.583 22.5978 12.8943 23.0541 13.0141C23.3372 13.1116 23.632 13.172 23.9307 13.1936C24.3698 13.2893 24.8244 13.2893 25.2635 13.1936C25.6167 13.1664 25.9643 13.0898 26.2961 12.9661C26.3689 12.9482 26.4373 12.9157 26.4971 12.8706C26.5569 12.8255 26.6067 12.7688 26.6438 12.7038C26.6809 12.6388 26.7044 12.567 26.7127 12.4928C26.7211 12.4185 26.7141 12.3433 26.6923 12.2718C26.6083 11.9725 26.3562 11.8408 25.9839 11.8887C25.6117 11.9366 25.5637 12.0563 25.3595 11.8887C25.3047 11.7505 25.2838 11.6014 25.2984 11.4535C25.313 11.3057 25.3627 11.1634 25.4435 11.0386C25.6957 10.8351 25.9239 11.0386 26.1521 11.0386C27.6101 11.7676 28.7411 13.0149 29.322 14.5345C29.8728 15.8138 30.087 17.2122 29.9441 18.5971C29.8012 19.9819 29.3061 21.3075 28.5056 22.4482C28.3821 22.7155 28.1867 22.9434 27.9411 23.1067Z" fill="#F04E5B"/>
<path d="M15.4535 23.1189H2.70178C2.53483 22.1171 2.59225 21.0909 2.8699 20.1139C3.09642 19.1329 3.62196 18.246 4.37448 17.575C5.127 16.904 6.06956 16.4819 7.07246 16.3665C7.22062 16.378 7.36728 16.3307 7.48066 16.2349C7.97296 16.3187 8.30917 16.0074 8.6814 15.7679C11.4551 15.5884 13.2682 17.037 14.6851 19.2399C15.2069 20.1505 15.5225 21.1639 15.6096 22.209C15.6453 22.3634 15.6499 22.5233 15.6231 22.6795C15.5963 22.8357 15.5387 22.9851 15.4535 23.1189Z" fill="#FAC575"/>
<path d="M19.2238 11.4456C18.3877 12.0109 17.6769 12.7415 17.1357 13.592C16.5946 14.4426 16.2346 15.395 16.0779 16.3902C15.8858 16.3902 15.7778 16.2824 15.6577 16.1866C14.7202 15.3423 13.5394 14.8145 12.2836 14.6781C11.9768 14.6363 11.6657 14.6363 11.359 14.6781C11.1429 14.6781 10.9268 14.8218 10.7107 14.6781C10.7501 13.6607 11.0431 12.669 11.5632 11.7928C12.6477 9.98811 13.1857 7.9092 13.1122 5.80663C13.063 4.99601 13.2818 4.19168 13.7351 3.51696C14.1884 2.84225 14.8511 2.3344 15.6216 2.07129C15.8747 2.13031 16.1123 2.24188 16.3192 2.39866C16.5261 2.55543 16.6976 2.75392 16.8224 2.98119C16.8265 3.04807 16.8089 3.11444 16.7721 3.17053C16.7353 3.22661 16.6813 3.26942 16.6182 3.29248C16.4987 3.2977 16.3807 3.26407 16.282 3.19669C16.1629 3.15056 16.032 3.14432 15.9091 3.17893C15.7861 3.21354 15.6778 3.28716 15.6005 3.38858C15.5232 3.48999 15.4812 3.6137 15.4806 3.74108C15.4801 3.86846 15.5211 3.99256 15.5976 4.09461C15.7579 4.30635 15.9576 4.48522 16.1859 4.62139C16.5444 4.90078 16.9514 5.11186 17.3867 5.24397C17.6028 5.32778 17.855 5.31578 18.0111 5.51931C18.0945 5.74493 18.1192 5.98796 18.0831 6.22571C18.0125 7.88639 18.3767 9.53678 19.1397 11.0146C19.2238 11.0984 19.3439 11.254 19.2238 11.4456Z" fill="#2DB182"/>
<path d="M31.543 23.0345H31.4351C31.3511 22.8549 31.4349 22.7472 31.567 22.6394C32.5947 21.253 33.1494 19.5745 33.1494 17.8505C33.1494 16.1265 32.5947 14.448 31.567 13.0616C30.8054 11.9941 29.6921 11.2271 28.4213 10.8946C28.2892 10.8946 28.109 10.8946 28.073 10.6671C28.3012 9.69463 28.3981 8.69612 28.3612 7.69803C28.3227 6.98038 28.4954 6.26716 28.858 5.64607C29.2207 5.02498 29.7575 4.52313 30.4023 4.20215C30.7998 4.28084 31.1769 4.44054 31.5096 4.67128C31.8422 4.90202 32.1234 5.19882 32.3357 5.54304C32.8118 6.19611 33.0604 6.98659 33.0439 7.79383C32.9705 9.98058 33.5201 12.1433 34.6289 14.0313C35.3349 15.2163 35.6174 16.6049 35.4298 17.9705C35.2423 19.336 34.596 20.5979 33.5965 21.55C33.4588 21.6657 33.3412 21.8032 33.2482 21.957C32.8061 22.4842 32.2099 22.8609 31.543 23.0345Z" fill="#9CCB42"/>
<path d="M33.2484 21.9575C33.1524 21.754 33.3684 21.7062 33.4525 21.6223C34.4818 20.6566 35.1489 19.3689 35.3433 17.973C35.5376 16.5771 35.2475 15.1569 34.521 13.9481C33.6679 12.5332 33.1619 10.9376 33.0441 9.29092C33.0866 8.41526 33.014 7.53775 32.8281 6.6809C32.6634 6.15292 32.3815 5.66881 32.0031 5.2646C31.6248 4.86038 31.1596 4.54655 30.6426 4.34636C30.5799 4.31066 30.5198 4.27061 30.4626 4.22659C30.9346 3.94097 31.472 3.78024 32.0237 3.75966C32.0739 3.74027 32.1294 3.74027 32.1796 3.75966C32.5038 4.16672 32.8882 3.95125 33.2604 3.86744C34.0525 4.08049 34.752 4.54774 35.2512 5.19693C35.7504 5.84612 36.0212 6.6411 36.0219 7.45912C35.919 9.32493 36.2909 11.1864 37.1027 12.8706C37.2588 13.1699 37.4388 13.4692 37.6069 13.7685C37.9422 14.3467 38.1739 14.9787 38.2914 15.6362C38.4115 15.8038 38.2914 15.9475 38.2914 16.0912C37.2384 18.2868 35.6889 20.2088 33.7647 21.7062C33.5845 21.8498 33.4646 21.9934 33.2484 21.9575Z" fill="#8EC63F"/>
<path d="M28.1332 10.6791C29.4559 10.991 30.6489 11.7043 31.5478 12.7207C32.4467 13.7371 33.0073 15.0065 33.1522 16.3539C33.3854 17.4884 33.3598 18.6607 33.0772 19.7839C32.7945 20.9072 32.2618 21.9526 31.5191 22.8429C31.484 22.8907 31.456 22.9431 31.4352 22.9985C31.288 23.0656 31.1286 23.1022 30.9668 23.1063H27.9411C28.389 22.5408 28.7904 21.9402 29.1417 21.3105C29.5847 20.3496 29.8416 19.3137 29.8983 18.2576C30.0212 16.5744 29.6004 14.8962 28.6975 13.4687C28.0523 12.4278 27.118 11.596 26.0079 11.0742C25.8838 11.0185 25.7467 10.9978 25.6116 11.0144C25.6116 10.9306 25.6116 10.8946 25.6837 10.8587C26.482 10.6483 27.3126 10.5874 28.1332 10.6791Z" fill="#EF3644"/>
<path d="M33.2483 21.957C35.399 20.4263 37.1122 18.3631 38.2192 15.9709C38.2503 15.8893 38.2745 15.8052 38.2913 15.7195C38.7973 14.6929 39.1569 13.6008 39.3599 12.475C39.3599 12.3673 39.42 12.2475 39.444 12.1397C39.7442 12.02 39.7563 12.2954 39.8283 12.4391C40.2695 13.3578 40.5652 14.3393 40.7048 15.3484C41.1069 17.8404 40.6855 20.3951 39.5041 22.6275C39.4074 22.8302 39.268 23.0098 39.0957 23.1543H31.8913C31.7593 23.1543 31.6271 23.1542 31.519 23.0704C32.1418 22.7763 32.7233 22.402 33.2483 21.957Z" fill="#FAC575"/>
<path d="M10.7106 14.6776C11.6161 14.4837 12.5558 14.5178 13.4447 14.777C14.3336 15.0362 15.1437 15.5123 15.8017 16.1622L16.0779 16.3897C17.1288 17.5124 17.8332 18.9131 18.107 20.4243C18.257 21.316 18.257 22.2264 18.107 23.1181H15.5015C15.5516 21.8725 15.2783 20.635 14.7083 19.5255C14.1382 18.416 13.2906 17.4719 12.2475 16.7847C11.198 16.0533 9.91829 15.7258 8.64526 15.8629C8.64526 15.7073 8.6453 15.6354 8.83742 15.6713C9.38194 15.2082 10.0212 14.8692 10.7106 14.6776Z" fill="#E8B76B"/>
<path d="M39.0837 23.1181C39.6998 22.0271 40.1569 20.8539 40.4407 19.6342C41.003 17.1551 40.7197 14.5599 39.636 12.2593C39.636 12.1635 39.5401 12.1036 39.444 12.1036V12.0078C39.5079 11.9538 39.5833 11.915 39.6645 11.8942C39.7456 11.8735 39.8304 11.8714 39.9125 11.8881C40.6225 11.9599 41.3363 11.9839 42.0495 11.96C42.1043 11.9433 42.163 11.9433 42.2178 11.96C43.0325 13.6256 43.4438 15.4586 43.4185 17.3115C43.3825 19.1805 42.8922 21.0128 41.9897 22.6512C41.9177 22.7829 41.8094 22.8907 41.8094 23.0463C41.4492 23.3097 41.0891 23.0463 40.7289 23.0463L39.0837 23.1181Z" fill="#E8B76B"/>
<path d="M19.2237 11.4452C18.8337 10.6325 18.5045 9.79211 18.239 8.93096C18.0096 7.79668 17.9169 6.63914 17.9629 5.48294C18.0589 5.35125 18.2031 5.37526 18.3232 5.32737C18.4408 5.30066 18.546 5.23543 18.6222 5.14213C18.6983 5.04883 18.741 4.93277 18.7434 4.8125C18.7464 4.69333 18.7106 4.57643 18.6414 4.47929C18.5721 4.38214 18.4731 4.31004 18.3592 4.2738C18.1671 4.20197 17.9389 4.20197 17.8308 3.9745C17.9142 3.63385 18.0927 3.32368 18.3456 3.08001C18.5985 2.83634 18.9155 2.6691 19.2598 2.59766C19.7638 3.02277 20.1585 3.56186 20.4112 4.16997C20.664 4.77807 20.7673 5.43756 20.7126 6.09354C20.6533 7.66437 20.9659 9.22704 21.6252 10.655C20.7781 10.7482 19.96 11.0174 19.2237 11.4452Z" fill="#1CA670"/>
<path d="M40.7049 23.1183H41.7855C42.531 23.0862 43.278 23.1143 44.0189 23.2022C44.5975 23.3369 45.1118 23.6665 45.475 24.1354C45.8382 24.6043 46.0279 25.1837 46.0123 25.7759C45.9968 26.3682 45.7769 26.937 45.3897 27.3863C45.0025 27.8356 44.4716 28.138 43.8867 28.2424L43.4907 28.3262H2.54565C2.70175 28.1347 2.90581 28.2305 3.08592 28.2305C15.4775 28.2305 27.885 28.2305 40.3086 28.2305C40.93 28.229 41.5312 28.0101 42.0074 27.6119C42.4835 27.2137 42.8047 26.6615 42.9144 26.0516C43.0051 25.4119 42.8501 24.7617 42.4805 24.2311C42.1109 23.7005 41.5538 23.3287 40.921 23.1902C40.8444 23.183 40.7705 23.1584 40.7049 23.1183Z" fill="#D9875D"/>
<path d="M42.2178 12.0202C41.5926 12.1099 40.9577 12.1099 40.3325 12.0202C40.0324 12.0202 39.7442 12.0202 39.444 12.0202C39.2639 11.1702 39.0598 10.3321 38.9158 9.48207C38.8687 9.25809 38.8728 9.02642 38.9281 8.80432C38.9833 8.58222 39.0884 8.37543 39.235 8.19935C39.3816 8.02327 39.5659 7.88242 39.7747 7.78736C39.9834 7.6923 40.2113 7.64542 40.4407 7.65028H41.197C41.4344 7.64235 41.6704 7.68899 41.8868 7.78649C42.1032 7.88398 42.2941 8.02974 42.445 8.21258C42.5958 8.39541 42.7026 8.61043 42.7569 8.84093C42.8111 9.07143 42.8116 9.31124 42.758 9.54192C42.6019 10.368 42.3979 11.1941 42.2178 12.0202Z" fill="#B56437"/>
<path d="M25.6595 10.8708L25.5874 11.0264C25.5146 11.3202 25.4783 11.6217 25.4794 11.9243C25.6027 12.3922 25.5733 12.887 25.3954 13.3371C24.9307 13.4567 24.4431 13.4567 23.9785 13.3371C23.6903 12.8701 23.8944 12.4272 23.9785 11.9843L24.0865 11.0384C24.2309 10.3245 24.4777 9.63504 24.8191 8.99119C24.971 8.75297 25.1437 8.52862 25.3353 8.32075C25.3911 8.24608 25.4621 8.184 25.5437 8.13872C25.6253 8.09344 25.7157 8.06597 25.8087 8.05805C25.9018 8.05013 25.9954 8.062 26.0836 8.09283C26.1717 8.12366 26.2523 8.17277 26.32 8.23693C26.3895 8.29978 26.4451 8.37642 26.4831 8.462C26.5212 8.54757 26.5409 8.64015 26.5409 8.73375C26.5409 8.82736 26.5212 8.91994 26.4831 9.00551C26.4451 9.09108 26.3895 9.16773 26.32 9.23058C25.9519 9.70584 25.7232 10.2736 25.6595 10.8708Z" fill="#C76E3D"/>
<path d="M19.2598 2.59762C18.6425 2.85961 18.1457 3.34213 17.8669 3.9505C17.7743 4.35598 17.6579 4.75573 17.5186 5.14772C17.5186 5.23153 17.5186 5.31533 17.3385 5.29139C16.8977 5.17318 16.488 4.96072 16.1378 4.6688C16.0982 4.40852 16.1211 4.14259 16.2046 3.89284C16.2881 3.64309 16.4298 3.41671 16.6181 3.23219L16.7862 2.94479C16.8611 2.71609 16.9816 2.50488 17.1405 2.32382C17.2994 2.14276 17.4934 1.9956 17.7108 1.89123C18.265 1.46328 18.8971 1.14622 19.572 0.957428C19.662 0.917151 19.7595 0.896361 19.8581 0.896485C19.9567 0.896609 20.0542 0.917656 20.1441 0.958159C20.2339 0.998661 20.3141 1.05768 20.3793 1.13141C20.4446 1.20515 20.4934 1.2919 20.5225 1.38585C20.5516 1.4798 20.5605 1.57881 20.5483 1.67639C20.5362 1.77398 20.5033 1.86788 20.452 1.95188C20.4007 2.03588 20.3323 2.10813 20.2509 2.16372C20.1696 2.21931 20.0773 2.25698 19.9802 2.27435C19.726 2.34773 19.4835 2.45658 19.2598 2.59762Z" fill="#C76E3D"/>
<path d="M32.0957 1.9751C32.0957 1.77157 32.0234 1.69974 31.8192 1.67579C31.6515 1.66054 31.4964 1.5808 31.3866 1.45343C31.2767 1.32606 31.2208 1.16103 31.2309 0.993363C31.226 0.906489 31.2391 0.819586 31.2687 0.737753C31.2984 0.65592 31.3441 0.580866 31.4036 0.517146C31.463 0.453426 31.5346 0.402336 31.6143 0.366908C31.694 0.33148 31.7801 0.312483 31.8673 0.311007C32.984 0.191284 34.1007 0.0954945 35.2174 -0.000283663C35.3521 -0.00633657 35.4856 0.0273734 35.6011 0.0966842C35.7167 0.165995 35.809 0.267778 35.8667 0.389268C35.9244 0.510759 35.945 0.646591 35.9256 0.779624C35.9062 0.912657 35.8477 1.03702 35.7577 1.1371C35.7006 1.20639 35.6295 1.26254 35.5487 1.3018C35.4678 1.34106 35.3794 1.36243 35.2895 1.3645L33.5485 1.53213C33.3781 1.65738 33.1718 1.72459 32.9602 1.72373C32.6534 1.72031 32.3525 1.80777 32.0957 1.9751Z" fill="#D67F4F"/>
<path d="M8.84941 15.6714C8.76345 15.7089 8.6948 15.7773 8.65725 15.863C8.34506 16.2102 8.03287 16.5335 7.45652 16.2342C7.32374 15.4415 7.32374 14.6324 7.45652 13.8397C7.56459 13.2411 8.08092 12.9657 8.52519 13.2531C8.65906 13.3393 8.7617 13.4661 8.8179 13.6148C8.87409 13.7635 8.88089 13.9263 8.83739 14.0792C8.76209 14.6076 8.76615 15.1442 8.84941 15.6714Z" fill="#AB5F34"/>
<path d="M32.0957 1.97519C32.1163 1.85846 32.1816 1.75434 32.278 1.68502C32.3745 1.6157 32.4943 1.58667 32.6119 1.60406C32.9255 1.60396 33.2386 1.57995 33.5485 1.53223C33.5382 1.93429 33.4939 2.33477 33.4163 2.72945C33.0754 2.93978 32.6746 3.03238 32.2757 2.99288C32.0235 2.99288 32.0116 2.81329 32.0596 2.60976L32.0957 1.97519Z" fill="#AB6034"/>
<path d="M32.0594 2.6582C32.0594 2.90962 32.1672 2.99348 32.4314 2.93362C32.7566 2.86425 33.0853 2.81229 33.4161 2.77797C33.4591 3.18373 33.4057 3.59388 33.2601 3.9752C32.7078 4.38225 32.4556 4.34633 32.0594 3.81955C31.9861 3.4359 31.9861 3.04185 32.0594 2.6582Z" fill="#C76E3D"/>
<path d="M17.7227 1.90365L16.7981 2.95722C16.522 2.51424 16.0057 2.35859 15.5974 2.04731C16.2694 1.7621 17.0183 1.71149 17.7227 1.90365Z" fill="#21A670"/>
<path d="M24.0866 37.9039V37.9877H23.3662C23.5823 37.8081 23.8465 37.9278 24.0866 37.9039Z" fill="#CD7544"/>
<path d="M31.9636 32.0737H32.816C33.0033 32.0659 33.1869 32.1276 33.3311 32.2471C33.4753 32.3665 33.5701 32.5351 33.5967 32.7202C33.6006 32.9009 33.536 33.0765 33.4158 33.2119C33.2956 33.3472 33.1287 33.4325 32.9482 33.4505C32.2825 33.5343 31.6086 33.5343 30.9428 33.4505C30.852 33.444 30.7639 33.4181 30.684 33.3746C30.604 33.3311 30.5343 33.271 30.4796 33.1983C30.425 33.1257 30.3866 33.0422 30.3671 32.9536C30.3476 32.8649 30.3474 32.773 30.3665 32.6843C30.371 32.5983 30.393 32.514 30.4307 32.4365C30.4684 32.359 30.5212 32.2897 30.5861 32.2328C30.6509 32.176 30.7263 32.1326 30.8083 32.1052C30.8902 32.0779 30.9769 32.0672 31.063 32.0737C31.3632 32.0617 31.6634 32.0737 31.9636 32.0737Z" fill="#9E562E"/>
<path d="M11.8992 34.3129C11.5993 34.3308 11.2986 34.3308 10.9987 34.3129C10.8298 34.3084 10.6685 34.2417 10.5459 34.1258C10.4233 34.0099 10.3481 33.8528 10.3347 33.6849C10.3213 33.5169 10.3706 33.35 10.4732 33.2162C10.5758 33.0824 10.7244 32.9911 10.8905 32.96C11.5559 32.8701 12.2304 32.8701 12.8958 32.96C13.0762 32.975 13.2445 33.0573 13.3669 33.1905C13.4892 33.3236 13.5569 33.4978 13.5562 33.6784C13.5327 33.8646 13.4414 34.0357 13.2997 34.1593C13.1581 34.2828 12.9759 34.3503 12.7877 34.3488H11.8992V34.3129Z" fill="#9E562E"/>
<path d="M8.70532 31.1753C8.8254 30.6246 9.00545 30.469 9.54578 30.457H11.1188C11.6591 30.457 11.8512 30.6246 11.9593 31.1753C11.9478 31.2752 11.916 31.3716 11.8654 31.4585C11.8149 31.5454 11.747 31.621 11.6658 31.6806C11.5847 31.7401 11.492 31.7823 11.3938 31.8046C11.2955 31.8268 11.1937 31.8287 11.0948 31.8099C10.5544 31.8099 10.0141 31.8099 9.47381 31.8099C9.38105 31.8215 9.28684 31.814 9.19708 31.788C9.10731 31.7619 9.02386 31.7178 8.95186 31.6584C8.87985 31.5989 8.82087 31.5254 8.77846 31.4423C8.73606 31.3593 8.71115 31.2684 8.70532 31.1753Z" fill="#E09A77"/>
<path d="M26.7644 31.1873C26.8725 30.6366 27.0645 30.469 27.5928 30.457H29.2619C29.7782 30.457 29.9702 30.6366 30.0783 31.1873C30.0726 31.28 30.0478 31.3704 30.0053 31.4529C29.9628 31.5355 29.9034 31.6083 29.8312 31.6668C29.7589 31.7253 29.6752 31.7683 29.5855 31.7929C29.4958 31.8175 29.402 31.8233 29.3099 31.8099C28.7696 31.8099 28.2412 31.8099 27.7009 31.8099C27.598 31.8362 27.4908 31.8406 27.3862 31.8228C27.2815 31.8051 27.1818 31.7656 27.0935 31.7069C27.0051 31.6481 26.9301 31.5715 26.8735 31.482C26.8168 31.3925 26.7796 31.2921 26.7644 31.1873Z" fill="#9E562D"/>
<path d="M27.4847 34.6241H26.5C26.4127 34.6324 26.3248 34.6207 26.2427 34.59C26.1607 34.5592 26.0869 34.5103 26.0267 34.4468C25.9665 34.3833 25.9215 34.307 25.8954 34.2236C25.8692 34.1402 25.8625 34.052 25.8757 33.9656C25.8709 33.8807 25.8827 33.7957 25.9109 33.7154C25.9391 33.6351 25.9828 33.5611 26.0397 33.4977C26.0966 33.4343 26.1655 33.3827 26.2424 33.3459C26.3194 33.3091 26.4028 33.2878 26.488 33.2832H28.4213C28.6009 33.2979 28.7686 33.378 28.8926 33.5083C29.0167 33.6387 29.0884 33.8099 29.0937 33.9895C29.0907 34.0781 29.0698 34.1653 29.0322 34.2456C28.9946 34.326 28.9412 34.398 28.8751 34.4573C28.8089 34.5165 28.7311 34.5618 28.647 34.5905C28.5628 34.6191 28.4739 34.6306 28.3852 34.6241H27.4847Z" fill="#E09A77"/>
<path d="M23.9787 11.9966C24.0388 12.4515 23.8466 12.8945 23.9787 13.3495C23.6044 13.334 23.2352 13.2571 22.886 13.122C22.797 13.0903 22.7153 13.0409 22.6461 12.9766C22.5768 12.9124 22.5214 12.8348 22.4832 12.7486C22.445 12.6623 22.4248 12.5692 22.4239 12.4749C22.4229 12.3806 22.4413 12.2872 22.4778 12.2002C22.5096 12.1173 22.5576 12.0415 22.6191 11.9772C22.6805 11.913 22.7542 11.8616 22.8357 11.826C22.9173 11.7903 23.0051 11.7712 23.0941 11.7696C23.1832 11.7681 23.2716 11.7842 23.3543 11.8171L23.9787 11.9966Z" fill="#E12535"/>
<path d="M25.3354 13.3369C25.2971 12.8644 25.3255 12.3889 25.4195 11.9242C25.6356 11.9242 25.8517 11.8165 26.0798 11.7806C26.2404 11.744 26.4091 11.771 26.5502 11.8558C26.6912 11.9407 26.7938 12.0768 26.8363 12.2355C26.8954 12.3992 26.8883 12.5794 26.8166 12.738C26.7449 12.8967 26.6142 13.0213 26.4521 13.0856C26.0957 13.2282 25.7186 13.313 25.3354 13.3369Z" fill="#E12535"/>
<path d="M17.3384 5.30404C17.5785 4.87304 17.5426 4.34626 17.8668 3.95117C17.9767 4.05101 18.1153 4.11387 18.263 4.13079C18.7192 4.23854 18.9354 4.51385 18.8633 4.90894C18.8549 4.99721 18.8282 5.08273 18.7846 5.16002C18.741 5.2373 18.6816 5.30466 18.6103 5.35768C18.5391 5.4107 18.4574 5.44824 18.3707 5.46787C18.284 5.48751 18.1941 5.4888 18.1069 5.47167H17.9628L17.3384 5.30404Z" fill="#167B50"/>
<path d="M16.6303 3.24489C16.4167 3.70019 16.2556 4.17814 16.15 4.6696C16.0179 4.56185 15.8618 4.46612 15.7417 4.3464C15.3215 3.96328 15.2734 3.60409 15.5496 3.26886C15.8258 2.93364 16.15 2.92164 16.6303 3.24489Z" fill="#167B50"/>
</g>
<defs>
<clipPath id="clip0_1907_4119">
<rect width="46" height="38" fill="white"/>
</clipPath>
</defs>
</svg>
