<svg width="24" height="41" viewBox="0 0 24 41" fill="none" xmlns="http://www.w3.org/2000/svg">
<g clip-path="url(#clip0_1907_4105)">
<path d="M0.0200195 4.96954C0.0200195 4.12954 0.0200195 3.29954 0.0200195 2.46954C0.0254874 1.97639 0.178948 1.49628 0.460693 1.09149C0.742438 0.686706 1.13929 0.375917 1.59985 0.199524C1.71985 0.149524 1.85994 0.139531 1.93994 0.0195312H18.22C18.36 0.109531 18.5199 0.019519 18.6699 0.069519C19.148 0.130466 19.5933 0.344623 19.9395 0.679932C20.2856 1.01524 20.5138 1.4537 20.5898 1.92957C20.719 2.92539 20.719 3.93374 20.5898 4.92957C20.5666 4.9752 20.5276 5.01074 20.48 5.02954C20.302 5.08394 20.1154 5.10429 19.9299 5.08954H0.689941C0.575931 5.1156 0.457892 5.1184 0.342773 5.09778C0.227655 5.07716 0.117899 5.03355 0.0200195 4.96954Z" fill="#C0BFBF"/>
<path d="M20.54 4.88025C20.54 4.11025 20.54 3.34026 20.54 2.58026C20.5649 2.00285 20.3847 1.43526 20.0315 0.977783C19.6783 0.520304 19.1748 0.202392 18.6099 0.0802612V0.0302734H21.01C21.4529 0.184763 21.8656 0.414826 22.23 0.710266C22.4738 0.936551 22.6686 1.21033 22.8027 1.51471C22.9369 1.81909 23.0075 2.14767 23.01 2.48029C23.01 3.31029 23.01 4.14028 23.01 4.97028C22.9618 5.01499 22.9051 5.04957 22.8433 5.0719C22.7814 5.09423 22.7156 5.10388 22.6499 5.10028H20.95C20.867 5.11253 20.7823 5.09773 20.7085 5.05811C20.6346 5.01848 20.5757 4.9561 20.54 4.88025Z" fill="#9F9F9F"/>
<path d="M18.6099 -0.0302734V0.0497437C18.4799 0.0497437 18.33 0.109727 18.21 -0.0302734H18.6099Z" fill="#B4B4B4"/>
<path d="M0.0200694 4.96973H20.5301C20.6554 5.17645 20.7015 5.42158 20.66 5.65973V32.7697C20.7042 33.0348 20.6659 33.3072 20.5501 33.5497C20.3808 33.6573 20.1783 33.6999 19.98 33.6697C13.5867 33.6697 7.19678 33.6697 0.810108 33.6697C0.530703 33.7099 0.246713 33.638 0.0200694 33.4697C0.0200694 33.3697 0.0200694 33.2597 0.0200694 33.1497V5.24976C0.0100694 5.13976 0.0200694 5.03973 0.0200694 4.96973Z" fill="#A0DADC"/>
<path d="M0.0199566 33.4502C0.876968 33.5385 1.73925 33.5619 2.59979 33.5202H20.53V33.5802C20.5898 33.7396 20.6102 33.9111 20.5898 34.0802C20.5898 35.5302 20.5898 36.9702 20.5898 38.4102C20.6032 38.8576 20.494 39.3001 20.2736 39.6898C20.0533 40.0794 19.7301 40.4012 19.3398 40.6202C19.1212 40.7427 18.8793 40.8177 18.6298 40.8402C18.4775 40.8154 18.3222 40.8154 18.1699 40.8402H10.3498C7.75979 40.8402 5.15976 40.8402 2.56976 40.8402C2.22554 40.8469 1.8835 40.7844 1.5639 40.6564C1.24431 40.5283 0.953788 40.3374 0.70941 40.0949C0.465031 39.8524 0.271769 39.5632 0.141294 39.2446C0.0108202 38.926 -0.0541963 38.5845 -0.0501118 38.2402C0.0598882 36.6702 0.0199566 35.0602 0.0199566 33.4502Z" fill="#C0BFBF"/>
<path d="M20.53 33.5099V4.87988C21.093 4.96024 21.6628 4.98035 22.23 4.93988H22.99C22.99 5.07988 22.99 5.2099 22.99 5.3399V33.0699C22.99 33.1999 22.99 33.3299 22.99 33.4599C22.9537 33.5167 22.9033 33.5632 22.8438 33.5947C22.7842 33.6263 22.7173 33.6418 22.6499 33.6399C22.0432 33.6399 21.4332 33.6399 20.8198 33.6399C20.7665 33.6424 20.7135 33.6339 20.6636 33.615C20.6137 33.5961 20.5683 33.5671 20.53 33.5299V33.5099Z" fill="#69C8C4"/>
<path d="M20.54 33.5297H22.54C22.6992 33.5451 22.8598 33.5246 23.01 33.4697C23.01 35.1297 23.01 36.7897 23.01 38.4697C23.0049 39.1048 22.7524 39.7129 22.3062 40.1648C21.8599 40.6167 21.2548 40.8767 20.6199 40.8897C19.9499 40.8897 19.2899 40.8897 18.6199 40.8897C19.1829 40.764 19.6841 40.4452 20.0366 39.9885C20.3891 39.5319 20.5709 38.9662 20.55 38.3897C20.49 36.6997 20.54 35.1097 20.54 33.5297Z" fill="#9F9F9F"/>
<path d="M18.6099 40.7896C18.605 40.8127 18.605 40.8365 18.6099 40.8596H18.21C18.33 40.7396 18.4799 40.8096 18.6099 40.7896Z" fill="#B4B4B4"/>
<path d="M12.6899 1.84047C13.0599 1.84047 13.4301 1.84047 13.8101 1.84047C13.9837 1.82077 14.1581 1.87077 14.2949 1.9795C14.4318 2.08824 14.52 2.24685 14.54 2.42048C14.5477 2.50776 14.5361 2.59566 14.5061 2.67799C14.4761 2.76032 14.4284 2.83509 14.3665 2.89705C14.3045 2.959 14.2298 3.00661 14.1475 3.03657C14.0651 3.06654 13.9772 3.07808 13.8899 3.07045C13.0899 3.07045 12.29 3.07045 11.5 3.07045C11.4164 3.07177 11.3335 3.05647 11.2559 3.0254C11.1783 2.99434 11.1077 2.94817 11.0481 2.88954C10.9885 2.8309 10.9412 2.76101 10.9089 2.68391C10.8767 2.60682 10.8599 2.52402 10.8599 2.44044C10.8752 2.26621 10.9582 2.1049 11.0908 1.99092C11.2235 1.87694 11.3953 1.81934 11.5698 1.83046L12.6899 1.84047Z" fill="#818181"/>
<path d="M9.06972 3.06958C8.98723 3.07524 8.90471 3.06354 8.82705 3.03516C8.74939 3.00677 8.67844 2.96236 8.61904 2.90485C8.55964 2.84733 8.51295 2.778 8.48208 2.70129C8.45121 2.62459 8.43684 2.54222 8.43984 2.45959C8.44957 2.29929 8.51823 2.14828 8.63271 2.03564C8.7472 1.92301 8.89951 1.85673 9.05996 1.84961C9.21041 1.86961 9.35018 1.93796 9.4584 2.04437C9.56662 2.15079 9.63729 2.28948 9.65981 2.43958C9.66014 2.59996 9.59928 2.75446 9.48965 2.87152C9.38002 2.98858 9.22978 3.0594 9.06972 3.06958Z" fill="#818181"/>
<path d="M12.69 37.1799C12.6972 37.3429 12.6703 37.5055 12.6109 37.6575C12.5515 37.8094 12.4608 37.9473 12.345 38.0622C12.2292 38.177 12.0907 38.2664 11.9383 38.3246C11.7858 38.3828 11.6229 38.4084 11.46 38.3999C11.2972 38.4003 11.136 38.3671 10.9866 38.3023C10.8372 38.2374 10.7029 38.1424 10.5921 38.0231C10.4812 37.9038 10.3963 37.7628 10.3426 37.6091C10.2888 37.4554 10.2676 37.2922 10.2801 37.1298C10.2687 36.9623 10.2923 36.7943 10.3494 36.6364C10.4065 36.4785 10.4957 36.3342 10.6116 36.2127C10.7275 36.0912 10.8674 35.9951 11.0225 35.9306C11.1775 35.8661 11.3444 35.8347 11.5122 35.8382C11.6801 35.8416 11.8456 35.88 11.9978 35.9509C12.1501 36.0217 12.2857 36.1235 12.3965 36.2497C12.5073 36.3759 12.5906 36.5238 12.6411 36.6839C12.6917 36.8441 12.7083 37.013 12.69 37.1799Z" fill="white"/>
</g>
<defs>
<clipPath id="clip0_1907_4105">
<rect width="23.01" height="40.88" fill="white"/>
</clipPath>
</defs>
</svg>
