<svg width="36" height="39" viewBox="0 0 36 39" fill="none" xmlns="http://www.w3.org/2000/svg">
<g clip-path="url(#clip0_1907_4775)">
<path d="M27.22 33.6301H27.8298C28.0015 33.6744 28.1519 33.778 28.2544 33.9227C28.3569 34.0673 28.4049 34.2435 28.3899 34.4201C28.3899 35.4201 28.3899 36.4201 28.3899 37.4201C28.3899 37.9001 28.26 38.0401 27.76 38.2101H4.86986C4.69569 38.0828 4.5599 37.91 4.47704 37.7108C4.39417 37.5116 4.36742 37.2935 4.39989 37.0801C4.39989 36.2101 4.39989 35.3401 4.39989 34.4701C4.38116 34.349 4.39133 34.2251 4.42943 34.1086C4.46753 33.992 4.53243 33.8861 4.61913 33.7994C4.70582 33.7127 4.81168 33.6477 4.92821 33.6096C5.04474 33.5715 5.16862 33.5614 5.28978 33.5801H7.78978C7.93618 33.4807 8.11518 33.4413 8.28978 33.4701H24.8899C25.5099 33.4701 26.12 33.4701 26.74 33.4701C26.8267 33.4628 26.9138 33.4732 26.9963 33.5007C27.0789 33.5282 27.155 33.5722 27.22 33.6301Z" fill="#FEE17A"/>
<path d="M27.75 38.3201C27.9368 38.2352 28.0907 38.0914 28.1882 37.9109C28.2857 37.7303 28.3213 37.5228 28.2898 37.3201C28.2898 36.4701 28.2898 35.6201 28.2898 34.7801C28.3178 34.5782 28.2899 34.3724 28.2087 34.1855C28.1276 33.9985 27.9964 33.8375 27.8298 33.7201H29.8298C30.0261 33.7086 30.2195 33.7725 30.3701 33.899C30.5207 34.0254 30.6172 34.2047 30.6399 34.4001C30.67 34.6859 30.67 34.9742 30.6399 35.2601C30.6399 35.9201 30.6399 36.5801 30.6399 37.2601C30.6662 37.4756 30.6325 37.6942 30.5425 37.8918C30.4525 38.0894 30.3097 38.2584 30.1299 38.38L27.75 38.3201Z" fill="#FBD268"/>
<path d="M24.9099 33.6302H24.6098H8.14987H7.77976C6.75989 32.7021 5.81076 31.6993 4.93991 30.6302C2.49319 27.5724 0.886757 23.929 0.279757 20.0602C0.0634984 18.708 -0.0333363 17.3394 -0.0100384 15.9702C-0.0100384 15.3302 0.139962 15.1402 0.739962 14.9702C3.4573 14.0218 5.85684 12.3354 7.66989 10.1002L7.77976 9.9502C7.89976 9.9502 7.96999 9.95018 8.01999 10.0602C8.40999 10.6502 8.90983 11.1602 9.34982 11.7102C9.37579 11.7541 9.39602 11.8011 9.40988 11.8502C9.3939 12.1928 9.45536 12.5346 9.58982 12.8502C9.70982 13.0602 9.92979 13.1702 10.0598 13.3702C10.0641 13.4101 10.0641 13.4503 10.0598 13.4902C10.0598 14.3902 10.0598 15.2802 10.0598 16.1802C9.95979 16.6202 9.57983 16.8802 9.35983 17.2502C8.58399 18.2267 7.91359 19.2826 7.35983 20.4002C7.05006 21.1762 7.053 22.0421 7.36814 22.8159C7.68327 23.5898 8.28601 24.2113 9.04978 24.5502L9.35983 24.6802C9.81889 24.8431 10.3078 24.9048 10.7929 24.8612C11.2781 24.8176 11.748 24.6696 12.1706 24.4274C12.5933 24.1853 12.9585 23.8546 13.2414 23.4581C13.5244 23.0616 13.7182 22.6086 13.8098 22.1302C13.9196 21.4887 13.818 20.8288 13.52 20.2502C12.9405 19.0735 12.2291 17.9664 11.3999 16.9502C11.1987 16.7639 11.0474 16.5301 10.9599 16.2702C10.9049 15.331 10.9049 14.3894 10.9599 13.4502C10.9749 13.4063 11.0026 13.368 11.0398 13.3402C11.0971 13.3156 11.1602 13.3073 11.2219 13.3161C11.2836 13.3249 11.3417 13.3506 11.3899 13.3902C12.8432 14.2372 14.4515 14.7846 16.1198 15.0002H16.26C16.47 15.2502 16.7999 15.4002 16.8899 15.7502C16.9399 17.1202 16.8899 18.4902 16.8899 19.8602C16.8899 20.6302 16.8899 21.4002 16.8899 22.1702C16.8299 22.5602 16.5098 22.7802 16.3198 23.0802C15.5435 24.0738 14.8418 25.1233 14.2199 26.2202C13.9484 26.6915 13.788 27.2185 13.7512 27.7612C13.7144 28.3038 13.8023 28.8477 14.0078 29.3513C14.2133 29.8549 14.5311 30.3049 14.937 30.6669C15.3429 31.0289 15.8261 31.2934 16.3498 31.4402C16.8625 31.5923 17.4022 31.6312 17.9314 31.5541C18.4605 31.4771 18.9665 31.286 19.4145 30.994C19.8625 30.702 20.2418 30.3161 20.5259 29.863C20.8099 29.41 20.992 28.9006 21.0598 28.3702C21.1189 27.6223 20.9442 26.8745 20.5598 26.2302C19.9277 25.0137 19.1597 23.8731 18.27 22.8302C18.0916 22.6522 17.9607 22.4321 17.8899 22.1902C17.8899 20.0502 17.8899 17.9002 17.8899 15.7602C17.9899 15.4202 18.3 15.2502 18.51 15.0002C19.34 14.8002 20.2 14.7002 21.01 14.4302C21.7946 14.1642 22.554 13.8296 23.2798 13.4302C23.4036 13.3264 23.5585 13.2666 23.7199 13.2602C23.75 13.2745 23.7763 13.2954 23.7971 13.3214C23.8179 13.3474 23.8325 13.3778 23.8398 13.4102C23.8998 14.3502 23.8398 15.2902 23.8398 16.2302C23.7598 16.6202 23.4199 16.8402 23.2199 17.1502C22.5072 18.0976 21.8716 19.1009 21.3198 20.1502C20.996 20.7719 20.888 21.4835 21.0129 22.1732C21.1378 22.8629 21.4887 23.4916 22.01 23.9602C22.3518 24.2685 22.7441 24.5154 23.1699 24.6902C23.6998 24.8799 24.2687 24.9342 24.8249 24.8483C25.3811 24.7624 25.907 24.5389 26.355 24.1982C26.8029 23.8575 27.1588 23.4104 27.3901 22.8973C27.6215 22.3842 27.7212 21.8215 27.6799 21.2602C27.565 20.5704 27.2986 19.9147 26.8999 19.3402C26.3745 18.4511 25.7792 17.605 25.1198 16.8102C24.9628 16.6307 24.8467 16.4191 24.7798 16.1902C24.7298 15.2809 24.7298 14.3695 24.7798 13.4602C24.7798 13.4602 24.7798 13.3802 24.8298 13.3602C25.0592 13.1859 25.2396 12.9553 25.3535 12.6907C25.4674 12.4261 25.511 12.1365 25.48 11.8502C25.5496 11.6839 25.6775 11.5488 25.8398 11.4702C25.8792 11.4605 25.9205 11.4605 25.9599 11.4702C26.318 11.7194 26.6527 12.0005 26.9599 12.3102C28.3507 13.4498 29.9409 14.3213 31.6499 14.8802C32.5499 15.1702 32.6499 15.3602 32.6499 16.3102C32.6959 20.2299 31.7279 24.0949 29.8398 27.5302C28.9966 29.0901 27.9657 30.5408 26.77 31.8502C26.2658 32.431 25.7245 32.9789 25.1499 33.4902C25.0743 33.5441 24.994 33.5909 24.9099 33.6302Z" fill="#345F81"/>
<path d="M8.52979 8.92027C10.0218 6.57196 10.8032 3.8424 10.7798 1.06028C10.76 0.917409 10.7693 0.771988 10.8071 0.632791C10.8449 0.493594 10.9106 0.363498 11 0.250283C11.0697 0.171228 11.1561 0.10869 11.2529 0.067178C11.3498 0.0256661 11.4545 0.00623101 11.5598 0.0102933H21.3198C21.7598 0.100293 21.96 0.340259 22.01 0.850259C22.01 1.17026 22.01 1.50026 22.01 1.85026C22.0467 4.3276 22.7588 6.74793 24.0698 8.85026C24.4198 9.42026 24.85 9.94028 25.22 10.5003C25.2297 10.5397 25.2297 10.5809 25.22 10.6203C25.1314 10.8119 24.9794 10.9673 24.7898 11.0603C24.4707 11.0129 24.1448 11.069 23.8599 11.2203C23.3999 11.4503 23.3299 11.9203 23.1799 12.3303C22.9543 12.5598 22.6812 12.7372 22.3799 12.8503C21.3188 13.4007 20.173 13.7692 18.99 13.9403C18.8675 13.9603 18.7424 13.9603 18.6199 13.9403C18.4838 13.8875 18.3611 13.8056 18.26 13.7003C18.0996 13.5358 17.8909 13.4268 17.6643 13.389C17.4377 13.3513 17.2051 13.3867 17 13.4903C16.73 13.5703 16.5898 13.8703 16.3098 13.9403C15.5292 13.9096 14.7589 13.7508 14.0298 13.4703C13.3284 13.2412 12.657 12.9289 12.0298 12.5403C11.9293 12.4891 11.8433 12.4135 11.7798 12.3203C11.7148 12.0574 11.6211 11.8025 11.5 11.5603C11.3472 11.3668 11.1443 11.2188 10.9133 11.1324C10.6824 11.046 10.4322 11.0245 10.1899 11.0703C9.72518 10.6959 9.32641 10.2463 9.01001 9.74027C8.80062 9.49901 8.63764 9.22096 8.52979 8.92027Z" fill="#345F81"/>
<path d="M24.9099 33.6301C25.2699 33.2901 25.63 32.9501 25.98 32.6301C27.9407 30.6801 29.5298 28.3894 30.6699 25.8701C31.4775 24.1096 32.0491 22.2502 32.3699 20.3401C32.4999 19.5585 32.59 18.7708 32.6399 17.98C32.6399 17.32 32.6399 16.66 32.6899 15.98C32.7069 15.8651 32.701 15.7479 32.6724 15.6353C32.6438 15.5226 32.5929 15.4168 32.5232 15.3238C32.4535 15.2308 32.366 15.1526 32.2659 15.0936C32.1657 15.0346 32.0551 14.996 31.9399 14.98C30.0378 14.3843 28.2735 13.4155 26.75 12.1301C26.5155 11.8874 26.2685 11.6571 26.01 11.4401C26.0103 11.379 26.0237 11.3188 26.0496 11.2635C26.0755 11.2083 26.1132 11.1593 26.1599 11.1201C26.4999 10.7901 26.6898 10.32 27.0898 10.04C27.963 11.1152 28.9713 12.0732 30.0898 12.8901C31.3137 13.7563 32.6625 14.4307 34.0898 14.8901C34.8798 15.1501 34.98 15.3001 34.99 16.1201C35.0876 21.6021 33.1898 26.9329 29.6499 31.1201C28.8898 32.0101 28.0714 32.8487 27.2 33.6301H24.9099Z" fill="#245271"/>
<path d="M25.1499 10.5497C23.364 8.41694 22.2474 5.80444 21.9399 3.03971C21.8599 2.34971 21.9399 1.66971 21.8799 1.03971C21.897 0.831213 21.8484 0.622604 21.7407 0.443214C21.6331 0.263824 21.4718 0.122687 21.2798 0.0397108H23.2798C23.4129 0.0171331 23.5497 0.0282438 23.6775 0.0719373C23.8053 0.115631 23.9201 0.190523 24.0115 0.289894C24.1029 0.389265 24.168 0.509953 24.2009 0.640907C24.2338 0.771861 24.2335 0.908924 24.2 1.03971C24.1798 1.89571 24.2299 2.75192 24.3499 3.59971C24.6244 5.48292 25.274 7.29195 26.26 8.91972C26.3059 8.99316 26.3459 9.0701 26.3799 9.14976C26.1092 9.65203 25.7729 10.1161 25.3799 10.5298C25.3454 10.5499 25.3069 10.5621 25.2671 10.5656C25.2273 10.569 25.1873 10.5636 25.1499 10.5497Z" fill="#245271"/>
<path d="M8.52979 8.91992C9.04048 9.64624 9.59499 10.3409 10.1899 10.9999C10.1642 11.0654 10.1187 11.1214 10.0598 11.16C9.85362 11.2659 9.68578 11.4338 9.57983 11.64C9.57983 11.71 9.49988 11.8199 9.37988 11.8099C8.85912 11.2874 8.38725 10.7183 7.96997 10.1099C7.91997 10.0399 7.87979 9.95994 7.78979 9.93994L8.52979 8.91992Z" fill="#FDF7C0"/>
<path d="M25.1499 10.5496C25.4987 10.1823 25.8133 9.78395 26.0898 9.35956C26.1432 9.23182 26.2384 9.12604 26.3599 9.05957L27.0498 10.0596C26.7186 10.5478 26.3581 11.0153 25.97 11.4596H25.9199C25.6234 11.2266 25.3638 10.9502 25.1499 10.6396V10.5496Z" fill="#FBE99C"/>
<path d="M17.49 36.6297H14.3899C14.2102 36.6498 14.0298 36.5996 13.8862 36.4897C13.7427 36.3797 13.6472 36.2184 13.6199 36.0396C13.64 35.8634 13.7292 35.7023 13.8679 35.5916C14.0066 35.481 14.1835 35.43 14.3599 35.4497H20.6399C20.7301 35.426 20.8246 35.4233 20.916 35.4419C21.0075 35.4604 21.0936 35.4997 21.1675 35.5567C21.2414 35.6137 21.3011 35.6868 21.3423 35.7705C21.3834 35.8543 21.4048 35.9463 21.4048 36.0396C21.4048 36.133 21.3834 36.2251 21.3423 36.3088C21.3011 36.3925 21.2414 36.4657 21.1675 36.5227C21.0936 36.5797 21.0075 36.6189 20.916 36.6375C20.8246 36.656 20.7301 36.6534 20.6399 36.6297H17.49Z" fill="#FEF8C0"/>
<path d="M16.3698 23.03L16.9199 22.2899C17.0299 22.0199 17.1599 21.73 17.4899 21.72C17.8199 21.71 17.9698 22.0099 18.0798 22.2899C19.108 23.5386 20.0217 24.8773 20.8098 26.2899C21.0859 26.7978 21.2386 27.3637 21.2553 27.9416C21.272 28.5195 21.1521 29.0932 20.9057 29.6161C20.6593 30.1391 20.2933 30.5967 19.8371 30.9518C19.3809 31.3069 18.8472 31.5495 18.2797 31.66C17.6737 31.8055 17.0388 31.7743 16.4499 31.5699C16.4499 31.3899 16.5699 31.38 16.6699 31.33C17.4417 30.9833 18.0754 30.3884 18.4699 29.64C18.5777 29.4568 18.6425 29.2517 18.6599 29.0399C18.7135 28.9278 18.777 28.8207 18.8498 28.72C18.9994 28.4855 19.0788 28.2131 19.0788 27.9349C19.0788 27.6568 18.9994 27.3845 18.8498 27.15C18.7698 27.01 18.6698 26.8799 18.5998 26.7399C18.0626 25.6038 17.3911 24.5362 16.5998 23.5599C16.4898 23.3599 16.3198 23.24 16.3698 23.03Z" fill="#FBD268"/>
<path d="M18.7199 29.04C18.7999 29.23 18.7198 29.3701 18.6098 29.5201C18.2027 30.3732 17.4883 31.0411 16.6098 31.3901C16.5508 31.4302 16.4941 31.4736 16.4399 31.5201C15.9332 31.3813 15.4625 31.1346 15.0602 30.7968C14.658 30.4589 14.3338 30.0381 14.1095 29.563C13.8853 29.088 13.7665 28.5701 13.7614 28.0448C13.7563 27.5195 13.8648 26.9994 14.0798 26.5201C14.7051 25.2772 15.47 24.1096 16.3598 23.04C16.9807 23.8523 17.5581 24.6968 18.0898 25.5701C18.3109 25.9122 18.4858 26.282 18.6098 26.67C18.4498 26.67 18.3199 26.61 18.1899 26.55C17.9366 26.4137 17.6487 26.3551 17.3622 26.3818C17.0758 26.4085 16.8035 26.5192 16.5798 26.7001C16.3555 26.8603 16.1791 27.0785 16.0693 27.3312C15.9595 27.584 15.9205 27.8619 15.9565 28.1351C15.9924 28.4084 16.1019 28.6667 16.2734 28.8824C16.4448 29.0982 16.6718 29.2633 16.9299 29.36C17.171 29.458 17.4337 29.4911 17.6916 29.456C17.9495 29.4209 18.1936 29.3189 18.3998 29.1601C18.4895 29.0845 18.6026 29.042 18.7199 29.04Z" fill="#FEE17A"/>
<path d="M25.02 16.2401C25.2489 16.6353 25.5204 17.0042 25.8298 17.3401C26.5447 18.2703 27.1551 19.2764 27.6499 20.3401C27.8461 20.8466 27.9172 21.3928 27.8574 21.9327C27.7977 22.4725 27.6088 22.99 27.3066 23.4413C27.0045 23.8927 26.598 24.2645 26.1216 24.5254C25.6452 24.7863 25.1128 24.9285 24.5698 24.9401C24.1247 24.9829 23.6763 24.907 23.27 24.7201C23.7365 24.4641 24.1695 24.1517 24.5598 23.79C25.0781 23.2627 25.4026 22.5754 25.48 21.8401C25.5165 21.4994 25.4647 21.1551 25.3298 20.8401C25.2474 20.3631 25.0632 19.9095 24.7898 19.5101C24.3993 18.812 23.9583 18.1435 23.47 17.5101C23.39 17.3901 23.2698 17.28 23.2898 17.11L23.8699 16.3401C23.9091 16.2119 23.9737 16.0928 24.0598 15.9901C24.1081 15.9209 24.1741 15.8659 24.251 15.8311C24.3278 15.7962 24.4127 15.7827 24.4966 15.7919C24.5805 15.8011 24.6603 15.8327 24.7278 15.8834C24.7952 15.9341 24.8477 16.0021 24.8799 16.0801C24.9199 16.1101 24.93 16.2001 25.02 16.2401Z" fill="#FBD268"/>
<path d="M9.36987 17.14L10.01 16.26V16.2C10.13 15.98 10.2498 15.72 10.5398 15.76C10.6765 15.781 10.8032 15.8445 10.9019 15.9414C11.0005 16.0383 11.0663 16.1637 11.0898 16.2999C11.9136 17.2825 12.6529 18.3329 13.2998 19.44C13.4498 19.71 13.58 19.99 13.71 20.27C13.919 20.7789 14.0002 21.3312 13.9465 21.8788C13.8929 22.4264 13.7059 22.9525 13.4021 23.4112C13.0983 23.8698 12.6869 24.2471 12.2036 24.5101C11.7204 24.7732 11.18 24.9138 10.6299 24.9199C10.1977 24.9619 9.76224 24.8859 9.36987 24.7C9.48987 24.54 9.67984 24.5 9.83984 24.41C10.3062 24.1628 10.7045 23.8044 10.9993 23.3666C11.294 22.9288 11.4762 22.4251 11.5298 21.9C11.6119 21.5683 11.5912 21.2195 11.47 20.9C11.2478 20.1833 10.91 19.5077 10.47 18.9C10.15 18.26 9.75987 17.72 9.36987 17.14Z" fill="#FBD268"/>
<path d="M11.66 21.9196C11.7079 22.3395 11.6494 22.7647 11.4899 23.156C11.3304 23.5473 11.0749 23.8923 10.7472 24.1591C10.4195 24.4259 10.0299 24.606 9.61438 24.6829C9.19883 24.7597 8.77071 24.7308 8.36926 24.5988C7.9678 24.4668 7.60591 24.236 7.31701 23.9276C7.02811 23.6192 6.82142 23.2431 6.71594 22.8339C6.61046 22.4246 6.60969 21.9955 6.7135 21.5858C6.8173 21.1762 7.0223 20.7992 7.30993 20.4896C7.82093 19.274 8.51576 18.1442 9.36999 17.1396C9.63999 17.2496 9.74002 17.5196 9.90002 17.7396C10.5527 18.5796 11.094 19.5006 11.5101 20.4796C11.5684 20.5865 11.5927 20.7086 11.58 20.8297C11.44 20.8297 11.3601 20.7397 11.2701 20.6597C11.1135 20.5109 10.9129 20.4169 10.6984 20.3917C10.4839 20.3664 10.2668 20.4113 10.08 20.5197C9.89022 20.5916 9.72696 20.7196 9.61169 20.8866C9.49642 21.0536 9.43469 21.2517 9.43469 21.4547C9.43469 21.6576 9.49642 21.8557 9.61169 22.0227C9.72696 22.1897 9.89022 22.3177 10.08 22.3896C10.2868 22.5091 10.5297 22.5506 10.7645 22.5066C10.9993 22.4626 11.2105 22.3359 11.36 22.1497C11.44 22.0597 11.5 21.9196 11.66 21.9196Z" fill="#FEE17A"/>
<path d="M23.2898 17.0703C24.0151 17.9765 24.6452 18.955 25.1699 19.9903C25.2799 20.2203 25.4799 20.4403 25.3699 20.7303C25.2468 20.7162 25.1313 20.6637 25.0398 20.5803C24.8724 20.4642 24.6737 20.402 24.47 20.402C24.2662 20.402 24.0673 20.4642 23.8999 20.5803C23.7221 20.6638 23.5728 20.7977 23.4707 20.9655C23.3686 21.1332 23.3182 21.3273 23.3257 21.5235C23.3331 21.7197 23.3981 21.9094 23.5127 22.0688C23.6272 22.2283 23.7864 22.3506 23.97 22.4203C24.1944 22.5337 24.452 22.5628 24.696 22.5022C24.9401 22.4416 25.1544 22.2955 25.2998 22.0903C25.3798 21.9903 25.4298 21.8703 25.5698 21.8503C25.4985 22.4977 25.2444 23.1114 24.8371 23.6196C24.4298 24.1279 23.8863 24.5097 23.27 24.7203C22.8502 24.5778 22.4629 24.353 22.1308 24.0592C21.7988 23.7654 21.5284 23.4085 21.3357 23.0092C21.143 22.6098 21.0319 22.1762 21.0085 21.7334C20.9852 21.2906 21.0503 20.8477 21.1999 20.4303C21.7513 19.2262 22.4534 18.0971 23.2898 17.0703Z" fill="#FEE17A"/>
<path d="M18.0798 22.29C17.4598 21.6 17.5499 21.59 16.9199 22.29V15.6301C16.9528 15.622 16.9872 15.622 17.02 15.6301C17.37 15.7701 17.7298 15.6301 18.0798 15.6301V22.29Z" fill="#FDF7C0"/>
<path d="M11.8198 12.29C13.2088 13.1627 14.7788 13.7065 16.4099 13.8801C16.4099 14.2701 16.4099 14.65 16.4099 15.04C14.5796 14.8623 12.8162 14.2597 11.26 13.2801C11.4 12.9401 11.6698 12.63 11.8198 12.29Z" fill="#FEF8C0"/>
<path d="M18.5999 13.8802C20.2327 13.7079 21.8037 13.1603 23.1899 12.2803C23.3701 12.6251 23.5703 12.959 23.7898 13.2803C22.2448 14.2789 20.4816 14.8896 18.6499 15.0602C18.6799 14.6302 18.5999 14.2702 18.5999 13.8802Z" fill="#FEF8C0"/>
<path d="M11.1499 16.3004L11.0598 16.1904C10.6698 15.7204 10.5799 15.7204 10.1699 16.1904L10.0298 16.3004C10.0298 15.3004 10.0298 14.3004 10.0298 13.3604C10.4098 13.3604 10.7899 13.3604 11.1699 13.3604L11.1499 16.3004Z" fill="#FCF6BF"/>
<path d="M25.02 16.24C24.9635 16.216 24.9097 16.1858 24.8599 16.15C24.4399 15.72 24.36 15.72 23.97 16.15L23.8699 16.26V13.26C23.8857 13.2534 23.9028 13.25 23.9199 13.25C23.9371 13.25 23.9541 13.2534 23.97 13.26C24.3021 13.3007 24.6379 13.3007 24.97 13.26L25.02 16.24Z" fill="#FCF6BF"/>
<path d="M18.5999 13.88C18.692 14.0581 18.7443 14.2541 18.7529 14.4545C18.7616 14.6548 18.7264 14.8546 18.6499 15.04C18.5174 15.2877 18.3204 15.495 18.0799 15.64C17.9086 15.7239 17.7205 15.7675 17.5298 15.7675C17.3391 15.7675 17.1512 15.7239 16.98 15.64C16.98 15.47 17.0799 15.39 17.1599 15.29C17.2621 15.1895 17.3433 15.0696 17.3987 14.9374C17.4541 14.8052 17.4827 14.6634 17.4827 14.52C17.4827 14.3767 17.4541 14.2347 17.3987 14.1025C17.3433 13.9703 17.2621 13.8505 17.1599 13.75C17.0799 13.65 16.95 13.57 16.98 13.41C17.61 13.12 18.0399 13.24 18.5999 13.88Z" fill="#EF7281"/>
<path d="M25.02 13.3301C24.853 13.416 24.6678 13.4609 24.48 13.4609C24.2921 13.4609 24.107 13.416 23.9399 13.3301C23.8899 13.1901 23.9898 13.12 24.0598 13.04C24.1877 12.9248 24.2878 12.7818 24.3521 12.6221C24.4163 12.4623 24.443 12.2899 24.4304 12.1182C24.4179 11.9465 24.3663 11.7799 24.2795 11.6312C24.1928 11.4824 24.0732 11.3555 23.9299 11.2601C23.8954 11.2259 23.8682 11.1851 23.8499 11.1401C23.9925 11.037 24.1582 10.9704 24.3325 10.946C24.5068 10.9216 24.6844 10.9401 24.8499 11.0001C25.0576 11.0125 25.2544 11.0974 25.406 11.2399C25.5576 11.3824 25.6546 11.5735 25.6799 11.7801C25.7565 12.0751 25.7332 12.3871 25.6138 12.6675C25.4944 12.9479 25.2857 13.1808 25.02 13.3301Z" fill="#EF7281"/>
<path d="M11.1498 13.3298C10.9729 13.4187 10.7776 13.4649 10.5797 13.4649C10.3818 13.4649 10.1868 13.4187 10.0099 13.3298C10.0099 13.2098 10.0798 13.1498 10.1398 13.0798C10.2618 12.9701 10.3594 12.8359 10.4261 12.6861C10.4929 12.5362 10.5275 12.3739 10.5275 12.2099C10.5275 12.0458 10.4929 11.8835 10.4261 11.7336C10.3594 11.5837 10.2618 11.4496 10.1398 11.3399C10.0798 11.2699 9.97989 11.2198 10.0099 11.0998L10.1698 10.9998C10.3653 10.9392 10.5726 10.9272 10.7738 10.9647C10.975 11.0023 11.1641 11.0883 11.3246 11.2153C11.4851 11.3424 11.6124 11.5066 11.6952 11.6938C11.778 11.881 11.8137 12.0856 11.7997 12.2898C11.7781 12.49 11.7133 12.6831 11.6097 12.8558C11.5061 13.0285 11.3663 13.1765 11.1998 13.2898L11.1498 13.3298Z" fill="#EF7281"/>
<path d="M16.98 13.4102C17.1304 13.5572 17.2707 13.7142 17.4 13.8801C17.5383 14.0991 17.6013 14.3572 17.5796 14.6152C17.558 14.8733 17.4527 15.1173 17.2798 15.3101L16.98 15.6401H16.92C16.6946 15.4832 16.5067 15.2783 16.3699 15.0401C16.2198 14.668 16.2198 14.2522 16.3699 13.8801C16.5268 13.671 16.7378 13.5085 16.98 13.4102Z" fill="#F48B98"/>
<path d="M23.8499 11.1396C24.0162 11.2217 24.1614 11.3412 24.2737 11.4888C24.3861 11.6363 24.4627 11.8079 24.4976 11.9901C24.5325 12.1723 24.5246 12.36 24.4746 12.5386C24.4247 12.7173 24.3342 12.8819 24.21 13.0197L23.94 13.3297H23.8699L23.7898 13.2596C23.6199 13.15 23.4776 13.0029 23.3736 12.8295C23.2695 12.6561 23.2067 12.4611 23.19 12.2596C23.1832 12.0297 23.2417 11.8026 23.3584 11.6044C23.4752 11.4063 23.6455 11.2451 23.8499 11.1396Z" fill="#F48B98"/>
<path d="M10.0298 11.0996C10.2177 11.2187 10.3727 11.3834 10.48 11.5783C10.5872 11.7732 10.6433 11.9922 10.6433 12.2147C10.6433 12.4372 10.5872 12.656 10.48 12.851C10.3727 13.0459 10.2177 13.2106 10.0298 13.3297C9.81745 13.2308 9.63786 13.0733 9.51196 12.8757C9.38606 12.6782 9.31909 12.4489 9.31909 12.2147C9.31909 11.9804 9.38606 11.751 9.51196 11.5535C9.63786 11.356 9.81745 11.1985 10.0298 11.0996Z" fill="#F48B98"/>
<path d="M25.6499 11.7802C25.4768 11.4283 25.1818 11.1511 24.8198 11.0001L25.1899 10.6201C25.5029 10.8345 25.7657 11.1143 25.96 11.4401L25.6499 11.7802Z" fill="#FCF5BF"/>
<path d="M18.72 29.0401C18.494 29.2851 18.1971 29.4534 17.8708 29.5216C17.5446 29.5897 17.2051 29.5542 16.8999 29.4201C16.8999 29.2801 16.96 29.2101 17.02 29.1201C17.1724 28.9501 17.2849 28.7483 17.3491 28.5293C17.4134 28.3102 17.4278 28.0796 17.3914 27.8543C17.3549 27.629 17.2684 27.4147 17.1384 27.2271C17.0084 27.0395 16.8381 26.8833 16.6399 26.7701C16.5871 26.7374 16.5427 26.6929 16.51 26.6401C16.7479 26.4302 17.0455 26.2999 17.3611 26.2677C17.6767 26.2354 17.9946 26.3027 18.27 26.4601L18.6199 26.6601C18.9474 26.9632 19.1417 27.3836 19.1604 27.8295C19.1791 28.2754 19.0209 28.7105 18.72 29.0401Z" fill="#F07281"/>
<path d="M16.5099 26.6299C16.7441 26.7258 16.9522 26.8759 17.1171 27.0679C17.282 27.2598 17.3989 27.4881 17.4584 27.7341C17.518 27.98 17.5183 28.2366 17.4594 28.4827C17.4005 28.7288 17.2842 28.9575 17.1198 29.1499L16.8998 29.4099C16.6313 29.3084 16.395 29.1365 16.2157 28.9123C16.0365 28.6881 15.9209 28.4197 15.881 28.1354C15.8411 27.8511 15.8783 27.5614 15.9889 27.2965C16.0996 27.0316 16.2797 26.8013 16.5099 26.6299Z" fill="#F48B98"/>
<path d="M23.8398 20.5C24.3398 20.14 24.8399 20.21 25.3699 20.73C25.5729 21.0583 25.6443 21.4512 25.5698 21.83C25.0998 22.59 24.5699 22.83 23.9299 22.47C23.8799 22.35 23.93 22.29 24.02 22.21C24.1418 22.1082 24.2373 21.9787 24.2991 21.8325C24.3609 21.6863 24.3872 21.5275 24.3755 21.3692C24.3638 21.2109 24.3144 21.0577 24.2317 20.9222C24.149 20.7867 24.0353 20.6728 23.8999 20.59L23.8398 20.5Z" fill="#F07281"/>
<path d="M10.0201 20.45C10.5901 20.14 11.0199 20.24 11.5799 20.83C11.6646 20.9974 11.7153 21.1799 11.7291 21.367C11.7428 21.5541 11.7193 21.742 11.66 21.92C11.16 22.62 10.6601 22.79 10.0201 22.45C10.0201 22.31 10.12 22.26 10.18 22.18C10.2737 22.087 10.348 21.9764 10.3987 21.8546C10.4495 21.7327 10.4757 21.602 10.4757 21.47C10.4757 21.338 10.4495 21.2073 10.3987 21.0854C10.348 20.9636 10.2737 20.853 10.18 20.76C10.15 20.63 9.99009 20.63 10.0201 20.45Z" fill="#F07281"/>
<path d="M10.02 20.4502C10.23 20.7002 10.5098 20.9102 10.5398 21.2702C10.572 21.4958 10.5404 21.726 10.4485 21.9345C10.3566 22.1431 10.2083 22.3217 10.02 22.4502C9.8349 22.3568 9.67925 22.2139 9.57056 22.0374C9.46186 21.8608 9.4043 21.6575 9.4043 21.4502C9.4043 21.2429 9.46186 21.0396 9.57056 20.863C9.67925 20.6865 9.8349 20.5436 10.02 20.4502Z" fill="#F48B98"/>
<path d="M23.8398 20.5C23.9876 20.571 24.1172 20.6749 24.2184 20.8039C24.3197 20.9329 24.3899 21.0834 24.4238 21.2438C24.4576 21.4043 24.4541 21.5703 24.4135 21.7291C24.373 21.888 24.2964 22.0354 24.1899 22.16C24.1099 22.27 24.0099 22.37 23.9299 22.47C23.7449 22.3849 23.587 22.2505 23.4733 22.0816C23.3596 21.9127 23.2946 21.7158 23.2853 21.5124C23.276 21.309 23.3228 21.107 23.4206 20.9284C23.5184 20.7498 23.6634 20.6017 23.8398 20.5Z" fill="#F48B98"/>
</g>
<defs>
<clipPath id="clip0_1907_4775">
<rect width="35.01" height="38.31" fill="white"/>
</clipPath>
</defs>
</svg>
