<svg width="39" height="39" viewBox="0 0 39 39" fill="none" xmlns="http://www.w3.org/2000/svg">
<g clip-path="url(#clip0_1907_4762)">
<path d="M13.1302 5.66163e-05H13.72C15.1193 0.129225 16.5112 0.32946 17.8902 0.600032C19.8902 0.970032 21.89 1.31004 23.95 1.67004L31.0401 2.92004C31.8301 3.06004 32.63 3.19003 33.42 3.35003C33.5015 3.35505 33.5812 3.37724 33.6536 3.41516C33.726 3.45307 33.7896 3.50588 33.8401 3.57006C33.935 3.82829 33.935 4.11182 33.8401 4.37005C33.3401 7.16005 32.8401 9.95005 32.3601 12.74C31.8801 15.53 31.3601 18.5201 30.8201 21.4001C30.6701 22.2701 30.5301 23.1401 30.3601 24.0101C30.3428 24.1736 30.2685 24.3258 30.1502 24.4401C29.7877 24.5222 29.4091 24.4979 29.0601 24.3701L19.8001 22.7501L12.43 21.4401L9.92997 21.0001C9.65356 20.9632 9.37331 21.027 9.14017 21.18C8.98017 21.2701 8.86019 21.4201 8.66019 21.4401C8.62542 21.4405 8.59105 21.4314 8.56107 21.4138C8.53109 21.3962 8.5065 21.3707 8.49003 21.3401C8.38972 21.0691 8.38972 20.7711 8.49003 20.5001C9.09003 17.1301 9.68006 13.7501 10.2701 10.3801C10.4701 9.26006 10.6302 8.14003 10.8902 7.04003C11.1502 5.94003 11.2402 4.99008 11.4102 3.96008C11.5802 2.93008 11.7202 2.12007 11.9002 1.20007V1.06005C11.9415 0.764113 12.0889 0.493341 12.3152 0.298274C12.5416 0.103208 12.8314 -0.00280919 13.1302 5.66163e-05Z" fill="#E54D3C"/>
<path d="M38.27 8.98005C38.0934 9.59557 37.9664 10.2243 37.8901 10.8601L36.6602 17.8601C36.2502 20.1901 35.8399 22.5301 35.4199 24.8601C35.1499 26.3601 34.8801 27.8601 34.6001 29.3601C34.4501 29.2701 34.46 29.12 34.45 28.97C34.363 27.781 33.8395 26.6663 32.98 25.8401C32.3778 25.2792 31.6348 24.8921 30.8301 24.72C30.5701 24.66 30.2701 24.72 30.1101 24.41C30.3301 23.19 30.56 21.9701 30.78 20.7501L31.8601 14.5701L33.3301 6.20008L33.78 3.63007C33.9 3.47007 34.06 3.50009 34.22 3.52009C35.0134 3.63596 35.7669 3.9432 36.415 4.41535C37.0632 4.8875 37.5864 5.51034 37.9399 6.23005C38.1298 6.71255 38.2413 7.22234 38.27 7.74006V7.81007C38.2107 8.00226 38.2107 8.2079 38.27 8.40009V8.98005Z" fill="#C03C2B"/>
<path d="M38.27 8.38007C38.214 8.29188 38.1843 8.18957 38.1843 8.08508C38.1843 7.9806 38.214 7.87823 38.27 7.79004V8.38007Z" fill="#C74632"/>
<path d="M3.6899 34.1398C3.4699 32.9198 3.23999 31.6998 3.02999 30.4798C2.36332 26.5998 1.6766 22.7165 0.969933 18.8298C0.669933 17.0898 0.340011 15.3498 0.0500108 13.6098C-0.122303 12.4571 0.143526 11.2818 0.795128 10.3155C1.44673 9.34919 2.43682 8.66214 3.57003 8.38983C5.49003 7.97983 7.44008 7.68984 9.37008 7.33984L11.03 7.0498C10.84 8.1598 10.6599 9.2598 10.4699 10.3598C9.84327 13.9465 9.21003 17.5365 8.57003 21.1298C8.57003 21.1998 8.57003 21.2598 8.57003 21.3198C8.57003 21.3798 8.64009 21.5298 8.63009 21.6498C8.52474 21.9708 8.54935 22.3203 8.69894 22.6232C8.84853 22.9262 9.11097 23.1584 9.42989 23.2698C9.51036 23.3051 9.57479 23.3694 9.61007 23.4498C9.61387 23.9567 9.5466 24.4616 9.41012 24.9498C9.31012 25.6598 9.18 26.3598 9.04 27.0598C9.03315 27.1482 9.00568 27.2338 8.95992 27.3098C8.87055 27.398 8.75471 27.4543 8.63009 27.4698C7.73009 27.6698 7.45994 27.9998 7.47994 28.9098C7.48848 29.0091 7.47121 29.1091 7.42989 29.1998C7.30027 29.3336 7.13275 29.4243 6.94991 29.4598C6.16397 29.7298 5.46807 30.2116 4.93868 30.8522C4.40929 31.4927 4.067 32.2671 3.94991 33.0898C3.93496 33.2996 3.93496 33.5101 3.94991 33.7198C3.83991 33.8798 3.8599 34.0498 3.6899 34.1398Z" fill="#364A5E"/>
<path d="M9.52991 23.4403C9.33652 23.4024 9.15377 23.3226 8.99451 23.2065C8.83525 23.0904 8.70334 22.9409 8.60803 22.7684C8.51273 22.5959 8.45625 22.4046 8.44275 22.208C8.42925 22.0114 8.45907 21.8142 8.52991 21.6303C8.57991 21.5503 8.5298 21.4403 8.6698 21.4003C8.83339 21.1797 9.05746 21.0113 9.31482 20.9155C9.57218 20.8196 9.85197 20.8004 10.12 20.8603L24.9298 23.4803L30.15 24.3803C31.0538 24.4847 31.9185 24.8073 32.6698 25.3203C33.3047 25.7728 33.8192 26.3741 34.1678 27.0714C34.5165 27.7687 34.6887 28.5409 34.6698 29.3203C34.6091 30.2826 34.2515 31.2023 33.6461 31.9528C33.0408 32.7032 32.2176 33.2474 31.2899 33.5103L31.0099 33.6003C30.7604 33.7428 30.4838 33.8316 30.1979 33.8609C29.912 33.8902 29.6232 33.8593 29.35 33.7703C27.75 33.5503 26.1699 33.2003 24.5699 32.9803C23.9817 32.7977 23.3743 32.6836 22.7599 32.6403C20.8499 32.2803 18.9399 31.9503 17.0299 31.6403C15.7299 31.4103 14.43 31.1603 13.13 30.9803C12.3879 30.7855 11.6325 30.6451 10.87 30.5603C10.13 30.4003 9.38002 30.3003 8.64002 30.1603C8.27464 30.1356 7.92561 29.9996 7.64002 29.7703C7.48002 29.6103 7.30001 29.4603 7.38001 29.2003C7.28995 28.9774 7.26016 28.7347 7.29358 28.4966C7.327 28.2586 7.42225 28.0335 7.57019 27.844C7.71814 27.6545 7.9135 27.5073 8.13635 27.4171C8.35921 27.3269 8.60188 27.297 8.83997 27.3303C9.11186 27.235 9.40792 27.235 9.67981 27.3303C13.6098 28.0603 17.5398 28.7203 21.4698 29.4203C24.1698 29.9003 26.8599 30.3603 29.5499 30.8503C29.8004 30.9067 30.0599 30.9103 30.3119 30.861C30.5639 30.8116 30.8029 30.7103 31.0136 30.5636C31.2242 30.4169 31.4021 30.2279 31.5358 30.0087C31.6694 29.7895 31.7559 29.5448 31.7899 29.2903C31.8424 28.873 31.7471 28.4505 31.5206 28.0961C31.2941 27.7418 30.9507 27.4778 30.5499 27.3503C29.8927 27.1733 29.2246 27.0397 28.5499 26.9503L22.41 25.8803C19.9 25.4403 17.41 24.9703 14.88 24.5403C13.29 24.2703 11.7 23.9603 10.11 23.7103C9.87999 23.6803 9.63991 23.6803 9.52991 23.4403Z" fill="#813035"/>
<path d="M14.5401 10.25L17.3702 10.75L27.2901 12.5L27.99 12.63C28.63 12.76 28.79 13 28.67 13.63C28.51 14.63 28.3302 15.57 28.1602 16.54C27.9902 17.51 27.7701 18.72 27.5701 19.81C27.5677 19.9133 27.541 20.0147 27.4922 20.1058C27.4434 20.197 27.3738 20.2754 27.2891 20.3348C27.2044 20.3941 27.107 20.4327 27.0047 20.4475C26.9024 20.4623 26.798 20.4529 26.7 20.42L13.5701 18.1H13.3501C12.7201 18 12.5102 17.72 12.6202 17.1C12.7902 16.1 12.9702 15.0999 13.1402 14.1599C13.3102 13.2199 13.53 11.98 13.73 10.89C13.7356 10.7926 13.7617 10.6975 13.8067 10.6109C13.8517 10.5244 13.9147 10.4483 13.9913 10.3879C14.0678 10.3274 14.1562 10.2838 14.2508 10.26C14.3454 10.2363 14.444 10.2329 14.5401 10.25Z" fill="#EDF0F1"/>
<path d="M29.7901 6.91009L26.9299 6.40014L16.0901 4.49011C15.7201 4.43011 15.35 4.3701 14.99 4.2901C14.63 4.2101 14.3001 3.91014 14.3601 3.52014C14.4201 3.13014 14.74 2.93012 15.21 3.00012L17.97 3.4801L29.2901 5.4801C29.5501 5.5301 29.8101 5.57012 30.0601 5.63012C30.2226 5.66175 30.3674 5.75334 30.4656 5.88671C30.5638 6.02009 30.6082 6.18547 30.5901 6.35009C30.556 6.52926 30.4531 6.68807 30.3037 6.79266C30.1543 6.89725 29.9701 6.93936 29.7901 6.91009Z" fill="#405D6C"/>
<path d="M27.4599 9.0503C27.4595 9.15078 27.4365 9.24991 27.3925 9.34028C27.3486 9.43065 27.285 9.50998 27.2063 9.5724C27.1275 9.63482 27.0357 9.67867 26.9377 9.70082C26.8397 9.72296 26.738 9.72283 26.6401 9.70033L20.24 8.57032L17.08 8.01033C16.58 7.92033 16.3401 7.63034 16.4101 7.21034C16.4801 6.79034 16.83 6.63034 17.31 6.71034L26.79 8.38032C27.23 8.46032 27.4599 8.7003 27.4599 9.0503Z" fill="#405D6C"/>
<path d="M8.6302 21.4003L8.49006 21.6303C8.46898 21.5231 8.49056 21.4119 8.55012 21.3203L8.6302 21.4003Z" fill="#BD473F"/>
<path d="M7.36013 29.1904C7.49816 29.4252 7.69155 29.6226 7.92336 29.7656C8.15518 29.9085 8.41822 29.9926 8.68996 30.0104C10.15 30.2704 11.6201 30.4804 13.0701 30.8104C12.9801 31.0104 12.7801 31.0304 12.6001 31.0604C11.0701 31.3404 9.54004 31.6105 8.02004 31.9005C7.70951 31.9465 7.41633 32.0725 7.16921 32.2661C6.92209 32.4596 6.72964 32.7142 6.61062 33.0046C6.4916 33.2951 6.45001 33.6116 6.49026 33.9229C6.5305 34.2342 6.65114 34.5297 6.84011 34.7804C7.0325 35.0546 7.29995 35.2675 7.61037 35.3935C7.9208 35.5194 8.26102 35.5531 8.59011 35.4904C11.4301 35.0104 14.2701 34.4904 17.1101 33.9904L23.46 32.8704C23.792 32.8286 24.128 32.8286 24.46 32.8704C25.63 32.9704 26.7699 33.2404 27.9199 33.4304C28.899 33.6812 29.9155 33.7524 30.9199 33.6404C30.8744 33.899 30.7467 34.1359 30.5557 34.3161C30.3647 34.4963 30.1209 34.61 29.8601 34.6404L21.8601 36.0604L11.8401 37.8104L8.98 38.3004C7.82844 38.4717 6.65468 38.2038 5.69143 37.5499C4.72818 36.896 4.0459 35.9039 3.78005 34.7704C3.78005 34.5804 3.71996 34.3804 3.68996 34.1804C3.6228 33.2488 3.82787 32.3177 4.28005 31.5004C4.59501 30.9149 5.03357 30.405 5.56545 30.0061C6.09733 29.6072 6.70985 29.3288 7.36013 29.1904Z" fill="#2D3F51"/>
<path d="M9.53003 23.4404L13.6799 24.1704L20.27 25.3405L29.4199 26.9504C29.7799 27.0104 30.13 27.0704 30.48 27.1604C30.9847 27.2968 31.416 27.6254 31.6814 28.0759C31.9468 28.5263 32.0254 29.0628 31.9001 29.5704C31.7553 30.063 31.4324 30.4842 30.9944 30.7521C30.5564 31.0201 30.0345 31.1157 29.53 31.0204C27.53 30.6404 25.4301 30.2904 23.3801 29.9304L17.2 28.8405C15.2 28.4805 13.1201 28.1304 11.0901 27.7604C10.3301 27.6204 9.56007 27.5304 8.82007 27.3204C9.04007 26.0804 9.24997 24.8504 9.46997 23.6104C9.48549 23.5523 9.50561 23.4954 9.53003 23.4404Z" fill="#F8E9AF"/>
<path d="M24.4901 32.8103L21.17 33.4203L16.3101 34.2703L10.97 35.2103L8.67 35.6103C8.18092 35.648 7.69507 35.5047 7.30477 35.2076C6.91446 34.9105 6.64713 34.4803 6.5533 33.9988C6.45947 33.5173 6.5458 33.0181 6.79598 32.5962C7.04615 32.1743 7.44278 31.859 7.91023 31.7103L13.0701 30.7803C14.2301 30.9203 15.3701 31.1603 16.5201 31.3603C19.0301 31.7903 21.5201 32.2403 24.0401 32.6803C24.1992 32.6817 24.3548 32.7266 24.4901 32.8103Z" fill="#F8E9AF"/>
</g>
<defs>
<clipPath id="clip0_1907_4762">
<rect width="38.27" height="38.31" fill="white"/>
</clipPath>
</defs>
</svg>
