<svg width="35" height="35" viewBox="0 0 35 35" fill="none" xmlns="http://www.w3.org/2000/svg">
<g clip-path="url(#clip0_1907_4355)">
<path d="M20.75 15.6498L20.99 15.8798C21.1404 16.0028 21.2649 16.1547 21.3559 16.3264C21.4469 16.4981 21.5027 16.6862 21.52 16.8798C21.7861 18.314 22.4991 19.6272 23.5571 20.6313C24.6151 21.6355 25.9638 22.279 27.4099 22.4698C27.5462 22.4823 27.6738 22.5425 27.77 22.6398C29.69 24.5698 31.63 26.4699 33.53 28.4199C34.1496 29.1041 34.4902 29.9958 34.4846 30.9188C34.479 31.8419 34.1278 32.7293 33.5 33.406C32.8722 34.0827 32.0135 34.4996 31.0935 34.5744C30.1735 34.6492 29.2588 34.3764 28.53 33.8099C28.06 33.3999 27.6299 32.9498 27.1899 32.5098L22.6399 27.9598C22.5 27.8227 22.4087 27.6436 22.3799 27.4498C22.2004 26.1376 21.6468 24.9049 20.7849 23.8993C19.923 22.8937 18.7894 22.1579 17.52 21.7798C17.4166 21.7261 17.2968 21.7128 17.1841 21.7424C17.0713 21.7719 16.9736 21.8423 16.9099 21.9399C16.7746 22.1151 16.606 22.2618 16.4138 22.3716C16.2216 22.4815 16.0097 22.5522 15.79 22.5798C14.5321 22.8675 13.3938 23.537 12.531 24.4965C11.6682 25.4559 11.123 26.6586 10.97 27.9399C10.971 28.089 10.9136 28.2326 10.81 28.3398C9.13004 30.0898 7.47004 31.8698 5.81004 33.5998C5.50406 33.913 5.13935 34.1629 4.7368 34.3352C4.33425 34.5075 3.90168 34.5988 3.46385 34.6039C3.02602 34.609 2.5915 34.5278 2.18504 34.3649C1.77859 34.2021 1.40816 33.9608 1.09495 33.6548C0.781751 33.3489 0.53187 32.9842 0.359602 32.5817C0.187334 32.1791 0.0961547 31.7465 0.0910475 31.3087C0.0859403 30.8709 0.166986 30.4364 0.329817 30.0299C0.492648 29.6234 0.734042 29.2531 1.04002 28.9399L6.97996 22.7198C8.97996 20.6598 10.9101 18.6098 12.8601 16.5398C13.0601 16.3298 13.1799 16.2598 13.3999 16.5398C13.641 16.7925 13.8946 17.0327 14.1599 17.2598C14.4547 17.4433 14.7238 17.6653 14.9599 17.9199C15.4699 18.4399 16.05 18.9199 16.55 19.4299C16.76 19.6499 16.8801 19.5999 17.0701 19.4299C18.1801 18.2799 19.2599 17.0898 20.3899 15.9598C20.4999 15.8098 20.5 15.6398 20.75 15.6498Z" fill="#F79421"/>
<path d="M14.7601 16.57C14.6701 16.47 14.5801 16.36 14.4801 16.26C11.3334 13.1066 8.18013 9.95 5.02013 6.79C4.50089 6.20025 3.85005 5.74114 3.12023 5.44998C2.71922 5.3075 2.3529 5.08135 2.04601 4.78652C1.73911 4.4917 1.49863 4.13499 1.3402 3.74002C0.960197 2.95002 0.510187 2.19998 0.0801872 1.44998C-0.0298128 1.25998 -0.0398128 1.15997 0.0801872 1.00997C0.393521 0.71664 0.693423 0.416677 0.98009 0.11001C1.00094 0.079446 1.02789 0.053505 1.05919 0.0337772C1.09049 0.0140494 1.1254 0.000951381 1.16197 -0.00467494C1.19855 -0.0103013 1.23605 -0.00834401 1.27184 0.00106237C1.30762 0.0104687 1.34115 0.0271303 1.37023 0.0500126L4.72008 1.93002C4.83474 2.0036 4.92246 2.11237 4.97008 2.24002C5.20008 2.72002 5.43001 3.19 5.65001 3.66C5.76639 3.92042 5.929 4.1576 6.12999 4.36001L16.13 14.36C16.23 14.47 16.3501 14.56 16.4601 14.66C16.5701 14.76 16.3902 14.89 16.3102 14.97C15.8702 15.43 15.4001 15.85 15.0001 16.35C15.0101 16.49 14.9201 16.62 14.7601 16.57Z" fill="#CCCCCC"/>
<path d="M21.2001 9.84015C21.0701 9.48015 20.7501 9.29017 20.5001 9.05017C20.2501 8.81017 20.2101 8.70017 20.4501 8.49017C20.8511 7.95426 21.2996 7.45559 21.7902 7.00018C22.6802 6.08018 23.5501 5.14016 24.4501 4.23016C24.9601 3.71016 25.4501 3.16016 25.9801 2.66016C26.0409 2.69781 26.0978 2.74136 26.15 2.79016C27.03 3.64016 27.8902 4.50014 28.7902 5.33014L30.4601 6.93018C30.6901 7.15018 30.8502 7.33017 30.5402 7.61017C30.4823 7.67199 30.4348 7.74291 30.4 7.82013C29.05 9.19013 27.77 10.6202 26.4 11.9802C26.2477 12.1086 26.1308 12.2738 26.0602 12.4601C25.7243 12.6125 25.4369 12.8548 25.2301 13.1602C25.1001 13.3602 24.9702 13.3702 24.7902 13.1602C24.6102 12.9502 24.19 12.5802 23.89 12.2902C23.7247 12.2366 23.5788 12.1358 23.4701 12.0002C22.7201 11.2802 21.9401 10.5901 21.2001 9.84015Z" fill="#CCCCCC"/>
<path d="M25.98 2.66004C25.9732 2.70969 25.9564 2.75744 25.9307 2.80042C25.9049 2.84339 25.8707 2.8807 25.8301 2.91004L23.97 4.85004L20.75 8.22003L20.45 8.49005C20.5667 7.92205 20.5657 7.3361 20.447 6.7685C20.3283 6.20089 20.0946 5.6637 19.76 5.19007C18.9352 3.87735 17.6342 2.93483 16.1299 2.56006C15.7572 2.46704 15.374 2.42333 14.99 2.43006C14.87 2.43006 14.7299 2.55004 14.6699 2.35004C15.8059 1.17596 17.3019 0.415643 18.9199 0.190066C20.1643 -0.0187863 21.4411 0.0817458 22.6375 0.482852C23.8338 0.883958 24.913 1.5733 25.78 2.49005L25.98 2.66004Z" fill="#B4B4B4"/>
<path d="M21.2 9.83984C21.57 9.94984 21.75 10.2898 22.01 10.5198C22.66 11.0898 23.2699 11.7099 23.8899 12.3099L21.6001 14.7098C21.3101 15.0198 21.03 15.3398 20.75 15.6498C19.75 16.5898 18.8499 17.6498 17.8999 18.6498C17.5599 18.9898 17.2199 19.3398 16.8999 19.6498C16.8099 19.7398 16.7499 19.7898 16.6299 19.6498L14.1101 17.2299C14.3475 17.0207 14.5681 16.7934 14.77 16.5499L16.5601 14.6799L19.97 11.1099L21.2 9.83984Z" fill="#B4B4B4"/>
<path d="M32.2601 9.52008C32.7601 9.10008 32.7601 9.10008 33.2601 9.52008C33.7601 9.94008 33.9301 10.1201 34.2601 10.4401C34.4015 10.5729 34.5141 10.7332 34.5912 10.9113C34.6682 11.0893 34.7079 11.2811 34.7079 11.4751C34.7079 11.669 34.6682 11.8609 34.5912 12.0389C34.5141 12.2169 34.4015 12.3773 34.2601 12.5101L32.9 13.9401L30.8502 16.0701C30.718 16.216 30.5565 16.3326 30.3766 16.4124C30.1966 16.4922 30.0019 16.5335 29.805 16.5335C29.6081 16.5335 29.4135 16.4922 29.2335 16.4124C29.0535 16.3326 28.8923 16.216 28.7601 16.0701C28.3201 15.6601 27.9101 15.2301 27.4701 14.8201C27.3801 14.7301 27.3301 14.6701 27.4701 14.5801C27.6101 14.4901 27.6902 14.2501 27.8302 14.1001C29.2902 12.6401 30.7301 11.0401 32.2601 9.52008Z" fill="#CCCCCC"/>
<path d="M32.2601 9.52045C32.2601 9.70045 32.1301 9.78043 32.0301 9.88043C31.1101 10.8304 30.1801 11.7505 29.2901 12.7205C28.8701 13.1805 28.4301 13.6205 28.0001 14.0605C27.9401 14.1205 27.9101 14.2505 27.7801 14.1705C27.875 13.9305 27.8973 13.6679 27.8446 13.4153C27.7918 13.1627 27.6663 12.931 27.4832 12.7491C27.3002 12.5671 27.0677 12.4428 26.8148 12.3915C26.5619 12.3402 26.2996 12.3642 26.0601 12.4605C26.0001 12.4605 25.9101 12.4605 25.9801 12.3505C26.0756 12.2086 26.1827 12.0748 26.3001 11.9504C27.2201 11.0104 28.1501 10.0805 29.0401 9.12049C29.4201 8.72049 29.78 8.32048 30.17 7.93048C30.23 7.93048 30.26 7.74044 30.4 7.82044C30.2945 8.0748 30.2702 8.35553 30.3299 8.62433C30.3897 8.89314 30.5307 9.13699 30.734 9.32276C30.9372 9.50853 31.1926 9.62717 31.4657 9.66254C31.7387 9.69791 32.0162 9.6483 32.2601 9.52045Z" fill="#B4B4B4"/>
<path d="M14.6698 2.34961C14.7498 2.45961 14.8799 2.40963 14.9899 2.42963C14.9478 2.46904 14.8958 2.49635 14.8395 2.50867C14.7832 2.52099 14.7245 2.51788 14.6698 2.49963C14.4998 2.45963 14.6098 2.40961 14.6698 2.34961Z" fill="#C4C3C3"/>
<path d="M31.8601 32.2902C31.6401 32.2902 31.5299 32.1302 31.4099 32.0002L22.3401 22.9402L19.0601 19.6602C18.9761 19.5869 18.9021 19.5028 18.8401 19.4102C18.7811 19.3442 18.7483 19.2588 18.7483 19.1702C18.7483 19.0817 18.7811 18.9962 18.8401 18.9302C18.9034 18.8697 18.9874 18.8359 19.075 18.8359C19.1625 18.8359 19.2468 18.8697 19.3101 18.9302C19.4024 18.9926 19.4864 19.0665 19.5601 19.1502L31.96 31.4102C32.0508 31.4937 32.1314 31.5877 32.2 31.6902C32.2471 31.748 32.2757 31.8186 32.282 31.8929C32.2883 31.9672 32.2719 32.0417 32.2351 32.1065C32.1984 32.1714 32.1429 32.2236 32.0759 32.2563C32.009 32.2891 31.9339 32.301 31.8601 32.2902Z" fill="white"/>
<path d="M14.5 20.0596C14.4883 20.1505 14.4583 20.2381 14.4119 20.3171C14.3655 20.3962 14.3037 20.465 14.23 20.5195C11.91 22.9595 9.57665 25.3929 7.22998 27.8195L3.36011 31.8795C3.28518 31.9644 3.20504 32.0447 3.12012 32.1196C3.08667 32.1531 3.04693 32.1798 3.00317 32.1979C2.95942 32.2161 2.91237 32.2254 2.86499 32.2254C2.81761 32.2254 2.77081 32.2161 2.72705 32.1979C2.68329 32.1798 2.64355 32.1531 2.61011 32.1196C2.54469 32.0508 2.50806 31.9595 2.50806 31.8646C2.50806 31.7696 2.54469 31.6783 2.61011 31.6096C2.77011 31.4196 2.95012 31.2396 3.12012 31.0596L13.71 19.9696C14.01 19.6596 14.29 19.6396 14.45 19.9696C14.4698 19.9977 14.4866 20.0279 14.5 20.0596Z" fill="white"/>
</g>
<defs>
<clipPath id="clip0_1907_4355">
<rect width="34.67" height="34.7" fill="white"/>
</clipPath>
</defs>
</svg>
