<svg width="35" height="35" viewBox="0 0 35 35" fill="none" xmlns="http://www.w3.org/2000/svg">
<g clip-path="url(#clip0_1907_4339)">
<path d="M20.3701 21.2999V18.5399C20.4403 18.4859 20.5213 18.4472 20.6074 18.4266C20.6936 18.4059 20.783 18.4036 20.8701 18.4199H30.03C30.2063 18.3985 30.3849 18.4335 30.54 18.5199C30.6361 18.664 30.6753 18.8386 30.6501 19.0099C30.6501 20.0965 30.6501 21.1866 30.6501 22.2799C30.6688 22.4313 30.6409 22.5848 30.5701 22.7199C30.4802 22.7814 30.374 22.8143 30.2651 22.8143C30.1563 22.8143 30.05 22.7814 29.9602 22.7199C29.8502 22.1999 29.49 22.1199 29.04 22.1799C28.9856 22.1887 28.9301 22.1861 28.8767 22.1723C28.8234 22.1585 28.7736 22.1339 28.7302 22.0999C28.647 21.9618 28.6118 21.8001 28.6301 21.6399C28.6301 21.0899 28.6301 21.0899 28.1201 20.8999C27.9201 20.3799 27.8701 20.3499 27.3701 20.3899C27.1501 20.3899 27.0601 20.5099 27.0601 20.7199C27.0601 20.9299 27.0601 21.2899 27.0601 21.5799C27.0601 22.1199 27.0002 22.1799 26.4702 22.1899H25.6501C25.4501 22.1899 25.29 22.1899 25.27 22.4899C25.27 22.9399 25.2701 23.0899 25.5601 23.1699C25.6317 23.1817 25.6999 23.209 25.76 23.2499C25.7877 23.2754 25.81 23.3064 25.8254 23.3408C25.8409 23.3751 25.8493 23.4122 25.8501 23.4499C25.8501 23.7099 26.02 23.7699 26.25 23.7699C26.4928 23.7315 26.7417 23.7591 26.9702 23.8499C27.0687 24.0371 27.1003 24.2522 27.0601 24.4599C27.0601 24.7599 27.0602 24.9899 27.4502 24.9999C27.4754 25.0023 27.4999 25.0098 27.5222 25.0218C27.5445 25.0338 27.5642 25.0501 27.5801 25.0699C27.7701 25.5599 27.8401 25.5999 28.3201 25.5499C28.5401 25.5499 28.6301 25.4299 28.6301 25.2199C28.6301 25.0099 28.6301 24.5699 28.6301 24.2199C28.6301 23.8699 28.7301 23.7299 29.1001 23.7399C29.5918 23.673 30.092 23.707 30.5701 23.8399C30.6253 23.9263 30.6532 24.0274 30.6501 24.1299C30.6501 24.9299 30.6501 25.7399 30.6501 26.5399C30.6545 26.6394 30.6264 26.7377 30.5701 26.8199C30.5394 26.8606 30.4979 26.8918 30.4502 26.9099C30.2681 26.9396 30.0823 26.9396 29.9001 26.9099H21.01C20.7892 26.9502 20.5613 26.9075 20.3701 26.7899V21.6299C20.3438 21.5789 20.3301 21.5223 20.3301 21.4649C20.3301 21.4075 20.3438 21.3509 20.3701 21.2999Z" fill="#7DCED3"/>
<path d="M8.99022 15.53C7.15654 14.8879 5.55989 13.7062 4.41014 12.14C3.05448 10.3473 2.34916 8.14675 2.41014 5.90002C2.41014 4.82002 2.41014 3.75005 2.41014 2.68005C2.41014 2.52005 2.41009 2.37005 2.61009 2.30005L8.99998 0C9.04427 0.0518864 9.07721 0.112637 9.09618 0.178162C9.11514 0.243687 9.11981 0.312486 9.11009 0.380005C9.11009 1.32 9.11009 2.26001 9.11009 3.20001C9.11933 3.32526 9.09143 3.45051 9.03001 3.56006C8.86001 3.73006 8.64016 3.68 8.43016 3.69C7.93016 3.69 7.92014 3.69003 7.91014 4.22003C7.90014 4.75003 7.91014 5.12006 7.91014 5.56006C7.91014 6.00006 7.81013 6.06002 7.40013 6.08002H5.94017C5.64017 6.08002 5.51 6.19 5.52 6.5C5.53 6.81 5.52 7.24006 5.52 7.62006C5.52 8.00006 5.51998 8.15002 5.99998 8.33002C6.08998 8.83002 6.43009 8.89005 6.86009 8.86005C7.17703 8.79348 7.50628 8.81775 7.81004 8.93005C7.92761 9.28068 7.96194 9.65385 7.91014 10.02C7.91014 10.56 7.91012 10.56 8.39012 10.72C8.41576 10.7386 8.43709 10.7626 8.45262 10.7902C8.46815 10.8178 8.47761 10.8484 8.48021 10.88C8.47563 10.9324 8.48249 10.9851 8.50047 11.0345C8.51845 11.0839 8.54704 11.1288 8.58421 11.166C8.62138 11.2031 8.66616 11.2317 8.71556 11.2497C8.76496 11.2677 8.81773 11.2746 8.8701 11.27C8.90718 11.2753 8.94271 11.2888 8.97386 11.3096C9.00502 11.3303 9.03093 11.3578 9.05003 11.39C9.10489 11.5298 9.12552 11.6807 9.11009 11.83C9.11009 12.9 9.11009 13.96 9.11009 15.03C9.13601 15.2059 9.09315 15.385 8.99022 15.53Z" fill="#7DCED3"/>
<path d="M8.99023 15.53V11.35C9.27023 11.15 9.59014 11.2501 9.89014 11.2401C10.7301 11.2401 10.6602 11.3 10.6702 10.48C10.6702 10.09 10.6702 9.71001 10.6702 9.32001C10.6702 8.93001 10.7701 8.86004 11.1501 8.85004C11.5301 8.84004 12.1501 8.85004 12.6401 8.85004C12.9401 8.85004 13.0701 8.73005 13.0601 8.43005C13.0501 8.13005 13.0601 7.68006 13.0601 7.31006C13.0601 6.77006 13.0601 6.77004 12.5801 6.60004C12.4901 6.10004 12.1502 6.04001 11.7202 6.07001C11.4023 6.13339 11.0728 6.1057 10.77 5.99005C10.62 5.78005 10.6802 5.54006 10.6702 5.31006C10.6602 5.08006 10.6702 5.03002 10.6702 4.90002C10.6702 4.38002 10.6702 4.38001 10.1802 4.20001C10.1283 4.14556 10.0964 4.07498 10.0901 4C10.0901 3.74 9.92019 3.68005 9.69019 3.68005C9.46019 3.68005 9.19023 3.75006 8.99023 3.56006V0L12.6101 1.28003C13.5101 1.61003 14.4101 1.95003 15.3101 2.28003C15.3939 2.29915 15.4678 2.34843 15.5176 2.41852C15.5674 2.4886 15.5896 2.57459 15.5801 2.66003C15.5801 4.02003 15.5801 5.38004 15.5801 6.73004C15.4704 8.68282 14.7864 10.5597 13.614 12.1252C12.4416 13.6908 10.8332 14.8752 8.99023 15.53Z" fill="#3E9EB0"/>
<path d="M30.4602 26.9296H30.54C30.66 26.839 30.8112 26.7994 30.9602 26.8196H34.3C34.373 26.8081 34.4477 26.8129 34.5186 26.8336C34.5894 26.8544 34.655 26.8905 34.7102 26.9396V31.1296C34.6415 31.1828 34.5622 31.221 34.4778 31.2417C34.3934 31.2624 34.3057 31.265 34.2202 31.2496H20.8701C20.783 31.2659 20.6936 31.2636 20.6074 31.2429C20.5213 31.2223 20.4403 31.1836 20.3701 31.1296V28.7296C20.5531 28.6193 20.7703 28.5802 20.9802 28.6196H27.9802C28.4637 28.6599 28.9474 28.5449 29.3611 28.2913C29.7747 28.0377 30.0966 27.6588 30.28 27.2096C30.3177 27.1037 30.3794 27.0079 30.4602 26.9296Z" fill="#F6B021"/>
<path d="M30.53 18.5504H20.3701C20.3701 17.8904 20.3701 17.2304 20.3701 16.5504C20.3927 15.968 20.6354 15.4159 21.0493 15.0057C21.4633 14.5955 22.0176 14.3576 22.6001 14.3403H23.9402C24.0665 14.2551 24.2184 14.2163 24.3701 14.2304C25.6201 14.2304 26.8801 14.2304 28.1301 14.2304C28.8001 14.2304 29.4801 14.2304 30.1301 14.2304C30.2662 14.2206 30.402 14.2519 30.52 14.3203C30.6006 14.4183 30.6402 14.5439 30.6301 14.6704C30.6301 15.8704 30.6301 17.0803 30.6301 18.2803C30.635 18.3302 30.635 18.3805 30.6301 18.4304C30.6093 18.4794 30.5745 18.5211 30.53 18.5504Z" fill="#F7CE27"/>
<path d="M34.7102 26.9202H30.54V23.9202C30.3805 23.5326 30.3805 23.0977 30.54 22.7102C30.54 21.3202 30.54 19.9302 30.54 18.5402C30.6768 18.4446 30.845 18.4052 31.01 18.4302H34.26C34.3392 18.4174 34.4205 18.4214 34.498 18.4421C34.5756 18.4628 34.6478 18.4996 34.7102 18.5502V26.9202Z" fill="#0B6A92"/>
<path d="M20.3702 31.1104H34.7103C34.725 31.4169 34.678 31.7232 34.5721 32.0112C34.4661 32.2992 34.3035 32.563 34.0936 32.7869C33.8837 33.0107 33.6307 33.1902 33.3502 33.3145C33.0696 33.4387 32.7671 33.5053 32.4603 33.5103C29.1803 33.5103 25.9002 33.5103 22.6302 33.5103C22.3233 33.5039 22.0208 33.4365 21.7403 33.3118C21.4598 33.1872 21.2071 33.0079 20.9966 32.7845C20.7862 32.561 20.6225 32.2979 20.515 32.0104C20.4074 31.723 20.3582 31.417 20.3702 31.1104Z" fill="#F79424"/>
<path d="M12.25 22.3498C13.25 21.3498 14.2001 20.3498 15.1801 19.4198C15.6677 18.9309 16.309 18.6251 16.9958 18.554C17.6826 18.483 18.3729 18.651 18.9502 19.0298C19.2267 19.5901 19.3213 20.2228 19.2209 20.8395C19.1205 21.4562 18.8301 22.0261 18.3901 22.4698C17.3901 23.4698 16.3901 24.4698 15.3901 25.4698C15.3579 25.4821 15.3222 25.4821 15.29 25.4698C15.1748 25.4198 15.0725 25.3446 14.9902 25.2498C14.1502 24.4098 13.3102 23.5698 12.4802 22.7198C12.3702 22.6698 12.19 22.5698 12.25 22.3498Z" fill="#37B65F"/>
<path d="M13.5499 29.5404C13.7199 29.8304 13.8999 30.1104 14.0499 30.4004C14.2838 30.8213 14.3947 31.2995 14.37 31.7804C14.0753 32.1884 13.6801 32.5133 13.2228 32.7236C12.7655 32.9338 12.2615 33.0223 11.7599 32.9804C11.6968 32.9702 11.638 32.9425 11.59 32.9004C11.59 32.7804 11.6701 32.7204 11.7201 32.6404C11.7905 32.5684 11.8369 32.4765 11.8532 32.3771C11.8694 32.2778 11.8546 32.1758 11.8109 32.0851C11.7672 31.9945 11.6966 31.9195 11.6088 31.8703C11.5209 31.8211 11.4201 31.8002 11.32 31.8104C10.69 31.8104 10.0601 31.8104 9.43006 31.8104C9.28023 31.8004 9.12994 31.8004 8.98011 31.8104C8.88995 31.8136 8.8022 31.8416 8.72694 31.8913C8.65167 31.941 8.59162 32.0106 8.55335 32.0923C8.51509 32.174 8.50016 32.2646 8.51014 32.3543C8.52012 32.444 8.55471 32.5291 8.60999 32.6004C8.66999 32.7004 8.8501 32.7804 8.7201 32.9404C8.22509 33.0403 7.71511 33.0403 7.2201 32.9404C7.17968 32.9136 7.14822 32.8753 7.13001 32.8304C7.07529 32.6767 7.05475 32.5129 7.06995 32.3504V29.2304C7.04127 29.0462 7.08046 28.8579 7.18006 28.7004H8.63001C8.68454 28.6576 8.74744 28.6266 8.81458 28.6094C8.88172 28.5922 8.95152 28.5891 9.01991 28.6004C9.84991 28.6004 10.6799 28.6004 11.5099 28.6004C11.8965 28.6072 12.2776 28.6942 12.6288 28.856C12.98 29.0178 13.2936 29.2509 13.5499 29.5404Z" fill="#E5E5E5"/>
<path d="M12.25 22.3496C12.401 22.577 12.5866 22.7795 12.8 22.9496L15.02 25.1796C15.1296 25.2614 15.2186 25.3675 15.28 25.4896C14.5579 26.519 13.6019 27.3621 12.4902 27.9496C11.822 28.1957 11.089 28.2027 10.4163 27.9693C9.74349 27.7359 9.17233 27.2766 8.80005 26.6696C8.72005 26.5396 8.69012 26.3896 8.62012 26.2596C8.83898 25.8299 9.12996 25.441 9.48022 25.1096C10.3702 24.1996 11.37 23.2696 12.25 22.3496Z" fill="#B4E2E9"/>
<path d="M7.18018 28.7199V32.8998C7.15177 32.9327 7.11622 32.9587 7.07642 32.976C7.03661 32.9933 6.99357 33.0014 6.9502 32.9998C6.33788 33.0498 5.72242 33.0498 5.11011 32.9998C4.91011 32.8998 5.04011 32.7998 5.11011 32.7098C5.19438 32.6354 5.25104 32.5346 5.271 32.424C5.29096 32.3133 5.27316 32.1991 5.22021 32.0999C5.16332 32.0028 5.07848 31.9251 4.97681 31.877C4.87514 31.8288 4.76128 31.8124 4.65015 31.8298H3.72021C3.60826 31.8134 3.49379 31.8326 3.39331 31.8846C3.29283 31.9366 3.21134 32.019 3.16016 32.1199C3.11296 32.2219 3.1001 32.3365 3.12354 32.4465C3.14697 32.5565 3.20533 32.6559 3.29004 32.7299C3.32031 32.7516 3.34519 32.7801 3.36255 32.8131C3.37991 32.846 3.38936 32.8826 3.39014 32.9199C3.34757 32.9444 3.29915 32.9573 3.25 32.9573C3.20085 32.9573 3.15267 32.9444 3.11011 32.9199C2.44556 32.8063 1.83547 32.4811 1.37061 31.9928C0.905737 31.5045 0.610855 30.8792 0.530029 30.2098C0.530029 30.1298 0.530029 30.0398 0.530029 29.9598C0.807789 29.5534 1.18328 29.2232 1.62183 28.9996C2.06037 28.7759 2.54795 28.666 3.04004 28.6799L7.18018 28.7199Z" fill="#F04D2B"/>
<path d="M30.4602 26.9299C30.3322 27.4609 30.0217 27.9299 29.583 28.2552C29.1443 28.5806 28.6053 28.7415 28.0601 28.7099H20.3701V26.9199H30.4602V26.9299Z" fill="#F7CE27"/>
<path d="M34.7102 18.5403H30.54C30.54 17.1503 30.54 15.7504 30.54 14.3604C30.626 14.2896 30.7339 14.251 30.8452 14.251C30.9565 14.251 31.0642 14.2896 31.1501 14.3604C31.7849 14.3254 32.4214 14.3555 33.05 14.4503C33.532 14.5846 33.9574 14.8716 34.2622 15.2684C34.567 15.6651 34.7348 16.1501 34.7402 16.6503C34.7302 17.2703 34.7202 17.9003 34.7102 18.5403Z" fill="#F6B021"/>
<path d="M31.1401 14.3404H28.1401C28.0869 14.2717 28.0487 14.1926 28.0281 14.1082C28.0074 14.0238 28.0046 13.936 28.02 13.8504C28.02 13.4004 28.02 12.9504 28.02 12.5004C28.02 12.0504 28.0201 12.0704 27.5901 12.0704H24.53C24.3317 12.1055 24.1276 12.0625 23.9602 11.9504V10.7804C24.1402 10.6104 24.3601 10.6804 24.5701 10.6704H26.9502C27.3502 10.6704 27.7501 10.6704 28.1501 10.6704C28.5501 10.6704 28.9401 10.6704 29.3401 10.6704C29.7401 10.6704 30.14 10.6704 30.53 10.6704C30.74 10.6704 30.9601 10.6104 31.1401 10.7804V14.3404Z" fill="#F79424"/>
<path d="M0.540105 29.9902C0.642559 30.4215 0.772968 30.8457 0.930242 31.2602C1.16506 31.7208 1.51485 32.113 1.94587 32.3986C2.37688 32.6842 2.87446 32.8535 3.3902 32.8902C3.91494 32.7302 4.47533 32.7302 5.00007 32.8902H7.20026C7.39039 33.4717 7.39039 34.0987 7.20026 34.6802C5.71026 34.6802 4.20028 34.6802 2.72028 34.6802C2.03133 34.6149 1.38618 34.3134 0.894109 33.8268C0.402038 33.3402 0.0931184 32.6984 0.0200856 32.0102C-0.0537754 31.2963 0.130737 30.5797 0.540105 29.9902Z" fill="#CE3827"/>
<path d="M29.3702 10.7802H28.1903C28.1445 10.727 28.1101 10.6648 28.0894 10.5977C28.0688 10.5306 28.0622 10.46 28.0702 10.3902C28.0702 9.4502 28.0702 8.50023 28.0702 7.55023C28.0635 7.48747 28.0698 7.42398 28.0887 7.36377C28.1076 7.30356 28.1389 7.24787 28.1803 7.2002H32.1002C32.3202 7.2002 32.3802 7.27022 32.3802 7.48022C32.3802 8.48689 32.3802 9.48689 32.3802 10.4802C32.3802 10.7202 32.2902 10.7802 32.0702 10.7702C31.8502 10.7602 31.4703 10.7702 31.1703 10.7702H30.5802C30.3902 10.5402 30.4803 10.2602 30.4703 10.0102C30.4603 9.86036 30.4603 9.71008 30.4703 9.56024C30.4703 9.12024 30.4701 9.09021 30.0101 9.09021C29.5501 9.09021 29.5201 9.09022 29.5001 9.60022C29.4801 10.1102 29.5602 10.3802 29.3702 10.7802Z" fill="#F9E38C"/>
<path d="M15.3701 25.4903C15.3701 25.3203 15.5101 25.2403 15.6201 25.1403L18.2002 22.5503C18.6392 22.1521 18.9503 21.6328 19.0945 21.058C19.2386 20.4831 19.2091 19.8784 19.01 19.3203C18.9859 19.2251 18.9859 19.1254 19.01 19.0303C19.397 19.2766 19.7208 19.6102 19.9553 20.0045C20.1898 20.3988 20.3285 20.8427 20.3601 21.3003C20.4 21.451 20.4 21.6095 20.3601 21.7603C20.3202 22.4481 20.0324 23.0982 19.55 23.5903C18.55 24.5903 17.5501 25.5903 16.6001 26.5903C16.5615 26.6215 16.5175 26.6452 16.4702 26.6603C15.9905 26.3945 15.6058 25.9854 15.3701 25.4903Z" fill="#16994A"/>
<path d="M7.18018 34.6902V32.9003H8.74023C8.78758 32.8584 8.84302 32.8269 8.90332 32.808C8.96363 32.789 9.02729 32.783 9.09009 32.7903H11.2402C11.3015 32.7832 11.3635 32.7893 11.4221 32.8083C11.4808 32.8273 11.5346 32.8586 11.5801 32.9003C12.1004 32.9454 12.624 32.8676 13.1086 32.673C13.5933 32.4785 14.0255 32.1727 14.3701 31.7803C14.3474 32.5466 14.032 33.2751 13.489 33.8163C12.946 34.3574 12.2166 34.6701 11.4502 34.6902H7.18018Z" fill="#B7B7B8"/>
<path d="M15.3701 25.4905L16.4302 26.6205L14.03 29.0605L13.5701 29.5405C13.5341 29.5507 13.4962 29.5507 13.4602 29.5405C13.0908 29.229 12.6616 28.9965 12.199 28.8572C11.7363 28.7179 11.2499 28.6748 10.77 28.7305C10.07 28.7305 9.36015 28.7305 8.65015 28.7305C8.48922 28.3421 8.40625 27.9258 8.40625 27.5054C8.40625 27.0851 8.48922 26.6688 8.65015 26.2805C8.92015 26.5405 9.06008 26.8905 9.33008 27.1505C9.60914 27.4331 9.9416 27.6576 10.3081 27.8108C10.6746 27.964 11.0679 28.0429 11.4651 28.0429C11.8623 28.0429 12.2556 27.964 12.6221 27.8108C12.9886 27.6576 13.321 27.4331 13.6001 27.1505L15.3101 25.4805L15.3701 25.4905Z" fill="#4ABDCD"/>
<path d="M23.9602 11.9502H27.77C28.07 11.9502 28.1601 12.0302 28.1501 12.3302C28.1501 13.0002 28.1501 13.6702 28.1501 14.3302H23.9402C23.9502 13.5502 23.9602 12.7802 23.9602 11.9502Z" fill="#F6B021"/>
<path d="M24.54 10.7797H23.02C22.83 10.7797 22.75 10.7297 22.75 10.5297C22.75 9.52966 22.75 8.45968 22.75 7.41968C22.75 7.20968 22.85 7.17969 23.02 7.17969H24.5601C24.635 7.28069 24.6738 7.40395 24.6702 7.52966V10.3697C24.6766 10.4432 24.6683 10.5173 24.646 10.5876C24.6237 10.658 24.5877 10.7233 24.54 10.7797Z" fill="#F9E38C"/>
<path d="M28.1401 7.16992V10.7799H26.9301C26.8495 10.6819 26.8099 10.5564 26.82 10.4299C26.82 9.4766 26.82 8.52656 26.82 7.5799C26.8123 7.51168 26.8191 7.4426 26.8398 7.37714C26.8604 7.31167 26.8946 7.25129 26.9401 7.19989L28.1401 7.16992Z" fill="#F7CE27"/>
<path d="M26.9501 7.16992V10.7799H25.7599C25.6714 10.6701 25.6285 10.5305 25.64 10.3899C25.64 9.44989 25.64 8.49993 25.64 7.54993C25.632 7.42365 25.6711 7.29887 25.7499 7.19989L26.9501 7.16992Z" fill="#F9E38C"/>
<path d="M25.7402 7.16992V10.7799H24.53V7.19989L25.7402 7.16992Z" fill="#F7CE27"/>
<path d="M20.3 21.7803V21.3203H20.3501V21.7803H20.3Z" fill="#B9DECC"/>
<path d="M25.75 23.34C25.15 23.34 25.1501 23.34 25.1501 22.71C25.1552 22.6234 25.1552 22.5366 25.1501 22.45C25.1501 22.21 25.1502 22.1101 25.4602 22.1201C25.7702 22.1301 26.2802 22.1201 26.6902 22.1201C26.8802 22.1201 26.9502 22.06 26.9502 21.86C26.9502 21.45 26.9502 21.04 26.9502 20.63C26.9502 20.38 27.03 20.29 27.27 20.32H27.53C28.13 20.32 28.1302 20.32 28.1602 20.92C28.2048 20.9794 28.2367 21.0474 28.2539 21.1196C28.2711 21.1919 28.2731 21.2669 28.26 21.34C28.21 21.74 28.26 22.04 28.75 22.11C29.0198 22.125 29.2903 22.125 29.5601 22.11C29.8701 22.11 30.0002 22.19 29.9502 22.5C29.9452 22.5732 29.9452 22.6468 29.9502 22.72C30.1502 23.2 30.03 23.41 29.53 23.43H28.6001C28.3601 23.43 28.26 23.54 28.26 23.77C28.26 24 28.26 24.39 28.26 24.7C28.26 25.2 28.03 25.3201 27.55 25.1201C26.94 25.1201 26.9502 25.12 26.9402 24.47C26.9402 24.28 26.9402 24.1 26.9402 23.91C26.8802 23.45 26.5802 23.37 26.1802 23.42C26.1069 23.4381 26.0307 23.4402 25.9565 23.4264C25.8824 23.4127 25.8119 23.3832 25.75 23.34Z" fill="white"/>
<path d="M27.5501 25.1297C28.1401 25.1297 28.1402 25.1297 28.1402 24.5097C28.1402 24.1997 28.1402 23.8897 28.1402 23.5797C28.1402 23.2697 28.2002 23.3197 28.3902 23.3197C28.7702 23.3197 29.14 23.3197 29.51 23.3197C29.88 23.3197 30.0002 23.2597 29.9402 22.9097C29.9352 22.8465 29.9352 22.783 29.9402 22.7197H30.51V23.9297C30.03 23.9297 29.5101 23.9297 29.0601 23.9297C28.7901 23.9297 28.7202 24.0197 28.7302 24.2797C28.7402 24.5397 28.7302 25.0697 28.7302 25.4697C28.7302 25.6597 28.6702 25.7497 28.4702 25.7297C28.2702 25.7097 28.2201 25.7297 28.1001 25.7297C27.5001 25.7097 27.5401 25.8297 27.5501 25.1297Z" fill="#4ABDCD"/>
<path d="M28.7402 22.1197C28.1802 22.1197 28.1802 22.1197 28.1802 21.5997C28.1802 21.3797 28.1802 21.1597 28.1802 20.9297H28.4402C28.7002 20.9297 28.79 21.0097 28.77 21.2697C28.75 21.5297 28.7402 21.8297 28.7402 22.1197Z" fill="#4ABDCD"/>
<path d="M25.7499 23.3398H26.38C26.96 23.3398 26.9601 23.3399 26.9301 23.9299H26.37C25.7 23.9099 25.7399 24.0398 25.7499 23.3398Z" fill="#4ABDCD"/>
<path d="M10.78 5.95008C11.24 5.95008 11.7002 5.95008 12.1602 5.95008C12.6202 5.95008 12.6401 6.03012 12.5801 6.37012C12.5754 6.43337 12.5754 6.49688 12.5801 6.56012C12.7248 7.09848 12.7454 7.66264 12.6401 8.21009C12.6401 8.44009 12.3902 8.46009 12.2002 8.46009C11.7102 8.46009 11.2002 8.46009 10.7402 8.46009C10.2802 8.46009 10.3 8.4601 10.29 8.9101C10.28 9.3601 10.29 9.91008 10.29 10.3301C10.29 10.7501 10.18 10.8501 9.78003 10.8501C9.31142 10.9125 8.83511 10.8784 8.38013 10.7501C7.78013 10.7501 7.78003 10.7501 7.78003 10.1001C7.78003 9.7101 7.78003 9.32007 7.78003 8.94007C7.78003 8.56007 7.4 8.42007 7 8.44007C6.66529 8.5127 6.31637 8.48134 6 8.3501C5.4 8.3501 5.40015 8.35008 5.40015 7.70008C5.40015 7.05008 5.40015 6.70009 5.40015 6.21009C5.40015 6.00009 5.46017 5.94007 5.67017 5.94007C6.29017 5.94007 6.91003 5.94007 7.53003 5.94007C7.75003 5.94007 7.81005 5.88011 7.80005 5.67011C7.80005 5.05011 7.80005 4.43012 7.80005 3.81012C7.80005 3.59012 7.86007 3.5301 8.07007 3.5401C8.28007 3.5501 8.70001 3.5401 9.01001 3.5401C9.32001 3.5401 9.56008 3.5401 9.83008 3.5401C10.1001 3.5401 10.2602 3.61011 10.2102 3.92011C10.1954 3.99269 10.1954 4.06749 10.2102 4.14008C10.3339 4.45846 10.3615 4.80608 10.29 5.14008C10.27 5.58008 10.37 5.88008 10.78 5.95008Z" fill="#F04D2B"/>
<path d="M8.3701 10.7801C8.8801 10.7801 9.37013 10.7801 9.90013 10.7801C10.1101 10.7801 10.1702 10.7201 10.1702 10.5101C10.1702 9.89007 10.1702 9.27009 10.1702 8.65009C10.1702 8.43009 10.2302 8.37007 10.4402 8.38007C11.0602 8.38007 11.68 8.38007 12.3 8.38007C12.52 8.38007 12.5801 8.32011 12.5701 8.11011C12.5701 7.60011 12.5701 7.11008 12.5701 6.58008H12.8701C13.1001 6.58008 13.1601 6.67008 13.1601 6.89008C13.1601 7.47008 13.1601 8.06008 13.1601 8.64008C13.1601 8.89008 13.1001 8.9901 12.8301 8.9801C12.2401 8.9801 11.6601 8.9801 11.0801 8.9801C10.8301 8.9801 10.75 9.06011 10.76 9.30011C10.76 9.88011 10.76 10.4501 10.76 11.0201C10.76 11.3301 10.6601 11.4001 10.3701 11.3901C9.9001 11.3901 9.43019 11.3901 8.96019 11.3901C8.31019 11.3401 8.3701 11.4501 8.3701 10.7801Z" fill="#4ABDCD"/>
<path d="M5.9902 8.37012C6.4702 8.37012 6.99012 8.37012 7.41012 8.37012C7.72012 8.37012 7.85001 8.44007 7.79001 8.76007C7.7848 8.83331 7.7848 8.90686 7.79001 8.9801C7.33001 8.9801 6.87012 8.9801 6.41012 8.9801C5.95012 8.9801 5.94997 8.90007 5.99997 8.57007C6.00217 8.50324 5.99906 8.43639 5.9902 8.37012Z" fill="#4ABDCD"/>
<path d="M10.78 5.94989C10.18 5.94989 10.1802 5.9499 10.1802 5.3999C10.1802 4.9899 10.1802 4.57992 10.1802 4.16992H10.4402C10.7002 4.16992 10.78 4.24989 10.77 4.50989C10.77 4.98989 10.78 5.46989 10.78 5.94989Z" fill="#4ABDCD"/>
<path d="M16.8101 22.9898C16.6922 22.9955 16.5753 22.9663 16.4739 22.9058C16.3725 22.8453 16.2913 22.7563 16.2403 22.6498C16.1831 22.5595 16.157 22.4529 16.1661 22.3464C16.1751 22.2399 16.2185 22.1393 16.2901 22.0598C16.6023 21.706 16.9362 21.372 17.2901 21.0598C17.3958 20.9794 17.526 20.9377 17.6587 20.9417C17.7915 20.9457 17.9189 20.9951 18.0196 21.0817C18.1203 21.1684 18.1882 21.287 18.212 21.4177C18.2357 21.5484 18.214 21.6833 18.1502 21.7998C17.8404 22.2063 17.4808 22.5725 17.0801 22.8898C16.9901 22.9698 16.8701 22.9698 16.8101 22.9898Z" fill="#FEFFFE"/>
<path d="M18.9904 20.1805C18.9852 20.3371 18.9199 20.4856 18.8082 20.5955C18.6965 20.7053 18.5469 20.768 18.3903 20.7704C18.3124 20.7705 18.2352 20.7549 18.1634 20.7245C18.0917 20.6941 18.0269 20.6496 17.9728 20.5936C17.9186 20.5376 17.8764 20.4713 17.8485 20.3986C17.8206 20.3259 17.8075 20.2483 17.8102 20.1705C17.8074 20.0922 17.8208 20.0143 17.8495 19.9414C17.8781 19.8686 17.9216 19.8024 17.9769 19.7471C18.0323 19.6917 18.0984 19.6483 18.1713 19.6197C18.2441 19.591 18.322 19.5776 18.4003 19.5804C18.4786 19.5804 18.556 19.596 18.6283 19.6263C18.7005 19.6566 18.766 19.7009 18.8209 19.7568C18.8758 19.8126 18.9191 19.8789 18.9481 19.9516C18.9772 20.0243 18.9917 20.1022 18.9904 20.1805Z" fill="#FCFEFC"/>
<path d="M11.6001 32.9002H8.76003C8.61762 32.8345 8.50435 32.7187 8.44167 32.5749C8.37899 32.4311 8.37142 32.2693 8.42019 32.1202C8.53019 31.7602 8.82018 31.7002 9.16018 31.7002H11.2102C11.5402 31.7002 11.8402 31.7602 11.9502 32.1202C11.996 32.2706 11.9858 32.4325 11.9214 32.5759C11.8571 32.7193 11.7429 32.8345 11.6001 32.9002Z" fill="white"/>
<path d="M4.99989 32.89H3.37001C3.22547 32.8318 3.10811 32.7212 3.0414 32.5804C2.97469 32.4396 2.96342 32.2788 3.0099 32.13C3.1199 31.77 3.40989 31.69 3.74989 31.7C4.03287 31.7201 4.31701 31.7201 4.59999 31.7C4.94999 31.7 5.22998 31.77 5.33998 32.13C5.39013 32.2762 5.38283 32.436 5.31972 32.577C5.25661 32.7181 5.1423 32.83 4.99989 32.89Z" fill="#FFFEFE"/>
<path d="M2.3702 31.1104C2.48929 31.1104 2.6058 31.1458 2.70467 31.2122C2.80355 31.2786 2.88027 31.3729 2.92538 31.4831C2.97048 31.5933 2.98182 31.7145 2.95785 31.8311C2.93387 31.9478 2.87577 32.0546 2.79085 32.1381C2.70594 32.2216 2.59808 32.278 2.48104 32.3C2.364 32.322 2.24307 32.3087 2.13363 32.2617C2.02418 32.2148 1.93125 32.1364 1.86654 32.0364C1.80183 31.9364 1.76812 31.8194 1.7701 31.7003C1.77273 31.5429 1.83731 31.3929 1.94955 31.2825C2.06178 31.1722 2.21279 31.1103 2.3702 31.1104Z" fill="#FFFCFB"/>
<path d="M29.3701 10.7805C29.3701 10.2805 29.3701 9.78046 29.3701 9.28046C29.3701 9.05046 29.4602 8.99047 29.6802 8.98047C30.5802 8.98047 30.5801 8.98045 30.5801 9.84045V10.7805H29.3701Z" fill="#F7CE27"/>
</g>
<defs>
<clipPath id="clip0_1907_4339">
<rect width="34.73" height="34.71" fill="white"/>
</clipPath>
</defs>
</svg>
