<svg width="19" height="18" viewBox="0 0 19 18" fill="none" xmlns="http://www.w3.org/2000/svg">
<path d="M8.40442 0H9.59937C9.81291 0.0268538 10.0265 0.0501859 10.2391 0.0810018C12.0144 0.340295 13.588 1.0495 14.9322 2.23811C16.5613 3.6825 17.5572 5.48391 17.8971 7.64014C17.9372 7.89327 17.9671 8.14772 18.0015 8.40129V9.59651C17.9746 9.81002 17.9521 10.0244 17.9196 10.2375C17.5598 12.6103 16.4569 14.5654 14.5733 16.0533C12.5784 17.6298 10.2928 18.25 7.77701 17.9106C5.39943 17.5893 3.44541 16.4623 1.95414 14.5821C0.369095 12.5843 -0.242027 10.296 0.0855494 7.77265C0.316703 5.99193 1.04494 4.41944 2.23549 3.07366C3.67965 1.44042 5.48308 0.445069 7.64183 0.104774C7.89588 0.0633926 8.15037 0.0343377 8.40442 0ZM10.1951 8.9617C10.1986 8.98723 10.2021 9.01321 10.2061 9.03918C10.1497 9.07075 10.0963 9.10744 10.0467 9.1488C9.05516 10.1375 8.06495 11.1272 7.07605 12.1177C7.0171 12.1746 6.96166 12.235 6.91006 12.2986C6.85073 12.375 6.80707 12.4624 6.78159 12.5557C6.75611 12.649 6.7493 12.7465 6.76157 12.8424C6.77385 12.9384 6.80495 13.031 6.8531 13.1149C6.90125 13.1988 6.96549 13.2724 7.04215 13.3314C7.37281 13.5867 7.75895 13.5431 8.09578 13.2068C9.28985 12.0153 10.483 10.8228 11.6753 9.62953C12.1077 9.19722 12.109 8.80014 11.6793 8.37048C10.4958 7.18597 9.31127 6.00176 8.12571 4.81784C8.07265 4.76331 8.01649 4.71186 7.95752 4.66376C7.88181 4.60355 7.79498 4.55886 7.70198 4.53224C7.60897 4.50562 7.51163 4.4976 7.41553 4.50864C7.31942 4.51968 7.22644 4.54956 7.14189 4.59658C7.05735 4.64359 6.98291 4.70681 6.92283 4.78263C6.66218 5.10971 6.70269 5.50284 7.03467 5.83917C8.03589 6.8423 9.03829 7.8444 10.0419 8.84548C10.0905 8.88734 10.1417 8.92615 10.1951 8.9617Z" fill="white"/>
</svg>
