<svg fill="none" height="23" viewBox="0 0 65 23" width="65" xmlns="http://www.w3.org/2000/svg"><g clip-rule="evenodd" fill="#008036" fill-rule="evenodd"><path d="m20.7124 21.8409 5.1279.0949.0474-11.3003c.4749.3799.1425 0 .5223.5698l4.0833 9.7335 2.6114.0474 4.3682-10.6355.1425 11.4902 5.1278.0949.0475-21.745907c-1.6143-.0949605-3.9408-.2848815-5.4602.09496-1.4719 2.801337-4.4632 11.347747-5.5552 12.772147l-5.6502-12.914587h-5.4127z"/><path d="m47.1114 17.4727-.0475 4.4632c2.0416 0 14.0067.3323 14.9563-.3324.4748-.3798 1.3769-1.4244 1.8517-1.8992 1.5668-1.6143 1.0446-2.2791 1.0446-6.5048 0-1.7093-.2849-1.7093-1.1396-2.5164-2.7538-2.70642-1.3294-2.23162-9.2586-2.13666-4.5581.04748-2.7064-3.41857-2.0417-3.79842.8547-.4748 9.8759-.18992 11.2528-.18992v-4.4631395c-2.0416 0-13.7217-.3798415-14.6239.3798415-.4748.427323-1.3294 1.376928-1.8517 1.899208-1.1395 1.13953-1.092.66473-1.0446 2.80134.0475 4.89045-.5697 3.89338 1.5669 6.07745 2.6589 2.7064 2.2316 1.6618 9.4486 1.7093 1.4244.0475 2.0891.3798 2.2315 1.6143.4748 3.5611-1.8992 2.8963-4.7005 2.8963-2.564 0-5.1279 0-7.6443 0z"/><path d="m.0584552 2.8964v3.89338h5.5551848c0-1.75677-.2374-1.23448.71221-2.37401 1.37692-.18992 4.65305-.61724 5.22285.66472.2849.71221.2849 2.1841-.095 2.80134-.6172 1.13952-5.41273.7122-6.83714.7122l-.04748 4.13077c5.0329.0475 7.07452-.9971 7.12202 2.0417.0475.9021.1425 1.8042-.3323 2.374-.6648.9021-3.60855.6647-5.03295.5223-.85465-.9971-.71221-.6173-.71221-2.3741l-5.5551848-.0949c0 4.0358-.4748022 3.466 1.2819648 5.0329.75969.7122 1.32945 1.6618 2.75386 1.7093 2.75385.0949 5.93502.0475 8.73632 0 1.6618 0 1.7093-.6647 2.6589-1.5669.9971-.9971 1.7093-1.2345 1.7568-2.6589.0475-.9496.095-3.6085-.0475-4.4631-.0949-.8072-1.3294-1.9467-2.0416-2.3265.5223-1.56688 2.0891-1.80429 2.0891-2.80137 0-5.74511.5223-4.17826-2.5165-7.311958-.7596-.7596837-.7122-.7122034-2.1366-.7122034l-9.11617.0474804c-.75968.142441-2.563931 2.136611-3.4185748 2.753851z"/></g></svg>