<svg width="40" height="40" viewBox="0 0 40 40" fill="none" xmlns="http://www.w3.org/2000/svg">
<g clip-path="url(#clip0_2503_5006)">
<path d="M0 18.5314C0.104316 17.84 0.174208 17.1413 0.312948 16.4572C1.74938 9.4867 5.68523 4.49557 12.205 1.60893C15.0341 0.340729 18.1381 -0.191643 21.2283 0.0613191C28.4261 0.646364 33.8798 4.07842 37.4849 10.3377C39.4137 13.6863 40.1586 17.3488 39.9687 21.2022C39.9542 21.6048 39.9113 22.0059 39.8404 22.4025C39.7491 22.8956 39.4709 23.3344 39.0638 23.6273C38.6566 23.9202 38.1521 24.0446 37.6554 23.9745C37.1587 23.9044 36.7083 23.6452 36.3982 23.2511C36.0881 22.8569 35.9423 22.3583 35.9911 21.8592C36.2102 19.6598 36.0777 17.4865 35.384 15.3862C33.3686 9.28752 29.2158 5.4623 22.9047 4.25675C14.2694 2.6059 6.06911 8.18625 4.23836 16.7711C2.42222 25.2975 7.97392 33.874 16.5049 35.7136C20.7704 36.6324 24.7636 35.9222 28.4908 33.6717C29.5736 33.0189 30.7524 33.2546 31.3407 34.2526C31.474 34.4695 31.563 34.7107 31.6026 34.9622C31.6421 35.2138 31.6314 35.4706 31.5711 35.718C31.5108 35.9653 31.402 36.1983 31.2511 36.4034C31.1002 36.6085 30.9101 36.7817 30.6919 36.9129C28.649 38.2125 26.3829 39.1223 24.0083 39.5962C23.1738 39.7631 22.3205 39.8663 21.4766 39.9977H18.5161C18.0675 39.9383 17.6179 39.8851 17.1715 39.8183C14.429 39.4012 11.8576 38.5054 9.50841 37.0266C4.48768 33.8646 1.4333 29.3522 0.321289 23.5299C0.187764 22.8312 0.112657 22.122 0.0083407 21.4181L0 18.5314Z" fill="white"/>
<path d="M17.0474 22.6363L21.4109 18.2677C23.0661 16.6117 24.7226 14.9566 26.3805 13.3027C27.2036 12.4851 28.3907 12.4527 29.1814 13.2046C29.5421 13.5498 29.7574 14.0197 29.7832 14.5182C29.8089 15.0168 29.6433 15.5063 29.3202 15.8869C29.2273 15.9912 29.1251 16.0954 29.0239 16.1997C25.5655 19.6599 22.1071 23.1195 18.6486 26.5783C17.5658 27.6608 16.506 27.6618 15.4305 26.5856C13.8845 25.038 12.3313 23.4998 10.7968 21.948C9.72023 20.8571 10.1709 19.0843 11.6219 18.6713C12.3688 18.4627 13.0354 18.6484 13.5893 19.2021L16.7376 22.3464C16.8262 22.434 16.9222 22.5184 17.0474 22.6363Z" fill="white"/>
</g>
<defs>
<clipPath id="clip0_2503_5006">
<rect width="40" height="40" fill="white"/>
</clipPath>
</defs>
</svg>
