<svg width="31" height="24" viewBox="0 0 31 24" fill="none" xmlns="http://www.w3.org/2000/svg">
<path d="M0 7.09949L2.17477 21.3717C2.26769 21.981 2.57394 22.5366 3.03808 22.9379C3.50221 23.3393 4.09357 23.5599 4.7051 23.5598H24.9438C25.3257 23.5599 25.7031 23.4766 26.0501 23.3157C26.3971 23.1549 26.7053 22.9201 26.9538 22.6277C27.2022 22.3354 27.3849 21.9922 27.4893 21.6219C27.5936 21.2516 27.6173 20.8629 27.5585 20.4825L25.3909 6.44281C25.2924 5.8056 24.952 5.23193 24.4418 4.84294C23.9315 4.45395 23.2912 4.2801 22.6561 4.3581L1.89954 7.43144C1.37371 7.5098 0.836657 7.44445 0.344432 7.24221L0 7.09949Z" fill="#FF9900"/>
<path d="M28.7589 2.3006L31 17.005C30.9661 17.6746 30.6972 18.3111 30.2404 18.8034C29.9204 19.1374 29.5221 19.3871 29.0815 19.53C28.2944 14.3481 27.5074 9.16694 26.7203 3.98661C26.6774 3.70464 26.5781 3.43412 26.4284 3.19108C26.2786 2.94805 26.0814 2.73744 25.8484 2.57173C25.6155 2.40603 25.3515 2.2886 25.0722 2.22641C24.7929 2.16422 24.5039 2.15853 24.2223 2.20968L3.00567 6.06263C2.98486 6.05704 2.59587 5.94299 2.50063 5.59686C2.41179 5.27784 2.61508 4.88864 3.00567 4.74269L25.5181 0.0571008C25.8797 -0.0180927 26.2528 -0.0190315 26.6147 0.0543407C26.9767 0.127713 27.3198 0.273854 27.6231 0.483835C27.9264 0.693816 28.1836 0.963225 28.3789 1.2756C28.5742 1.58797 28.7035 1.93674 28.7589 2.3006Z" fill="#FF9900"/>
<path d="M17.5219 11.4697C18.3006 13.3958 19.0834 15.3217 19.8701 17.2472C19.9064 17.3197 19.926 17.3994 19.9274 17.4805C19.9288 17.5616 19.9119 17.6419 19.8781 17.7156C19.7472 18.006 19.6434 18.3116 19.5084 18.6012C19.4547 18.7294 19.3724 18.8436 19.2677 18.9351C19.1631 19.0266 19.039 19.0931 18.9048 19.1294C18.7051 19.1814 18.4975 19.1963 18.2924 19.1733C18.1934 19.1653 18.0936 19.1414 17.9946 19.1334C17.8596 19.1254 17.7918 19.1853 17.7878 19.3241C17.7838 19.463 17.7878 19.5874 17.7878 19.7175C17.7878 19.9353 17.8676 20.0366 18.0816 20.0701C18.3029 20.1146 18.5275 20.1413 18.7531 20.1499C19.4326 20.1659 19.9731 19.8914 20.3228 19.3002C20.4637 19.0665 20.586 18.8221 20.6885 18.5693C21.6296 16.1948 22.5646 13.8179 23.4934 11.4386C23.5226 11.3683 23.544 11.295 23.5573 11.22C23.5733 11.1083 23.5214 11.0453 23.4104 11.0453C23.1477 11.0413 22.8818 11.0453 22.6199 11.0453C22.5531 11.0406 22.4866 11.0584 22.431 11.0958C22.3755 11.1333 22.334 11.1882 22.3133 11.2519C22.2942 11.307 22.2702 11.3588 22.2503 11.4115L20.8674 15.3818C20.7684 15.6674 20.6646 15.9578 20.5616 16.2594C20.5456 16.2156 20.5376 16.1916 20.5256 16.1645C20.013 14.7469 19.5004 13.328 18.9878 11.9078C18.908 11.6812 18.821 11.4586 18.7379 11.2368C18.7221 11.1816 18.6886 11.1331 18.6426 11.0986C18.5967 11.0642 18.5407 11.0458 18.4832 11.0461C18.1814 11.0461 17.8796 11.0381 17.573 11.0461C17.474 11.0461 17.4261 11.1259 17.446 11.2248C17.4651 11.3082 17.4905 11.3901 17.5219 11.4697ZM12.3169 17.327C12.7895 17.5887 13.3021 17.6206 13.8227 17.5409C14.4117 17.4476 14.9639 17.1951 15.4196 16.8108C15.4389 16.7934 15.4603 16.7786 15.4835 16.7669C15.5074 16.9177 15.5274 17.0605 15.5545 17.2033C15.5591 17.258 15.5835 17.3091 15.623 17.3471C15.6625 17.3851 15.7145 17.4075 15.7693 17.41H16.4169C16.4667 17.4096 16.5144 17.3899 16.55 17.3551C16.5855 17.3203 16.6062 17.273 16.6077 17.2233C16.611 17.1864 16.6123 17.1494 16.6117 17.1124V12.9035C16.6141 12.7321 16.6021 12.5607 16.5757 12.3913C16.5007 11.8791 16.2819 11.4578 15.8212 11.1841C15.5543 11.0331 15.2597 10.9373 14.9549 10.9024C14.812 10.8825 14.6691 10.8705 14.5253 10.8506C14.3705 10.8546 14.2116 10.8546 14.0527 10.8546C14.0128 10.8546 13.9728 10.8665 13.9377 10.8705C13.5506 10.8857 13.166 10.9391 12.7895 11.0301C12.55 11.0939 12.3105 11.1809 12.0781 11.2607C12.0124 11.2783 11.9551 11.3188 11.9165 11.3748C11.8779 11.4307 11.8605 11.4986 11.8673 11.5663C11.8713 11.6971 11.8673 11.828 11.8673 11.9588C11.8713 12.1495 11.9512 12.1982 12.138 12.1535C12.4478 12.0737 12.7576 11.9868 13.0714 11.9277C13.5573 11.8254 14.0571 11.8066 14.5493 11.8719C14.808 11.9118 15.0499 11.9868 15.2168 12.2054C15.3545 12.3945 15.4283 12.6226 15.4276 12.8565C15.4396 13.186 15.4356 13.5155 15.4396 13.845C15.4385 13.8639 15.4359 13.8825 15.4316 13.9009C15.4116 13.8969 15.3957 13.9009 15.3797 13.8969C14.9626 13.7942 14.5372 13.7291 14.1086 13.7022C13.6617 13.666 13.212 13.7186 12.7855 13.857C12.2729 14.0357 11.8594 14.3453 11.6174 14.8456C11.4438 15.227 11.3898 15.6521 11.4625 16.0648C11.4912 16.3288 11.584 16.5819 11.7329 16.8019C11.8818 17.0219 12.0823 17.2021 12.3169 17.327ZM12.7376 15.2661C12.8366 14.9366 13.0714 14.7498 13.3892 14.6469C13.7081 14.5506 14.0435 14.5207 14.3744 14.5592C14.7082 14.5871 15.034 14.6509 15.3677 14.694C15.4316 14.702 15.4515 14.7339 15.4515 14.7977C15.4475 14.9884 15.4515 15.1743 15.4515 15.365C15.4515 15.5557 15.4436 15.7384 15.4475 15.9235C15.4491 15.9469 15.4444 15.9702 15.4339 15.9912C15.4233 16.0121 15.4074 16.0298 15.3877 16.0424C14.9545 16.3693 14.4412 16.5738 13.9018 16.6344C13.6768 16.6667 13.4472 16.6421 13.2343 16.5626C13.1164 16.5195 13.0103 16.4492 12.9247 16.3574C12.8391 16.2656 12.7764 16.155 12.7416 16.0344C12.6632 15.7845 12.6618 15.5168 12.7376 15.2661ZM4.85064 20.0031H5.689C5.71517 20.0033 5.74112 19.9983 5.76533 19.9884C5.78955 19.9785 5.81155 19.9639 5.83006 19.9454C5.84856 19.9269 5.8632 19.9049 5.87311 19.8807C5.88303 19.8565 5.88803 19.8306 5.88781 19.8044V16.8132C5.93093 16.8491 5.95488 16.8682 5.97484 16.8882C6.68625 17.4802 7.50466 17.6749 8.39891 17.5002C9.20933 17.3406 9.77383 16.8451 10.1387 16.1142C10.4053 15.5672 10.5453 14.9673 10.5483 14.3589C10.5683 13.6799 10.5004 13.0129 10.2289 12.3817C9.8912 11.6038 9.33069 11.0915 8.48434 10.9168C8.35739 10.8889 8.22645 10.8769 8.0955 10.857H7.76495L7.59408 10.8809C7.04777 10.9482 6.52789 11.1545 6.08423 11.4801C5.98921 11.5479 5.90139 11.6189 5.80238 11.6947C5.79419 11.6771 5.7888 11.6582 5.78641 11.6389C5.77044 11.532 5.75447 11.4211 5.73451 11.3134C5.70736 11.1306 5.61555 11.0517 5.4327 11.0517H4.97599C4.70213 11.0517 4.65023 11.1035 4.65023 11.3772V19.8044C4.64945 19.8309 4.65411 19.8572 4.66392 19.8818C4.67374 19.9063 4.6885 19.9286 4.70729 19.9472C4.72608 19.9659 4.7485 19.9804 4.77316 19.9901C4.79781 19.9997 4.82419 20.0041 4.85064 20.0031ZM5.88382 14.1897C5.88382 13.6312 5.88782 13.0783 5.88382 12.5182C5.88153 12.4923 5.88661 12.4662 5.89847 12.4431C5.91034 12.4199 5.92851 12.4006 5.95089 12.3873C6.49543 12.0099 7.09506 11.8112 7.76255 11.8631C8.355 11.907 8.83965 12.1966 9.09435 12.8916C9.23575 13.3135 9.30143 13.757 9.28837 14.2017C9.29931 14.6126 9.24542 15.0227 9.12868 15.4169C8.85881 16.2626 8.23922 16.5842 7.43599 16.5483C6.87708 16.5243 6.39802 16.3089 5.95009 15.9969C5.92796 15.9832 5.91002 15.9637 5.8982 15.9405C5.88638 15.9173 5.88113 15.8913 5.88302 15.8653C5.88782 15.306 5.88382 14.7498 5.88382 14.1897Z" fill="white"/>
</svg>
