<svg width="9" height="16" viewBox="0 0 9 16" fill="none" xmlns="http://www.w3.org/2000/svg">
<path d="M7.75002 5.52513L3.16402 0.939127C2.88263 0.657865 2.50103 0.499906 2.10317 0.5C1.70531 0.500094 1.32378 0.658232 1.04252 0.939627C0.761258 1.22102 0.6033 1.60262 0.603394 2.00048C0.603487 2.39834 0.761627 2.77986 1.04302 3.06113L5.62902 7.64613C5.67558 7.69257 5.71253 7.74775 5.73773 7.80849C5.76294 7.86924 5.77592 7.93436 5.77592 8.00013C5.77592 8.0659 5.76294 8.13102 5.73773 8.19176C5.71253 8.25251 5.67558 8.30768 5.62902 8.35413L1.04302 12.9391C0.761627 13.2204 0.603487 13.6019 0.603394 13.9998C0.6033 14.3976 0.761258 14.7792 1.04252 15.0606C1.32378 15.342 1.70531 15.5002 2.10317 15.5003C2.50103 15.5003 2.88263 15.3424 3.16402 15.0611L7.75002 10.4751C8.40525 9.81809 8.77321 8.92804 8.77321 8.00013C8.77321 7.07221 8.40525 6.18216 7.75002 5.52513Z" fill="white"/>
</svg>
