<svg width="13" height="11" viewBox="0 0 13 11" fill="none" xmlns="http://www.w3.org/2000/svg">
<path d="M11.6629 4.23079H3.82506L5.99913 2.16706C6.24996 1.92908 6.39092 1.60626 6.391 1.26961C6.39109 0.932969 6.25029 0.610083 5.99957 0.371985C5.74886 0.133886 5.40878 7.93761e-05 5.05414 3.53038e-08C4.6995 -7.93055e-05 4.35935 0.133575 4.10852 0.371562L0.912044 3.40581C0.327986 3.96175 0 4.71486 0 5.5C0 6.28514 0.327986 7.03825 0.912044 7.59419L4.10852 10.6284C4.35935 10.8664 4.6995 11.0001 5.05414 11C5.40878 10.9999 5.74886 10.8661 5.99957 10.628C6.25029 10.3899 6.39109 10.067 6.391 9.73039C6.39092 9.39374 6.24996 9.07092 5.99913 8.83293L3.82506 6.76921H11.6629C12.0175 6.76921 12.3576 6.63549 12.6084 6.39746C12.8591 6.15944 13 5.83661 13 5.5C13 5.16339 12.8591 4.84056 12.6084 4.60254C12.3576 4.36451 12.0175 4.23079 11.6629 4.23079Z" fill="black"/>
</svg>
