<svg width="39" height="37" viewBox="0 0 39 37" fill="none" xmlns="http://www.w3.org/2000/svg">
<g clip-path="url(#clip0_1907_4366)">
<path d="M30.45 12.0298C30.56 12.1698 30.7199 12.1198 30.8599 12.1198H34.05C34.4692 12.1671 34.8589 12.3585 35.1526 12.6612C35.4463 12.964 35.6255 13.3594 35.6599 13.7798C35.7035 14.0107 35.727 14.2449 35.73 14.4798V20.5398C35.7302 20.8124 35.7 21.084 35.6399 21.3498C35.6052 21.6114 35.4688 21.8485 35.26 22.0098C35.02 22.0098 34.9599 21.8098 34.8899 21.6398C34.7485 21.2559 34.6807 20.8488 34.6899 20.4398C34.6899 19.3398 34.6899 18.2498 34.6899 17.1498C34.6933 16.8905 34.6327 16.6344 34.5137 16.404C34.3946 16.1737 34.2208 15.9762 34.0073 15.8289C33.7939 15.6817 33.5474 15.5892 33.2898 15.5597C33.0322 15.5302 32.7712 15.5646 32.53 15.6598C32.2225 15.7813 31.9583 15.9918 31.7712 16.2644C31.5842 16.537 31.4827 16.8592 31.48 17.1898C31.48 17.7798 31.48 18.3598 31.48 18.9498C31.48 20.8698 31.48 22.7798 31.48 24.6998C31.4741 25.0513 31.3699 25.3941 31.179 25.6893C30.9881 25.9845 30.7181 26.2203 30.3999 26.3698C30.1731 26.4788 29.9261 26.5392 29.6746 26.5474C29.4231 26.5555 29.1728 26.5111 28.9395 26.417C28.7061 26.3229 28.4949 26.1811 28.3193 26.0008C28.1438 25.8205 28.0077 25.6056 27.9199 25.3698C27.8468 25.1722 27.7933 24.9679 27.76 24.7598C27.76 23.4998 27.76 22.2398 27.76 20.9798C27.7449 20.5703 27.5751 20.1817 27.2849 19.8923C26.9947 19.603 26.6059 19.4343 26.1963 19.4203C25.7867 19.4064 25.3871 19.5482 25.0779 19.8172C24.7687 20.0861 24.5729 20.4623 24.53 20.8698C24.5342 21.1516 24.4753 21.4307 24.3577 21.6868C24.24 21.9429 24.0664 22.1695 23.8499 22.3498C23.6056 22.5624 23.3083 22.7046 22.9895 22.7615C22.6707 22.8184 22.3425 22.7878 22.0398 22.6728C21.7371 22.5579 21.4712 22.363 21.2705 22.1089C21.0698 21.8548 20.9416 21.551 20.8999 21.2298C20.8082 20.5674 20.7782 19.8979 20.8101 19.2298C20.8122 18.9304 20.7507 18.6338 20.6299 18.3598C20.4757 18.044 20.2224 17.7874 19.9087 17.6291C19.595 17.4707 19.2382 17.4194 18.8926 17.4828C18.547 17.5463 18.2316 17.7211 17.9946 17.9805C17.7576 18.24 17.6121 18.5698 17.5801 18.9198C17.5788 19.4239 17.402 19.9118 17.0801 20.2998C16.8316 20.5739 16.5064 20.7672 16.147 20.8547C15.7875 20.9422 15.4101 20.9199 15.0635 20.7907C14.7168 20.6615 14.4167 20.4313 14.2021 20.1299C13.9876 19.8285 13.8684 19.4697 13.8599 19.0998C13.8581 18.7936 13.7711 18.4938 13.6086 18.2342C13.4462 17.9746 13.2146 17.7653 12.9399 17.6298C12.6978 17.5046 12.4275 17.4439 12.155 17.4533C11.8826 17.4627 11.6172 17.542 11.3843 17.6836C11.1513 17.8252 10.9585 18.0243 10.8247 18.2618C10.6909 18.4993 10.6203 18.7672 10.6199 19.0398C10.6199 20.7798 10.6199 22.5098 10.6199 24.2398C10.6299 24.4263 10.6299 24.6133 10.6199 24.7998C10.6042 25.1502 10.4924 25.4896 10.2966 25.7807C10.1008 26.0717 9.82871 26.3032 9.51001 26.4498C9.27102 26.5574 9.0116 26.6121 8.74951 26.6102C8.48742 26.6082 8.22884 26.5497 7.99146 26.4386C7.75407 26.3276 7.54341 26.1665 7.37402 25.9665C7.20463 25.7665 7.08052 25.5323 7.01001 25.2798C6.95671 25.1281 6.923 24.9701 6.90991 24.8098C6.90991 23.5498 6.90991 22.2898 6.90991 21.0298C6.92074 20.721 6.84035 20.4157 6.67847 20.1525C6.51659 19.8892 6.28051 19.6795 6 19.5498C5.7617 19.4328 5.49825 19.3761 5.23291 19.3848C4.96757 19.3935 4.70841 19.4673 4.47827 19.5997C4.24813 19.732 4.05404 19.9189 3.91309 20.1438C3.77213 20.3688 3.68863 20.625 3.66992 20.8898C3.67591 21.2971 3.55364 21.6959 3.32031 22.0297C3.08698 22.3636 2.75438 22.6155 2.36987 22.7498C2.28473 22.8041 2.18594 22.833 2.08496 22.833C1.98398 22.833 1.88519 22.8041 1.80005 22.7498C1.43122 22.7661 1.0675 22.6575 0.768066 22.4416C0.468629 22.2256 0.250843 21.9149 0.149902 21.5598C0.149902 21.5598 0.0900586 21.4598 0.0600586 21.3998V13.7698C0.146758 13.414 0.3254 13.0873 0.578125 12.8223C0.83085 12.5572 1.14873 12.3633 1.5 12.2598C1.66621 12.2153 1.838 12.1951 2.01001 12.1998H7.53003C7.68003 12.1998 7.86993 12.2798 7.92993 12.0398C9.23993 12.1298 10.5499 12.0398 11.8499 12.0398C17.9099 12.0398 23.97 12.0398 30.03 12.0398H30.3599C30.389 12.0313 30.4196 12.0279 30.45 12.0298Z" fill="#FDE7C9"/>
<path d="M36 36.14C35.87 36.26 35.7201 36.21 35.5701 36.21H2.76001C2.02001 36.21 1.76001 35.93 1.76001 35.21V31.7C1.79071 31.6592 1.83219 31.628 1.87988 31.6099C2.06158 31.5753 2.24823 31.5753 2.42993 31.6099H32.22C32.4301 31.5809 32.6442 31.6085 32.8401 31.69C32.8963 31.7574 32.9376 31.8358 32.9617 31.9202C32.9858 32.0046 32.9921 32.093 32.98 32.1799V35.39C32.9929 35.5132 32.9789 35.6377 32.9392 35.7551C32.8995 35.8724 32.8351 35.9799 32.75 36.07C32.9389 36.0989 33.1312 36.0989 33.3201 36.07H35.52C35.68 36.03 35.86 36 36 36.14Z" fill="#A96B54"/>
<path d="M32.8599 31.6603H1.80005C1.70005 31.4203 1.79998 31.1702 1.72998 30.9302V29.1003C1.83998 28.8703 1.65985 28.5902 1.84985 28.3802C2.02453 28.3116 2.2136 28.2875 2.3999 28.3102H32.27C32.468 28.285 32.6688 28.3163 32.8499 28.4003C32.8915 28.4457 32.9229 28.4996 32.9419 28.5583C32.9609 28.6169 32.9671 28.679 32.96 28.7402C32.96 29.6136 32.96 30.4836 32.96 31.3503C32.9796 31.4358 32.9796 31.5247 32.96 31.6102L32.8599 31.6603Z" fill="#FDE7C9"/>
<path d="M32.8599 28.4198H1.80005C1.78407 28.4138 1.7694 28.4045 1.75732 28.3924C1.74525 28.3803 1.736 28.3658 1.72998 28.3499V24.6998C1.76851 24.6595 1.81519 24.628 1.86694 24.6073C1.91869 24.5866 1.97435 24.5772 2.03003 24.5798C3.12003 24.5798 4.21005 24.5798 5.30005 24.5798C5.36175 24.5974 5.41713 24.632 5.45996 24.6798C5.51914 24.7611 5.55078 24.8593 5.55005 24.9598C5.58751 25.4583 5.74346 25.9406 6.00488 26.3667C6.26631 26.7928 6.62555 27.1502 7.05298 27.4094C7.4804 27.6686 7.9635 27.822 8.46216 27.8569C8.96082 27.8917 9.4606 27.807 9.91992 27.6098C10.4386 27.4067 10.8929 27.0671 11.2344 26.627C11.5759 26.1869 11.7919 25.6627 11.8599 25.1098C11.8556 24.9721 11.883 24.8353 11.9399 24.7098C11.9655 24.6722 11.9999 24.6412 12.04 24.6198C12.228 24.5486 12.4297 24.5212 12.6299 24.5399H25.6299C25.8154 24.5241 26.0022 24.5445 26.1799 24.5999L26.29 24.6798C26.363 24.8109 26.3976 24.9599 26.3899 25.1098C26.4604 25.6298 26.6586 26.1243 26.9666 26.5491C27.2745 26.974 27.6827 27.316 28.155 27.5447C28.6273 27.7735 29.149 27.8818 29.6733 27.86C30.1976 27.8382 30.7082 27.6869 31.1599 27.4198C31.8715 27.0127 32.3928 26.3403 32.6099 25.5498C32.7099 25.3898 32.7999 25.3398 32.8699 25.5498C32.89 25.6723 32.89 25.7973 32.8699 25.9198C32.8699 26.6998 32.8699 27.4698 32.8699 28.2498C32.9599 28.3598 32.9599 28.4298 32.8599 28.4198Z" fill="#A96B54"/>
<path d="M31.3699 24.7601C31.3699 22.2001 31.3699 19.6501 31.3699 17.1001C31.3901 16.6542 31.5791 16.2325 31.8984 15.9206C32.2178 15.6087 32.6438 15.4297 33.0901 15.42C33.5385 15.4146 33.9711 15.5856 34.2947 15.8961C34.6183 16.2066 34.807 16.6318 34.8201 17.0801C34.8201 18.2801 34.8201 19.47 34.8201 20.67C34.7791 21.1576 34.9297 21.6419 35.24 22.0201C35.6317 22.3376 36.0897 22.5631 36.5801 22.6801V24.7501C36.5266 24.8021 36.4616 24.841 36.3904 24.8636C36.3192 24.8862 36.2437 24.8918 36.1699 24.8801C35.0699 24.8801 33.9699 24.8801 32.8699 24.8801C32.5199 24.8801 32.1701 24.8801 31.8201 24.8801C31.7408 24.8935 31.6594 24.8898 31.5818 24.8691C31.5041 24.8484 31.4319 24.8112 31.3699 24.7601Z" fill="#EF3644"/>
<path d="M14.9699 5.27045C15.2567 4.17383 15.7376 3.13746 16.3898 2.21045C16.8585 1.53358 17.4326 0.936009 18.09 0.44043C18.6777 0.767932 19.1624 1.25276 19.4899 1.84045C19.3699 1.91045 19.2498 1.84045 19.1198 1.84045C19.0066 1.85032 18.9012 1.90177 18.8237 1.98486C18.7461 2.06796 18.7019 2.17682 18.6999 2.29047C18.6906 2.39166 18.7192 2.49268 18.7802 2.57397C18.8412 2.65527 18.9302 2.71107 19.03 2.73047C19.1302 2.77037 19.2416 2.77198 19.343 2.73511C19.4444 2.69823 19.5288 2.62543 19.58 2.53046C19.66 2.42046 19.66 2.27041 19.77 2.17041C19.8134 2.16475 19.8575 2.17224 19.8967 2.19183C19.9359 2.21143 19.9684 2.2423 19.9899 2.28046C20.3538 2.78821 20.6464 3.34332 20.8598 3.93042C20.8719 3.95888 20.8784 3.98952 20.8784 4.02045C20.8784 4.05137 20.8719 4.08195 20.8598 4.11041C20.7198 4.21041 20.64 4.11046 20.53 4.03046C20.473 4.00151 20.4106 3.9842 20.3469 3.97961C20.2831 3.97503 20.2192 3.98323 20.1586 4.00372C20.0981 4.02422 20.0422 4.05657 19.9943 4.09894C19.9465 4.1413 19.9075 4.19282 19.8798 4.25043C19.8546 4.30423 19.8404 4.36252 19.8378 4.42188C19.8353 4.48123 19.8445 4.54047 19.8649 4.59625C19.8854 4.65203 19.9166 4.70326 19.957 4.74689C19.9973 4.79051 20.0458 4.82571 20.0998 4.85046C20.21 4.90678 20.338 4.91733 20.456 4.87988C20.5739 4.84244 20.6724 4.76001 20.7299 4.65045C20.7999 4.54045 20.7899 4.38045 20.9599 4.34045C21.2491 4.8276 21.4011 5.38391 21.3998 5.95044C21.3998 6.05044 21.2899 6.08043 21.2299 6.13043C20.8499 6.43043 20.87 6.77044 21.29 7.01044C21.36 7.01044 21.4499 7.08046 21.4899 7.16046C21.5672 7.52367 21.5142 7.90251 21.34 8.23047C21.1934 8.35478 21.0181 8.44069 20.83 8.48047C20.2985 8.68676 19.8321 9.03214 19.4799 9.48047C19.3899 9.59047 19.3398 9.75043 19.1599 9.75043C19.0658 9.71609 18.9875 9.6485 18.9399 9.56042C18.5545 8.99772 17.989 8.58315 17.3364 8.38501C16.6838 8.18687 15.983 8.21701 15.3498 8.47046C15.1898 8.54046 15.0399 8.60046 14.9199 8.41046C14.7083 7.95821 14.6219 7.45745 14.6699 6.96045C14.6894 6.46634 14.7495 5.97464 14.8498 5.49042C14.8687 5.40739 14.9103 5.33126 14.9699 5.27045Z" fill="#F04E5B"/>
<path d="M36.5801 22.6798C36.3188 22.6945 36.058 22.6414 35.8232 22.5258C35.5885 22.4101 35.3876 22.2359 35.24 22.0198C35.5206 21.5206 35.6523 20.9516 35.6199 20.3798C35.6199 18.3798 35.6199 16.3798 35.6199 14.3798C35.6226 14.008 35.5583 13.6388 35.4299 13.2899C35.3085 12.9967 35.1206 12.7356 34.8811 12.5274C34.6416 12.3192 34.3573 12.1694 34.05 12.0898H36.48C36.9699 12.1079 37.4339 12.3146 37.7749 12.6669C38.116 13.0191 38.3078 13.4896 38.3101 13.9799C38.3101 16.2799 38.3101 18.5832 38.3101 20.8898C38.321 21.1227 38.2842 21.3554 38.2019 21.5735C38.1196 21.7917 37.9936 21.9907 37.8315 22.1583C37.6695 22.326 37.4747 22.4587 37.2595 22.5484C37.0443 22.6381 36.8132 22.6828 36.5801 22.6798Z" fill="#FFD597"/>
<path d="M21.22 8.28986C21.3299 7.94075 21.3805 7.57569 21.3699 7.20984C21.3699 7.11984 21.46 7.09982 21.53 7.06982C21.623 7.03781 21.7032 6.97686 21.759 6.89587C21.8148 6.81489 21.8433 6.71811 21.8401 6.61981C21.8374 6.51465 21.8009 6.41316 21.7361 6.33032C21.6713 6.24748 21.5814 6.18773 21.48 6.15985C21.4441 6.15453 21.4096 6.14201 21.3787 6.12311C21.3477 6.10421 21.3211 6.07928 21.3 6.0498C21.2161 5.48712 21.0648 4.93658 20.8499 4.40985C20.7499 4.40985 20.7 4.29983 20.77 4.19983C20.5777 3.47152 20.2373 2.79068 19.77 2.19983C19.56 2.19983 19.53 1.97982 19.48 1.81982C19.0889 1.2873 18.628 0.809718 18.1099 0.399841C18.3999 0.132079 18.7803 -0.0166016 19.175 -0.0166016C19.5698 -0.0166016 19.95 0.132079 20.24 0.399841C21.729 1.5615 22.7996 3.17609 23.29 4.99982L23.3799 5.28986C23.6007 5.64927 23.7022 6.06923 23.6699 6.48981C23.811 7.19957 23.7198 7.93591 23.4099 8.58984C23.2999 8.66984 23.1901 8.58984 23.0901 8.58984C22.5804 8.38263 22.0266 8.30694 21.48 8.36981C21.4345 8.39173 21.3824 8.39569 21.3342 8.38086C21.286 8.36602 21.2452 8.33352 21.22 8.28986Z" fill="#EF3644"/>
<path d="M5.45996 24.7604L5.38989 24.7004C5.29297 24.553 5.25726 24.3737 5.29004 24.2004V21.4304C5.30966 21.2768 5.28533 21.1208 5.21997 20.9804C5.08997 21.0904 5.11985 21.2504 5.09985 21.3904C4.99966 22.1319 4.65704 22.8194 4.12524 23.3458C3.59345 23.8722 2.90241 24.2078 2.15991 24.3004C2.09037 24.3257 2.01564 24.3335 1.94238 24.323C1.86912 24.3125 1.79967 24.2841 1.73999 24.2404V22.6704C2.17305 22.6843 2.59459 22.5293 2.91553 22.2382C3.23647 21.9472 3.43164 21.5427 3.45996 21.1104C3.45774 20.8124 3.52214 20.5177 3.64844 20.2478C3.77474 19.9779 3.95973 19.7396 4.18994 19.5504C4.43854 19.3577 4.73616 19.2387 5.04907 19.2069C5.36199 19.175 5.67766 19.2317 5.95996 19.3704C6.25181 19.4912 6.50202 19.6948 6.67969 19.9559C6.85736 20.2171 6.95474 20.5246 6.95996 20.8404C6.95996 22.1404 6.95996 23.4504 6.95996 24.7604C6.4789 24.955 5.94103 24.955 5.45996 24.7604Z" fill="#EF3644"/>
<path d="M36 36.1401H32.55C32.97 35.8001 32.8499 35.3601 32.8499 34.9501C32.8499 33.8501 32.8499 32.7601 32.8499 31.6601C32.972 31.574 33.1213 31.5349 33.27 31.5501H36.1699C36.2436 31.5406 36.3186 31.5473 36.3894 31.5698C36.4602 31.5922 36.5253 31.6299 36.5801 31.6801C36.5801 32.9101 36.5801 34.1401 36.5801 35.3701C36.5935 35.547 36.5418 35.7228 36.4351 35.8645C36.3283 36.0062 36.1737 36.1042 36 36.1401Z" fill="#935C47"/>
<path d="M32.85 24.7695H36.5802V28.3795C36.5198 28.4262 36.4503 28.46 36.3763 28.4789C36.3024 28.4979 36.2254 28.5014 36.15 28.4895H33.35C33.2023 28.5125 33.0515 28.4766 32.93 28.3895C32.8 28.2795 32.8502 28.1295 32.8402 27.9995V25.4995L32.69 25.6795C32.5 25.6795 32.4802 25.5595 32.5602 25.4495C32.6402 25.3395 32.72 24.9695 32.85 24.7695Z" fill="#935C47"/>
<path d="M32.9399 28.3701H36.5901C36.5901 29.4701 36.5901 30.5701 36.5901 31.6701H32.8599C32.8599 30.6001 32.8599 29.5301 32.8599 28.4501L32.9399 28.3701Z" fill="#FFD598"/>
<path d="M30.3899 12.0504C30.2899 12.1804 30.1601 12.1204 30.0401 12.1204H8.29008C8.13008 12.1204 7.94991 12.1705 7.86991 11.9705C7.75716 11.3364 7.84163 10.683 8.11161 10.0983C8.3816 9.51365 8.82414 9.02578 9.37992 8.70044C9.51909 8.61923 9.66282 8.54582 9.8101 8.48047C10.1382 8.57678 10.443 8.73907 10.7061 8.95746C10.9692 9.17585 11.1851 9.44569 11.3401 9.75043C11.6791 10.2935 11.8301 10.933 11.7701 11.5704C11.7701 11.8704 11.8499 11.9704 12.1399 11.9604C12.5899 11.9604 13.04 11.9604 13.48 11.9604C14.68 11.9604 15.8701 11.9604 17.0601 11.9604C17.6301 11.9604 18.2101 11.9604 18.7901 11.9604H29.94C30.0171 11.9434 30.0969 11.9426 30.1744 11.9581C30.2518 11.9736 30.3253 12.005 30.3899 12.0504Z" fill="#A96B54"/>
<path d="M30.3899 12.0503H27.99C27.89 11.9303 27.99 11.7903 27.99 11.6603C28.0436 11.0916 27.9337 10.5194 27.6733 10.011C27.4129 9.50261 27.0129 9.07912 26.52 8.79032C26.4 8.72032 26.25 8.66028 26.2 8.50028C26.2273 8.43744 26.2743 8.38507 26.3337 8.35087C26.3932 8.31666 26.4619 8.30242 26.53 8.31028C27.0688 8.21038 27.6212 8.21038 28.1599 8.31028C28.8808 8.49888 29.5115 8.93699 29.9399 9.54667C30.3684 10.1563 30.5668 10.8981 30.5 11.6403C30.5 11.7603 30.5 11.8903 30.5 12.0103L30.3899 12.0503Z" fill="#935C47"/>
<path d="M11.8201 8.35046C11.3562 7.49517 11.1742 6.51522 11.3 5.55042C11.2981 5.43975 11.3219 5.33022 11.3699 5.23047C12.1314 5.37427 12.8409 5.71891 13.4245 6.22876C14.0082 6.73861 14.445 7.39512 14.6899 8.13043C14.7685 8.30198 14.8222 8.48376 14.8498 8.67041C14.848 8.70723 14.8371 8.74302 14.8179 8.77448C14.7986 8.80593 14.7719 8.83208 14.74 8.85046C14.4122 9.07819 14.1276 9.36262 13.8999 9.69043C13.8999 9.75043 13.7999 9.82043 13.6999 9.82043C13.5999 9.82043 13.39 9.50046 13.23 9.35046C12.914 8.99564 12.5206 8.71847 12.0801 8.54047C11.9701 8.51047 11.8501 8.48046 11.8201 8.35046Z" fill="#88C769"/>
<path d="M26.5 8.29958C26.43 8.40958 26.29 8.40963 26.2 8.47963C26.0845 8.61016 25.941 8.71273 25.78 8.77962C25.416 8.99796 25.1022 9.29107 24.8599 9.6396C24.7999 9.7296 24.7399 9.82962 24.6099 9.83962C24.4857 9.76739 24.3787 9.66924 24.2959 9.5519C24.2131 9.43456 24.1564 9.30079 24.1299 9.15962C24.1751 9.02976 24.2468 8.91058 24.3401 8.80959C24.7829 8.25504 25.0783 7.5976 25.199 6.89827C25.3196 6.19895 25.2615 5.48044 25.03 4.80959C24.97 4.64959 24.86 4.48959 25.03 4.30959C25.2643 4.22851 25.5052 4.16828 25.75 4.12959C26.37 4.03959 26.6699 4.18962 26.8599 4.77962C27.0589 5.35732 27.1298 5.97139 27.0676 6.57924C27.0055 7.1871 26.8119 7.77413 26.5 8.29958Z" fill="#73C04F"/>
<path d="M11.8201 8.35021C12.6036 8.58614 13.2727 9.10226 13.7 9.80016C13.7241 9.83739 13.7368 9.8808 13.7368 9.92516C13.7368 9.96952 13.7241 10.0129 13.7 10.0502C13.4524 10.6088 13.3558 11.2226 13.4199 11.8302C13.4444 11.8981 13.4444 11.9723 13.4199 12.0402H11.8899C11.7699 12.0402 11.6499 12.0402 11.6799 11.8502C11.7864 11.163 11.664 10.4598 11.3315 9.84905C10.999 9.23827 10.4751 8.75377 9.84009 8.4702C10.4674 8.20685 11.1656 8.16454 11.8201 8.35021Z" fill="#935C47"/>
<path d="M25 4.28027C25 4.70027 25.24 5.08024 25.3 5.50024C25.4057 6.14371 25.3643 6.80278 25.179 7.42798C24.9936 8.05318 24.6692 8.62827 24.23 9.11023L24.1699 9.20026C23.8419 9.07816 23.5546 8.86691 23.3401 8.59027C23.6448 7.51138 23.6448 6.36918 23.3401 5.29028C23.8186 4.84374 24.3835 4.49999 25 4.28027Z" fill="#88C769"/>
<path d="M14.8201 8.68043C14.5923 8.04329 14.2829 7.43828 13.8999 6.88044C13.3363 6.17037 12.5685 5.65031 11.7 5.39045C11.58 5.39045 11.4499 5.34048 11.3699 5.23048C11.3951 4.9828 11.4665 4.74199 11.5801 4.52046C11.6522 4.35535 11.7793 4.22029 11.9397 4.13825C12.1001 4.05622 12.2839 4.03227 12.46 4.07044C13.3975 4.21156 14.2715 4.62942 14.97 5.27046C14.8583 5.8789 14.7815 6.4932 14.74 7.11042C14.7278 7.59569 14.8128 8.07854 14.99 8.53047C14.99 8.64047 14.9401 8.70043 14.8201 8.68043Z" fill="#74C04F"/>
<path d="M1.73999 24.1997C2.58636 24.1955 3.39882 23.8662 4.00928 23.2799C4.61974 22.6936 4.98156 21.8952 5.02002 21.0497C5.02002 20.8897 5.01999 20.7197 5.23999 20.7197C5.45999 20.7197 5.38989 20.9197 5.38989 21.0397V24.6597H1.73999V24.1997Z" fill="#F04E5B"/>
<path d="M10.48 24.7603C10.48 22.7603 10.48 20.8403 10.48 18.8903C10.5033 18.4482 10.698 18.0326 11.0229 17.732C11.3479 17.4313 11.7774 17.2693 12.22 17.2803C12.6611 17.2873 13.0829 17.4616 13.4004 17.7679C13.7179 18.0742 13.9072 18.4897 13.9299 18.9303C13.9299 19.3944 14.1144 19.8395 14.4426 20.1677C14.7708 20.4959 15.2158 20.6803 15.6799 20.6803C16.1441 20.6803 16.5893 20.4959 16.9175 20.1677C17.2457 19.8395 17.4299 19.3944 17.4299 18.9303C17.4456 18.509 17.6145 18.1079 17.905 17.8025C18.1955 17.497 18.5876 17.3081 19.0076 17.2713C19.4275 17.2344 19.8465 17.3522 20.1858 17.6024C20.525 17.8527 20.7611 18.2182 20.8499 18.6303C20.895 19.0758 20.895 19.5248 20.8499 19.9703C20.8449 20.3313 20.865 20.6921 20.9099 21.0503C20.9482 21.5023 21.1627 21.9212 21.5068 22.2167C21.851 22.5122 22.2974 22.6607 22.75 22.6303C23.1903 22.5948 23.6006 22.3932 23.8977 22.0664C24.1948 21.7395 24.3564 21.3119 24.3499 20.8703C24.3595 20.4543 24.5187 20.0558 24.7983 19.7476C25.078 19.4395 25.4592 19.2425 25.8723 19.1927C26.2854 19.1428 26.7028 19.2436 27.0476 19.4764C27.3925 19.7092 27.6418 20.0585 27.75 20.4603C27.7652 20.5564 27.7652 20.6542 27.75 20.7503C27.75 22.0703 27.75 23.3903 27.75 24.7503C27.2689 24.9449 26.7311 24.9449 26.25 24.7503C26.11 24.6103 26.1399 24.4303 26.1399 24.2603V21.4503C26.1399 21.3003 26.14 21.1303 26.04 20.9903C25.88 21.0503 25.9099 21.1903 25.8999 21.3003C25.8486 21.8487 25.6627 22.3761 25.3589 22.8357C25.0551 23.2952 24.6428 23.6727 24.1582 23.9348C23.6736 24.1968 23.1319 24.3353 22.5811 24.338C22.0302 24.3407 21.4871 24.2076 21 23.9503C20.4572 23.6583 20.0027 23.2257 19.6843 22.698C19.3659 22.1702 19.1952 21.5666 19.1899 20.9503C19.1899 20.4603 19.1899 19.9503 19.1899 19.4603C19.1899 19.3203 19.19 19.1503 19.03 19.0303C18.74 21.0303 17.6901 22.3903 15.5801 22.3803C13.4701 22.3703 12.4299 21.0503 12.1499 19.0103C12.0804 19.0778 12.0292 19.1618 12.0012 19.2545C11.9732 19.3473 11.9694 19.4457 11.99 19.5403V24.2003C12.0247 24.3845 11.9851 24.5751 11.8799 24.7303C11.4321 24.9087 10.935 24.9193 10.48 24.7603Z" fill="#EF3644"/>
<path d="M10.48 24.7598H11.97C11.9238 25.5918 11.5607 26.3747 10.9553 26.9474C10.35 27.5201 9.54845 27.8393 8.71509 27.8393C7.88173 27.8393 7.07998 27.5201 6.47461 26.9474C5.86924 26.3747 5.5061 25.5918 5.45996 24.7598H6.94995C6.9735 25.158 7.12865 25.5372 7.39111 25.8376C7.65357 26.1381 8.00842 26.3429 8.3999 26.4197C8.62123 26.4617 8.84862 26.4595 9.06909 26.4133C9.28956 26.367 9.49872 26.2777 9.68457 26.1504C9.87042 26.0231 10.0293 25.8603 10.1521 25.6714C10.2748 25.4826 10.3591 25.2713 10.3999 25.0497C10.4299 24.9497 10.46 24.8498 10.48 24.7598Z" fill="#935C47"/>
<path d="M26.3401 24.7598H27.8401C27.8901 24.9498 27.92 25.1398 27.99 25.3298C28.1175 25.6763 28.3525 25.9729 28.6606 26.1763C28.9688 26.3797 29.3339 26.4791 29.7026 26.4601C30.0714 26.4411 30.4243 26.3047 30.71 26.0707C30.9956 25.8368 31.1988 25.5176 31.29 25.1598C31.29 25.0198 31.2899 24.8898 31.3699 24.7598H32.8499C32.8499 24.9898 32.8499 25.2198 32.6599 25.3998C32.4699 25.5798 32.5499 25.5898 32.6599 25.6498C32.5775 26.049 32.4063 26.4244 32.1587 26.7482C31.9111 27.0719 31.5936 27.3357 31.23 27.5198C30.7657 27.795 30.2406 27.9514 29.7014 27.9751C29.1622 27.9988 28.6253 27.8891 28.1387 27.6556C27.652 27.4222 27.2306 27.0723 26.9116 26.6369C26.5926 26.2015 26.386 25.6942 26.3101 25.1598C26.3301 25.0398 26.3501 24.8998 26.3401 24.7598Z" fill="#935C47"/>
<path d="M11.97 24.7302C11.97 23.0602 11.97 21.3902 11.97 19.7302C11.97 19.6002 11.97 19.4602 11.97 19.3202C11.97 19.1802 11.9699 18.8902 12.1899 18.8802C12.4099 18.8702 12.4099 19.1302 12.4099 19.3102C12.4856 20.1305 12.8682 20.8921 13.4812 21.4426C14.0942 21.9931 14.8925 22.2918 15.7163 22.2792C16.5401 22.2666 17.3287 21.9434 17.9246 21.3744C18.5204 20.8054 18.8794 20.0325 18.9299 19.2102C18.9299 19.0602 18.9299 18.8802 19.1199 18.8802C19.3099 18.8802 19.3699 19.0602 19.3699 19.2202C19.3699 19.7902 19.3699 20.3702 19.3699 20.9402C19.3787 21.5707 19.5643 22.1861 19.9055 22.7165C20.2467 23.2468 20.7299 23.6708 21.3 23.9402C21.7781 24.1535 22.3004 24.2486 22.823 24.2174C23.3456 24.1862 23.853 24.0295 24.3022 23.7608C24.7515 23.492 25.1294 23.119 25.4041 22.6733C25.6787 22.2276 25.8418 21.7223 25.8799 21.2002C25.8811 21.1015 25.898 21.0036 25.9299 20.9102C25.9299 20.8302 26.0099 20.7402 26.1099 20.7602C26.1546 20.7642 26.1968 20.7831 26.2295 20.8139C26.2621 20.8448 26.2835 20.8857 26.29 20.9302C26.3054 21.0396 26.3054 21.1507 26.29 21.2602C26.29 22.4202 26.29 23.5802 26.29 24.7302H25.77H12.4299H11.97Z" fill="#F04E5B"/>
<path d="M22.53 12.0397H18.78C18.6586 11.6633 18.6296 11.2632 18.6957 10.8732C18.7619 10.4833 18.9211 10.115 19.1599 9.79968C19.5369 9.20412 20.0888 8.73965 20.7399 8.46973C21.0944 8.58603 21.4207 8.77503 21.6979 9.02472C21.9752 9.27441 22.1972 9.57923 22.3498 9.91968C22.6312 10.461 22.7494 11.0725 22.6899 11.6797C22.6902 11.7476 22.6762 11.8148 22.6486 11.8769C22.621 11.9389 22.5806 11.9945 22.53 12.0397Z" fill="#A96B54"/>
<path d="M14.8201 8.67969C14.8583 8.66985 14.8933 8.65113 14.9229 8.62506C14.9524 8.59899 14.9755 8.56635 14.99 8.52972C15.1 8.60972 15.1801 8.47973 15.2801 8.46973C15.6337 8.58767 15.9591 8.7773 16.2361 9.02679C16.5131 9.27629 16.7357 9.58024 16.8899 9.91968C17.1713 10.461 17.2895 11.0725 17.23 11.6797C17.2303 11.7476 17.2163 11.8148 17.1888 11.8769C17.1612 11.9389 17.1207 11.9945 17.0701 12.0397H13.3899C13.2346 11.4084 13.2946 10.7432 13.5601 10.1497L13.7 9.79968C13.9974 9.35742 14.3778 8.97707 14.8201 8.67969Z" fill="#A96B54"/>
<path d="M17.0701 12.0403C17.2083 11.408 17.1457 10.7482 16.8911 10.1531C16.6366 9.55798 16.2027 9.05711 15.6499 8.72031L15.28 8.47031C15.979 8.19214 16.7544 8.17332 17.4661 8.41727C18.1777 8.66122 18.7786 9.15177 19.1599 9.80026C18.8313 10.4983 18.7001 11.273 18.78 12.0403H17.0701Z" fill="#935C47"/>
<path d="M22.53 12.04C22.6698 11.4076 22.608 10.7473 22.3533 10.1519C22.0986 9.5564 21.6637 9.05568 21.1099 8.71997L20.74 8.46997L21.25 8.28998C21.9607 8.15764 22.6953 8.26306 23.3401 8.58996C23.6395 8.76033 23.9179 8.96503 24.1699 9.19995L24.6199 9.79992C24.642 9.84507 24.6536 9.89469 24.6536 9.94494C24.6536 9.9952 24.642 10.0448 24.6199 10.09C24.4048 10.5838 24.3155 11.1232 24.3599 11.66C24.3716 11.7268 24.3688 11.7953 24.3516 11.8609C24.3343 11.9265 24.3031 11.9876 24.26 12.04H22.53Z" fill="#935C47"/>
<path d="M19.13 7.20014C19.0189 7.19231 18.9126 7.15211 18.8241 7.08447C18.7356 7.01684 18.6687 6.92474 18.6319 6.81958C18.5952 6.71442 18.5902 6.60078 18.6173 6.49274C18.6444 6.3847 18.7027 6.287 18.7848 6.21167C18.8668 6.13634 18.969 6.08666 19.079 6.06885C19.1889 6.05104 19.3018 6.06587 19.4034 6.11145C19.5051 6.15704 19.5911 6.23142 19.651 6.32538C19.7108 6.41934 19.7418 6.52876 19.7401 6.64014C19.7389 6.71764 19.722 6.79409 19.6903 6.86481C19.6586 6.93553 19.6126 6.99904 19.5555 7.05145C19.4984 7.10387 19.4314 7.14405 19.3583 7.16962C19.2851 7.19519 19.2073 7.20558 19.13 7.20014Z" fill="#885341"/>
<path d="M16.8999 6.05969C17.0514 6.05677 17.1984 6.11226 17.3101 6.21465C17.4218 6.31705 17.4898 6.45849 17.5 6.60967C17.5 6.68755 17.4845 6.76465 17.4541 6.83636C17.4237 6.90806 17.379 6.9729 17.323 7.02703C17.267 7.08116 17.2009 7.12348 17.1282 7.15142C17.0555 7.17936 16.9777 7.19238 16.8999 7.18969C16.8194 7.20042 16.7377 7.19382 16.6599 7.17034C16.5822 7.14686 16.5103 7.10708 16.4492 7.05358C16.3881 7.00008 16.3392 6.93412 16.3057 6.86016C16.2721 6.7862 16.2546 6.7059 16.2546 6.62469C16.2546 6.54347 16.2721 6.46318 16.3057 6.38921C16.3392 6.31525 16.3881 6.24935 16.4492 6.19586C16.5103 6.14236 16.5822 6.10251 16.6599 6.07903C16.7377 6.05555 16.8194 6.04895 16.8999 6.05969Z" fill="#885341"/>
<path d="M18.6199 4.47974C18.6102 4.62742 18.5504 4.76737 18.4504 4.87646C18.3504 4.98556 18.2164 5.05726 18.0701 5.07971C17.9137 5.07551 17.7641 5.01415 17.6499 4.90729C17.5357 4.80042 17.4646 4.65544 17.45 4.49969C17.4686 4.35771 17.5381 4.22733 17.6458 4.13287C17.7534 4.03842 17.8917 3.98633 18.0349 3.98633C18.1781 3.98633 18.3164 4.03842 18.4241 4.13287C18.5317 4.22733 18.6013 4.35771 18.6199 4.49969V4.47974Z" fill="#885341"/>
<path d="M20.7999 4.19983L20.8798 4.40985C20.7698 5.00985 20.3198 5.25982 19.8798 4.93982C19.7702 4.85453 19.6963 4.73158 19.6722 4.59485C19.6482 4.45811 19.676 4.31734 19.7499 4.19983C19.8266 4.078 19.9457 3.989 20.0844 3.95019C20.223 3.91138 20.3711 3.9255 20.4999 3.9898C20.6071 4.04886 20.7077 4.11929 20.7999 4.19983Z" fill="#885341"/>
<path d="M21.3301 6.0498C21.7401 6.0498 21.99 6.2998 21.98 6.6098C21.9813 6.68729 21.9674 6.76428 21.939 6.83636C21.9106 6.90845 21.8681 6.97425 21.8142 7.02997C21.7604 7.08569 21.6961 7.13027 21.625 7.16113C21.5539 7.19199 21.4774 7.20854 21.3999 7.20984C21.2496 7.20727 21.1061 7.14638 20.9998 7.04004C20.8934 6.9337 20.8327 6.7902 20.8301 6.63983C20.824 6.49664 20.872 6.35641 20.9646 6.24707C21.0573 6.13773 21.1879 6.06728 21.3301 6.0498Z" fill="#885341"/>
<path d="M24.2199 12.0405C24.1243 11.2737 24.253 10.4957 24.5901 9.80042C24.9676 9.2077 25.5195 8.7466 26.1699 8.48047C26.7299 8.77067 27.208 9.19708 27.56 9.72046C27.9922 10.4115 28.1358 11.2446 27.9599 12.0405H24.2199Z" fill="#A96B54"/>
</g>
<defs>
<clipPath id="clip0_1907_4366">
<rect width="38.31" height="36.22" fill="white"/>
</clipPath>
</defs>
</svg>
