<svg width="91" height="91" viewBox="0 0 91 91" fill="none" xmlns="http://www.w3.org/2000/svg">
<path d="M85.3266 91H5.71631C5.52403 90.9335 5.33414 90.8552 5.13712 90.803C2.42149 90.0765 0.323034 87.7548 0.0832793 85.0153C-0.0121043 83.478 -0.0255564 81.9367 0.0429432 80.398C0.0927931 77.6324 1.39601 75.6003 3.84103 74.3492C4.43686 74.043 4.62202 73.7296 4.62202 73.0816C4.60303 57.9184 4.60303 42.7553 4.62202 27.5922C4.637 27.3185 4.58871 27.0451 4.48085 26.7931C4.37298 26.5411 4.20842 26.3174 4.00006 26.1394C1.41736 23.7132 0.0666836 20.7149 0.0453193 17.1517C0.0279114 14.2792 0.0279114 11.4067 0.0453193 8.53429C0.0602928 6.27386 0.965998 4.11052 2.56586 2.51368C4.16573 0.916837 6.33069 0.0153227 8.59102 0.00474802C33.2248 -0.00474772 57.8586 -4.29553e-07 82.4923 0.018991C85.9628 0.018991 88.5052 1.75671 90.0885 4.82146C90.4897 5.59062 90.7009 6.45947 91 7.28323V18.6591C90.9346 18.7545 90.8842 18.8594 90.8505 18.9701C90.4066 21.8948 89.0369 24.3115 86.8886 26.3293C86.6265 26.5863 86.4692 26.9315 86.4471 27.2979C86.4249 42.6493 86.4154 57.9928 86.4186 73.3284C86.4186 73.8032 86.5895 74.0406 87.0049 74.278C87.7622 74.7196 88.631 75.1516 89.1271 75.8258C89.8962 76.8727 90.3899 78.119 91 79.2799V85.3239C90.3852 86.5109 89.8915 87.7667 89.1295 88.8397C88.2417 90.0908 86.7652 90.5703 85.3266 91ZM16.4008 73.5634V62.6861C16.4008 56.3762 16.4008 50.0671 16.4008 43.7587C16.4008 39.9343 18.9313 37.1117 22.7555 36.9337C26.1809 36.777 29.6206 36.8957 33.0555 36.9099C33.4697 36.9167 33.8816 36.9725 34.2827 37.0761C37.4137 37.8571 39.3223 40.3854 39.327 43.8133C39.3365 53.3803 39.3365 62.9472 39.327 72.5142V73.554H83.6958V28.4943C75.8314 30.4362 71.6132 28.9525 67.5967 22.8088C65.1184 27.0082 61.5102 29.4392 56.6036 29.4558C51.6969 29.4724 48.0318 27.0581 45.5084 22.8088C42.9637 27.1103 39.3223 29.4819 34.4133 29.4558C29.5042 29.4297 25.9127 27.0082 23.4202 22.7755C21.7917 25.6978 19.5177 27.7109 16.4507 28.7887C13.3838 29.8665 10.3548 29.6552 7.34477 28.4279V73.5634H16.4008ZM45.5227 76.322C32.9099 76.322 20.2962 76.322 7.68183 76.322C7.23806 76.3164 6.79435 76.3346 6.35253 76.3766C4.59592 76.5665 3.14549 77.7867 2.8725 79.5363C2.6731 80.8111 2.71584 82.1286 2.70872 83.4271C2.68973 86.7364 4.29444 88.3341 7.59403 88.3341H62.0467C69.3011 88.3341 76.5555 88.3341 83.8098 88.3341C86.6204 88.3341 88.3342 86.6058 88.3461 83.7856C88.3461 82.6912 88.3651 81.5945 88.3461 80.4977C88.3489 79.8567 88.2044 79.2236 87.9237 78.6474C87.643 78.0711 87.2336 77.5671 86.7272 77.1742C85.7919 76.4264 84.6952 76.3077 83.5463 76.3077C70.8686 76.322 58.1925 76.3267 45.5179 76.322H45.5227ZM36.6518 73.573V72.6898C36.6518 63.0643 36.6518 53.4372 36.6518 43.8086C36.6518 41.1972 35.0803 39.6115 32.4596 39.602C29.4995 39.5901 26.5251 39.6945 23.5769 39.5687C20.942 39.4595 19.0666 41.259 19.0785 44.0792C19.1378 53.5868 19.1022 63.0944 19.1022 72.602V73.5753L36.6518 73.573ZM44.1126 2.71578H24.8658V15.6727H44.1126V2.71578ZM66.2151 2.71578H46.9659V15.6775H66.2151V2.71578ZM22.0624 2.68492C17.4097 2.68492 12.852 2.59471 8.29429 2.72053C6.93916 2.73461 5.63701 3.24895 4.63802 4.16474C3.63903 5.08053 3.01365 6.33318 2.882 7.68205C2.64462 10.3147 2.82979 12.9878 2.82979 15.6917H22.0576L22.0624 2.68492ZM69.0162 15.6751H88.3556C88.3556 13.4436 88.3556 11.2833 88.3556 9.1254C88.3556 5.20366 85.8251 2.67305 81.9155 2.66593C77.918 2.66593 73.9213 2.66593 69.9254 2.66593H69.0162V15.6751ZM47.0371 18.5001C47.6638 23.2669 52.0031 26.9489 56.7057 26.7946C61.553 26.6332 65.8472 22.8444 66.0656 18.5001H47.0371ZM24.9608 18.5143C25.5637 23.2313 29.8413 26.8943 34.5842 26.797C39.3816 26.6996 43.5738 23.0295 44.0082 18.5143H24.9608ZM69.161 18.5001C69.2726 22.8372 74.0771 26.9347 78.7749 26.7946C83.5866 26.6498 88.2701 22.5049 88.104 18.5001H69.161ZM2.90101 18.5001C3.25471 23.1245 8.12339 27.1341 12.8164 26.7756C17.6281 26.4076 22.1692 22.2651 21.8369 18.5001H2.90101Z" fill="white"/>
<path d="M61.9161 58.9065C58.5121 58.9065 55.1057 58.84 51.7088 58.9231C47.4359 59.0275 44.8034 55.5782 44.9624 52.2025C45.1049 49.1876 44.9815 46.1632 44.9981 43.1412C44.986 41.5859 45.5614 40.0834 46.6093 38.9342C47.6573 37.785 49.1004 37.0738 50.6501 36.9428C51.2364 36.8859 51.837 36.874 52.4233 36.874C58.994 36.874 65.5663 36.874 72.1401 36.874C75.378 36.874 77.7399 38.4835 78.5993 41.2776C78.7996 41.9568 78.9028 42.6609 78.9055 43.3691C78.9387 46.3578 78.9245 49.349 78.9197 52.3402C78.9197 56.2002 76.2848 58.8637 72.4013 58.8993C68.9047 58.9278 65.4104 58.9065 61.9161 58.9065ZM61.9399 56.1907C65.4341 56.1907 68.9284 56.1907 72.4226 56.1907C74.7086 56.1907 76.2207 54.7283 76.2207 52.4304C76.2492 49.4076 76.2492 46.3863 76.2207 43.3667C76.197 41.0687 74.7086 39.6135 72.4226 39.6088C65.4341 39.5993 58.4465 39.5993 51.4596 39.6088C49.1214 39.6088 47.6615 41.1043 47.6615 43.4593C47.6615 46.4204 47.6615 49.3822 47.6615 52.3449C47.6615 54.7188 49.1522 56.1883 51.5569 56.1931C55.0163 56.1931 58.4773 56.1907 61.9399 56.1859V56.1907Z" fill="white"/>
<path d="M61.8758 52.4351C60.6628 52.4351 59.4498 52.4351 58.2344 52.4351C57.3561 52.4232 56.7603 51.8749 56.7603 51.12C56.7603 50.3651 57.3585 49.7858 58.2273 49.7811C60.7119 49.7652 63.198 49.7652 65.6858 49.7811C66.5499 49.7811 67.1291 50.3864 67.1101 51.1556C67.0911 51.9247 66.5451 52.4209 65.7001 52.4327C64.4206 52.447 63.1482 52.4327 61.8758 52.4351Z" fill="white"/>
<path d="M55.2885 46.251C55.2851 46.4954 55.2336 46.7368 55.1369 46.9613C55.0402 47.1858 54.9002 47.389 54.725 47.5594C54.5497 47.7298 54.3426 47.864 54.1155 47.9544C53.8884 48.0448 53.6458 48.0895 53.4014 48.0861C53.157 48.0826 52.9156 48.0311 52.6911 47.9344C52.4666 47.8377 52.2634 47.6977 52.093 47.5225C51.9227 47.3472 51.7884 47.1401 51.6981 46.913C51.6077 46.6859 51.563 46.4432 51.5664 46.1988C51.5733 45.7052 51.776 45.2345 52.13 44.8904C52.4839 44.5463 52.96 44.3568 53.4536 44.3637C53.9472 44.3707 54.4178 44.5734 54.7619 44.9273C55.106 45.2813 55.2954 45.7574 55.2885 46.251Z" fill="white"/>
<path d="M68.6008 46.2392C68.5944 45.9957 68.6374 45.7534 68.7273 45.527C68.8172 45.3006 68.9521 45.0948 69.1239 44.9221C69.2957 44.7495 69.5007 44.6135 69.7267 44.5224C69.9526 44.4313 70.1946 44.387 70.4382 44.3922C70.9306 44.3833 71.4066 44.5695 71.7624 44.9101C72.1181 45.2508 72.3248 45.7183 72.3372 46.2107C72.3366 46.7164 72.1371 47.2015 71.7818 47.5614C71.4264 47.9212 70.9438 48.1267 70.4382 48.1336C69.9461 48.1176 69.4794 47.9111 69.1367 47.5577C68.7939 47.2042 68.6018 46.7315 68.6008 46.2392Z" fill="white"/>
</svg>
