<svg fill="none" height="26" viewBox="0 0 25 26" width="25" xmlns="http://www.w3.org/2000/svg"><g fill="#000"><path d="m11.3932 21.1255c.3336 1.5564-.0657 2.7024-1.1632 3.4126-.49062.3184-1.06664.4805-1.65169.4648-.58506-.0157-1.1515-.2085-1.62419-.5528-1.05426-.7654-1.40141-1.9466-.99013-3.4318-.8883-.2839-1.55533-.8341-1.9161-1.7107-.23322-.5588-.27659-1.1785-.12347-1.7643.17261-.7079.61265-1.3219 1.22824-1.7139.63176-.4183 1.33807-.5014 2.10692-.4574-.0473-.1424-.08017-.2544-.12026-.3631-1.59862-4.2527-3.19512-8.50557-4.78947-12.75875-.09942-.26792-.22608-.3495-.49466-.32791-.30016.016-.60097.016-.90113 0-.253763-.00211-.496419-.10415-.67511-.2839-.178691-.17976-.27894665-.42267-.27893784-.675822-.00063517-.125378.02361354-.249651.07134434-.365637.0477305-.115986.1180005-.221416.2067615-.310184s.194254-.159104.310402-.2070106c.116149-.0479064.240658-.0724068.366342-.07208859.641378-.01013041 1.282748-.01013041 1.924128 0 .50829.00799769.79449.30469319.96205.76056219.82043 2.1983 1.64487 4.39499 2.47331 6.59009.96527 2.57046 1.92948 5.14145 2.89261 7.71295.08017.2192.17796.2991.42409.2983 3.78895-.0096 7.57815-.0119 11.36755-.0071h.3159c.5356-3.1991 1.0671-6.38141 1.6035-9.59728h-14.04778c-.13014.00619-.26057.00032-.38962-.01757-.22974-.04577-.43484-.17362-.57683-.35951-.14198-.18589-.2111-.41706-.19438-.65016.01673-.23311.11815-.45214.28522-.61596.16708-.16382.38835-.26117.62228-.27383.09059-.0048.18039 0 .27099 0h14.94642c.9052 0 1.2828.43586 1.1344 1.32521-.6226 3.74345-1.2472 7.4869-1.8736 11.2304-.0994.5974-.4642.8797-1.1224.8797h-15.00895c-.13005-.006-.26039-.0012-.38964.0144-.23071.0413-.43837.1652-.58399.3484s-.21919.4131-.20689.6466c.01231.2335.10964.4545.27371.6215.16408.1669.38361.2684.61738.2853.09942.0072.20043 0 .30065 0h7.39823c.7328 0 1.2082.6551.9581 1.3029-.1467.3783-.4963.6126-.9436.6142-.8819.004-1.7638 0-2.6457 0zm-1.77176.9469c-.00211-.1902-.06085-.3755-.16876-.5324-.10791-.1568-.26011-.2782-.43728-.3486-.17718-.0704-.37134-.0866-.5578-.0467-.18647.0399-.35684.1342-.48947.2709s-.22153.3096-.25543.4969c-.0339.1872-.01127.3802.06504.5546.07631.1743.20285.3221.36354.4246.16068.1024.34828.155.53894.1509.25252-.0079.49198-.1138.66745-.2951.17548-.1814.27313-.4238.27217-.6759z"/><path d="m17.3219 22.0943c-.0017-.5693.1658-1.1264.4815-1.6008.3156-.4744.7651-.8448 1.2917-1.0644s1.1067-.2784 1.6668-.1692c.5602.1093 1.0753.3817 1.4802.783.405.4013.6816.9133.7948 1.4714.1133.558.0581 1.137-.1585 1.6638s-.5849.9777-1.0583 1.2957c-.4735.318-1.0308.4889-1.6015.4909-.7653.0013-1.4999-.3001-2.0429-.8381-.5429-.5381-.8499-1.2688-.8538-2.0323zm3.8483.0049c.0027-.1902-.0513-.3768-.1551-.5363s-.2528-.2846-.428-.3595-.3687-.0962-.5561-.0611c-.1874.035-.3601.1248-.4962.2579s-.2296.3035-.2684.4897c-.0389.1861-.0215.3796.0501.5559.0715.1762.1939.3273.3517.434.1577.1068.3437.1644.5343.1655.2538.0015.4979-.0971.6792-.2743.1812-.1772.2849-.4187.2885-.6718z"/></g></svg>