<svg width="19" height="19" viewBox="0 0 19 19" fill="none" xmlns="http://www.w3.org/2000/svg">
<path d="M19 8.82904C18.9261 8.95543 18.8727 9.1018 18.7737 9.20402C18.6789 9.30811 18.5542 9.38036 18.4167 9.41088C18.2793 9.44141 18.1357 9.42872 18.0058 9.37455C17.7126 9.26629 17.5519 9.04325 17.5207 8.73193C17.5145 8.63913 17.513 8.54608 17.5161 8.45313C17.5161 7.16044 17.5161 5.86791 17.5161 4.57554C17.5161 3.58813 16.8931 2.96641 15.9067 2.96502H15.0663C15.0663 3.22662 15.0756 3.47615 15.0663 3.72846C15.063 3.85892 15.0252 3.98617 14.9567 4.09722C14.8881 4.20827 14.7914 4.29915 14.6762 4.36057C14.5611 4.42199 14.4318 4.45176 14.3014 4.44683C14.171 4.4419 14.0442 4.40246 13.9341 4.33252C13.8275 4.2681 13.7395 4.17702 13.6788 4.06824C13.6181 3.95947 13.5868 3.83676 13.588 3.7122C13.5819 3.4715 13.588 3.23127 13.588 2.97757H10.2081V3.54817C10.2081 4.10576 9.9293 4.4445 9.47121 4.44775C9.01313 4.45101 8.72462 4.10809 8.72415 3.53935V2.97571H5.38513C5.38513 3.21362 5.38931 3.45803 5.38513 3.70244C5.38599 3.85823 5.33769 4.01031 5.2471 4.13704C5.15651 4.26377 5.02824 4.35868 4.88058 4.40826C4.77028 4.44584 4.65265 4.45676 4.53732 4.44012C4.422 4.42349 4.31225 4.37977 4.21707 4.31254C4.12189 4.24532 4.04397 4.1565 3.98972 4.05336C3.93547 3.95022 3.90642 3.8357 3.90494 3.71917C3.89611 3.47383 3.90494 3.22802 3.90494 2.94551C3.46683 2.96688 3.04126 2.94132 2.63474 3.01799C1.97131 3.14345 1.53273 3.72103 1.49463 4.41663C1.49463 4.46634 1.49463 4.5156 1.49463 4.56531C1.49463 8.34982 1.49463 12.1348 1.49463 15.9202C1.49463 16.5629 1.74458 17.0703 2.33554 17.3481C2.57211 17.4522 2.82787 17.5056 3.08633 17.5047C4.90985 17.5173 6.73384 17.5126 8.55783 17.5098C8.79709 17.5098 9.01173 17.5614 9.18317 17.7361C9.26583 17.8203 9.32712 17.9231 9.36189 18.0358C9.39666 18.1486 9.40391 18.268 9.38303 18.3842C9.36214 18.5003 9.31373 18.6097 9.24186 18.7033C9.16998 18.7969 9.07673 18.8718 8.96992 18.9219C8.9151 18.9484 8.85842 18.9712 8.80267 18.9958H2.63985C2.62004 18.9823 2.59825 18.972 2.57527 18.9652C1.1815 18.7956 -0.00831884 17.5498 4.38175e-05 15.9142C0.0186275 12.1305 0.00468656 8.34672 0.0084033 4.56299C0.00598584 4.32917 0.0268388 4.09569 0.070657 3.866C0.354058 2.48084 1.52809 1.5111 2.94323 1.48415C3.25683 1.47857 3.57043 1.48415 3.90215 1.48415C3.90215 1.21929 3.89472 0.973025 3.90215 0.728149C3.9037 0.611658 3.93281 0.497189 3.98709 0.394112C4.04137 0.291034 4.11929 0.202273 4.21446 0.1351C4.30964 0.0679258 4.41935 0.0242485 4.53465 0.0076355C4.64994 -0.00897751 4.76753 0.00194604 4.8778 0.0395185C5.02546 0.0890979 5.15372 0.184013 5.24431 0.310743C5.3349 0.437472 5.3832 0.589557 5.38234 0.745341C5.38745 0.989753 5.38234 1.23369 5.38234 1.47253H8.72601C8.72601 1.2402 8.72601 1.02042 8.72601 0.798773C8.73065 0.329465 9.03961 -0.00137047 9.46936 2.35097e-05C9.8991 0.00141749 10.2043 0.332718 10.2085 0.804348C10.2085 1.02506 10.2085 1.24578 10.2085 1.47161H13.5842C13.5842 1.24532 13.5842 1.02971 13.5842 0.814575C13.587 0.331328 13.8946 -0.00322912 14.3313 2.35097e-05C14.768 0.00327613 15.064 0.334579 15.0672 0.807139C15.0672 1.02785 15.0672 1.2481 15.0672 1.48554C15.4333 1.48554 15.7785 1.46975 16.1223 1.4888C17.2945 1.55292 18.1619 2.11144 18.6901 3.15693C18.8402 3.45384 18.8987 3.7963 18.9995 4.11785L19 8.82904Z" fill="#008036"/>
<path d="M14.1404 18.9967C13.7111 18.8894 13.2683 18.8197 12.8558 18.6673C10.9412 17.9619 9.72628 15.8282 10.084 13.8195C10.4013 12.0398 11.4174 10.8094 13.1271 10.2523C14.8777 9.68169 16.4457 10.1083 17.7489 11.4139C18.4564 12.1221 18.8467 12.9994 18.967 13.9951C18.9753 14.0431 18.9863 14.0906 19 14.1373V14.8808C18.9875 14.9407 18.9726 14.9997 18.9633 15.0601C18.6845 16.8342 17.7182 18.0646 16.0457 18.7161C15.6768 18.8597 15.2712 18.908 14.8842 19L14.1404 18.9967ZM14.5023 17.5098C15.2992 17.5097 16.0636 17.1939 16.6283 16.6316C17.193 16.0692 17.5121 15.3061 17.5156 14.5091C17.5144 13.7152 17.2002 12.9539 16.6411 12.3904C16.0821 11.827 15.3234 11.5068 14.5297 11.4994C13.7327 11.4972 12.9673 11.8107 12.4009 12.3714C11.8344 12.9321 11.5131 13.6943 11.5071 14.4914C11.5053 15.2887 11.8196 16.0542 12.3809 16.6203C12.9423 17.1864 13.7051 17.5069 14.5023 17.5117V17.5098Z" fill="#008036"/>
<path d="M5.38419 7.78867C5.38419 7.98584 5.30588 8.17494 5.16647 8.31437C5.02707 8.4538 4.838 8.53212 4.64085 8.53212C4.44378 8.53077 4.25532 8.45121 4.11688 8.31092C3.97845 8.17064 3.90138 7.98112 3.90262 7.78402C3.90515 7.59014 3.98331 7.40491 4.12044 7.26785C4.25757 7.13079 4.44281 7.05273 4.63667 7.05032C4.83366 7.04921 5.02303 7.12634 5.1632 7.26478C5.30336 7.40323 5.38284 7.59165 5.38419 7.78867Z" fill="#008036"/>
<path d="M8.61172 7.79656C8.60927 7.99366 8.52866 8.18173 8.38761 8.3194C8.24656 8.45707 8.05662 8.53308 7.85954 8.53073C7.66255 8.52694 7.47512 8.44509 7.33843 8.30316C7.20175 8.16123 7.127 7.97082 7.1306 7.7738C7.13545 7.57986 7.2159 7.3955 7.35478 7.26007C7.49367 7.12464 7.67998 7.04887 7.87395 7.04893C8.07086 7.0504 8.25913 7.12995 8.39745 7.27012C8.53577 7.41029 8.61284 7.59963 8.61172 7.79656Z" fill="#008036"/>
<path d="M11.1015 7.04893C11.2984 7.05052 11.4866 7.13019 11.6248 7.27045C11.7631 7.41071 11.84 7.60009 11.8388 7.79703C11.8377 7.8947 11.8174 7.9912 11.779 8.08102C11.7406 8.17083 11.6848 8.2522 11.615 8.32046C11.5451 8.38873 11.4625 8.44256 11.3719 8.47888C11.2812 8.5152 11.1843 8.53329 11.0866 8.53212C10.8928 8.52825 10.7083 8.44885 10.5722 8.31084C10.4361 8.17283 10.3593 7.98713 10.3581 7.79331C10.358 7.6956 10.3771 7.59883 10.4144 7.50852C10.4517 7.41821 10.5065 7.33614 10.5755 7.26701C10.6446 7.19787 10.7265 7.14303 10.8168 7.10561C10.907 7.06819 11.0038 7.04893 11.1015 7.04893Z" fill="#008036"/>
<path d="M15.0663 7.78262C15.0671 7.8803 15.0486 7.97717 15.012 8.0677C14.9753 8.15824 14.9212 8.24066 14.8527 8.31027C14.7842 8.37987 14.7026 8.43529 14.6127 8.47336C14.5227 8.51142 14.4262 8.53139 14.3285 8.53212C14.1314 8.53212 13.9423 8.45379 13.8029 8.31437C13.6635 8.17494 13.5852 7.98584 13.5852 7.78866C13.5864 7.59484 13.6632 7.40914 13.7992 7.27113C13.9353 7.13313 14.1199 7.05373 14.3137 7.04985C14.5106 7.04737 14.7004 7.12314 14.8415 7.26053C14.9826 7.39791 15.0635 7.58569 15.0663 7.78262Z" fill="#008036"/>
<path d="M5.3842 11.0181C5.3842 11.2152 5.30588 11.4043 5.16648 11.5438C5.02707 11.6832 4.838 11.7615 4.64085 11.7615C4.44378 11.7597 4.25551 11.6796 4.11742 11.539C3.97934 11.3984 3.90274 11.2086 3.90447 11.0115C3.90688 10.8177 3.98486 10.6325 4.12181 10.4954C4.25875 10.3583 4.44383 10.28 4.6376 10.2774C4.73526 10.277 4.83204 10.2958 4.92242 10.3328C5.01281 10.3698 5.09501 10.4242 5.16434 10.493C5.23368 10.5618 5.28879 10.6436 5.32651 10.7336C5.36423 10.8237 5.38383 10.9204 5.3842 11.0181Z" fill="#008036"/>
<path d="M8.61172 11.026C8.60903 11.223 8.52824 11.4109 8.38712 11.5484C8.246 11.6858 8.05607 11.7617 7.85908 11.7592C7.66208 11.7553 7.47469 11.6733 7.3381 11.5313C7.2015 11.3893 7.12687 11.1988 7.1306 11.0018C7.13557 10.8079 7.21607 10.6237 7.35494 10.4884C7.49381 10.353 7.68006 10.2773 7.87395 10.2774C8.07102 10.2789 8.25943 10.3585 8.39778 10.4989C8.53613 10.6393 8.61308 10.8289 8.61172 11.026Z" fill="#008036"/>
<path d="M5.3842 14.2516C5.38224 14.4487 5.30216 14.6368 5.16156 14.7748C5.02096 14.9128 4.83134 14.9894 4.63435 14.9877C4.43728 14.9845 4.24953 14.9031 4.1124 14.7616C3.97527 14.62 3.89997 14.4297 3.90308 14.2326C3.90745 14.0383 3.9877 13.8535 4.12663 13.7177C4.26556 13.5818 4.45214 13.5058 4.64643 13.5058C4.84301 13.5073 5.03101 13.5866 5.16927 13.7264C5.30754 13.8662 5.38482 14.055 5.3842 14.2516Z" fill="#008036"/>
<path d="M7.86791 14.9877C7.67092 14.9861 7.48262 14.9063 7.34438 14.766C7.20613 14.6256 7.12924 14.4361 7.1306 14.2391C7.1317 14.1413 7.15205 14.0448 7.1905 13.9549C7.22896 13.865 7.28476 13.7836 7.35472 13.7153C7.42467 13.647 7.5074 13.5932 7.59817 13.557C7.68894 13.5207 7.78597 13.5027 7.88371 13.504C8.07819 13.508 8.26334 13.5881 8.39945 13.7271C8.53555 13.8661 8.61176 14.0529 8.61172 14.2474C8.61086 14.4441 8.5321 14.6325 8.39269 14.7712C8.25327 14.91 8.06458 14.9878 7.86791 14.9877Z" fill="#008036"/>
<path d="M15.2517 13.767C15.3971 13.767 15.5142 13.7605 15.6303 13.767C15.8204 13.778 15.999 13.8619 16.1288 14.0012C16.2586 14.1406 16.3297 14.3247 16.3272 14.5151C16.3263 14.7025 16.2535 14.8824 16.1238 15.0176C15.9941 15.1529 15.8175 15.2331 15.6303 15.2418C15.2419 15.2562 14.8521 15.2562 14.4642 15.2418C14.2822 15.2357 14.1094 15.16 13.9815 15.0303C13.8536 14.9007 13.7803 14.7269 13.7766 14.5448C13.7633 14.0142 13.7633 13.4832 13.7766 12.952C13.7817 12.7611 13.8615 12.5798 13.9989 12.4471C14.1362 12.3144 14.3202 12.2409 14.5111 12.2424C14.7049 12.2415 14.8914 12.317 15.03 12.4525C15.1687 12.5879 15.2485 12.7725 15.2521 12.9664C15.2591 13.2252 15.2517 13.4845 15.2517 13.767Z" fill="#008036"/>
</svg>
