<svg width="5" height="3" viewBox="0 0 5 3" fill="none" xmlns="http://www.w3.org/2000/svg">
<path d="M2.48324 2.29679C2.19155 2.29679 1.90046 2.30218 1.60877 2.29679C1.48622 2.30378 1.36354 2.28559 1.2483 2.24333C1.13306 2.20107 1.02769 2.13562 0.938715 2.05107C0.849737 1.96651 0.779025 1.86462 0.730951 1.75168C0.682877 1.63874 0.658458 1.51715 0.659196 1.39441C0.659934 1.27166 0.685821 1.15037 0.73525 1.03802C0.784679 0.925661 0.856594 0.82462 0.946582 0.741139C1.03657 0.657659 1.14272 0.593521 1.25846 0.552649C1.3742 0.511777 1.49709 0.495055 1.61955 0.503516C2.20253 0.497526 2.78552 0.497526 3.3685 0.503516C3.49095 0.494982 3.61384 0.511616 3.7296 0.552415C3.84537 0.593214 3.95155 0.65731 4.04158 0.74073C4.13162 0.82415 4.20361 0.925142 4.25311 1.03746C4.30261 1.14978 4.32856 1.27103 4.32938 1.39376C4.3302 1.5165 4.30587 1.63812 4.25787 1.75109C4.20988 1.86406 4.13924 1.96599 4.05033 2.0506C3.96142 2.13522 3.8561 2.20073 3.74089 2.24307C3.62568 2.28541 3.50303 2.30369 3.38048 2.29679C3.0816 2.30218 2.78212 2.29679 2.48324 2.29679Z" fill="white"/>
</svg>
