<svg width="11" height="11" viewBox="0 0 11 11" fill="none" xmlns="http://www.w3.org/2000/svg">
<g clip-path="url(#clip0_313_3985)">
<path d="M5.95834 0.458333C5.95834 0.336775 6.00663 0.220196 6.09258 0.134242C6.17853 0.0482881 6.29511 -4.78351e-07 6.41667 -4.78351e-07C7.63184 0.001334 8.79685 0.484648 9.6561 1.3439C10.5154 2.20315 10.9987 3.36817 11 4.58333C11 4.70489 10.9517 4.82147 10.8658 4.90742C10.7798 4.99338 10.6632 5.04167 10.5417 5.04167C10.4201 5.04167 10.3035 4.99338 10.2176 4.90742C10.1316 4.82147 10.0833 4.70489 10.0833 4.58333C10.0822 3.61121 9.69559 2.67921 9.00819 1.99181C8.32079 1.30442 7.3888 0.917758 6.41667 0.916666C6.29511 0.916666 6.17853 0.868378 6.09258 0.782423C6.00663 0.696469 5.95834 0.57989 5.95834 0.458333ZM6.41667 2.75C6.9029 2.75 7.36922 2.94315 7.71303 3.28697C8.05685 3.63079 8.25 4.0971 8.25 4.58333C8.25 4.70489 8.29829 4.82147 8.38425 4.90742C8.4702 4.99338 8.58678 5.04167 8.70834 5.04167C8.8299 5.04167 8.94647 4.99338 9.03243 4.90742C9.11838 4.82147 9.16667 4.70489 9.16667 4.58333C9.16594 3.85421 8.87598 3.15516 8.36041 2.63959C7.84484 2.12403 7.14579 1.83406 6.41667 1.83333C6.29511 1.83333 6.17853 1.88162 6.09258 1.96758C6.00663 2.05353 5.95834 2.17011 5.95834 2.29167C5.95834 2.41322 6.00663 2.5298 6.09258 2.61576C6.17853 2.70171 6.29511 2.75 6.41667 2.75ZM10.5843 7.67204C10.8499 7.93839 10.9991 8.29918 10.9991 8.67533C10.9991 9.05148 10.8499 9.41228 10.5843 9.67863L10.1672 10.1594C6.41346 13.7532 -2.72112 4.62092 0.817212 0.85525L1.3443 0.396916C1.61094 0.138727 1.96851 -0.00410298 2.33966 -0.000672009C2.71081 0.00275897 3.06568 0.152175 3.3275 0.41525C3.34171 0.429458 4.191 1.53267 4.191 1.53267C4.44301 1.79741 4.58329 2.14909 4.5827 2.5146C4.5821 2.88011 4.44067 3.23133 4.1878 3.49525L3.65705 4.16258C3.95077 4.87626 4.38262 5.52486 4.92778 6.07113C5.47294 6.61739 6.12067 7.05055 6.83375 7.34571L7.50521 6.81175C7.76917 6.55908 8.12032 6.41781 8.48572 6.4173C8.85112 6.41679 9.20267 6.55707 9.46734 6.809C9.46734 6.809 10.5701 7.65783 10.5843 7.67204ZM9.95363 8.33846C9.95363 8.33846 8.85684 7.49467 8.84263 7.48046C8.74821 7.38683 8.62062 7.3343 8.48765 7.3343C8.35468 7.3343 8.22709 7.38683 8.13267 7.48046C8.1203 7.49329 7.19584 8.22983 7.19584 8.22983C7.13354 8.27942 7.0594 8.31192 6.98072 8.32414C6.90204 8.33636 6.82153 8.32786 6.74713 8.2995C5.82334 7.95555 4.98426 7.41709 4.28672 6.72058C3.58918 6.02407 3.04948 5.18578 2.70417 4.2625C2.67355 4.18708 2.66357 4.10487 2.67525 4.02432C2.68693 3.94377 2.71985 3.86778 2.77063 3.80417C2.77063 3.80417 3.50717 2.87925 3.51955 2.86733C3.61317 2.77291 3.6657 2.64532 3.6657 2.51235C3.6657 2.37938 3.61317 2.2518 3.51955 2.15737C3.50534 2.14362 2.66155 1.04592 2.66155 1.04592C2.56571 0.959982 2.44063 0.91396 2.31195 0.917283C2.18327 0.920607 2.06074 0.973024 1.96946 1.06379L1.44238 1.52212C-1.14354 4.63146 6.77234 12.1082 9.49713 9.53333L9.91467 9.05208C10.0125 8.96145 10.0713 8.83633 10.0786 8.70315C10.0858 8.56998 10.041 8.4392 9.95363 8.33846Z" fill="black"/>
</g>
<defs>
<clipPath id="clip0_313_3985">
<rect width="11" height="11" fill="white"/>
</clipPath>
</defs>
</svg>
