<svg width="21" height="21" viewBox="0 0 21 21" fill="none" xmlns="http://www.w3.org/2000/svg">
<path d="M16.625 3.5H16.1805L14.2695 1.022C14.0232 0.70508 13.708 0.448365 13.3478 0.271297C12.9876 0.09423 12.5919 0.00145516 12.1905 0L8.8095 0C8.40814 0.00145516 8.01236 0.09423 7.65217 0.271297C7.29197 0.448365 6.97679 0.70508 6.7305 1.022L4.8195 3.5H4.375C3.2151 3.50139 2.10311 3.96277 1.28294 4.78294C0.462772 5.60311 0.00138938 6.7151 0 7.875L0 16.625C0.00138938 17.7849 0.462772 18.8969 1.28294 19.7171C2.10311 20.5372 3.2151 20.9986 4.375 21H16.625C17.7849 20.9986 18.8969 20.5372 19.7171 19.7171C20.5372 18.8969 20.9986 17.7849 21 16.625V7.875C20.9986 6.7151 20.5372 5.60311 19.7171 4.78294C18.8969 3.96277 17.7849 3.50139 16.625 3.5ZM8.1165 2.09125C8.19846 1.98542 8.30348 1.89968 8.42357 1.84055C8.54365 1.78141 8.67564 1.75045 8.8095 1.75H12.1905C12.3243 1.75058 12.4563 1.7816 12.5763 1.84072C12.6964 1.89985 12.8014 1.98552 12.8835 2.09125L13.9702 3.5H7.02975L8.1165 2.09125ZM19.25 16.625C19.25 17.3212 18.9734 17.9889 18.4812 18.4812C17.9889 18.9734 17.3212 19.25 16.625 19.25H4.375C3.67881 19.25 3.01113 18.9734 2.51884 18.4812C2.02656 17.9889 1.75 17.3212 1.75 16.625V7.875C1.75 7.17881 2.02656 6.51113 2.51884 6.01884C3.01113 5.52656 3.67881 5.25 4.375 5.25H16.625C17.3212 5.25 17.9889 5.52656 18.4812 6.01884C18.9734 6.51113 19.25 7.17881 19.25 7.875V16.625Z" fill="#B3B3B3"/>
<path d="M10.5 7C9.46165 7 8.44662 7.30791 7.58326 7.88478C6.7199 8.46166 6.04699 9.2816 5.64963 10.2409C5.25227 11.2002 5.14831 12.2558 5.35088 13.2742C5.55345 14.2926 6.05347 15.2281 6.78769 15.9623C7.52192 16.6965 8.45738 17.1966 9.47578 17.3991C10.4942 17.6017 11.5498 17.4977 12.5091 17.1004C13.4684 16.703 14.2883 16.0301 14.8652 15.1667C15.4421 14.3034 15.75 13.2884 15.75 12.25C15.7486 10.858 15.195 9.52349 14.2108 8.53922C13.2265 7.55496 11.892 7.00139 10.5 7ZM10.5 15.75C9.80777 15.75 9.13108 15.5447 8.55551 15.1601C7.97993 14.7756 7.53133 14.2289 7.26642 13.5894C7.00152 12.9499 6.93221 12.2461 7.06725 11.5672C7.2023 10.8883 7.53564 10.2646 8.02513 9.77513C8.51461 9.28564 9.13825 8.9523 9.81719 8.81725C10.4961 8.6822 11.1999 8.75151 11.8394 9.01642C12.4789 9.28133 13.0256 9.72993 13.4101 10.3055C13.7947 10.8811 14 11.5578 14 12.25C14 13.1783 13.6313 14.0685 12.9749 14.7249C12.3185 15.3813 11.4283 15.75 10.5 15.75Z" fill="#B3B3B3"/>
</svg>
