<svg width="26" height="21" viewBox="0 0 26 21" fill="none" xmlns="http://www.w3.org/2000/svg">
<path d="M12.9833 20.9968C10.3213 20.9968 7.65929 20.9968 4.9973 20.9968C2.41471 20.9968 0.505202 19.1168 0.50195 16.568C0.498699 13.353 0.498699 10.1379 0.50195 6.92284C0.50195 4.36606 2.40169 2.48522 4.98022 2.47799C5.78336 2.47799 6.58571 2.47238 7.38886 2.48203C7.45809 2.49175 7.52858 2.4771 7.58801 2.44066C7.64745 2.40423 7.69204 2.34833 7.71402 2.2827C7.82945 2.02629 7.95788 1.77551 8.09526 1.52956C8.63991 0.548159 9.4772 0.0233092 10.6153 0.0120565C12.2004 -0.00401883 13.7853 -0.00401883 15.3699 0.0120565C16.5161 0.0225055 17.3624 0.55296 17.9094 1.54722C18.072 1.84622 18.1533 2.27064 18.4053 2.42175C18.6703 2.57768 19.093 2.47075 19.4475 2.47799C20.2181 2.49406 20.9993 2.43782 21.7585 2.5407C22.7823 2.67387 23.7229 3.16845 24.4069 3.93328C25.091 4.69811 25.4724 5.68163 25.4808 6.70259C25.5095 10.0591 25.5095 13.4154 25.4808 16.7714C25.4589 19.1264 23.5079 20.9895 21.1261 20.996C18.4094 21.0024 15.6959 20.9968 12.9833 20.9968ZM12.9743 19.7678C15.6271 19.7678 18.279 19.7678 20.9302 19.7678C22.9007 19.7678 24.2257 18.4625 24.2281 16.5222C24.2314 13.3264 24.2314 10.1312 24.2281 6.93649C24.2338 6.71543 24.2194 6.4943 24.185 6.27578C23.9005 4.73335 22.6552 3.72382 21.0074 3.70373C20.0428 3.69248 19.0776 3.69248 18.1118 3.70373C17.7509 3.70775 17.5209 3.56631 17.3713 3.244C17.1933 2.8614 16.9917 2.48926 16.7974 2.1139C16.5015 1.54242 16.0178 1.2418 15.3773 1.23698C13.7926 1.22412 12.2077 1.22412 10.6226 1.23698C9.9682 1.2418 9.48453 1.55126 9.18294 2.13399C8.99516 2.50131 8.79761 2.86381 8.62528 3.23756C8.47083 3.57273 8.2294 3.71016 7.85709 3.70534C6.90274 3.69141 5.94785 3.69141 4.99242 3.70534C3.07804 3.72704 1.7652 5.03558 1.76276 6.92845C1.75789 10.1339 1.76005 13.3393 1.76926 16.5447C1.76694 16.9354 1.82646 17.324 1.94567 17.6965C2.38138 18.9898 3.55195 19.7654 5.02086 19.7686C7.67147 19.7724 10.3226 19.7721 12.9743 19.7678Z" fill="#8391A1"/>
<path d="M6.75794 11.143C6.72055 7.76723 9.49417 4.98458 12.936 4.94922C14.5796 4.94928 16.157 5.59012 17.3258 6.73273C18.4946 7.87535 19.1605 9.42757 19.1793 11.0526C19.198 12.6777 18.5679 14.2445 17.4258 15.4131C16.2836 16.5818 14.7215 17.258 13.0783 17.2951C9.62098 17.3489 6.79615 14.6041 6.75794 11.143ZM12.9856 16.0532C15.7169 16.0653 17.9719 13.8694 17.9906 11.18C18.0101 8.43033 15.7722 6.17818 13.0181 6.17496C12.3621 6.17285 11.7121 6.29852 11.1052 6.54478C10.4984 6.79105 9.94651 7.15309 9.48115 7.61024C9.01578 8.06739 8.64604 8.6107 8.39303 9.20914C8.14003 9.80758 8.0087 10.4494 8.00657 11.098C8.00443 11.7466 8.13153 12.3893 8.38059 12.9894C8.62966 13.5894 8.9958 14.1351 9.45814 14.5952C9.92049 15.0554 10.47 15.421 11.0752 15.6711C11.6805 15.9213 12.3296 16.0511 12.9856 16.0532Z" fill="#8391A1"/>
</svg>
