<svg width="375" height="250" viewBox="0 0 375 250" fill="none" xmlns="http://www.w3.org/2000/svg">
<g filter="url(#filter0_d_306_3111)">
<rect x="19" y="10" width="339" height="200" rx="20" fill="url(#paint0_linear_306_3111)"/>
<mask id="mask0_306_3111" style="mask-type:alpha" maskUnits="userSpaceOnUse" x="19" y="10" width="339" height="200">
<path d="M19 20C19 14.4772 23.6415 10 29.367 10H347.633C353.359 10 358 14.4772 358 20V200C358 205.523 353.359 210 347.633 210H29.367C23.6415 210 19 205.523 19 200V20Z" fill="url(#paint1_linear_306_3111)"/>
</mask>
<g mask="url(#mask0_306_3111)">
<g style="mix-blend-mode:hard-light" opacity="0.5">
<path fill-rule="evenodd" clip-rule="evenodd" d="M25.289 301C78.8226 301 122.22 259.139 122.22 207.5C122.22 155.861 78.8226 114 25.289 114C-28.2446 114 -71.6422 155.861 -71.6422 207.5C-71.6422 259.139 -28.2446 301 25.289 301ZM25.289 288.738C71.8018 288.738 109.508 252.366 109.508 207.5C109.508 162.634 71.8018 126.262 25.289 126.262C-21.2238 126.262 -58.9299 162.634 -58.9299 207.5C-58.9299 252.366 -21.2238 288.738 25.289 288.738Z" fill="#91A99C"/>
</g>
<g style="mix-blend-mode:hard-light" opacity="0.5">
<path fill-rule="evenodd" clip-rule="evenodd" d="M16.9954 236C70.529 236 113.927 194.139 113.927 142.5C113.927 90.8614 70.529 49 16.9954 49C-36.5382 49 -79.9358 90.8614 -79.9358 142.5C-79.9358 194.139 -36.5382 236 16.9954 236ZM16.9954 223.738C63.5082 223.738 101.214 187.366 101.214 142.5C101.214 97.6337 63.5082 61.2623 16.9954 61.2623C-29.5174 61.2623 -67.2235 97.6337 -67.2235 142.5C-67.2235 187.366 -29.5174 223.738 16.9954 223.738Z" fill="#02B558"/>
</g>
<g style="mix-blend-mode:hard-light" opacity="0.5">
<path d="M152.513 168.89L166.337 161.191L166.337 176.588L152.513 168.89Z" fill="#02B558"/>
<path d="M138.807 168.89L152.631 161.191L152.631 176.588L138.807 168.89Z" fill="#91A99C"/>
</g>
</g>
<path d="M55.704 138.8H57.952L62.024 150H59.952L59.232 148.016H54.432L53.712 150H51.64L55.704 138.8ZM55.144 146.064H58.512L56.824 141.448L55.144 146.064ZM66.7264 150.208C66.1077 150.208 65.513 150.112 64.9424 149.92C64.377 149.723 63.881 149.443 63.4544 149.08C63.0277 148.712 62.721 148.272 62.5344 147.76L64.3664 147.088C64.441 147.301 64.593 147.496 64.8224 147.672C65.0517 147.848 65.3317 147.989 65.6624 148.096C65.993 148.203 66.3477 148.256 66.7264 148.256C67.1157 148.256 67.4784 148.197 67.8144 148.08C68.1557 147.957 68.4304 147.789 68.6384 147.576C68.8464 147.357 68.9504 147.104 68.9504 146.816C68.9504 146.523 68.841 146.283 68.6224 146.096C68.4037 145.904 68.1237 145.752 67.7824 145.64C67.441 145.528 67.089 145.443 66.7264 145.384C65.9317 145.261 65.2197 145.072 64.5904 144.816C63.961 144.56 63.4624 144.205 63.0944 143.752C62.7317 143.299 62.5504 142.712 62.5504 141.992C62.5504 141.315 62.745 140.723 63.1344 140.216C63.5237 139.709 64.0357 139.315 64.6704 139.032C65.305 138.749 65.9904 138.608 66.7264 138.608C67.3397 138.608 67.9317 138.704 68.5024 138.896C69.073 139.088 69.5717 139.368 69.9984 139.736C70.4304 140.104 70.7397 140.547 70.9264 141.064L69.0864 141.728C69.0117 141.515 68.8597 141.32 68.6304 141.144C68.401 140.968 68.121 140.829 67.7904 140.728C67.4597 140.621 67.105 140.568 66.7264 140.568C66.3477 140.563 65.9877 140.624 65.6464 140.752C65.3104 140.875 65.0357 141.043 64.8224 141.256C64.609 141.469 64.5024 141.715 64.5024 141.992C64.5024 142.349 64.601 142.619 64.7984 142.8C65.001 142.981 65.2704 143.115 65.6064 143.2C65.9424 143.28 66.3157 143.355 66.7264 143.424C67.473 143.541 68.1637 143.739 68.7984 144.016C69.433 144.293 69.9424 144.664 70.3264 145.128C70.7104 145.587 70.9024 146.149 70.9024 146.816C70.9024 147.493 70.7104 148.088 70.3264 148.6C69.9424 149.107 69.433 149.501 68.7984 149.784C68.1637 150.067 67.473 150.208 66.7264 150.208ZM72.9656 150V138.8H74.9176V150H72.9656ZM77.085 150V138.8H83.701V140.752H79.037V143.024H82.933V144.976H79.037V150H77.085ZM92.4071 138.8H94.6551L98.7271 150H96.6551L95.9351 148.016H91.1351L90.4151 150H88.3431L92.4071 138.8ZM91.8471 146.064H95.2151L93.5271 141.448L91.8471 146.064ZM100.069 150V138.8H102.021V148.048H106.685V150H100.069ZM108.684 150V138.8H110.636V150H108.684ZM123.24 138.8H125.192V150H123.24V144.976H118.6V150H116.648V138.8H118.6V143.024H123.24V138.8ZM131.604 150.208C130.708 150.208 129.922 149.989 129.244 149.552C128.572 149.115 128.05 148.528 127.676 147.792C127.303 147.051 127.116 146.229 127.116 145.328V138.8H129.068V145.328C129.068 145.861 129.167 146.352 129.364 146.8C129.567 147.243 129.855 147.597 130.228 147.864C130.607 148.125 131.066 148.256 131.604 148.256C132.148 148.256 132.607 148.125 132.98 147.864C133.354 147.597 133.636 147.243 133.828 146.8C134.026 146.352 134.124 145.861 134.124 145.328V138.8H136.076V145.328C136.076 146.005 135.97 146.64 135.756 147.232C135.543 147.819 135.239 148.336 134.844 148.784C134.45 149.232 133.978 149.581 133.428 149.832C132.884 150.083 132.276 150.208 131.604 150.208ZM142.023 150.208C141.405 150.208 140.81 150.112 140.239 149.92C139.674 149.723 139.178 149.443 138.751 149.08C138.325 148.712 138.018 148.272 137.831 147.76L139.663 147.088C139.738 147.301 139.89 147.496 140.119 147.672C140.349 147.848 140.629 147.989 140.959 148.096C141.29 148.203 141.645 148.256 142.023 148.256C142.413 148.256 142.775 148.197 143.111 148.08C143.453 147.957 143.727 147.789 143.935 147.576C144.143 147.357 144.247 147.104 144.247 146.816C144.247 146.523 144.138 146.283 143.919 146.096C143.701 145.904 143.421 145.752 143.079 145.64C142.738 145.528 142.386 145.443 142.023 145.384C141.229 145.261 140.517 145.072 139.887 144.816C139.258 144.56 138.759 144.205 138.391 143.752C138.029 143.299 137.847 142.712 137.847 141.992C137.847 141.315 138.042 140.723 138.431 140.216C138.821 139.709 139.333 139.315 139.967 139.032C140.602 138.749 141.287 138.608 142.023 138.608C142.637 138.608 143.229 138.704 143.799 138.896C144.37 139.088 144.869 139.368 145.295 139.736C145.727 140.104 146.037 140.547 146.223 141.064L144.383 141.728C144.309 141.515 144.157 141.32 143.927 141.144C143.698 140.968 143.418 140.829 143.087 140.728C142.757 140.621 142.402 140.568 142.023 140.568C141.645 140.563 141.285 140.624 140.943 140.752C140.607 140.875 140.333 141.043 140.119 141.256C139.906 141.469 139.799 141.715 139.799 141.992C139.799 142.349 139.898 142.619 140.095 142.8C140.298 142.981 140.567 143.115 140.903 143.2C141.239 143.28 141.613 143.355 142.023 143.424C142.77 143.541 143.461 143.739 144.095 144.016C144.73 144.293 145.239 144.664 145.623 145.128C146.007 145.587 146.199 146.149 146.199 146.816C146.199 147.493 146.007 148.088 145.623 148.6C145.239 149.107 144.73 149.501 144.095 149.784C143.461 150.067 142.77 150.208 142.023 150.208ZM152.008 150.208C151.389 150.208 150.794 150.112 150.224 149.92C149.658 149.723 149.162 149.443 148.736 149.08C148.309 148.712 148.002 148.272 147.816 147.76L149.648 147.088C149.722 147.301 149.874 147.496 150.104 147.672C150.333 147.848 150.613 147.989 150.944 148.096C151.274 148.203 151.629 148.256 152.008 148.256C152.397 148.256 152.76 148.197 153.096 148.08C153.437 147.957 153.712 147.789 153.92 147.576C154.128 147.357 154.232 147.104 154.232 146.816C154.232 146.523 154.122 146.283 153.904 146.096C153.685 145.904 153.405 145.752 153.064 145.64C152.722 145.528 152.37 145.443 152.008 145.384C151.213 145.261 150.501 145.072 149.872 144.816C149.242 144.56 148.744 144.205 148.376 143.752C148.013 143.299 147.832 142.712 147.832 141.992C147.832 141.315 148.026 140.723 148.416 140.216C148.805 139.709 149.317 139.315 149.952 139.032C150.586 138.749 151.272 138.608 152.008 138.608C152.621 138.608 153.213 138.704 153.784 138.896C154.354 139.088 154.853 139.368 155.28 139.736C155.712 140.104 156.021 140.547 156.208 141.064L154.368 141.728C154.293 141.515 154.141 141.32 153.912 141.144C153.682 140.968 153.402 140.829 153.072 140.728C152.741 140.621 152.386 140.568 152.008 140.568C151.629 140.563 151.269 140.624 150.928 140.752C150.592 140.875 150.317 141.043 150.104 141.256C149.89 141.469 149.784 141.715 149.784 141.992C149.784 142.349 149.882 142.619 150.08 142.8C150.282 142.981 150.552 143.115 150.888 143.2C151.224 143.28 151.597 143.355 152.008 143.424C152.754 143.541 153.445 143.739 154.08 144.016C154.714 144.293 155.224 144.664 155.608 145.128C155.992 145.587 156.184 146.149 156.184 146.816C156.184 147.493 155.992 148.088 155.608 148.6C155.224 149.107 154.714 149.501 154.08 149.784C153.445 150.067 152.754 150.208 152.008 150.208ZM160.907 138.8H163.155L167.227 150H165.155L164.435 148.016H159.635L158.915 150H156.843L160.907 138.8ZM160.347 146.064H163.715L162.027 141.448L160.347 146.064ZM168.809 150V138.8H170.761V150H168.809ZM172.929 150V138.8H175.041L179.769 146.472V138.8H181.721V150H179.617L174.881 142.328V150H172.929Z" fill="white"/>
<path d="M177.476 48.208C176.858 48.208 176.263 48.112 175.692 47.92C175.127 47.7227 174.631 47.4427 174.204 47.08C173.778 46.712 173.471 46.272 173.284 45.76L175.116 45.088C175.191 45.3013 175.343 45.496 175.572 45.672C175.802 45.848 176.082 45.9893 176.412 46.096C176.743 46.2027 177.098 46.256 177.476 46.256C177.866 46.256 178.228 46.1973 178.564 46.08C178.906 45.9573 179.18 45.7893 179.388 45.576C179.596 45.3573 179.7 45.104 179.7 44.816C179.7 44.5227 179.591 44.2827 179.372 44.096C179.154 43.904 178.874 43.752 178.532 43.64C178.191 43.528 177.839 43.4427 177.476 43.384C176.682 43.2613 175.97 43.072 175.34 42.816C174.711 42.56 174.212 42.2053 173.844 41.752C173.482 41.2987 173.3 40.712 173.3 39.992C173.3 39.3147 173.495 38.7227 173.884 38.216C174.274 37.7093 174.786 37.3147 175.42 37.032C176.055 36.7493 176.74 36.608 177.476 36.608C178.09 36.608 178.682 36.704 179.252 36.896C179.823 37.088 180.322 37.368 180.748 37.736C181.18 38.104 181.49 38.5467 181.676 39.064L179.836 39.728C179.762 39.5147 179.61 39.32 179.38 39.144C179.151 38.968 178.871 38.8293 178.54 38.728C178.21 38.6213 177.855 38.568 177.476 38.568C177.098 38.5627 176.738 38.624 176.396 38.752C176.06 38.8747 175.786 39.0427 175.572 39.256C175.359 39.4693 175.252 39.7147 175.252 39.992C175.252 40.3493 175.351 40.6187 175.548 40.8C175.751 40.9813 176.02 41.1147 176.356 41.2C176.692 41.28 177.066 41.3547 177.476 41.424C178.223 41.5413 178.914 41.7387 179.548 42.016C180.183 42.2933 180.692 42.664 181.076 43.128C181.46 43.5867 181.652 44.1493 181.652 44.816C181.652 45.4933 181.46 46.088 181.076 46.6C180.692 47.1067 180.183 47.5013 179.548 47.784C178.914 48.0667 178.223 48.208 177.476 48.208ZM191.549 36.8V38.752H188.125V48H186.173V38.752H182.749V36.8H191.549ZM195.36 36.8H197.608L201.68 48H199.608L198.888 46.016H194.088L193.368 48H191.296L195.36 36.8ZM194.8 44.064H198.168L196.48 39.448L194.8 44.064ZM210.221 36.8V38.752H206.797V48H204.845V38.752H201.421V36.8H210.221ZM211.819 48V36.8H218.843V38.752H213.771V41.024H217.795V42.976H213.771V46.048H218.843V48H211.819ZM224.444 48V36.8H228.524C229.116 36.8 229.65 36.9227 230.124 37.168C230.604 37.408 230.983 37.7547 231.26 38.208C231.543 38.656 231.684 39.1867 231.684 39.8C231.684 40.072 231.644 40.3467 231.564 40.624C231.484 40.9013 231.362 41.152 231.196 41.376C231.031 41.5947 230.818 41.7573 230.556 41.864C230.903 41.9493 231.186 42.104 231.404 42.328C231.623 42.552 231.794 42.816 231.916 43.12C232.039 43.4187 232.122 43.7253 232.164 44.04C232.212 44.3493 232.236 44.6373 232.236 44.904C232.236 45.496 232.09 46.024 231.796 46.488C231.503 46.952 231.108 47.32 230.612 47.592C230.122 47.864 229.578 48 228.98 48H224.444ZM226.396 46.328H228.78C229.1 46.328 229.388 46.2507 229.644 46.096C229.9 45.9413 230.106 45.728 230.26 45.456C230.415 45.184 230.492 44.8747 230.492 44.528C230.492 44.2293 230.415 43.9467 230.26 43.68C230.106 43.4133 229.9 43.1973 229.644 43.032C229.388 42.8667 229.1 42.784 228.78 42.784H226.396V46.328ZM226.396 41.136H228.3C228.695 41.136 229.031 41.0133 229.308 40.768C229.591 40.5227 229.732 40.1973 229.732 39.792C229.732 39.36 229.591 39.0347 229.308 38.816C229.031 38.592 228.695 38.48 228.3 38.48H226.396V41.136ZM236.891 36.8H239.14L243.212 48H241.14L240.42 46.016H235.62L234.9 48H232.828L236.891 36.8ZM236.332 44.064H239.7L238.012 39.448L236.332 44.064ZM244.554 48V36.8H246.666L251.394 44.472V36.8H253.346V48H251.242L246.506 40.328V48H244.554ZM263.457 48H260.913L257.769 43.608L257.225 44.256V48H255.273V36.8H257.225V41.224L260.929 36.8H263.481L259.041 42.08L263.457 48ZM273.707 48.208C272.95 48.208 272.238 48.0587 271.571 47.76C270.904 47.456 270.318 47.0373 269.811 46.504C269.304 45.9707 268.907 45.3547 268.619 44.656C268.331 43.952 268.187 43.2 268.187 42.4C268.187 41.6 268.331 40.8507 268.619 40.152C268.907 39.448 269.304 38.8293 269.811 38.296C270.318 37.7627 270.904 37.3467 271.571 37.048C272.238 36.744 272.95 36.592 273.707 36.592C274.47 36.592 275.184 36.744 275.851 37.048C276.518 37.3467 277.104 37.7627 277.611 38.296C278.118 38.8293 278.512 39.448 278.795 40.152C279.083 40.8507 279.227 41.6 279.227 42.4C279.227 43.2 279.083 43.952 278.795 44.656C278.512 45.3547 278.118 45.9707 277.611 46.504C277.104 47.0373 276.518 47.456 275.851 47.76C275.184 48.0587 274.47 48.208 273.707 48.208ZM273.707 46.256C274.198 46.256 274.659 46.1547 275.091 45.952C275.523 45.7493 275.902 45.472 276.227 45.12C276.558 44.7627 276.814 44.352 276.995 43.888C277.182 43.424 277.275 42.928 277.275 42.4C277.275 41.872 277.182 41.376 276.995 40.912C276.808 40.4427 276.55 40.032 276.219 39.68C275.894 39.328 275.515 39.0507 275.083 38.848C274.656 38.6453 274.198 38.544 273.707 38.544C273.216 38.544 272.755 38.6453 272.323 38.848C271.891 39.0507 271.51 39.3307 271.179 39.688C270.854 40.04 270.598 40.448 270.411 40.912C270.23 41.376 270.139 41.872 270.139 42.4C270.139 42.9333 270.232 43.432 270.419 43.896C270.606 44.36 270.862 44.7707 271.187 45.128C271.518 45.48 271.896 45.7573 272.323 45.96C272.755 46.1573 273.216 46.256 273.707 46.256ZM280.679 48V36.8H287.295V38.752H282.631V41.024H286.527V42.976H282.631V48H280.679ZM292.497 48V36.8H294.449V48H292.497ZM296.616 48V36.8H298.728L303.456 44.472V36.8H305.408V48H303.304L298.568 40.328V48H296.616ZM307.335 48V36.8H311.047C311.82 36.8 312.543 36.9467 313.215 37.24C313.892 37.528 314.487 37.9307 314.999 38.448C315.516 38.96 315.919 39.5547 316.207 40.232C316.5 40.904 316.647 41.6267 316.647 42.4C316.647 43.1733 316.5 43.8987 316.207 44.576C315.919 45.248 315.516 45.8427 314.999 46.36C314.487 46.872 313.892 47.2747 313.215 47.568C312.543 47.856 311.82 48 311.047 48H307.335ZM309.287 46.048H311.047C311.543 46.048 312.01 45.9547 312.447 45.768C312.89 45.576 313.279 45.3147 313.615 44.984C313.951 44.648 314.215 44.2613 314.407 43.824C314.599 43.3813 314.695 42.9067 314.695 42.4C314.695 41.8933 314.599 41.4213 314.407 40.984C314.215 40.5467 313.951 40.16 313.615 39.824C313.279 39.488 312.892 39.2267 312.455 39.04C312.018 38.848 311.548 38.752 311.047 38.752H309.287V46.048ZM318.184 48V36.8H320.136V48H318.184ZM326.048 36.8H328.296L332.368 48H330.296L329.576 46.016H324.776L324.056 48H321.984L326.048 36.8ZM325.488 44.064H328.856L327.168 39.448L325.488 44.064Z" fill="white"/>
<path d="M51.6 129V122H54.15C54.52 122 54.8533 122.077 55.15 122.23C55.45 122.38 55.6867 122.597 55.86 122.88C56.0367 123.16 56.125 123.492 56.125 123.875C56.125 124.045 56.1 124.217 56.05 124.39C56 124.563 55.9233 124.72 55.82 124.86C55.7167 124.997 55.5833 125.098 55.42 125.165C55.6367 125.218 55.8133 125.315 55.95 125.455C56.0867 125.595 56.1933 125.76 56.27 125.95C56.3467 126.137 56.3983 126.328 56.425 126.525C56.455 126.718 56.47 126.898 56.47 127.065C56.47 127.435 56.3783 127.765 56.195 128.055C56.0117 128.345 55.765 128.575 55.455 128.745C55.1483 128.915 54.8083 129 54.435 129H51.6ZM52.82 127.955H54.31C54.51 127.955 54.69 127.907 54.85 127.81C55.01 127.713 55.1383 127.58 55.235 127.41C55.3317 127.24 55.38 127.047 55.38 126.83C55.38 126.643 55.3317 126.467 55.235 126.3C55.1383 126.133 55.01 125.998 54.85 125.895C54.69 125.792 54.51 125.74 54.31 125.74H52.82V127.955ZM52.82 124.71H54.01C54.2567 124.71 54.4667 124.633 54.64 124.48C54.8167 124.327 54.905 124.123 54.905 123.87C54.905 123.6 54.8167 123.397 54.64 123.26C54.4667 123.12 54.2567 123.05 54.01 123.05H52.82V124.71ZM60.9755 124H62.1955V129H60.9755L60.9205 128.38C60.7838 128.603 60.6021 128.785 60.3755 128.925C60.1521 129.062 59.8871 129.13 59.5805 129.13C59.2105 129.13 58.8638 129.06 58.5405 128.92C58.2171 128.78 57.9321 128.587 57.6855 128.34C57.4421 128.093 57.2505 127.808 57.1105 127.485C56.9738 127.162 56.9055 126.815 56.9055 126.445C56.9055 126.088 56.9705 125.753 57.1005 125.44C57.2338 125.127 57.4188 124.852 57.6555 124.615C57.8921 124.378 58.1655 124.193 58.4755 124.06C58.7855 123.927 59.1188 123.86 59.4755 123.86C59.8055 123.86 60.1005 123.933 60.3605 124.08C60.6238 124.227 60.8471 124.413 61.0305 124.64L60.9755 124ZM59.5505 127.955C59.8105 127.955 60.0405 127.89 60.2405 127.76C60.4405 127.63 60.5971 127.455 60.7105 127.235C60.8238 127.012 60.8805 126.767 60.8805 126.5C60.8805 126.23 60.8238 125.985 60.7105 125.765C60.5971 125.542 60.4388 125.365 60.2355 125.235C60.0355 125.105 59.8071 125.04 59.5505 125.04C59.2938 125.04 59.0588 125.107 58.8455 125.24C58.6355 125.37 58.4671 125.545 58.3405 125.765C58.2171 125.985 58.1555 126.23 58.1555 126.5C58.1555 126.77 58.2188 127.015 58.3455 127.235C58.4721 127.455 58.6405 127.63 58.8505 127.76C59.0638 127.89 59.2971 127.955 59.5505 127.955ZM67.7718 125.84V129H66.5518V126.16C66.5518 125.963 66.5035 125.785 66.4068 125.625C66.3101 125.462 66.1801 125.333 66.0168 125.24C65.8568 125.143 65.6785 125.095 65.4818 125.095C65.2851 125.095 65.1051 125.143 64.9418 125.24C64.7818 125.333 64.6535 125.462 64.5568 125.625C64.4635 125.785 64.4168 125.963 64.4168 126.16V129H63.1968L63.1918 124H64.4118L64.4168 124.445C64.5868 124.265 64.7901 124.123 65.0268 124.02C65.2635 123.913 65.5185 123.86 65.7918 123.86C66.1551 123.86 66.4868 123.95 66.7868 124.13C67.0868 124.307 67.3251 124.545 67.5018 124.845C67.6818 125.142 67.7718 125.473 67.7718 125.84ZM73.2623 129H71.8573L70.7173 127.035L70.0173 127.87V129H68.7973V121.5H70.0173V125.975L71.6723 124H73.2673L71.5523 126.045L73.2623 129ZM73.9926 124H75.2126V129H73.9926V124ZM74.6126 123.355C74.4326 123.355 74.2809 123.297 74.1576 123.18C74.0342 123.06 73.9726 122.91 73.9726 122.73C73.9726 122.553 74.0342 122.405 74.1576 122.285C74.2809 122.165 74.4309 122.105 74.6076 122.105C74.7842 122.105 74.9326 122.165 75.0526 122.285C75.1759 122.405 75.2376 122.553 75.2376 122.73C75.2376 122.91 75.1776 123.06 75.0576 123.18C74.9376 123.297 74.7892 123.355 74.6126 123.355ZM80.9554 125.84V129H79.7354V126.16C79.7354 125.963 79.6871 125.785 79.5904 125.625C79.4937 125.462 79.3637 125.333 79.2004 125.24C79.0404 125.143 78.8621 125.095 78.6654 125.095C78.4687 125.095 78.2887 125.143 78.1254 125.24C77.9654 125.333 77.8371 125.462 77.7404 125.625C77.6471 125.785 77.6004 125.963 77.6004 126.16V129H76.3804L76.3754 124H77.5954L77.6004 124.445C77.7704 124.265 77.9737 124.123 78.2104 124.02C78.4471 123.913 78.7021 123.86 78.9754 123.86C79.3387 123.86 79.6704 123.95 79.9704 124.13C80.2704 124.307 80.5087 124.545 80.6854 124.845C80.8654 125.142 80.9554 125.473 80.9554 125.84ZM85.5639 124H86.7839V129.095C86.7839 129.455 86.7106 129.782 86.5639 130.075C86.4172 130.372 86.2172 130.625 85.9639 130.835C85.7106 131.048 85.4206 131.212 85.0939 131.325C84.7672 131.442 84.4239 131.5 84.0639 131.5C83.7139 131.5 83.3772 131.428 83.0539 131.285C82.7306 131.142 82.4439 130.945 82.1939 130.695C81.9472 130.448 81.7589 130.167 81.6289 129.85L82.7439 129.345C82.8106 129.528 82.9106 129.688 83.0439 129.825C83.1806 129.965 83.3372 130.073 83.5139 130.15C83.6906 130.23 83.8739 130.27 84.0639 130.27C84.2572 130.27 84.4422 130.243 84.6189 130.19C84.7989 130.137 84.9606 130.058 85.1039 129.955C85.2472 129.855 85.3589 129.732 85.4389 129.585C85.5222 129.442 85.5639 129.278 85.5639 129.095V128.39C85.4072 128.61 85.2106 128.788 84.9739 128.925C84.7372 129.062 84.4639 129.13 84.1539 129.13C83.7939 129.13 83.4572 129.062 83.1439 128.925C82.8306 128.788 82.5539 128.6 82.3139 128.36C82.0772 128.117 81.8906 127.837 81.7539 127.52C81.6206 127.203 81.5539 126.863 81.5539 126.5C81.5539 126.137 81.6206 125.797 81.7539 125.48C81.8906 125.163 82.0772 124.885 82.3139 124.645C82.5539 124.402 82.8306 124.212 83.1439 124.075C83.4572 123.938 83.7939 123.87 84.1539 123.87C84.4639 123.87 84.7372 123.938 84.9739 124.075C85.2106 124.208 85.4072 124.385 85.5639 124.605V124ZM84.1689 127.955C84.4256 127.955 84.6522 127.89 84.8489 127.76C85.0489 127.627 85.2056 127.45 85.3189 127.23C85.4322 127.007 85.4889 126.763 85.4889 126.5C85.4889 126.233 85.4306 125.99 85.3139 125.77C85.2006 125.55 85.0439 125.373 84.8439 125.24C84.6472 125.107 84.4222 125.04 84.1689 125.04C83.9189 125.04 83.6906 125.107 83.4839 125.24C83.2772 125.37 83.1122 125.545 82.9889 125.765C82.8656 125.985 82.8039 126.23 82.8039 126.5C82.8039 126.77 82.8656 127.015 82.9889 127.235C83.1122 127.455 83.2772 127.63 83.4839 127.76C83.6906 127.89 83.9189 127.955 84.1689 127.955ZM90.3891 129V122H91.7091L94.6641 126.795V122H95.8841V129H94.5691L91.6091 124.205V129H90.3891ZM100.78 124H102V129H100.78L100.725 128.38C100.588 128.603 100.407 128.785 100.18 128.925C99.9568 129.062 99.6918 129.13 99.3852 129.13C99.0152 129.13 98.6685 129.06 98.3452 128.92C98.0218 128.78 97.7368 128.587 97.4902 128.34C97.2468 128.093 97.0552 127.808 96.9152 127.485C96.7785 127.162 96.7102 126.815 96.7102 126.445C96.7102 126.088 96.7752 125.753 96.9052 125.44C97.0385 125.127 97.2235 124.852 97.4602 124.615C97.6968 124.378 97.9702 124.193 98.2802 124.06C98.5902 123.927 98.9235 123.86 99.2802 123.86C99.6102 123.86 99.9052 123.933 100.165 124.08C100.428 124.227 100.652 124.413 100.835 124.64L100.78 124ZM99.3552 127.955C99.6152 127.955 99.8452 127.89 100.045 127.76C100.245 127.63 100.402 127.455 100.515 127.235C100.628 127.012 100.685 126.767 100.685 126.5C100.685 126.23 100.628 125.985 100.515 125.765C100.402 125.542 100.243 125.365 100.04 125.235C99.8402 125.105 99.6118 125.04 99.3552 125.04C99.0985 125.04 98.8635 125.107 98.6502 125.24C98.4402 125.37 98.2718 125.545 98.1452 125.765C98.0218 125.985 97.9602 126.23 97.9602 126.5C97.9602 126.77 98.0235 127.015 98.1502 127.235C98.2768 127.455 98.4452 127.63 98.6552 127.76C98.8685 127.89 99.1018 127.955 99.3552 127.955ZM102.996 129V124H104.216V124.445C104.386 124.265 104.59 124.123 104.826 124.02C105.063 123.913 105.318 123.86 105.591 123.86C105.938 123.86 106.256 123.942 106.546 124.105C106.84 124.268 107.073 124.487 107.246 124.76C107.423 124.487 107.656 124.268 107.946 124.105C108.236 123.942 108.555 123.86 108.901 123.86C109.268 123.86 109.6 123.95 109.896 124.13C110.196 124.307 110.435 124.545 110.611 124.845C110.791 125.142 110.881 125.473 110.881 125.84V129H109.661V126.165C109.661 125.972 109.613 125.795 109.516 125.635C109.423 125.472 109.296 125.342 109.136 125.245C108.98 125.145 108.803 125.095 108.606 125.095C108.41 125.095 108.231 125.143 108.071 125.24C107.915 125.333 107.788 125.46 107.691 125.62C107.595 125.78 107.546 125.962 107.546 126.165V129H106.326V126.165C106.326 125.962 106.28 125.78 106.186 125.62C106.093 125.46 105.966 125.333 105.806 125.24C105.646 125.143 105.468 125.095 105.271 125.095C105.078 125.095 104.901 125.145 104.741 125.245C104.581 125.342 104.453 125.472 104.356 125.635C104.263 125.795 104.216 125.972 104.216 126.165V129H102.996ZM113.986 129.13C113.526 129.13 113.106 129.012 112.726 128.775C112.349 128.538 112.047 128.22 111.821 127.82C111.597 127.42 111.486 126.978 111.486 126.495C111.486 126.132 111.551 125.792 111.681 125.475C111.811 125.155 111.989 124.875 112.216 124.635C112.446 124.392 112.712 124.202 113.016 124.065C113.319 123.928 113.642 123.86 113.986 123.86C114.376 123.86 114.732 123.943 115.056 124.11C115.382 124.273 115.659 124.498 115.886 124.785C116.112 125.072 116.277 125.398 116.381 125.765C116.484 126.132 116.507 126.515 116.451 126.915H112.796C112.842 127.102 112.919 127.27 113.026 127.42C113.132 127.567 113.267 127.685 113.431 127.775C113.594 127.862 113.779 127.907 113.986 127.91C114.199 127.913 114.392 127.863 114.566 127.76C114.742 127.653 114.889 127.51 115.006 127.33L116.251 127.62C116.047 128.063 115.744 128.427 115.341 128.71C114.937 128.99 114.486 129.13 113.986 129.13ZM112.756 126H115.216C115.179 125.8 115.101 125.62 114.981 125.46C114.864 125.297 114.719 125.167 114.546 125.07C114.372 124.973 114.186 124.925 113.986 124.925C113.786 124.925 113.601 124.973 113.431 125.07C113.261 125.163 113.116 125.292 112.996 125.455C112.879 125.615 112.799 125.797 112.756 126Z" fill="white"/>
<path d="M208.296 69V59.2H210.004V69H208.296ZM211.901 69V59.2H217.69V60.908H213.609V62.896H217.018V64.604H213.609V69H211.901ZM222.196 69.182C221.655 69.182 221.134 69.098 220.635 68.93C220.14 68.7573 219.706 68.5123 219.333 68.195C218.96 67.873 218.691 67.488 218.528 67.04L220.131 66.452C220.196 66.6387 220.329 66.809 220.53 66.963C220.731 67.117 220.976 67.2407 221.265 67.334C221.554 67.4273 221.865 67.474 222.196 67.474C222.537 67.474 222.854 67.4227 223.148 67.32C223.447 67.2127 223.687 67.0657 223.869 66.879C224.051 66.6877 224.142 66.466 224.142 66.214C224.142 65.9573 224.046 65.7473 223.855 65.584C223.664 65.416 223.419 65.283 223.12 65.185C222.821 65.087 222.513 65.0123 222.196 64.961C221.501 64.8537 220.878 64.688 220.327 64.464C219.776 64.24 219.34 63.9297 219.018 63.533C218.701 63.1363 218.542 62.623 218.542 61.993C218.542 61.4003 218.712 60.8823 219.053 60.439C219.394 59.9957 219.842 59.6503 220.397 59.403C220.952 59.1557 221.552 59.032 222.196 59.032C222.733 59.032 223.251 59.116 223.75 59.284C224.249 59.452 224.686 59.697 225.059 60.019C225.437 60.341 225.708 60.7283 225.871 61.181L224.261 61.762C224.196 61.5753 224.063 61.405 223.862 61.251C223.661 61.097 223.416 60.9757 223.127 60.887C222.838 60.7937 222.527 60.747 222.196 60.747C221.865 60.7423 221.55 60.796 221.251 60.908C220.957 61.0153 220.717 61.1623 220.53 61.349C220.343 61.5357 220.25 61.7503 220.25 61.993C220.25 62.3057 220.336 62.5413 220.509 62.7C220.686 62.8587 220.922 62.9753 221.216 63.05C221.51 63.12 221.837 63.1853 222.196 63.246C222.849 63.3487 223.454 63.5213 224.009 63.764C224.564 64.0067 225.01 64.331 225.346 64.737C225.682 65.1383 225.85 65.6307 225.85 66.214C225.85 66.8067 225.682 67.327 225.346 67.775C225.01 68.2183 224.564 68.5637 224.009 68.811C223.454 69.0583 222.849 69.182 222.196 69.182ZM231.776 69.182C231.114 69.182 230.491 69.0513 229.907 68.79C229.324 68.524 228.811 68.1577 228.367 67.691C227.929 67.2243 227.583 66.6853 227.331 66.074C227.084 65.458 226.96 64.8 226.96 64.1C226.96 63.3953 227.084 62.7373 227.331 62.126C227.583 61.51 227.929 60.971 228.367 60.509C228.811 60.0423 229.324 59.6783 229.907 59.417C230.491 59.151 231.114 59.018 231.776 59.018C232.57 59.018 233.3 59.2023 233.967 59.571C234.635 59.935 235.188 60.4227 235.626 61.034L234.1 61.853C233.825 61.5123 233.482 61.2393 233.071 61.034C232.665 60.8287 232.234 60.726 231.776 60.726C231.347 60.726 230.943 60.8147 230.565 60.992C230.187 61.1647 229.856 61.4073 229.571 61.72C229.287 62.028 229.065 62.3873 228.906 62.798C228.748 63.204 228.668 63.638 228.668 64.1C228.668 64.5667 228.748 65.003 228.906 65.409C229.07 65.815 229.294 66.1743 229.578 66.487C229.863 66.795 230.192 67.0377 230.565 67.215C230.943 67.3877 231.347 67.474 231.776 67.474C232.243 67.474 232.677 67.3713 233.078 67.166C233.484 66.956 233.825 66.6807 234.1 66.34L235.626 67.166C235.188 67.7727 234.635 68.2603 233.967 68.629C233.3 68.9977 232.57 69.182 231.776 69.182ZM241.124 63.757C240.882 63.757 240.674 63.673 240.501 63.505C240.333 63.3323 240.249 63.1223 240.249 62.875C240.249 62.637 240.333 62.4317 240.501 62.259C240.674 62.0863 240.882 62 241.124 62C241.367 62 241.575 62.0863 241.747 62.259C241.92 62.4317 242.006 62.637 242.006 62.875C242.006 63.1223 241.92 63.3323 241.747 63.505C241.575 63.673 241.367 63.757 241.124 63.757ZM241.124 69.182C240.882 69.182 240.674 69.098 240.501 68.93C240.333 68.7573 240.249 68.5473 240.249 68.3C240.249 68.062 240.333 67.8567 240.501 67.684C240.674 67.5113 240.882 67.425 241.124 67.425C241.367 67.425 241.575 67.5113 241.747 67.684C241.92 67.8567 242.006 68.062 242.006 68.3C242.006 68.5473 241.92 68.7573 241.747 68.93C241.575 69.098 241.367 69.182 241.124 69.182ZM250.579 69.182C250.038 69.182 249.517 69.098 249.018 68.93C248.523 68.7573 248.089 68.5123 247.716 68.195C247.343 67.873 247.074 67.488 246.911 67.04L248.514 66.452C248.579 66.6387 248.712 66.809 248.913 66.963C249.114 67.117 249.359 67.2407 249.648 67.334C249.937 67.4273 250.248 67.474 250.579 67.474C250.92 67.474 251.237 67.4227 251.531 67.32C251.83 67.2127 252.07 67.0657 252.252 66.879C252.434 66.6877 252.525 66.466 252.525 66.214C252.525 65.9573 252.429 65.7473 252.238 65.584C252.047 65.416 251.802 65.283 251.503 65.185C251.204 65.087 250.896 65.0123 250.579 64.961C249.884 64.8537 249.261 64.688 248.71 64.464C248.159 64.24 247.723 63.9297 247.401 63.533C247.084 63.1363 246.925 62.623 246.925 61.993C246.925 61.4003 247.095 60.8823 247.436 60.439C247.777 59.9957 248.225 59.6503 248.78 59.403C249.335 59.1557 249.935 59.032 250.579 59.032C251.116 59.032 251.634 59.116 252.133 59.284C252.632 59.452 253.069 59.697 253.442 60.019C253.82 60.341 254.091 60.7283 254.254 61.181L252.644 61.762C252.579 61.5753 252.446 61.405 252.245 61.251C252.044 61.097 251.799 60.9757 251.51 60.887C251.221 60.7937 250.91 60.747 250.579 60.747C250.248 60.7423 249.933 60.796 249.634 60.908C249.34 61.0153 249.1 61.1623 248.913 61.349C248.726 61.5357 248.633 61.7503 248.633 61.993C248.633 62.3057 248.719 62.5413 248.892 62.7C249.069 62.8587 249.305 62.9753 249.599 63.05C249.893 63.12 250.22 63.1853 250.579 63.246C251.232 63.3487 251.837 63.5213 252.392 63.764C252.947 64.0067 253.393 64.331 253.729 64.737C254.065 65.1383 254.233 65.6307 254.233 66.214C254.233 66.8067 254.065 67.327 253.729 67.775C253.393 68.2183 252.947 68.5637 252.392 68.811C251.837 69.0583 251.232 69.182 250.579 69.182ZM255.828 69V59.2H259.398C259.916 59.2 260.383 59.3073 260.798 59.522C261.218 59.732 261.55 60.0353 261.792 60.432C262.04 60.824 262.163 61.2883 262.163 61.825C262.163 62.063 262.128 62.3033 262.058 62.546C261.988 62.7887 261.881 63.008 261.736 63.204C261.592 63.3953 261.405 63.5377 261.176 63.631C261.48 63.7057 261.727 63.841 261.918 64.037C262.11 64.233 262.259 64.464 262.366 64.73C262.474 64.9913 262.546 65.2597 262.583 65.535C262.625 65.8057 262.646 66.0577 262.646 66.291C262.646 66.809 262.518 67.271 262.261 67.677C262.005 68.083 261.659 68.405 261.225 68.643C260.796 68.881 260.32 69 259.797 69H255.828ZM257.536 67.537H259.622C259.902 67.537 260.154 67.4693 260.378 67.334C260.602 67.1987 260.782 67.012 260.917 66.774C261.053 66.536 261.12 66.2653 261.12 65.962C261.12 65.7007 261.053 65.4533 260.917 65.22C260.782 64.9867 260.602 64.7977 260.378 64.653C260.154 64.5083 259.902 64.436 259.622 64.436H257.536V67.537ZM257.536 62.994H259.202C259.548 62.994 259.842 62.8867 260.084 62.672C260.332 62.4573 260.455 62.1727 260.455 61.818C260.455 61.44 260.332 61.1553 260.084 60.964C259.842 60.768 259.548 60.67 259.202 60.67H257.536V62.994ZM263.982 69V59.2H265.69V69H263.982ZM267.586 69V59.2H269.434L273.571 65.913V59.2H275.279V69H273.438L269.294 62.287V69H267.586ZM280.36 69.182C279.791 69.182 279.273 69.0513 278.806 68.79C278.339 68.524 277.936 68.1577 277.595 67.691C277.259 67.2243 277 66.6853 276.818 66.074C276.636 65.458 276.545 64.8 276.545 64.1C276.545 63.4 276.636 62.7443 276.818 62.133C277 61.517 277.259 60.9757 277.595 60.509C277.936 60.0423 278.339 59.6783 278.806 59.417C279.273 59.151 279.791 59.018 280.36 59.018C280.929 59.018 281.447 59.151 281.914 59.417C282.381 59.6783 282.78 60.0423 283.111 60.509C283.447 60.9757 283.706 61.517 283.888 62.133C284.075 62.7443 284.168 63.4 284.168 64.1C284.168 64.8 284.075 65.458 283.888 66.074C283.706 66.6853 283.447 67.2243 283.111 67.691C282.78 68.1577 282.381 68.524 281.914 68.79C281.447 69.0513 280.929 69.182 280.36 69.182ZM280.36 67.474C280.859 67.474 281.272 67.3153 281.599 66.998C281.926 66.6807 282.168 66.2653 282.327 65.752C282.486 65.2387 282.565 64.688 282.565 64.1C282.565 63.4793 282.481 62.9147 282.313 62.406C282.145 61.8927 281.898 61.4843 281.571 61.181C281.244 60.8777 280.841 60.726 280.36 60.726C279.982 60.726 279.653 60.8193 279.373 61.006C279.098 61.188 278.869 61.4377 278.687 61.755C278.505 62.0723 278.37 62.434 278.281 62.84C278.192 63.2413 278.148 63.6613 278.148 64.1C278.148 64.6833 278.227 65.234 278.386 65.752C278.549 66.2653 278.794 66.6807 279.121 66.998C279.452 67.3153 279.865 67.474 280.36 67.474ZM288.508 69.182C287.939 69.182 287.421 69.0513 286.954 68.79C286.488 68.524 286.084 68.1577 285.743 67.691C285.407 67.2243 285.148 66.6853 284.966 66.074C284.784 65.458 284.693 64.8 284.693 64.1C284.693 63.4 284.784 62.7443 284.966 62.133C285.148 61.517 285.407 60.9757 285.743 60.509C286.084 60.0423 286.488 59.6783 286.954 59.417C287.421 59.151 287.939 59.018 288.508 59.018C289.078 59.018 289.596 59.151 290.062 59.417C290.529 59.6783 290.928 60.0423 291.259 60.509C291.595 60.9757 291.854 61.517 292.036 62.133C292.223 62.7443 292.316 63.4 292.316 64.1C292.316 64.8 292.223 65.458 292.036 66.074C291.854 66.6853 291.595 67.2243 291.259 67.691C290.928 68.1577 290.529 68.524 290.062 68.79C289.596 69.0513 289.078 69.182 288.508 69.182ZM288.508 67.474C289.008 67.474 289.421 67.3153 289.747 66.998C290.074 66.6807 290.317 66.2653 290.475 65.752C290.634 65.2387 290.713 64.688 290.713 64.1C290.713 63.4793 290.629 62.9147 290.461 62.406C290.293 61.8927 290.046 61.4843 289.719 61.181C289.393 60.8777 288.989 60.726 288.508 60.726C288.13 60.726 287.801 60.8193 287.521 61.006C287.246 61.188 287.017 61.4377 286.835 61.755C286.653 62.0723 286.518 62.434 286.429 62.84C286.341 63.2413 286.296 63.6613 286.296 64.1C286.296 64.6833 286.376 65.234 286.534 65.752C286.698 66.2653 286.943 66.6807 287.269 66.998C287.601 67.3153 288.014 67.474 288.508 67.474ZM293.506 69L298.175 60.908H293.016V59.2H300.156V60.908L295.473 69H293.506ZM304.669 69.182C304.099 69.182 303.581 69.0513 303.115 68.79C302.648 68.524 302.244 68.1577 301.904 67.691C301.568 67.2243 301.309 66.6853 301.127 66.074C300.945 65.458 300.854 64.8 300.854 64.1C300.854 63.4 300.945 62.7443 301.127 62.133C301.309 61.517 301.568 60.9757 301.904 60.509C302.244 60.0423 302.648 59.6783 303.115 59.417C303.581 59.151 304.099 59.018 304.669 59.018C305.238 59.018 305.756 59.151 306.223 59.417C306.689 59.6783 307.088 60.0423 307.42 60.509C307.756 60.9757 308.015 61.517 308.197 62.133C308.383 62.7443 308.477 63.4 308.477 64.1C308.477 64.8 308.383 65.458 308.197 66.074C308.015 66.6853 307.756 67.2243 307.42 67.691C307.088 68.1577 306.689 68.524 306.223 68.79C305.756 69.0513 305.238 69.182 304.669 69.182ZM304.669 67.474C305.168 67.474 305.581 67.3153 305.908 66.998C306.234 66.6807 306.477 66.2653 306.636 65.752C306.794 65.2387 306.874 64.688 306.874 64.1C306.874 63.4793 306.79 62.9147 306.622 62.406C306.454 61.8927 306.206 61.4843 305.88 61.181C305.553 60.8777 305.149 60.726 304.669 60.726C304.291 60.726 303.962 60.8193 303.682 61.006C303.406 61.188 303.178 61.4377 302.996 61.755C302.814 62.0723 302.678 62.434 302.59 62.84C302.501 63.2413 302.457 63.6613 302.457 64.1C302.457 64.6833 302.536 65.234 302.695 65.752C302.858 66.2653 303.103 66.6807 303.43 66.998C303.761 67.3153 304.174 67.474 304.669 67.474ZM313.628 69V66.627H309.456V64.912L313.229 59.2H315.336V64.919H316.162V66.627H315.336V69H313.628ZM311.437 64.912L313.628 64.919L313.621 61.531L311.437 64.912ZM317.564 69V67.474C317.867 67.2453 318.227 66.963 318.642 66.627C319.057 66.2863 319.484 65.92 319.923 65.528C320.362 65.1313 320.768 64.7347 321.141 64.338C321.514 63.9413 321.818 63.5633 322.051 63.204C322.289 62.8447 322.408 62.5367 322.408 62.28C322.408 61.9953 322.338 61.7363 322.198 61.503C322.058 61.265 321.871 61.076 321.638 60.936C321.409 60.796 321.153 60.726 320.868 60.726C320.583 60.726 320.324 60.796 320.091 60.936C319.858 61.076 319.671 61.265 319.531 61.503C319.391 61.7363 319.321 61.9953 319.321 62.28H317.613C317.613 61.664 317.762 61.111 318.061 60.621C318.36 60.1263 318.754 59.7367 319.244 59.452C319.739 59.1627 320.28 59.018 320.868 59.018C321.465 59.018 322.009 59.165 322.499 59.459C322.989 59.7483 323.381 60.1403 323.675 60.635C323.969 61.1297 324.116 61.678 324.116 62.28C324.116 62.5973 324.058 62.917 323.941 63.239C323.824 63.561 323.661 63.8853 323.451 64.212C323.241 64.5387 322.994 64.87 322.709 65.206C322.424 65.5373 322.109 65.878 321.764 66.228C321.423 66.5733 321.064 66.928 320.686 67.292H324.165V69H317.564ZM325.562 69V67.474C325.865 67.2453 326.225 66.963 326.64 66.627C327.055 66.2863 327.482 65.92 327.921 65.528C328.36 65.1313 328.766 64.7347 329.139 64.338C329.512 63.9413 329.816 63.5633 330.049 63.204C330.287 62.8447 330.406 62.5367 330.406 62.28C330.406 61.9953 330.336 61.7363 330.196 61.503C330.056 61.265 329.869 61.076 329.636 60.936C329.407 60.796 329.151 60.726 328.866 60.726C328.581 60.726 328.322 60.796 328.089 60.936C327.856 61.076 327.669 61.265 327.529 61.503C327.389 61.7363 327.319 61.9953 327.319 62.28H325.611C325.611 61.664 325.76 61.111 326.059 60.621C326.358 60.1263 326.752 59.7367 327.242 59.452C327.737 59.1627 328.278 59.018 328.866 59.018C329.463 59.018 330.007 59.165 330.497 59.459C330.987 59.7483 331.379 60.1403 331.673 60.635C331.967 61.1297 332.114 61.678 332.114 62.28C332.114 62.5973 332.056 62.917 331.939 63.239C331.822 63.561 331.659 63.8853 331.449 64.212C331.239 64.5387 330.992 64.87 330.707 65.206C330.422 65.5373 330.107 65.878 329.762 66.228C329.421 66.5733 329.062 66.928 328.684 67.292H332.163V69H325.562Z" fill="white"/>
<path d="M53.94 159H55.345L57.89 166H56.595L56.145 164.76H53.145L52.695 166H51.4L53.94 159ZM53.59 163.54H55.695L54.64 160.655L53.59 163.54ZM61.4871 164.495L62.5871 165.09C62.3571 165.403 62.0688 165.655 61.7221 165.845C61.3754 166.035 60.9971 166.13 60.5871 166.13C60.1271 166.13 59.7071 166.012 59.3271 165.775C58.9504 165.538 58.6488 165.222 58.4221 164.825C58.1988 164.425 58.0871 163.983 58.0871 163.5C58.0871 163.133 58.1521 162.792 58.2821 162.475C58.4121 162.155 58.5904 161.875 58.8171 161.635C59.0471 161.392 59.3138 161.202 59.6171 161.065C59.9204 160.928 60.2438 160.86 60.5871 160.86C60.9971 160.86 61.3754 160.955 61.7221 161.145C62.0688 161.335 62.3571 161.59 62.5871 161.91L61.4871 162.5C61.3704 162.367 61.2321 162.263 61.0721 162.19C60.9154 162.117 60.7538 162.08 60.5871 162.08C60.3471 162.08 60.1304 162.147 59.9371 162.28C59.7438 162.41 59.5904 162.583 59.4771 162.8C59.3638 163.013 59.3071 163.247 59.3071 163.5C59.3071 163.75 59.3638 163.983 59.4771 164.2C59.5904 164.413 59.7438 164.585 59.9371 164.715C60.1304 164.845 60.3471 164.91 60.5871 164.91C60.7604 164.91 60.9254 164.873 61.0821 164.8C61.2388 164.723 61.3738 164.622 61.4871 164.495ZM66.4285 164.495L67.5285 165.09C67.2985 165.403 67.0102 165.655 66.6635 165.845C66.3168 166.035 65.9385 166.13 65.5285 166.13C65.0685 166.13 64.6485 166.012 64.2685 165.775C63.8918 165.538 63.5902 165.222 63.3635 164.825C63.1402 164.425 63.0285 163.983 63.0285 163.5C63.0285 163.133 63.0935 162.792 63.2235 162.475C63.3535 162.155 63.5318 161.875 63.7585 161.635C63.9885 161.392 64.2552 161.202 64.5585 161.065C64.8618 160.928 65.1852 160.86 65.5285 160.86C65.9385 160.86 66.3168 160.955 66.6635 161.145C67.0102 161.335 67.2985 161.59 67.5285 161.91L66.4285 162.5C66.3118 162.367 66.1735 162.263 66.0135 162.19C65.8568 162.117 65.6952 162.08 65.5285 162.08C65.2885 162.08 65.0718 162.147 64.8785 162.28C64.6852 162.41 64.5318 162.583 64.4185 162.8C64.3052 163.013 64.2485 163.247 64.2485 163.5C64.2485 163.75 64.3052 163.983 64.4185 164.2C64.5318 164.413 64.6852 164.585 64.8785 164.715C65.0718 164.845 65.2885 164.91 65.5285 164.91C65.7018 164.91 65.8668 164.873 66.0235 164.8C66.1802 164.723 66.3152 164.622 66.4285 164.495ZM70.4699 166.13C70.0099 166.13 69.5899 166.012 69.2099 165.775C68.8333 165.538 68.5316 165.222 68.3049 164.825C68.0816 164.425 67.9699 163.983 67.9699 163.5C67.9699 163.133 68.0349 162.792 68.1649 162.475C68.2949 162.155 68.4733 161.875 68.6999 161.635C68.9299 161.392 69.1966 161.202 69.4999 161.065C69.8033 160.928 70.1266 160.86 70.4699 160.86C70.9299 160.86 71.3483 160.978 71.7249 161.215C72.1049 161.452 72.4066 161.77 72.6299 162.17C72.8566 162.57 72.9699 163.013 72.9699 163.5C72.9699 163.863 72.9049 164.203 72.7749 164.52C72.6449 164.837 72.4649 165.117 72.2349 165.36C72.0083 165.6 71.7433 165.788 71.4399 165.925C71.1399 166.062 70.8166 166.13 70.4699 166.13ZM70.4699 164.91C70.7133 164.91 70.9316 164.845 71.1249 164.715C71.3183 164.585 71.4699 164.413 71.5799 164.2C71.6933 163.987 71.7499 163.753 71.7499 163.5C71.7499 163.24 71.6916 163.003 71.5749 162.79C71.4616 162.573 71.3066 162.402 71.1099 162.275C70.9166 162.145 70.7033 162.08 70.4699 162.08C70.2299 162.08 70.0133 162.145 69.8199 162.275C69.6266 162.405 69.4733 162.578 69.3599 162.795C69.2466 163.012 69.1899 163.247 69.1899 163.5C69.1899 163.763 69.2483 164.002 69.3649 164.215C69.4816 164.428 69.6366 164.598 69.8299 164.725C70.0266 164.848 70.2399 164.91 70.4699 164.91ZM73.441 164.15V161H74.661V163.83C74.661 164.027 74.7093 164.207 74.806 164.37C74.9027 164.53 75.031 164.658 75.191 164.755C75.3543 164.848 75.5327 164.895 75.726 164.895C75.926 164.895 76.106 164.848 76.266 164.755C76.426 164.658 76.5543 164.53 76.651 164.37C76.7477 164.207 76.796 164.027 76.796 163.83V161H78.016L78.021 166H76.801L76.796 165.545C76.6227 165.725 76.4177 165.868 76.181 165.975C75.9443 166.078 75.691 166.13 75.421 166.13C75.0577 166.13 74.726 166.042 74.426 165.865C74.126 165.685 73.886 165.447 73.706 165.15C73.5293 164.85 73.441 164.517 73.441 164.15ZM83.6019 162.84V166H82.3819V163.16C82.3819 162.963 82.3335 162.785 82.2369 162.625C82.1402 162.462 82.0102 162.333 81.8469 162.24C81.6869 162.143 81.5085 162.095 81.3119 162.095C81.1152 162.095 80.9352 162.143 80.7719 162.24C80.6119 162.333 80.4835 162.462 80.3869 162.625C80.2935 162.785 80.2469 162.963 80.2469 163.16V166H79.0269L79.0219 161H80.2419L80.2469 161.445C80.4169 161.265 80.6202 161.123 80.8569 161.02C81.0935 160.913 81.3485 160.86 81.6219 160.86C81.9852 160.86 82.3169 160.95 82.6169 161.13C82.9169 161.307 83.1552 161.545 83.3319 161.845C83.5119 162.142 83.6019 162.473 83.6019 162.84ZM87.278 162.22H86.308V166H85.088V162.22H84.348V161H85.088V159.43H86.308V161H87.278V162.22ZM90.5844 166V159H91.9044L94.8594 163.795V159H96.0794V166H94.7644L91.8044 161.205V166H90.5844ZM97.0836 164.15V161H98.3036V163.83C98.3036 164.027 98.3519 164.207 98.4486 164.37C98.5453 164.53 98.6736 164.658 98.8336 164.755C98.9969 164.848 99.1753 164.895 99.3686 164.895C99.5686 164.895 99.7486 164.848 99.9086 164.755C100.069 164.658 100.197 164.53 100.294 164.37C100.39 164.207 100.439 164.027 100.439 163.83V161H101.659L101.664 166H100.444L100.439 165.545C100.265 165.725 100.06 165.868 99.8236 165.975C99.5869 166.078 99.3336 166.13 99.0636 166.13C98.7003 166.13 98.3686 166.042 98.0686 165.865C97.7686 165.685 97.5286 165.447 97.3486 165.15C97.1719 164.85 97.0836 164.517 97.0836 164.15ZM102.664 166V161H103.884V161.445C104.054 161.265 104.258 161.123 104.494 161.02C104.731 160.913 104.986 160.86 105.259 160.86C105.606 160.86 105.924 160.942 106.214 161.105C106.508 161.268 106.741 161.487 106.914 161.76C107.091 161.487 107.324 161.268 107.614 161.105C107.904 160.942 108.223 160.86 108.569 160.86C108.936 160.86 109.268 160.95 109.564 161.13C109.864 161.307 110.103 161.545 110.279 161.845C110.459 162.142 110.549 162.473 110.549 162.84V166H109.329V163.165C109.329 162.972 109.281 162.795 109.184 162.635C109.091 162.472 108.964 162.342 108.804 162.245C108.648 162.145 108.471 162.095 108.274 162.095C108.078 162.095 107.899 162.143 107.739 162.24C107.583 162.333 107.456 162.46 107.359 162.62C107.263 162.78 107.214 162.962 107.214 163.165V166H105.994V163.165C105.994 162.962 105.948 162.78 105.854 162.62C105.761 162.46 105.634 162.333 105.474 162.24C105.314 162.143 105.136 162.095 104.939 162.095C104.746 162.095 104.569 162.145 104.409 162.245C104.249 162.342 104.121 162.472 104.024 162.635C103.931 162.795 103.884 162.972 103.884 163.165V166H102.664ZM114.24 160.86C114.727 160.86 115.17 160.978 115.57 161.215C115.97 161.452 116.289 161.77 116.525 162.17C116.762 162.567 116.88 163.007 116.88 163.49C116.88 163.853 116.812 164.195 116.675 164.515C116.539 164.835 116.349 165.117 116.105 165.36C115.865 165.6 115.585 165.788 115.265 165.925C114.949 166.062 114.607 166.13 114.24 166.13C113.927 166.13 113.649 166.06 113.405 165.92C113.165 165.777 112.964 165.592 112.8 165.365V166H111.58V158.5H112.8V161.625C112.964 161.398 113.165 161.215 113.405 161.075C113.649 160.932 113.927 160.86 114.24 160.86ZM114.225 164.95C114.485 164.95 114.72 164.885 114.93 164.755C115.144 164.622 115.314 164.445 115.44 164.225C115.567 164.005 115.63 163.76 115.63 163.49C115.63 163.223 115.567 162.98 115.44 162.76C115.314 162.537 115.144 162.36 114.93 162.23C114.717 162.1 114.482 162.035 114.225 162.035C113.972 162.035 113.745 162.102 113.545 162.235C113.345 162.365 113.189 162.542 113.075 162.765C112.962 162.985 112.905 163.227 112.905 163.49C112.905 163.76 112.962 164.007 113.075 164.23C113.189 164.45 113.345 164.625 113.545 164.755C113.745 164.885 113.972 164.95 114.225 164.95ZM119.884 166.13C119.424 166.13 119.004 166.012 118.624 165.775C118.247 165.538 117.946 165.22 117.719 164.82C117.496 164.42 117.384 163.978 117.384 163.495C117.384 163.132 117.449 162.792 117.579 162.475C117.709 162.155 117.887 161.875 118.114 161.635C118.344 161.392 118.611 161.202 118.914 161.065C119.217 160.928 119.541 160.86 119.884 160.86C120.274 160.86 120.631 160.943 120.954 161.11C121.281 161.273 121.557 161.498 121.784 161.785C122.011 162.072 122.176 162.398 122.279 162.765C122.382 163.132 122.406 163.515 122.349 163.915H118.694C118.741 164.102 118.817 164.27 118.924 164.42C119.031 164.567 119.166 164.685 119.329 164.775C119.492 164.862 119.677 164.907 119.884 164.91C120.097 164.913 120.291 164.863 120.464 164.76C120.641 164.653 120.787 164.51 120.904 164.33L122.149 164.62C121.946 165.063 121.642 165.427 121.239 165.71C120.836 165.99 120.384 166.13 119.884 166.13ZM118.654 163H121.114C121.077 162.8 120.999 162.62 120.879 162.46C120.762 162.297 120.617 162.167 120.444 162.07C120.271 161.973 120.084 161.925 119.884 161.925C119.684 161.925 119.499 161.973 119.329 162.07C119.159 162.163 119.014 162.292 118.894 162.455C118.777 162.615 118.697 162.797 118.654 163ZM123.168 166L123.163 161H124.383L124.388 161.445C124.558 161.265 124.761 161.123 124.998 161.02C125.234 160.913 125.489 160.86 125.763 160.86C125.946 160.86 126.129 160.887 126.313 160.94L125.833 162.17C125.706 162.12 125.579 162.095 125.453 162.095C125.256 162.095 125.076 162.143 124.913 162.24C124.753 162.333 124.624 162.462 124.528 162.625C124.434 162.785 124.388 162.963 124.388 163.16V166H123.168Z" fill="white"/>
<path d="M55.336 186.208C54.6213 186.208 53.9653 186.029 53.368 185.672C52.7707 185.315 52.2933 184.837 51.936 184.24C51.5787 183.643 51.4 182.981 51.4 182.256C51.4 181.883 51.4427 181.536 51.528 181.216C51.6187 180.896 51.7573 180.573 51.944 180.248L55.08 174.8H57.344L55.24 178.44C55.672 178.408 56.088 178.445 56.488 178.552C56.888 178.659 57.2587 178.827 57.6 179.056C57.9413 179.285 58.24 179.563 58.496 179.888C58.752 180.213 58.9493 180.576 59.088 180.976C59.232 181.376 59.304 181.803 59.304 182.256C59.304 182.8 59.2 183.309 58.992 183.784C58.7893 184.259 58.5067 184.68 58.144 185.048C57.7813 185.411 57.36 185.696 56.88 185.904C56.4 186.107 55.8853 186.208 55.336 186.208ZM55.336 184.256C55.7253 184.256 56.072 184.163 56.376 183.976C56.68 183.784 56.9173 183.536 57.088 183.232C57.264 182.928 57.352 182.605 57.352 182.264C57.352 181.896 57.264 181.56 57.088 181.256C56.912 180.952 56.672 180.709 56.368 180.528C56.0693 180.347 55.7307 180.256 55.352 180.256C54.9627 180.256 54.616 180.352 54.312 180.544C54.0133 180.731 53.7787 180.976 53.608 181.28C53.4373 181.584 53.352 181.912 53.352 182.264C53.352 182.643 53.4453 182.981 53.632 183.28C53.8187 183.579 54.0613 183.816 54.36 183.992C54.664 184.168 54.9893 184.256 55.336 184.256ZM60.6613 186L65.9973 176.752H60.1013V174.8H68.2613V176.752L62.9093 186H60.6613ZM69.2181 186V184.256C69.5648 183.995 69.9755 183.672 70.4501 183.288C70.9248 182.899 71.4128 182.48 71.9141 182.032C72.4155 181.579 72.8795 181.125 73.3061 180.672C73.7328 180.219 74.0795 179.787 74.3461 179.376C74.6181 178.965 74.7541 178.613 74.7541 178.32C74.7541 177.995 74.6741 177.699 74.5141 177.432C74.3541 177.16 74.1408 176.944 73.8741 176.784C73.6128 176.624 73.3195 176.544 72.9941 176.544C72.6688 176.544 72.3728 176.624 72.1061 176.784C71.8395 176.944 71.6261 177.16 71.4661 177.432C71.3061 177.699 71.2261 177.995 71.2261 178.32H69.2741C69.2741 177.616 69.4448 176.984 69.7861 176.424C70.1275 175.859 70.5781 175.413 71.1381 175.088C71.7035 174.757 72.3221 174.592 72.9941 174.592C73.6768 174.592 74.2981 174.76 74.8581 175.096C75.4181 175.427 75.8661 175.875 76.2021 176.44C76.5381 177.005 76.7061 177.632 76.7061 178.32C76.7061 178.683 76.6395 179.048 76.5061 179.416C76.3728 179.784 76.1861 180.155 75.9461 180.528C75.7061 180.901 75.4235 181.28 75.0981 181.664C74.7728 182.043 74.4128 182.432 74.0181 182.832C73.6288 183.227 73.2181 183.632 72.7861 184.048H76.7621V186H69.2181ZM81.8068 186.208C81.1294 186.208 80.5188 186.048 79.9748 185.728C79.4308 185.408 78.9988 184.979 78.6788 184.44C78.3588 183.896 78.1988 183.293 78.1988 182.632H80.1508C80.1508 182.931 80.2201 183.203 80.3588 183.448C80.5028 183.693 80.7001 183.891 80.9508 184.04C81.2014 184.184 81.4868 184.256 81.8068 184.256C82.1001 184.256 82.3721 184.184 82.6228 184.04C82.8788 183.891 83.0841 183.693 83.2388 183.448C83.3934 183.203 83.4708 182.931 83.4708 182.632C83.4708 182.243 83.3668 181.92 83.1588 181.664C82.9508 181.403 82.6601 181.208 82.2868 181.08C81.9188 180.952 81.4894 180.888 80.9988 180.888V179.384C81.6601 179.384 82.1828 179.259 82.5668 179.008C82.9561 178.757 83.1508 178.389 83.1508 177.904C83.1508 177.653 83.0868 177.424 82.9588 177.216C82.8308 177.008 82.6601 176.843 82.4468 176.72C82.2388 176.592 82.0094 176.528 81.7587 176.528C81.5028 176.528 81.2548 176.592 81.0148 176.72C80.7748 176.843 80.5774 177.008 80.4228 177.216C80.2734 177.424 80.1988 177.653 80.1988 177.904H78.2467C78.2467 177.445 78.3401 177.016 78.5268 176.616C78.7134 176.211 78.9694 175.856 79.2948 175.552C79.6254 175.248 79.9988 175.011 80.4148 174.84C80.8361 174.664 81.2761 174.576 81.7348 174.576C82.3374 174.576 82.8948 174.725 83.4068 175.024C83.9188 175.323 84.3294 175.723 84.6388 176.224C84.9481 176.725 85.1028 177.285 85.1028 177.904C85.1028 178.336 85.0014 178.76 84.7988 179.176C84.5961 179.592 84.3081 179.885 83.9348 180.056C84.2601 180.173 84.5321 180.371 84.7508 180.648C84.9694 180.92 85.1348 181.232 85.2468 181.584C85.3641 181.931 85.4228 182.28 85.4228 182.632C85.4228 183.288 85.2574 183.888 84.9268 184.432C84.5961 184.971 84.1561 185.403 83.6068 185.728C83.0628 186.048 82.4628 186.208 81.8068 186.208ZM90.2423 186.208C89.5276 186.208 88.8716 186.029 88.2743 185.672C87.6769 185.315 87.1996 184.837 86.8423 184.24C86.4849 183.643 86.3063 182.981 86.3063 182.256C86.3063 181.883 86.3489 181.536 86.4342 181.216C86.5249 180.896 86.6636 180.573 86.8503 180.248L89.9863 174.8H92.2503L90.1463 178.44C90.5783 178.408 90.9943 178.445 91.3943 178.552C91.7943 178.659 92.1649 178.827 92.5063 179.056C92.8476 179.285 93.1463 179.563 93.4023 179.888C93.6583 180.213 93.8556 180.576 93.9943 180.976C94.1383 181.376 94.2103 181.803 94.2103 182.256C94.2103 182.8 94.1063 183.309 93.8983 183.784C93.6956 184.259 93.4129 184.68 93.0503 185.048C92.6876 185.411 92.2663 185.696 91.7863 185.904C91.3063 186.107 90.7916 186.208 90.2423 186.208ZM90.2423 184.256C90.6316 184.256 90.9783 184.163 91.2823 183.976C91.5863 183.784 91.8236 183.536 91.9943 183.232C92.1703 182.928 92.2583 182.605 92.2583 182.264C92.2583 181.896 92.1703 181.56 91.9943 181.256C91.8183 180.952 91.5783 180.709 91.2743 180.528C90.9756 180.347 90.6369 180.256 90.2583 180.256C89.8689 180.256 89.5223 180.352 89.2183 180.544C88.9196 180.731 88.6849 180.976 88.5143 181.28C88.3436 181.584 88.2582 181.912 88.2582 182.264C88.2582 182.643 88.3516 182.981 88.5383 183.28C88.7249 183.579 88.9676 183.816 89.2663 183.992C89.5703 184.168 89.8956 184.256 90.2423 184.256ZM99.0875 186.208C98.3675 186.208 97.7168 186.035 97.1355 185.688C96.5542 185.336 96.0928 184.869 95.7515 184.288C95.4155 183.707 95.2475 183.069 95.2475 182.376H97.1995C97.1995 182.723 97.2848 183.04 97.4555 183.328C97.6262 183.611 97.8528 183.837 98.1355 184.008C98.4235 184.173 98.7408 184.256 99.0875 184.256C99.4342 184.256 99.7488 184.173 100.032 184.008C100.314 183.837 100.541 183.611 100.712 183.328C100.882 183.04 100.968 182.723 100.968 182.376C100.968 182.029 100.893 181.712 100.744 181.424C100.6 181.131 100.362 180.899 100.032 180.728C99.7062 180.552 99.2742 180.464 98.7355 180.464H95.8555L97.0395 174.8H102.544V176.752H98.6235L98.2635 178.512L99.0555 178.52C99.8128 178.547 100.482 178.731 101.064 179.072C101.645 179.413 102.098 179.872 102.424 180.448C102.754 181.019 102.92 181.661 102.92 182.376C102.92 182.899 102.821 183.392 102.624 183.856C102.426 184.32 102.152 184.728 101.8 185.08C101.448 185.432 101.04 185.709 100.576 185.912C100.117 186.109 99.6208 186.208 99.0875 186.208ZM108.227 186.208C107.539 186.208 106.915 186.051 106.355 185.736C105.795 185.421 105.347 185 105.011 184.472C104.68 183.939 104.515 183.347 104.515 182.696C104.515 182.184 104.63 181.704 104.859 181.256C105.094 180.803 105.408 180.421 105.803 180.112C105.494 179.829 105.24 179.496 105.043 179.112C104.851 178.723 104.755 178.307 104.755 177.864C104.755 177.261 104.912 176.712 105.227 176.216C105.542 175.72 105.96 175.325 106.483 175.032C107.011 174.739 107.592 174.592 108.227 174.592C108.867 174.592 109.448 174.739 109.971 175.032C110.494 175.325 110.912 175.72 111.227 176.216C111.542 176.712 111.699 177.261 111.699 177.864C111.699 178.307 111.603 178.723 111.411 179.112C111.224 179.496 110.971 179.829 110.651 180.112C111.056 180.421 111.374 180.803 111.603 181.256C111.838 181.704 111.955 182.184 111.955 182.696C111.955 183.341 111.787 183.931 111.451 184.464C111.12 184.992 110.672 185.416 110.107 185.736C109.542 186.051 108.915 186.208 108.227 186.208ZM108.227 184.256C108.536 184.256 108.816 184.187 109.067 184.048C109.318 183.904 109.518 183.715 109.667 183.48C109.816 183.245 109.891 182.984 109.891 182.696C109.891 182.408 109.816 182.147 109.667 181.912C109.518 181.677 109.318 181.491 109.067 181.352C108.816 181.208 108.536 181.136 108.227 181.136C107.923 181.136 107.646 181.208 107.395 181.352C107.144 181.491 106.942 181.677 106.787 181.912C106.638 182.147 106.563 182.408 106.563 182.696C106.563 182.984 106.638 183.245 106.787 183.48C106.942 183.715 107.144 183.904 107.395 184.048C107.646 184.187 107.923 184.256 108.227 184.256ZM108.227 179.184C108.488 179.184 108.726 179.125 108.939 179.008C109.152 178.885 109.32 178.725 109.443 178.528C109.571 178.331 109.635 178.109 109.635 177.864C109.635 177.619 109.571 177.397 109.443 177.2C109.32 177.003 109.152 176.845 108.939 176.728C108.726 176.605 108.488 176.544 108.227 176.544C107.971 176.544 107.736 176.605 107.523 176.728C107.31 176.845 107.139 177.003 107.011 177.2C106.883 177.397 106.819 177.619 106.819 177.864C106.819 178.109 106.883 178.331 107.011 178.528C107.139 178.725 107.31 178.885 107.523 179.008C107.736 179.125 107.971 179.184 108.227 179.184ZM116.946 186.208C116.258 186.208 115.634 186.051 115.074 185.736C114.514 185.421 114.066 185 113.73 184.472C113.399 183.939 113.234 183.347 113.234 182.696C113.234 182.184 113.348 181.704 113.578 181.256C113.812 180.803 114.127 180.421 114.522 180.112C114.212 179.829 113.959 179.496 113.762 179.112C113.57 178.723 113.474 178.307 113.474 177.864C113.474 177.261 113.631 176.712 113.946 176.216C114.26 175.72 114.679 175.325 115.202 175.032C115.73 174.739 116.311 174.592 116.946 174.592C117.586 174.592 118.167 174.739 118.69 175.032C119.212 175.325 119.631 175.72 119.946 176.216C120.26 176.712 120.418 177.261 120.418 177.864C120.418 178.307 120.322 178.723 120.13 179.112C119.943 179.496 119.69 179.829 119.37 180.112C119.775 180.421 120.092 180.803 120.322 181.256C120.556 181.704 120.674 182.184 120.674 182.696C120.674 183.341 120.506 183.931 120.17 184.464C119.839 184.992 119.391 185.416 118.826 185.736C118.26 186.051 117.634 186.208 116.946 186.208ZM116.946 184.256C117.255 184.256 117.535 184.187 117.786 184.048C118.036 183.904 118.236 183.715 118.386 183.48C118.535 183.245 118.61 182.984 118.61 182.696C118.61 182.408 118.535 182.147 118.386 181.912C118.236 181.677 118.036 181.491 117.786 181.352C117.535 181.208 117.255 181.136 116.946 181.136C116.642 181.136 116.364 181.208 116.114 181.352C115.863 181.491 115.66 181.677 115.506 181.912C115.356 182.147 115.282 182.408 115.282 182.696C115.282 182.984 115.356 183.245 115.506 183.48C115.66 183.715 115.863 183.904 116.114 184.048C116.364 184.187 116.642 184.256 116.946 184.256ZM116.946 179.184C117.207 179.184 117.444 179.125 117.658 179.008C117.871 178.885 118.039 178.725 118.162 178.528C118.29 178.331 118.354 178.109 118.354 177.864C118.354 177.619 118.29 177.397 118.162 177.2C118.039 177.003 117.871 176.845 117.658 176.728C117.444 176.605 117.207 176.544 116.946 176.544C116.69 176.544 116.455 176.605 116.242 176.728C116.028 176.845 115.858 177.003 115.73 177.2C115.602 177.397 115.538 177.619 115.538 177.864C115.538 178.109 115.602 178.331 115.73 178.528C115.858 178.725 116.028 178.885 116.242 179.008C116.455 179.125 116.69 179.184 116.946 179.184ZM121.953 186V184.256C122.299 183.995 122.71 183.672 123.185 183.288C123.659 182.899 124.147 182.48 124.649 182.032C125.15 181.579 125.614 181.125 126.041 180.672C126.467 180.219 126.814 179.787 127.081 179.376C127.353 178.965 127.489 178.613 127.489 178.32C127.489 177.995 127.409 177.699 127.249 177.432C127.089 177.16 126.875 176.944 126.609 176.784C126.347 176.624 126.054 176.544 125.729 176.544C125.403 176.544 125.107 176.624 124.841 176.784C124.574 176.944 124.361 177.16 124.201 177.432C124.041 177.699 123.961 177.995 123.961 178.32H122.009C122.009 177.616 122.179 176.984 122.521 176.424C122.862 175.859 123.313 175.413 123.873 175.088C124.438 174.757 125.057 174.592 125.729 174.592C126.411 174.592 127.033 174.76 127.593 175.096C128.153 175.427 128.601 175.875 128.937 176.44C129.273 177.005 129.441 177.632 129.441 178.32C129.441 178.683 129.374 179.048 129.241 179.416C129.107 179.784 128.921 180.155 128.681 180.528C128.441 180.901 128.158 181.28 127.833 181.664C127.507 182.043 127.147 182.432 126.753 182.832C126.363 183.227 125.953 183.632 125.521 184.048H129.497V186H121.953ZM134.789 186.208C134.074 186.208 133.418 186.029 132.821 185.672C132.224 185.315 131.746 184.837 131.389 184.24C131.032 183.643 130.853 182.981 130.853 182.256C130.853 181.883 130.896 181.536 130.981 181.216C131.072 180.896 131.21 180.573 131.397 180.248L134.533 174.8H136.797L134.693 178.44C135.125 178.408 135.541 178.445 135.941 178.552C136.341 178.659 136.712 178.827 137.053 179.056C137.394 179.285 137.693 179.563 137.949 179.888C138.205 180.213 138.402 180.576 138.541 180.976C138.685 181.376 138.757 181.803 138.757 182.256C138.757 182.8 138.653 183.309 138.445 183.784C138.242 184.259 137.96 184.68 137.597 185.048C137.234 185.411 136.813 185.696 136.333 185.904C135.853 186.107 135.338 186.208 134.789 186.208ZM134.789 184.256C135.178 184.256 135.525 184.163 135.829 183.976C136.133 183.784 136.37 183.536 136.541 183.232C136.717 182.928 136.805 182.605 136.805 182.264C136.805 181.896 136.717 181.56 136.541 181.256C136.365 180.952 136.125 180.709 135.821 180.528C135.522 180.347 135.184 180.256 134.805 180.256C134.416 180.256 134.069 180.352 133.765 180.544C133.466 180.731 133.232 180.976 133.061 181.28C132.89 181.584 132.805 181.912 132.805 182.264C132.805 182.643 132.898 182.981 133.085 183.28C133.272 183.579 133.514 183.816 133.813 183.992C134.117 184.168 134.442 184.256 134.789 184.256ZM143.586 186.208C142.898 186.208 142.274 186.051 141.714 185.736C141.154 185.421 140.706 185 140.37 184.472C140.04 183.939 139.874 183.347 139.874 182.696C139.874 182.184 139.989 181.704 140.218 181.256C140.453 180.803 140.768 180.421 141.162 180.112C140.853 179.829 140.6 179.496 140.402 179.112C140.21 178.723 140.114 178.307 140.114 177.864C140.114 177.261 140.272 176.712 140.586 176.216C140.901 175.72 141.32 175.325 141.842 175.032C142.37 174.739 142.952 174.592 143.586 174.592C144.226 174.592 144.808 174.739 145.33 175.032C145.853 175.325 146.272 175.72 146.586 176.216C146.901 176.712 147.058 177.261 147.058 177.864C147.058 178.307 146.962 178.723 146.77 179.112C146.584 179.496 146.33 179.829 146.01 180.112C146.416 180.421 146.733 180.803 146.962 181.256C147.197 181.704 147.314 182.184 147.314 182.696C147.314 183.341 147.146 183.931 146.81 184.464C146.48 184.992 146.032 185.416 145.466 185.736C144.901 186.051 144.274 186.208 143.586 186.208ZM143.586 184.256C143.896 184.256 144.176 184.187 144.426 184.048C144.677 183.904 144.877 183.715 145.026 183.48C145.176 183.245 145.25 182.984 145.25 182.696C145.25 182.408 145.176 182.147 145.026 181.912C144.877 181.677 144.677 181.491 144.426 181.352C144.176 181.208 143.896 181.136 143.586 181.136C143.282 181.136 143.005 181.208 142.754 181.352C142.504 181.491 142.301 181.677 142.146 181.912C141.997 182.147 141.922 182.408 141.922 182.696C141.922 182.984 141.997 183.245 142.146 183.48C142.301 183.715 142.504 183.904 142.754 184.048C143.005 184.187 143.282 184.256 143.586 184.256ZM143.586 179.184C143.848 179.184 144.085 179.125 144.298 179.008C144.512 178.885 144.68 178.725 144.802 178.528C144.93 178.331 144.994 178.109 144.994 177.864C144.994 177.619 144.93 177.397 144.802 177.2C144.68 177.003 144.512 176.845 144.298 176.728C144.085 176.605 143.848 176.544 143.586 176.544C143.33 176.544 143.096 176.605 142.882 176.728C142.669 176.845 142.498 177.003 142.37 177.2C142.242 177.397 142.178 177.619 142.178 177.864C142.178 178.109 142.242 178.331 142.37 178.528C142.498 178.725 142.669 178.885 142.882 179.008C143.096 179.125 143.33 179.184 143.586 179.184Z" fill="white"/>
</g>
<defs>
<filter id="filter0_d_306_3111" x="-6" y="0" width="389" height="250" filterUnits="userSpaceOnUse" color-interpolation-filters="sRGB">
<feFlood flood-opacity="0" result="BackgroundImageFix"/>
<feColorMatrix in="SourceAlpha" type="matrix" values="0 0 0 0 0 0 0 0 0 0 0 0 0 0 0 0 0 0 127 0" result="hardAlpha"/>
<feOffset dy="15"/>
<feGaussianBlur stdDeviation="12.5"/>
<feComposite in2="hardAlpha" operator="out"/>
<feColorMatrix type="matrix" values="0 0 0 0 0 0 0 0 0 0 0 0 0 0 0 0 0 0 0.15 0"/>
<feBlend mode="normal" in2="BackgroundImageFix" result="effect1_dropShadow_306_3111"/>
<feBlend mode="normal" in="SourceGraphic" in2="effect1_dropShadow_306_3111" result="shape"/>
</filter>
<linearGradient id="paint0_linear_306_3111" x1="-3.289" y1="221" x2="339.431" y2="-34.3388" gradientUnits="userSpaceOnUse">
<stop stop-color="#008036"/>
<stop offset="0.931312" stop-color="#10BF5A"/>
</linearGradient>
<linearGradient id="paint1_linear_306_3111" x1="-3.289" y1="221" x2="339.431" y2="-34.3388" gradientUnits="userSpaceOnUse">
<stop stop-color="#01B557"/>
<stop offset="0.931312" stop-color="#008036"/>
</linearGradient>
</defs>
</svg>
