<svg clip-rule="evenodd" fill-rule="evenodd" height="231.746mm" image-rendering="optimizeQuality" shape-rendering="geometricPrecision" text-rendering="geometricPrecision" viewBox="0 0 8846 8846" width="231.746mm" xmlns="http://www.w3.org/2000/svg"><path d="m2572 4740c0-323-49-593 242-593 239 0 175 388 175 539v713l-391-417c-18-36-26-180-26-242zm-700-1697c0-135 202-259 347-132 87 77 57 358 57 536v1185c-97-65-177-216-404-216zm-1010-121v1225c0 450-48 250 279 691 72 98 146 184 219 279 274 359 612 760 877 1115 45 61 175 237 227 271 49-25 187-131 215-175-102-152-256-329-369-478-46-62-84-108-131-166-43-55-78-103-123-159l-249-317c-99-119-84-163-84-334 0-95 52-161 149-161 108 0 224 172 286 239l188 202c24 25 43 42 68 67 22 23 39 37 60 60 29 31 32 44 61 75 45 48 91 85 134 134 26 29 27 39 54 68l828 882c137 136 300 309 300 508v1602h-1414c0-752 32-729-495-1255-108-109-167-150-249-249-169-202-523-460-643-704l-538-984c-20-35-34-71-55-106-47-82-161-264-161-351v-2316c0-378 563-386 559 14-1 17-9 67-7 107 3 71 14 124 14 216zm713-552c0 296 13 1180-6 1351-2 23-4 29-6 62-10 154 18 663-10 746l-112 197c-47-31-283-316-283-390v-2128c0-242 320-267 390-80zm-700-296c-158-84-353-115-529-31-174 83-346 305-346 515v2343c0 200 132 358 225 543 87 176 184 336 273 508 75 145 362 670 428 743 60 68 130 130 195 196 261 261 513 512 774 774 301 300 247 367 246 926 0 65-7 130 12 176 18 44 63 79 123 79h1737c87 0 134-86 134-175v-1696c0-365-180-515-380-724l-195-209c-29-35-33-46-68-81-96-95-212-198-219-346-16-352 0-747 0-1104 0-253-2-453-242-592-184-107-282-57-471-41 0-270 19-615-1-875-16-214-227-431-457-431-106 0-153 13-256 13 0-204 40-461-51-609-173-282-504-356-765-153-61 48-148 169-167 251z"/><path d="m6423 8025v525h-1428v-404c11-200 21-39 1-283l-1-821c0-191 40-301 127-412 57-73 115-109 195-209 21-28 40-44 66-69l390-417c25-25 44-42 68-68 28-30 31-43 60-74 45-49 91-85 134-135l647-700c167-169 180-232 320-232 166 0 156 286 76 440-27 54-210 267-262 331l-261 331c-24 34-42 52-65 83l-323 417 229 189 245-320c31-37 54-66 84-105 58-77 108-135 165-212l1006-1283c62-81 102-137 103-274l-1-1536c0-162-29-355 118-448 217-137 434 25 434 219v2357c0 97-260 518-323 646l-462 844c-54 98-66 94-154 183-135 135-705 736-809 820-65 51-120 98-172 165-103 133-207 265-207 452zm-566-2612 3-1088c43-261 415-227 415 38 0 782 43 507-195 815-17 23-212 228-223 235zm714-768c0-404 0-808 0-1211 0-191-34-442 78-529 128-100 339-21 339 165v1346c-255 0-283 140-417 229zm848 81c-32-47-135-181-135-242v-2262c0-289 418-295 418 13v2087c0 75-268 393-283 404zm-431-2504v377c-100-3-605-153-700 390-36 204-13 657-13 902-166-79-462-44-601 140-94 125-113 241-113 453 0 377-1 754 0 1131 1 189-89 199-219 347l-269 296c-26 25-42 41-68 67-34 34-38 45-67 80-24 28-43 42-67 68-120 135-172 326-172 542v1576c0 144 15 255 162 255h1696c175 0 162-177 162-377 0-647-72-500 481-1053l680-680c136-136 168-239 266-408l418-767c59-115 282-478 282-579v-2464c0-106-51-221-110-293-23-28-35-50-62-73-339-284-546-115-703-78-41-179-234-364-485-364-283 0-498 229-498 512z"/><path d="m2572 1293c0-213 58-374 143-544 32-62 62-91 101-141 122-157 440-312 631-312 238 0 409 18 614 167 477 348 234 360 736-2 279-201 630-211 943-75 425 186 685 801 441 1297-53 107-87 147-164 228l-298 280c-277 279-674 604-962 883l-327 292c-49-33-88-67-131-111-47-48-83-68-128-114l-513-471c-29-25-37-25-67-54-23-23-36-40-60-61l-135-121c-216-191-602-508-721-746-50-101-103-252-103-395zm889-1293h178c162 12 318 56 452 137 222 136 180 134 339 240 36-24 49-46 86-75 222-174 468-280 722-302h193c145 12 291 53 435 126 604 302 862 976 605 1619-50 126-197 353-296 431-39 30-45 35-79 69l-148 135c-28 28-45 49-75 73l-524 472c-28 27-46 49-74 74l-148 135c-31 29-44 32-75 60l-378 349c-137 109-216 253-355 123-34-31-48-36-81-67-28-27-46-49-74-74l-525-472c-52-53-95-80-148-135l-296-269c-56-56-101-86-155-141-28-28-46-49-76-73l-362-338c-205-221-326-502-326-818 0-184 53-384 105-514 68-167 125-247 229-377l164-146c191-138 439-225 687-242z" fill="#008035"/></svg>