<svg fill="none" height="40" viewBox="0 0 40 40" width="40" xmlns="http://www.w3.org/2000/svg" xmlns:xlink="http://www.w3.org/1999/xlink"><clipPath id="a"><path d="m0 0h40v40h-40z"/></clipPath><g clip-path="url(#a)"><path d="m40.0006 27.8123c-.1187.65-.1937 1.3126-.3645 1.949-.8844 3.2834-3.1136 5.1667-6.3438 5.9229-.9009.2008-1.8208.3038-2.7437.3073-2.9813.0375-5.9625.0156-8.9448.0115-.1681.0071-.3363-.013-.4979-.0594-.3261-.1115-.4615-.3698-.4167-.7063.0109-.1448.074-.2808.1777-.3825.1037-.1018.2408-.1624.3858-.1706.1427-.0128.2861-.0163.4292-.0104 2.9688 0 5.9375.0052 8.9052 0 1.5562 0 3.051-.3031 4.4417-1.0292 2.0218-1.0562 3.1156-2.7698 3.4885-4.9802.3583-2.1239.0427-4.2021-.4771-6.2583-1.0416-4.1052-2.9166-7.7521-5.9573-10.7469-.9763-.9583-2.0566-1.80447-3.2208-2.52288-.2938-.18229-.5458-.24064-.8573-.07502-.1876.08138-.3817.14688-.5802.19582.5688.53125 1.1146 1.03128 1.649 1.54268.3416.3292.35.749.0416 1.0271-.2802.2531-.6406.2302-.9781-.0823-.7844-.7239-1.5625-1.4583-2.3437-2.18124-.1465-.11606-.2995-.22351-.4584-.32185v1.34369c0 .2469.0073.4949 0 .7417-.0187.3907-.2698.6552-.625.676-.0885.0058-.1772-.0064-.2608-.0359-.0836-.0296-.1603-.0758-.2255-.1359-.0651-.0601-.1174-.1329-.1536-.2138s-.0556-.1684-.057-.2571c-.026-.4802-.0093-.9624-.0114-1.44471v-.64484c-.1526.08651-.2991.18329-.4386.28961-.775.71454-1.5427 1.43754-2.3166 2.15414-.3896.3605-.7781.3823-1.0615.0719-.2833-.3104-.2302-.6854.1615-1.0542.5094-.4791 1.0219-.95413 1.5625-1.4583-.2753-.11151-.5567-.20752-.8427-.28752-.144-.02137-.2909.00692-.4167.08021-2.1062 1.21251-3.8385 2.84481-5.3187 4.75941-.0831.1166-.1721.229-.2667.3365-.109.1234-.2606.201-.4245.2172-.1638.0162-.3278-.0301-.4588-.1298-.0711-.0475-.1316-.1092-.1779-.1811-.0462-.0719-.0772-.1524-.0911-.2368-.0139-.0843-.0103-.1707.0105-.2536.0209-.0829.0585-.1607.1105-.2285.3532-.4823.7469-.9375 1.1105-1.4104.099-.114.1614-.2552.1791-.4052.0125-1.3792.0073-2.75936.0063-4.13957-.0051-.05613-.0141-.11183-.0271-.16667-2.4198 1.04895-4.8281 1.06041-7.26876-.00626v4.7407c.625.1041 1.25.1312 1.83646.3187.6777.2145 1.3274.5089 1.9354.8771.6083.3719.8729.9833.8688 1.7292-.0177 3.0989-.0073 6.1968-.0073 9.2958v.5041c.1646 0 .3021.0052.4385 0 1.1927-.0489 2.3729.024 3.4927.4719.4429.1804.8626.4134 1.25.6938.5688.4167.8334.9906.8271 1.7177-.0167 2.7208-.0167 5.442 0 8.1635.0063.8094-.3229 1.4-.9521 1.8563-.8573.625-1.8469.877-2.8771 1.0052-1.7031.2083-3.3458.0302-4.89579-.7802-.66354 1.3541-1.90625 1.7458-3.21667 2.0291-.29062.0625-.58542.1042-.87813.1573h-1.71875c-.52083-.1042-1.04896-.1739-1.5625-.3198-1.12604-.325-2.144784-.8104-2.58332562-2.0239v-3.9896c.29687462-.8636.94479362-1.3719 1.74687562-1.7229.1494-.079.30785-.1395.47187-.1802.38646-.0646.45313-.2813.45313-.6459-.01354-5.3635-.00001-10.7291-.02084-16.0885 0-.9563.39167-1.6146 1.1625-2.101.73477-.4503 1.56144-.7294 2.41875-.8167.34896-.0417.43855-.1656.43647-.5073-.01667-2.0177 0-4.03544-.01355-6.05315-.0052-.72396.26875-1.29893.83334-1.7156.3433-.25618.7174-.46826 1.11353-.63125 1.46459-.58125 2.98649-.65728 4.53019-.4302.9375.13854 1.8292.40308 2.6042.97392.6135.45104.9469 1.02919.9302 1.82607-.0302 1.43125-.0083 2.86354-.0083 4.29479v.40202l2.9937-2.26766c-1.7416-1.79688-2.3041-4.03542-2.3448-6.45834-.0187-1.135414 1.0177-1.770813 2.0261-1.23123.296.16535.5751.35934.8333.579173.6521.532287 1.5312.619787 2.1594.104167.5531-.451042 1.1333-.811473 1.8177-1.00418109h1.0156c.6865.18958309 1.2677.54792709 1.8198 1.00001009.625.514581 1.5083.428101 2.1615-.098979.2772-.23493.5777-.440855.8968-.614573.9511-.484375 1.9625.141653 1.9729 1.209363.0058.29954-.012.59908-.0531.89584-.0541.35833.0427.52916.4167.67291 1.7708.68646 3.0323 3.17919 1.1594 5.07503-.0394.05139-.0743.10609-.1042.16352.1875.05208.3365.09063.4844.13438 1.1239.33437 2.1708.80729 2.9781 1.69477.3125.3396.3125.7427.0313 1.0084-.2813.2656-.6688.2374-.9959-.0938-1.1802-1.19481-2.7083-1.47813-4.2875-1.63021.1563.17326.3248.33512.5042.48436.1844.16455.3719.32705.551.49685 3.7313 3.5417 5.899 7.9303 6.9219 12.924.1719.8334.2635 1.6917.3917 2.5375zm-28.6687-11.2906c-1.1422.5394-2.38935.8204-3.65255.8229-1.26319.0025-2.5114-.2735-3.65579-.8083v14.8458c1.62084-.1708 3.15834.0365 4.64688.7667 0-1.5927.0125-3.1136-.00625-4.6344-.00833-.6823.23333-1.25.77187-1.6198.49738-.3257 1.02524-.6023 1.57604-.826.2427-.1042.3313-.2021.3271-.4677-.0188-.95-.0073-1.9-.0073-2.85zm-1.3313 12.6677v.4355c0 2.0312.0105 4.0625-.00828 6.0916-.01326.1748.02458.3497.10888.5034.0843.1536.2115.2795.3661.3623.1879.1158.3851.2158.5896.2989 1.076.4166 2.1948.5208 3.3333.4166.8334-.0729 1.6459-.2374 2.3855-.6604.377-.2156.5739-.501.5687-.9749-.024-2.0042-.0104-4.0094-.0104-6.0136v-.4677c-1.147.5425-2.4.8239-3.6688.8239s-2.5218-.2814-3.66872-.8239zm16.7323-21.20934c.6554-.02204 1.2806-.28113 1.7594-.72916 1.1302-1.00417 1.7021-2.31046 1.9708-3.7615.1209-.65104.1615-1.31667.2386-1.97917l-.1198-.03641c-.176.12812-.3604.24582-.5271.38436-1.3125 1.09271-2.8885 1.08333-4.1844-.03229-.7729-.66459-1.6666-.66563-2.4333 0-1.2927 1.11771-2.8698 1.13022-4.1844.03855-.1708-.14167-.3635-.25626-.6073-.42709.0261 1.82187.348 3.46039 1.3542 4.90102.4667.67083 1.0292 1.25002 1.8396 1.50314.2909.07315.5854.1312.8823.17395-.1209-.23125-.1959-.35207-.25-.48228-.3677-.88646-.7469-1.77084-1.0886-2.66459-.1406-.37083.0698-.71354.4313-.83333.3354-.10938.6687.0552.8187.41041.0459.10417.0605.22812.1105.33228.4593.97292.9239 1.94167 1.3833 2.91667.1156.24375.2969.3125.5614.3125.1082.00746.2162-.01696.3107-.07029.0944-.05333.1711-.1332.2206-.2297.6165-.96474 1.101-2.00769 1.4406-3.10104.1375-.44896.4334-.65937.7886-.5927.4343.08021.6677.48643.4875.96664-.3782.99167-.7907 1.97084-1.2042 2.99688zm-13.0656 18.02914c-1.1167 0-2.0969.1823-2.8427.549-.3469.1708-.7885.3312-.7979.7687s.4292.6334.7812.7771c1.9021.7781 3.8178.7792 5.7198 0 .3542-.1448.7907-.3365.7813-.7781-.0094-.4417-.45-.6031-.8-.7677-.899-.4271-1.8604-.5532-2.8427-.5521zm-6.00832-12.6656c-1.12812 0-2.10624.1844-2.84791.5542-.34583.1729-.78855.3354-.78646.7791 0 .4167.42291.6104.76666.7521 1.91875.7906 3.85417.7927 5.76563-.0073.3417-.1427.7583-.3281.751-.7594-.0072-.4312-.427-.5916-.7635-.7541-.91146-.4428-1.8875-.5698-2.88646-.5677zm-2.65833 21.9823c1.12708 0 2.14167-.1906 2.87812-.5636.33334-.1687.75729-.3302.76771-.751s-.4073-.6188-.74792-.7615c-1.925-.8041-3.86249-.8041-5.78854 0-.34166.1417-.75728.3313-.74999.7594s.42708.5906.76249.7531c.90521.4355 1.87813.5646 2.87813.5636zm6.66665-28.66771.0219.11038c.8333-.17292 1.6792-.31247 2.5-.5333.3479-.09375.6667-.34062.9635-.56457.2511-.18855.2438-.46568.0084-.67297-.1978-.18762-.4256-.34074-.674-.45308-1.8844-.75209-3.7792-.75106-5.65937.01144-.35208.14375-.79062.32398-.79375.77189-.00312.44792.43959.61146.78646.77708.89271.43125 1.85626.55418 2.84686.55313zm-10.33124 29.21771c0 .3125.03855.6-.00729.8739-.12916.773.29791 1.1521.93125 1.4126 1.11875.4593 2.28542.5739 3.47812.4708.82084-.0708 1.62918-.2167 2.34168-.6531.23021-.1407.52083-.3709.55729-.6001.08646-.4802.02604-.9875.02604-1.5041-2.46875 1.0823-4.88229 1.0677-7.33229 0zm28.42814-27.98856c1.1531.30729 2.5-.13749 3.0729-.97707.6594-.95834 0-2.45627-1.1667-2.62711-.3197 1.34462-.9776 2.58525-1.9114 3.60418z" fill="#000"/><g fill="#008036"><path d="m23.9792 23.9749v-2.624c-.8594-.0635-1.5854-.3906-2.1094-1.0874-.3759-.4908-.5649-1.0993-.5333-1.7167.0542-1.3729 1.0114-2.3125 2.6594-2.5781 0-.1948-.0094-.399 0-.6032.025-.4302.2989-.6979.6895-.6875.3907.0104.625.2678.6365.6917.0083.1938 0 .3864 0 .5958.2531.0458.4823.074.7042.1323.5448.1449 1.0287.4606 1.3808.9008.3521.4403.5538.9817.5754 1.545.0115.4615-.2.7396-.5885.774-.4052.0365-.675-.2083-.7375-.6802-.1115-.8333-.5771-1.2875-1.3334-1.2667v2.5896c1.7386.3188 2.6521 1.25 2.6636 2.6823.0115 1.449-.8813 2.3781-2.6375 2.724-.0979.4979.1812 1.2958-.7167 1.2687-.8187-.025-.5885-.7604-.6646-1.277-.2083-.0375-.4104-.0626-.6083-.1115-.5415-.1316-1.0281-.4297-1.3912-.8524s-.5844-.9487-.6327-1.5039c-.0438-.4958.1697-.8239.5687-.8729.4333-.0531.6958.2.7573.7292.0885.7271.5792 1.1989 1.3177 1.2281zm1.3719-2.624v2.6115c.1667.0061.333-.021.4891-.0797.1562-.0587.2991-.1479.4205-.2624.1213-.1145.2187-.252.2864-.4044.0678-.1525.1045-.3169.1081-.4837.0292-.7667-.4812-1.3229-1.3041-1.3813zm-1.375-3.9958c-.7771.0417-1.3313.625-1.3115 1.3438.009.3414.1513.6658.3963.9037.2451.2379.5736.3704.9152.3692z"/><path d="m31.198 33.349c-.7386.0104-1.0552-.2292-1.0813-.6469-.026-.4177.2917-.7125.8281-.7292.884-.0154 1.7562-.2052 2.5667-.5583 1.5708-.7011 2.2396-2.0031 2.4281-3.6271.0188-.1677 0-.3406.0302-.5062.0667-.3896.3813-.6563.7209-.6323.1844.0156.3552.1034.4753.2442s.1799.3233.1663.5079c-.0214 1.0286-.2817 2.0382-.7604 2.9489-.8333 1.5886-2.2375 2.3667-3.9031 2.7646-.5531.1313-1.125.1813-1.4708.2344z"/></g></g></svg>