<svg width="13" height="17" viewBox="0 0 13 17" fill="none" xmlns="http://www.w3.org/2000/svg">
<path d="M6.11215 9.92939C3.09342 10.2023 0.79357 12.753 0.833646 15.7838V15.9375C0.833646 16.5243 1.30935 17 1.89615 17C2.48294 17 2.95865 16.5243 2.95865 15.9375V15.7413C2.9267 13.8804 4.29999 12.2935 6.14615 12.0579C8.09494 11.8647 9.83143 13.2879 10.0247 15.2366C10.0361 15.3519 10.0419 15.4675 10.042 15.5833V15.9375C10.042 16.5243 10.5177 17 11.1045 17C11.6913 17 12.167 16.5243 12.167 15.9375V15.5833C12.1635 12.4501 9.62079 9.91305 6.48767 9.91651C6.3624 9.91667 6.23716 9.92096 6.11215 9.92939Z" fill="#008036"/>
<path d="M6.50037 8.5C8.84756 8.5 10.7504 6.5972 10.7504 4.25C10.7504 1.9028 8.84756 0 6.50037 0C4.15317 0 2.25037 1.9028 2.25037 4.25C2.25269 6.59623 4.15413 8.49764 6.50037 8.5ZM6.50037 2.125C7.67396 2.125 8.62537 3.0764 8.62537 4.25C8.62537 5.4236 7.67396 6.375 6.50037 6.375C5.32677 6.375 4.37537 5.4236 4.37537 4.25C4.37537 3.0764 5.32677 2.125 6.50037 2.125Z" fill="#008036"/>
</svg>
