<svg width="22" height="22" viewBox="0 0 22 22" fill="none" xmlns="http://www.w3.org/2000/svg">
<path d="M15.125 0C11.2695 0 8.25 1.81225 8.25 4.125V6.49642C7.80725 6.44417 7.34708 6.41667 6.875 6.41667C3.0195 6.41667 0 8.22892 0 10.5417V17.875C0 20.1877 3.0195 22 6.875 22C9.99808 22 12.573 20.8111 13.4383 19.1299C13.9865 19.2097 14.5512 19.25 15.125 19.25C18.9805 19.25 22 17.4377 22 15.125V4.125C22 1.81225 18.9805 0 15.125 0ZM20.1667 11.4583C20.1667 12.54 18.0107 13.75 15.125 13.75C14.6557 13.75 14.1955 13.7179 13.75 13.6556V11.8369C14.1992 11.8892 14.6593 11.9167 15.125 11.9167C17.1362 11.9167 18.92 11.4235 20.1667 10.6233V11.4583ZM1.83333 13.3733C3.08 14.1735 4.86383 14.6667 6.875 14.6667C8.88617 14.6667 10.67 14.1735 11.9167 13.3733V14.2083C11.9167 15.29 9.76067 16.5 6.875 16.5C3.98933 16.5 1.83333 15.29 1.83333 14.2083V13.3733ZM20.1667 7.79167C20.1667 8.87333 18.0107 10.0833 15.125 10.0833C14.6346 10.0833 14.1533 10.0485 13.6895 9.98067C13.5126 9.16758 12.9562 8.437 12.1257 7.85125C13.0277 8.10792 14.0433 8.25 15.125 8.25C17.1362 8.25 18.92 7.75683 20.1667 6.95658V7.79167ZM15.125 1.83333C18.0107 1.83333 20.1667 3.04333 20.1667 4.125C20.1667 5.20667 18.0107 6.41667 15.125 6.41667C12.2393 6.41667 10.0833 5.20667 10.0833 4.125C10.0833 3.04333 12.2393 1.83333 15.125 1.83333ZM6.875 8.25C9.76067 8.25 11.9167 9.46 11.9167 10.5417C11.9167 11.6233 9.76067 12.8333 6.875 12.8333C3.98933 12.8333 1.83333 11.6233 1.83333 10.5417C1.83333 9.46 3.98933 8.25 6.875 8.25ZM6.875 20.1667C3.98933 20.1667 1.83333 18.9567 1.83333 17.875V17.0399C3.08 17.8402 4.86383 18.3333 6.875 18.3333C8.88617 18.3333 10.67 17.8402 11.9167 17.0399V17.875C11.9167 18.9567 9.76067 20.1667 6.875 20.1667ZM15.125 17.4167C14.6557 17.4167 14.1955 17.3846 13.75 17.3223V15.5036C14.1992 15.5558 14.6593 15.5833 15.125 15.5833C17.1362 15.5833 18.92 15.0902 20.1667 14.2899V15.125C20.1667 16.2067 18.0107 17.4167 15.125 17.4167Z" fill="white"/>
</svg>
