<svg width="21" height="21" viewBox="0 0 21 21" fill="none" xmlns="http://www.w3.org/2000/svg">
<path d="M10.5 21C9.07725 21 7.735 20.3752 6.818 19.2859C5.4705 19.4408 4.08187 18.9306 3.07563 17.9253C2.07025 16.919 1.56275 15.5278 1.68437 14.1085C0.62475 13.265 0 11.9228 0 10.5C0 9.07725 0.62475 7.735 1.715 6.818C1.56187 5.47312 2.06938 4.08187 3.07563 3.07563C4.08187 2.0685 5.4705 1.56187 6.8915 1.68437C7.735 0.625625 9.07725 0 10.5 0C11.9228 0 13.265 0.62475 14.182 1.71413C15.5312 1.56012 16.9181 2.06937 17.9244 3.07475C18.9298 4.081 19.4373 5.47225 19.3156 6.8915C20.3752 7.735 21 9.07725 21 10.5C21 11.9228 20.3753 13.265 19.285 14.182C19.4381 15.5269 18.9306 16.9181 17.9244 17.9244C16.9172 18.9306 15.526 19.4373 14.1085 19.3156C13.265 20.3744 11.9228 21 10.5 21ZM6.88888 17.5665C7.37975 17.5665 7.83475 17.7774 8.15588 18.158C8.74038 18.8519 9.59437 19.25 10.5 19.25C11.4056 19.25 12.2596 18.8519 12.8441 18.158C13.1967 17.7389 13.7104 17.5271 14.2581 17.5718C15.1629 17.6479 16.0466 17.3267 16.6871 16.6862C17.3267 16.0466 17.6496 15.1611 17.5726 14.2573C17.5254 13.7113 17.7389 13.1959 18.1589 12.8424C18.8519 12.2587 19.25 11.4039 19.25 10.4991C19.25 9.59437 18.8519 8.7395 18.1589 8.15588C17.7397 7.80325 17.5254 7.287 17.5726 6.741C17.6496 5.83712 17.3276 4.95162 16.6871 4.312C16.0466 3.67237 15.1576 3.353 14.259 3.4265C13.7112 3.47637 13.1967 3.25937 12.8441 2.84113C12.2596 2.14725 11.4056 1.74913 10.5 1.74913C9.59437 1.74913 8.74038 2.14725 8.15588 2.84113C7.80237 3.26025 7.287 3.47025 6.74187 3.42738C5.83275 3.34862 4.95337 3.67237 4.31287 4.31287C3.67325 4.9525 3.35037 5.838 3.42738 6.74187C3.47463 7.28788 3.26113 7.80325 2.84113 8.15675C2.14812 8.74037 1.75 9.59525 1.75 10.5C1.75 11.4047 2.14812 12.2596 2.84113 12.8433C3.26025 13.1959 3.47463 13.7121 3.42738 14.2581C3.35037 15.162 3.67237 16.0475 4.31287 16.6871C4.95337 17.3276 5.84675 17.6479 6.741 17.5726C6.79087 17.5683 6.83988 17.5665 6.88888 17.5665ZM7.875 7C7.392 7 7 7.392 7 7.875C7 8.358 7.392 8.75 7.875 8.75C8.358 8.75 8.75 8.358 8.75 7.875C8.75 7.392 8.358 7 7.875 7ZM13.125 12.25C12.642 12.25 12.25 12.642 12.25 13.125C12.25 13.608 12.642 14 13.125 14C13.608 14 14 13.608 14 13.125C14 12.642 13.608 12.25 13.125 12.25ZM9.478 13.6106L12.978 8.36063C13.2466 7.959 13.1381 7.41475 12.7356 7.147C12.3323 6.8775 11.7898 6.98775 11.522 7.38937L8.022 12.6394C7.75338 13.041 7.86187 13.5852 8.26437 13.853C8.414 13.9528 8.582 14 8.74912 14C9.03175 14 9.31 13.8635 9.478 13.6106Z" fill="white"/>
</svg>
