<svg width="13" height="13" viewBox="0 0 13 13" fill="none" xmlns="http://www.w3.org/2000/svg">
<g clip-path="url(#clip0_337_3721)">
<path d="M7.87105 0C8.08907 0.0467188 8.31115 0.0785403 8.52443 0.142525C9.96696 0.575181 10.9057 1.93002 10.8265 3.38643C10.7405 4.96741 9.63824 6.19633 8.1104 6.45464C6.30665 6.75933 4.59294 5.48674 4.36307 3.67182C4.30639 3.24412 4.33561 2.80939 4.449 2.39312C4.56239 1.97684 4.75768 1.58737 5.02344 1.2475C5.2892 0.907619 5.62009 0.624164 5.99674 0.413738C6.37339 0.203312 6.78823 0.0701333 7.21698 0.0220019C7.24106 0.0167821 7.26463 0.00942092 7.2874 0H7.87105ZM7.58668 1.08637C6.39873 1.0769 5.43118 2.03768 5.41526 3.24357C5.39969 4.41899 6.37334 5.40415 7.56027 5.41363C8.75464 5.42344 9.73709 4.46977 9.74928 3.2886C9.75463 3.00126 9.70264 2.71573 9.59635 2.44872C9.49006 2.18171 9.33161 1.93857 9.13025 1.73352C8.92889 1.52847 8.68866 1.36564 8.42362 1.25452C8.15859 1.1434 7.87406 1.08624 7.58668 1.08637Z" fill="white"/>
<path d="M12.3399 13C12.0152 12.8821 11.8964 12.6445 11.9117 12.3087C11.9255 12.0006 11.9174 11.6915 11.914 11.3827C11.8961 9.8593 10.7322 8.68354 9.21009 8.66695C8.12337 8.65499 7.03653 8.65499 5.94959 8.66695C4.60185 8.68151 3.50735 9.61961 3.28831 10.9477C3.24193 11.229 3.25886 11.5209 3.25107 11.808C3.24634 11.9813 3.24092 12.1553 3.25107 12.3279C3.27206 12.6624 3.138 12.8893 2.8174 12.9996H2.58889C2.26422 12.8818 2.1454 12.6438 2.16131 12.308C2.18433 11.8225 2.14337 11.3296 2.21344 10.8522C2.42199 9.43511 3.21316 8.44353 4.52332 7.86936C4.98238 7.66861 5.46785 7.58464 5.96889 7.58532C7.04342 7.58532 8.11829 7.57957 9.19282 7.58532C11.0111 7.59751 12.4966 8.78918 12.9083 10.5601C12.9472 10.7277 12.9692 10.8986 12.999 11.0679V12.566C12.9689 12.6682 12.9136 12.7613 12.8382 12.8367C12.7628 12.9121 12.6697 12.9674 12.5674 12.9976L12.3399 13Z" fill="white"/>
<path d="M1.27157e-05 5.83983C0.117825 5.51449 0.35616 5.39635 0.691655 5.41158C0.996343 5.42546 1.30103 5.41462 1.62501 5.41462V5.28802C1.62501 4.97927 1.62501 4.67017 1.62501 4.36142C1.62501 4.03507 1.85658 3.79267 2.16329 3.7903C2.47001 3.78793 2.70496 4.02999 2.70902 4.35567C2.71342 4.702 2.70902 5.04866 2.70902 5.41462H2.85155C3.1603 5.41462 3.46939 5.4109 3.77814 5.41462C4.03916 5.41868 4.24668 5.57644 4.31101 5.80699C4.37533 6.03753 4.29137 6.28704 4.08621 6.4035C3.98316 6.45937 3.86855 6.49054 3.75139 6.49457C3.40981 6.50608 3.06754 6.49863 2.70902 6.49863V6.68111C2.70902 6.96887 2.71139 7.25663 2.70902 7.54439C2.70598 7.88293 2.47712 8.12364 2.16532 8.1233C1.85353 8.12296 1.62569 7.88022 1.62366 7.54337C1.62366 7.2011 1.62366 6.85884 1.62366 6.49863H1.36907C1.1365 6.49863 0.902902 6.48847 0.671 6.501C0.336521 6.51894 0.108683 6.38861 -0.00134277 6.06699L1.27157e-05 5.83983Z" fill="white"/>
<path d="M12.5684 13C12.6706 12.9698 12.7637 12.9145 12.8391 12.8391C12.9145 12.7637 12.9698 12.6706 13 12.5684V13H12.5684Z" fill="white"/>
</g>
<defs>
<clipPath id="clip0_337_3721">
<rect width="13" height="13" fill="white"/>
</clipPath>
</defs>
</svg>
