<svg width="14" height="16" viewBox="0 0 14 16" fill="none" xmlns="http://www.w3.org/2000/svg">
<g clip-path="url(#clip0_337_3727)">
<path d="M1.26388 2.72653C1.26388 2.44349 1.25993 2.17694 1.26388 1.91314C1.28026 0.963573 1.90922 0.206064 2.82792 0.032639C2.95314 0.0107053 3.0801 0.000484166 3.20718 0.00210639C6.15587 0.000274433 9.10466 0.000274433 12.0535 0.00210639C13.0426 0.00424367 13.7957 0.634135 13.965 1.57881C13.9869 1.72151 13.9963 1.86588 13.9929 2.01024C13.9944 6.00421 13.9868 9.99818 13.999 13.9922C14.002 15.0751 13.2708 15.8143 12.458 15.9606C12.3111 15.9858 12.1622 15.998 12.0132 15.9972C9.09202 15.9991 6.17074 15.9991 3.24935 15.9972C2.26966 15.9972 1.51995 15.4211 1.3106 14.5091C1.27918 14.3514 1.26292 14.1911 1.26205 14.0303C1.25447 13.7861 1.26024 13.5418 1.26024 13.2731C1.02237 13.2731 0.792992 13.2731 0.562405 13.2731C0.474317 13.2763 0.38613 13.2709 0.299048 13.2572C0.209128 13.2393 0.128902 13.1887 0.0736646 13.1151C0.0184274 13.0415 -0.00795735 12.95 -0.00045692 12.8581C0.00704351 12.7662 0.0479023 12.6802 0.114331 12.6166C0.18076 12.5531 0.268112 12.5164 0.359729 12.5135C0.651604 12.5067 0.943783 12.5119 1.24749 12.5119V10.0107C0.965021 10.0107 0.685282 10.0137 0.405239 10.0107C0.16555 10.0073 0.004138 9.85589 -0.00101988 9.63972C-0.00648116 9.415 0.156751 9.25257 0.401599 9.24891C0.681641 9.24463 0.961987 9.24891 1.25113 9.24891V6.74859H0.613982C0.536614 6.74859 0.459245 6.75073 0.381877 6.74859C0.164335 6.73943 0.00990447 6.59226 0.000802328 6.388C-0.00253005 6.33782 0.00427628 6.28747 0.0208133 6.24002C0.0373502 6.19256 0.0632724 6.14897 0.0970163 6.11188C0.13076 6.07478 0.171627 6.04495 0.217145 6.02418C0.262663 6.00342 0.311887 5.99216 0.361851 5.99107C0.570897 5.97947 0.781159 5.9874 0.991115 5.98679C1.07334 5.98679 1.15556 5.98679 1.24961 5.98679V3.48679C0.976549 3.48679 0.70743 3.48679 0.438613 3.48679C0.169797 3.48679 0.0050497 3.34573 0.000498627 3.11765C-0.00435585 2.88316 0.164639 2.7305 0.438917 2.72775C0.70743 2.72439 0.976552 2.72653 1.26388 2.72653ZM2.02239 13.2746C2.02239 13.5329 2.02239 13.7656 2.02239 13.9982C2.02239 14.7576 2.49843 15.2388 3.25148 15.2388C6.17266 15.2388 9.09383 15.2388 12.015 15.2388C12.7675 15.2388 13.2453 14.757 13.2456 13.9976C13.2456 9.99827 13.2456 5.9985 13.2456 1.99832C13.247 1.86515 13.2313 1.73236 13.1989 1.60323C13.0587 1.07716 12.6182 0.759614 12.0311 0.759309C9.09818 0.757884 6.16598 0.757884 3.23449 0.759309C3.15724 0.759969 3.08011 0.765682 3.0036 0.776409C2.5585 0.833505 2.15103 1.16356 2.07336 1.60659C2.00995 1.96718 2.02603 2.34213 2.00752 2.70028C2.02985 2.70901 2.05276 2.71615 2.07609 2.72164C2.3355 2.72317 2.59491 2.72531 2.85462 2.7247C3.01391 2.7247 3.14923 2.77142 3.23509 2.91523C3.3868 3.16712 3.20961 3.47611 2.90711 3.48282C2.61675 3.48923 2.32609 3.48434 2.03209 3.48434V5.97734C2.0767 5.98009 2.11402 5.98406 2.15103 5.98436C2.40528 5.98436 2.65954 5.97825 2.91318 5.98802C3.13861 5.99657 3.28849 6.16175 3.28485 6.37456C3.28121 6.58738 3.12647 6.73882 2.89953 6.74737C2.82792 6.75011 2.75602 6.74737 2.68411 6.74737H2.03301V9.24615C2.32367 9.24615 2.60432 9.24249 2.88496 9.24615C3.14225 9.25073 3.30731 9.4324 3.28182 9.67361C3.26089 9.87268 3.10402 10.0061 2.87616 10.0095C2.59643 10.0131 2.31669 10.0095 2.03513 10.0095V12.5101C2.33429 12.5101 2.621 12.5052 2.90742 12.5101C3.17411 12.5162 3.34735 12.7602 3.26786 13.0044C3.21416 13.169 3.07429 13.267 2.86919 13.27C2.594 13.278 2.31881 13.2746 2.02269 13.2746H2.02239Z" fill="white"/>
<path d="M7.62097 11.8103C6.8481 11.8103 6.07512 11.8103 5.30204 11.8103C4.9504 11.8103 4.81114 11.6625 4.82631 11.3086C4.88426 9.94353 5.7529 8.86176 7.02629 8.56956C8.61189 8.20561 10.196 9.32097 10.4041 10.9487C10.4222 11.0803 10.4333 11.2128 10.4375 11.3456C10.4448 11.6595 10.2997 11.8082 9.98995 11.8091C9.36574 11.8103 8.74174 11.8103 8.11794 11.8091L7.62097 11.8103ZM9.64043 11.0418C9.54758 10.0342 8.62432 9.23853 7.60033 9.26692C6.57027 9.29532 5.66491 10.1078 5.6282 11.0418H9.64043Z" fill="white"/>
<path d="M7.63645 7.88536C7.27352 7.88554 6.9187 7.77739 6.61688 7.57457C6.31506 7.37176 6.0798 7.08341 5.94087 6.746C5.80194 6.4086 5.76559 6.03731 5.83642 5.67911C5.90724 5.32091 6.08206 4.9919 6.33875 4.73371C6.59544 4.47553 6.92246 4.29977 7.27844 4.22867C7.63442 4.15758 8.00336 4.19434 8.33857 4.33432C8.67378 4.47429 8.9602 4.71117 9.16159 5.01501C9.36297 5.31884 9.47028 5.67597 9.46992 6.04119C9.47 6.28347 9.42262 6.52339 9.3305 6.74723C9.23837 6.97107 9.10331 7.17444 8.93303 7.34571C8.76275 7.51699 8.56058 7.65281 8.33811 7.74541C8.11563 7.83801 7.8772 7.88556 7.63645 7.88536ZM7.62916 7.11991C7.84278 7.12081 8.05183 7.05778 8.22977 6.93885C8.40772 6.81991 8.54651 6.65043 8.62852 6.45193C8.71053 6.25344 8.73205 6.0349 8.69035 5.82406C8.64865 5.61323 8.54561 5.41963 8.39433 5.26786C8.24304 5.11609 8.05034 5.01301 7.8407 4.9717C7.63107 4.93039 7.41397 4.95272 7.21698 5.03587C7.01999 5.11901 6.852 5.25921 6.73437 5.43865C6.61673 5.61809 6.55476 5.82867 6.55632 6.04364C6.55863 6.32894 6.67251 6.60185 6.8733 6.80328C7.0741 7.00472 7.34565 7.11847 7.62916 7.11991Z" fill="white"/>
</g>
<defs>
<clipPath id="clip0_337_3727">
<rect width="14" height="16" fill="white"/>
</clipPath>
</defs>
</svg>
