<svg width="24" height="23" viewBox="0 0 24 23" fill="none" xmlns="http://www.w3.org/2000/svg">
<path d="M0 19.002V5.75C0.0179045 5.70245 0.0321195 5.65359 0.0425237 5.60386C0.303071 3.57099 2.03885 1.92565 4.07831 1.79448C4.47721 1.76872 4.87911 1.79029 5.29958 1.79029C5.29958 1.53813 5.31276 1.33687 5.29958 1.13802C5.25466 0.573802 5.47927 0.187474 6.02193 0H6.3813C6.93534 0.19526 7.14617 0.598957 7.10005 1.16677C7.08508 1.35784 7.10005 1.55129 7.10005 1.75494H15.9083C15.9083 1.55129 15.9215 1.35785 15.9083 1.16618C15.8616 0.597174 16.0754 0.195859 16.6271 0H16.9865C17.5255 0.188672 17.7537 0.573203 17.7088 1.13802C17.6926 1.34227 17.7088 1.54892 17.7088 1.76634C17.9909 1.76634 18.2371 1.76634 18.4833 1.76634C20.5994 1.7933 22.3166 3.08405 22.8557 5.05582C22.9156 5.28342 22.9593 5.5176 23.0102 5.7488V19.0008C22.993 19.0409 22.9798 19.0826 22.9707 19.1253C22.8546 20.0216 22.4673 20.8609 21.8607 21.5309C21.2542 22.2008 20.4573 22.6693 19.577 22.8736C19.3751 22.9209 19.1709 22.9575 18.9672 22.9988H4.05315C4.01264 22.9822 3.97074 22.9692 3.92797 22.9599C3.0155 22.8513 2.15911 22.4626 1.4767 21.8472C0.79428 21.2319 0.319384 20.4201 0.117393 19.5236C0.067081 19.3517 0.0353385 19.1762 0 19.002ZM1.79687 8.87178V9.12154C1.79687 12.2425 1.79687 15.3641 1.79687 18.4863C1.79687 20.0382 2.94927 21.1983 4.50656 21.2001C9.17005 21.2045 13.8337 21.2045 18.4976 21.2001C20.0549 21.2001 21.2019 20.0369 21.2031 18.482C21.2031 15.3607 21.2031 12.2391 21.2031 9.11736V8.87236L1.79687 8.87178ZM1.81365 7.04914H21.1882C21.4876 4.24781 19.5027 3.30267 17.701 3.60694C17.701 4.17355 17.7052 4.74196 17.701 5.31037C17.6968 5.79912 17.3416 6.17886 16.8757 6.20881C16.7521 6.22024 16.6276 6.20556 16.5101 6.16576C16.3926 6.12596 16.2848 6.06191 16.1936 5.97777C16.1025 5.89362 16.03 5.79127 15.981 5.67732C15.932 5.56338 15.9074 5.44038 15.9089 5.31634C15.9006 4.74134 15.9089 4.16634 15.9089 3.57936H7.09586V3.83333C7.09586 4.32747 7.10185 4.82163 7.09586 5.31517C7.0969 5.43328 7.07435 5.55038 7.02953 5.65966C6.9847 5.76893 6.91851 5.86815 6.83482 5.9515C6.75114 6.03486 6.65166 6.10067 6.5422 6.14506C6.43275 6.18944 6.31552 6.21153 6.19742 6.21001C5.69609 6.21001 5.31336 5.82368 5.30558 5.30798C5.30138 5.04623 5.30558 4.78388 5.30558 4.52214V3.59375C3.1679 3.31643 1.53333 4.50716 1.81305 7.04914H1.81365Z" fill="#B8B8B8"/>
<path d="M6.2041 16.8002C6.49579 16.8002 6.78747 16.7955 7.07857 16.8002C7.30441 16.8154 7.51622 16.9151 7.67166 17.0797C7.8271 17.2442 7.91472 17.4613 7.91699 17.6877C7.91926 17.914 7.83603 18.1328 7.68392 18.3005C7.5318 18.4681 7.32203 18.5721 7.09654 18.5917C6.49758 18.6033 5.89962 18.6033 5.30266 18.5917C5.07713 18.5737 4.86671 18.4712 4.71343 18.3048C4.56015 18.1384 4.4753 17.9203 4.47583 17.694C4.47636 17.4678 4.56223 17.2501 4.71629 17.0844C4.87034 16.9187 5.08125 16.8172 5.30686 16.8002C5.60574 16.7949 5.90522 16.8002 6.2041 16.8002Z" fill="#B8B8B8"/>
<path d="M16.8091 16.8C17.1008 16.8 17.3925 16.7952 17.6836 16.8C17.8065 16.7916 17.9298 16.8085 18.0458 16.8497C18.1618 16.891 18.2682 16.9556 18.3582 17.0397C18.4482 17.1237 18.52 17.2254 18.569 17.3384C18.6181 17.4513 18.6434 17.5732 18.6434 17.6963C18.6434 17.8195 18.6181 17.9413 18.569 18.0543C18.52 18.1672 18.4482 18.2689 18.3582 18.3529C18.2682 18.437 18.1618 18.5016 18.0458 18.5429C17.9298 18.5841 17.8065 18.6011 17.6836 18.5926C17.093 18.601 16.5025 18.6022 15.9119 18.5926C15.6863 18.5751 15.4757 18.4732 15.322 18.3071C15.1684 18.1411 15.083 17.9231 15.083 17.6969C15.083 17.4707 15.1684 17.2528 15.322 17.0867C15.4757 16.9207 15.6863 16.8187 15.9119 16.8012C16.2114 16.7946 16.5103 16.8 16.8091 16.8Z" fill="#B8B8B8"/>
<path d="M16.7936 13.2968C16.5019 13.2968 16.2102 13.3022 15.9191 13.2968C15.7966 13.304 15.6739 13.2859 15.5586 13.2438C15.4433 13.2017 15.3378 13.1364 15.2487 13.052C15.1596 12.9676 15.0888 12.8658 15.0405 12.7529C14.9923 12.64 14.9677 12.5184 14.9683 12.3957C14.9688 12.2729 14.9946 12.1516 15.0439 12.0392C15.0931 11.9268 15.1649 11.8256 15.2548 11.742C15.3447 11.6584 15.4508 11.5941 15.5665 11.5531C15.6822 11.5121 15.8051 11.4952 15.9275 11.5035C16.5105 11.4975 17.0935 11.4975 17.6765 11.5035C17.7993 11.4942 17.9226 11.5102 18.0389 11.5505C18.1553 11.5909 18.262 11.6547 18.3527 11.738C18.4433 11.8213 18.5159 11.9224 18.5658 12.0349C18.6157 12.1474 18.642 12.269 18.643 12.3922C18.644 12.5153 18.6197 12.6373 18.5715 12.7506C18.5234 12.8639 18.4525 12.9661 18.3632 13.0509C18.2739 13.1357 18.1682 13.2012 18.0525 13.2434C17.9369 13.2856 17.8138 13.3036 17.6909 13.2962C17.392 13.3022 17.0925 13.2968 16.7936 13.2968Z" fill="#B8B8B8"/>
<path d="M6.18482 13.2968C5.89312 13.2968 5.60143 13.3022 5.31033 13.2968C5.18778 13.3037 5.06511 13.2855 4.94989 13.2432C4.83467 13.2009 4.72933 13.1354 4.64039 13.0508C4.55144 12.9662 4.48077 12.8643 4.43274 12.7514C4.38471 12.6384 4.36032 12.5168 4.3611 12.3941C4.36188 12.2713 4.3878 12.1501 4.43727 12.0377C4.48673 11.9254 4.55869 11.8244 4.6487 11.7409C4.73871 11.6575 4.84487 11.5934 4.96062 11.5525C5.07638 11.5117 5.19927 11.495 5.32172 11.5035C5.90431 11.4975 6.48729 11.4975 7.07068 11.5035C7.19313 11.495 7.31601 11.5117 7.43177 11.5525C7.54752 11.5934 7.65368 11.6575 7.74369 11.7409C7.8337 11.8244 7.90566 11.9254 7.95512 12.0377C8.00459 12.1501 8.03051 12.2713 8.03129 12.3941C8.03207 12.5168 8.00769 12.6384 7.95966 12.7514C7.91162 12.8643 7.84096 12.9662 7.75201 13.0508C7.66306 13.1354 7.55772 13.2009 7.4425 13.2432C7.32727 13.2855 7.2046 13.3037 7.08206 13.2968C6.78318 13.3022 6.4837 13.2968 6.18482 13.2968Z" fill="#B8B8B8"/>
<path d="M11.4832 13.2968C11.1915 13.2968 10.9005 13.3022 10.6088 13.2968C10.4862 13.3038 10.3635 13.2856 10.2483 13.2433C10.1331 13.2011 10.0277 13.1356 9.93871 13.0511C9.84974 12.9665 9.77903 12.8646 9.73095 12.7517C9.68288 12.6387 9.65846 12.5172 9.6592 12.3944C9.65993 12.2717 9.68582 12.1504 9.73525 12.038C9.78468 11.9257 9.85659 11.8246 9.94658 11.7411C10.0366 11.6577 10.1427 11.5935 10.2585 11.5526C10.3742 11.5118 10.4971 11.4951 10.6195 11.5035C11.2025 11.4975 11.7855 11.4975 12.3685 11.5035C12.4909 11.495 12.6138 11.5116 12.7296 11.5524C12.8454 11.5932 12.9515 11.6573 13.0416 11.7407C13.1316 11.8241 13.2036 11.9251 13.2531 12.0375C13.3026 12.1498 13.3286 12.271 13.3294 12.3938C13.3302 12.5165 13.3059 12.6381 13.2579 12.7511C13.2099 12.8641 13.1392 12.966 13.0503 13.0506C12.9614 13.1352 12.8561 13.2007 12.7409 13.2431C12.6257 13.2854 12.503 13.3037 12.3805 13.2968C12.0816 13.3022 11.7821 13.2968 11.4832 13.2968Z" fill="#B8B8B8"/>
<path d="M11.5151 16.8002C11.8062 16.8002 12.0979 16.7942 12.3896 16.8002C12.6232 16.804 12.8461 16.8989 13.0107 17.0648C13.1754 17.2307 13.2686 17.4544 13.2705 17.688C13.2725 17.9217 13.183 18.1469 13.0212 18.3155C12.8594 18.4841 12.6381 18.5828 12.4045 18.5905C11.7996 18.6037 11.1942 18.6037 10.5885 18.5905C10.3637 18.5712 10.1544 18.4681 10.0022 18.3015C9.84996 18.135 9.76595 17.9173 9.76685 17.6917C9.76776 17.4661 9.85351 17.2491 10.0071 17.0839C10.1606 16.9186 10.3707 16.8171 10.5957 16.7996C10.9011 16.7942 11.2084 16.8002 11.5151 16.8002Z" fill="#B8B8B8"/>
</svg>
