<svg width="17" height="17" viewBox="0 0 17 17" fill="none" xmlns="http://www.w3.org/2000/svg">
<g clip-path="url(#clip0_309_3644)">
<path d="M14.875 2.83333H12.6791C12.5147 2.03392 12.0797 1.31562 11.4475 0.799509C10.8153 0.283397 10.0244 0.00103029 9.20829 0L7.79163 0C6.97548 0.00103029 6.18464 0.283397 5.55241 0.799509C4.92017 1.31562 4.48519 2.03392 4.32079 2.83333H2.12496C1.9371 2.83333 1.75693 2.90796 1.62409 3.0408C1.49125 3.17364 1.41663 3.3538 1.41663 3.54167C1.41663 3.72953 1.49125 3.9097 1.62409 4.04253C1.75693 4.17537 1.9371 4.25 2.12496 4.25H2.83329V13.4583C2.83442 14.3973 3.20792 15.2975 3.87187 15.9614C4.53581 16.6254 5.436 16.9989 6.37496 17H10.625C11.5639 16.9989 12.4641 16.6254 13.1281 15.9614C13.792 15.2975 14.1655 14.3973 14.1666 13.4583V4.25H14.875C15.0628 4.25 15.243 4.17537 15.3758 4.04253C15.5087 3.9097 15.5833 3.72953 15.5833 3.54167C15.5833 3.3538 15.5087 3.17364 15.3758 3.0408C15.243 2.90796 15.0628 2.83333 14.875 2.83333ZM7.79163 1.41667H9.20829C9.64765 1.4172 10.0761 1.55364 10.4349 1.80727C10.7936 2.0609 11.0651 2.41931 11.2122 2.83333H5.78775C5.93479 2.41931 6.20631 2.0609 6.56507 1.80727C6.92383 1.55364 7.35226 1.4172 7.79163 1.41667ZM12.75 13.4583C12.75 14.0219 12.5261 14.5624 12.1276 14.9609C11.729 15.3595 11.1885 15.5833 10.625 15.5833H6.37496C5.81137 15.5833 5.27087 15.3595 4.87236 14.9609C4.47384 14.5624 4.24996 14.0219 4.24996 13.4583V4.25H12.75V13.4583Z" fill="black"/>
<path d="M7.08333 12.7499C7.2712 12.7499 7.45136 12.6753 7.5842 12.5425C7.71704 12.4096 7.79167 12.2294 7.79167 12.0416V7.79159C7.79167 7.60372 7.71704 7.42356 7.5842 7.29072C7.45136 7.15788 7.2712 7.08325 7.08333 7.08325C6.89547 7.08325 6.7153 7.15788 6.58247 7.29072C6.44963 7.42356 6.375 7.60372 6.375 7.79159V12.0416C6.375 12.2294 6.44963 12.4096 6.58247 12.5425C6.7153 12.6753 6.89547 12.7499 7.08333 12.7499Z" fill="black"/>
<path d="M9.91671 12.7499C10.1046 12.7499 10.2847 12.6753 10.4176 12.5425C10.5504 12.4096 10.625 12.2294 10.625 12.0416V7.79159C10.625 7.60372 10.5504 7.42356 10.4176 7.29072C10.2847 7.15788 10.1046 7.08325 9.91671 7.08325C9.72885 7.08325 9.54868 7.15788 9.41584 7.29072C9.283 7.42356 9.20837 7.60372 9.20837 7.79159V12.0416C9.20837 12.2294 9.283 12.4096 9.41584 12.5425C9.54868 12.6753 9.72885 12.7499 9.91671 12.7499Z" fill="black"/>
</g>
<defs>
<clipPath id="clip0_309_3644">
<rect width="17" height="17" fill="white"/>
</clipPath>
</defs>
</svg>
