<svg width="44" height="44" viewBox="0 0 44 44" fill="none" xmlns="http://www.w3.org/2000/svg">
<g clip-path="url(#clip0_2503_4996)">
<path d="M29.8532 3.14236V5.71084C29.8532 8.4656 29.844 11.2112 29.8532 13.9607C29.8532 14.7333 29.5581 15.2882 28.8525 15.6017C28.2361 15.8772 27.6105 15.7067 27.0321 15.1374C26.4051 14.5182 25.7756 13.9016 25.1264 13.2628C24.5143 13.8706 23.9023 14.4784 23.2902 15.0862C22.4062 15.9664 21.576 15.9638 20.6946 15.0862C20.0939 14.4841 19.488 13.8872 18.8585 13.2589C18.2145 13.8964 17.5653 14.5339 16.9226 15.178C16.4714 15.6306 15.9442 15.8339 15.3173 15.6621C14.5749 15.4653 14.1461 14.8684 14.1447 14.0538C14.1447 10.6169 14.1447 7.18004 14.1447 3.74316V3.14498H13.5952C11.2554 3.14498 8.91513 3.14498 6.57445 3.14498C4.45891 3.14498 3.14343 4.45677 3.14212 6.57137C3.14212 16.8663 3.14212 27.1612 3.14212 37.4561C3.14212 39.5366 4.46548 40.8576 6.55216 40.8589C10.6442 40.8589 14.7358 40.8589 18.827 40.8589C19.2074 40.8467 19.5792 40.9736 19.8729 41.2157C20.1667 41.4578 20.3622 41.7986 20.4229 42.1744C20.4837 42.5502 20.4055 42.9353 20.203 43.2576C20.0005 43.5799 19.6876 43.8175 19.3228 43.9259C19.1344 43.9769 18.9395 43.9999 18.7444 43.9941C14.5544 43.9941 10.3644 43.9941 6.17443 43.9941C2.82472 43.9849 0.010129 41.1724 0.010129 37.8287C0.00313407 27.2714 0.00313407 16.7146 0.010129 6.15816C0.010129 2.83671 2.82735 0.0124329 6.14558 0.0098093C16.7176 0.00193857 27.2904 0.00193857 37.8642 0.0098093C41.1588 0.0098093 43.9852 2.82753 43.997 6.11225C44.0114 10.3349 43.997 14.5575 43.997 18.7802C43.997 19.743 43.3412 20.4278 42.4349 20.4304C41.5287 20.433 40.8611 19.7457 40.8611 18.7933C40.8611 14.7504 40.8611 10.7074 40.8611 6.66451C40.8611 4.42004 39.581 3.14629 37.3199 3.14629H29.8545L29.8532 3.14236ZM21.9957 11.8881C22.6843 11.2072 23.3309 10.5579 23.9866 9.92037C24.6922 9.2343 25.592 9.24086 26.3015 9.92037C26.413 10.0279 26.5271 10.1342 26.6858 10.2824V3.17384H17.3226V10.2575C17.4026 10.1958 17.4446 10.1722 17.4774 10.1394C18.5266 9.12542 19.2401 9.13461 20.2776 10.1735C20.8415 10.7468 21.4107 11.3082 21.9957 11.8881Z" fill="white" fill-opacity="1"/>
<path d="M18.859 31.3961C18.8648 29.7453 19.1956 28.1118 19.8326 26.5888C20.4695 25.0659 21.4002 23.6833 22.5713 22.5201C23.7425 21.3568 25.1313 20.4357 26.6584 19.8093C28.1855 19.1829 29.821 18.8634 31.4716 18.8692C33.1221 18.875 34.7553 19.2059 36.278 19.8429C37.8007 20.48 39.183 21.4108 40.3461 22.5822C41.5091 23.7536 42.43 25.1426 43.0563 26.67C43.6826 28.1974 44.002 29.8332 43.9962 31.484C43.9962 38.409 38.3566 44.0024 31.383 43.9972C29.7328 43.9946 28.0993 43.6664 26.5761 43.0313C25.0529 42.3962 23.6699 41.4667 22.5065 40.2961C21.3431 39.1256 20.422 37.7369 19.7961 36.2096C19.1702 34.6824 18.8518 33.0467 18.859 31.3961ZM40.8551 31.4302C40.8288 26.2434 36.5978 21.9854 31.4775 22.0011C30.2284 21.9985 28.9912 22.2434 27.8372 22.7216C26.6833 23.1998 25.6355 23.9019 24.7544 24.7874C23.8732 25.6728 23.1761 26.7241 22.7034 27.8805C22.2307 29.0368 21.9917 30.2754 22.0002 31.5247C22.0277 36.6538 26.31 40.8712 31.4762 40.8568C36.6175 40.8436 40.8826 36.558 40.8551 31.4302Z" fill="white" fill-opacity="1"/>
<path d="M29.8562 32.3054L34.4362 27.7588C34.6565 27.5397 34.8677 27.3101 35.1011 27.1029C35.4014 26.8311 35.7954 26.6863 36.2002 26.699C36.605 26.7117 36.9891 26.881 37.2718 27.1711C37.5542 27.4499 37.7191 27.8263 37.7328 28.223C37.7465 28.6196 37.6078 29.0065 37.3452 29.3041C36.9898 29.7094 36.5924 30.078 36.212 30.4597C34.5359 32.1362 32.8593 33.8127 31.1822 35.4891C30.2733 36.3969 29.4562 36.3982 28.5591 35.4983C27.6095 34.5512 26.6613 33.6028 25.7144 32.6531C24.9891 31.9237 24.9497 30.9595 25.6094 30.305C26.2691 29.6504 27.2266 29.6963 27.9584 30.423C28.5617 31.0225 29.1585 31.6285 29.7579 32.2307C29.7889 32.2578 29.8218 32.2828 29.8562 32.3054Z" fill="white" fill-opacity="1"/>
</g>
<defs>
<clipPath id="clip0_2503_4996">
<rect width="44" height="44" fill="white"/>
</clipPath>
</defs>
</svg>
