<svg width="18" height="17" viewBox="0 0 18 17" fill="none" xmlns="http://www.w3.org/2000/svg">
<path d="M0 8.40061C0.0442708 8.21335 0.0752584 8.02165 0.136352 7.84014C0.446248 6.92285 1.04391 6.30971 2.02583 6.1676C2.89398 6.04187 3.59744 6.38895 4.14729 7.04858C5.07697 8.16332 5.00702 9.87219 4.00163 10.824C3.97352 10.8588 3.93986 10.8887 3.90202 10.9125C3.6364 11.0343 3.62223 11.2282 3.68067 11.4903C3.79223 11.9905 3.86661 12.4988 3.95825 13.0158C4.01979 12.9875 4.0707 12.9671 4.11851 12.9415C4.38414 12.7998 4.64489 12.8025 4.9114 12.9415C5.19812 13.0948 5.51135 13.1923 5.83445 13.2288C6.06555 11.9184 6.29398 10.6199 6.52463 9.31126C6.45556 9.29488 6.40288 9.28204 6.34976 9.27053C6.01684 9.19704 5.7707 8.95622 5.71359 8.64765C5.6494 8.30189 5.78398 7.99023 6.09963 7.79898C7.04969 7.22257 8.00151 6.6494 8.9551 6.07949L11.6999 4.4304C11.9624 4.27235 12.0359 4.28609 12.2311 4.52649C13.5818 6.19461 14.925 7.86937 16.2877 9.52909C16.7392 10.0785 16.4754 10.7328 15.9676 10.8723C15.8025 10.9165 15.6201 10.8997 15.4169 10.9125C15.2841 11.6678 15.1455 12.447 14.9972 13.2859C15.3266 13.1916 15.6223 13.1155 15.9123 13.0203C16.2438 12.9136 16.5418 12.9601 16.7782 13.2173C16.8787 13.3271 16.9292 13.4829 17.0026 13.6157V17.0002H0V13.6135C0.00887483 13.5993 0.0167176 13.5845 0.0234648 13.5692C0.212058 13.038 0.615364 12.852 1.15104 13.0406C1.33247 13.1071 1.51844 13.1603 1.70752 13.2C1.92445 13.2421 2.14669 13.258 2.38708 13.2886C2.27552 12.6595 2.17414 12.0724 2.06213 11.4867C2.05284 11.4367 1.98068 11.3783 1.92534 11.3601C0.947542 11.0387 0.333507 10.3797 0.0832293 9.38298C0.0509116 9.25592 0.0274479 9.12664 0 8.9987V8.40061ZM14.4389 13.2815C14.4487 13.2653 14.457 13.2482 14.4637 13.2306C14.6107 12.4036 14.759 11.5766 14.8993 10.7483C14.9061 10.6744 14.8853 10.6006 14.8409 10.5411C14.6293 10.2644 14.4075 9.9957 14.1892 9.72387C13.9812 9.46533 13.7704 9.20855 13.5663 8.94691C13.4605 8.811 13.4778 8.65871 13.596 8.56308C13.7142 8.46746 13.859 8.48562 13.9772 8.61444C14.0033 8.64278 14.0263 8.67421 14.0507 8.70299C14.4491 9.19838 14.8529 9.69066 15.246 10.1918C15.3965 10.3839 15.6002 10.3782 15.7976 10.3609C15.9556 10.3472 16.0367 10.1626 15.9711 10.0143C15.9437 9.9602 15.9093 9.90988 15.8689 9.86464C14.5753 8.2641 13.2809 6.66416 11.9859 5.0648C11.9522 5.02053 11.9159 4.98291 11.8818 4.94263C11.8376 4.96653 11.8101 4.98246 11.7818 4.99928L7.17762 7.7671C6.912 7.92647 6.64637 8.0823 6.38075 8.2461C6.19127 8.36386 6.174 8.62152 6.35905 8.70342C6.54411 8.78532 6.72739 8.84553 6.93768 8.71715C8.3145 7.87423 9.69501 7.03736 11.0792 6.20655C11.4936 5.95642 11.8947 6.02592 12.1988 6.40045C12.5618 6.8467 12.9224 7.29503 13.2804 7.74541C13.3216 7.78999 13.3533 7.84257 13.3733 7.89991C13.3933 7.95856 13.3902 8.02258 13.3647 8.07904C13.3392 8.13551 13.2932 8.18019 13.2361 8.20405C13.0922 8.27489 12.9806 8.21821 12.8881 8.1031L11.8256 6.7843C11.637 6.5501 11.5578 6.53638 11.2944 6.69575C9.94146 7.51476 8.58809 8.33243 7.23429 9.14879C7.18007 9.17841 7.13386 9.22078 7.09962 9.27222C7.06538 9.32365 7.04414 9.38261 7.03773 9.44407C6.88101 10.3591 6.71721 11.2733 6.55607 12.1889C6.4932 12.547 6.43122 12.9052 6.36747 13.2722C6.53747 13.2722 6.69154 13.2748 6.84516 13.2722C7.03242 13.2682 7.15505 13.3532 7.1701 13.5055C7.18515 13.6578 7.07669 13.7773 6.88367 13.8017L6.85046 13.8047C6.12088 13.8557 5.41388 13.7658 4.75026 13.4435C4.67835 13.4043 4.59774 13.3837 4.51584 13.3837C4.43393 13.3837 4.35334 13.4043 4.28143 13.4435C3.49695 13.8189 2.66732 13.8929 1.81953 13.7592C1.51627 13.7113 1.22099 13.6077 0.924375 13.5232C0.726484 13.4665 0.552499 13.536 0.541431 13.7144C0.523723 14.0035 0.536562 14.2948 0.536562 14.5976C0.784921 14.5206 0.998307 14.5848 1.21745 14.6578C2.2069 14.9877 3.18396 14.9761 4.13932 14.5215C4.25541 14.4626 4.38364 14.4315 4.51383 14.4308C4.64401 14.4301 4.77256 14.4598 4.88927 14.5175C5.97301 15.0164 7.05854 15.0116 8.14317 14.5175C8.24891 14.4706 8.36143 14.4407 8.47653 14.429C8.5111 14.4247 8.54616 14.4275 8.57962 14.4372C8.61308 14.4468 8.64424 14.4632 8.67124 14.4851C8.69824 14.5071 8.72051 14.5344 8.73673 14.5652C8.75295 14.596 8.76278 14.6298 8.76562 14.6645C8.7789 14.8013 8.68947 14.9111 8.54427 14.9491C8.4535 14.9715 8.36467 15.0011 8.27864 15.0377C7.09794 15.5468 5.91768 15.5495 4.74096 15.0306C4.58557 14.962 4.45807 14.954 4.30268 15.0306C3.5089 15.4122 2.66953 15.4901 1.80979 15.3511C1.51185 15.3029 1.22188 15.2024 0.930573 15.1187C0.733125 15.062 0.553383 15.1298 0.545857 15.3064C0.529034 15.6907 0.540545 16.0759 0.540545 16.4575H16.4687C16.4687 16.113 16.4687 15.7814 16.4687 15.4499C16.4687 15.1342 16.3226 15.035 16.0234 15.14C14.883 15.5331 13.7567 15.5273 12.6517 15.0093C12.6006 14.9823 12.5437 14.9681 12.4859 14.9681C12.4281 14.9681 12.3712 14.9823 12.3201 15.0093C11.3723 15.4693 10.385 15.5083 9.3739 15.2781C9.10385 15.2166 8.99184 15.0926 9.04054 14.9173C9.08924 14.742 9.22869 14.6959 9.49254 14.7588C10.3917 14.9664 11.27 14.9359 12.1134 14.5215C12.2293 14.4617 12.3578 14.4307 12.4882 14.4312C12.6186 14.4316 12.747 14.4635 12.8624 14.5241C13.7811 14.9669 14.7276 14.985 15.6887 14.6933C15.9419 14.6167 16.1845 14.5056 16.4674 14.6003C16.4674 14.3024 16.4749 14.0248 16.4648 13.7507C16.4581 13.5679 16.3054 13.4692 16.1252 13.5148C16.0716 13.5281 16.0207 13.5502 15.968 13.5675C14.8582 13.934 13.7625 13.9287 12.6893 13.4346C12.6261 13.4023 12.5561 13.3855 12.485 13.3855C12.414 13.3855 12.344 13.4023 12.2807 13.4346C11.1739 13.9376 10.0428 13.9659 8.91614 13.5205C8.63015 13.4076 8.38489 13.3284 8.11573 13.5254C8.10214 13.5345 8.0872 13.5414 8.07146 13.5458C7.92005 13.59 7.78547 13.5307 7.73057 13.393C7.67568 13.2554 7.72836 13.1332 7.86339 13.0592C7.94617 13.015 8.03339 12.9791 8.11661 12.9362C8.23357 12.872 8.36482 12.8384 8.49822 12.8384C8.63163 12.8384 8.76289 12.872 8.87984 12.9362C8.94669 12.9703 9.01265 13.0021 9.09588 13.0424C9.11137 12.9725 9.12333 12.9251 9.13174 12.8773C9.19992 12.4912 9.26455 12.1039 9.33671 11.7183C9.42525 11.2424 9.82147 10.9714 10.2987 11.0542C10.6033 11.1073 10.9092 11.156 11.2129 11.214C11.8004 11.326 12.047 11.6948 11.9363 12.2792C11.888 12.5328 11.8478 12.7883 11.7995 13.0672C11.8539 13.0531 11.9068 13.0338 11.9576 13.0096C12.3055 12.7856 12.6433 12.8126 13.0077 12.995C13.4535 13.2106 13.9387 13.2925 14.4389 13.2815ZM2.45039 10.9072C2.99226 10.897 3.41417 10.7022 3.74576 10.3286C4.62852 9.3325 4.35581 7.61172 3.21185 6.92818C2.36539 6.4226 1.3082 6.69707 0.838487 7.56035C0.368773 8.42364 0.431195 9.26433 0.971299 10.0639C1.32812 10.5894 1.83679 10.8869 2.45039 10.9055V10.9072ZM9.61783 13.1912C10.1127 13.2978 10.623 13.312 11.123 13.2332C11.1515 13.2244 11.1773 13.2089 11.1985 13.188C11.2197 13.1672 11.2356 13.1415 11.2448 13.1132C11.3116 12.7781 11.3696 12.4412 11.4219 12.1034C11.4568 11.8785 11.3891 11.7842 11.166 11.7413C10.841 11.6784 10.5152 11.6209 10.1889 11.5642C10.0198 11.5354 9.89851 11.6226 9.86221 11.7918C9.84096 11.8887 9.82635 11.987 9.80953 12.0848C9.74711 12.4474 9.6838 12.81 9.61783 13.1894V13.1912ZM3.44781 13.1872C3.33669 12.5581 3.23044 11.9578 3.12419 11.357L2.60224 11.4478C2.70937 12.0534 2.81474 12.6524 2.9232 13.2664L3.44781 13.1872Z" fill="black"/>
<path d="M13.7461 0C14.0728 0.0854427 14.3659 0.227542 14.5819 0.498479C14.6036 0.525484 14.6607 0.529028 14.7028 0.533455C15.4417 0.608272 15.9641 1.19752 15.9357 1.92312C15.9078 2.63145 15.3235 3.18218 14.5917 3.18661C13.8948 3.19074 13.198 3.19074 12.5012 3.18661C11.7703 3.18218 11.185 2.62792 11.158 1.92269C11.1306 1.19488 11.6534 0.606501 12.3914 0.533455C12.433 0.529028 12.4906 0.525938 12.5118 0.498933C12.7287 0.22711 13.0223 0.0876562 13.3476 0H13.7461ZM13.5455 2.65625C13.8939 2.65625 14.2424 2.6589 14.5903 2.65625C15.0618 2.65226 15.4169 2.29324 15.4054 1.83681C15.3938 1.38037 15.0149 1.03993 14.5443 1.07048C14.4789 1.07876 14.4124 1.06764 14.3533 1.03853C14.2941 1.00941 14.2447 0.963559 14.2114 0.906665C13.8714 0.406848 13.2215 0.40463 12.8832 0.902234C12.8 1.02486 12.7062 1.07932 12.553 1.07091C12.0824 1.04125 11.7012 1.38081 11.6893 1.83415C11.6773 2.28748 12.031 2.65182 12.5016 2.65625C12.8487 2.6589 13.1971 2.65625 13.5469 2.65625H13.5455Z" fill="black"/>
<path d="M17.0001 4.84759C16.8385 5.09285 16.6902 5.10968 16.4812 4.90382C16.2498 4.67361 16.019 4.44267 15.7888 4.21098C15.6489 4.06932 15.6357 3.91834 15.7472 3.80191C15.8588 3.68548 16.0199 3.68858 16.1558 3.82848C16.4405 4.12067 16.719 4.41905 17.0001 4.7139V4.84759Z" fill="black"/>
<path d="M17.0001 8.30046C16.8385 8.54572 16.6902 8.5621 16.4812 8.35668C16.4144 8.29072 16.3444 8.22698 16.2833 8.15614C16.1771 8.03307 16.1815 7.88786 16.2877 7.78382C16.3103 7.75897 16.3378 7.739 16.3684 7.72513C16.3989 7.71126 16.432 7.70379 16.4656 7.70317C16.4992 7.70255 16.5325 7.7088 16.5636 7.72152C16.5947 7.73424 16.6228 7.75319 16.6463 7.77718C16.7734 7.89804 16.8827 8.0366 17.0005 8.16764L17.0001 8.30046Z" fill="black"/>
<path d="M3.44849 3.71838C3.09432 3.71838 2.74015 3.72193 2.38599 3.71838C1.6688 3.70864 1.08752 3.14905 1.06362 2.44957C1.03838 1.72885 1.56255 1.13739 2.28549 1.06345C2.35261 1.0541 2.41482 1.02299 2.46257 0.974912C3.01065 0.380355 3.88986 0.383017 4.44369 0.981116C4.48829 1.02585 4.54658 1.05437 4.60927 1.06213C5.34594 1.13961 5.86965 1.73017 5.8391 2.4571C5.80989 3.16543 5.22551 3.71175 4.49195 3.71795C4.14575 3.72061 3.79734 3.71838 3.44849 3.71838ZM3.45424 3.18713C3.80265 3.18713 4.15106 3.18979 4.49947 3.18713C4.96962 3.18271 5.32424 2.82146 5.3114 2.36503C5.29856 1.9086 4.92005 1.57258 4.44768 1.60136C4.38492 1.60958 4.32114 1.59944 4.26402 1.57218C4.2069 1.54492 4.1589 1.50169 4.12583 1.44773C3.76768 0.929321 3.13903 0.931083 2.77823 1.44994C2.74696 1.50185 2.70151 1.54377 2.64724 1.57075C2.59298 1.59773 2.53213 1.60866 2.47187 1.60225C1.98489 1.57657 1.60505 1.91214 1.59442 2.36769C1.5838 2.82324 1.94151 3.18447 2.42583 3.18757C2.76893 3.18712 3.11158 3.18713 3.45291 3.18713H3.45424Z" fill="black"/>
<path d="M7.45748 6.40002C7.40303 6.46687 7.35965 6.56781 7.28749 6.59614C7.20868 6.62669 7.07011 6.62624 7.01566 6.57621C6.72258 6.30793 6.44236 6.02504 6.16965 5.73507C6.0696 5.62926 6.09173 5.49468 6.19709 5.39286C6.30245 5.29103 6.43527 5.27732 6.54108 5.37781C6.82485 5.64831 7.09977 5.92852 7.37293 6.20964C7.41188 6.24993 7.42206 6.31767 7.45748 6.40002Z" fill="black"/>
<path d="M8.7523 3.68457C8.85191 3.74611 8.92939 3.77841 8.9865 3.83286C9.23309 4.07104 9.47347 4.31409 9.71475 4.55846C9.85332 4.69925 9.86041 4.85242 9.74265 4.96708C9.62489 5.08175 9.47968 5.07113 9.34421 4.94008C9.09187 4.69217 8.84261 4.44114 8.59425 4.18969C8.51058 4.10513 8.46144 3.99755 8.52829 3.89086C8.58142 3.81117 8.67173 3.75717 8.7523 3.68457Z" fill="black"/>
<path d="M15.9227 5.28174C16.0174 5.33752 16.0958 5.36808 16.1529 5.42121C16.3176 5.57527 16.476 5.73642 16.6328 5.89889C16.7603 6.0317 16.7656 6.18265 16.6571 6.29422C16.5486 6.40578 16.3915 6.40312 16.2618 6.27695C16.0913 6.1127 15.9244 5.94449 15.7597 5.77449C15.6774 5.68905 15.6353 5.5788 15.7062 5.47432C15.7566 5.40127 15.8434 5.34992 15.9227 5.28174Z" fill="black"/>
<path d="M3.20229 5.07552C3.15492 5.13484 3.11375 5.23668 3.04115 5.2659C2.96279 5.29777 2.82599 5.29865 2.76888 5.24951C2.56034 5.06797 2.36353 4.87337 2.17964 4.6669C2.08711 4.56508 2.10526 4.43669 2.20044 4.33575C2.29563 4.23482 2.41782 4.20294 2.51477 4.29148C2.73612 4.48937 2.9411 4.70719 3.14828 4.92146C3.17573 4.94713 3.1775 5.00247 3.20229 5.07552Z" fill="black"/>
<path d="M4.77723 5.54807C4.78077 5.76942 4.54437 5.92482 4.3934 5.80131C4.1662 5.60857 3.95425 5.39854 3.75944 5.17311C3.6709 5.0766 3.70897 4.9491 3.80371 4.85835C3.89845 4.76759 4.014 4.73748 4.10564 4.81894C4.327 5.01683 4.5333 5.2333 4.74138 5.44669C4.76095 5.47728 4.77321 5.51197 4.77723 5.54807Z" fill="black"/>
<path d="M15.952 7.19903C15.9078 7.25836 15.8635 7.36019 15.7926 7.3903C15.7147 7.42261 15.5775 7.42482 15.5208 7.37657C15.3132 7.19543 15.117 7.00158 14.9334 6.79616C14.8404 6.69434 14.8576 6.5673 14.9524 6.46547C15.0409 6.37073 15.1684 6.33267 15.2649 6.41634C15.4863 6.6129 15.6908 6.83026 15.8976 7.0432C15.925 7.07153 15.9272 7.12421 15.952 7.19903Z" fill="black"/>
<path d="M7.18434 4.01152C7.14007 4.06819 7.10111 4.16737 7.02984 4.2019C6.95856 4.23643 6.82309 4.24617 6.77173 4.2019C6.5523 4.00934 6.34529 3.80306 6.15194 3.58432C6.06694 3.48825 6.10236 3.36297 6.19621 3.27044C6.29007 3.17792 6.4065 3.14737 6.49681 3.22883C6.72082 3.43115 6.92757 3.6525 7.13785 3.86987C7.16132 3.89245 7.16221 3.94025 7.18434 4.01152Z" fill="black"/>
<path d="M14.3254 3.69385C14.4139 3.73812 14.4786 3.75582 14.5264 3.79655C14.6222 3.87995 14.7125 3.96941 14.7969 4.06438C14.9036 4.18391 14.8991 4.33356 14.7969 4.43716C14.6946 4.54075 14.5436 4.54473 14.4241 4.43716C14.3258 4.34861 14.2191 4.26005 14.1505 4.15115C14.1271 4.11034 14.1123 4.06519 14.107 4.01844C14.1016 3.9717 14.1059 3.92437 14.1195 3.87934C14.1487 3.80275 14.2528 3.75494 14.3254 3.69385Z" fill="black"/>
<path d="M5.28541 9.27197C5.37396 9.3127 5.44081 9.32865 5.48818 9.36938C5.58856 9.45582 5.6828 9.54916 5.77019 9.64873C5.81541 9.69881 5.83964 9.76435 5.83788 9.8318C5.83612 9.89925 5.80849 9.96345 5.76072 10.0111C5.71295 10.0588 5.6487 10.0862 5.58124 10.0878C5.51378 10.0894 5.44828 10.0651 5.39831 10.0197C5.29914 9.93117 5.19289 9.84263 5.12294 9.7355C5.09854 9.69529 5.08251 9.65056 5.07582 9.604C5.06913 9.55745 5.07191 9.51001 5.08399 9.46456C5.11144 9.38531 5.2137 9.33617 5.28541 9.27197Z" fill="black"/>
<path d="M5.30903 11.6771C5.31479 11.8599 5.10805 12.0219 4.9593 11.9241C4.79574 11.8145 4.65453 11.6747 4.54316 11.5124C4.44222 11.3636 4.59672 11.1582 4.78177 11.1582C4.94159 11.1564 5.30416 11.515 5.30903 11.6771Z" fill="black"/>
<path d="M6.11827 6.93819C6.07842 6.99043 6.03814 7.09268 5.96686 7.12323C5.89559 7.15378 5.76056 7.15644 5.69416 7.11173C5.56985 7.02006 5.45885 6.91158 5.36433 6.78943C5.28509 6.69513 5.29306 6.58136 5.36876 6.48308C5.44447 6.38479 5.564 6.32592 5.6583 6.39719C5.81723 6.51761 5.94827 6.67522 6.08816 6.82042C6.10454 6.83725 6.10233 6.87223 6.11827 6.93819Z" fill="black"/>
<path d="M13.5887 4.27894C13.5918 4.4941 13.3731 4.63887 13.2085 4.52332C13.0609 4.41824 12.9333 4.28766 12.8317 4.13772C12.7905 4.07707 12.8184 3.91947 12.8738 3.85926C12.9291 3.79905 13.0911 3.75478 13.1447 3.79196C13.3036 3.90264 13.4338 4.0576 13.5706 4.19661C13.5914 4.21609 13.5847 4.25946 13.5887 4.27894Z" fill="black"/>
<path d="M14.9271 5.66653C14.8904 5.71479 14.8505 5.81396 14.7792 5.84716C14.708 5.88036 14.58 5.88346 14.5198 5.84007C14.3873 5.7408 14.2691 5.62387 14.1683 5.49254C14.1496 5.47146 14.1354 5.44676 14.1266 5.41995C14.1179 5.39315 14.1147 5.36482 14.1174 5.33675C14.12 5.30867 14.1284 5.28145 14.1421 5.25677C14.1557 5.23208 14.1743 5.21047 14.1966 5.19328C14.2741 5.13794 14.4295 5.08835 14.4879 5.12819C14.6433 5.234 14.7669 5.38806 14.8988 5.52663C14.9191 5.54655 14.9129 5.5895 14.9271 5.66653Z" fill="black"/>
<path d="M10.6321 3.49746C10.5879 3.54837 10.5458 3.64488 10.4732 3.67675C10.4006 3.70863 10.2767 3.70818 10.2156 3.6648C10.0883 3.56892 9.97444 3.45653 9.8769 3.33056C9.8579 3.30992 9.84331 3.2856 9.83405 3.25912C9.82479 3.23264 9.82104 3.20455 9.82303 3.17656C9.82502 3.14858 9.83271 3.12129 9.84563 3.09639C9.85854 3.07148 9.87642 3.04948 9.89815 3.03173C9.96942 2.97507 10.1195 2.91618 10.1677 2.95071C10.3311 3.07157 10.4653 3.23183 10.6078 3.3797C10.6251 3.39475 10.6193 3.43017 10.6321 3.49746Z" fill="black"/>
<path d="M8.24821 5.5999C8.16454 5.55962 8.10211 5.54411 8.05917 5.50648C7.95975 5.4196 7.866 5.32645 7.77849 5.22758C7.73081 5.17793 7.70454 5.11153 7.70534 5.04269C7.70614 4.97386 7.73395 4.90809 7.78277 4.85956C7.83159 4.81102 7.89752 4.7836 7.96636 4.78321C8.0352 4.78282 8.10145 4.8095 8.15082 4.85748C8.24998 4.94602 8.358 5.03102 8.42441 5.14081C8.44842 5.18383 8.46354 5.23124 8.46886 5.28022C8.47418 5.32919 8.4696 5.37874 8.45539 5.42591C8.42706 5.50029 8.31816 5.54457 8.24821 5.5999Z" fill="black"/>
<path d="M5.8403 4.76484C5.83809 4.97734 5.61186 5.11901 5.45116 5.00435C5.31569 4.90247 5.19462 4.78274 5.09124 4.64841C5.07293 4.62708 5.05922 4.60221 5.05097 4.57533C5.04272 4.54845 5.04012 4.52014 5.04332 4.49221C5.04652 4.46428 5.05545 4.43732 5.06956 4.41301C5.08368 4.38869 5.10267 4.36754 5.12533 4.3509C5.19838 4.29734 5.34668 4.24599 5.39892 4.28318C5.55653 4.3943 5.68447 4.5488 5.81994 4.68825C5.83809 4.70685 5.83587 4.74802 5.8403 4.76484Z" fill="black"/>
<path d="M1.88245 12.2495C1.828 12.3155 1.78373 12.4155 1.71201 12.4434C1.63321 12.4735 1.49508 12.4735 1.44063 12.4235C1.148 12.1557 0.868204 11.8728 0.595053 11.585C0.494558 11.4792 0.510941 11.3464 0.613649 11.2419C0.716357 11.1375 0.850497 11.118 0.956305 11.2176C1.24495 11.4903 1.52253 11.7741 1.79967 12.0587C1.83818 12.0981 1.84748 12.1659 1.88245 12.2495Z" fill="black"/>
<path d="M11.1562 10.0972C10.9461 10.0972 10.7407 10.0349 10.566 9.91811C10.3912 9.80136 10.255 9.63541 10.1746 9.44126C10.0942 9.24712 10.0732 9.03348 10.1142 8.82737C10.1552 8.62127 10.2564 8.43196 10.405 8.28337C10.5535 8.13478 10.7429 8.03358 10.949 7.99258C11.1551 7.95159 11.3687 7.97263 11.5628 8.05305C11.757 8.13346 11.9229 8.26964 12.0397 8.44437C12.1564 8.6191 12.2187 8.82451 12.2187 9.03466C12.2191 9.17428 12.1919 9.31261 12.1386 9.44167C12.0853 9.57074 12.0071 9.68801 11.9083 9.78674C11.8096 9.88547 11.6923 9.96373 11.5633 10.017C11.4342 10.0703 11.2959 10.0975 11.1562 10.0972ZM11.1536 9.56591C11.293 9.56685 11.4272 9.51259 11.5267 9.41496C11.6262 9.31732 11.6831 9.18426 11.6848 9.04484C11.6852 8.97507 11.6718 8.90593 11.6454 8.84134C11.619 8.77675 11.5802 8.71801 11.5311 8.66843C11.482 8.61885 11.4237 8.57941 11.3593 8.55239C11.295 8.52537 11.226 8.5113 11.1562 8.51095C11.0865 8.5106 11.0173 8.52398 10.9528 8.55036C10.8882 8.57673 10.8294 8.61558 10.7798 8.66467C10.7302 8.71375 10.6908 8.77211 10.6638 8.83643C10.6368 8.90075 10.6227 8.96978 10.6223 9.03954C10.6224 9.10904 10.6362 9.17783 10.663 9.24196C10.6898 9.30609 10.729 9.36429 10.7784 9.41318C10.8278 9.46208 10.8864 9.50071 10.9508 9.52684C11.0152 9.55298 11.0841 9.56612 11.1536 9.56547V9.56591Z" fill="black"/>
<path d="M8.90904 11.0828C8.85016 11.4122 8.79128 11.7783 8.71646 12.1405C8.71143 12.1712 8.70018 12.2005 8.6834 12.2267C8.66662 12.2529 8.64466 12.2754 8.61887 12.2928C8.59309 12.3102 8.56402 12.3222 8.53345 12.3279C8.50289 12.3337 8.47146 12.3332 8.4411 12.3264C8.08073 12.2711 7.72038 12.2109 7.36311 12.1396C7.21392 12.1099 7.13688 11.9961 7.16079 11.8425C7.21701 11.4884 7.27633 11.1342 7.34672 10.78C7.35137 10.7465 7.36297 10.7143 7.38077 10.6855C7.39857 10.6567 7.42219 10.632 7.45012 10.6129C7.47804 10.5937 7.50965 10.5806 7.54293 10.5744C7.5762 10.5682 7.6104 10.569 7.64334 10.5768C7.9975 10.6331 8.35167 10.6946 8.70584 10.7645C8.84662 10.7942 8.91524 10.8995 8.90904 11.0828ZM7.72746 11.6694L8.25074 11.758C8.28173 11.5769 8.30962 11.4158 8.33928 11.2409L7.81953 11.1483C7.78854 11.3254 7.75978 11.4857 7.72746 11.6694Z" fill="black"/>
<path d="M13.5703 12.1603L13.0581 12.0718C13.0417 12.1444 13.0298 12.2077 13.0139 12.2697C12.9965 12.3343 12.9554 12.3899 12.8988 12.4256C12.8422 12.4612 12.7742 12.4742 12.7085 12.4619C12.6427 12.4496 12.584 12.4129 12.5441 12.3592C12.5042 12.3055 12.4861 12.2388 12.4932 12.1723C12.5145 12.0195 12.5424 11.8668 12.5778 11.7167C12.6163 11.5525 12.7341 11.4745 12.8961 11.502C13.2224 11.5573 13.5486 11.614 13.8736 11.6769C14.1073 11.7211 14.1746 11.8305 14.1308 12.0678C14.1025 12.2196 14.0795 12.3728 14.0467 12.5233C14.0122 12.684 13.8758 12.7766 13.7328 12.7447C13.5898 12.7128 13.5044 12.5782 13.5296 12.4153C13.5411 12.3343 13.5548 12.2537 13.5703 12.1603Z" fill="black"/>
</svg>
