<svg width="26" height="21" viewBox="0 0 26 21" fill="none" xmlns="http://www.w3.org/2000/svg">
<path d="M12.7107 20.9968C10.0003 20.9968 7.28996 20.9968 4.57957 20.9968C1.95002 20.9968 0.00579378 19.1168 0.00248305 16.568C-0.000827682 13.353 -0.000827682 10.1379 0.00248305 6.92284C0.00248305 4.36606 1.93676 2.48522 4.56217 2.47799C5.37992 2.47799 6.19686 2.47238 7.01461 2.48203C7.0851 2.49175 7.15687 2.4771 7.21738 2.44066C7.2779 2.40423 7.3233 2.34833 7.34568 2.2827C7.46321 2.02629 7.59398 1.77551 7.73386 1.52956C8.2884 0.548159 9.14092 0.0233092 10.2997 0.0120565C11.9137 -0.00401883 13.5274 -0.00401883 15.1408 0.0120565C16.3078 0.0225055 17.1694 0.55296 17.7265 1.54722C17.892 1.84622 17.9748 2.27064 18.2314 2.42175C18.5012 2.57768 18.9316 2.47075 19.2925 2.47799C20.0771 2.49406 20.8725 2.43782 21.6456 2.5407C22.6879 2.67387 23.6456 3.16845 24.3421 3.93328C25.0386 4.69811 25.4269 5.68163 25.4355 6.70259C25.4648 10.0591 25.4648 13.4154 25.4355 16.7714C25.4132 19.1264 23.4267 20.9895 21.0016 20.996C18.2355 21.0024 15.4727 20.9968 12.7107 20.9968ZM12.7016 19.7678C15.4026 19.7678 18.1028 19.7678 20.8021 19.7678C22.8084 19.7678 24.1576 18.4625 24.16 16.5222C24.1634 13.3264 24.1634 10.1312 24.16 6.93649C24.1658 6.71543 24.1511 6.4943 24.1162 6.27578C23.8265 4.73335 22.5585 3.72382 20.8808 3.70373C19.8986 3.69248 18.9158 3.69248 17.9326 3.70373C17.5651 3.70775 17.3308 3.56631 17.1786 3.244C16.9973 2.8614 16.792 2.48926 16.5942 2.1139C16.2929 1.54242 15.8005 1.2418 15.1482 1.23698C13.5348 1.22412 11.9211 1.22412 10.3071 1.23698C9.64085 1.2418 9.14838 1.55126 8.84131 2.13399C8.65011 2.50131 8.44898 2.86381 8.27351 3.23756C8.11625 3.57273 7.87043 3.71016 7.49135 3.70534C6.51965 3.69141 5.5474 3.69141 4.5746 3.70534C2.62541 3.72704 1.2887 5.03558 1.28622 6.92845C1.28125 10.1339 1.28346 13.3393 1.29284 16.5447C1.29047 16.9354 1.35107 17.324 1.47245 17.6965C1.91609 18.9898 3.10793 19.7654 4.60356 19.7686C7.30235 19.7724 10.0017 19.7721 12.7016 19.7678Z" fill="#8391A1"/>
<path d="M6.37221 11.1433C6.33413 7.76747 9.15819 4.98483 12.6626 4.94946C14.3361 4.94952 15.9421 5.59036 17.1322 6.73298C18.3222 7.87559 19.0003 9.42782 19.0194 11.0529C19.0384 12.6779 18.3969 14.2447 17.234 15.4134C16.071 16.582 14.4805 17.2582 12.8074 17.2953C9.2873 17.3492 6.41111 14.6043 6.37221 11.1433ZM12.7131 16.0535C15.4941 16.0655 17.7901 13.8697 17.8091 11.1803C17.829 8.43058 15.5504 6.17842 12.7462 6.17521C12.0783 6.1731 11.4165 6.29876 10.7985 6.54503C10.1806 6.79129 9.61875 7.15334 9.14492 7.61049C8.6711 8.06764 8.29464 8.61095 8.03703 9.20938C7.77942 9.80782 7.64571 10.4497 7.64354 11.0983C7.64136 11.7469 7.77077 12.3896 8.02436 12.9896C8.27795 13.5897 8.65075 14.1353 9.1215 14.5955C9.59225 15.0556 10.1517 15.4212 10.768 15.6714C11.3842 15.9215 12.0452 16.0514 12.7131 16.0535Z" fill="#8391A1"/>
</svg>
