<svg width="330" height="178" viewBox="0 0 330 178" fill="none" xmlns="http://www.w3.org/2000/svg">
<g clip-path="url(#clip0_595_3569)">
<path d="M330 172.774H4.10681V173.384H330V172.774Z" fill="#102048"/>
<path d="M248.937 57.9227C226.848 -9.92277 108.173 -12.8721 99.0582 63.2493C99.0582 63.2493 92.0218 64.6419 85.8151 63.6849C51.9756 58.5108 -7.23704 123.269 38.2078 172.753H291.991C319.45 125.502 299.727 77.148 248.937 57.9227Z" fill="#F6F5F5"/>
<path d="M187.954 100.406L187.518 99.9806C215.846 70.8791 216.97 54.9633 218.675 30.8703C219.278 22.3388 219.961 12.6862 221.923 1.0383C208.507 7.26957 197.634 15.8984 189.593 26.6953C183.079 35.4461 178.404 45.6345 175.685 56.976C171.059 76.3044 173.795 92.4961 173.819 92.6573L173.217 92.7633C173.19 92.6006 170.436 76.3029 175.084 56.8554C177.817 45.4297 182.531 35.1629 189.095 26.3424C197.301 15.3175 208.439 6.53477 222.195 0.241057L222.719 0L222.622 0.569249C220.588 12.4451 219.896 22.256 219.28 30.9197C217.569 55.139 216.437 71.1448 187.954 100.406Z" fill="#DADADA"/>
<path d="M182.615 94.1544L182.024 94.0092C182.136 93.5736 193.417 50.0578 207.609 25.9023L208.136 26.2117C193.982 50.2872 182.727 93.7188 182.615 94.1544Z" fill="#DADADA"/>
<path d="M198.258 46.346L197.647 46.3242C197.647 46.237 197.906 37.5022 193.34 29.0956L193.876 28.8052C198.525 37.3628 198.262 46.2632 198.258 46.346Z" fill="#DADADA"/>
<path d="M191.747 64.0394L191.311 63.6038C197.803 57.1619 206.279 55.1724 206.368 55.1536L206.503 55.7475C206.426 55.7693 198.111 57.7254 191.747 64.0394Z" fill="#DADADA"/>
<path d="M209.502 119.054L209.441 118.447C220.486 117.353 229.446 109.956 236.833 95.8333C243.372 83.3214 247.877 67.3359 252.218 51.876C255.036 41.8561 257.701 32.3734 260.814 24.1642C229.026 32.1018 215.85 57.2825 215.721 57.5366L215.176 57.2607C215.308 57.0008 228.756 31.2799 261.234 23.4251L261.799 23.2886L261.591 23.8317C258.394 32.1381 255.683 41.8023 252.807 52.0343C248.447 67.5232 243.942 83.5465 237.374 96.1092C229.885 110.435 220.768 117.938 209.502 119.054Z" fill="#DADADA"/>
<path d="M206.795 104.06L206.239 103.813C206.423 103.395 224.985 61.845 240.588 49.7629L240.962 50.2451C234.567 55.197 226.636 66.0665 218.021 81.6788C211.504 93.4951 206.842 103.959 206.795 104.06Z" fill="#DADADA"/>
<path d="M227.315 65.9533L226.713 65.8415C226.722 65.7951 227.585 61.09 228.351 49.7224L228.96 49.7645C228.189 61.1742 227.323 65.9069 227.315 65.9533Z" fill="#DADADA"/>
<path d="M216.904 83.651L216.556 83.1486C216.641 83.0905 225.13 77.3094 236.259 74.7725L236.394 75.3678C225.372 77.8787 216.987 83.593 216.904 83.651Z" fill="#DADADA"/>
<path d="M69.0058 158.936C41.575 130.755 40.4851 115.342 38.8357 92.0067C38.2457 83.6712 37.5772 74.2234 35.6212 62.789L35.5238 62.2183L36.0484 62.4593C66.0573 76.1911 77.2891 99.6916 81.4206 116.984C85.898 135.717 83.2459 151.411 83.2197 151.568L82.6181 151.462C82.6442 151.308 85.276 135.714 80.8219 117.105C76.7398 100.053 65.6998 76.9142 36.3202 63.2537C38.2093 74.4615 38.8633 83.7496 39.4446 91.9616C41.0853 115.164 42.1694 130.489 69.4418 158.516L69.0058 158.936Z" fill="#DADADA"/>
<path d="M74.1458 152.912C74.0383 152.493 63.1959 110.668 49.5706 87.4802L50.0966 87.1709C63.7655 110.435 74.6298 152.34 74.7373 152.76L74.1458 152.912Z" fill="#DADADA"/>
<path d="M59.0818 106.87C59.0818 106.784 58.8246 98.2161 63.2962 89.9722L63.8338 90.2626C59.4379 98.3556 59.6835 106.764 59.6864 106.848L59.0818 106.87Z" fill="#DADADA"/>
<path d="M65.3554 123.915C59.2301 117.838 51.2243 115.956 51.1444 115.937L51.2796 115.343C51.3624 115.362 59.5324 117.277 65.7855 123.475L65.3554 123.915Z" fill="#DADADA"/>
<path d="M50.1518 169.641C26.5851 167.45 17.1508 141.343 8.82537 118.309C6.01194 110.522 3.35401 103.168 0.27175 96.8396L0 96.2805L0.608897 96.4069C16.5288 99.7178 27.5021 106.658 33.9049 111.897C40.8513 117.581 44.0774 122.559 44.1079 122.608L43.5935 122.937C43.4685 122.742 30.8677 103.547 1.09136 97.1329C4.07481 103.363 6.66444 110.528 9.40084 118.101C17.6624 140.965 27.0269 166.878 50.2085 169.033L50.1518 169.641Z" fill="#DADADA"/>
<path d="M52.5002 158.298C52.3229 157.98 34.5211 126.39 19.9061 117.123L20.2331 116.608C34.9774 125.957 52.8548 157.681 53.0336 157.995L52.5002 158.298Z" fill="#DADADA"/>
<path d="M32.8382 129.146C32.8295 129.111 31.9663 125.507 31.0944 116.842L31.7018 116.782C32.5563 125.394 33.4166 128.966 33.4253 129.001L32.8382 129.146Z" fill="#DADADA"/>
<path d="M42.8145 142.727C42.736 142.682 34.8218 138.248 24.4735 136.212L24.5927 135.614C35.034 137.669 43.0369 142.149 43.1153 142.195L42.8145 142.727Z" fill="#DADADA"/>
<path d="M269.259 172.345L269.113 171.753C295.063 165.421 299.955 137.567 304.687 110.631C306.348 101.176 308.064 91.4056 310.688 82.9496C284.857 87.8943 270.226 105.717 262.485 119.846C254.033 135.279 251.745 149.761 251.721 149.906L251.118 149.815C251.14 149.67 253.443 135.096 261.942 119.571C269.789 105.227 284.693 87.1116 311.076 82.2497L311.576 82.1582L311.422 82.6418C308.724 91.1704 306.977 101.115 305.288 110.731C300.529 137.866 295.601 165.922 269.259 172.345Z" fill="#DADADA"/>
<path d="M267.044 157.077L266.455 156.913C266.55 156.572 276.116 122.581 291.677 109.158L292.075 109.62C276.655 122.922 267.138 156.737 267.044 157.077Z" fill="#DADADA"/>
<path d="M278.04 128.575L277.443 128.452C277.456 128.384 278.854 121.457 278.363 111.289L278.973 111.26C279.467 121.51 278.055 128.507 278.04 128.575Z" fill="#DADADA"/>
<path d="M269.812 143.37L269.437 142.889C269.522 142.822 278.061 136.234 289.858 132.047L290.063 132.628C278.357 136.777 269.896 143.305 269.812 143.37Z" fill="#DADADA"/>
<path d="M209.395 47.5484C209.002 47.5487 208.618 47.4326 208.292 47.2148C207.965 46.997 207.71 46.6873 207.56 46.3248C207.409 45.9624 207.37 45.5635 207.446 45.1786C207.523 44.7937 207.712 44.4401 207.989 44.1626C208.267 43.885 208.621 43.6959 209.006 43.6193C209.391 43.5426 209.79 43.5818 210.153 43.7319C210.516 43.882 210.826 44.1363 211.044 44.4625C211.262 44.7887 211.379 45.1723 211.379 45.5647C211.378 46.0903 211.169 46.5942 210.797 46.966C210.425 47.3378 209.921 47.5472 209.395 47.5484ZM209.395 44.191C209.123 44.191 208.857 44.2715 208.631 44.4225C208.405 44.5734 208.229 44.788 208.125 45.039C208.021 45.29 207.994 45.5663 208.047 45.8327C208.1 46.0992 208.231 46.344 208.423 46.5361C208.615 46.7282 208.86 46.8591 209.127 46.9121C209.393 46.9651 209.67 46.9379 209.921 46.8339C210.172 46.7299 210.387 46.5539 210.538 46.3279C210.689 46.102 210.77 45.8364 210.77 45.5647C210.769 45.2005 210.624 44.8513 210.367 44.5938C210.109 44.3362 209.759 44.1913 209.395 44.191Z" fill="#DADADA"/>
<path d="M44.8127 78.211C44.4201 78.211 44.0363 78.0947 43.7099 77.8767C43.3834 77.6587 43.129 77.3489 42.9787 76.9864C42.8285 76.624 42.7892 76.2251 42.8658 75.8403C42.9424 75.4555 43.1314 75.1021 43.4091 74.8247C43.6867 74.5472 44.0404 74.3583 44.4254 74.2818C44.8105 74.2052 45.2097 74.2445 45.5724 74.3947C45.9351 74.5448 46.2451 74.799 46.4633 75.1253C46.6814 75.4515 46.7978 75.835 46.7978 76.2273C46.797 76.7532 46.5877 77.2573 46.2155 77.6291C45.8434 78.001 45.339 78.2102 44.8127 78.211ZM44.8127 74.8536C44.5408 74.8536 44.275 74.9341 44.049 75.0851C43.8229 75.236 43.6467 75.4506 43.5426 75.7016C43.4386 75.9526 43.4114 76.2288 43.4644 76.4953C43.5174 76.7618 43.6484 77.0066 43.8406 77.1987C44.0329 77.3908 44.2779 77.5217 44.5445 77.5747C44.8112 77.6277 45.0876 77.6005 45.3388 77.4965C45.59 77.3925 45.8047 77.2165 45.9558 76.9905C46.1068 76.7646 46.1875 76.499 46.1875 76.2273C46.1859 75.8639 46.0405 75.5158 45.7829 75.2592C45.5252 75.0026 45.1765 74.8583 44.8127 74.8579V74.8536Z" fill="#DADADA"/>
<path d="M228.936 122.411C228.544 122.411 228.16 122.295 227.833 122.077C227.507 121.858 227.252 121.549 227.102 121.186C226.952 120.824 226.913 120.425 226.989 120.04C227.066 119.655 227.255 119.301 227.533 119.024C227.811 118.747 228.165 118.558 228.55 118.482C228.935 118.405 229.334 118.445 229.697 118.595C230.06 118.745 230.37 119 230.588 119.326C230.805 119.653 230.922 120.036 230.921 120.429C230.921 120.954 230.711 121.458 230.339 121.83C229.967 122.202 229.462 122.411 228.936 122.411ZM228.936 119.055C228.664 119.055 228.399 119.136 228.172 119.286C227.946 119.437 227.77 119.652 227.666 119.903C227.562 120.154 227.535 120.43 227.588 120.697C227.641 120.963 227.772 121.208 227.964 121.4C228.156 121.592 228.401 121.723 228.668 121.776C228.935 121.829 229.211 121.802 229.462 121.698C229.714 121.594 229.928 121.418 230.079 121.192C230.23 120.966 230.311 120.7 230.311 120.429C230.311 120.064 230.166 119.715 229.908 119.457C229.651 119.2 229.301 119.055 228.936 119.055Z" fill="#DADADA"/>
<path d="M296.47 101.254C296.077 101.255 295.694 101.138 295.367 100.921C295.04 100.703 294.786 100.394 294.635 100.031C294.485 99.6691 294.445 99.2703 294.521 98.8855C294.597 98.5007 294.786 98.1471 295.063 97.8694C295.341 97.5917 295.694 97.4024 296.079 97.3254C296.464 97.2485 296.863 97.2872 297.226 97.4369C297.589 97.5865 297.899 97.8403 298.118 98.1662C298.336 98.4921 298.453 98.8754 298.454 99.2676C298.454 99.7938 298.245 100.298 297.873 100.671C297.501 101.043 296.996 101.253 296.47 101.254ZM296.47 97.8968C296.198 97.8965 295.932 97.9768 295.706 98.1276C295.48 98.2784 295.303 98.4928 295.199 98.7438C295.095 98.9948 295.067 99.2711 295.12 99.5376C295.173 99.8042 295.304 100.049 295.496 100.241C295.688 100.434 295.933 100.565 296.2 100.618C296.466 100.671 296.743 100.644 296.994 100.54C297.246 100.436 297.46 100.26 297.611 100.034C297.763 99.808 297.843 99.5423 297.843 99.2705C297.843 98.9066 297.698 98.5576 297.441 98.3001C297.183 98.0426 296.834 97.8976 296.47 97.8968Z" fill="#DADADA"/>
<path d="M222.372 95.6096C223.131 95.6096 223.747 94.9945 223.747 94.2358C223.747 93.4771 223.131 92.8621 222.372 92.8621C221.613 92.8621 220.997 93.4771 220.997 94.2358C220.997 94.9945 221.613 95.6096 222.372 95.6096Z" fill="#DADADA"/>
<path d="M285.63 146.163C286.39 146.163 287.005 145.547 287.005 144.789C287.005 144.03 286.39 143.415 285.63 143.415C284.871 143.415 284.256 144.03 284.256 144.789C284.256 145.547 284.871 146.163 285.63 146.163Z" fill="#DADADA"/>
<path d="M185.88 55.0241C185.881 54.2654 185.266 53.6495 184.507 53.6484C183.748 53.6474 183.132 54.2616 183.13 55.0203C183.129 55.779 183.744 56.3949 184.503 56.396C185.263 56.397 185.879 55.7828 185.88 55.0241Z" fill="#DADADA"/>
<path d="M32.8033 150.638C33.5626 150.638 34.1781 150.023 34.1781 149.264C34.1781 148.506 33.5626 147.891 32.8033 147.891C32.0441 147.891 31.4286 148.506 31.4286 149.264C31.4286 150.023 32.0441 150.638 32.8033 150.638Z" fill="#DADADA"/>
<path d="M71.9326 55.8302C71.753 55.8301 71.5744 55.8042 71.4022 55.7532L67.6035 54.619C67.3709 54.5497 67.1542 54.4352 66.9659 54.2821C66.7776 54.1289 66.6214 53.9402 66.5061 53.7267C66.3908 53.5132 66.3188 53.2791 66.2942 53.0378C66.2695 52.7964 66.2927 52.5526 66.3625 52.3203L67.6573 48.0262C66.0528 47.1747 64.576 46.1022 63.27 44.8401L59.5672 47.3393C59.1603 47.6129 58.6616 47.7145 58.18 47.622C57.6984 47.5295 57.273 47.2504 56.9965 46.8456L54.7745 43.5738C54.6382 43.3731 54.5428 43.1475 54.4939 42.9098C54.4451 42.6722 54.4437 42.4272 54.4899 42.189C54.5361 41.9509 54.6289 41.7242 54.7631 41.522C54.8972 41.3197 55.07 41.146 55.2715 41.0107L58.9307 38.5421C58.1534 36.7117 57.6656 34.7716 57.4848 32.7914L53.1426 32.2948C52.9013 32.2676 52.6677 32.193 52.4553 32.0755C52.2428 31.9579 52.0556 31.7997 51.9045 31.6098C51.7533 31.4199 51.6411 31.202 51.5743 30.9687C51.5074 30.7354 51.4873 30.4912 51.515 30.2501L51.9699 26.3293C52.0267 25.8424 52.2745 25.398 52.659 25.0936C53.0434 24.7893 53.533 24.6497 54.0203 24.7058L58.3073 25.1966C58.8813 23.3992 59.7177 21.6963 60.7894 20.143L57.8292 17.0746C57.6604 16.8998 57.5277 16.6934 57.4389 16.4673C57.3501 16.2411 57.3069 15.9997 57.3118 15.7568C57.3166 15.5139 57.3695 15.2744 57.4672 15.0519C57.565 14.8295 57.7058 14.6286 57.8815 14.4607L60.7414 11.7233C61.0958 11.3849 61.5697 11.2002 62.0598 11.2098C62.5499 11.2193 63.0163 11.4222 63.3572 11.7742L66.2898 14.8136C67.9497 13.7503 69.7631 12.948 71.6667 12.4349L71.3935 8.24538C71.3628 7.75639 71.5275 7.27521 71.8515 6.90741C72.1754 6.53961 72.6321 6.31523 73.1214 6.2835L77.0785 6.02647C77.3209 6.00951 77.5643 6.04065 77.7947 6.11809C78.025 6.19553 78.2378 6.31774 78.4207 6.47769C78.6035 6.63764 78.753 6.83216 78.8603 7.05005C78.9677 7.26794 79.0308 7.5049 79.0461 7.74729L79.3237 11.9397C81.2789 12.2001 83.1823 12.7605 84.9665 13.601L87.4806 10.2058C87.7729 9.80972 88.2108 9.54589 88.6978 9.47236C89.1848 9.39883 89.681 9.52162 90.0775 9.81373L93.2745 12.159C93.4699 12.3028 93.6351 12.4837 93.7605 12.6913C93.8859 12.8989 93.9691 13.1292 94.0054 13.369C94.0417 13.6088 94.0304 13.8534 93.9721 14.0888C93.9137 14.3242 93.8095 14.5458 93.6654 14.7409L91.1281 18.1652C92.392 19.5667 93.4424 21.1467 94.2453 22.8542L98.432 21.813C98.9077 21.6947 99.411 21.7697 99.8315 22.0215C100.252 22.2732 100.556 22.6813 100.676 23.1563L101.635 26.9886C101.694 27.224 101.706 27.4687 101.67 27.7087C101.634 27.9487 101.551 28.1793 101.425 28.3872C101.3 28.5951 101.135 28.7762 100.94 28.9202C100.744 29.0642 100.522 29.1683 100.286 29.2264L96.0356 30.2894C96.1142 32.2765 95.8822 34.2636 95.3483 36.1794L99.2981 38.1529C99.7347 38.3713 100.067 38.754 100.221 39.2168C100.376 39.6797 100.34 40.185 100.122 40.6216L98.3448 44.1532C98.1234 44.5906 97.7377 44.9226 97.272 45.0766C96.8064 45.2306 96.2986 45.1942 95.8598 44.9752L91.862 42.9784C90.7323 44.4 89.4069 45.6545 87.9252 46.7047L89.7665 50.7969C89.866 51.0183 89.9209 51.2571 89.9279 51.4996C89.9349 51.7422 89.8938 51.9837 89.8071 52.2104C89.7205 52.4371 89.5898 52.6444 89.4227 52.8205C89.2557 52.9966 89.0554 53.138 88.8335 53.2366L85.2165 54.8529C84.7688 55.0527 84.2602 55.0672 83.8019 54.8933C83.3436 54.7194 82.9728 54.3713 82.7707 53.9249L80.9222 49.8138C78.9833 50.2425 76.9902 50.3722 75.012 50.1986L73.7114 54.5145C73.5958 54.8957 73.3603 55.2296 73.0399 55.4665C72.7195 55.7035 72.3313 55.831 71.9326 55.8302ZM63.3383 44.0559L63.5171 44.2317C64.8819 45.5856 66.4469 46.7219 68.1572 47.6007L68.3839 47.7169L66.9423 52.496C66.8956 52.6516 66.8802 52.8149 66.8968 52.9765C66.9134 53.138 66.9618 53.2948 67.0392 53.4376C67.1165 53.5805 67.2214 53.7067 67.3476 53.809C67.4739 53.9113 67.6191 53.9877 67.775 54.0338L71.5737 55.168C71.8886 55.2624 72.2281 55.2281 72.5177 55.0727C72.8073 54.9172 73.0234 54.6533 73.1185 54.3388L74.563 49.5466L74.8129 49.5713C76.8913 49.7829 78.9905 49.6465 81.0239 49.1676L81.2695 49.111L83.3258 53.6693C83.4613 53.9685 83.7098 54.2018 84.017 54.3183C84.3242 54.4348 84.6651 54.4249 84.9651 54.2909L88.5835 52.6746C88.8795 52.5406 89.1107 52.2956 89.2271 51.9926C89.3435 51.6895 89.3357 51.3528 89.2055 51.0554L87.1565 46.5029L87.3658 46.3576C88.9492 45.2635 90.354 43.9317 91.5307 42.4092L91.676 42.2117L96.1214 44.4306C96.4156 44.5778 96.7561 44.6025 97.0685 44.4994C97.3809 44.3962 97.6397 44.1736 97.7882 43.8802L99.5655 40.35C99.6384 40.2049 99.682 40.0469 99.6937 39.885C99.7054 39.723 99.685 39.5604 99.6337 39.4063C99.5824 39.2523 99.5012 39.1099 99.3947 38.9872C99.2882 38.8646 99.1586 38.7641 99.0133 38.6916L94.6086 36.4916L94.6798 36.2462C95.2705 34.241 95.5161 32.1502 95.4064 30.0628L95.3933 29.813L100.122 28.6353C100.28 28.5966 100.429 28.5271 100.56 28.4308C100.69 28.3345 100.801 28.2133 100.885 28.0743C100.969 27.9352 101.025 27.7809 101.049 27.6202C101.073 27.4596 101.065 27.2958 101.026 27.1381L100.067 23.3059C99.9859 22.9875 99.782 22.7141 99.4999 22.5457C99.2177 22.3772 98.8802 22.3273 98.5613 22.407L93.8834 23.5687L93.7788 23.3364C92.9549 21.5226 91.845 19.8526 90.4916 18.3903L90.3201 18.2058L93.1568 14.3765C93.2535 14.2461 93.3235 14.0979 93.3627 13.9404C93.4019 13.7829 93.4096 13.6192 93.3853 13.4588C93.361 13.2983 93.3052 13.1443 93.2211 13.0054C93.137 12.8666 93.0262 12.7457 92.8952 12.6498L89.6982 10.3046C89.4331 10.1101 89.1018 10.0285 88.7766 10.0774C88.4515 10.1264 88.159 10.3021 87.963 10.566L85.1467 14.3663L84.9185 14.2559C83.0532 13.3487 81.0492 12.7597 78.9894 12.5133L78.738 12.4828L78.4314 7.78795C78.409 7.46073 78.2577 7.15575 78.0106 6.93987C77.7635 6.72399 77.4408 6.61485 77.1133 6.63638L73.1562 6.89341C72.9935 6.9034 72.8344 6.94532 72.6879 7.01678C72.5414 7.08823 72.4105 7.18783 72.3025 7.30987C72.1946 7.43191 72.1117 7.57401 72.0587 7.72805C72.0057 7.88209 71.9836 8.04505 71.9937 8.20763L72.3003 12.901L72.0547 12.9635C70.0432 13.4759 68.1316 14.3206 66.3988 15.4627L66.1881 15.6079L62.9024 12.2026C62.6735 11.9664 62.3604 11.8304 62.0315 11.8241C61.7026 11.8179 61.3846 11.9419 61.1469 12.1691L58.2884 14.908C58.1715 15.02 58.0779 15.154 58.0128 15.3023C57.9478 15.4505 57.9126 15.6102 57.9094 15.772C57.9062 15.9339 57.9349 16.0948 57.9939 16.2455C58.053 16.3963 58.1412 16.5339 58.2535 16.6506L61.564 20.0806L61.4186 20.2868C60.2668 21.9119 59.3836 23.7113 58.8029 25.6163L58.7287 25.8588L53.9331 25.3113C53.7714 25.2917 53.6073 25.3043 53.4505 25.3484C53.2936 25.3924 53.147 25.4671 53.0192 25.5681C52.8914 25.6691 52.7849 25.7944 52.7058 25.9368C52.6267 26.0791 52.5766 26.2357 52.5584 26.3975L52.1035 30.3184C52.0854 30.4797 52.0992 30.6431 52.1442 30.7991C52.1892 30.9551 52.2645 31.1007 52.3659 31.2276C52.4672 31.3545 52.5926 31.4602 52.7349 31.5387C52.8771 31.6172 53.0334 31.6668 53.1949 31.6849L58.0356 32.2396L58.0545 32.4894C58.2178 34.573 58.7312 36.6143 59.5731 38.5275L59.6762 38.7613L55.5956 41.5205C55.4608 41.611 55.3453 41.7273 55.2555 41.8626C55.1658 41.9979 55.1037 42.1496 55.0728 42.3089C55.0419 42.4682 55.0427 42.6321 55.0754 42.7911C55.108 42.9501 55.1717 43.1011 55.2628 43.2355L57.4833 46.5058C57.6692 46.777 57.9548 46.9638 58.2779 47.0256C58.601 47.0873 58.9354 47.019 59.2083 46.8354L63.3383 44.0559ZM76.721 42.2378C74.9314 42.2323 73.1699 41.7935 71.5871 40.959C70.0043 40.1246 68.6474 38.9194 67.6326 37.4465C66.6177 35.9736 65.9751 34.2769 65.7597 32.5017C65.5443 30.7264 65.7625 28.9255 66.3957 27.2529C67.029 25.5803 68.0583 24.086 69.3957 22.8977C70.733 21.7095 72.3386 20.8628 74.0749 20.43C75.8113 19.9972 77.6267 19.9913 79.3659 20.4127C81.105 20.8342 82.716 21.6704 84.0611 22.8499C85.7091 24.295 86.8907 26.1965 87.4562 28.3133C88.0218 30.4301 87.9459 32.667 87.2381 34.7407C86.5303 36.8143 85.2225 38.6314 83.4803 39.9616C81.7382 41.2919 79.6401 42.0755 77.4519 42.2131C77.2107 42.2291 76.9666 42.2378 76.7253 42.2378H76.721ZM76.7559 20.705C76.5233 20.705 76.2908 20.7137 76.0569 20.7282C73.2873 20.9083 70.7027 22.1804 68.8717 24.2647C67.0407 26.349 66.1133 29.0748 66.2934 31.8425C66.4736 34.6101 67.7466 37.1928 69.8325 39.0225C71.9183 40.8522 74.646 41.7789 77.4156 41.5989C80.1391 41.4423 82.6938 40.229 84.535 38.2175C86.3763 36.206 87.3586 33.5555 87.2726 30.8307C87.1865 28.106 86.039 25.5226 84.0744 23.6311C82.1099 21.7397 79.4838 20.6897 76.7559 20.705Z" fill="#DADADA"/>
<path d="M218.152 100.082C215.344 99.4055 212.563 97.3333 209.973 94.5073C208.78 93.2066 207.717 91.7911 206.802 90.2815L209.116 88.8773L210.703 87.2625C211.708 88.9847 215.955 93.4168 219.662 94.4725C222.455 95.2683 226.347 94.4202 227.641 94.1821L231.391 98.5182C228.463 100.948 221.789 100.958 218.152 100.082Z" fill="#C97E67"/>
<path d="M208.442 91.3081C208.442 91.3081 203.4 91.2602 202.175 90.0985C200.95 88.9367 200.346 86.4114 201.177 87.0852C202.008 87.759 202.563 88.8569 202.563 88.8569C202.563 88.8569 201.335 86.3388 201.837 86.1442C202.563 85.8625 203.714 88.1351 203.714 88.1351C203.714 88.1351 202.148 85.0086 202.915 85.0231C203.682 85.0377 204.857 87.3466 204.857 87.3466C204.857 87.3466 203.415 84.4597 204.306 84.4974C205.197 84.5352 205.83 86.8296 206.57 86.6045C207.31 86.3795 209.738 86.4114 210.385 87.1854L208.442 91.3081Z" fill="#C97E67"/>
<path d="M210.908 87.5849C210.472 86.7296 208.001 84.5049 207.286 84.5034C206.571 84.502 209.011 89.0444 209.011 89.0444L210.908 87.5849Z" fill="#C97E67"/>
<path d="M207.933 87.6937L207.815 87.6515C208.022 87.0707 207.642 86.4898 207.638 86.4811L207.743 86.4128C207.76 86.439 208.16 87.0591 207.933 87.6937Z" fill="#B2604D"/>
<path d="M203.456 89.2257C202.729 89.2257 202.521 88.9063 202.511 88.8903L202.617 88.8235L202.563 88.8569L202.616 88.822C202.616 88.822 202.892 89.217 203.886 89.0674L203.903 89.1894C203.755 89.2131 203.605 89.2253 203.456 89.2257Z" fill="#B2604D"/>
<path d="M204.607 88.2805C203.565 88.2805 203.284 87.5123 203.28 87.5036L203.398 87.4629C203.412 87.5006 203.752 88.4126 205.17 88.0873L205.198 88.2093C205.004 88.2548 204.806 88.2787 204.607 88.2805Z" fill="#B2604D"/>
<path d="M205.528 87.486C205.285 87.4981 205.044 87.4325 204.841 87.2987C204.698 87.2008 204.6 87.0513 204.566 86.8819L204.689 86.866C204.719 87.0022 204.801 87.1218 204.916 87.2C205.149 87.367 205.526 87.4047 206.009 87.3103L206.034 87.4323C205.867 87.4665 205.698 87.4845 205.528 87.486Z" fill="#B2604D"/>
<path d="M223.583 98.3556L223.437 98.2961C224.01 96.9587 225.536 95.3918 225.55 95.3816L225.659 95.4876C225.649 95.5036 224.145 97.0443 223.583 98.3556Z" fill="#33353B"/>
<path d="M227.487 167.873C227.487 167.873 227.397 169.605 226.211 170.062C225.026 170.52 221.614 170.868 222.853 172.017C223.565 172.675 227.011 172.355 227.981 172.382C228.952 172.408 229.85 172.855 230.589 172.225C231.401 171.533 230.703 167.96 230.703 167.96C230.703 167.96 229.855 168.374 229.105 168.333C228.019 168.276 227.487 167.873 227.487 167.873Z" fill="#33353B"/>
<path d="M218.938 123.612C219.155 127.283 219.585 132.155 220.423 138.192C221.935 149.07 223.766 160.039 224.671 165.299C224.818 166.204 225.266 167.033 225.942 167.653C226.618 168.273 227.482 168.647 228.397 168.716L229.398 168.783C231.415 168.92 233.1 167.231 233.008 165.167L231.43 129.704L231.296 124.689C231.296 124.689 218.616 118.117 218.938 123.612Z" fill="#44474F"/>
<path d="M238.596 168.173C238.596 168.173 238.506 169.904 237.318 170.362C236.131 170.819 232.72 171.167 233.962 172.316C234.672 172.975 238.119 172.655 239.088 172.681C240.058 172.707 240.957 173.154 241.696 172.524C242.508 171.833 241.812 168.259 241.812 168.259C241.812 168.259 240.963 168.673 240.213 168.632C239.131 168.575 238.596 168.173 238.596 168.173Z" fill="#33353B"/>
<path d="M229.888 115.609C229.888 115.609 229.444 123.423 231.536 138.491C233.046 149.369 234.879 160.339 235.784 165.598C235.93 166.503 236.378 167.332 237.053 167.952C237.729 168.572 238.594 168.947 239.508 169.015L240.511 169.084C242.527 169.219 244.213 167.53 244.121 165.466L242.543 130.004L242.232 118.338L229.888 115.609Z" fill="#44474F"/>
<path d="M243.253 125.182C243.108 126.114 237.392 125.716 230.423 124.546C223.453 123.375 217.994 121.641 218.145 120.716C218.296 119.791 224.003 120.002 230.972 121.171C237.942 122.34 243.404 124.245 243.253 125.182Z" fill="#33353B"/>
<path d="M245.145 98.4733C245.145 98.4733 244.576 93.4038 235.451 92.1128C222.292 90.2497 221.865 102.507 218.145 120.721C218.145 120.721 231.369 120.651 243.285 124.957C243.291 124.952 246.985 106.353 245.145 98.4733Z" fill="#02B558"/>
<path d="M249.047 100.444L242.198 100.715C242.198 100.715 228.165 102.274 224.776 101.231C221.387 100.188 221.433 94.4275 221.433 94.4275C221.433 94.4275 225.802 92.0518 232.216 91.8862C232.818 91.8703 233.44 91.8862 234.079 91.9269C235.145 92.0127 236.202 92.1782 237.243 92.4221C249.618 95.2015 249.047 100.444 249.047 100.444Z" fill="#02B558"/>
<path d="M236.859 91.1617L236.473 88.8382L236.361 88.1644L235.698 84.1985L235.028 87.9625L234.626 90.2221L234.498 90.938C234.412 91.423 234.316 91.8427 233.896 92.2174C233.726 92.3626 232.428 92.926 233.431 93.5418C234.679 94.31 237.209 93.7044 238.317 92.6705C238.305 92.6719 236.984 91.9095 236.859 91.1617Z" fill="#C97E67"/>
<path d="M218.78 121.412C218.78 121.412 226.216 121.217 242.425 125.604L242.472 127.364L219.22 127.559L218.78 121.412Z" fill="#44474F"/>
<path d="M249.063 100.444C249.212 99.5727 247.421 98.5398 245.061 98.1368C242.702 97.7338 240.669 98.1134 240.52 98.9846C240.371 99.8558 242.163 100.889 244.522 101.292C246.881 101.695 248.914 101.315 249.063 100.444Z" fill="#33353B"/>
<path d="M233.698 81.824C233.347 82.4368 233.129 83.1166 233.058 83.8193C232.931 85.0028 234.938 82.6372 234.938 82.6372L233.698 81.824Z" fill="#33353B"/>
<path d="M238.98 86.9909C239.952 84.9358 239.357 82.6171 237.652 81.812C235.946 81.0068 233.776 82.0201 232.805 84.0751C231.833 86.1302 232.428 88.4489 234.133 89.254C235.838 90.0592 238.008 89.0459 238.98 86.9909Z" fill="#C97E67"/>
<path d="M239.439 85.9162L237.917 85.2482C237.751 85.1769 237.603 85.0689 237.484 84.9324C237.366 84.7958 237.28 84.6342 237.233 84.4597C237.071 83.8527 236.768 83.4693 235.281 83.0525C233.392 82.5254 232.529 81.0195 232.64 79.987C232.752 78.9545 233.922 78.5624 234.704 79.335C235.486 80.1075 235.457 78.8194 236.396 78.9835C238.147 79.2929 238.045 80.6869 239.433 81.0848C241.252 81.6091 244.038 84.0124 241.489 86.6902L239.439 85.9162Z" fill="#33353B"/>
<path d="M235.79 85.3354C235.783 85.3269 235.778 85.317 235.776 85.3065C235.773 85.296 235.773 85.285 235.775 85.2744C235.78 85.2569 235.791 85.2417 235.806 85.2322C235.822 85.2227 235.84 85.2196 235.858 85.2236C236.022 85.2511 236.172 85.3324 236.285 85.4547C236.397 85.577 236.466 85.7332 236.48 85.8989C236.482 85.9169 236.478 85.9353 236.467 85.9499C236.456 85.9646 236.44 85.9744 236.422 85.9773C236.404 85.9786 236.386 85.9736 236.372 85.9633C236.357 85.953 236.347 85.9379 236.342 85.9206C236.237 85.6815 236.056 85.4836 235.827 85.3572C235.813 85.3541 235.8 85.3465 235.79 85.3354Z" fill="#33353B"/>
<path d="M235.804 86.272C235.771 86.2984 235.732 86.3152 235.69 86.3205C235.649 86.3259 235.606 86.3197 235.568 86.3025C235.529 86.2854 235.497 86.2579 235.473 86.2233C235.449 86.1886 235.435 86.1481 235.433 86.1061C235.431 86.0641 235.44 86.0224 235.461 85.9855C235.481 85.9486 235.511 85.9179 235.547 85.897C235.583 85.876 235.625 85.8654 235.667 85.8665C235.709 85.8676 235.75 85.8803 235.785 85.9032C235.835 85.9506 235.865 86.0152 235.868 86.0838C235.872 86.1524 235.849 86.2198 235.804 86.272Z" fill="#33353B"/>
<path d="M233.415 84.3566C233.407 84.352 233.401 84.3455 233.396 84.3376C233.391 84.3297 233.389 84.3207 233.389 84.3116C233.389 84.2942 233.394 84.2771 233.404 84.2627C233.414 84.2484 233.428 84.2375 233.444 84.2317C233.505 84.2058 233.571 84.1929 233.638 84.1936C233.704 84.1944 233.77 84.2089 233.831 84.2361C233.892 84.2634 233.946 84.3028 233.991 84.352C234.035 84.4013 234.07 84.4592 234.091 84.5222C234.097 84.5383 234.097 84.556 234.092 84.5725C234.087 84.589 234.077 84.6034 234.063 84.6136C234.057 84.6182 234.051 84.6216 234.044 84.6234C234.037 84.6253 234.029 84.6256 234.022 84.6244C234.014 84.6231 234.008 84.6204 234.001 84.6163C233.995 84.6122 233.99 84.6068 233.986 84.6006C233.919 84.525 233.836 84.4644 233.744 84.4226C233.651 84.3809 233.551 84.3589 233.45 84.3581C233.438 84.3614 233.426 84.3608 233.415 84.3566Z" fill="#33353B"/>
<path d="M233.8 85.2238C233.77 85.3864 233.655 85.4997 233.531 85.4779C233.467 85.453 233.415 85.4046 233.386 85.3424C233.356 85.2803 233.352 85.2092 233.373 85.1439C233.403 84.9812 233.518 84.868 233.642 84.8912C233.706 84.9158 233.758 84.964 233.787 85.0259C233.817 85.0878 233.821 85.1586 233.8 85.2238Z" fill="#33353B"/>
<path d="M241.489 86.6902C241.489 86.6902 239.649 88.6855 238.052 88.3617C238.052 88.3617 239.873 86.9763 237.596 85.0435C237.596 85.0435 240.13 85.4384 241.489 86.6902Z" fill="#33353B"/>
<path d="M238.901 87.2858C238.773 87.3044 238.643 87.2856 238.526 87.2317C238.408 87.1779 238.309 87.0912 238.24 86.9822C238.171 86.8733 238.135 86.7466 238.136 86.6176C238.138 86.4887 238.176 86.3629 238.248 86.2554C238.319 86.1479 238.42 86.0634 238.539 86.012C238.657 85.9607 238.788 85.9447 238.915 85.9659C239.042 85.9872 239.161 86.0449 239.256 86.132C239.351 86.219 239.419 86.3318 239.452 86.4567C239.488 86.6395 239.45 86.8292 239.347 86.9844C239.244 87.1397 239.084 87.248 238.901 87.2858Z" fill="#C97E67"/>
<path d="M237.596 85.0435C237.596 85.0435 237.175 87.0765 236.654 87.3219C236.134 87.5673 233.437 86.8746 232.356 86.0019C232.145 86.6101 232.158 87.2736 232.394 87.8727C232.63 88.4718 233.072 88.9671 233.64 89.2693C234.036 89.4741 234.463 89.6096 234.905 89.6701C235.817 89.7979 236.774 89.7093 237.387 89.0238C237.574 88.8147 237.74 87.213 237.74 87.213C237.74 87.213 237.906 86.2952 238.564 86.0019C238.564 86.0019 238.144 85.2802 237.596 85.0435Z" fill="#33353B"/>
<path d="M235.166 79.2799C235.084 79.2789 235.003 79.2637 234.926 79.2348L234.957 79.1477C235.381 79.2929 235.529 78.9676 235.538 78.9531L235.624 78.9909C235.582 79.077 235.517 79.1498 235.436 79.2009C235.356 79.252 235.262 79.2793 235.166 79.2799Z" fill="#33353B"/>
<path d="M234.922 82.3629C234.604 82.1404 234.308 81.8885 234.037 81.6106C233.476 81.0298 233.235 80.4823 233.341 80.0365C233.414 79.7257 233.531 79.5398 233.703 79.4672C233.975 79.3525 234.316 79.5558 234.617 79.7373L234.746 79.8143L234.723 79.855L234.592 79.7765C234.302 79.6023 233.97 79.4048 233.72 79.5093C233.565 79.5761 233.454 79.7519 233.386 80.0466C233.258 80.5898 233.688 81.1793 234.072 81.5787C234.339 81.8537 234.631 82.1031 234.944 82.3236L234.922 82.3629Z" fill="white"/>
<path d="M240.088 81.6962C239.301 81.577 238.571 81.2179 237.996 80.668C237.769 80.4517 237.584 80.1952 237.451 79.9115L237.494 79.894C237.494 79.9086 238.076 81.2925 240.096 81.6512L240.088 81.6962Z" fill="white"/>
<path d="M234.294 87.8914C233.313 87.8914 232.808 87.0549 232.8 87.0447C232.789 87.0218 232.788 86.9957 232.795 86.9714C232.802 86.9471 232.819 86.9265 232.84 86.9136C232.862 86.9006 232.888 86.8964 232.913 86.9016C232.938 86.9068 232.96 86.921 232.975 86.9416C233.157 87.236 233.431 87.4622 233.755 87.5851C234.079 87.7079 234.435 87.7206 234.767 87.6213C234.779 87.6176 234.793 87.6165 234.806 87.618C234.819 87.6196 234.831 87.6236 234.843 87.63C234.855 87.6364 234.865 87.645 234.873 87.6554C234.881 87.6657 234.887 87.6775 234.891 87.6902C234.894 87.7029 234.896 87.7162 234.894 87.7293C234.893 87.7424 234.888 87.7551 234.882 87.7666C234.876 87.7781 234.867 87.7883 234.857 87.7965C234.846 87.8047 234.835 87.8108 234.822 87.8144C234.65 87.8644 234.473 87.8903 234.294 87.8914Z" fill="#C97E67"/>
<path d="M231.875 141.556C231.866 141.492 231.011 135.1 230.368 132.81C229.724 130.52 226.778 128.571 226.749 128.551L226.832 128.424C226.863 128.445 229.862 130.447 230.514 132.769C231.16 135.069 232.016 141.472 232.024 141.537L231.875 141.556Z" fill="#33353B"/>
<path d="M227.705 105.956C230.129 107.417 234.245 108.666 235.843 108.033C238.837 106.854 239.612 103.399 240.494 100.705C240.949 99.3257 241.819 98.527 243.766 98.6156C244.576 98.6504 245.921 98.4979 247.516 99.3867C248.284 99.8223 248.181 100.681 248.002 101.399C247.723 102.525 247.463 104.135 246.636 106.046C244.676 110.571 243.782 112.542 240.327 114.385C236.085 116.646 228.73 114.982 223.946 110.146C223.452 109.632 227.136 105.614 227.705 105.956Z" fill="#C97E67"/>
<g opacity="0.5">
<path d="M238.09 113.256C237.892 113.26 237.695 113.227 237.509 113.158C237.385 113.115 237.272 113.047 237.176 112.959C237.08 112.871 237.003 112.764 236.949 112.645C236.679 112.016 237.183 111.193 238.096 110.782C238.636 110.535 239.219 110.492 239.654 110.656C239.777 110.698 239.89 110.766 239.987 110.854C240.083 110.942 240.16 111.049 240.213 111.168C240.483 111.797 239.979 112.62 239.067 113.031C238.761 113.174 238.428 113.251 238.09 113.256ZM239.086 110.885C238.793 110.89 238.505 110.957 238.24 111.081C237.513 111.411 237.067 112.067 237.259 112.516C237.296 112.594 237.349 112.664 237.413 112.721C237.478 112.778 237.553 112.822 237.635 112.85C237.988 112.986 238.475 112.943 238.943 112.732C239.67 112.403 240.116 111.746 239.924 111.297C239.887 111.219 239.834 111.15 239.77 111.092C239.705 111.035 239.63 110.991 239.548 110.963C239.4 110.909 239.243 110.882 239.086 110.885Z" fill="#B2604D"/>
</g>
<path d="M224.705 110.381C224.705 110.381 219.155 109.736 217.94 108.31C216.725 106.884 216.357 104.032 217.194 104.871C218.031 105.711 218.515 106.987 218.515 106.987C218.515 106.987 217.457 104.068 218.028 103.912C218.857 103.686 219.864 106.326 219.864 106.326C219.864 106.326 218.505 102.696 219.351 102.802C220.197 102.908 221.215 105.602 221.215 105.602C221.215 105.602 219.967 102.25 220.945 102.395C221.923 102.541 222.35 105.146 223.192 104.985C224.033 104.823 226.706 105.143 227.329 106.071L224.705 110.381Z" fill="#C97E67"/>
<path d="M219.505 108.013C218.895 107.922 218.47 107.054 218.453 107.018L218.578 106.958C218.578 106.958 218.988 107.798 219.525 107.876L219.505 108.013Z" fill="#B2604D"/>
<path d="M220.993 107.53C220.173 107.24 219.775 106.388 219.759 106.351L219.886 106.293C219.886 106.302 220.275 107.125 221.04 107.4L220.993 107.53Z" fill="#B2604D"/>
<path d="M222.276 106.694C221.619 106.652 221.114 105.625 221.098 105.582L221.223 105.522C221.223 105.531 221.708 106.52 222.285 106.556L222.276 106.694Z" fill="#B2604D"/>
<path d="M228.019 106.247C227.916 106.197 225.03 102.831 224.241 102.746C223.452 102.66 225.023 106.44 225.023 106.44L228.019 106.247Z" fill="#C97E67"/>
<path d="M164.239 136.276L161.294 141.757C161.098 142.12 161.036 142.54 161.12 142.944C161.203 143.348 161.425 143.71 161.748 143.967L166.593 147.811L160.552 144.471C160.329 144.347 160.069 144.304 159.818 144.35C159.566 144.395 159.338 144.526 159.172 144.721L156.88 147.398L158.188 144.185C158.306 143.894 158.337 143.576 158.277 143.268C158.217 142.961 158.069 142.677 157.851 142.452L155.594 140.129L158.49 141.706C158.724 141.833 158.995 141.876 159.257 141.826C159.519 141.776 159.755 141.637 159.926 141.433L164.239 136.276Z" fill="#FFF2E2"/>
<path d="M173.047 19.7306C173.047 19.7306 198.746 64.6913 202.315 55.6109C206.658 44.5628 174.522 9.98221 173.047 19.7306Z" fill="#33353B"/>
<path d="M202.701 53.8887C202.98 51.3314 201.975 48.1962 200.254 44.8852C196.551 37.7696 189.535 29.8857 184.91 25.3245C179.449 19.9369 173.97 18.2233 173.97 18.2233L174.019 18.1711C174.341 17.8356 191.788 11.0177 203.972 5.36436C212.78 1.26544 222.784 0.527356 232.098 3.28921C242.384 6.35038 251.925 9.98953 251.986 10.0157C266.487 16.292 268.815 29.9409 256.408 35.8643C232.241 47.3859 201.594 56.8206 201.594 56.8206C201.727 56.6442 201.848 56.4594 201.957 56.2673C202.36 55.5512 202.611 54.7606 202.697 53.9439L202.701 53.8887Z" fill="#02B558"/>
<path d="M143.425 34.646C143.425 34.646 124.097 34.9669 122.843 36.7952C120.421 40.3211 130.157 40.3211 130.157 40.3211L143.425 34.646Z" fill="#C97E67"/>
<path d="M173.963 20.8272C167.959 23.9871 163.578 25.8531 159.444 27.9617C149.244 33.1634 131.507 46.4435 132.488 56.478C133.469 66.5125 146.026 77.7755 149.735 74.9017C153.443 72.0278 145.725 58.026 147.174 54.7949C148.623 51.5638 167.247 51.6103 167.852 54.1196C168.456 56.629 155.164 67.044 159.525 71.7243C159.525 71.7243 161.975 74.3528 169.262 68.3843C173.21 65.1489 181.192 62.2954 187.466 55.4368C189.936 52.7386 193.61 48.9427 194.71 46.7324C196.598 42.9437 177.253 19.0947 173.963 20.8272Z" fill="#C97E67"/>
<path d="M156.045 29.835C156.045 29.835 133.979 36.515 127.707 44.5498C121.435 52.5847 118.363 59.1354 121.948 61.4647C125.533 63.794 139.334 50.5357 139.334 50.5357L156.045 29.835Z" fill="#C97E67"/>
<path d="M166.31 24.7422C158.108 27.2777 115.477 45.1597 114.968 48.1643C113.983 53.986 130.061 48.3879 130.061 48.3879L166.31 24.7422Z" fill="#C97E67"/>
<path d="M147.965 72.9701C147.965 72.9701 140.184 65.6758 132.577 72.0509C124.969 78.4259 134.799 88.5272 144.493 91.3227C154.187 94.1181 156.89 95.5833 158.538 94.6133C160.186 93.6432 178.38 65.882 166.127 56.4603C157.334 49.7005 147.434 57.4289 147.965 72.9701Z" fill="#008036"/>
<path d="M167.852 54.1196C167.852 54.1196 156.895 66.1726 157.851 71.0679C158.807 75.9632 168.432 69.0145 179.457 61.7391C190.483 54.4638 172.713 46.6075 167.852 54.1196Z" fill="#C97E67"/>
<path d="M132.488 56.777C132.422 56.7791 132.357 56.7586 132.304 56.719C132.252 56.6794 132.214 56.623 132.197 56.5591C132.148 56.3805 131.007 52.1605 133.226 48.2818C134.688 45.7216 137.262 43.934 140.874 42.9668C140.952 42.9464 141.034 42.9574 141.103 42.9975C141.172 43.0375 141.222 43.1033 141.242 43.1803C141.263 43.2573 141.252 43.3393 141.211 43.4082C141.171 43.4771 141.106 43.5273 141.029 43.5477C137.579 44.4698 135.13 46.1616 133.748 48.5751C131.651 52.2404 132.761 56.3675 132.773 56.4081C132.794 56.4844 132.784 56.5658 132.745 56.6347C132.706 56.7035 132.641 56.7542 132.565 56.7755C132.54 56.7798 132.514 56.7803 132.488 56.777Z" fill="#B2604D"/>
<path d="M123.718 50.4513C123.665 50.4515 123.612 50.4374 123.566 50.4106C123.521 50.3838 123.483 50.3452 123.457 50.2989C123.431 50.2525 123.418 50.2 123.419 50.1469C123.42 50.0937 123.435 50.0419 123.464 49.9967C123.629 49.7281 127.551 43.401 130.775 41.7107C133.954 40.0421 139.601 38.4868 139.84 38.4215C139.917 38.4005 139.999 38.411 140.068 38.4506C140.138 38.4902 140.189 38.5557 140.21 38.6328C140.231 38.7098 140.22 38.792 140.18 38.8613C140.141 38.9306 140.075 38.9814 139.998 39.0023C139.94 39.0183 134.175 40.5997 131.052 42.2436C127.974 43.8584 124.013 50.2494 123.974 50.3133C123.946 50.356 123.908 50.3911 123.863 50.4152C123.819 50.4393 123.769 50.4517 123.718 50.4513Z" fill="#B2604D"/>
<path d="M136.541 82.9118L132.657 76.486C132.4 76.0595 132.001 75.7371 131.529 75.5751C131.058 75.4132 130.545 75.422 130.08 75.6001L123.105 78.2634L130.288 74.0521C130.554 73.8962 130.758 73.6533 130.866 73.3643C130.973 73.0753 130.977 72.7581 130.878 72.4663L129.503 68.4409L132.042 71.7693C132.271 72.0702 132.583 72.2979 132.94 72.4245C133.297 72.5511 133.682 72.5712 134.05 72.4823L137.85 71.5689L134.432 73.6019C134.156 73.7662 133.946 74.0208 133.836 74.3226C133.727 74.6244 133.726 74.9547 133.832 75.2574L136.541 82.9118Z" fill="white"/>
<g opacity="0.8">
<path d="M191.878 98.9684C191.667 98.7592 191.499 98.5104 191.384 98.2363C191.27 97.9622 191.21 97.6681 191.209 97.371V91.5522C191.21 91.0409 191.108 90.5346 190.909 90.0632C190.711 89.5917 190.421 89.1645 190.056 88.8066C189.69 88.4486 189.257 88.1671 188.781 87.9785C188.306 87.7899 187.797 87.6981 187.286 87.7083L128.713 88.87C127.727 88.8892 126.782 89.2635 126.051 89.924C125.32 90.5844 124.853 91.4865 124.735 92.4642C124.735 92.4642 125.591 97.0661 124.504 98.0187C115.182 106.176 107.484 119.19 107.484 132.548C107.484 150.644 117.139 163.605 129.282 172.395C129.282 172.395 139.5 174.593 155.876 174.65C174.883 174.717 186.005 172.395 186.005 172.395C198.157 163.606 208.24 154.158 208.24 134.568C208.224 121.208 200.639 107.724 191.878 98.9684Z" fill="#FFF2E2"/>
</g>
<g opacity="0.6">
<path d="M193.927 97.6179V97.6106C193.479 97.1613 193.227 96.5532 193.225 95.9188V89.7573C193.227 89.2185 193.121 88.6848 192.914 88.1873C192.707 87.6898 192.403 87.2386 192.019 86.86C191.636 86.4814 191.18 86.1831 190.68 85.9824C190.18 85.7817 189.644 85.6827 189.105 85.6912L127.615 86.9255C126.577 86.9501 125.583 87.3489 124.815 88.0484C124.048 88.7478 123.56 89.7008 123.44 90.7317C123.44 90.7317 124.338 95.6052 123.198 96.6144C113.41 105.252 105.33 119.035 105.33 133.182C105.33 148.251 111.598 159.957 120.477 168.798C124.911 173.206 130.706 175.987 136.922 176.69C143.302 177.397 149.717 177.756 156.136 177.766C165.883 177.801 173.655 177.232 179.055 176.641C184.905 176.007 190.427 173.62 194.895 169.792C204.23 161.77 211.091 152.029 211.091 135.321C211.091 121.169 203.124 106.889 193.927 97.6179Z" fill="#A7ED7E"/>
</g>
<path d="M157.643 173.079C170.879 173.079 181.608 171.881 181.608 170.404C181.608 168.926 170.879 167.729 157.643 167.729C144.408 167.729 133.678 168.926 133.678 170.404C133.678 171.881 144.408 173.079 157.643 173.079Z" fill="#33353B"/>
<path d="M139.545 95.4107C134.393 95.4107 129.436 95.28 125.001 94.9634L125.026 94.6062C149.767 96.372 190.773 92.3263 191.185 92.2827L191.221 92.6399C190.882 92.6748 163.165 95.4107 139.545 95.4107Z" fill="#33353B"/>
<path d="M154.395 97.5541C142.778 97.5541 131.328 97.2288 125.014 96.1615L125.075 95.8071C141.116 98.5227 190.515 96.4258 191.012 96.404L191.026 96.7627C190.726 96.7757 172.364 97.5541 154.395 97.5541Z" fill="#33353B"/>
<path d="M124.729 92.6413V92.284C125.311 92.284 182.494 92.1983 190.98 90.1958L191.061 90.5458C182.535 92.5556 125.306 92.6413 124.729 92.6413Z" fill="#33353B"/>
<path d="M129.903 150.361C129.903 150.361 123.945 143.989 117.393 148.782C110.842 153.576 118.319 162.35 126.081 165.153C133.842 167.955 135.963 169.296 137.368 168.593C138.773 167.89 155.107 146.211 145.615 137.862C138.804 131.872 130.307 137.647 129.903 150.361Z" fill="#008036"/>
<path d="M143.774 141.886C143.706 141.886 143.641 141.865 143.586 141.827C143.531 141.788 143.489 141.733 143.467 141.67C142.906 140.072 141.762 139.159 140.068 138.974C139.248 138.894 138.42 138.964 137.625 139.182C137.543 139.207 137.455 139.198 137.38 139.158C137.304 139.117 137.248 139.049 137.222 138.968C137.197 138.886 137.205 138.798 137.245 138.722C137.284 138.646 137.352 138.589 137.433 138.563C137.484 138.547 142.531 137.037 144.079 141.456C144.107 141.537 144.102 141.626 144.065 141.703C144.027 141.781 143.961 141.84 143.88 141.869C143.846 141.88 143.81 141.886 143.774 141.886Z" fill="#FFF2E2"/>
<path d="M171.146 147.539C171.146 147.539 172.504 136.596 162.536 134.128C152.568 131.661 150.111 146.028 153.682 155.825C157.252 165.623 157.675 168.774 159.494 169.56C161.314 170.346 195.614 168.618 196.025 152.644C196.317 141.182 183.82 137.624 171.146 147.539Z" fill="#008036"/>
<path d="M190.93 154.267C190.858 154.267 190.787 154.248 190.725 154.211C190.662 154.175 190.61 154.123 190.575 154.06C190.539 153.997 190.521 153.926 190.521 153.854C190.522 153.781 190.542 153.711 190.579 153.648C191.682 151.803 191.635 149.958 190.441 148.165C189.854 147.306 189.115 146.561 188.261 145.966C188.169 145.908 188.105 145.815 188.082 145.709C188.06 145.602 188.08 145.491 188.139 145.4C188.198 145.309 188.291 145.245 188.397 145.222C188.503 145.199 188.614 145.219 188.706 145.278C189.656 145.933 190.476 146.758 191.125 147.712C192.488 149.761 192.543 151.96 191.285 154.068C191.248 154.129 191.196 154.179 191.134 154.214C191.072 154.249 191.002 154.267 190.93 154.267Z" fill="#FFF2E2"/>
<path d="M140.795 160.864C140.795 160.864 135.322 159.955 133.874 164.907C132.427 169.859 139.597 171.391 144.598 169.803C149.598 168.214 151.189 168.06 151.622 167.173C152.055 166.285 151.899 149.021 143.877 148.483C138.115 148.097 136.067 154.296 140.795 160.864Z" fill="#008036"/>
<path d="M140.184 152.326C140.147 152.325 140.11 152.315 140.078 152.295C140.046 152.276 140.019 152.248 140.002 152.215C139.985 152.181 139.977 152.144 139.979 152.106C139.982 152.069 139.994 152.033 140.016 152.002C140.036 151.974 141.996 149.26 144.487 150.889C144.528 150.921 144.556 150.967 144.565 151.018C144.574 151.07 144.563 151.122 144.534 151.166C144.506 151.209 144.462 151.24 144.411 151.253C144.361 151.266 144.307 151.259 144.262 151.234C143.358 150.642 142.429 150.628 141.501 151.19C141.056 151.467 140.666 151.822 140.35 152.238C140.331 152.265 140.306 152.287 140.278 152.302C140.249 152.317 140.217 152.325 140.184 152.326Z" fill="#FFF2E2"/>
<path d="M144.885 121.063C144.885 121.063 141.437 117.051 137.345 119.79C133.252 122.528 137.563 128.035 142.194 129.929C146.825 131.822 148.081 132.688 148.946 132.3C149.81 131.912 160.263 119.187 154.722 113.888C150.748 110.086 145.452 113.37 144.885 121.063Z" fill="#008036"/>
<path d="M153.513 116.28C153.47 116.28 153.428 116.266 153.394 116.239C153.36 116.213 153.336 116.176 153.326 116.135C153.026 115.153 152.361 114.575 151.345 114.418C150.846 114.347 150.339 114.368 149.848 114.481C149.798 114.494 149.744 114.486 149.699 114.46C149.654 114.434 149.621 114.391 149.608 114.34C149.594 114.29 149.602 114.236 149.628 114.191C149.654 114.146 149.697 114.113 149.748 114.1C149.778 114.1 152.875 113.304 153.701 116.021C153.708 116.046 153.711 116.072 153.708 116.098C153.706 116.123 153.698 116.148 153.686 116.171C153.674 116.194 153.658 116.214 153.638 116.231C153.618 116.247 153.595 116.259 153.57 116.267C153.552 116.274 153.533 116.278 153.513 116.28Z" fill="#FFF2E2"/>
<path d="M173.223 114.123C173.223 114.123 167.74 112.934 166.033 117.863C164.325 122.791 171.491 124.688 176.619 123.339C181.748 121.99 183.362 121.913 183.845 121.03C184.327 120.147 185.025 102.714 176.951 101.772C171.157 101.097 168.781 107.254 173.223 114.123Z" fill="#008036"/>
<path d="M173.047 105.471C173.001 105.471 172.955 105.455 172.919 105.426C172.876 105.392 172.848 105.343 172.841 105.288C172.834 105.234 172.849 105.179 172.883 105.136C172.905 105.11 175.019 102.465 177.455 104.234C177.479 104.249 177.501 104.269 177.517 104.293C177.534 104.316 177.545 104.343 177.551 104.372C177.557 104.4 177.556 104.429 177.55 104.457C177.544 104.486 177.532 104.512 177.515 104.536C177.498 104.559 177.476 104.579 177.451 104.593C177.426 104.608 177.399 104.617 177.37 104.62C177.341 104.624 177.312 104.621 177.284 104.612C177.257 104.604 177.231 104.59 177.209 104.571C176.326 103.929 175.39 103.868 174.426 104.389C173.964 104.647 173.552 104.987 173.211 105.393C173.192 105.418 173.167 105.437 173.138 105.451C173.11 105.465 173.079 105.472 173.047 105.471Z" fill="#FFF2E2"/>
<path d="M120.798 131.796C120.798 131.796 122.542 129.217 120.352 127.321C118.162 125.424 115.702 128.723 115.343 131.645C114.984 134.567 114.688 135.412 115.044 135.843C115.4 136.275 124.25 140.23 126.4 136.264C127.944 133.424 125.257 130.925 120.798 131.796Z" fill="#008036"/>
<path d="M124.966 136.039C124.946 136.039 124.927 136.034 124.91 136.025C124.892 136.015 124.878 136.001 124.867 135.984C124.859 135.971 124.854 135.957 124.851 135.942C124.849 135.928 124.849 135.912 124.853 135.898C124.856 135.883 124.862 135.869 124.871 135.857C124.88 135.844 124.891 135.834 124.904 135.826C125.144 135.689 125.338 135.482 125.457 135.232C125.576 134.982 125.617 134.702 125.572 134.429C125.535 134.137 125.445 133.855 125.305 133.597C125.296 133.584 125.289 133.569 125.286 133.553C125.283 133.537 125.284 133.521 125.287 133.506C125.291 133.49 125.297 133.475 125.307 133.462C125.316 133.449 125.328 133.438 125.342 133.43C125.356 133.422 125.371 133.417 125.387 133.416C125.403 133.414 125.419 133.415 125.435 133.42C125.45 133.425 125.464 133.433 125.476 133.443C125.488 133.453 125.498 133.466 125.505 133.481C125.514 133.497 126.443 135.132 125.027 136.021C125.009 136.033 124.988 136.039 124.966 136.039Z" fill="#FFF2E2"/>
<path d="M187.528 121.098L189.912 127.707C190.07 128.145 190.377 128.513 190.779 128.748C191.182 128.983 191.654 129.069 192.113 128.992L199 127.83L191.634 130.382C191.361 130.477 191.13 130.662 190.978 130.908C190.827 131.153 190.765 131.444 190.802 131.73L191.324 135.674L189.606 132.155C189.45 131.838 189.206 131.573 188.902 131.393C188.598 131.212 188.248 131.124 187.895 131.138L184.24 131.284L187.749 130.042C188.033 129.942 188.273 129.747 188.429 129.49C188.585 129.233 188.647 128.93 188.604 128.632L187.528 121.098Z" fill="#FFF2E2"/>
<path d="M142.565 112.302L139.238 118.49C139.018 118.9 138.948 119.375 139.042 119.831C139.136 120.288 139.388 120.696 139.753 120.986L145.222 125.325L138.401 121.55C138.149 121.41 137.856 121.362 137.572 121.413C137.288 121.465 137.031 121.612 136.843 121.831L134.255 124.861L135.726 121.23C135.859 120.902 135.893 120.543 135.826 120.196C135.758 119.848 135.591 119.528 135.345 119.274L132.802 116.653L136.073 118.433C136.337 118.576 136.643 118.623 136.938 118.567C137.233 118.511 137.5 118.355 137.693 118.125L142.565 112.302Z" fill="#FFF2E2"/>
<path d="M163.61 103.504L161.469 107.484C161.328 107.748 161.284 108.053 161.344 108.346C161.405 108.64 161.566 108.902 161.801 109.089L165.319 111.88L160.932 109.455C160.769 109.365 160.581 109.334 160.398 109.368C160.216 109.401 160.05 109.495 159.929 109.636L158.265 111.581L159.211 109.247C159.297 109.036 159.319 108.805 159.275 108.582C159.232 108.358 159.124 108.153 158.966 107.989L157.326 106.302L159.431 107.446C159.6 107.539 159.797 107.57 159.987 107.534C160.177 107.498 160.349 107.397 160.473 107.249L163.61 103.504Z" fill="#FFF2E2"/>
<path d="M129.127 101.722L126.989 105.702C126.849 105.965 126.805 106.269 126.866 106.561C126.926 106.852 127.087 107.114 127.32 107.299L130.839 110.091L126.451 107.665C126.289 107.576 126.1 107.545 125.918 107.578C125.735 107.611 125.569 107.706 125.449 107.847L123.783 109.791L124.731 107.458C124.816 107.247 124.839 107.016 124.795 106.793C124.751 106.569 124.644 106.363 124.485 106.2L122.846 104.513L124.949 105.657C125.119 105.75 125.316 105.781 125.506 105.745C125.696 105.709 125.868 105.608 125.992 105.46L129.127 101.722Z" fill="#FFF2E2"/>
<path d="M123.99 142.978L121.851 146.958C121.708 147.222 121.664 147.528 121.724 147.821C121.785 148.114 121.947 148.377 122.182 148.563L125.7 151.354L121.313 148.929C121.15 148.839 120.962 148.808 120.779 148.841C120.596 148.875 120.431 148.97 120.31 149.111L118.645 151.055L119.591 148.721C119.677 148.511 119.699 148.279 119.655 148.056C119.612 147.833 119.504 147.627 119.345 147.464L117.707 145.776L119.81 146.921C119.98 147.014 120.177 147.045 120.367 147.009C120.557 146.973 120.728 146.872 120.852 146.723L123.99 142.978Z" fill="#FFF2E2"/>
<path d="M160.612 178C150.902 178 141.588 177.419 138.4 177.146C132.936 176.676 127.945 174.42 127.896 174.399C127.826 174.364 127.773 174.304 127.747 174.231C127.721 174.158 127.724 174.078 127.756 174.007C127.788 173.937 127.847 173.881 127.919 173.853C127.991 173.824 128.071 173.825 128.143 173.854C128.192 173.877 133.092 176.089 138.45 176.552C143.781 177.011 166.285 178.324 178.995 176.342C191.406 174.407 196.896 167.613 196.95 167.544C196.973 167.511 197.003 167.484 197.038 167.463C197.072 167.442 197.111 167.428 197.151 167.422C197.191 167.416 197.232 167.419 197.271 167.43C197.31 167.44 197.347 167.458 197.379 167.484C197.41 167.509 197.437 167.54 197.456 167.575C197.476 167.611 197.487 167.65 197.491 167.691C197.495 167.731 197.491 167.771 197.478 167.81C197.466 167.849 197.446 167.884 197.419 167.915C197.362 167.986 195.988 169.707 193.03 171.69C190.311 173.514 185.686 175.902 179.088 176.931C173.936 177.736 167.183 178 160.612 178Z" fill="#33353B"/>
<path d="M122.629 171.021C122.567 171.021 122.506 171.001 122.455 170.964C116.642 166.753 111.29 157.356 111.236 157.261C111.206 157.193 111.203 157.117 111.227 157.046C111.25 156.976 111.299 156.917 111.364 156.88C111.429 156.844 111.505 156.833 111.578 156.85C111.65 156.867 111.714 156.91 111.756 156.971C111.81 157.064 117.106 166.354 122.801 170.483C122.853 170.52 122.891 170.573 122.911 170.633C122.931 170.693 122.931 170.758 122.911 170.818C122.892 170.878 122.853 170.931 122.802 170.968C122.75 171.005 122.688 171.024 122.625 171.024L122.629 171.021Z" fill="#33353B"/>
<g opacity="0.6">
<path d="M95.0546 55.7779C95.0546 55.7779 92.8472 51.5346 87.2596 52.0719C81.672 52.6092 82.3375 56.8568 79.6767 56.459C77.0159 56.0611 73.2913 56.459 72.4935 59.1179C71.6957 61.7768 68.1033 60.3145 67.9696 62.574C67.8359 64.8336 72.0938 66.4281 77.0159 64.4343C81.9379 62.4404 84.3328 65.9837 91.2501 65.3419C98.1674 64.7 99.0248 63.9028 103.12 64.3021C107.215 64.7015 107.116 61.8988 105.255 60.0386C103.393 58.1783 95.8524 58.3482 95.0546 55.7779Z" fill="white"/>
</g>
<g opacity="0.4">
<path d="M213.55 67.6597C213.55 67.6597 210.489 62.3621 204.891 63.232C199.294 64.1018 204.766 66.4907 197.426 67.6597C190.086 68.8287 188.467 71.3133 191.827 73.3028C195.187 75.2923 200.661 69.6971 206.632 72.4315C212.604 75.1659 220.592 72.8381 213.55 67.6597Z" fill="white"/>
</g>
<g opacity="0.4">
<path d="M240.933 56.2978C240.933 56.2978 238.875 52.7386 235.12 53.3238C231.365 53.909 235.035 55.5137 230.102 56.2978C225.168 57.082 224.08 58.7549 226.338 60.0924C228.596 61.4298 232.276 57.6687 236.29 59.5115C240.303 61.3543 245.666 59.7758 240.933 56.2978Z" fill="white"/>
</g>
<g opacity="0.4">
<path d="M135.346 16.883C135.346 16.883 133.29 13.3238 129.534 13.909C125.777 14.4942 129.451 16.0989 124.516 16.883C119.581 17.6672 118.488 19.3401 120.74 20.6776C122.993 22.015 126.678 18.2539 130.692 20.0967C134.706 21.9395 140.081 20.361 135.346 16.883Z" fill="white"/>
</g>
<path d="M82.8811 87.0811C82.8811 87.0811 83.6964 89.4045 80.7812 90.7594C77.8661 92.1143 79.0068 93.5882 79.764 94.4392C81.0588 95.8914 75.7095 95.3309 74.515 98.1089C72.4383 102.934 78.645 103.17 81.5994 101.969C84.5538 100.768 93.5535 97.1562 93.8965 96.1325C94.2394 95.1087 94.4051 92.502 92.7746 92.5645C89.8551 92.6821 92.6903 89.6732 90.6427 89.1591C88.5951 88.6451 82.8811 87.0811 82.8811 87.0811Z" fill="#33353B"/>
<path d="M101.335 101.935C104.145 101.259 106.926 99.1877 109.514 96.3618C110.709 95.0617 111.771 93.6461 112.685 92.136L108.059 89.3261L110.373 90.7303L108.785 89.1155C107.78 90.8392 103.533 95.2698 99.827 96.3255C97.0339 97.1213 93.1422 96.2732 91.846 96.0351L88.0967 100.373C91.0249 102.801 97.6995 102.812 101.335 101.935Z" fill="#C97E67"/>
<path d="M87.3454 166.754C87.3454 166.754 87.3905 168.559 88.6126 169.068C89.8348 169.576 93.3762 170.036 92.0538 171.198C91.2938 171.863 87.7145 171.433 86.7045 171.433C85.6946 171.433 84.7456 171.869 83.9943 171.197C83.1689 170.453 83.9943 166.753 83.9943 166.753C83.9943 166.753 84.8662 167.207 85.6495 167.189C86.7816 167.158 87.3454 166.754 87.3454 166.754Z" fill="#33353B"/>
<path d="M73.3074 166.753C73.3074 166.753 73.3524 168.558 74.5746 169.068C75.7967 169.577 79.3397 170.036 78.0158 171.197C77.2557 171.863 73.6779 171.433 72.668 171.433C71.658 171.433 70.7076 171.869 69.9577 171.197C69.1308 170.453 69.9577 166.753 69.9577 166.753C69.9577 166.753 70.8296 167.207 71.6129 167.189C72.7435 167.158 73.3074 166.753 73.3074 166.753Z" fill="#33353B"/>
<path d="M96.0007 125.921C95.6868 129.378 95.1521 133.857 94.2423 139.32C92.4985 149.784 90.4436 160.329 89.4337 165.384C89.2685 166.254 88.815 167.043 88.1461 167.624C87.4773 168.205 86.6321 168.545 85.7469 168.587L84.7776 168.626C82.8273 168.703 81.2448 167.029 81.3872 165.039L83.8359 130.838L84.1643 124.713C84.1643 124.713 96.5181 120.202 96.0007 125.921Z" fill="#02B558"/>
<path d="M74.0993 122.423C74.2069 123.865 79.1376 126.123 85.539 125.606C91.9404 125.089 96.9991 124.27 96.8915 122.829C96.784 121.389 91.551 119.873 85.1496 120.388C78.7482 120.904 73.9918 120.982 74.0993 122.423Z" fill="#33353B"/>
<path d="M91.3853 123.705L75.5119 166.33C75.2447 167.213 74.7054 167.99 73.9708 168.548C73.2363 169.107 72.344 169.42 71.4211 169.442L70.6029 169.457C68.6716 169.489 67.1966 167.705 67.5512 165.765L75.8243 123.519C75.9318 123.031 77.651 122.807 78.1393 122.767C82.1879 122.427 91.6353 121.898 91.3853 123.705Z" fill="#02B558"/>
<path d="M81.8014 99.1225C81.8014 99.1225 84.7224 94.5786 90.9479 96.2689C93.8907 97.0676 97.5339 96.9602 97.7867 102.522C98.0149 107.516 98.4567 113.338 96.8916 122.828C96.8916 122.828 86.8295 118.907 74.0994 122.421C74.1415 121.877 74.7649 107.789 77.7615 100.19C78.6232 98.0057 80.8248 100.575 81.8014 99.1225Z" fill="#FFF2E2"/>
<path d="M73.2041 100.843L80.0793 103.915C80.0793 103.915 96.2433 105.707 97.8724 102.992C99.5814 100.145 98.3767 96.2122 98.3767 96.2122C98.3767 96.2122 92.821 95.8928 88.6154 95.7476C87.6563 95.7156 85.8645 95.7911 84.9214 95.8056C76.2718 95.945 73.2041 100.843 73.2041 100.843Z" fill="#FFF2E2"/>
<path d="M82.6166 147.577L82.3943 147.525L85.7367 133.234C86.3997 131.193 87.7981 129.47 89.6604 128.401L89.7737 128.599C87.9657 129.639 86.6081 131.312 85.9634 133.295L82.6166 147.577Z" fill="#33353B"/>
<path d="M73.0167 101.215C72.8714 101.985 74.1052 103.586 76.9404 104.002C79.7756 104.417 80.8016 103.479 80.8902 102.404C80.9585 101.6 79.7436 100.261 77.0654 99.9037C74.3013 99.5406 73.117 100.668 73.0167 101.215Z" fill="#33353B"/>
<path d="M78.3776 122.745C78.3776 122.745 87.0663 121.306 95.5618 123.18C95.7502 123.222 95.917 123.33 96.0308 123.486C96.1445 123.642 96.1974 123.834 96.1794 124.026L95.8786 127.194L86.9879 124.984L78.3776 122.745Z" fill="#02B558"/>
<path d="M84.917 95.8114C86.0796 96.931 87.9571 97.7791 89.4408 97.3478C90.7255 96.9746 90.2634 95.7751 90.2634 95.7751C89.6893 95.8157 88.938 94.3229 88.8363 93.7653L88.7113 93.0711L88.6503 92.727L88.4527 91.6277L88.2754 90.6402L87.5488 86.5886L86.8803 90.8449L86.7655 91.571L86.3702 94.0688C86.3075 94.4603 86.1415 94.8281 85.8894 95.1344C85.6374 95.4406 85.3082 95.6743 84.9359 95.8114H84.917Z" fill="#C97E67"/>
<path d="M86.7583 91.5712C86.7583 91.5712 87.5605 92.7126 88.6475 92.7329L88.5414 91.4478C87.8584 91.3737 86.7583 91.5712 86.7583 91.5712Z" fill="#33353B"/>
<path d="M82.8811 87.0811C82.8811 87.0811 83.2008 87.6939 83.1717 89.1272C83.1209 91.2256 85.5681 91.4724 85.9997 90.7681C86.052 90.681 85.1089 87.3744 85.1089 87.3744L84.2849 87.1319L82.8811 87.0811Z" fill="#33353B"/>
<path d="M89.064 91.7941C91.1296 91.268 92.2775 88.7769 91.6279 86.2302C90.9782 83.6834 88.7771 82.0454 86.7115 82.5715C84.6458 83.0976 83.4979 85.5887 84.1476 88.1355C84.7972 90.6823 86.9983 92.3203 89.064 91.7941Z" fill="#C97E67"/>
<path d="M88.4688 83.2618C88.4004 83.4303 89.595 85.6521 85.3414 87.3395C81.0879 89.027 82.3696 83.0208 85.5841 82.074C90.2257 80.706 91.7109 83.6801 91.5496 84.9289C91.3883 86.1778 88.4688 83.2618 88.4688 83.2618Z" fill="#33353B"/>
<path d="M85.6334 86.4609C85.6334 86.4609 84.3255 88.812 85.4358 90.588C85.4358 90.588 84.1032 89.7167 83.9724 89.297C83.8416 88.8773 83.7268 87.2727 83.7268 87.2727L85.6334 86.4609Z" fill="#33353B"/>
<path d="M84.8269 88.7002C85.3544 88.9906 85.9575 88.8875 86.174 88.4548C86.3906 88.022 86.1406 87.4382 85.6131 87.1376C85.0856 86.837 84.4839 86.9503 84.266 87.3816C84.048 87.8129 84.3008 88.4039 84.8269 88.7002Z" fill="#C97E67"/>
<path d="M88.2638 87.1318C88.2797 87.1226 88.2923 87.1086 88.2998 87.0919C88.3074 87.0751 88.3096 87.0565 88.306 87.0384C88.3025 87.0204 88.2935 87.0039 88.2802 86.9913C88.2669 86.9786 88.25 86.9704 88.2319 86.9677C88.0249 86.928 87.8105 86.9581 87.6225 87.0532C87.4344 87.1484 87.2833 87.3032 87.1928 87.4934C87.1817 87.5139 87.1789 87.5379 87.1852 87.5604C87.1914 87.5829 87.2061 87.6021 87.2262 87.6139C87.2473 87.623 87.2708 87.6245 87.2928 87.6181C87.3148 87.6118 87.3339 87.598 87.3469 87.5791C87.5782 87.343 87.8812 87.1898 88.2086 87.1434C88.2278 87.1457 88.2472 87.1416 88.2638 87.1318Z" fill="#33353B"/>
<path d="M87.8278 88.2312C87.8743 88.4359 88.0313 88.5753 88.1795 88.5419C88.3277 88.5085 88.412 88.3169 88.3655 88.1063C88.319 87.8957 88.1635 87.7636 88.0153 87.7955C87.867 87.8275 87.7828 88.0322 87.8278 88.2312Z" fill="#33353B"/>
<path d="M91.4128 86.8008C91.4312 86.7988 91.4486 86.7911 91.4623 86.7786C91.476 86.7662 91.4853 86.7498 91.4891 86.7316C91.4928 86.7135 91.4906 86.6947 91.483 86.6779C91.4753 86.6611 91.4624 86.6472 91.4463 86.6381C91.27 86.5219 91.0601 86.4677 90.8496 86.484C90.639 86.5003 90.44 86.5862 90.2837 86.7282C90.2659 86.7429 90.2544 86.764 90.2517 86.787C90.249 86.8099 90.2553 86.8331 90.2692 86.8516C90.2845 86.8685 90.3055 86.8794 90.3282 86.882C90.3509 86.8847 90.3738 86.879 90.3927 86.8661C90.6973 86.7358 91.0364 86.7093 91.3576 86.7906C91.3745 86.7998 91.3938 86.8033 91.4128 86.8008Z" fill="#33353B"/>
<path d="M90.5904 87.6574C90.554 87.8636 90.6456 88.0524 90.7953 88.0785C90.9449 88.1047 91.0961 87.958 91.1324 87.7518C91.1687 87.5456 91.0757 87.3583 90.926 87.3321C90.7764 87.306 90.6252 87.4512 90.5904 87.6574Z" fill="#33353B"/>
<g opacity="0.3">
<path d="M86.1101 87.4702C86.0477 88.6508 86.6725 89.7937 87.5067 90.0362C88.3408 90.2787 89.066 89.5062 89.1285 88.3241C89.1909 87.142 88.5661 86.0006 87.7334 85.7581C86.9007 85.5156 86.1726 86.2896 86.1101 87.4702Z" fill="white"/>
</g>
<g opacity="0.3">
<path d="M90.0164 87.2001C90.0847 88.3618 90.743 89.4466 91.4958 89.6296C92.2485 89.8125 92.7949 89.0211 92.7266 87.8623C92.6583 86.7034 92 85.6158 91.2473 85.4328C90.4945 85.2498 89.9481 86.0413 90.0164 87.2001Z" fill="white"/>
</g>
<path d="M86.1058 88.3096C86.1203 88.3691 86.1378 88.4272 86.1567 88.4838C86.3052 89.0053 86.6131 89.4673 87.0373 89.8053C87.1875 89.9185 87.3576 90.0027 87.5387 90.0536C87.7453 90.1124 87.9642 90.1124 88.1708 90.0536C88.3194 90.0132 88.4596 89.9468 88.585 89.8576C88.9272 89.5923 89.1679 89.2175 89.2665 88.796C89.3206 88.5977 89.3537 88.3943 89.3654 88.189C89.3786 87.9688 89.3684 87.7478 89.3349 87.5298C89.3231 87.4383 89.3061 87.3477 89.284 87.2582C89.1009 86.4668 88.6388 85.7944 88.056 85.5243C87.9849 85.4906 87.911 85.4629 87.8351 85.4415C87.658 85.39 87.4713 85.3803 87.2898 85.413C87.1082 85.4458 86.9367 85.5201 86.7888 85.6303C86.3921 85.9207 86.1247 86.4159 86.0346 87.0302C86.0215 87.1188 86.0143 87.2074 86.0084 87.2989C86.0084 87.3526 86.0084 87.4078 86.0084 87.4615C86.0064 87.6179 86.0161 87.7742 86.0375 87.9291C86.0533 88.0571 86.0761 88.1841 86.1058 88.3096ZM88.8364 89.3958C88.7455 89.5314 88.6314 89.6499 88.4993 89.7458C88.3928 89.8248 88.2726 89.8834 88.1447 89.9186C87.9591 89.9686 87.7635 89.9686 87.5779 89.9186C87.39 89.865 87.2153 89.7731 87.0649 89.6485C86.6461 89.2861 86.3569 88.7972 86.241 88.2558C86.2206 88.1673 86.2032 88.0758 86.1872 87.9843C86.1712 87.8928 86.1639 87.81 86.1581 87.7214C86.1487 87.5885 86.1487 87.455 86.1581 87.3221C86.1648 87.2016 86.1799 87.0818 86.2032 86.9634C86.2132 86.8986 86.2278 86.8345 86.2468 86.7717C86.2461 86.7684 86.2461 86.7649 86.2468 86.7616C86.2468 86.7616 86.2468 86.7485 86.2468 86.7412C86.278 86.6236 86.3193 86.509 86.3703 86.3985C86.4813 86.1453 86.6572 85.9258 86.8804 85.7625C87.011 85.6657 87.1622 85.6003 87.3223 85.5714C87.4823 85.5424 87.6468 85.5506 87.8032 85.5955C87.8601 85.6103 87.9155 85.6302 87.9688 85.655C88.5341 85.8961 88.9861 86.5481 89.1547 87.3192C89.175 87.4092 89.1924 87.5007 89.2041 87.5951C89.2308 87.7933 89.2386 87.9937 89.2273 88.1934C89.2171 88.3899 89.1854 88.5847 89.1329 88.7743C89.0716 88.9976 88.9733 89.2092 88.8422 89.4002L88.8364 89.3958Z" fill="#33353B"/>
<path d="M89.6822 90.3528C89.3987 90.3518 89.1225 90.263 88.8917 90.0986C88.8868 90.0953 88.8826 90.091 88.8794 90.086C88.8762 90.081 88.8741 90.0754 88.8731 90.0696C88.8722 90.0638 88.8724 90.0578 88.8739 90.052C88.8753 90.0463 88.8779 90.0409 88.8815 90.0362C88.8885 90.0267 88.8988 90.0202 88.9104 90.0181C88.922 90.0159 88.934 90.0182 88.944 90.0246C89.8043 90.6185 90.6689 89.9113 90.6777 89.9041C90.682 89.8996 90.6873 89.896 90.6931 89.8936C90.6989 89.8913 90.7052 89.8902 90.7115 89.8904C90.7177 89.8906 90.7239 89.8921 90.7295 89.8948C90.7352 89.8976 90.7402 89.9014 90.7443 89.9062C90.7484 89.911 90.7514 89.9166 90.7532 89.9226C90.755 89.9286 90.7555 89.9349 90.7547 89.9411C90.7539 89.9474 90.7518 89.9534 90.7485 89.9587C90.7453 89.9641 90.7409 89.9687 90.7358 89.9723C90.4332 90.2064 90.0646 90.3394 89.6822 90.3528Z" fill="#33353B"/>
<path d="M88.8581 90.2859C88.8471 90.2864 88.8362 90.2825 88.8278 90.2752C88.8195 90.268 88.8142 90.2578 88.8131 90.2467C88.8073 90.0997 88.8553 89.9557 88.9482 89.8416C88.9546 89.8306 88.965 89.8226 88.9772 89.8191C88.9893 89.8156 89.0024 89.8168 89.0136 89.8227C89.0187 89.8253 89.0231 89.8289 89.0268 89.8332C89.0304 89.8376 89.0331 89.8426 89.0347 89.848C89.0363 89.8535 89.0369 89.8591 89.0362 89.8648C89.0356 89.8704 89.0339 89.8758 89.0311 89.8808V89.8924C88.9499 89.9878 88.9069 90.1099 88.9105 90.2351C88.9113 90.241 88.9109 90.247 88.9094 90.2528C88.9078 90.2586 88.9052 90.264 88.9015 90.2687C88.8978 90.2735 88.8933 90.2774 88.8881 90.2804C88.8829 90.2833 88.8772 90.2852 88.8712 90.2859H88.8581Z" fill="#33353B"/>
<path d="M79.5299 94.1398C79.2393 94.0774 78.6289 93.0841 78.6115 92.1257C78.5984 91.4286 78.8876 90.5283 80.3307 90.1493C83.0322 89.4537 82.9188 87.2246 82.913 87.1302L83.1572 87.1143C83.1572 87.1389 83.3025 89.6396 80.3961 90.386C79.4166 90.6387 78.9007 91.1774 78.8629 91.9834C78.8193 92.8968 79.4268 93.8378 79.5895 93.8959L79.5299 94.1398Z" fill="#33353B"/>
<path d="M90.1196 87.8607C90.1351 87.9237 90.1525 87.9847 90.1719 88.0437C90.1894 88.1033 90.2111 88.1628 90.2329 88.2194C90.2547 88.2761 90.262 88.2993 90.278 88.3356C90.278 88.3356 90.278 88.3472 90.278 88.3516C90.2911 88.3835 90.3041 88.4155 90.3201 88.4474C90.2023 88.1475 90.1265 87.8328 90.0949 87.5122L90.0411 87.4948C90.0498 87.5572 90.06 87.6182 90.0716 87.6792C90.0833 87.7402 90.1051 87.8027 90.1196 87.8607ZM90.1196 87.8607C90.1351 87.9237 90.1525 87.9847 90.1719 88.0437C90.1894 88.1033 90.2111 88.1628 90.2329 88.2194C90.2547 88.2761 90.262 88.2993 90.278 88.3356C90.278 88.3356 90.278 88.3472 90.278 88.3516C90.2911 88.3835 90.3041 88.4155 90.3201 88.4474C90.2023 88.1475 90.1265 87.8328 90.0949 87.5122L90.0411 87.4948C90.0498 87.5572 90.06 87.6182 90.0716 87.6792C90.0833 87.7402 90.1051 87.8027 90.1196 87.8607ZM90.1196 87.8607C90.1351 87.9237 90.1525 87.9847 90.1719 88.0437C90.1894 88.1033 90.2111 88.1628 90.2329 88.2194C90.2547 88.2761 90.262 88.2993 90.278 88.3356C90.278 88.3356 90.278 88.3472 90.278 88.3516C90.2911 88.3835 90.3041 88.4155 90.3201 88.4474C90.2023 88.1475 90.1265 87.8328 90.0949 87.5122L90.0411 87.4948C90.0498 87.5572 90.06 87.6182 90.0716 87.6792C90.0833 87.7402 90.1051 87.8027 90.1196 87.8607ZM90.1196 87.8607C90.1351 87.9237 90.1525 87.9847 90.1719 88.0437C90.1894 88.1033 90.2111 88.1628 90.2329 88.2194C90.2547 88.2761 90.262 88.2993 90.278 88.3356C90.278 88.3356 90.278 88.3472 90.278 88.3516C90.2911 88.3835 90.3041 88.4155 90.3201 88.4474C90.2023 88.1475 90.1265 87.8328 90.0949 87.5122L90.0411 87.4948C90.0498 87.5572 90.06 87.6182 90.0716 87.6792C90.0833 87.7402 90.1051 87.8027 90.1196 87.8607ZM90.1196 87.8607C90.1351 87.9237 90.1525 87.9847 90.1719 88.0437C90.1894 88.1033 90.2111 88.1628 90.2329 88.2194C90.2547 88.2761 90.262 88.2993 90.278 88.3356C90.278 88.3356 90.278 88.3472 90.278 88.3516C90.2911 88.3835 90.3041 88.4155 90.3201 88.4474C90.2023 88.1475 90.1265 87.8328 90.0949 87.5122L90.0411 87.4948C90.0498 87.5572 90.06 87.6182 90.0716 87.6792C90.0833 87.7402 90.1051 87.8027 90.1196 87.8607ZM90.1196 87.8607C90.1351 87.9237 90.1525 87.9847 90.1719 88.0437C90.1894 88.1033 90.2111 88.1628 90.2329 88.2194C90.2547 88.2761 90.262 88.2993 90.278 88.3356C90.278 88.3356 90.278 88.3472 90.278 88.3516C90.2911 88.3835 90.3041 88.4155 90.3201 88.4474C90.2023 88.1475 90.1265 87.8328 90.0949 87.5122L90.0411 87.4948C90.0498 87.5572 90.06 87.6182 90.0716 87.6792C90.0833 87.7402 90.1051 87.8027 90.1196 87.8607ZM90.1196 87.8607C90.1351 87.9237 90.1525 87.9847 90.1719 88.0437C90.1894 88.1033 90.2111 88.1628 90.2329 88.2194C90.2547 88.2761 90.262 88.2993 90.278 88.3356C90.278 88.3356 90.278 88.3472 90.278 88.3516C90.2911 88.3835 90.3041 88.4155 90.3201 88.4474C90.2023 88.1475 90.1265 87.8328 90.0949 87.5122L90.0411 87.4948C90.0498 87.5572 90.06 87.6182 90.0716 87.6792C90.0833 87.7402 90.1051 87.8027 90.1196 87.8607ZM90.1196 87.8607C90.1351 87.9237 90.1525 87.9847 90.1719 88.0437C90.1894 88.1033 90.2111 88.1628 90.2329 88.2194C90.2547 88.2761 90.262 88.2993 90.278 88.3356C90.278 88.3356 90.278 88.3472 90.278 88.3516C90.2911 88.3835 90.3041 88.4155 90.3201 88.4474C90.2023 88.1475 90.1265 87.8328 90.0949 87.5122L90.0411 87.4948C90.0498 87.5572 90.06 87.6182 90.0716 87.6792C90.0833 87.7402 90.1051 87.8027 90.1196 87.8607ZM90.0513 88.0626C90.145 88.4484 90.3128 88.8124 90.5454 89.1343C90.7327 89.4077 91.0049 89.6119 91.32 89.7152L91.3737 89.7297C91.517 89.7643 91.6664 89.7643 91.8097 89.7297C91.9338 89.6976 92.0504 89.6414 92.1526 89.5642C92.5755 89.2534 92.8415 88.613 92.8647 87.8491C92.9025 86.6046 92.2834 85.4095 91.4827 85.1829L91.4318 85.1699C91.3656 85.1542 91.2979 85.1455 91.2299 85.1437C91.1375 85.1419 91.0453 85.1542 90.9566 85.18C90.844 85.2145 90.7379 85.2675 90.6428 85.3369C90.2213 85.6476 89.9539 86.2895 89.9321 87.0519C89.9321 87.1013 89.9321 87.1521 89.9321 87.1971C89.9321 87.2886 89.9321 87.3801 89.9481 87.4716C89.9647 87.6713 89.9993 87.8691 90.0513 88.0626ZM90.3274 88.4518C90.2096 88.1519 90.1338 87.8372 90.1022 87.5166C90.092 87.4193 90.0862 87.3234 90.0833 87.2261C90.0833 87.171 90.0833 87.1143 90.0833 87.0577C90.0887 86.7277 90.1526 86.4012 90.2722 86.0935C90.3613 85.8525 90.5115 85.6388 90.7081 85.4734L90.7285 85.456C90.8152 85.3894 90.9138 85.3401 91.0191 85.3107C91.1097 85.2877 91.2038 85.2813 91.2967 85.2919C91.3458 85.2974 91.3943 85.3066 91.442 85.3194C92.1803 85.53 92.7499 86.6612 92.7194 87.8419V87.8607C92.6918 88.5665 92.4491 89.1503 92.0669 89.4305C91.9778 89.4986 91.8751 89.5467 91.7659 89.5718C91.6566 89.5968 91.5432 89.5982 91.4333 89.5758C91.4067 89.5722 91.3804 89.5664 91.3548 89.5583C91.3324 89.5531 91.3105 89.5458 91.2894 89.5366L91.2705 89.5293C91.0849 89.4547 90.9196 89.3373 90.7881 89.1866C90.5994 88.9761 90.4489 88.7343 90.3434 88.4721C90.3386 88.465 90.3332 88.4582 90.3274 88.4518ZM90.1196 87.8607C90.1351 87.9237 90.1525 87.9847 90.1719 88.0437C90.1894 88.1033 90.2111 88.1628 90.2329 88.2194C90.2547 88.2761 90.262 88.2993 90.278 88.3356C90.278 88.3356 90.278 88.3472 90.278 88.3516C90.2911 88.3835 90.3041 88.4155 90.3201 88.4474C90.2023 88.1475 90.1265 87.8328 90.0949 87.5122L90.0411 87.4948C90.0498 87.5572 90.06 87.6182 90.0716 87.6792C90.0833 87.7402 90.1051 87.8027 90.1196 87.8607ZM90.1196 87.8607C90.1351 87.9237 90.1525 87.9847 90.1719 88.0437C90.1894 88.1033 90.2111 88.1628 90.2329 88.2194C90.2547 88.2761 90.262 88.2993 90.278 88.3356C90.278 88.3356 90.278 88.3472 90.278 88.3516C90.2911 88.3835 90.3041 88.4155 90.3201 88.4474C90.2023 88.1475 90.1265 87.8328 90.0949 87.5122L90.0411 87.4948C90.0498 87.5572 90.06 87.6182 90.0716 87.6792C90.0833 87.7402 90.1051 87.8027 90.1196 87.8607ZM90.1196 87.8607C90.1351 87.9237 90.1525 87.9847 90.1719 88.0437C90.1894 88.1033 90.2111 88.1628 90.2329 88.2194C90.2547 88.2761 90.262 88.2993 90.278 88.3356C90.278 88.3356 90.278 88.3472 90.278 88.3516C90.2911 88.3835 90.3041 88.4155 90.3201 88.4474C90.2023 88.1475 90.1265 87.8328 90.0949 87.5122L90.0411 87.4948C90.0498 87.5572 90.06 87.6182 90.0716 87.6792C90.0833 87.7402 90.1051 87.8027 90.1196 87.8607ZM90.1196 87.8607C90.1351 87.9237 90.1525 87.9847 90.1719 88.0437C90.1894 88.1033 90.2111 88.1628 90.2329 88.2194C90.2547 88.2761 90.262 88.2993 90.278 88.3356C90.278 88.3356 90.278 88.3472 90.278 88.3516C90.2911 88.3835 90.3041 88.4155 90.3201 88.4474C90.2023 88.1475 90.1265 87.8328 90.0949 87.5122L90.0411 87.4948C90.0498 87.5572 90.06 87.6182 90.0716 87.6792C90.0833 87.7402 90.1051 87.8027 90.1196 87.8607ZM90.1196 87.8607C90.1351 87.9237 90.1525 87.9847 90.1719 88.0437C90.1894 88.1033 90.2111 88.1628 90.2329 88.2194C90.2547 88.2761 90.262 88.2993 90.278 88.3356C90.278 88.3356 90.278 88.3472 90.278 88.3516C90.2911 88.3835 90.3041 88.4155 90.3201 88.4474C90.2023 88.1475 90.1265 87.8328 90.0949 87.5122L90.0411 87.4948C90.0498 87.5572 90.06 87.6182 90.0716 87.6792C90.0833 87.7402 90.1051 87.8027 90.1196 87.8607ZM90.1196 87.8607C90.1351 87.9237 90.1525 87.9847 90.1719 88.0437C90.1894 88.1033 90.2111 88.1628 90.2329 88.2194C90.2547 88.2761 90.262 88.2993 90.278 88.3356C90.278 88.3356 90.278 88.3472 90.278 88.3516C90.2911 88.3835 90.3041 88.4155 90.3201 88.4474C90.2023 88.1475 90.1265 87.8328 90.0949 87.5122L90.0411 87.4948C90.0498 87.5572 90.06 87.6182 90.0716 87.6792C90.0833 87.7402 90.1051 87.8027 90.1196 87.8607ZM90.1196 87.8607C90.1351 87.9237 90.1525 87.9847 90.1719 88.0437C90.1894 88.1033 90.2111 88.1628 90.2329 88.2194C90.2547 88.2761 90.262 88.2993 90.278 88.3356C90.278 88.3356 90.278 88.3472 90.278 88.3516C90.2911 88.3835 90.3041 88.4155 90.3201 88.4474C90.2023 88.1475 90.1265 87.8328 90.0949 87.5122L90.0411 87.4948C90.0498 87.5572 90.06 87.6182 90.0716 87.6792C90.0833 87.7402 90.1051 87.8027 90.1196 87.8607Z" fill="#33353B"/>
<path d="M90.1995 87.5268C90.2272 87.5203 90.252 87.5051 90.2706 87.4836C90.2892 87.4621 90.3004 87.4352 90.3029 87.4069C90.3053 87.3786 90.2987 87.3503 90.284 87.3259C90.2694 87.3015 90.2474 87.2824 90.2213 87.2713C90.0219 87.2016 89.81 87.1755 89.5997 87.1945C89.3894 87.2135 89.1856 87.2773 89.002 87.3816C88.9728 87.3996 88.9514 87.4279 88.9421 87.4609C88.9328 87.4939 88.9363 87.5292 88.9519 87.5598C88.9674 87.5904 88.994 87.614 89.0261 87.6259C89.0583 87.6378 89.0938 87.6372 89.1256 87.6241C89.2734 87.5389 89.4374 87.4856 89.6071 87.4676C89.7768 87.4496 89.9484 87.4673 90.1108 87.5196C90.1387 87.5319 90.17 87.5345 90.1995 87.5268Z" fill="#33353B"/>
<path d="M91.9317 109.004C89.6167 110.082 85.8108 110.809 84.4287 110.088C81.8551 108.743 81.4933 105.57 80.9541 103.069C80.6795 101.788 79.9746 100.993 78.2192 100.882C77.4926 100.836 76.298 100.569 74.7838 101.213C74.0572 101.526 74.0572 102.311 74.1531 102.973C74.2984 104.009 74.374 105.478 74.932 107.266C76.2588 111.514 76.8706 113.365 79.793 115.349C83.381 117.784 90.1384 116.994 94.8933 113.115C95.3932 112.707 92.4752 108.752 91.9317 109.004Z" fill="#C97E67"/>
<g opacity="0.5">
<path d="M82.092 114.568C81.7258 114.559 81.3684 114.453 81.0559 114.263C80.2769 113.802 79.9035 113.02 80.2057 112.481C80.2653 112.379 80.3448 112.291 80.4395 112.221C80.5342 112.151 80.642 112.101 80.7565 112.074C81.1619 111.965 81.6807 112.064 82.1429 112.337C82.9218 112.797 83.2938 113.579 82.9915 114.119C82.9322 114.22 82.8527 114.309 82.758 114.378C82.6633 114.448 82.5554 114.498 82.4408 114.524C82.3269 114.554 82.2097 114.568 82.092 114.568ZM81.1082 112.327C81.0155 112.326 80.9231 112.338 80.8335 112.362C80.7574 112.379 80.6855 112.411 80.6221 112.456C80.5586 112.502 80.505 112.56 80.4644 112.626C80.2493 113.009 80.5894 113.643 81.207 114.007C81.6008 114.239 82.0339 114.327 82.3696 114.237C82.4456 114.22 82.5174 114.188 82.5808 114.143C82.6442 114.097 82.6979 114.04 82.7387 113.974C82.9538 113.589 82.6137 112.957 81.9975 112.593C81.7297 112.427 81.4229 112.336 81.1082 112.327Z" fill="#B2604D"/>
</g>
<path d="M94.1988 113.261C94.1988 113.261 99.2385 113.213 100.464 112.051C101.689 110.889 102.295 108.366 101.462 109.038C100.629 109.71 100.076 110.81 100.076 110.81C100.076 110.81 101.305 108.291 100.802 108.097C100.076 107.815 98.9246 110.088 98.9246 110.088C98.9246 110.088 100.491 106.963 99.7239 106.976C98.9566 106.989 97.7824 109.308 97.7824 109.308C97.7824 109.308 99.224 106.421 98.3317 106.457C97.4395 106.494 96.8088 108.79 96.0676 108.564C95.3265 108.339 92.9011 108.371 92.2529 109.145L94.1988 113.261Z" fill="#C97E67"/>
<path d="M99.0873 111.634V111.509C99.577 111.489 100.022 110.783 100.026 110.783L100.132 110.85C100.105 110.873 99.6453 111.611 99.0873 111.634Z" fill="#B2604D"/>
<path d="M97.8013 111.058L97.7722 110.937C98.4828 110.764 98.9086 110.066 98.913 110.056L99.0205 110.12C99.0016 110.15 98.5642 110.872 97.8013 111.058Z" fill="#B2604D"/>
<path d="M96.7622 110.185H96.7361V110.06C97.2534 110.086 97.7839 109.244 97.7897 109.235L97.8958 109.301C97.8711 109.337 97.3435 110.185 96.7622 110.185Z" fill="#B2604D"/>
<path d="M91.6222 109.234C91.7196 109.2 94.6303 106.457 95.3526 106.457C96.0748 106.457 94.2976 109.696 94.2976 109.696L91.6222 109.234Z" fill="#C97E67"/>
<path d="M111.047 93.1685C111.047 93.1685 116.087 93.122 117.312 91.9589C118.537 90.7957 119.143 88.2732 118.31 88.9456C117.478 89.618 116.924 90.7172 116.924 90.7172C116.924 90.7172 118.154 88.2006 117.651 88.0046C116.924 87.7229 115.773 89.9955 115.773 89.9955C115.773 89.9955 117.34 86.8704 116.572 86.8835C115.805 86.8966 114.631 89.2157 114.631 89.2157C114.631 89.2157 116.073 86.3288 115.18 86.3651C114.288 86.4014 113.657 88.6987 112.918 88.4736C112.178 88.2486 109.75 88.2791 109.103 89.0545L111.047 93.1685Z" fill="#C97E67"/>
<path d="M108.58 89.4392C109.016 88.5824 111.486 86.3577 112.201 86.3577C112.916 86.3577 110.478 90.8972 110.478 90.8972L108.58 89.4392Z" fill="#C97E67"/>
<path d="M111.554 89.5481C111.328 88.9121 111.729 88.292 111.746 88.2659L111.851 88.3356C111.851 88.3356 111.467 88.9295 111.672 89.506L111.554 89.5481Z" fill="#B2604D"/>
<path d="M116.033 91.0802C115.883 91.079 115.733 91.0669 115.584 91.0439L115.603 90.9205C116.607 91.0657 116.869 90.6809 116.872 90.6765L116.976 90.7433C116.962 90.7593 116.753 91.0802 116.033 91.0802Z" fill="#B2604D"/>
<path d="M114.881 90.1349C114.682 90.1331 114.483 90.1088 114.289 90.0623L114.319 89.9404C115.741 90.2671 116.087 89.3261 116.09 89.3159L116.208 89.3566C116.205 89.3667 115.923 90.1349 114.881 90.1349Z" fill="#B2604D"/>
<path d="M113.961 89.3405C113.791 89.3384 113.622 89.3204 113.455 89.2868L113.478 89.1634C113.962 89.2578 114.34 89.22 114.571 89.0545C114.688 88.9767 114.769 88.8562 114.798 88.719L114.921 88.735C114.889 88.9048 114.791 89.055 114.648 89.1532C114.445 89.2868 114.204 89.3524 113.961 89.3405Z" fill="#B2604D"/>
<path d="M236.987 148.512C236.975 148.512 236.962 148.509 236.952 148.503C236.941 148.498 236.931 148.489 236.925 148.479L234.599 145.149C234.59 145.133 234.588 145.113 234.592 145.095C234.596 145.077 234.607 145.061 234.622 145.05C234.638 145.04 234.657 145.035 234.675 145.037C234.694 145.04 234.711 145.049 234.723 145.063L237.041 148.393C237.047 148.401 237.051 148.41 237.053 148.42C237.055 148.43 237.055 148.44 237.053 148.449C237.052 148.459 237.048 148.468 237.043 148.477C237.037 148.485 237.03 148.492 237.022 148.498C237.012 148.506 237 148.511 236.987 148.512Z" fill="#33353B"/>
<path d="M239.177 149.189C239.165 149.189 239.153 149.186 239.142 149.18C239.131 149.175 239.122 149.167 239.115 149.157L236.24 145.156C236.234 145.148 236.23 145.139 236.228 145.129C236.226 145.119 236.225 145.109 236.227 145.1C236.228 145.09 236.232 145.08 236.237 145.072C236.243 145.063 236.249 145.056 236.258 145.05C236.266 145.044 236.275 145.04 236.285 145.038C236.294 145.036 236.304 145.035 236.314 145.037C236.324 145.039 236.333 145.042 236.342 145.047C236.35 145.053 236.358 145.059 236.364 145.068L239.232 149.074C239.244 149.091 239.248 149.111 239.245 149.131C239.242 149.15 239.231 149.168 239.215 149.18C239.203 149.186 239.19 149.189 239.177 149.189Z" fill="#33353B"/>
<path d="M235.067 147.915C235.055 147.915 235.044 147.912 235.033 147.907C235.022 147.901 235.013 147.893 235.006 147.884C235 147.876 234.996 147.867 234.993 147.857C234.991 147.847 234.99 147.837 234.992 147.827C234.993 147.817 234.997 147.808 235.002 147.799C235.007 147.791 235.014 147.783 235.022 147.778C236.965 146.341 237.999 145.614 238.094 145.614C238.105 145.614 238.114 145.615 238.124 145.619C238.133 145.623 238.142 145.628 238.149 145.635C238.156 145.642 238.162 145.651 238.166 145.66C238.169 145.669 238.171 145.679 238.171 145.689C238.171 145.707 238.165 145.724 238.153 145.738C238.141 145.752 238.125 145.761 238.108 145.763C237.94 145.83 236.229 147.07 235.112 147.9C235.099 147.909 235.084 147.915 235.067 147.915Z" fill="#33353B"/>
<path d="M235.067 149.349C235.052 149.349 235.036 149.344 235.023 149.335C235.01 149.326 235 149.313 234.995 149.298C234.989 149.283 234.989 149.267 234.993 149.252C234.998 149.237 235.007 149.223 235.019 149.214C238.25 146.591 238.362 146.662 238.416 146.701C238.424 146.707 238.431 146.714 238.437 146.722C238.442 146.73 238.446 146.739 238.448 146.749C238.45 146.759 238.45 146.769 238.448 146.779C238.447 146.788 238.443 146.798 238.437 146.806C238.43 146.818 238.419 146.827 238.407 146.833C238.394 146.839 238.38 146.841 238.366 146.839C238.137 146.918 236.259 148.402 235.114 149.331C235.101 149.342 235.085 149.349 235.067 149.349Z" fill="#33353B"/>
</g>
<defs>
<clipPath id="clip0_595_3569">
<rect width="330" height="178" fill="white"/>
</clipPath>
</defs>
</svg>
