<svg width="34" height="35" viewBox="0 0 34 35" fill="none" xmlns="http://www.w3.org/2000/svg">
<g clip-path="url(#clip0_238_132)">
<path d="M26.2444 3.07129C26.1683 2.91873 26.0923 2.76709 26.0181 2.61453C25.7736 2.113 25.9265 1.64254 26.4202 1.38309C27.2324 0.956781 28.0449 0.528308 28.8576 0.0977314C28.9046 0.068143 28.9496 0.0355054 28.9923 0H29.4723C29.9092 0.195495 30.0997 0.598343 30.3076 0.986592C31.237 2.72839 32.1677 4.46959 33.0995 6.21016C33.1783 6.35815 33.2827 6.49152 33.3743 6.63129C33.3761 6.82015 33.3258 7.00587 33.2289 7.16812C33.1319 7.33037 32.9921 7.46293 32.8247 7.55124C31.993 8.02262 31.143 8.45925 30.2893 8.88861C29.9064 9.08136 29.5657 8.89866 29.2396 8.7059C28.9648 8.48757 28.8805 8.15049 28.6992 7.87369C28.6277 7.7471 28.5629 7.6169 28.505 7.48361C27.8281 6.22112 27.1594 4.95495 26.4807 3.69337C26.3726 3.49787 26.2041 3.3216 26.2444 3.07129Z" fill="#28B446"/>
<path d="M27.351 27.3446C27.4646 27.4578 27.6084 27.4012 27.7367 27.403C28.2624 27.4121 28.6682 27.6213 28.9274 28.0836C28.8468 28.3439 28.6178 28.4408 28.3989 28.5303C25.4742 29.7179 22.5632 30.9475 19.6056 32.0511C18.761 32.3662 17.9129 32.6677 17.0546 32.9445C16.2201 33.214 15.3591 33.2487 14.4899 33.267C13.1434 33.2962 11.9178 32.8102 10.6602 32.4521C9.36775 32.0866 8.09546 31.6399 6.7554 31.4417C6.16892 31.3533 5.576 31.3146 4.98298 31.3257C4.81902 31.3257 4.63125 31.3622 4.52499 31.1704C4.48303 31.0276 4.46721 30.8785 4.47828 30.7301C4.47828 29.1594 4.47828 27.5888 4.47828 26.0181C4.47828 25.8354 4.44531 25.6527 4.5882 25.4992C5.10756 25.3384 5.62508 25.174 6.14535 25.0187C7.51015 24.614 8.81267 24.8022 10.074 25.4234C10.2828 25.5266 10.5036 25.6381 10.7554 25.5659C11.4369 25.8509 12.1477 26.0555 12.8448 26.2967C13.2735 26.431 13.6866 26.6101 14.1198 26.7306C14.8077 26.98 15.4993 27.2167 16.1917 27.4551C16.7633 27.6186 17.3092 27.8561 17.878 28.0306C18.4386 28.2407 18.8462 28.5961 18.9864 29.2035C18.9995 29.2943 19.0047 29.386 19.002 29.4776C19.002 30.3299 18.4945 30.8634 17.6381 30.9155C17.1584 30.9383 16.6784 30.8799 16.2183 30.7429C14.7454 30.3308 13.2616 29.9627 11.7823 29.5744C11.5615 29.5169 11.262 29.3817 11.174 29.7151C11.0953 30.0139 11.403 30.0659 11.611 30.1335C13.1177 30.6268 14.6099 31.1677 16.1322 31.6153C16.6466 31.7771 17.1936 31.8063 17.7223 31.7002C18.3992 31.5559 18.9296 31.2188 19.2071 30.5656C19.2572 30.4458 19.3333 30.3385 19.4299 30.2515C19.5266 30.1645 19.6413 30.0999 19.7659 30.0623C22.1245 29.1725 24.4996 28.3266 26.8546 27.424C27.0158 27.3637 27.1715 27.2651 27.351 27.3446Z" fill="#FEE3C0"/>
<path d="M26.2444 3.07129L28.5728 7.4498C27.9582 7.81978 27.3445 8.18794 26.8425 8.71687C26.5829 8.97326 26.3522 9.25723 26.1546 9.56372C25.5175 10.6426 24.5696 11.5052 23.4342 12.0394C21.8193 12.8004 20.4298 13.8948 18.9688 14.8868C18.4192 15.2577 17.8843 15.6432 17.342 16.0214C17.0306 16.2568 16.6656 16.4115 16.2795 16.4718C15.7995 16.5312 15.6255 16.3804 15.6072 15.9173C15.6878 14.8366 16.1632 13.9368 16.8831 13.1502C17.0141 13.0077 17.1579 12.8762 17.2907 12.7364C17.9319 12.1225 18.5319 11.4693 19.2088 10.8938C19.4004 10.7313 19.5587 10.5334 19.675 10.311C19.8197 10.0369 19.7721 9.84967 19.512 9.67153C19.4385 9.6171 19.3556 9.57654 19.2674 9.55185C18.443 9.34448 17.6187 9.21474 16.7714 9.41571C16.3052 9.52716 15.9608 9.81312 15.6832 10.1913C15.598 10.3083 15.5412 10.4544 15.3809 10.501C15.2445 10.511 15.1455 10.4279 15.0393 10.3639C14.147 9.80439 13.1117 9.51352 12.0578 9.52625C11.8938 9.52625 11.7116 9.57285 11.5769 9.42303C11.8453 9.37005 11.9918 9.19923 12.1018 8.9544C12.9683 7.03599 14.5273 6.10508 16.5598 5.80179C17.9951 5.58803 19.4451 5.50491 20.8786 5.27196C22.1477 5.0535 23.3691 4.61705 24.4885 3.98205C25.0646 3.6614 25.6252 3.30881 26.2444 3.07129Z" fill="#FEE3C0"/>
<path d="M10.8313 20.9801C9.15234 20.6439 7.87913 19.7294 6.97782 18.2861C6.40784 17.3861 6.11046 16.3413 6.12138 15.2769C6.14703 12.6752 7.77013 10.4608 10.2075 9.698C11.0319 10.0305 11.6942 10.5786 12.2905 11.2126C13.4492 12.4431 14.0858 13.9157 14.0555 15.5975C14.0207 17.5251 13.2073 19.1311 11.7381 20.3945C11.4679 20.6311 11.2078 20.8997 10.8313 20.9801Z" fill="#FEDF7D"/>
<path d="M4.59184 31.2353C6.46684 31.1275 8.23467 31.6299 10.0043 32.1488C11.1465 32.485 12.2595 32.9408 13.4502 33.0897C14.6611 33.2414 15.8711 33.2286 17.0463 32.8458C19.59 32.0173 22.0677 31.0188 24.5399 30.0029C25.8021 29.4849 27.0643 28.967 28.3311 28.4618C28.5601 28.3705 28.736 28.2152 28.9311 28.0818C29.5118 28.9907 29.2159 29.9143 28.1461 30.3491C24.593 31.7943 21.0665 33.3072 17.4292 34.5395C15.5972 35.1598 13.7754 35.1352 11.9334 34.5596C10.3936 34.0782 8.85661 33.5739 7.27107 33.2533C6.38715 33.0751 5.4895 33.0331 4.59093 33.0085C4.4572 32.8687 4.48834 32.6915 4.48559 32.5252C4.47918 32.1525 4.48558 31.7788 4.50299 31.4061C4.51009 31.3401 4.5418 31.2791 4.59184 31.2353Z" fill="#F0CFA4"/>
<path d="M10.8313 20.9802C11.5723 20.4668 12.2611 19.8995 12.7768 19.1467C13.3887 18.2524 13.7926 17.2886 13.9209 16.2006C14.1041 14.6211 13.669 13.2207 12.7732 11.9408C12.1781 11.1046 11.4016 10.413 10.5015 9.91735C10.3944 9.85614 10.2625 9.82601 10.2075 9.69811C10.6454 9.51084 11.1079 9.45146 11.5815 9.42405C12.9783 9.34001 14.2515 9.71089 15.4194 10.4673C15.7427 10.5294 15.9351 10.7907 16.1522 10.9889C16.6422 11.432 17.0086 11.9792 17.3164 12.5629C17.3399 12.5951 17.3544 12.633 17.3585 12.6727C17.3625 12.7123 17.3559 12.7523 17.3393 12.7885C16.8621 13.3166 16.3528 13.8217 16.0743 14.4959C15.8847 14.9527 15.6942 15.4159 15.6924 15.9265C15.6619 16.1608 15.6794 16.3988 15.7438 16.6262C15.8082 16.8536 15.9181 17.0655 16.067 17.2493C16.1571 17.3666 16.2738 17.4609 16.4076 17.5244C16.5414 17.5879 16.6883 17.6189 16.8364 17.6147C17.004 17.6147 17.1744 17.5663 17.3393 17.6357C16.9811 18.6223 16.3125 19.3714 15.4826 19.9789C14.1306 20.9628 12.612 21.309 10.9577 21.0359C10.9133 21.0231 10.8707 21.0043 10.8313 20.9802Z" fill="#FECF64"/>
<path d="M4.59166 31.2353L4.58616 31.375C4.468 31.914 4.22801 32.1406 3.62164 32.1972C2.96305 32.2612 2.3008 32.2128 1.63947 32.221C1.34333 32.2354 1.04651 32.2164 0.754647 32.1643C0.349787 32.0775 0.0749868 31.8665 0.00170898 31.4408C0.00170898 29.3915 0.00170898 27.3428 0.00170898 25.2946C0.00170898 24.5327 0.184911 24.2413 0.925017 24.1655C1.85559 24.0819 2.79181 24.0819 3.72239 24.1655C4.39105 24.2166 4.57608 24.7218 4.59348 25.2225C4.59348 25.3138 4.59348 25.4052 4.59348 25.4965C4.59287 27.4094 4.59227 29.3224 4.59166 31.2353Z" fill="#89FBA2"/>
<path d="M17.3376 17.6348C16.8484 17.7937 16.3776 17.7526 16.0314 17.3607C15.6852 16.9688 15.512 16.4718 15.6907 15.9246C15.7017 16.3147 15.9169 16.4728 16.3318 16.3887C16.7298 16.2908 17.1038 16.1133 17.431 15.8671C18.9735 14.8019 20.4711 13.6746 22.0631 12.678C22.6823 12.2924 23.3674 12.0294 23.9866 11.6329C24.7542 11.1387 25.4238 10.5513 25.9102 9.7775C26.4579 8.89525 27.2123 8.15888 28.1085 7.63165C28.2532 7.54577 28.3961 7.44072 28.5802 7.44894L29.27 8.68675C29.2874 8.69863 29.2929 8.7096 29.2865 8.72056C29.28 8.73153 29.2736 8.73519 29.2681 8.73519C27.9995 9.32351 27.1293 10.3192 26.3746 11.4584C25.8785 12.1908 25.1929 12.7758 24.3906 13.1512C22.3113 14.1561 20.5178 15.583 18.6199 16.8638C18.2059 17.1433 17.8386 17.5005 17.3376 17.6348Z" fill="#F0CFA4"/>
<path d="M27.3509 27.3446C24.7813 28.2989 22.2116 29.2526 19.642 30.2057C19.5784 30.2245 19.5201 30.2583 19.4723 30.3042C19.4245 30.3502 19.3885 30.407 19.3672 30.4697C18.9093 31.6847 17.6699 31.9862 16.6734 31.8154C15.446 31.6052 14.3047 31.0946 13.1203 30.731C12.5552 30.5574 11.9982 30.3555 11.4349 30.1719C11.1849 30.0897 10.9678 29.9581 11.0612 29.6658C11.1473 29.3917 11.3635 29.3616 11.6447 29.4374C13.2568 29.8723 14.8753 30.2861 16.4892 30.7164C16.9387 30.8482 17.4125 30.8754 17.8742 30.7958C18.5877 30.6552 18.9184 30.224 18.9221 29.4977C18.9221 29.3954 18.9221 29.2931 18.9221 29.1908C19.0357 29.0273 19.2216 28.9907 19.3911 28.9277C21.7433 28.0516 24.0818 27.1399 26.4331 26.2629C26.8233 26.1177 27.1411 25.9112 27.2776 25.4837C27.3344 25.3065 27.2474 25.1183 27.3518 24.9539C27.9133 25.1366 28.2274 25.5349 28.2412 26.0903C28.2522 26.674 27.9389 27.118 27.3509 27.3446Z" fill="#E4BF92"/>
<path d="M27.3482 24.9494C27.558 25.43 27.1513 26.0813 26.6677 26.2594C25.4302 26.7162 24.2055 27.2022 22.9726 27.669C21.6225 28.1788 20.2696 28.6803 18.9185 29.1864C18.7637 28.6437 18.3689 28.3259 17.8862 28.0947C18.205 27.8901 18.5741 27.8033 18.9222 27.67C20.4207 27.0972 21.9394 26.5737 23.427 25.9726C23.5012 25.9425 23.5753 25.9068 23.6495 25.9726C24.3182 25.8 24.9401 25.493 25.5969 25.2829C26.0549 25.1367 26.479 24.8599 26.9873 24.8764C27.1121 24.8664 27.2372 24.8917 27.3482 24.9494Z" fill="#F0CFA4"/>
<path d="M16.1771 27.5429C15.4892 27.2963 14.7866 27.0862 14.1152 26.7975C14.5595 26.5664 15.0449 26.4421 15.5066 26.254C16.2229 25.9625 16.9722 25.7479 17.672 25.4245C17.7452 25.3916 17.8203 25.3596 17.8945 25.4245C18.6273 25.2418 19.3042 24.9193 20.0114 24.6735C20.8806 24.3721 21.7233 23.9957 22.6136 23.7536C22.7565 23.7143 22.9031 23.6741 23.0368 23.781C22.988 23.872 22.9758 23.9783 23.0029 24.0779C23.2026 24.6598 22.7932 25.0481 22.3553 25.2271C21.6271 25.524 20.8824 25.7807 20.146 26.0585C18.8252 26.5582 17.4943 27.0332 16.1771 27.5429Z" fill="#F0CFA4"/>
<path d="M16.177 27.543C16.2448 27.3292 16.4591 27.3374 16.6148 27.279C18.5246 26.5609 20.4445 25.8676 22.347 25.1331C22.8554 24.9367 23.1127 24.5987 22.8966 24.0369C22.8416 23.8944 22.805 23.7628 23.0376 23.7792C23.2462 23.8192 23.4412 23.9113 23.6044 24.0469C23.7677 24.1825 23.8938 24.3571 23.971 24.5544C24.0482 24.7518 24.074 24.9654 24.046 25.1754C24.0179 25.3854 23.937 25.5848 23.8107 25.7552C23.7594 25.8283 23.7035 25.8986 23.6504 25.9699C21.8441 26.7336 19.9774 27.3402 18.1546 28.0546C18.0673 28.0781 17.9775 28.091 17.8871 28.0929C17.2926 27.9851 16.7596 27.6864 16.177 27.543Z" fill="#E4BF92"/>
<path d="M0.00193604 31.4426C0.219022 31.9177 0.611974 32.1159 1.11209 32.1214C1.89495 32.1287 2.67872 32.1287 3.4634 32.1214C3.99283 32.115 4.39953 31.9048 4.58639 31.375C4.58639 31.9231 4.58852 32.4685 4.59279 33.0111C4.57264 33.7383 4.20625 34.1037 3.49362 34.1074C2.66192 34.1074 1.83022 34.1074 0.998515 34.1074C0.371074 34.1074 0.00194632 33.7365 0.00103035 33.1162C-0.000801596 32.5562 0.00102006 31.999 0.00193604 31.4426Z" fill="#28B446"/>
<path d="M12.819 26.3807C12.1659 26.1597 11.5128 25.9359 10.8579 25.7184C10.7736 25.6901 10.7013 25.6755 10.7663 25.5659C12.7314 24.8387 14.6961 24.1125 16.6606 23.3871C17.0618 23.24 17.4639 23.2455 17.833 23.505C17.8202 24.0248 17.615 24.4532 17.1323 24.6633C15.7858 25.2498 14.4183 25.7897 13.0517 26.3269C12.9729 26.3561 12.885 26.3223 12.819 26.3807Z" fill="#F0CFA4"/>
<path d="M29.2617 8.73612C29.2631 8.72001 29.2631 8.70383 29.2617 8.68772C29.9111 9.08237 30.447 8.73796 31.0021 8.43467C31.5187 8.14965 32.0399 7.87195 32.572 7.61798C33.0053 7.41153 33.2315 7.05979 33.3799 6.63135C33.5466 6.94286 33.7262 7.24706 33.8773 7.56589C34.1338 8.10395 33.9945 8.5534 33.4734 8.83751C32.6838 9.26869 31.8878 9.68984 31.0854 10.1009C30.5496 10.375 30.1181 10.2325 29.8177 9.71361C29.6281 9.39022 29.4458 9.06225 29.2617 8.73612Z" fill="#008036"/>
<path d="M12.8191 26.3809C13.3604 26.0447 13.9787 25.8821 14.5594 25.6364C15.3307 25.3094 16.1071 24.996 16.8888 24.6964C17.1034 24.6199 17.2947 24.4896 17.4441 24.3178C17.5934 24.1461 17.6959 23.9389 17.7415 23.7162C17.7598 23.6412 17.7415 23.5535 17.8276 23.5051C18.5229 24.0642 18.5458 24.7402 17.8945 25.4235C16.8237 25.9077 15.6962 26.2549 14.608 26.6842C14.4543 26.7583 14.2859 26.7968 14.1152 26.7966C13.6664 26.7263 13.2578 26.4978 12.8191 26.3809Z" fill="#E4BF92"/>
</g>
<defs>
<clipPath id="clip0_238_132">
<rect width="34" height="35" fill="white"/>
</clipPath>
</defs>
</svg>
