<svg width="15" height="15" viewBox="0 0 15 15" fill="none" xmlns="http://www.w3.org/2000/svg">
<path d="M11.875 0H3.125C2.2965 0.000992411 1.50222 0.330551 0.916387 0.916387C0.330551 1.50222 0.000992411 2.2965 0 3.125L0 11.875C0.000992411 12.7035 0.330551 13.4978 0.916387 14.0836C1.50222 14.6694 2.2965 14.999 3.125 15H11.875C12.7035 14.999 13.4978 14.6694 14.0836 14.0836C14.6694 13.4978 14.999 12.7035 15 11.875V3.125C14.999 2.2965 14.6694 1.50222 14.0836 0.916387C13.4978 0.330551 12.7035 0.000992411 11.875 0V0ZM13.75 3.125H9.375V1.25H11.875C12.3723 1.25 12.8492 1.44754 13.2008 1.79917C13.5525 2.15081 13.75 2.62772 13.75 3.125ZM6.875 1.25H8.125V4.375C8.125 4.54076 8.05915 4.69973 7.94194 4.81694C7.82473 4.93415 7.66576 5 7.5 5C7.33424 5 7.17527 4.93415 7.05806 4.81694C6.94085 4.69973 6.875 4.54076 6.875 4.375V1.25ZM3.125 1.25H5.625V3.125H1.25C1.25 2.62772 1.44754 2.15081 1.79917 1.79917C2.15081 1.44754 2.62772 1.25 3.125 1.25ZM11.875 13.75H3.125C2.62772 13.75 2.15081 13.5525 1.79917 13.2008C1.44754 12.8492 1.25 12.3723 1.25 11.875V4.375H5.625C5.625 4.87228 5.82254 5.34919 6.17417 5.70083C6.52581 6.05246 7.00272 6.25 7.5 6.25C7.99728 6.25 8.47419 6.05246 8.82583 5.70083C9.17746 5.34919 9.375 4.87228 9.375 4.375H13.75V11.875C13.75 12.3723 13.5525 12.8492 13.2008 13.2008C12.8492 13.5525 12.3723 13.75 11.875 13.75ZM12.5 11.875C12.5 12.0408 12.4342 12.1997 12.3169 12.3169C12.1997 12.4342 12.0408 12.5 11.875 12.5H10C9.83424 12.5 9.67527 12.4342 9.55806 12.3169C9.44085 12.1997 9.375 12.0408 9.375 11.875C9.375 11.7092 9.44085 11.5503 9.55806 11.4331C9.67527 11.3158 9.83424 11.25 10 11.25H11.875C12.0408 11.25 12.1997 11.3158 12.3169 11.4331C12.4342 11.5503 12.5 11.7092 12.5 11.875Z" fill="#B8B8B8"/>
</svg>
