<svg width="16" height="16" viewBox="0 0 16 16" fill="none" xmlns="http://www.w3.org/2000/svg">
<path d="M16 8C16 10.1217 15.1571 12.1566 13.6569 13.6569C12.1566 15.1571 10.1217 16 8 16C5.87827 16 3.84344 15.1571 2.34315 13.6569C0.842855 12.1566 0 10.1217 0 8C0 7.73478 0.105357 7.48043 0.292893 7.29289C0.48043 7.10536 0.734784 7 1 7C1.26522 7 1.51957 7.10536 1.70711 7.29289C1.89464 7.48043 2 7.73478 2 8C2 9.18669 2.35189 10.3467 3.01118 11.3334C3.67047 12.3201 4.60754 13.0892 5.7039 13.5433C6.80026 13.9974 8.00666 14.1162 9.17054 13.8847C10.3344 13.6532 11.4035 13.0818 12.2426 12.2426C13.0818 11.4035 13.6532 10.3344 13.8847 9.17054C14.1162 8.00666 13.9974 6.80026 13.5433 5.7039C13.0892 4.60754 12.3201 3.67047 11.3334 3.01118C10.3467 2.35189 9.18669 2 8 2C7.73478 2 7.48043 1.89464 7.29289 1.70711C7.10536 1.51957 7 1.26522 7 1C7 0.734784 7.10536 0.48043 7.29289 0.292893C7.48043 0.105357 7.73478 0 8 0C10.121 0.00229405 12.1545 0.845885 13.6543 2.34568C15.1541 3.84547 15.9977 5.87897 16 8ZM4.66667 8C4.66667 8.26522 4.77202 8.51957 4.95956 8.70711C5.1471 8.89464 5.40145 9 5.66667 9H7.12667C7.37995 9.22294 7.70863 9.34104 8.04587 9.33031C8.38312 9.31958 8.70362 9.18081 8.94221 8.94221C9.18081 8.70362 9.31958 8.38312 9.33031 8.04587C9.34104 7.70863 9.22294 7.37995 9 7.12667V4.33333C9 4.06812 8.89464 3.81376 8.70711 3.62623C8.51957 3.43869 8.26522 3.33333 8 3.33333C7.73478 3.33333 7.48043 3.43869 7.29289 3.62623C7.10536 3.81376 7 4.06812 7 4.33333V7H5.66667C5.40145 7 5.1471 7.10536 4.95956 7.29289C4.77202 7.48043 4.66667 7.73478 4.66667 8ZM4.49333 3.26267C4.69111 3.26267 4.88445 3.20402 5.0489 3.09414C5.21335 2.98425 5.34153 2.82808 5.41721 2.64535C5.4929 2.46262 5.5127 2.26156 5.47412 2.06758C5.43553 1.8736 5.34029 1.69541 5.20044 1.55556C5.06059 1.41571 4.8824 1.32047 4.68842 1.28188C4.49444 1.2433 4.29338 1.2631 4.11065 1.33879C3.92792 1.41447 3.77175 1.54265 3.66186 1.7071C3.55198 1.87155 3.49333 2.06489 3.49333 2.26267C3.49333 2.52788 3.59869 2.78224 3.78623 2.96977C3.97376 3.15731 4.22812 3.26267 4.49333 3.26267ZM1.942 5.83333C2.13978 5.83333 2.33312 5.77468 2.49757 5.6648C2.66202 5.55492 2.79019 5.39874 2.86588 5.21602C2.94157 5.03329 2.96137 4.83222 2.92279 4.63824C2.8842 4.44426 2.78896 4.26608 2.64911 4.12623C2.50925 3.98637 2.33107 3.89113 2.13709 3.85255C1.94311 3.81396 1.74204 3.83377 1.55932 3.90945C1.37659 3.98514 1.22041 4.11331 1.11053 4.27776C1.00065 4.44221 0.942 4.63555 0.942 4.83333C0.942 5.09855 1.04736 5.3529 1.23489 5.54044C1.42243 5.72798 1.67678 5.83333 1.942 5.83333Z" fill="#B3B3B3"/>
</svg>
