<svg width="19" height="19" viewBox="0 0 19 19" fill="none" xmlns="http://www.w3.org/2000/svg">
<path d="M19 9.5C19 12.0196 17.9991 14.4359 16.2175 16.2175C14.4359 17.9991 12.0196 19 9.5 19C6.98044 19 4.56408 17.9991 2.78249 16.2175C1.00089 14.4359 0 12.0196 0 9.5C0 9.18506 0.125111 8.88301 0.347811 8.66031C0.57051 8.43761 0.872555 8.3125 1.1875 8.3125C1.50244 8.3125 1.80449 8.43761 2.02719 8.66031C2.24989 8.88301 2.375 9.18506 2.375 9.5C2.375 10.9092 2.79287 12.2867 3.57578 13.4584C4.35868 14.6301 5.47146 15.5434 6.77338 16.0826C8.0753 16.6219 9.5079 16.763 10.89 16.4881C12.2721 16.2132 13.5417 15.5346 14.5381 14.5381C15.5346 13.5417 16.2132 12.2721 16.4881 10.89C16.763 9.5079 16.6219 8.0753 16.0826 6.77338C15.5434 5.47146 14.6301 4.35868 13.4584 3.57578C12.2867 2.79287 10.9092 2.375 9.5 2.375C9.18506 2.375 8.88301 2.24989 8.66031 2.02719C8.43761 1.80449 8.3125 1.50244 8.3125 1.1875C8.3125 0.872555 8.43761 0.57051 8.66031 0.347811C8.88301 0.125111 9.18506 0 9.5 0C12.0187 0.00272419 14.4335 1.00449 16.2145 2.78549C17.9955 4.5665 18.9973 6.98128 19 9.5ZM5.54167 9.5C5.54167 9.81494 5.66678 10.117 5.88948 10.3397C6.11218 10.5624 6.41422 10.6875 6.72917 10.6875H8.46292C8.76369 10.9522 9.15399 11.0925 9.55447 11.0797C9.95496 11.067 10.3356 10.9022 10.6189 10.6189C10.9022 10.3356 11.067 9.95496 11.0797 9.55447C11.0925 9.15399 10.9522 8.76369 10.6875 8.46292V5.14583C10.6875 4.83089 10.5624 4.52884 10.3397 4.30614C10.117 4.08344 9.81494 3.95833 9.5 3.95833C9.18506 3.95833 8.88301 4.08344 8.66031 4.30614C8.43761 4.52884 8.3125 4.83089 8.3125 5.14583V8.3125H6.72917C6.41422 8.3125 6.11218 8.43761 5.88948 8.66031C5.66678 8.88301 5.54167 9.18506 5.54167 9.5ZM5.33583 3.87442C5.5707 3.87442 5.80029 3.80477 5.99557 3.67429C6.19086 3.5438 6.34306 3.35834 6.43294 3.14135C6.52282 2.92437 6.54634 2.6856 6.50052 2.45525C6.4547 2.22489 6.3416 2.0133 6.17552 1.84723C6.00945 1.68115 5.79786 1.56805 5.5675 1.52223C5.33715 1.47641 5.09838 1.49993 4.8814 1.58981C4.66441 1.67969 4.47895 1.83189 4.34846 2.02718C4.21798 2.22246 4.14833 2.45205 4.14833 2.68692C4.14833 3.00186 4.27344 3.30391 4.49614 3.52661C4.71884 3.74931 5.02089 3.87442 5.33583 3.87442ZM2.30613 6.92708C2.54099 6.92708 2.77058 6.85744 2.96586 6.72695C3.16115 6.59647 3.31335 6.41101 3.40323 6.19402C3.49311 5.97703 3.51663 5.73827 3.47081 5.50791C3.42499 5.27756 3.31189 5.06597 3.14581 4.89989C2.97974 4.73382 2.76815 4.62072 2.53779 4.5749C2.30744 4.52908 2.06868 4.5526 1.85169 4.64248C1.6347 4.73236 1.44924 4.88456 1.31875 5.07984C1.18827 5.27513 1.11863 5.50472 1.11863 5.73958C1.11863 6.05453 1.24374 6.35657 1.46644 6.57927C1.68914 6.80197 1.99118 6.92708 2.30613 6.92708Z" fill="white"/>
</svg>
