<svg width="20" height="20" viewBox="0 0 20 20" fill="none" xmlns="http://www.w3.org/2000/svg">
<path d="M15.5464 0.774978L5.38644 10.935C4.9984 11.3209 4.69076 11.78 4.48135 12.2857C4.27193 12.7913 4.1649 13.3335 4.16644 13.8808V15C4.16644 15.221 4.25424 15.4329 4.41052 15.5892C4.5668 15.7455 4.77876 15.8333 4.99978 15.8333H6.11894C6.66624 15.8349 7.20842 15.7278 7.71407 15.5184C8.21973 15.309 8.67882 15.0014 9.06478 14.6133L19.2248 4.45331C19.7118 3.96512 19.9853 3.30371 19.9853 2.61414C19.9853 1.92458 19.7118 1.26317 19.2248 0.774978C18.7295 0.301557 18.0707 0.0373535 17.3856 0.0373535C16.7005 0.0373535 16.0417 0.301557 15.5464 0.774978ZM18.0464 3.27498L7.88644 13.435C7.41655 13.902 6.78145 14.1649 6.11894 14.1666H5.83311V13.8808C5.83485 13.2183 6.09775 12.5832 6.56478 12.1133L16.7248 1.95331C16.9028 1.78327 17.1394 1.68839 17.3856 1.68839C17.6318 1.68839 17.8684 1.78327 18.0464 1.95331C18.2214 2.12874 18.3196 2.36639 18.3196 2.61414C18.3196 2.8619 18.2214 3.09955 18.0464 3.27498Z" fill="white"/>
<path d="M19.1667 7.4825C18.9456 7.4825 18.7337 7.5703 18.5774 7.72658C18.4211 7.88286 18.3333 8.09482 18.3333 8.31583V12.5H15C14.337 12.5 13.7011 12.7634 13.2322 13.2322C12.7634 13.7011 12.5 14.337 12.5 15V18.3333H4.16667C3.50362 18.3333 2.86774 18.0699 2.3989 17.6011C1.93006 17.1323 1.66667 16.4964 1.66667 15.8333V4.16667C1.66667 3.50362 1.93006 2.86774 2.3989 2.3989C2.86774 1.93006 3.50362 1.66667 4.16667 1.66667H11.7017C11.9227 1.66667 12.1346 1.57887 12.2909 1.42259C12.4472 1.26631 12.535 1.05435 12.535 0.833333C12.535 0.612319 12.4472 0.400358 12.2909 0.244078C12.1346 0.0877974 11.9227 0 11.7017 0L4.16667 0C3.062 0.00132321 2.00296 0.440735 1.22185 1.22185C0.440735 2.00296 0.00132321 3.062 0 4.16667L0 15.8333C0.00132321 16.938 0.440735 17.997 1.22185 18.7781C2.00296 19.5593 3.062 19.9987 4.16667 20H13.6192C14.1666 20.0016 14.7089 19.8945 15.2147 19.6851C15.7205 19.4757 16.1797 19.1681 16.5658 18.78L18.7792 16.565C19.1673 16.1791 19.475 15.72 19.6846 15.2143C19.8941 14.7087 20.0013 14.1665 20 13.6192V8.31583C20 8.09482 19.9122 7.88286 19.7559 7.72658C19.5996 7.5703 19.3877 7.4825 19.1667 7.4825ZM15.3875 17.6017C15.0525 17.9358 14.6289 18.1672 14.1667 18.2683V15C14.1667 14.779 14.2545 14.567 14.4107 14.4107C14.567 14.2545 14.779 14.1667 15 14.1667H18.2708C18.1677 14.6279 17.9367 15.0508 17.6042 15.3867L15.3875 17.6017Z" fill="white"/>
</svg>
