<svg width="16" height="16" viewBox="0 0 16 16" fill="none" xmlns="http://www.w3.org/2000/svg">
<path d="M0 13.4035V12.841C0.0104178 12.7993 0.023335 12.7618 0.030419 12.7214C0.208215 11.749 0.751053 11.0692 1.65893 10.682L1.82311 10.6136L1.72268 10.5303C1.00219 9.93106 0.78508 8.91137 1.22263 8.08295C1.5885 7.39079 2.18106 7.02992 2.96073 6.9995C3.30243 6.98575 3.64496 6.99741 3.99042 6.99741C3.99467 6.97202 3.99759 6.94643 3.99917 6.92074C3.99917 5.95189 3.99917 4.98305 4.0025 4.01461C4.0025 3.91669 3.95082 3.89459 3.88082 3.86667C3.2288 3.60748 2.57721 3.34718 1.92603 3.08577C1.65809 2.97826 1.39056 2.86949 1.09261 2.74906C1.16929 2.71447 1.21346 2.6928 1.2593 2.67447C3.46008 1.79327 5.66032 0.911508 7.85999 0.0291938C7.9071 0.00924374 7.95783 -0.000681103 8.00898 3.62936e-05C8.06013 0.00075369 8.11057 0.0121017 8.1571 0.033365C10.3382 0.908456 12.5196 1.78215 14.7015 2.65447C14.762 2.67864 14.8211 2.70655 14.917 2.74863L12.858 3.57497C13.0493 3.64873 13.2114 3.71832 13.3785 3.77291C13.4727 3.80416 13.5072 3.84917 13.5035 3.95001C13.496 4.22087 13.5035 4.49174 13.4989 4.7626C13.4989 4.86094 13.5185 4.91596 13.6185 4.9618C14.1336 5.19932 14.2798 5.81937 13.9456 6.28025C13.8983 6.34989 13.877 6.43401 13.8856 6.51778C13.9548 6.98075 14.0381 7.44121 14.1152 7.90335C14.1748 8.26172 14.2327 8.62008 14.2948 9.00012H13.5014C13.5014 9.17014 13.4981 9.321 13.5043 9.47101C13.5064 9.48969 13.5126 9.50768 13.5224 9.52373C13.5322 9.53978 13.5454 9.55351 13.561 9.56394C13.9302 9.76646 14.061 10.0744 13.9669 10.4974C14.3115 10.4974 14.6486 10.4974 14.9853 10.4974C15.1153 10.4912 15.2456 10.4951 15.3749 10.509C15.7083 10.5624 15.8917 10.7903 16 11.0924V11.405C15.9125 11.6337 15.7858 11.8275 15.5529 11.9363C15.5241 11.9496 15.5024 12.0096 15.502 12.0479C15.499 12.7655 15.499 13.4831 15.502 14.2007C15.502 14.239 15.5241 14.299 15.5529 14.3123C15.7862 14.4207 15.9125 14.6149 16 14.8436V15.1562C15.9576 15.2964 15.8812 15.424 15.7776 15.5276C15.674 15.6311 15.5464 15.7076 15.4062 15.75H2.34233C2.31412 15.7384 2.28499 15.7292 2.25523 15.7225C1.74207 15.6508 1.26177 15.4283 0.875305 15.0831C0.488838 14.738 0.213626 14.2858 0.0845934 13.784C0.0537568 13.6569 0.028753 13.5298 0 13.4035ZM14.9941 11.9975H2.78237C2.70445 11.9975 2.62611 11.9975 2.54818 11.9975C2.32552 12.0037 2.10975 12.0761 1.92842 12.2055C1.74709 12.3348 1.60844 12.5153 1.53016 12.7239C1.24888 13.4739 1.79269 14.2453 2.60986 14.2457C6.69806 14.2476 10.7865 14.2476 14.8753 14.2457C14.917 14.2457 14.9545 14.239 14.9941 14.2353V12.9976H10.5123V12.4934H14.9941V11.9975ZM8.08918 1.76562C8.15127 1.78604 8.19085 1.79771 8.22919 1.8123C9.32208 2.22901 10.4151 2.64572 11.5083 3.06243C11.7266 3.14577 11.9467 3.28996 12.165 3.28787C12.3834 3.28579 12.6013 3.13785 12.8184 3.05118C13.0572 2.95617 13.2956 2.85865 13.5647 2.74947C13.4885 2.7153 13.4439 2.69321 13.3981 2.67488C11.6418 1.97119 9.88478 1.26891 8.1271 0.568007C8.04631 0.538859 7.95787 0.538859 7.87707 0.568007C6.11356 1.26864 4.35143 1.97273 2.59069 2.68031C2.54902 2.69656 2.51068 2.71738 2.44734 2.74697C2.51776 2.77822 2.56277 2.79991 2.60902 2.81824C4.36532 3.5222 6.12245 4.22476 7.88041 4.92594C7.96167 4.95367 8.05004 4.95236 8.13044 4.9222C9.1943 4.50257 10.2557 4.07629 11.317 3.65083C11.3587 3.63458 11.3945 3.61247 11.4583 3.58039L7.91374 2.22858L8.08918 1.76562ZM11.5012 4.1242C11.4454 4.14296 11.4012 4.15588 11.3587 4.17255C10.2965 4.59676 9.23346 5.01929 8.17335 5.4485C8.11994 5.47279 8.06202 5.48554 8.00335 5.4859C7.94468 5.48626 7.8866 5.47423 7.8329 5.4506C6.77251 5.02166 5.71074 4.59634 4.64757 4.17462C4.60298 4.15671 4.55839 4.14004 4.50047 4.11796C4.50047 5.11806 4.50047 6.09108 4.50422 7.06535C4.51197 7.12976 4.54311 7.18908 4.59173 7.23203C4.93134 7.5429 5.33264 7.75249 5.76477 7.89667C7.08408 8.33547 8.42254 8.35506 9.7681 8.03794C10.3719 7.89626 10.9349 7.6554 11.4041 7.23494C11.4603 7.1789 11.4935 7.10382 11.497 7.02451C11.5041 6.39444 11.5012 5.76395 11.5012 5.13346V4.1242ZM8.84676 15.2479H15.1116C15.1687 15.2514 15.226 15.2498 15.2828 15.2433C15.4174 15.2187 15.4987 15.1349 15.4983 14.9966C15.4979 14.8582 15.4149 14.7749 15.2816 14.7516C15.2246 14.7455 15.1671 14.7443 15.1099 14.7478H2.73654C2.6582 14.7478 2.58027 14.7478 2.50235 14.7453C1.51849 14.7036 0.787999 13.7669 0.989687 12.8026C1.15637 12.0108 1.8056 11.4979 2.64611 11.4975C6.8021 11.4975 10.9578 11.4975 15.1132 11.4975C15.1705 11.5012 15.228 11.4997 15.2849 11.4929C15.4191 11.4675 15.4999 11.3829 15.4983 11.2449C15.4966 11.107 15.4149 11.0241 15.2795 11.0012C15.2278 10.9955 15.1756 10.9943 15.1237 10.9974H9.01511C6.87989 10.9974 4.74466 10.9928 2.60944 10.9995C2.05871 11.0207 1.53777 11.2551 1.15653 11.6531C0.775297 12.0511 0.563587 12.5816 0.566074 13.1327C0.568561 13.6839 0.785053 14.2125 1.16987 14.607C1.55468 15.0016 2.07771 15.2312 2.62861 15.2475C4.70132 15.2502 6.77404 15.2504 8.84676 15.2479ZM12.2855 8.49716H12.1038C11.4733 8.49716 10.8432 8.49465 10.2132 8.49923C10.0785 8.501 9.94438 8.51708 9.81311 8.54717C8.83109 8.77273 7.81542 8.8116 6.81904 8.66177C6.53151 8.6201 6.24815 8.51091 5.96146 8.50507C4.96719 8.48549 3.97208 8.49591 2.97697 8.49966C2.87701 8.50174 2.78019 8.53498 2.70003 8.59474C2.61988 8.65451 2.56038 8.73782 2.52985 8.83303C2.40775 9.17973 2.66153 9.49767 3.06324 9.49767H12.9934V8.99762H12.2096C12.2367 8.82385 12.26 8.66718 12.2855 8.49716ZM4.74049 7.99711C4.54214 7.83459 4.36545 7.68749 4.18752 7.54664C4.1471 7.5169 4.0985 7.50031 4.04833 7.49913C3.67871 7.4958 3.30868 7.48996 2.93947 7.49913C2.16148 7.52121 1.52016 8.17337 1.50141 8.9497C1.48057 9.81812 2.15606 10.4957 3.05032 10.4961C6.41956 10.4961 9.7888 10.4961 13.158 10.4961C13.3831 10.4961 13.5006 10.4094 13.5002 10.2461C13.4997 10.0827 13.3826 9.99607 13.1568 9.99607H4.3617C3.91874 9.99607 3.4762 9.99607 3.03365 9.99607C2.44401 9.99316 1.99854 9.55851 2.00063 8.99137C2.00063 8.43173 2.44692 8.00044 3.02698 7.99627C3.22992 7.99627 3.43327 7.99627 3.63621 7.99627L4.74049 7.99711ZM12.0121 3.88085V6.98782H12.5388C12.5638 6.84281 12.5834 6.70448 12.6126 6.5678C12.6279 6.51394 12.6299 6.45718 12.6184 6.40238C12.6069 6.34757 12.5823 6.29637 12.5467 6.25317C12.255 5.8698 12.3284 5.29766 12.738 5.06097C12.9909 4.91429 13.0297 4.74468 13.0026 4.50299C12.9949 4.4357 12.9949 4.36776 13.0026 4.30047C13.0139 4.20213 12.9788 4.15213 12.8822 4.11963C12.6855 4.0542 12.4959 3.96669 12.2988 3.9046C12.2096 3.87543 12.1088 3.88626 12.0121 3.87959V3.88085ZM13.7044 8.48882C13.5993 7.86042 13.496 7.24245 13.3939 6.62697H13.108C13.0047 7.24912 12.9026 7.86583 12.7992 8.48882H13.7044ZM13.6252 5.74437C13.6252 5.67019 13.6032 5.59769 13.562 5.53601C13.5208 5.47434 13.4622 5.42626 13.3936 5.39788C13.3251 5.36949 13.2497 5.36206 13.177 5.37653C13.1042 5.391 13.0374 5.42673 12.9849 5.47918C12.9325 5.53163 12.8968 5.59845 12.8823 5.6712C12.8678 5.74395 12.8753 5.81937 12.9036 5.8879C12.932 5.95643 12.9801 6.015 13.0418 6.05621C13.1034 6.09742 13.176 6.11941 13.2501 6.11941C13.3497 6.11875 13.4451 6.0789 13.5155 6.00847C13.5859 5.93805 13.6258 5.84272 13.6264 5.74313L13.6252 5.74437ZM11.2737 7.98876H12.3763C12.4017 7.825 12.4263 7.66832 12.453 7.49705C12.2742 7.49705 12.1142 7.49705 11.9529 7.49705C11.9127 7.49447 11.8726 7.50406 11.8379 7.52456C11.6496 7.67416 11.4654 7.83042 11.2737 7.98752V7.98876Z" fill="black"/>
<path d="M2.50781 13.7371V13.2554H9.48854V13.7371H2.50781Z" fill="black"/>
</svg>
