<svg fill="none" height="27" viewBox="0 0 27 27" width="27" xmlns="http://www.w3.org/2000/svg" xmlns:xlink="http://www.w3.org/1999/xlink"><mask id="a" fill="#000" height="27" maskUnits="userSpaceOnUse" width="27" x="0" y="0"><path d="m0 0h27v27h-27z" fill="#fff"/><path clip-rule="evenodd" d="m1 9.6905v13.9634c.03609.1008.06855.2035.10101.3062.07235.229.14468.4579.25703.665.41141.7447 1.05848 1.1829 1.89954 1.3306.04619.0113.09145.0261.1354.0443h18.74802c.0486-.0123.0971-.0241.1454-.0358.1158-.0281.231-.0561.3448-.0905.5403-.163 1.015-.4931 1.356-.9428.3409-.4497.5305-.9959.5416-1.5602.0102-.6698.0082-1.3396.0062-2.0096-.0008-.2716-.0016-.5433-.0016-.815v-.2753c.5988-.1244 1.0415-.4342 1.3019-.9765.0456-.0948.0812-.1944.1168-.2938.0157-.0439.0313-.0878.0479-.1313v-4.4917c-.0435-.0859-.0844-.1737-.1252-.2615-.0916-.197-.1833-.3942-.3058-.5698-.2011-.2858-.509-.4557-.8521-.5299-.1562-.0338-.1842-.1054-.1842-.248v-2.5609c-.0006-1.61119-.9543-2.68335-2.5876-2.87344v-.59433-1.12226c-.0039-1.06434-.7252-1.78888-1.7954-1.78888h-.0044c-1.4541-.00261-2.9076-.00521-4.3617.00455-.1985.0013-.2819-.0586-.3417-.24478-.1166-.36069-.2477-.71642-.3787-1.07186-.0401-.109-.0803-.21798-.12-.32707-.2265-.62103-.6575-1.01227-1.3084-1.14963-.0305-.00998-.0598-.02329-.0873-.0397h-.4882l-8.73999 3.17219c-1.06173.38538-1.48682 1.2987-1.09949 2.36239.05479.15.10935.30001.16536.45396.04048.11129.08172.22464.12433.34154-.05319.01026-.1049.01904-.15541.02762-.1065.01808-.20767.03525-.30614.06351-1.09168.30987-1.76479 1.01811-2.00305 2.13258-.00694.03082-.01794.06106-.02893.0913-.0055.01511-.01099.03023-.01598.04541zm22.068.4029v2.8643c-.2308 0-.4597-.0009-.6869-.0017-.6418-.0025-1.2713-.005-1.9001.0128-.365.0016-.7285.0475-1.0825.1367-.8154.2244-1.5276.7251-2.0147 1.4164-.4872.6913-.7191 1.5304-.6562 2.3738.063.8434.4169 1.6387 1.0013 2.2501.5844.6113 1.363 1.0007 2.2027 1.1015.3157.0303.6327.0427.9498.0372.4755.0026.9508.0017 1.4334.0008.2441-.0004.4901-.0008.7389-.0008.0017.0252.0039.0496.006.0736.0042.0485.0083.095.0083.1412v2.7341c0 .7824-.5175 1.298-1.3019 1.298h-17.99035c-.79939 0-1.30976-.513-1.30976-1.3143v-13.108c0-.78769.50776-1.29741 1.29804-1.29741h18.01437c.7753 0 1.2896.51166 1.2896 1.28171zm-9.2242-6.63257c.0408.11454.082.23008.1242.34681-.0822.00701-.1604.01146-.2356.01574-.1554.00883-.2982.01695-.4381.04545-.3826.07559-.7272.2815-.975.58263-.2479.30114-.3837.67889-.3842 1.0689-.0031.34718-.0021.69437-.0011 1.04156.0005.17359.0011.34718.0011.52078 0 .0527-.003.10569-.0062.1656-.0017.02964-.0034.06096-.0049.09478h-.2513c-.4412 0-.8825-.00014-1.3239-.00028-1.67366-.00054-3.34812-.00108-5.02178.00613-.1992.00065-.28317-.05924-.34176-.24411-.07489-.23679-.16245-.46926-.25003-.70182-.04413-.11716-.08826-.23434-.13079-.3521-.11717-.32354-.08593-.39318.23305-.50905l7.11901-2.58956c.1397-.05088.2794-.10139.419-.15187.2732-.09874.5461-.19741.8179-.29863.1569-.05859.2851-.0254.3444.12628.1065.27335.2052.55.306.83276zm7.9034 10.96157h.4876c.435 0 .8698-.0006 1.3049-.0011.2159-.0003.4319-.0006.648-.0008.2753.0013.345.0709.345.3482v3.6845c0 .2858-.0749.3601-.3613.3601-.2293.0005-.4587.0013-.6881.002-1.0315.0032-2.0631.0065-3.0947-.002-.5552.0007-1.0902-.2084-1.4977-.5856s-.6573-.8945-.6993-1.4481c-.0446-.5581.1279-1.1119.4815-1.5461.3536-.4341.8611-.7151 1.4167-.7844.3786-.0461.7637-.0388 1.1487-.0316.1698.0031.3395.0063.5087.0049zm-1.2662-7.09559h-7.0786l-.0007-.0013c0-.15901-.0002-.3167-.0005-.47343-.0006-.43553-.0012-.86374.0031-1.29266.0046-.21221.1419-.26493.3301-.26493h2.8043 3.5602c.3235 0 .3821.05858.3821.38407zm-.6024 9.81539c.1384.1334.323.2083.5152.209.1923-.0063.3747-.0867.509-.2244.1344-.1377.2102-.3221.2116-.5145-.0015-.0961-.0219-.1909-.0601-.2791-.0381-.0882-.0933-.168-.1623-.2349s-.1505-.1196-.2398-.155c-.0894-.0353-.1848-.0528-.2809-.0513s-.1909.0219-.2791.06c-.0882.0382-.168.0933-.2349.1623s-.1196.1506-.155.2399c-.0353.0893-.0528.1848-.0513.2809.0077.1921.0893.3737.2276.5071z" fill="#000" fill-rule="evenodd"/></mask><g fill="#000"><path clip-rule="evenodd" d="m1 9.6905v13.9634c.03609.1008.06855.2035.10101.3062.07235.229.14468.4579.25703.665.41141.7447 1.05848 1.1829 1.89954 1.3306.04619.0113.09145.0261.1354.0443h18.74802c.0486-.0123.0971-.0241.1454-.0358.1158-.0281.231-.0561.3448-.0905.5403-.163 1.015-.4931 1.356-.9428.3409-.4497.5305-.9959.5416-1.5602.0102-.6698.0082-1.3396.0062-2.0096-.0008-.2716-.0016-.5433-.0016-.815v-.2753c.5988-.1244 1.0415-.4342 1.3019-.9765.0456-.0948.0812-.1944.1168-.2938.0157-.0439.0313-.0878.0479-.1313v-4.4917c-.0435-.0859-.0844-.1737-.1252-.2615-.0916-.197-.1833-.3942-.3058-.5698-.2011-.2858-.509-.4557-.8521-.5299-.1562-.0338-.1842-.1054-.1842-.248v-2.5609c-.0006-1.61119-.9543-2.68335-2.5876-2.87344v-.59433-1.12226c-.0039-1.06434-.7252-1.78888-1.7954-1.78888h-.0044c-1.4541-.00261-2.9076-.00521-4.3617.00455-.1985.0013-.2819-.0586-.3417-.24478-.1166-.36069-.2477-.71642-.3787-1.07186-.0401-.109-.0803-.21798-.12-.32707-.2265-.62103-.6575-1.01227-1.3084-1.14963-.0305-.00998-.0598-.02329-.0873-.0397h-.4882l-8.73999 3.17219c-1.06173.38538-1.48682 1.2987-1.09949 2.36239.05479.15.10935.30001.16536.45396.04048.11129.08172.22464.12433.34154-.05319.01026-.1049.01904-.15541.02762-.1065.01808-.20767.03525-.30614.06351-1.09168.30987-1.76479 1.01811-2.00305 2.13258-.00694.03082-.01794.06106-.02893.0913-.0055.01511-.01099.03023-.01598.04541zm22.068.4029v2.8643c-.2308 0-.4597-.0009-.6869-.0017-.6418-.0025-1.2713-.005-1.9001.0128-.365.0016-.7285.0475-1.0825.1367-.8154.2244-1.5276.7251-2.0147 1.4164-.4872.6913-.7191 1.5304-.6562 2.3738.063.8434.4169 1.6387 1.0013 2.2501.5844.6113 1.363 1.0007 2.2027 1.1015.3157.0303.6327.0427.9498.0372.4755.0026.9508.0017 1.4334.0008.2441-.0004.4901-.0008.7389-.0008.0017.0252.0039.0496.006.0736.0042.0485.0083.095.0083.1412v2.7341c0 .7824-.5175 1.298-1.3019 1.298h-17.99035c-.79939 0-1.30976-.513-1.30976-1.3143v-13.108c0-.78769.50776-1.29741 1.29804-1.29741h18.01437c.7753 0 1.2896.51166 1.2896 1.28171zm-9.2242-6.63257c.0408.11454.082.23008.1242.34681-.0822.00701-.1604.01146-.2356.01574-.1554.00883-.2982.01695-.4381.04545-.3826.07559-.7272.2815-.975.58263-.2479.30114-.3837.67889-.3842 1.0689-.0031.34718-.0021.69437-.0011 1.04156.0005.17359.0011.34718.0011.52078 0 .0527-.003.10569-.0062.1656-.0017.02964-.0034.06096-.0049.09478h-.2513c-.4412 0-.8825-.00014-1.3239-.00028-1.67366-.00054-3.34812-.00108-5.02178.00613-.1992.00065-.28317-.05924-.34176-.24411-.07489-.23679-.16245-.46926-.25003-.70182-.04413-.11716-.08826-.23434-.13079-.3521-.11717-.32354-.08593-.39318.23305-.50905l7.11901-2.58956c.1397-.05088.2794-.10139.419-.15187.2732-.09874.5461-.19741.8179-.29863.1569-.05859.2851-.0254.3444.12628.1065.27335.2052.55.306.83276zm7.9034 10.96157h.4876c.435 0 .8698-.0006 1.3049-.0011.2159-.0003.4319-.0006.648-.0008.2753.0013.345.0709.345.3482v3.6845c0 .2858-.0749.3601-.3613.3601-.2293.0005-.4587.0013-.6881.002-1.0315.0032-2.0631.0065-3.0947-.002-.5552.0007-1.0902-.2084-1.4977-.5856s-.6573-.8945-.6993-1.4481c-.0446-.5581.1279-1.1119.4815-1.5461.3536-.4341.8611-.7151 1.4167-.7844.3786-.0461.7637-.0388 1.1487-.0316.1698.0031.3395.0063.5087.0049zm-1.2662-7.09559h-7.0786l-.0007-.0013c0-.15901-.0002-.3167-.0005-.47343-.0006-.43553-.0012-.86374.0031-1.29266.0046-.21221.1419-.26493.3301-.26493h2.8043 3.5602c.3235 0 .3821.05858.3821.38407zm-.6024 9.81539c.1384.1334.323.2083.5152.209.1923-.0063.3747-.0867.509-.2244.1344-.1377.2102-.3221.2116-.5145-.0015-.0961-.0219-.1909-.0601-.2791-.0381-.0882-.0933-.168-.1623-.2349s-.1505-.1196-.2398-.155c-.0894-.0353-.1848-.0528-.2809-.0513s-.1909.0219-.2791.06c-.0882.0382-.168.0933-.2349.1623s-.1196.1506-.155.2399c-.0353.0893-.0528.1848-.0513.2809.0077.1921.0893.3737.2276.5071z" fill-rule="evenodd"/><path d="m1 23.6539h-.2v.0347l.011703.0327zm0-13.9634-.190007-.06243-.009993.03042v.03201zm.10101 14.2696-.190705.0603h.000001zm.25703.665-.17582.0954.00075.0013zm1.89954 1.3306.04766-.1947-.01305-.0023zm.1354.0443-.07638.1848.03668.0152h.0397zm18.74802 0v.2h.0249l.0242-.0061zm.1454-.0358.0472.1944zm.3448-.0905-.0578-.1915-.0001.0001zm1.356-.9428-.1594-.1208zm.5416-1.5602.2.0039v-.0009zm.0062-2.0096-.2.0006zm-.0016-1.0903-.0407-.1959-.1593.0331v.1628zm1.3019-.9765-.1802-.0867-.0001.0001zm.1168-.2938.1883.0673zm.0479-.1313.1869.0712.0131-.0344v-.0368zm0-4.4917h.2v-.0478l-.0216-.0426zm-.1252-.2615-.1813.0843zm-.3058-.5698.1641-.1144-.0005-.0007zm-.8521-.5299-.0423.1955zm-.1842-2.8089h.2v-.0001zm-2.5876-2.87344h-.2v.17808l.1769.02058zm0-1.71659h.2v-.00074zm-1.7954-1.78888-.0004.2h.0004zm-.0044 0 .0004-.2zm-4.3617.00455.0013.19999h.0001zm-.3417-.24478.1904-.06125-.0001-.00026zm-.3787-1.07186-.1876.06915zm-.12-.32707.1879-.06843v-.00011zm-1.3084-1.14963-.0623.19005.0103.00339.0107.00225zm-.0873-.0397.1024-.171786-.0473-.028214h-.0551zm-.4882 0v-.2h-.0352l-.033.012zm-8.73999 3.17219-.06823-.188zm-1.09949 2.36239-.18793.06843.00007.00018zm.16536.45396-.18795.06837zm.12433.34154.03788.19638.23037-.04444-.08035-.22043zm-.15541.02762-.03347-.19718zm-.30614.06351.05461.1924.00056-.00016zm-2.00305 2.13258.19512.04397.00046-.00216zm-.02893.0913-.187965-.06834zm22.05202 3.31261v.2h.2v-.2zm-.6869-.0017.0007-.2zm-1.9001.0128.0009.2.0048-.0001zm-1.0825.1367-.0489-.194-.0042.0012zm-2.0147 1.4164-.1635-.1152zm-.6562 2.3738.1995-.0149zm1.0013 2.2501-.1445.1382zm2.2027 1.1015-.0238.1987.0047.0004zm.9498.0372.0011-.2001-.0046.0001zm1.4334.0008-.0003-.2zm.7389-.0008.1995-.0137-.0127-.1863h-.1868zm.006.0736-.1993.0175zm-9.0917-16.55046.017.19928.2598-.02215-.0887-.24516zm-.1242-.34681.1884-.06717zm-.1114.36255.0113.19967zm-.4381.04545.0388.19621.0011-.00024zm-1.3592 1.65153.2.00175v-.00145zm-.0062 1.72794-.1997-.01097zm-.0049.09478v.2h.1913l.0085-.19109zm-1.5752-.00028v.2zm-5.02178.00613.00065.2h.00021zm-.34176-.24411-.19069.06031.00003.00011zm-.25003-.70182.18716-.07049zm-.13079-.3521.18811-.06793-.00006-.00018zm.23305-.50905.06828.18798.00008-.00003zm7.11901-2.58956.0684.18795.0001-.00004zm.419-.15187-.068-.18809zm.8179-.29863.0698.18742.0002-.00006zm.3444.12628.1863-.07264v-.00012zm8.2094 11.79433v-.2h-.0017zm1.7925-.0011-.0002-.2zm.648-.0008.0009-.2h-.0011zm-.0163 4.3928v-.2h-.0005zm-.6881.002-.0006-.2zm-3.0947-.002.0017-.2h-.002zm-1.4977-.5856-.1359.1468zm-.6993-1.4481.1994-.0152-.0001-.0007zm.4815-1.5461.1551.1263zm1.4167-.7844-.0242-.1985-.0005.0001zm1.1487-.0316.0037-.2zm-7.8361-7.09069-.1789.08942.0552.11058h.1237zm7.0786 0v.2h.2v-.2zm-7.0793-.0013h-.2v.0472l.0211.04221zm-.0005-.47343.2-.00029zm.0031-1.29266-.2-.00429v.00228zm6.9895 11.79178-.0007.2001.0071-.0002zm-.5152-.209-.1388.144zm1.0242-.0154-.1431-.1397zm.2116-.5145.2.0015v-.0046zm-.0601-.2791.1836-.0794zm-.1623-.2349.1392-.1436zm-.5207-.2063-.0031-.2zm-.2791.06-.0794-.1835zm-.2349.1623-.1436-.1392zm-.155.2399.186.0737zm-.0513.2809-.2.0031.0002.0049zm-18.451 7.0188v-13.9634h-.4v13.9634zm.09171.246c-.03226-.1021-.06584-.2085-.10341-.3134l-.376597.1348c.034601.0966.065948.1958.098602.2991zm.24214.6299c-.10166-.1875-.16872-.3976-.24214-.6299l-.381404.1205c.071288.2256.148884.4732.271914.7001zm1.75834 1.2289c-.78531-.1379-1.37875-.5418-1.75909-1.2303l-.35013.1934c.44249.801 1.1432 1.2733 2.04 1.4309zm.17717.0565c-.05327-.0221-.10817-.04-.16423-.0537l-.0951.3885c.03632.0089.07194.0205.10657.0348zm18.67164-.0152h-18.74802v.4h18.74802zm.0983-.0302c-.0483.0118-.0977.0238-.1473.0363l.0981.3878c.0474-.012.095-.0236.1435-.0353zm.334-.0875c-.1076.0325-.2174.0592-.334.0875l.0943.3888c.1149-.0279.2354-.0571.3555-.0934zm1.2545-.8722c-.3154.416-.7545.7214-1.2544.8721l.1156.383c.5808-.1752 1.0911-.53 1.4576-1.0135zm.501-1.4433c-.0102.522-.1856 1.0273-.501 1.4433l.3188.2416c.3665-.4834.5703-1.0706.5822-1.6771zm.0062-2.0051c.002.6703.004 1.3383-.0062 2.006l.4.006c.0102-.6719.0082-1.3435.0062-2.0132zm-.0016-.8156c0 .2721.0008.544.0016.8156l.4-.0012c-.0008-.2717-.0016-.543-.0016-.8144zm0-.2753v.2753h.4v-.2753zm1.3216-1.0631c-.2298.4787-.6159.7538-1.1623.8672l.0813.3917c.6514-.1352 1.1506-.4798 1.4416-1.0857zm.1087-.2745c-.0361.1011-.0683.1906-.1086.2744l.3604.1734c.051-.1059.0899-.2154.1249-.3132zm.0494-.1351c-.0174.0457-.0338.0915-.0494.1351l.3767.1346c.0158-.0442.0308-.0862.0465-.1274zm-.0131-4.4206v4.4917h.4v-4.4917zm-.1065-.1772c.0405.0873.0828.1782.1281.2677l.3568-.1809c-.0418-.0824-.0812-.1671-.1222-.2554zm-.2885-.5397c.1108.1589.1955.3398.2885.5397l.3627-.1686c-.0903-.1942-.189-.4075-.3231-.5999zm-.7304-.4488c.3065.0663.5653.2142.7309.4495l.3271-.2302c-.2367-.3362-.5938-.5281-.9734-.6103zm-.3419-.4435c0 .0747.0048.1819.0669.2754.0682.1026.1743.1463.275.1681l.0847-.3909c-.0271-.0059-.0378-.0112-.0397-.0123-.0006-.0003.0013.0007.0043.0034.0031.0028.0063.0064.0089.0104.0055.0083.005.0122.0034.0035-.0019-.0098-.0035-.0271-.0035-.0576zm0-2.5609v2.5609h.4v-2.5609zm-2.4107-2.67478c.7776.0905 1.376.38833 1.7803.83873.4041.45028.6301 1.07072.6304 1.83605l.4-.0001c-.0003-.84579-.2515-1.56701-.7327-2.10313-.4811-.53598-1.1762-.86929-2.0318-.96887zm-.1769-.79299v.59433h.4v-.59433zm0-1.12226v1.12226h.4v-1.12226zm-1.5954-1.58888c.4888 0 .8836.16459 1.1562.43683.2727.2723.4374.66666.4392 1.15278l.4-.00147c-.0021-.57822-.2-1.07829-.5565-1.43434-.3566-.35612-.8575-.5538-1.4389-.5538zm-.0047 0h.0043l.0008-.4h-.0044zm-4.36.00454c1.4531-.00974 2.9057-.00715 4.36-.00454l.0007-.4c-1.454-.0026-2.9083-.00521-4.3634.00455zm-.5335-.38353c.035.10881.0881.21903.1927.29401.1041.07463.2258.09028.3407.08952l-.0026-.39999c-.0836.00055-.1029-.0131-.105-.01464-.0017-.0012-.0202-.01402-.045-.09139zm-.3759-1.06395c.1312.35607.2608.70801.376 1.06421l.3806-.12301c-.1181-.36518-.2506-.72469-.3813-1.0795zm-.1203-.32779c.0399.10951.0801.21884.1203.32779l.3753-.1383c-.0402-.10906-.0802-.21768-.1198-.32635zm-1.1618-1.02237c.5803.12245.9578.46326 1.1618 1.02248l.3758-.13708c-.2491-.68284-.7335-1.124523-1.4551-1.276781zm-.1484-.0636c.0402.02398.0829.0434.1274.05796l.1246-.380099c-.0165-.005404-.0323-.012597-.0472-.021437zm-.3858.02821h.4882v-.4h-.4882zm-8.67175 3.16019 8.73995-3.17219-.1364-.376-8.74002 3.17219zm-.9798 2.10596c-.17913-.49194-.16439-.9301-.00026-1.28274.1641-.35258.48936-.64511.98006-.82322l-.13647-.376c-.57104.20727-.98919.56409-1.20624 1.03044-.21702.46629-.22115 1.01663-.01295 1.58838zm.16538.45401c-.056-.15393-.11061-.30405-.16545-.45419l-.37572.13722c.05473.14986.10926.29975.16527.45372zm.12428.34143c-.04258-.11683-.08379-.23013-.12428-.34143l-.3759.13675c.04048.11128.08173.22469.12437.34166zm-.30983.29329c.0502-.00853.10408-.01766.15981-.02842l-.07577-.39275c-.05064.00976-.10018.01818-.15099.02681zm-.28445.05857c.08593-.02466.17594-.04015.28445-.05857l-.06695-.39436c-.1045.01774-.21682.03659-.32784.06845zm-1.86264 1.98215c.11272-.52725.32579-.94818.63149-1.27269.30579-.3246.7135-.56252 1.23059-.7093l-.10922-.3848c-.57459.1631-1.04927.43422-1.41253.81983-.36334.3857-.605949.87612-.731487 1.46334zm-.03655.11783c.0102-.02806.02586-.07031.03608-.11567l-.390214-.08794c-.003668.01628-.010003.03451-.021791.06693zm-.01393.0395c.00385-.01171.00825-.02388.01393-.0395l-.375925-.13668c-.005312.01461-.011893.03267-.018022.05132zm22.07799 3.20477v-2.8643h-.4v2.8643zm-.8877.1983c.2272.0008.4564.0017.6877.0017v-.4c-.2304 0-.4588-.0009-.6862-.0017zm-1.8936.0127c.625-.0177 1.2513-.0152 1.8936-.0127l.0015-.4c-.6411-.0025-1.2739-.005-1.9064.0129zm-1.0394.1307c.3383-.0852.6857-.1291 1.0346-.1306l-.0017-.4c-.3813.0016-.7609.0496-1.1306.1428zm-1.9 1.3377c.4604-.6534 1.1335-1.1266 1.9042-1.3388l-.1061-.3856c-.8601.2367-1.6113.7648-2.1251 1.494zm-.6202 2.2437c-.0595-.7971.1597-1.5902.6202-2.2437l-.327-.2304c-.5139.7292-.7585 1.6143-.6921 2.5039zm.9464 2.1268c-.5524-.5779-.8869-1.3296-.9464-2.1268l-.3989.0298c.0664.8896.4397 1.7285 1.0562 2.3734zm2.082 1.0412c-.7937-.0954-1.5296-.4634-2.082-1.0412l-.2891.2764c.6164.6448 1.4377 1.0555 2.3234 1.1619zm.9224.0357c-.3095.0054-.619-.0067-.9272-.0362l-.0382.3981c.3232.031.6478.0437.9724.038zm1.4366.0008c-.4828.0009-.9573.0018-1.432-.0008l-.0022.4c.4764.0026.9524.0017 1.4349.0008zm.7392-.0008c-.249 0-.4952.0004-.7392.0008l.0007.4c.2441-.0004.4899-.0008.7385-.0008zm.2052.2561c-.0021-.0242-.0041-.0468-.0057-.0698l-.399.0273c.0018.0274.0042.0538.0062.0775zm.0091.1587c0-.0565-.005-.1118-.0091-.1587l-.3985.035c.0044.0502.0076.0878.0076.1237zm0 2.7341v-2.7341h-.4v2.7341zm-1.5019 1.498c.4369 0 .8159-.1444 1.0863-.4139.2704-.2696.4156-.6478.4156-1.0841h-.4c0 .3461-.1136.6169-.298.8008-.1845.1839-.4564.2972-.8039.2972zm-17.99035 0h17.99035v-.4h-17.99035zm-1.50976-1.5143c0 .4438.14216.8265.41341 1.0988.27133.2724.6531.4155 1.09635.4155v-.4c-.35614 0-.62925-.1134-.81295-.2978-.18378-.1845-.29681-.4589-.29681-.8165zm0-13.108v13.108h.4v-13.108zm1.49804-1.49741c-.43893 0-.81753.14243-1.08685.41195-.26929.26949-.41119.64788-.41119 1.08546h.4c0-.35012.11198-.62043.29414-.80272.18213-.18227.45256-.29469.8039-.29469zm18.01437 0h-18.01437v.4h18.01437zm1.4896 1.48171c0-.43059-.1447-.80466-.413-1.07145-.2683-.26669-.644-.41026-1.0766-.41026v.4c.3428 0 .6118.11226.7946.29392.1826.18156.295.44838.295.78779zm-9.1119-6.35379c-.042-.11623-.0831-.23134-.1239-.34595l-.3768.13434c.0408.11447.0822.23044.1246.34768zm-.4124.28344c.0749-.00425.1559-.00884.2413-.01613l-.0339-.39855c-.079.00673-.1545.01103-.2301.01533zm-.4095.04175c.1233-.02511.2514-.03276.4095-.04175l-.0227-.39935c-.1526.00867-.3101.01727-.4666.04916zm-.8605.51376c.2184-.26542.5221-.4469.8594-.51352l-.0776-.39242c-.428.08456-.8134.31489-1.0907.65175zm-.3386.9421c.0005-.34375.1201-.67668.3386-.9421l-.3089-.25419c-.2772.33686-.4291.75941-.4297 1.19569zm-.0011 1.04067c-.001-.34738-.002-.6934.001-1.03922l-.3999-.0035c-.0031.34855-.0021.6969-.0011 1.04389zm.0011.52137c0-.17394-.0006-.34782-.0011-.52137l-.4.00117c.0006.17364.0011.34694.0011.5202zm-.0065.17658c.0032-.0588.0065-.11741.0065-.17658h-.4c0 .04622-.0026.0936-.0059.15463zm-.0048.09271c.0015-.03264.0031-.06298.0048-.09272l-.3994-.02194c-.0017.02954-.0034.06185-.005.09685zm-.4511.19109h.2513v-.4h-.2513zm-1.3239-.00028c.4413.00014.8827.00028 1.3239.00028v-.4c-.4412 0-.8825-.00014-1.3238-.00028zm-5.02092.00613c1.67312-.00721 3.34712-.00667 5.02092-.00613l.0001-.4c-1.67361-.00054-3.34855-.00108-5.02274.00613zm-.53328-.38369c.03454.10896.08765.21904.19259.29397.1039.07419.22545.0901.34048.08972l-.0013-.4c-.08417.00028-.1042-.01343-.10673-.01525-.00151-.00107-.01967-.01337-.04372-.08928zm-.24654-.69175c.08791.2334.17352.46084.24651.69164l.38138-.12062c-.07679-.24279-.16629-.48029-.25356-.712zm-.13173-.35467c.04307.11927.08769.23773.13173.35467l.37433-.14098c-.0442-.11737-.08785-.23328-.12984-.34954zm.35287-.76496c-.08186.02974-.15919.06126-.22291.09992-.06571.03986-.13175.0961-.17081.18163-.03885.08508-.03844.17167-.02643.24717.01171.07364.03734.15356.06734.23642l.3761-.13621c-.02858-.07891-.04299-.12902-.04841-.16305-.00512-.03217.00107-.0309-.00475-.01816-.00602.0132-.01176.01008.01443-.00581.0282-.01711.07439-.03775.15201-.06594zm7.119-2.58953-7.11908 2.58956.13673.37591 7.11905-2.58956zm.4193-.152c-.1396.05047-.2795.10106-.4194.15204l.1369.37583c.1394-.05077.2788-.10119.4185-.1517zm.8161-.29797c-.2707.10083-.5428.19918-.8161.29797l.136.37617c.273-.09868.5468-.19768.8197-.29929zm.6005.24095c-.0468-.11979-.1324-.21637-.258-.25873-.1179-.0398-.2392-.02079-.3427.01784l.14.37473c.0534-.01995.0746-.01364.0748-.01357.0001.00002-.0003-.00014-.0009-.00051s-.0006-.00046.0001.00024c.0013.00134.0072.00801.0141.02552zm.3081.83835c-.1007-.28228-.2003-.5617-.3081-.83823l-.3727.14528c.1053.27017.203.54405.304.82729zm8.2026 10.82874h-.4876v.4h.4876zm1.3047-.0011c-.4351.0005-.8698.0011-1.3047.0011v.4c.4352 0 .8701-.0006 1.3052-.0011zm.648-.0008c-.2162.0002-.4321.0005-.648.0008l.0005.4c.2159-.0003.4318-.0006.6479-.0008zm.5452.5482c0-.1376-.0125-.3028-.1273-.4185-.115-.1158-.2801-.1291-.4168-.1297l-.0019.4c.0628.0003.1007.0046.1236.0102.0207.0051.0184.0085.0112.0013-.0071-.0072-.0036-.0093.0014.0118.0056.0233.0098.0617.0098.1249zm0 3.6845v-3.6845h-.4v3.6845zm-.5613.5601c.1434 0 .3116-.0141.4292-.1311.1178-.1174.1321-.2857.1321-.429h-.4c0 .065-.0045.1049-.0105.1295-.0054.0223-.0096.0217-.0038.016.0057-.0057.006-.0014-.0167.0041-.0249.006-.0651.0105-.1303.0105zm-.6874.002c.2293-.0007.4586-.0015.6879-.002l-.001-.4c-.2294.0005-.4588.0013-.6882.002zm-3.097-.0021c1.0329.0086 2.0656.0053 3.097.0021l-.0013-.4c-1.0318.0032-2.0622.0065-3.0924-.002zm-1.632-.6387c.4445.4114 1.0282.6396 1.6339.6388l-.0006-.4c-.5047.0007-.9911-.1895-1.3615-.5324zm-.7629-1.5798c.0459.604.3184 1.1683.7629 1.5798l.2718-.2936c-.3705-.3429-.5976-.8131-.6358-1.3165zm.526-1.6875c-.3862.4741-.5745 1.0788-.5259 1.6883l.3987-.0318c-.0404-.5068.1162-1.0097.4373-1.4039zm1.547-.8565c-.6068.0756-1.1609.3825-1.547.8565l.3101.2526c.3211-.3942.7819-.6493 1.2864-.7122zm1.1771-.0332c-.3825-.0072-.7817-.015-1.1766.0331l.0484.3971c.3623-.0441.7333-.0375 1.1207-.0303zm.5033.0049c-.166.0014-.333-.0017-.5033-.0049l-.0075.3999c.1694.0032.3418.0064.5141.005zm-8.3431-6.69559h7.0786v-.4h-7.0786zm-.1796-.11189.0007.00131.3578-.17884-.0007-.0013zm-.0216-.56255c.0003.15676.0005.3143.0005.47314h.4c0-.15918-.0002-.31701-.0005-.47372zm.0031-1.29496c-.0043.43026-.0037.85962-.0031 1.29496l.4-.00058c-.0006-.43573-.0012-.86278.0031-1.29036zm.5301-.46292c-.1048 0-.2367.01299-.3463.08747-.1251.08498-.1805.21998-.1837.37317l.3999.00859c.0007-.03217.0062-.04615.0078-.04969.0009-.00184.0005-.001.0008-.00124.0021-.0014.0108-.00652.0322-.011.0215-.00452.0507-.0073.0893-.0073zm2.8043 0h-2.8043v.4h2.8043zm3.5602 0h-3.5602v.4h3.5602zm.5821.58407c0-.08451-.0035-.16579-.0183-.23764-.0152-.07398-.0453-.15292-.1097-.21757-.0644-.06474-.1433-.09511-.2173-.11045-.0717-.01489-.1528-.01841-.2368-.01841v.4c.0778 0 .1253.00379.1556.01007.028.0058.0244.01043.0151.00102-.0093-.00932-.0045-.01259.0013.01596.0063.03068.0101.07878.0101.15702zm0 1.64825v-1.64825h-.4v1.64825zm-.2865 9.82439c-.1407-.0005-.2758-.0553-.377-.153l-.2777.288c.1755.1691.4095.2641.6533.265zm.3652-.1641c-.0983.1008-.2318.1596-.3724.1642l.0129.3998c.244-.0079.4754-.11.6458-.2847zm.1547-.3763c-.001.1408-.0565.2756-.1547.3763l.2863.2793c.1704-.1747.2666-.4086.2684-.6526zm-.0436-.1982c.0277.0641.0425.133.0436.2028l.4-.0062c-.0019-.1224-.0279-.2431-.0765-.3554zm-.118-.1707c.0502.0486.0902.1066.118.1707l.3671-.1588c-.0486-.1123-.1188-.214-.2067-.2991zm-.1743-.1126c.065.0257.1242.064.1743.1126l.2784-.2872c-.0878-.0852-.1916-.1522-.3054-.1973zm-.2041-.0373c.0699-.0011.1392.0116.2041.0373l.1473-.3719c-.1137-.0451-.2353-.0673-.3576-.0654zm-.2028.0436c.064-.0277.133-.0425.2028-.0436l-.0062-.4c-.1223.0019-.2431.0279-.3554.0765zm-.1707.118c.0486-.0502.1066-.0903.1707-.118l-.1588-.3671c-.1123.0486-.214.1188-.2991.2066zm-.1126.1743c.0257-.065.064-.1242.1126-.1744l-.2872-.2784c-.0852.0879-.1522.1917-.1973.3055zm-.0373.2041c-.0011-.0699.0116-.1392.0373-.2041l-.3719-.1473c-.0451.1137-.0673.2353-.0654.3576zm.1665.3662c-.1013-.0976-.161-.2306-.1667-.3711l-.3996.016c.0098.2436.1132.4739.2886.6431z" mask="url(#a)"/></g></svg>