<svg fill="none" height="12" viewBox="0 0 18 12" width="18" xmlns="http://www.w3.org/2000/svg"><path d="m1.41429 7.82362c.774-3.72807 4.00961-6.37699 7.64924-6.37699 3.63847 0 6.87407 2.64892 7.64927 6.37699.0307.14794.1187.27758.2447.36041s.2797.11206.4271.08127c.1475-.0308.2768-.11909.3594-.24548.0825-.12638.1117-.28048.081-.42842-.8818-4.24032-4.5703-7.283111-8.76147-7.283111-4.19119 0-7.87963 3.042791-8.761446 7.283111-.030701.14794-.001556.30204.081024.42842.08258.12639.211831.21468.359318.24548.147488.03079.301134.00156.427134-.08127.12599-.08283.21403-.21247.24473-.36041zm7.6379-4.10031c1.05351 0 2.06381.41977 2.80871 1.16695.745.74718 1.1634 1.76058 1.1634 2.81725 0 1.05668-.4184 2.07007-1.1634 2.81729-.7449.7471-1.7552 1.1669-2.80871 1.1669-1.05349 0-2.06382-.4198-2.80875-1.1669-.74492-.74722-1.16341-1.76061-1.16341-2.81729 0-1.05667.41849-2.07007 1.16341-2.81725.74493-.74718 1.75526-1.16695 2.80875-1.16695z" fill="#6a707c"/></svg>