<svg width="34" height="39" viewBox="0 0 34 39" fill="none" xmlns="http://www.w3.org/2000/svg">
<g clip-path="url(#clip0_1907_4101)">
<path d="M22.0202 -0.000244141H22.4701C23.0203 0.0875922 23.5474 0.284826 24.0202 0.579773C24.9002 1.06977 25.8401 1.45978 26.7201 1.95978C27.9608 2.6914 28.9456 3.78787 29.5402 5.09973C30.2166 6.50367 30.8012 7.95006 31.2902 9.42975C32.0233 11.6788 32.5587 13.9876 32.8902 16.3298C33.1352 18.077 33.2854 19.8362 33.3401 21.5997C33.4701 25.4497 33.3402 29.2998 33.4002 33.1498C33.4149 33.3098 33.3909 33.471 33.3301 33.6198C33.1901 33.7598 33.0901 33.9298 32.9501 34.0798C32.0401 35.0798 32.0401 35.0798 30.7101 35.0798H28.9901C28.844 35.1003 28.695 35.0795 28.5601 35.0198C28.5012 34.9738 28.4543 34.9143 28.423 34.8465C28.3917 34.7787 28.377 34.7044 28.3802 34.6298C28.3701 34.4666 28.3701 34.303 28.3802 34.1398C28.3802 32.6698 28.3302 31.2097 28.2902 29.7397C28.2502 28.2697 28.1701 27.0398 28.0701 25.6898C27.9189 23.5679 27.523 21.4707 26.8902 19.4398C26.8299 19.2896 26.7929 19.1311 26.7802 18.9697C26.7983 18.8653 26.832 18.7642 26.8802 18.6697C27.1002 18.4297 26.8802 18.1798 26.8802 17.9398C26.8702 17.8266 26.8702 17.7128 26.8802 17.5997C26.935 17.4357 26.9553 17.262 26.9401 17.0897C26.9155 16.998 26.9155 16.9015 26.9401 16.8098C27.1801 16.5998 26.9401 16.3698 26.9401 16.1498C26.9298 16.0367 26.9298 15.9229 26.9401 15.8098C26.9901 15.6653 27.0105 15.5122 27.0001 15.3597C26.9974 15.2672 27.0145 15.1751 27.0502 15.0897C27.2602 14.9197 27.1102 14.7197 27.0502 14.5397C27.035 14.4706 27.035 14.399 27.0502 14.3298C27.2102 14.1598 27.1101 13.9598 27.1101 13.7698C27.1015 13.7201 27.1015 13.6694 27.1101 13.6198C27.2901 13.4398 27.1101 13.2498 27.1101 13.0698C27.0893 12.8849 27.1205 12.6978 27.2001 12.5297C27.2901 12.3897 27.3801 12.2497 27.2001 12.0897C27.1003 11.9567 26.9786 11.8418 26.8401 11.7498C26.7895 11.7152 26.7316 11.6926 26.6709 11.684C26.6102 11.6753 26.5484 11.6807 26.4901 11.6998H26.3902C26.0602 11.6998 26.1102 11.8997 26.1302 12.0997C26.0768 12.7979 25.9833 13.4924 25.8501 14.1797C25.6501 14.3597 25.7602 14.5697 25.7902 14.7797C25.8007 14.846 25.8007 14.9135 25.7902 14.9797C25.6402 15.1497 25.7202 15.3497 25.7902 15.5297C25.8055 15.5955 25.8055 15.664 25.7902 15.7297C25.5902 15.9397 25.7902 16.1397 25.7902 16.3497C25.7997 16.4094 25.7997 16.4701 25.7902 16.5297C25.6502 18.1997 25.4702 19.8697 25.4102 21.5297C25.4102 22.4197 25.4102 23.3198 25.4102 24.2098C25.4102 27.5798 25.4102 30.9598 25.4102 34.3298C25.4525 34.5645 25.4174 34.8067 25.3101 35.0198C25.2726 35.0526 25.2281 35.0765 25.1801 35.0897C24.6101 35.0897 24.0401 35.0897 23.4601 35.0897H9.10012C8.77012 35.0897 8.45012 35.0897 8.10012 35.0897L7.97012 35.0198C7.84083 34.8035 7.79798 34.5463 7.85012 34.2997C7.85012 30.4597 7.85012 26.6197 7.85012 22.7897C7.85012 21.2797 7.73011 19.7897 7.58011 18.2797C7.49502 17.7037 7.4549 17.122 7.46011 16.5397V16.4197C7.46011 16.1897 7.57011 15.9397 7.46011 15.7197C7.44583 15.6505 7.44583 15.579 7.46011 15.5098C7.46011 15.3198 7.57011 15.1298 7.46011 14.9498C7.44006 14.8846 7.44006 14.8149 7.46011 14.7498C7.46011 14.5598 7.62016 14.3598 7.39016 14.1998C7.29068 13.9771 7.2494 13.7328 7.27017 13.4897C7.2796 13.3569 7.25904 13.2236 7.21011 13.0997C7.14353 12.8522 7.11657 12.5957 7.13015 12.3397C7.14972 12.2004 7.14972 12.0591 7.13015 11.9197C7.12713 11.8801 7.11535 11.8416 7.09573 11.8071C7.07611 11.7725 7.04911 11.7427 7.01663 11.7197C6.98415 11.6968 6.94702 11.6813 6.90786 11.6744C6.86871 11.6675 6.82855 11.6693 6.79019 11.6797H6.69009C6.52009 11.6797 6.34011 11.5498 6.21011 11.7498C6.11957 11.849 6.04839 11.9643 6.00015 12.0897C5.97028 12.1486 5.95474 12.2137 5.95474 12.2797C5.95474 12.3457 5.97028 12.4108 6.00015 12.4697C6.00556 12.5028 6.00556 12.5366 6.00015 12.5698C6.00015 12.7198 5.90015 12.8798 6.00015 13.0098C6.00961 13.0593 6.00961 13.1102 6.00015 13.1597C6.00015 13.3097 5.86015 13.4797 6.00015 13.6097C6.02574 13.6563 6.04273 13.7072 6.0502 13.7598C6.06724 13.8883 6.09394 14.0153 6.13015 14.1398C6.14481 14.2459 6.14481 14.3536 6.13015 14.4598C6.13015 14.6798 5.91015 14.8897 6.13015 15.0997C6.1649 15.1611 6.18534 15.2294 6.19009 15.2997C6.19009 15.5097 6.01009 15.7298 6.19009 15.9398C6.22204 16.0228 6.23902 16.1108 6.24014 16.1998C6.24014 16.3998 5.97014 16.6198 6.24014 16.8198C6.27507 16.8846 6.2956 16.9562 6.3002 17.0297C6.30221 17.1501 6.27827 17.2695 6.23013 17.3798C6.11013 17.5398 6.23009 17.6198 6.31009 17.7098C6.34789 17.7698 6.36869 17.8388 6.37014 17.9097C6.37014 18.1597 6.24014 18.4098 6.37014 18.6498C6.4073 18.7432 6.43408 18.8405 6.4501 18.9398C6.3001 19.6798 6.04014 20.3898 5.87014 21.1298C5.5458 22.4708 5.32511 23.8349 5.21011 25.2098C5.11011 26.4998 5.06014 27.7898 4.99014 29.0698C4.93014 30.0698 4.99012 31.1598 4.85012 32.1998C4.86513 32.2824 4.86513 32.3671 4.85012 32.4498C4.75012 32.6398 4.61013 32.5798 4.48013 32.4498C4.359 32.3666 4.24826 32.2692 4.15017 32.1597L0.410183 28.4197C0.227823 28.2361 0.0637296 28.0351 -0.0798069 27.8198C-0.114348 27.6213 -0.114348 27.4182 -0.0798069 27.2197C-0.0798069 25.6797 -0.0798069 24.1297 -0.0798069 22.5897C0.00999207 20.6744 0.2002 18.7651 0.490139 16.8698C0.845583 14.1153 1.48226 11.4044 2.39016 8.77972C2.9214 7.13015 3.63233 5.54397 4.51016 4.04974C5.14471 3.06986 6.02811 2.27614 7.0701 1.74976C8.0701 1.20976 9.13015 0.749749 10.1302 0.179749C10.412 0.0793237 10.7036 0.00891155 11.0001 -0.0302734H11.4401C11.5038 0.0264043 11.552 0.0984449 11.58 0.178955C11.608 0.259465 11.6149 0.345794 11.6001 0.429749C11.6001 0.989748 11.6001 1.53972 11.6001 2.08972C11.5883 2.30134 11.5616 2.51186 11.5202 2.71973C11.5057 2.77158 11.5044 2.82628 11.5166 2.87872C11.5289 2.93116 11.5541 2.9797 11.5901 3.01978C11.6299 3.08986 11.6507 3.16916 11.6502 3.24976C11.6489 3.40911 11.6725 3.56766 11.7201 3.71973C11.7968 4.48532 11.9136 5.2464 12.0701 5.99976C12.0329 6.09535 12.0255 6.1999 12.0487 6.2998C12.0719 6.3997 12.1246 6.4903 12.2001 6.55975C12.3341 6.88109 12.4315 7.21656 12.4901 7.55975C12.4731 7.62249 12.4777 7.68912 12.5031 7.74896C12.5285 7.80881 12.5732 7.85842 12.6302 7.88977C12.7616 8.09899 12.8657 8.32413 12.9401 8.55975C12.9401 8.69975 12.9402 8.85973 13.1302 8.90973C13.3334 9.14569 13.5143 9.40014 13.6702 9.66974C13.6702 9.80974 13.7402 9.96978 13.9102 10.0198L13.9801 10.0897C13.9801 10.3597 14.2002 10.3398 14.3802 10.3698C14.5179 10.4237 14.6387 10.5135 14.7301 10.6298C14.8379 10.809 15.0041 10.9456 15.2008 11.0166C15.3975 11.0876 15.6127 11.0888 15.8101 11.0198C16.0123 11.0261 16.2134 11.0529 16.4102 11.0997C16.4469 11.1534 16.4961 11.1972 16.5536 11.2275C16.6111 11.2578 16.6751 11.2737 16.7401 11.2737C16.8051 11.2737 16.8692 11.2578 16.9267 11.2275C16.9842 11.1972 17.0334 11.1534 17.0701 11.0997C17.2657 11.0454 17.4673 11.0152 17.6702 11.0098C17.8549 11.0745 18.0565 11.0719 18.2395 11.0023C18.4225 10.9328 18.5751 10.8009 18.6702 10.6298C18.7649 10.4951 18.9022 10.3964 19.0601 10.3497C19.2901 10.3497 19.4601 10.3497 19.4701 10.0497C19.4912 10.0066 19.522 9.96896 19.5601 9.93976C19.654 9.8757 19.7215 9.77975 19.7501 9.66974C19.8866 9.38007 20.0766 9.11885 20.3101 8.89978C20.5001 8.89978 20.5001 8.70974 20.4801 8.54974C20.5217 8.29876 20.6364 8.06567 20.8101 7.87976C20.9301 7.79976 21.0001 7.70975 20.9401 7.55975C20.9645 7.20826 21.067 6.86664 21.2401 6.55975C21.4001 6.42975 21.5202 6.28977 21.3802 6.07977C21.3483 5.85463 21.3942 5.62533 21.5102 5.42975C21.6702 5.30975 21.6501 5.15975 21.5801 4.98975C21.5653 4.59743 21.616 4.20541 21.7301 3.82977C21.8264 3.65258 21.8548 3.44639 21.8101 3.24976C21.7963 3.17707 21.7963 3.10241 21.8101 3.02972C21.9801 2.72972 21.8101 2.41974 21.8101 2.10974C21.8101 1.55974 21.8101 1.00978 21.8101 0.459778C21.8031 0.37157 21.8187 0.28301 21.8555 0.202515C21.8922 0.122019 21.9489 0.0522284 22.0202 -0.000244141Z" fill="#E54D3C"/>
<path d="M21.88 3.81C21.7828 4.22354 21.7259 4.64551 21.7099 5.07001C21.7099 5.19001 21.79 5.36001 21.62 5.45001C21.5469 5.66654 21.5032 5.89186 21.49 6.12C21.5043 6.20151 21.5 6.28522 21.4775 6.36487C21.455 6.44452 21.4148 6.51807 21.36 6.58002L21.03 7.58002C21.0515 7.63742 21.051 7.70066 21.0289 7.75781C21.0068 7.81496 20.9645 7.86203 20.91 7.89001C20.771 8.09503 20.6662 8.32131 20.5999 8.56C20.5399 8.69 20.6 8.86999 20.38 8.92999L19.8499 9.69C19.7899 9.8 19.77 9.93998 19.61 9.97998L19.54 10.04C19.54 10.29 19.2899 10.36 19.0899 10.43L18.7299 10.67C18.5951 10.8143 18.4305 10.9276 18.2474 11.0018C18.0643 11.0761 17.8673 11.1096 17.67 11.1L17 11.19C16.9127 11.2485 16.81 11.2797 16.7049 11.2797C16.5999 11.2797 16.4973 11.2485 16.41 11.19C16.1836 11.1902 15.9582 11.1599 15.74 11.1C15.5315 11.1081 15.3236 11.0733 15.1292 10.9976C14.9348 10.9219 14.758 10.8069 14.61 10.66L14.3 10.43C14.11 10.35 13.92 10.28 13.87 10.05C13.7925 10.0265 13.7227 9.98245 13.6682 9.92261C13.6136 9.86277 13.5762 9.78934 13.5599 9.71002C13.3452 9.47799 13.1667 9.21504 13.03 8.92999C12.86 8.87999 12.8699 8.71002 12.8099 8.58002C12.6755 8.36654 12.5744 8.13388 12.51 7.89001C12.4551 7.86209 12.412 7.81562 12.3881 7.75885C12.3643 7.70208 12.3614 7.63872 12.38 7.58002C12.2285 7.26185 12.1176 6.92587 12.05 6.58002C11.9977 6.5185 11.959 6.44654 11.9366 6.36896C11.9142 6.29138 11.9086 6.20994 11.92 6.13C11.7207 5.34283 11.5901 4.53978 11.53 3.72998C11.46 3.58998 11.5299 3.41997 11.4699 3.27997V3.06C11.3299 2.92 11.4699 2.77 11.4699 2.62C11.4948 2.48782 11.4948 2.35214 11.4699 2.21997V0H11.8499C12.5193 0.122647 13.1709 0.327518 13.79 0.609985C15.949 1.35601 18.308 1.27407 20.41 0.380005C20.8325 0.19907 21.2759 0.0714174 21.7299 0H22.0999V2.21997C21.9799 2.48997 22.2 2.79 22.04 3.06V3.27002C21.85 3.44002 21.97 3.64 21.88 3.81Z" fill="#813035"/>
<path d="M25.2902 35.0196C25.2902 35.8896 25.2902 36.7596 25.2902 37.6296C25.2902 38.0796 25.0001 38.3096 24.4901 38.3096H8.86013C8.75815 38.3223 8.65458 38.3117 8.55727 38.2787C8.45996 38.2457 8.3715 38.191 8.29836 38.1188C8.22522 38.0466 8.16936 37.9588 8.13503 37.862C8.1007 37.7651 8.08875 37.6617 8.10012 37.5596C8.10012 36.7096 8.10012 35.8596 8.10012 35.0196H8.16018C8.27829 34.9896 8.40204 34.9896 8.52016 35.0196H24.8501C24.9717 34.9899 25.0986 34.9899 25.2201 35.0196H25.2902Z" fill="#C03C2B"/>
<path d="M19.7101 19.98C19.5942 19.9411 19.4953 19.8634 19.4301 19.76C18.6001 18.9 17.7601 18.05 16.9401 17.18C16.7601 16.99 16.6602 16.98 16.4802 17.18C15.6502 18.06 14.8002 18.92 13.9702 19.79C13.7802 19.99 13.6802 19.98 13.4902 19.79C12.6702 18.92 11.8302 18.05 10.9802 17.19C10.8302 17.03 10.7702 16.93 10.9802 16.74C11.5002 16.23 11.9802 15.74 12.5102 15.16C12.8502 14.81 13.2002 14.4599 13.5102 14.0899C13.6802 13.8999 13.7801 13.9099 13.9501 14.0899C14.7801 14.9699 15.6301 15.83 16.4601 16.71C16.6601 16.92 16.7701 16.9 16.9601 16.71C17.7801 15.84 18.6201 14.99 19.4401 14.12C19.6101 13.95 19.7102 13.89 19.9102 14.12C20.7502 15.01 21.5901 15.89 22.4501 16.76C22.5901 16.91 22.6401 17.01 22.4501 17.19C21.5901 18.07 20.7402 18.96 19.8802 19.85L19.7101 19.98Z" fill="#EFC41C"/>
<path d="M0.239954 37.8697C0.139954 37.7797 0.170007 37.6597 0.170007 37.5597C0.170007 34.3997 0.170007 31.2397 0.170007 28.0797C0.170007 28.0297 0.170007 27.9797 0.170007 27.9297L4.50997 32.2597L4.83993 32.5597C4.83993 33.9097 4.84 35.2697 4.79 36.6097C4.54 36.4497 4.62996 36.1897 4.61996 35.9697C4.61996 35.1997 4.61992 35.1997 3.82992 35.1997H0.879968C0.439968 35.1997 0.389968 35.2497 0.379968 35.6897C0.369968 36.1297 0.379968 36.8397 0.379968 37.4097C0.399968 37.5597 0.419954 37.7397 0.239954 37.8697Z" fill="#E54D3C"/>
<path d="M13.7201 26.2598C13.7201 26.0998 13.5801 26.0298 13.4901 25.9398C12.6601 25.0798 11.8401 24.2098 10.9901 23.3598C10.8001 23.1598 10.8101 23.0598 10.9901 22.8598C11.8401 21.9998 12.6801 21.1398 13.5001 20.2598C13.6901 20.0598 13.7801 20.0798 13.9601 20.2598C14.7701 21.1198 15.6001 21.9698 16.4201 22.8198C16.5201 22.9198 16.5901 23.0698 16.7701 23.0598C16.7773 23.0755 16.781 23.0925 16.781 23.1098C16.781 23.127 16.7773 23.1441 16.7701 23.1597C16.7154 23.2727 16.6446 23.3771 16.56 23.4697C15.69 24.3397 14.8201 25.2098 14.0001 26.1198C13.9364 26.1809 13.866 26.2346 13.7901 26.2797C13.7657 26.2779 13.7418 26.2712 13.7201 26.2598Z" fill="#EFC41C"/>
<path d="M13.72 26.2602C13.85 26.1702 13.93 26.2602 14.01 26.3402C14.91 27.2602 15.8299 28.1602 16.6899 29.1302L16.75 29.2202C16.7572 29.2358 16.7609 29.253 16.7609 29.2702C16.7609 29.2875 16.7572 29.3045 16.75 29.3202C16.58 29.3202 16.5199 29.4502 16.4299 29.5402C15.5899 30.4002 14.7599 31.2502 13.9399 32.1202C13.7599 32.3102 13.66 32.3302 13.47 32.1202C12.64 31.2302 11.7899 30.3602 10.9399 29.4802C10.8199 29.3502 10.7299 29.2602 10.9399 29.0902L13.64 26.3102C13.64 26.3102 13.69 26.2802 13.72 26.2602Z" fill="#EFC41C"/>
<path d="M16.7701 23.1396V23.0596C17.6901 22.0596 18.6201 21.1396 19.5301 20.1696C19.6401 20.0596 19.7002 20.0696 19.8002 20.1696L22.5001 22.9696C22.6701 23.1396 22.5 23.2196 22.43 23.3296L19.9202 25.9396C19.8302 26.0296 19.7 26.0996 19.68 26.2596C19.6646 26.2675 19.6475 26.2717 19.6301 26.2717C19.6127 26.2717 19.5955 26.2675 19.5801 26.2596C19.3535 26.1112 19.154 25.9252 18.9901 25.7097C18.3601 24.9797 17.6501 24.3196 16.9901 23.6296C16.8601 23.4996 16.6601 23.3796 16.7701 23.1396Z" fill="#EFC41C"/>
<path d="M19.64 26.2601C20.24 26.7501 20.72 27.3601 21.27 27.9001C21.65 28.2801 22.01 28.6801 22.39 29.0501C22.54 29.2001 22.59 29.3 22.39 29.47C21.53 30.35 20.6799 31.2501 19.8299 32.1401C19.7099 32.2601 19.6199 32.3801 19.4399 32.1901C18.5399 31.1901 17.6199 30.2801 16.7099 29.3201V29.2401C16.6499 29.0701 16.77 28.9701 16.87 28.8601C17.61 27.9801 18.47 27.2001 19.26 26.3701C19.41 26.2801 19.49 26.1701 19.64 26.2601Z" fill="#EFC41C"/>
<path d="M26.89 18.8704C26.61 18.1704 26.34 17.4803 26.05 16.7903C25.9921 16.6574 25.9217 16.5302 25.84 16.4103V16.2504C25.84 16.0704 25.72 15.9003 25.84 15.7303V15.5104C25.94 15.3404 25.75 15.1403 25.91 14.9803V14.7604C26.03 14.6004 25.8 14.3903 25.98 14.2303C26.0335 13.4776 26.1371 12.7293 26.29 11.9904C26.2872 11.9406 26.2948 11.8908 26.3122 11.8441C26.3297 11.7974 26.3567 11.7548 26.3915 11.7191C26.4263 11.6833 26.4681 11.6552 26.5143 11.6365C26.5605 11.6178 26.6102 11.6089 26.66 11.6104H26.74C26.8089 11.5782 26.8839 11.5615 26.9599 11.5615C27.036 11.5615 27.111 11.5782 27.1799 11.6104C27.3247 11.7102 27.4502 11.8356 27.55 11.9803C27.5947 12.0597 27.6182 12.1493 27.6182 12.2404C27.6182 12.3314 27.5947 12.421 27.55 12.5004C27.4738 12.6906 27.4462 12.8968 27.47 13.1003C27.35 13.2603 27.58 13.4704 27.4 13.6204V13.7704C27.29 13.9304 27.4799 14.1404 27.3199 14.3004V14.5204C27.1999 14.6804 27.44 14.8904 27.25 15.0504V15.3403C27.16 15.4803 27.2499 15.6503 27.1799 15.7903V16.1603C27.0499 16.3503 27.3 16.5804 27.11 16.7704V17.0604C27.01 17.2304 27.11 17.4203 27.04 17.5903V17.9604C26.9 18.1704 27.16 18.4304 26.97 18.6404C26.95 18.7104 26.96 18.7904 26.89 18.8704Z" fill="#C03C2B"/>
<path d="M7.65006 16.3804C7.46006 16.3804 7.48997 16.5103 7.43997 16.5903C7.06997 17.3203 6.83004 18.1003 6.51004 18.8503L6.44998 18.6304C6.28998 18.4204 6.51004 18.1604 6.38004 17.9504V17.7303C6.33541 17.6895 6.3047 17.6358 6.29215 17.5766C6.27959 17.5174 6.28576 17.4558 6.30997 17.4004C6.33451 17.3453 6.3472 17.2856 6.3472 17.2253C6.3472 17.165 6.33451 17.1054 6.30997 17.0503V16.8704C6.08997 16.6904 6.31002 16.4604 6.24002 16.2704V15.9703C6.05002 15.7903 6.30008 15.5604 6.17008 15.3704V15.1504C5.98008 14.9704 6.24001 14.7403 6.10001 14.5503V14.1703C6.02001 14.0603 6.10006 13.9103 6.03006 13.8003V13.6504C5.86006 13.5304 6.02999 13.3404 5.95999 13.2004V13.0503C5.79999 12.9303 5.96005 12.7403 5.89005 12.6003V12.5303C5.8306 12.3862 5.8306 12.2245 5.89005 12.0804C5.90058 12.0061 5.9265 11.9348 5.9661 11.8711C6.0057 11.8074 6.05809 11.7527 6.12003 11.7104C6.20243 11.642 6.30237 11.5982 6.40848 11.5841C6.51459 11.5699 6.62257 11.586 6.72 11.6304H6.79007C7.24007 11.6304 7.17002 12.0304 7.24002 12.3104C7.2264 12.5861 7.25331 12.8624 7.31998 13.1304C7.39998 13.2504 7.32005 13.3904 7.39005 13.5104C7.37156 13.7598 7.39862 14.0106 7.47 14.2504C7.66 14.4104 7.47007 14.6203 7.54007 14.7803V15.0004C7.69007 15.1604 7.54002 15.3603 7.61002 15.5303V15.7504C7.77002 15.9404 7.60996 16.1603 7.67996 16.3603C7.66815 16.3638 7.65777 16.3708 7.65006 16.3804Z" fill="#C03C2B"/>
<path d="M33.2101 33.5996V37.5996C33.2162 37.6361 33.213 37.6737 33.2008 37.7086C33.1886 37.7436 33.1677 37.7749 33.1401 37.7996C32.9601 37.6896 32.9801 37.5096 32.9801 37.3396C32.9801 36.7596 32.9801 36.1896 32.9801 35.6196C32.9801 35.0496 32.9801 35.1296 32.4801 35.1296H29.2701C28.8001 35.1296 28.7601 35.1796 28.7501 35.6396C28.7501 35.8196 28.7501 36.0096 28.7501 36.1996C28.7501 36.3896 28.7501 36.4696 28.5801 36.5496C28.5101 35.9985 28.5101 35.4408 28.5801 34.8896C29.5801 34.8896 30.5801 34.8896 31.5801 34.8896C31.6856 34.896 31.7913 34.8775 31.8885 34.8359C31.9858 34.7942 32.0719 34.7305 32.1401 34.6497C32.4901 34.3297 32.8401 33.9696 33.2101 33.5996Z" fill="#E54D3C"/>
<path d="M25.24 35.0104H8.17993C8.30993 34.9004 8.45999 34.9403 8.60999 34.9403H24.8C24.95 34.9403 25.11 34.8704 25.24 35.0104Z" fill="#E54D3C"/>
<path d="M14.6101 10.7002L15.7401 11.1402C15.5308 11.2209 15.2989 11.2204 15.0898 11.139C14.8808 11.0576 14.7098 10.9012 14.6101 10.7002Z" fill="#E54D3C"/>
<path d="M17.6702 11.14L18.7301 10.71C18.7301 10.77 18.7301 10.8399 18.7301 10.8799C18.5888 11.0077 18.4179 11.0983 18.2329 11.1437C18.0479 11.1891 17.8546 11.1878 17.6702 11.14Z" fill="#E54D3C"/>
<path d="M7.19995 12.2696C7.13981 11.9949 6.9794 11.7523 6.75 11.5896C6.75 11.5196 6.82002 11.4396 6.90002 11.4996C6.98002 11.5596 7.23999 11.7196 7.23999 11.9496C7.2359 12.0572 7.22247 12.1643 7.19995 12.2696Z" fill="#E54D3C"/>
<path d="M26.66 11.5899L26.29 11.9699C26.03 11.7499 26.29 11.6999 26.41 11.5899C26.53 11.4799 26.58 11.3699 26.66 11.5899Z" fill="#E54D3C"/>
<path d="M11.4 2.21973C11.4647 2.49474 11.4849 2.77835 11.46 3.05975C11.31 3.05975 11.19 2.94973 11.31 2.78973C11.43 2.62973 11.37 2.40973 11.4 2.21973Z" fill="#E54D3C"/>
<path d="M16.4102 11.2305H17.0001C16.8101 11.5105 16.6102 11.5105 16.4102 11.2305Z" fill="#E54D3C"/>
<path d="M6.31003 17.0498C6.44003 17.2698 6.3101 17.4998 6.3801 17.7298C6.1901 17.7298 6.11006 17.5898 6.22006 17.4098C6.28496 17.3013 6.31624 17.1761 6.31003 17.0498Z" fill="#E54D3C"/>
<path d="M21.95 3.05975C21.9251 2.77835 21.9454 2.49474 22.0101 2.21973C21.995 2.4272 22.0257 2.63549 22.1 2.82977C22.16 2.94977 22.07 3.02975 21.95 3.05975Z" fill="#E54D3C"/>
<path d="M13.87 10.0898C14.0335 10.1917 14.1789 10.3201 14.3 10.4698C14.02 10.4898 13.82 10.4298 13.87 10.0898Z" fill="#E54D3C"/>
<path d="M19.0901 10.47L19.5402 10.0801C19.5902 10.4401 19.3801 10.5 19.0901 10.47Z" fill="#E54D3C"/>
<path d="M26.9601 18.6302C26.9601 18.4002 26.9001 18.1602 27.0301 17.9502C27.0168 18.0821 27.0447 18.2149 27.1101 18.3302C27.2301 18.5002 27.1301 18.5902 26.9601 18.6302Z" fill="#E54D3C"/>
<path d="M6.23015 16.2305C6.36015 16.4205 6.29021 16.6305 6.30021 16.8305C6.10021 16.8305 6.0402 16.6805 6.1602 16.5005C6.20677 16.4182 6.23086 16.325 6.23015 16.2305Z" fill="#E54D3C"/>
<path d="M27.1101 16.7604C27.1101 16.5504 27.1101 16.3404 27.1801 16.1504C27.172 16.2597 27.2002 16.3686 27.2601 16.4604C27.3801 16.6404 27.2801 16.7204 27.1101 16.7604Z" fill="#E54D3C"/>
<path d="M6.08002 14.5098C6.21002 14.6998 6.14008 14.9097 6.15008 15.1097C5.98008 15.1097 5.88007 14.9898 6.01007 14.8098C6.06797 14.7211 6.0927 14.6149 6.08002 14.5098Z" fill="#E54D3C"/>
<path d="M7.49013 14.7399C7.37013 14.5799 7.43018 14.39 7.42018 14.21C7.88018 14.33 7.49013 14.5699 7.49013 14.7399Z" fill="#E54D3C"/>
<path d="M6.16019 15.3301C6.28019 15.5201 6.16014 15.7301 6.23014 15.9301C6.09014 15.9301 5.98012 15.8501 6.08012 15.6801C6.13591 15.572 6.16351 15.4516 6.16019 15.3301Z" fill="#E54D3C"/>
<path d="M21.3601 6.58014C21.3773 6.4206 21.4213 6.26507 21.4901 6.12012C21.7601 6.37012 21.5701 6.47014 21.3601 6.58014Z" fill="#E54D3C"/>
<path d="M27.26 15.0397C27.26 14.8597 27.26 14.6698 27.33 14.5098C27.26 14.6798 27.71 14.9197 27.26 15.0397Z" fill="#E54D3C"/>
<path d="M5.93009 13.1602C6.00692 13.2968 6.03185 13.4566 6.00016 13.6102C5.61016 13.5202 5.90009 13.3202 5.93009 13.1602Z" fill="#E54D3C"/>
<path d="M25.98 14.21C25.98 14.39 25.9801 14.5799 25.9101 14.7399C26.0101 14.5699 25.55 14.33 25.98 14.21Z" fill="#E54D3C"/>
<path d="M27.41 13.6099C27.41 13.4399 27.36 13.2498 27.48 13.0898C27.38 13.2498 27.84 13.4899 27.41 13.6099Z" fill="#E54D3C"/>
<path d="M6.38007 17.9502C6.51007 18.1602 6.38001 18.4002 6.45001 18.6302C6.33001 18.5502 6.24002 18.4802 6.33002 18.3102C6.36854 18.1942 6.38553 18.0722 6.38007 17.9502Z" fill="#E54D3C"/>
<path d="M7.65006 16.3199C7.57284 16.1265 7.54861 15.9159 7.57999 15.71C7.92999 15.87 7.57006 16.1199 7.65006 16.3199Z" fill="#E54D3C"/>
<path d="M11.9202 6.12988C11.9948 6.26904 12.0391 6.42241 12.0502 6.5799C11.8302 6.4799 11.7402 6.33988 11.9202 6.12988Z" fill="#E54D3C"/>
<path d="M5.86001 12.5596C5.97001 12.6996 5.91995 12.8596 5.92995 13.0096C5.58995 12.9196 5.86001 12.7196 5.86001 12.5596Z" fill="#E54D3C"/>
<path d="M7.57997 15.4899C7.45997 15.3299 7.52003 15.14 7.51003 14.96C7.83003 15.1 7.53997 15.3199 7.57997 15.4899Z" fill="#E54D3C"/>
<path d="M25.9102 14.96C25.9102 15.14 25.9101 15.3299 25.8401 15.4899C25.8801 15.3199 25.5802 15.1 25.9102 14.96Z" fill="#E54D3C"/>
<path d="M25.83 15.71V16.2299C25.76 16.0499 25.49 15.87 25.83 15.71Z" fill="#E54D3C"/>
<path d="M27.5601 12.4897C27.5601 12.3197 27.5601 12.1397 27.5601 11.9697C27.7601 12.1397 27.7501 12.3097 27.5601 12.4897Z" fill="#E54D3C"/>
<path d="M6.68005 11.5895C6.47692 11.5809 6.27387 11.608 6.08008 11.6695C6.24008 11.3695 6.49005 11.4795 6.68005 11.5895Z" fill="#E54D3C"/>
<path d="M13.56 9.75L13.8701 10.09C13.6401 10.09 13.49 10.02 13.56 9.75Z" fill="#E54D3C"/>
<path d="M20.3801 8.9696L20.6001 8.59961C20.6601 8.79961 20.6801 8.9796 20.3801 8.9696Z" fill="#E54D3C"/>
<path d="M12.81 8.62012C12.9104 8.71741 12.986 8.83744 13.0301 8.97009C12.7601 8.98009 12.74 8.87012 12.81 8.62012Z" fill="#E54D3C"/>
<path d="M27.3301 14.2897C27.3301 14.1097 27.3302 13.9198 27.4102 13.7598C27.3702 13.9298 27.6601 14.1497 27.3301 14.2897Z" fill="#E54D3C"/>
<path d="M21.6201 5.45032C21.6201 5.32032 21.6201 5.18031 21.7101 5.07031C21.8401 5.23031 21.8701 5.38032 21.6201 5.45032Z" fill="#E54D3C"/>
<path d="M20.9102 7.93011L21.0302 7.62012C21.3002 7.87012 21.0302 7.87011 20.9102 7.93011Z" fill="#E54D3C"/>
<path d="M12.3801 7.62012L12.5101 7.93011C12.3801 7.87011 12.1101 7.87012 12.3801 7.62012Z" fill="#E54D3C"/>
<path d="M21.88 3.81049C21.8545 3.6283 21.8751 3.44266 21.9399 3.27051C21.8899 3.45051 22.07 3.65049 21.88 3.81049Z" fill="#E54D3C"/>
<path d="M5.85004 12.04V12.4901C5.66004 12.3401 5.78004 12.19 5.85004 12.04Z" fill="#E54D3C"/>
<path d="M27.1799 11.6001H26.74C26.89 11.5201 27.0399 11.3901 27.1799 11.6001Z" fill="#E54D3C"/>
<path d="M27.04 17.5798C27.04 17.3998 27.04 17.2098 27.11 17.0498C27.09 17.2298 27.16 17.4098 27.04 17.5798Z" fill="#E54D3C"/>
<path d="M19.6101 10.0205L19.8501 9.73047C19.8601 9.87047 19.8301 10.0405 19.6101 10.0205Z" fill="#E54D3C"/>
<path d="M27.1899 15.78C27.1582 15.6265 27.1832 15.4667 27.26 15.3301C27.24 15.4801 27.2999 15.64 27.1899 15.78Z" fill="#E54D3C"/>
<path d="M11.4901 3.28027C11.5595 3.41944 11.5807 3.57779 11.5501 3.73029C11.4301 3.59029 11.4901 3.43027 11.4901 3.28027Z" fill="#E54D3C"/>
<path d="M6.0101 13.7598C6.1001 13.8698 6.07004 14.0098 6.08004 14.1298C5.98004 14.0198 6.0101 13.8698 6.0101 13.7598Z" fill="#E54D3C"/>
<path d="M7.35001 13.4698C7.28233 13.3555 7.25757 13.2208 7.28006 13.0898C7.38006 13.1998 7.35001 13.3398 7.35001 13.4698Z" fill="#E54D3C"/>
<path d="M28.5901 36.5997C28.5901 36.1897 28.5901 35.7798 28.5901 35.3698C28.5901 35.1198 28.6601 35.0098 28.9301 35.0098H32.8101C33.1001 35.0098 33.1702 35.1198 33.1702 35.3898C33.1702 36.2098 33.1702 37.0297 33.1702 37.8497C33.1391 37.9899 33.058 38.114 32.942 38.1987C32.826 38.2834 32.6832 38.3229 32.5402 38.3098H29.2802C29.1904 38.3187 29.0996 38.3079 29.0144 38.2782C28.9292 38.2485 28.8515 38.2005 28.7867 38.1377C28.722 38.0748 28.6718 37.9986 28.6395 37.9144C28.6073 37.8301 28.5938 37.7398 28.6001 37.6498C28.5901 37.2898 28.5901 36.9397 28.5901 36.5997Z" fill="#C03C2B"/>
<path d="M0.23999 37.8699C0.23999 37.0599 0.23999 36.2499 0.23999 35.4399C0.23999 35.1499 0.300005 35.0198 0.630005 35.0298H4.48999C4.79999 35.0298 4.86999 35.1398 4.85999 35.4198C4.84999 35.6998 4.85999 36.2199 4.85999 36.6199C4.85999 37.0199 4.85999 37.3598 4.85999 37.7298C4.85736 37.8872 4.79303 38.0373 4.68079 38.1477C4.56855 38.2581 4.41742 38.3199 4.26001 38.3199C3.12001 38.3199 1.98998 38.3199 0.849976 38.3199C0.709574 38.34 0.566899 38.3041 0.452759 38.2199C0.338619 38.1357 0.262193 38.0099 0.23999 37.8699Z" fill="#C03C2B"/>
<path d="M19.64 26.2599C18.64 27.2599 17.7 28.2599 16.78 29.2599C16.6 29.2599 16.5299 29.1099 16.4299 29.0099C15.5399 28.1099 14.66 27.1898 13.77 26.2798C13.7768 26.2302 13.7936 26.1824 13.8193 26.1394C13.8451 26.0965 13.8794 26.0592 13.92 26.0298L16.59 23.2599C16.64 23.2599 16.69 23.1498 16.77 23.1598C17.0777 23.5179 17.4119 23.8522 17.77 24.1598L19.49 25.9499C19.49 26.0499 19.64 26.1199 19.64 26.2599Z" fill="#E54D3C"/>
</g>
<defs>
<clipPath id="clip0_1907_4101">
<rect width="33.41" height="38.31" fill="white"/>
</clipPath>
</defs>
</svg>
