<svg width="44" height="49" viewBox="0 0 44 49" fill="none" xmlns="http://www.w3.org/2000/svg">
<path d="M4.6347 48.0003C3.38387 47.4104 3.01591 46.8034 3.19564 45.5905C3.26279 44.9991 3.36661 44.4126 3.50652 43.8344C3.69475 43.1672 3.57574 42.6828 3.02076 42.2401C2.501 41.8231 2.04925 41.3142 1.58535 40.8359C1.06802 40.3049 0.868857 39.677 1.08745 38.9473C1.30604 38.2177 1.79301 37.7443 2.54473 37.6131C3.29644 37.4818 4.06637 37.3555 4.83265 37.2746C5.30262 37.2243 5.59772 37.0404 5.78838 36.5866C6.07134 35.9121 6.41501 35.2646 6.74168 34.6097C7.0975 33.896 7.65369 33.4827 8.46734 33.4839C9.28099 33.4852 9.84084 33.8837 10.1942 34.606C10.5294 35.2903 10.8889 35.9636 11.1876 36.6639C11.3649 37.0784 11.6503 37.2145 12.0559 37.266C12.8513 37.3666 13.6492 37.4634 14.4325 37.6265C14.7581 37.6877 15.0614 37.8362 15.3106 38.0564C15.5598 38.2766 15.7458 38.5606 15.849 38.8783C15.9522 39.1961 15.9688 39.5361 15.8972 39.8626C15.8255 40.1891 15.6682 40.4902 15.4417 40.7341C14.8842 41.3571 14.2746 41.936 13.6577 42.5001C13.3565 42.776 13.3007 43.0691 13.3687 43.4407C13.4974 44.1459 13.6115 44.8535 13.733 45.5598C13.9321 46.7457 13.5423 47.4607 12.4542 47.9157C12.4166 47.9316 12.3911 47.9721 12.3595 48.0015H11.541C10.6423 47.5379 9.75218 47.0572 8.84017 46.6243C8.61617 46.5266 8.36301 46.5222 8.13581 46.612C7.22744 47.0474 6.34214 47.533 5.44835 48.0015L4.6347 48.0003ZM4.6347 45.9658C4.61892 46.4391 4.89944 46.628 5.31355 46.4158C6.02883 46.0479 6.74047 45.68 7.44118 45.2827C7.75291 45.0906 8.11072 44.9883 8.47588 44.9868C8.84104 44.9853 9.19967 45.0846 9.51295 45.2741C10.2161 45.6629 10.9229 46.0442 11.6406 46.4036C11.7814 46.4735 12.0389 46.4992 12.1348 46.4171C12.1963 46.3485 12.2426 46.2676 12.2709 46.1797C12.2991 46.0918 12.3087 45.9988 12.2988 45.9069C12.1871 45.0754 12.0559 44.2452 11.8992 43.4211C11.7656 42.6853 11.9903 42.0978 12.5004 41.5938C13.0529 41.0481 13.62 40.5171 14.1532 39.9529C14.3025 39.796 14.4725 39.5041 14.4179 39.3496C14.3632 39.1951 14.0536 39.0553 13.8459 39.0172C13.1319 38.8885 12.4093 38.8026 11.6891 38.7094C10.8731 38.604 10.2902 38.1968 9.94284 37.4291C9.62831 36.7362 9.29314 36.0507 8.93368 35.3799C8.84017 35.2045 8.63129 35.012 8.46006 34.9899C8.32526 34.9776 8.11638 35.2057 8.02894 35.3725C7.65369 36.0875 7.31124 36.8196 6.95663 37.5456C6.65425 38.1588 6.18185 38.5537 5.49936 38.6579C4.70635 38.7806 3.90971 38.875 3.12157 39.0172C2.90905 39.0553 2.61151 39.1816 2.55079 39.3434C2.49007 39.5053 2.65767 39.7874 2.8034 39.9431C3.31344 40.4876 3.84656 41.0113 4.39061 41.5215C4.99781 42.0954 5.20304 42.7723 5.03788 43.5964C4.87393 44.3887 4.75978 45.1907 4.62984 45.9658H4.6347Z" fill="black"/>
<path d="M8.43941 17.236C9.25306 17.247 9.82262 17.6149 10.176 18.3152C10.5294 19.0154 10.8949 19.7279 11.2119 20.4539C11.3856 20.85 11.6564 20.9739 12.051 21.0205C12.8307 21.1125 13.6067 21.2412 14.3815 21.3688C14.7222 21.413 15.0424 21.5581 15.3017 21.7857C15.561 22.0133 15.7479 22.3133 15.8387 22.6479C16.0622 23.3579 15.9262 24.0153 15.404 24.5536C14.832 25.1435 14.2503 25.7248 13.6455 26.2803C13.5231 26.3819 13.4317 26.5165 13.382 26.6685C13.3324 26.8205 13.3265 26.9835 13.365 27.1388C13.501 27.904 13.6237 28.6717 13.7646 29.437C13.9054 30.2022 13.6844 30.8657 13.0723 31.3501C12.4603 31.8345 11.7657 31.8946 11.0686 31.5463C10.3399 31.1784 9.61739 30.7909 8.90332 30.3923C8.77608 30.3112 8.62872 30.2682 8.47828 30.2682C8.32784 30.2682 8.18048 30.3112 8.05324 30.3923C7.39261 30.7602 6.7174 31.1048 6.05191 31.4666C5.33906 31.8529 4.63471 31.8872 3.95464 31.4126C3.27458 30.938 3.05598 30.2525 3.1847 29.4504C3.30614 28.6668 3.42759 27.8807 3.58546 27.1057C3.62357 26.9675 3.62089 26.8212 3.57774 26.6846C3.53459 26.548 3.45285 26.4271 3.34258 26.3367C2.7621 25.7775 2.19255 25.2073 1.62057 24.6382C1.06681 24.0876 0.85671 23.4327 1.09959 22.6761C1.34247 21.9194 1.85859 21.4816 2.63581 21.3639C3.41302 21.2461 4.18902 21.1186 4.96866 21.0242C5.33298 20.9788 5.57587 20.8353 5.73009 20.4834C6.06163 19.7475 6.42594 19.0264 6.79026 18.3066C6.93411 17.9869 7.16619 17.7159 7.45869 17.526C7.75118 17.3361 8.09169 17.2354 8.43941 17.236ZM4.62984 29.7288C4.60555 30.212 4.88365 30.396 5.32691 30.1679C6.04097 29.8 6.7514 29.4321 7.4521 29.0372C7.75739 28.8497 8.10728 28.7492 8.46457 28.7464C8.82186 28.7436 9.17323 28.8386 9.48138 29.0212C10.1857 29.4063 10.8913 29.7901 11.609 30.1482C11.7596 30.2231 12.0207 30.2513 12.1373 30.1679C12.2538 30.0845 12.3134 29.8245 12.2915 29.6565C12.198 28.9464 12.0923 28.2364 11.9381 27.5373C11.7256 26.5808 11.9502 25.8045 12.6898 25.1521C13.2363 24.6701 13.7439 24.1416 14.2552 23.6204C14.6195 23.2525 14.5199 22.9029 14.0123 22.8146C13.2537 22.6798 12.4915 22.5661 11.7256 22.4737C10.9095 22.3756 10.3108 22.0004 9.95619 21.2327C9.63074 20.5275 9.29192 19.8273 8.9276 19.1479C8.83288 18.9713 8.62764 18.7689 8.4552 18.7493C8.32283 18.7346 8.11153 18.9639 8.02288 19.1319C7.65856 19.8187 7.32096 20.5177 6.99429 21.2228C6.6409 21.9869 6.05191 22.3805 5.23341 22.4762C4.51327 22.562 3.79312 22.6564 3.08027 22.7901C2.8726 22.8281 2.60423 22.9704 2.52772 23.1409C2.47186 23.2635 2.64916 23.5517 2.78275 23.7001C3.31708 24.2617 3.8757 24.8038 4.43189 25.3409C5.01238 25.8977 5.18361 26.5612 5.03182 27.3436C4.88002 28.126 4.76343 28.9317 4.62984 29.7288Z" fill="black"/>
<path d="M11.915 15.573C11.5842 15.4818 11.2597 15.3687 10.9435 15.2346C10.2513 14.8912 9.57366 14.5196 8.89723 14.1468C8.76908 14.0672 8.62123 14.0259 8.47079 14.0276C8.32035 14.0293 8.17347 14.0741 8.04716 14.1566C7.36102 14.5441 6.66032 14.9034 5.96204 15.2603C5.26376 15.6172 4.58733 15.6135 3.94613 15.161C3.30492 14.7085 3.05962 14.0928 3.17377 13.3276C3.29521 12.4986 3.41665 11.6671 3.58545 10.8467C3.62155 10.708 3.61714 10.5617 3.57275 10.4255C3.52836 10.2893 3.44589 10.1689 3.33529 10.079C2.76453 9.53079 2.2059 8.97525 1.64363 8.41481C1.08136 7.85436 0.844557 7.18845 1.09837 6.41585C1.35218 5.64325 1.88651 5.21157 2.67709 5.09997C3.46766 4.98837 4.2303 4.8547 5.01116 4.76027C5.1613 4.75223 5.30605 4.70111 5.42844 4.61292C5.55083 4.52473 5.64579 4.40313 5.70216 4.26237C6.0349 3.54373 6.38828 2.83612 6.73803 2.12484C7.08778 1.41355 7.65248 0.99537 8.46127 0.994143C9.27006 0.992917 9.83475 1.39516 10.1894 2.11626C10.544 2.83735 10.9107 3.55967 11.2483 4.29303C11.3035 4.42579 11.3948 4.53998 11.5118 4.62228C11.6288 4.70457 11.7665 4.75158 11.909 4.75782C12.719 4.86329 13.5241 4.9896 14.3305 5.11469C15.0907 5.23732 15.6019 5.67391 15.8315 6.40604C15.9484 6.73243 15.9693 7.08602 15.8918 7.42417C15.8142 7.76231 15.6414 8.07058 15.3943 8.31179C14.8332 8.89063 14.2649 9.46579 13.6674 10.0042C13.3468 10.2924 13.3031 10.5977 13.3711 10.9852C13.5156 11.7493 13.648 12.5157 13.7755 13.2834C13.9795 14.4472 13.0991 15.5007 11.915 15.573ZM4.62862 13.4882C4.60433 13.9788 4.88121 14.1578 5.3269 13.9297C6.05554 13.5545 6.77812 13.1702 7.49461 12.7769C7.79 12.6019 8.12596 12.5088 8.46846 12.507C8.81096 12.5053 9.14783 12.595 9.44493 12.7671C10.1663 13.1547 10.8828 13.5508 11.6151 13.915C11.7644 13.9898 12.0292 14.0094 12.1433 13.9236C12.2575 13.8377 12.3109 13.5778 12.2891 13.4085C12.198 12.7132 12.1008 12.0142 11.9442 11.3323C11.7195 10.3512 11.9442 9.56635 12.7007 8.90412C13.2266 8.44424 13.716 7.93898 14.1969 7.4325C14.3268 7.29392 14.4616 7.0462 14.4228 6.89413C14.3839 6.74206 14.1313 6.60839 13.9528 6.57528C13.195 6.43547 12.4311 6.33 11.6661 6.22576C10.901 6.12152 10.3302 5.77079 9.99263 5.05828C9.65502 4.34577 9.29678 3.60014 8.92032 2.88518C8.83167 2.71839 8.63129 2.50746 8.4807 2.50501C8.33012 2.50256 8.11638 2.70858 8.03501 2.87291C7.66462 3.57316 7.32337 4.28935 6.98456 5.00555C6.64574 5.72174 6.08105 6.12153 5.29412 6.22331C4.53026 6.32142 3.76518 6.43179 3.0074 6.57037C2.82767 6.60348 2.57507 6.74083 2.53256 6.88309C2.49006 7.02535 2.62 7.28288 2.74752 7.41778C3.29399 7.99049 3.86112 8.5448 4.43189 9.09298C5.00265 9.64116 5.18724 10.3108 5.03909 11.0956C4.89093 11.8805 4.76342 12.6899 4.62983 13.487L4.62862 13.4882Z" fill="black"/>
<path d="M41.8208 18.9357C41.987 18.9297 42.1533 18.9355 42.3187 18.9529C42.5029 18.9667 42.6752 19.0502 42.8012 19.1865C42.9272 19.3229 42.9978 19.5022 42.9988 19.6887C42.9931 19.873 42.9216 20.0489 42.7975 20.1842C42.6734 20.3194 42.5051 20.4048 42.3236 20.4245C42.2026 20.4383 42.0809 20.4428 41.9593 20.438H19.8256C19.2051 20.438 18.882 20.2295 18.8237 19.8015C18.806 19.7072 18.8075 19.6103 18.8279 19.5166C18.8483 19.4229 18.8874 19.3343 18.9426 19.2562C18.9979 19.1782 19.0683 19.1123 19.1495 19.0624C19.2307 19.0126 19.3211 18.9799 19.4152 18.9664C19.5948 18.9395 19.7765 18.9293 19.958 18.9357H41.8208Z" fill="black"/>
<path d="M19.9592 36.6773C19.8077 36.6831 19.656 36.679 19.505 36.6651C19.0654 36.605 18.808 36.3119 18.8189 35.9011C18.8286 35.5135 19.0873 35.2388 19.5063 35.1812C19.6273 35.1695 19.749 35.1658 19.8706 35.1702H41.9156C42.0212 35.1702 42.1281 35.1702 42.2337 35.1702C42.6916 35.2119 43.0012 35.516 43 35.9195C42.9988 36.3229 42.694 36.6246 42.2325 36.6675C42.0965 36.6798 41.9593 36.6675 41.8233 36.6675L19.9592 36.6773Z" fill="black"/>
<path d="M19.8171 25.2293C19.6811 25.24 19.5443 25.2359 19.4091 25.2171C19.0217 25.13 18.8019 24.8847 18.8152 24.4715C18.825 24.079 19.0436 23.8521 19.4115 23.7737C19.5469 23.7569 19.6836 23.7536 19.8196 23.7638H41.9556C42.0921 23.7577 42.2288 23.7601 42.3649 23.7712C42.5338 23.8011 42.6868 23.8901 42.7971 24.0227C42.9074 24.1553 42.9678 24.3228 42.9678 24.496C42.9678 24.6691 42.9074 24.8367 42.7971 24.9693C42.6868 25.1018 42.5338 25.1909 42.3649 25.2208C42.2288 25.2328 42.0921 25.2357 41.9556 25.2293H19.8171Z" fill="black"/>
<path d="M30.9155 8.98997C27.1914 8.98997 23.464 8.98997 19.7333 8.98997C19.1541 8.98997 18.8529 8.76432 18.8201 8.32651C18.8092 8.23137 18.8171 8.13498 18.8433 8.04295C18.8696 7.95092 18.9138 7.86509 18.9732 7.79046C19.0327 7.71582 19.1062 7.65387 19.1896 7.6082C19.273 7.56254 19.3645 7.53408 19.4589 7.52448C19.595 7.51342 19.7317 7.51096 19.8681 7.51711H42.0491C42.6563 7.51711 42.9976 7.78691 42.9988 8.25293C43 8.71894 42.666 8.98874 42.0516 8.98874C38.3396 8.99119 34.6275 8.9916 30.9155 8.98997Z" fill="black"/>
<path d="M19.7333 41.4773C19.1431 41.4773 18.8334 41.232 18.8189 40.7611C18.8119 40.6694 18.8231 40.5773 18.8516 40.49C18.8801 40.4027 18.9255 40.322 18.9852 40.2526C19.0448 40.1831 19.1175 40.1263 19.199 40.0854C19.2805 40.0445 19.3692 40.0203 19.4601 40.0143C19.6132 40.0032 19.7669 40.0003 19.9203 40.0057H41.9131C42.6575 40.0057 42.9976 40.2362 42.9988 40.7415C43 41.2467 42.6454 41.4773 41.9143 41.4773H19.7333Z" fill="black"/>
<path d="M41.9179 2.71104C42.6587 2.71104 43.0049 2.9465 43.0049 3.44685C43.0049 3.9472 42.6405 4.19738 41.9204 4.19738C34.5716 4.19738 27.2237 4.19738 19.8766 4.19738C19.6661 4.20476 19.4559 4.17615 19.2548 4.11276C18.9124 3.99013 18.7837 3.69457 18.8322 3.33893C18.8437 3.18433 18.9093 3.0389 19.0172 2.9286C19.1251 2.8183 19.2683 2.75032 19.4212 2.73679C19.6018 2.7159 19.7836 2.70852 19.9653 2.71472L41.9179 2.71104Z" fill="black"/>
<path d="M35.3554 28.5528C35.5212 28.5442 35.6874 28.5549 35.8508 28.5846C36.2152 28.6729 36.441 28.9256 36.4374 29.3008C36.4475 29.4802 36.3877 29.6564 36.2708 29.7918C36.154 29.9273 35.9893 30.0112 35.812 30.0256C35.6474 30.0479 35.4813 30.0573 35.3153 30.0538H19.9204C19.7988 30.0571 19.6773 30.0543 19.556 30.0452C19.0788 29.995 18.8128 29.7153 18.8274 29.2824C18.842 28.8495 19.1286 28.5662 19.601 28.5564C20.479 28.5405 21.357 28.5564 22.2362 28.5564L35.3554 28.5528Z" fill="black"/>
<path d="M35.4027 12.3158C36.0731 12.3158 36.4471 12.5893 36.4471 13.0676C36.4471 13.5459 36.0694 13.823 35.4039 13.823H19.8232C19.7467 13.823 19.6714 13.823 19.5961 13.823C19.0994 13.7801 18.8079 13.4882 18.8189 13.048C18.8286 12.6273 19.1152 12.3465 19.5949 12.3244C20.0029 12.3048 20.4122 12.3183 20.8214 12.3183L35.4027 12.3158Z" fill="black"/>
<path d="M27.5941 44.7958C30.1986 44.7958 32.8031 44.7958 35.4076 44.7958C35.5877 44.7878 35.768 44.8081 35.9419 44.8559C36.0989 44.8967 36.2358 44.994 36.3268 45.1295C36.4178 45.2649 36.4567 45.4293 36.4362 45.5917C36.4338 45.7629 36.3676 45.9269 36.2508 46.051C36.1339 46.1751 35.9751 46.2502 35.8059 46.2613C35.6554 46.2766 35.5042 46.2828 35.353 46.2797H19.9094C19.1419 46.2797 18.8262 46.07 18.8165 45.5586C18.808 45.0239 19.1395 44.7934 19.9167 44.7934L27.5941 44.7958Z" fill="black"/>
<path d="M7.74599 41.4454C8.37505 40.8004 8.9361 40.2056 9.52023 39.6329C9.96227 39.1987 10.6132 39.3165 10.7456 39.8781C10.7689 40.0141 10.7635 40.1536 10.7298 40.2873C10.6961 40.4211 10.6349 40.5462 10.55 40.6544C9.83475 41.4393 9.07575 42.1849 8.31797 42.9293C7.97915 43.2616 7.57476 43.2506 7.22501 42.9293C6.93679 42.6595 6.6591 42.3791 6.39193 42.088C6.07862 41.7483 6.06769 41.313 6.34579 41.0186C6.64696 40.6998 7.07443 40.7059 7.43025 41.0481C7.54471 41.1728 7.65022 41.3056 7.74599 41.4454Z" fill="black"/>
<path d="M7.7472 25.1975C8.3629 24.5671 8.89967 24.0091 9.44736 23.4609C9.85419 23.0526 10.2707 23.0219 10.5974 23.3579C10.9241 23.6939 10.8816 24.1048 10.476 24.5181C9.79589 25.2122 9.11259 25.9026 8.42605 26.5894C7.96093 27.0542 7.60147 27.0542 7.14122 26.6016C6.89834 26.3564 6.64209 26.1111 6.40528 25.8572C6.07497 25.5016 6.06768 25.0515 6.37249 24.7535C6.67731 24.4555 7.09021 24.48 7.42903 24.7964C7.54374 24.9229 7.65003 25.0568 7.7472 25.1975Z" fill="black"/>
<path d="M7.79942 8.91394C8.38719 8.30934 8.93975 7.72437 9.51173 7.15902C9.8882 6.79112 10.3193 6.79848 10.6241 7.15167C10.6877 7.21808 10.7376 7.29664 10.7708 7.38274C10.804 7.46884 10.8199 7.56076 10.8175 7.65313C10.8152 7.7455 10.7946 7.83646 10.757 7.92071C10.7194 8.00495 10.6656 8.08079 10.5986 8.14379C9.84083 8.93111 9.07171 9.7078 8.29126 10.4739C7.95487 10.8025 7.59298 10.7866 7.24445 10.4616C6.94489 10.182 6.65668 9.89093 6.37979 9.58843C6.07134 9.25364 6.07741 8.81338 6.37008 8.52396C6.64454 8.25293 7.07078 8.25171 7.39381 8.52396C7.51768 8.63188 7.63305 8.75451 7.79942 8.91394Z" fill="black"/>
</svg>
