<svg width="14" height="14" viewBox="0 0 14 14" fill="none" xmlns="http://www.w3.org/2000/svg">
<g clip-path="url(#clip0_302_3312)">
<path d="M6.25007 13.2525C5.78071 13.2216 5.35065 13.4149 4.90039 13.4886C4.47033 13.3992 4.20181 13.1208 4.01134 12.7477C3.90983 12.5484 3.80922 12.3489 3.70953 12.1492C3.55398 11.8378 3.32204 11.6173 2.97766 11.5188C2.74243 11.4511 2.51103 11.3693 2.27962 11.2881C1.64981 11.0676 1.35182 10.5693 1.43587 9.91291C1.47353 9.62532 1.50027 9.33502 1.515 9.04634C1.5281 8.79558 1.43041 8.5708 1.27159 8.3742C1.08822 8.14726 0.898289 7.92576 0.725827 7.68854C0.353068 7.16751 0.361253 6.68602 0.751476 6.17691C0.93267 5.93968 1.13024 5.716 1.30816 5.47607C1.46763 5.26195 1.53728 4.99481 1.50245 4.73081C1.4708 4.42209 1.42713 4.11284 1.41567 3.80412C1.3982 3.34538 1.59195 2.97655 2.00073 2.74096C2.29162 2.57306 2.61964 2.49398 2.93727 2.39595C3.10806 2.3478 3.2666 2.26425 3.40245 2.15082C3.5383 2.03739 3.64836 1.89665 3.72536 1.7379C3.81923 1.54996 3.91637 1.36365 4.00915 1.17572C4.13031 0.929826 4.2624 0.695307 4.52109 0.563155C4.55984 0.543657 4.52873 0.520901 4.52109 0.50032C4.67117 0.44291 4.81743 0.496541 4.96097 0.525788C5.20056 0.575074 5.43797 0.634091 5.67429 0.696917C5.94354 0.776167 6.23109 0.769354 6.49621 0.677427C6.76589 0.654411 7.02614 0.567878 7.25537 0.42503C7.4567 0.290061 7.66693 0.168651 7.88464 0.0616134C7.93922 0.0356163 7.86772 0.0312887 7.87427 0.012874C8.2323 -0.0412867 8.5292 0.0854409 8.77861 0.329164C8.98218 0.529017 9.17592 0.738641 9.36967 0.947702C9.48342 1.07427 9.62271 1.17568 9.7785 1.24537C9.93429 1.31507 10.1031 1.35149 10.274 1.35227C10.5802 1.36093 10.888 1.3642 11.1925 1.39453C11.4218 1.41562 11.638 1.50945 11.8093 1.66213C11.9805 1.81481 12.0977 2.0182 12.1433 2.24214C12.206 2.52594 12.2562 2.81244 12.3037 3.09895C12.3261 3.26018 12.3833 3.4147 12.4716 3.55186C12.5599 3.68902 12.6771 3.80557 12.8151 3.89348C13.0192 4.0278 13.219 4.16918 13.4203 4.30783C13.9579 4.67938 14.1364 5.27298 13.8919 5.87849C13.7958 6.1168 13.696 6.35347 13.6015 6.59232C13.485 6.87766 13.485 7.19684 13.6015 7.48219C13.7031 7.73999 13.8111 7.99507 13.911 8.25342C14.1189 8.79178 13.9612 9.31335 13.488 9.65131C13.2779 9.80079 13.064 9.94542 12.8495 10.0895C12.704 10.1842 12.5802 10.3082 12.4862 10.4535C12.3921 10.5988 12.33 10.7621 12.3037 10.9328C12.2568 11.1987 12.2126 11.4657 12.152 11.7289C12.0297 12.2581 11.645 12.5841 11.1036 12.6204C10.8307 12.6388 10.5578 12.6448 10.2849 12.6545C10.114 12.6558 9.94522 12.6918 9.78892 12.7603C9.63262 12.8289 9.49216 12.9286 9.37622 13.0531C9.1943 13.2463 9.01147 13.4377 8.82773 13.6273C8.66891 13.7897 8.49154 13.923 8.25576 13.9522C7.9283 13.9257 7.69308 13.6955 7.41529 13.5596C7.30614 13.5054 7.20517 13.4345 7.09874 13.3754C6.83132 13.2265 6.54588 13.2016 6.25007 13.2525Z" fill="#00D466"/>
<path d="M4.52108 0.5L4.71427 0.523272C4.31531 0.678713 4.15868 0.984195 4.00805 1.2967C3.90376 1.52427 3.78623 1.7456 3.65603 1.95962C3.51338 2.17526 3.2999 2.33526 3.05186 2.41242C2.73859 2.52074 2.41168 2.5971 2.11151 2.74333C1.62032 2.98218 1.40912 3.42467 1.49207 3.95978C1.54526 4.27771 1.57245 4.59938 1.57339 4.92166C1.57012 5.30079 1.31414 5.57485 1.08765 5.85215C0.971948 5.99351 0.855703 6.13378 0.743275 6.27676C0.602159 6.45599 0.521473 6.67476 0.512657 6.90204C0.50384 7.12933 0.56734 7.3536 0.694155 7.54306C0.879169 7.80791 1.08548 8.0592 1.2885 8.31104C1.49153 8.56289 1.60067 8.84021 1.55538 9.18359C1.51499 9.48852 1.48662 9.79777 1.46642 10.1043C1.43368 10.5988 1.76877 11.0559 2.26651 11.2271C2.50392 11.3089 2.74023 11.3971 2.982 11.4632C3.35804 11.5656 3.60146 11.805 3.76792 12.144C3.89926 12.4112 4.03861 12.6741 4.18597 12.9326C4.30605 13.1388 4.4945 13.2973 4.71918 13.381C4.78358 13.407 4.87528 13.3935 4.90038 13.4894C4.31041 13.589 3.86015 13.3642 3.59054 12.834C3.4732 12.6055 3.35968 12.3758 3.24288 12.1467C3.0917 11.8505 2.8674 11.6392 2.54103 11.5396C2.29435 11.4643 2.04984 11.3771 1.80589 11.2975C1.24102 11.1112 0.941939 10.6882 0.973593 10.0994C0.989966 9.80317 1.02817 9.50745 1.056 9.21173C1.07265 9.06016 1.05752 8.90682 1.01159 8.76133C0.965668 8.61584 0.889922 8.48134 0.789117 8.36629C0.610834 8.15326 0.436737 7.93661 0.266822 7.71636C-0.0884721 7.25545 -0.0862914 6.74147 0.271186 6.28002C0.445831 6.05525 0.625936 5.83481 0.806039 5.61438C0.897253 5.50903 0.966458 5.38676 1.00965 5.25464C1.05284 5.12252 1.06915 4.98318 1.05763 4.84476C1.03143 4.52846 0.990512 4.2127 0.973593 3.89586C0.942485 3.32013 1.24648 2.89227 1.79224 2.70975C2.03729 2.62851 2.28016 2.5424 2.52739 2.46766C2.8614 2.36747 3.09116 2.15243 3.24616 1.85021C3.37551 1.59728 3.49503 1.34002 3.63202 1.09196C3.82249 0.744248 4.11011 0.527622 4.52108 0.5Z" fill="#00B457"/>
<path d="M6.25 13.2525C6.50869 13.1035 6.77175 13.1626 7.01134 13.2774C7.43649 13.481 7.82126 13.7605 8.2546 13.9511C7.95224 14.0481 7.66736 13.9955 7.39829 13.8428C7.14506 13.7009 6.8951 13.553 6.64568 13.4041C6.5207 13.3373 6.38777 13.2864 6.25 13.2525V13.2525Z" fill="#01B557"/>
<path d="M7.8744 0.0125473L8.01412 0.0374591C7.5655 0.254102 7.22384 0.591523 6.74957 0.687388C6.66279 0.705261 6.57875 0.733969 6.49634 0.6771C6.78941 0.507577 7.08248 0.33695 7.37665 0.167968C7.53056 0.0796864 7.68993 0.00658959 7.8744 0.0125473Z" fill="#02B558"/>
<path d="M5.89382 9.69114C5.77028 9.6954 5.64733 9.67219 5.53401 9.62317C5.42069 9.57416 5.31985 9.50059 5.2389 9.40788C4.5043 8.58084 3.7697 7.75381 3.04492 6.91648C2.96857 6.82938 2.9103 6.72817 2.87349 6.61865C2.83668 6.50914 2.82205 6.39348 2.83041 6.27832C2.83878 6.16317 2.86999 6.05079 2.92226 5.94765C2.97452 5.84451 3.04681 5.75263 3.13497 5.67729C3.49463 5.37345 4.04804 5.42057 4.38314 5.79482C4.88634 6.35556 5.38517 6.91993 5.87963 7.4879C5.97241 7.59622 6.02099 7.59945 6.13233 7.51008C7.32319 6.55198 8.52114 5.60255 9.71364 4.64607C9.92212 4.47926 10.1432 4.3563 10.4188 4.37797C10.5933 4.39045 10.7601 4.45472 10.8974 4.5624C11.0347 4.67008 11.1363 4.81623 11.1888 4.98188C11.2457 5.14668 11.2489 5.32505 11.198 5.49175C11.147 5.65845 11.0446 5.80502 10.9051 5.91073C9.4293 7.09902 7.95173 8.28584 6.47234 9.47124C6.31256 9.61142 6.10708 9.68952 5.89382 9.69114V9.69114Z" fill="#FEFEFE"/>
</g>
<defs>
<clipPath id="clip0_302_3312">
<rect width="14" height="14" fill="white"/>
</clipPath>
</defs>
</svg>
