<svg width="35" height="35" viewBox="0 0 35 35" fill="none" xmlns="http://www.w3.org/2000/svg">
<g clip-path="url(#clip0_238_149)">
<path d="M34.9821 2.27127C34.9821 4.04857 34.9821 5.82493 34.9944 7.60222C34.9944 7.88553 34.8886 7.92613 34.643 7.92519C32.4417 7.91763 30.2395 7.92518 28.0382 7.91385C27.9242 7.90253 27.8095 7.92656 27.7096 7.98264C27.6097 8.03873 27.5295 8.12415 27.4799 8.22736C26.9533 9.15768 26.0988 9.85838 25.0831 10.1926C23.9598 10.5703 22.8308 10.932 21.7047 11.3041C21.5828 11.3438 21.4666 11.4033 21.3485 11.4533C20.7146 11.7612 20.0693 12.0322 19.3428 11.9897C19.1663 11.9754 18.9958 11.9187 18.8459 11.8245C17.9635 11.3844 17.7027 10.0509 18.6125 9.28977C19.0717 8.97246 19.6168 8.85347 20.1241 8.64854C20.3291 8.56544 20.5426 8.49841 20.7476 8.41342C21.1973 8.27743 21.6281 8.08478 22.0759 7.94124C22.1993 7.90329 22.3133 7.84011 22.4109 7.75573C22.5085 7.67135 22.5875 7.56763 22.6428 7.45112C22.9602 6.83539 23.3117 6.23852 23.631 5.6228C24.1752 4.67843 24.0882 4.94384 23.5563 4.13169C23.2068 3.59812 22.7817 3.42999 22.1723 3.47626C21.5629 3.52253 20.9262 3.4763 20.3036 3.48857C19.5799 3.49802 18.9526 3.72749 18.4387 4.26578C17.7887 4.94572 17.1094 5.59733 16.4481 6.26688C16.0031 6.66351 15.5572 7.0592 15.1424 7.48888C14.7759 7.86663 13.9549 8.06117 13.4929 7.77219C13.1698 7.53421 12.7815 7.36232 12.6521 6.93075C12.6776 6.76549 12.8042 6.67014 12.911 6.56343C14.2912 5.18182 15.6668 3.79546 17.0565 2.4233C17.9852 1.50633 19.1028 1.02943 20.4217 1.03604C22.0221 1.04359 23.6225 1.06154 25.2229 1.03604C26.8998 1.00393 28.5002 1.29951 30.0165 2.02006C30.2533 2.12872 30.5119 2.18172 30.7723 2.17495C32.0081 2.17054 33.2435 2.17054 34.4786 2.17495C34.6505 2.17023 34.8347 2.13529 34.9821 2.27127Z" fill="#FED1A5"/>
<path d="M26.2931 22.7592C26.8949 22.7224 27.4693 22.7724 27.9304 23.2314C28.6862 23.9822 28.5851 25.2759 27.6819 25.835C26.5643 26.5272 25.4145 27.1703 24.2761 27.8285C22.3431 28.9454 20.4092 30.0607 18.4744 31.1744C17.6024 31.6787 16.6794 31.8959 15.6713 31.7552C15.1376 31.6815 14.5934 31.7136 14.0539 31.6768C12.8352 31.5956 11.6118 31.5984 10.3949 31.5021C9.82241 31.4558 9.24423 31.5087 8.67455 31.3945C8.54606 31.368 8.39114 31.3368 8.26832 31.4379C8.08788 31.47 8.03591 31.3085 7.95655 31.2122C6.7435 29.7531 5.51249 28.3092 4.29566 26.8539C4.21318 26.7698 4.15337 26.6662 4.12182 26.5527C4.11794 26.5161 4.12182 26.4791 4.13317 26.4441C4.51107 25.9814 5.01273 25.6688 5.45581 25.2806C5.86961 24.9161 6.29191 24.5582 6.72365 24.2135C8.11432 23.1039 9.84132 22.9764 11.3624 23.9094C12.2247 24.4414 13.1871 24.7908 14.19 24.9359C15.7705 25.1739 17.3416 25.4733 18.9231 25.7084C19.1404 26.0163 19.0441 26.344 18.9789 26.6679C18.9379 26.8121 18.8805 26.9512 18.8079 27.0825C18.241 27.82 17.5136 28.0646 16.5962 27.8871C15.199 27.617 13.797 27.3705 12.3921 27.1382C11.9028 27.0579 11.6439 27.175 11.6033 27.4914C11.5645 27.7841 11.7714 27.957 12.2429 28.0439C13.7006 28.3111 15.1621 28.5604 16.6189 28.8324C18.3195 29.1487 19.7167 28.0429 19.9255 26.582C19.9396 26.5129 19.9608 26.4455 19.9888 26.3808C20.0853 26.2216 20.2266 26.0945 20.3951 26.0154C21.2671 25.581 22.089 25.0587 22.9364 24.5808C23.9067 24.0331 24.8647 23.4627 25.8349 22.915C25.9766 22.8347 26.1193 22.7507 26.2931 22.7592Z" fill="#FED1A5"/>
<path d="M20.7902 8.48504C20.092 8.79763 19.3381 8.97139 18.6608 9.33497C18.486 9.30286 18.3915 9.15271 18.2592 9.05922C17.5167 8.53699 16.7335 8.39817 15.903 8.82313C15.0896 9.24243 14.723 9.94599 14.7259 10.8394C14.7259 11.7176 15.4023 12.5609 16.2696 12.8225C17.1369 13.0841 18.144 12.7451 18.6466 12.0141C18.7127 11.9197 18.7609 11.8073 18.8686 11.745C19.3476 12.0113 19.8266 11.9178 20.3141 11.7629C20.657 11.6543 20.9848 11.4947 21.3533 11.4551C21.1643 13.2154 19.5951 14.8548 17.7821 15.1891C15.3437 15.6415 13.0433 14.1616 12.4916 11.7497C12.1524 10.2661 12.5038 8.93175 13.5015 7.77396C13.7367 7.73618 13.9559 7.85799 14.1968 7.82588C14.6189 7.773 15.0069 7.567 15.287 7.24699C15.6276 6.87492 16.0003 6.53364 16.4009 6.2271C16.7344 6.05334 17.0868 6.12228 17.4316 6.15816C18.0261 6.21983 18.6013 6.40409 19.1208 6.69928C19.7162 7.03279 20.232 7.49161 20.6324 8.04403C20.7137 8.17152 20.8308 8.30089 20.7902 8.48504Z" fill="#FEEA5A"/>
<path d="M4.16629 26.5753L8.26839 31.4388C8.3109 31.4935 8.35246 31.5512 8.39781 31.605C8.87018 32.1584 8.87017 32.1546 8.32128 32.6079C7.40676 33.3634 6.49226 34.1274 5.58908 34.8989C5.42186 35.0415 5.34344 35.033 5.20551 34.8668C3.7084 33.0669 2.20657 31.2703 0.700018 29.4773C0.615936 29.3168 0.739692 29.2422 0.836056 29.1609C1.81103 28.3425 2.78727 27.524 3.76477 26.7056C3.87341 26.614 3.98867 26.4752 4.16629 26.5753Z" fill="#008036"/>
<path d="M20.4177 26.0758L20.0682 26.3591C19.6572 26.6585 19.2642 26.9937 18.7323 27.0674C18.9014 26.633 19.0507 26.1958 18.875 25.7245C18.67 25.4623 18.5103 25.1677 18.4026 24.8529C18.5074 24.5762 18.7181 24.3618 18.8428 24.0974C19.2311 23.2578 19.096 22.4693 18.532 21.7865C18.2936 21.4821 17.9729 21.2523 17.6079 21.1245C17.2429 20.9966 16.8488 20.9759 16.4725 21.065C15.6071 21.2444 15.0327 21.7789 14.7974 22.6449C14.7015 22.9743 14.6911 23.3228 14.7672 23.6573C14.7927 23.7668 14.8428 23.8849 14.7521 23.9935C13.9346 24.0343 13.1238 23.829 12.4243 23.4042C12.3985 23.3899 12.378 23.3677 12.3661 23.3407C12.3541 23.3138 12.3513 23.2837 12.3581 23.255C12.4393 20.9829 13.7658 19.2887 15.8622 18.7844C18.4054 18.1705 20.9638 19.8987 21.3502 22.492L21.4126 22.9103C21.4634 22.9604 21.4934 23.0279 21.4966 23.0992C21.5127 24.2258 21.2245 25.2448 20.4177 26.0758Z" fill="#FEEA5A"/>
<path d="M34.982 2.27119C33.8644 2.27119 32.7449 2.23437 31.6291 2.27875C30.7986 2.31539 29.9716 2.15111 29.2182 1.79993C28.2073 1.34002 27.1133 1.1559 26.006 1.14362C24.1477 1.1219 22.2884 1.14364 20.432 1.13514C19.1302 1.12853 18.0314 1.59975 17.1159 2.50917C15.7228 3.89424 14.3327 5.28246 12.9458 6.67382C12.8514 6.76826 12.7569 6.84567 12.6624 6.93066C12.3043 6.26961 12.4243 5.60009 13.0734 4.9362C14.0928 3.8974 15.131 2.8671 16.1665 1.83963C17.1792 0.835772 18.3762 0.191715 19.8075 0.0198404C19.9363 0.00818193 20.0656 0.0040476 20.1949 0.00752859C22.1486 0.00752859 24.1024 -0.0132179 26.0523 0.0141686C27.4865 0.0365487 28.8995 0.363263 30.1978 0.972688C30.4292 1.08496 30.6833 1.14245 30.9404 1.14076C32.1525 1.13227 33.3656 1.15022 34.5767 1.1285C34.9263 1.12283 35.034 1.23334 34.9962 1.5667C34.9792 1.80112 34.9744 2.03627 34.982 2.27119Z" fill="#FEE3C9"/>
<path d="M12.3611 23.252C12.9044 23.6477 13.5421 23.7752 14.1845 23.8866C14.3782 23.9197 14.5756 23.9348 14.7702 23.9584C14.8799 23.9136 15.0017 23.9079 15.1151 23.9423C15.9219 24.0783 16.7344 24.1926 17.5364 24.3541C17.8917 24.4258 18.2393 24.5429 18.4434 24.8876C18.6267 25.1464 18.8213 25.3985 18.8751 25.7253C18.4869 25.8565 18.1241 25.6743 17.7566 25.6177C16.4169 25.4146 15.0848 25.1681 13.7461 24.9566C12.8732 24.8168 12.09 24.4646 11.3399 24.0122C9.83393 23.1066 8.33462 23.1425 6.93168 24.186C5.96615 24.9028 5.08469 25.731 4.16546 26.5091C4.0143 26.5384 3.92928 26.4298 3.85181 26.3372C3.67514 26.1276 3.48713 25.9283 3.31519 25.7149C4.14089 25.0246 4.99213 24.3616 5.7876 23.6373C7.56845 22.0168 10.0201 21.7939 12.0447 23.1094C12.1356 23.1843 12.2448 23.2335 12.3611 23.252Z" fill="#FEE3C9"/>
<path d="M20.4177 26.0758C20.6501 25.6603 20.9449 25.2788 21.114 24.8283C21.3457 24.2156 21.4483 23.5617 21.4154 22.9075C22.1806 22.5477 22.8892 22.0897 23.6166 21.6647C24.79 20.981 25.953 21.4485 26.2931 22.7592C25.3383 23.307 24.3831 23.855 23.4277 24.4034C22.5529 24.9076 21.6818 25.4186 20.806 25.921C20.686 25.9899 20.5679 26.0777 20.4177 26.0758Z" fill="#F8BD89"/>
<path d="M3.31511 25.7141C3.56075 25.7623 3.64766 25.9842 3.78749 26.1447C3.90369 26.2741 4.00194 26.4281 4.16538 26.5083C4.16538 26.531 4.16538 26.5527 4.16538 26.5754C3.65239 26.7813 3.31511 27.2157 2.89187 27.5452C2.19276 28.093 1.53049 28.687 0.847437 29.2555C0.807594 29.2789 0.773571 29.3111 0.747888 29.3495C0.722205 29.3879 0.705531 29.4316 0.699117 29.4774C0.518671 29.264 0.360895 29.0232 0.152106 28.8419C-0.124705 28.602 0.0198501 28.4783 0.220136 28.3111C1.25652 27.4499 2.2844 26.581 3.31511 25.7141Z" fill="#28B446"/>
<path d="M6.71231 4.25056C6.71231 4.8304 6.53942 5.08917 6.14546 5.092C5.7515 5.09483 5.57861 4.83322 5.57861 4.25904C5.57861 3.65937 5.76002 3.39119 6.15775 3.40063C6.55549 3.41007 6.71231 3.66316 6.71231 4.25056Z" fill="#FEEA5A"/>
<path d="M4.72568 6.22528C4.1456 6.22528 3.88862 6.05151 3.88673 5.65866C3.88484 5.2658 4.14465 5.09204 4.72189 5.09204C5.31992 5.09204 5.58915 5.27524 5.57876 5.67282C5.56837 6.07039 5.3152 6.22528 4.72568 6.22528Z" fill="#FEEA5A"/>
<path d="M7.57314 6.22534C6.97228 6.22534 6.70491 6.04495 6.71435 5.64549C6.7238 5.24602 6.97416 5.09399 7.56462 5.09399C8.15509 5.09399 8.40357 5.26586 8.40641 5.65494C8.40924 6.04402 8.14754 6.2244 7.57314 6.22534Z" fill="#FEEA5A"/>
<path d="M6.70102 7.11763C6.71429 7.23404 6.71429 7.35158 6.70102 7.46799C6.63205 7.7513 6.44498 7.91658 6.14833 7.91564C5.85168 7.91469 5.64667 7.75037 5.60227 7.46517C5.56585 7.20928 5.56585 6.94953 5.60227 6.69364C5.61384 6.56229 5.67595 6.44056 5.77551 6.35407C5.87507 6.26758 6.00434 6.22307 6.13606 6.22994C6.44877 6.22333 6.64528 6.3952 6.70291 6.70212C6.71664 6.84187 6.71664 6.98264 6.70291 7.12238L6.70102 7.11763Z" fill="#FEEA5A"/>
<path d="M28.7675 15.5517C28.7675 16.1353 28.5984 16.3913 28.2101 16.4016C27.8218 16.412 27.6367 16.1429 27.6357 15.5725C27.6357 14.9691 27.8124 14.7037 28.2101 14.7103C28.6079 14.7169 28.7675 14.9709 28.7675 15.5517Z" fill="#FEEA5A"/>
<path d="M3.319 16.1231C3.319 16.702 3.14516 16.9617 2.75215 16.9626C2.35914 16.9636 2.1853 16.7039 2.1853 16.1278C2.1853 15.53 2.3667 15.2609 2.76538 15.2713C3.16406 15.2817 3.319 15.5376 3.319 16.1231Z" fill="#FEEA5A"/>
<path d="M26.7835 17.5302C26.2015 17.5302 25.9445 17.3592 25.9417 16.9692C25.9388 16.5792 26.1986 16.4026 26.774 16.4026C27.3739 16.4026 27.6432 16.5829 27.6337 16.9805C27.6243 17.3781 27.3701 17.5302 26.7835 17.5302Z" fill="#FEEA5A"/>
<path d="M29.6205 17.5303C29.0319 17.5303 28.7787 17.366 28.7702 16.9788C28.7617 16.5916 29.0281 16.3999 29.6281 16.3999C29.7102 16.3999 29.7934 16.3999 29.8746 16.3999C30.2336 16.4188 30.4642 16.6435 30.4623 16.9665C30.4604 17.2895 30.228 17.5105 29.8671 17.5275C29.7849 17.5331 29.7027 17.5303 29.6205 17.5303Z" fill="#FEEA5A"/>
<path d="M1.34534 18.096C0.756765 18.096 0.503573 17.9326 0.49507 17.5454C0.486567 17.1582 0.752993 16.9646 1.35291 16.9656C1.4351 16.9656 1.51729 16.9656 1.59948 16.9656C1.95754 16.9845 2.189 17.2083 2.18711 17.5322C2.18522 17.8561 1.95376 18.0761 1.59381 18.0941C1.50973 18.0988 1.42753 18.095 1.34534 18.096Z" fill="#FEEA5A"/>
<path d="M4.16622 18.096C3.58237 18.096 3.32729 17.9279 3.32068 17.5388C3.31406 17.1497 3.57765 16.9656 4.14922 16.9656C4.75291 16.9656 5.01932 17.1422 5.01271 17.5398C5.0061 17.9373 4.75102 18.096 4.16622 18.096Z" fill="#FEEA5A"/>
<path d="M27.6357 18.3764C27.6357 17.7937 27.8058 17.5377 28.1941 17.533C28.5824 17.5283 28.7666 17.7909 28.7675 18.3622C28.7675 18.9638 28.588 19.231 28.1912 19.2244C27.7944 19.2178 27.6357 18.9619 27.6357 18.3764Z" fill="#FEEA5A"/>
<path d="M3.31885 18.944C3.31885 19.5267 3.14973 19.7835 2.76144 19.7939C2.37315 19.8043 2.18799 19.5361 2.18799 18.9657C2.18799 18.8836 2.18799 18.8014 2.18799 18.7193C2.20216 18.3368 2.42511 18.0979 2.76144 18.1026C3.09777 18.1073 3.3009 18.3387 3.3179 18.7022C3.32168 18.7797 3.3179 18.8618 3.31885 18.944Z" fill="#FEEA5A"/>
<path d="M19.148 6.79376C18.299 6.35823 17.3471 6.16234 16.395 6.22714C17.1631 5.44898 17.9114 4.65004 18.7068 3.9021C19.0847 3.5423 19.6166 3.41573 20.141 3.40534C21.0347 3.38646 21.9293 3.40538 22.8231 3.39783C22.9098 3.3907 22.9968 3.40764 23.0745 3.4468C23.1521 3.48596 23.2175 3.54579 23.2633 3.61972C23.5099 3.9748 23.7839 4.31103 24.0494 4.65289C24.107 4.72655 24.2147 4.8068 24.1514 4.89369C23.9728 5.13828 23.9247 5.46032 23.679 5.66241C23.5515 5.77479 23.3956 5.75685 23.2444 5.75685C22.6776 5.75685 22.1174 5.78046 21.5562 5.75685C20.7399 5.71624 20.0673 6.00142 19.4928 6.56237C19.3908 6.66058 19.2982 6.77015 19.148 6.79376Z" fill="#F8BD89"/>
<path d="M18.8686 11.7432C18.6059 12.51 17.6309 13.0823 16.7164 13.0068C16.1258 12.9552 15.5782 12.6765 15.1889 12.2295C14.7996 11.7824 14.5991 11.2019 14.6295 10.61C14.6636 10.1517 14.8332 9.71383 15.1168 9.35213C15.4004 8.99044 15.7853 8.72122 16.2223 8.57866C17.0509 8.30574 18.0967 8.6306 18.6607 9.33415C18.0183 10.0963 17.9569 10.7092 18.4434 11.3815C18.5549 11.5421 18.724 11.628 18.8686 11.7432Z" fill="#F9DB3B"/>
<path d="M18.7325 27.0684C19.1973 26.8701 19.5932 26.5386 20.0684 26.3601C19.9805 27.0816 19.7132 27.7171 19.1699 28.2186C18.4548 28.8796 17.6102 29.0978 16.6616 28.9344C15.1302 28.67 13.6007 28.3942 12.0683 28.1279C11.5487 28.0335 11.3276 27.6265 11.5855 27.2185C11.7499 26.9588 12.0078 26.9683 12.2468 27.0089C13.3531 27.1978 14.4547 27.4065 15.5601 27.6019C16.0655 27.6917 16.5728 27.7842 17.083 27.8418C17.341 27.8747 17.6032 27.8422 17.8454 27.7473C18.0876 27.6524 18.302 27.4982 18.4689 27.2988C18.5519 27.2166 18.6399 27.1396 18.7325 27.0684Z" fill="#F8BD89"/>
<path d="M18.4432 24.8869C17.8377 24.3807 17.0752 24.3826 16.3572 24.2438C15.8291 24.1427 15.2991 24.0549 14.7701 23.9605C14.589 23.4804 14.5792 22.9525 14.7422 22.466C14.9051 21.9795 15.231 21.5641 15.6647 21.2898C16.532 20.7232 17.712 20.7949 18.4498 21.5448C19.2944 22.4022 19.4541 23.5884 18.5689 24.7216C18.5254 24.7754 18.4848 24.8321 18.4432 24.8869Z" fill="#F9DB3B"/>
</g>
<defs>
<clipPath id="clip0_238_149">
<rect width="35" height="35" fill="white"/>
</clipPath>
</defs>
</svg>
