<svg width="32" height="27" viewBox="0 0 32 27" fill="none" xmlns="http://www.w3.org/2000/svg">
<g clip-path="url(#clip0_1491_4514)">
<path d="M29.063 5.22324C25.9068 3.41799 21.8708 4.4907 20.0468 7.61802L15.449 15.5096C14.1186 17.7885 15.8313 18.5848 17.7411 19.7193L22.1653 22.2494C23.6635 23.1056 25.5771 22.5973 26.4413 21.1148L31.1678 13.0047C32.7557 10.2795 31.8135 6.79658 29.063 5.22324Z" fill="#EA4335"/>
<path d="M23.8605 8.48911L19.4364 5.95909C16.9941 4.61579 15.611 4.52687 14.6083 6.10598L8.08324 17.3028C6.26125 20.4282 7.34586 24.4252 10.5001 26.2266C13.2506 27.7999 16.7659 26.8663 18.3537 24.1411L25.0037 12.7278C25.8717 11.2434 25.3587 9.34537 23.8605 8.48911Z" fill="#FBBC04"/>
<path d="M24.712 2.73328L21.6045 0.955092C18.1673 -1.01058 13.7724 0.154904 11.7886 3.56052L5.87203 13.7136C4.99811 15.2115 5.517 17.1288 7.02883 17.9928L10.5089 19.9836C12.2274 20.9675 14.4239 20.3837 15.4169 18.6809L22.1761 7.08213C23.5767 4.67962 26.6763 3.85624 29.101 5.244L24.712 2.73328Z" fill="#34A853"/>
<path d="M12.6292 6.46527L9.27006 4.54792C7.77188 3.69362 5.85826 4.20002 4.9941 5.68056L0.963937 12.5807C-1.01994 15.9766 0.156339 20.3216 3.59349 22.2815L6.15087 23.7407L9.25248 25.5112L10.5985 26.2785C8.20886 24.6937 7.45003 21.518 8.9111 19.017L9.95473 17.231L13.7762 10.6885C14.6384 9.21183 14.1254 7.31957 12.6292 6.46527Z" fill="#4285F4"/>
</g>
<defs>
<clipPath id="clip0_1491_4514">
<rect width="32" height="27" fill="white"/>
</clipPath>
</defs>
</svg>
