<svg fill="none" height="26" viewBox="0 0 26 26" width="26" xmlns="http://www.w3.org/2000/svg"><path d="m6.42008 15.4656-.82275 3.0714-3.00713.0637c-.89869-1.6669-1.40844-3.574-1.40844-5.6007 0-1.9597.47661-3.80777 1.32142-5.43503h.00065l2.67719.49083 1.17277 2.6611c-.24546.7156-.37925 1.4838-.37925 2.2831.0001.8676.15724 1.6988.44554 2.4656z" fill="#fbbb00"/><path d="m24.6116 10.7922c.1358.7149.2065 1.4532.2065 2.2078 0 .8461-.0889 1.6714-.2584 2.4675-.5753 2.7091-2.0786 5.0747-4.161 6.7487l-.0007-.0006-3.372-.1721-.4773-2.9792c1.3818-.8104 2.4617-2.0786 3.0306-3.5968h-6.3195v-4.6753h6.4117z" fill="#518ef8"/><path d="m20.398 22.2156.0006.0007c-2.0253 1.6279-4.598 2.6019-7.3987 2.6019-4.5006 0-8.41357-2.5156-10.40969-6.2175l3.82987-3.1351c.99804 2.6637 3.56753 4.5598 6.57982 4.5598 1.2948 0 2.5079-.35 3.5487-.9611z" fill="#28b446"/><path d="m20.5434 3.90259-3.8285 3.1344c-1.0773-.67335-2.3507-1.06234-3.715-1.06234-3.08049 0-5.69804 1.9831-6.64608 4.74225l-3.85-3.15197h-.00065c1.9669-3.7922 5.92922-6.38311 10.49673-6.38311 2.8676 0 5.4968 1.02145 7.5435 2.72077z" fill="#f14336"/></svg>