<svg width="20" height="21" viewBox="0 0 20 21" fill="none" xmlns="http://www.w3.org/2000/svg">
<path d="M16.9697 18.4591C19.3865 16.1436 20.4607 12.2845 19.8162 8.59083H10.2024V12.6704H15.6807C15.4658 13.9936 14.7139 15.0962 13.6398 15.8128L16.9697 18.4591Z" fill="#4285F4"/>
<path d="M1.07206 15.2064C1.77859 16.635 2.79185 17.8804 4.03546 18.8486C5.27906 19.8168 6.72056 20.4826 8.2513 20.7958C9.78203 21.109 11.3621 21.0614 12.8723 20.6566C14.3825 20.2519 15.7835 19.5005 16.9697 18.4591L13.6398 15.8128C10.7932 17.7424 6.06691 17.0257 4.45567 12.505L1.07206 15.2064Z" fill="#34A853"/>
<path d="M4.45567 12.505C4.02601 11.1268 4.02601 9.85881 4.45567 8.48057L1.07206 5.7792C-0.163223 8.31518 -0.539179 11.8986 1.07206 15.2064L4.45567 12.505Z" fill="#FBBC02"/>
<path d="M4.45567 8.48057C5.63725 4.6766 10.6858 2.4714 14.0694 5.72406L17.0234 2.74705C12.8341 -1.38769 4.6705 -1.2223 1.07206 5.7792L4.45567 8.48057Z" fill="#EA4335"/>
</svg>
