<svg width="39" height="41" viewBox="0 0 39 41" fill="none" xmlns="http://www.w3.org/2000/svg">
<g clip-path="url(#clip0_1907_4102)">
<path d="M7.26013 40.8697C7.07013 40.7797 6.87006 40.7097 6.69006 40.6097C6.36051 40.4372 6.07485 40.1917 5.85474 39.8918C5.63462 39.592 5.48599 39.2458 5.42017 38.8797C4.52017 34.7664 3.61675 30.6631 2.71008 26.5697C2.71008 26.4397 2.65013 26.3097 2.63013 26.1797C2.83013 25.9997 3.08006 26.0497 3.31006 26.0497H30.6101C30.8455 26.0147 31.0847 26.0147 31.3201 26.0497C31.5801 26.1897 31.4901 26.4197 31.4501 26.6097C31.2201 27.7097 30.9701 28.7897 30.7301 29.8897C30.1001 32.7997 29.43 35.6997 28.8 38.6097C28.7019 39.3439 28.3217 40.011 27.7401 40.4697C27.4366 40.6585 27.0951 40.7781 26.7401 40.8197L7.26013 40.8697Z" fill="#FEC851"/>
<path d="M26.6101 40.8697C26.9671 40.7936 27.3036 40.6417 27.5969 40.4243C27.8902 40.2069 28.1334 39.9291 28.3101 39.6097C28.5193 39.0775 28.6702 38.5243 28.7601 37.9596C29.1801 36.093 29.5935 34.223 30.0001 32.3497L31.3201 26.3497C31.3201 26.2897 31.3201 26.2196 31.3201 26.1496C31.3802 26.0988 31.4508 26.0617 31.5269 26.0409C31.6029 26.0202 31.6825 26.0163 31.7601 26.0296C32.4901 26.0296 33.2201 26.0296 33.9401 26.0296C34.4101 26.0296 34.8801 26.0296 35.3501 26.0296C35.4285 26.0154 35.5092 26.0198 35.5856 26.0424C35.662 26.065 35.7321 26.1051 35.7902 26.1597C35.4402 27.7497 35.0902 29.3397 34.7902 30.9197C34.2202 33.4997 33.6401 36.0797 33.0901 38.6697C33.02 39.193 32.7905 39.6821 32.4326 40.0704C32.0748 40.4586 31.606 40.7272 31.0901 40.8396L26.6101 40.8697Z" fill="#FAA62A"/>
<path d="M34 26.1603H31.37H2.61002H0.93998C0.24998 26.1603 -0.0099715 25.9003 -0.0099715 25.2303C-0.0099715 24.7703 -0.0099715 24.3003 -0.0099715 23.8403C-0.0224681 23.7434 -0.0150502 23.6449 0.011757 23.5509C0.0385642 23.4569 0.0841585 23.3693 0.145912 23.2935C0.207666 23.2177 0.284225 23.1553 0.370888 23.11C0.457551 23.0648 0.552577 23.0377 0.650063 23.0303C1.80006 23.0303 2.94 23.0303 4.09 23.0303C4.53176 23.0243 4.97139 22.9672 5.40006 22.8604C6.60006 22.8604 7.79002 22.8604 8.98002 22.8604C10.17 22.8604 11.5101 22.8604 12.7701 22.8604C12.9426 22.8612 13.113 22.8987 13.2701 22.9703C13.3731 23.031 13.4905 23.063 13.61 23.063C13.7296 23.063 13.847 23.031 13.95 22.9703C14.0671 22.9099 14.1984 22.8822 14.33 22.8903C15.24 22.8903 16.1401 22.8903 17.0401 22.8903H18.5C19.99 22.8903 21.5 22.8903 22.95 22.8903H25.2C26.63 22.8903 28.06 22.8903 29.49 22.8903H31.74C32.33 22.8903 32.9301 22.8903 33.5201 22.8903C33.6797 22.8743 33.8396 22.917 33.97 23.0103H37.44C37.59 23.0103 37.7601 22.9603 37.9001 23.0803C37.7301 23.2503 37.53 23.2103 37.33 23.2103H34.61C34.17 23.2103 34.14 23.2104 34.13 23.6904C34.13 24.3404 34.13 24.9904 34.13 25.6904C34.12 25.8204 34.15 26.0103 34 26.1603Z" fill="#F05432"/>
<path d="M13.96 23.0103C13.58 23.1903 13.21 23.0103 12.83 23.0103H9.01004C8.76073 22.6469 8.61862 22.2207 8.6 21.7804C8.60977 21.6505 8.60977 21.5202 8.6 21.3903C8.6 21.2503 8.47996 21.1204 8.42996 20.9904C8.30996 20.4804 8.19997 19.9903 8.06997 19.4604C8.02494 19.3103 8.02494 19.1504 8.06997 19.0004C8.08305 18.9493 8.10699 18.9015 8.14004 18.8604C8.49004 18.3704 8.43005 18.1404 7.90005 17.8604C7.83294 17.8322 7.7734 17.7885 7.72647 17.7329C7.67953 17.6772 7.64651 17.6113 7.63003 17.5404C7.33003 16.2704 6.98999 15.0104 6.70999 13.7404C6.68489 13.6487 6.68489 13.552 6.70999 13.4604C6.83841 13.3261 6.99415 13.2209 7.16665 13.1519C7.33915 13.0829 7.5244 13.0517 7.70999 13.0604C8.31329 12.8094 8.97245 12.7231 9.62002 12.8104C10.2729 12.9303 10.8675 13.2633 11.3108 13.7573C11.7542 14.2513 12.0212 14.8784 12.07 15.5404C12.45 17.9304 12.88 20.3103 13.27 22.7003C13.35 23.1603 13.66 23.0104 13.93 23.0004C13.95 22.9704 13.96 22.9803 13.96 23.0103Z" fill="#F2672F"/>
<path d="M13.9599 23.0103C13.9599 20.1903 13.9599 17.3704 13.9599 14.5604C13.9226 13.1881 14.4253 11.8559 15.36 10.8503C15.7732 10.4122 16.1111 9.90877 16.36 9.36035C16.7317 10.0323 17.1742 10.6625 17.6799 11.2404C18.3425 12.0987 18.695 13.1561 18.6799 14.2404C18.6799 14.8204 18.6799 15.4104 18.6799 15.9904C18.6959 16.0743 18.6934 16.1607 18.6727 16.2435C18.652 16.3264 18.6135 16.4038 18.5599 16.4703C18.3655 16.5436 18.1559 16.5677 17.9499 16.5403C17.8096 16.5328 17.6702 16.5676 17.5499 16.6403C17.2499 16.8203 17.26 17.1303 17.26 17.4203V22.4203C17.26 22.6303 17.26 22.8503 17.12 23.0203L13.9599 23.0103Z" fill="#612B53"/>
<path d="M18.52 16.4304C18.52 15.8404 18.52 15.2604 18.52 14.6804C18.5582 13.9463 18.4446 13.2123 18.1865 12.5241C17.9284 11.8359 17.5314 11.2083 17.02 10.6804C16.6208 10.3452 16.3577 9.87579 16.28 9.36035C16.5956 8.42448 16.7247 7.43583 16.66 6.45032C16.76 6.27032 16.94 6.28033 17.11 6.28033H19.84C19.917 6.26668 19.9962 6.27338 20.0698 6.29968C20.1435 6.32599 20.2091 6.37102 20.26 6.43036C20.1624 7.50374 20.3271 8.58474 20.74 9.58032C21.0176 10.1122 21.353 10.6119 21.74 11.0704C22.5238 11.966 22.9478 13.1203 22.9299 14.3104C22.9299 14.8704 22.9299 15.4203 22.9299 15.9803C22.9901 16.0537 23.0229 16.1455 23.0229 16.2404C23.0229 16.3352 22.9901 16.4271 22.9299 16.5004C22.8155 16.5686 22.6828 16.6 22.5499 16.5903H18.9C18.829 16.5922 18.7583 16.5789 18.6927 16.5513C18.6272 16.5237 18.5683 16.4825 18.52 16.4304Z" fill="#4C1D40"/>
<path d="M22.9701 16.4401V15.9601L24.6202 12.7801C24.6902 12.6501 24.7302 12.5101 24.7902 12.3801C24.8502 12.2501 25.0501 12.2701 25.2001 12.2701H27.2702C27.4016 12.2608 27.5324 12.2937 27.6439 12.3638C27.7553 12.4339 27.8417 12.5377 27.8902 12.6601C28.3702 13.6601 28.9802 14.6601 29.4202 15.6601C29.7056 16.3864 29.7056 17.1938 29.4202 17.9201C29.2314 17.988 29.0296 18.0119 28.8301 17.9901H25.9601C25.3201 17.9901 25.2802 17.9901 25.2702 18.6601C25.2702 19.9001 25.2702 21.1301 25.2702 22.3701C25.2897 22.4738 25.2881 22.5802 25.2658 22.6832C25.2435 22.7863 25.2008 22.8838 25.1402 22.9701C24.3902 22.9701 23.6502 22.9701 22.9102 22.9701C22.8025 22.8159 22.7595 22.6257 22.7902 22.4401C22.7902 20.6101 22.7902 18.7801 22.7902 16.9501C22.7959 16.7655 22.8587 16.5873 22.9701 16.4401Z" fill="#E9E9EA"/>
<path d="M29.5201 17.8699C29.5201 17.8199 29.5201 17.7699 29.5201 17.7199C29.6423 16.4283 29.2865 15.1367 28.5201 14.0899C28.2505 13.6356 28.0099 13.1647 27.8 12.6799C27.7683 12.5806 27.7031 12.4955 27.6156 12.4389C27.5281 12.3824 27.4236 12.358 27.3201 12.3699H24.8101C24.5701 12.3199 24.3301 12.4299 24.1001 12.2999C24.1424 12.2496 24.1965 12.2105 24.2576 12.1861C24.3186 12.1617 24.3847 12.1527 24.4501 12.1599C25.9201 12.1599 27.3901 12.1599 28.8601 12.1599C29.905 12.2449 30.9552 12.2449 32.0001 12.1599C32.2701 12.1599 32.5502 12.0399 32.7802 12.2799C32.5802 12.4099 32.3401 12.2799 32.0901 12.3799C32.6101 13.3799 33.0901 14.3799 33.6401 15.3799C33.8601 15.7564 33.9773 16.1839 33.9801 16.6199V22.9599C33.2373 22.9999 32.4929 22.9999 31.7501 22.9599C31.6364 22.7783 31.5936 22.5611 31.6301 22.3499V18.6599C31.6301 18.4599 31.6301 18.2399 31.5001 18.0599C31.1301 17.8599 30.7301 18.0599 30.3501 17.9599C29.9701 17.8599 29.7801 18.0799 29.5201 17.8699Z" fill="#C8CBCD"/>
<path d="M20.26 6.41006C19.06 6.41006 17.86 6.41006 16.66 6.41006C16.5682 6.38854 16.4876 6.33364 16.434 6.25601C16.3804 6.17838 16.3576 6.08359 16.37 5.99008C16.37 4.12008 16.37 2.25008 16.37 0.370082C16.37 0.090082 16.5001 -0.0299326 16.7901 -0.0199326H20.13C20.4 -0.0199326 20.52 0.0700625 20.52 0.350062C20.52 2.24006 20.52 4.12004 20.52 6.01004C20.52 6.22004 20.48 6.37006 20.26 6.41006Z" fill="#FEC851"/>
<path d="M7.68992 13.05L6.68992 13.42C6.61566 13.5319 6.50105 13.6107 6.36997 13.64C5.90997 13.8 5.42996 13.94 4.97996 14.12C4.85996 14.12 4.72996 14.23 4.60996 14.12C4.03156 12.6635 3.21731 11.3121 2.19993 10.12C1.8648 9.74256 1.46532 9.42767 1.02 9.19003C0.549996 8.95003 0.399932 8.61999 0.579932 8.26999C0.759932 7.91999 1.12993 7.86 1.57993 8.1C2.58156 8.66526 3.42168 9.47776 4.02 10.46C4.16943 10.7539 4.35773 11.0264 4.57993 11.27C4.65993 11.07 4.57998 10.93 4.49998 10.79C4.07998 9.53001 3.63994 8.27999 3.20994 7.01999C3.16159 6.91162 3.12798 6.79731 3.10996 6.68002C3.07315 6.53555 3.09439 6.38237 3.16917 6.25339C3.24394 6.1244 3.36632 6.02987 3.50999 5.99002C3.57747 5.96066 3.65014 5.94511 3.72373 5.94436C3.79732 5.94362 3.87038 5.95765 3.93845 5.98562C4.00653 6.0136 4.06829 6.05499 4.12009 6.10727C4.17189 6.15955 4.21262 6.22168 4.23997 6.29001C4.39997 6.65001 4.52 7.04 4.65 7.41C5.14 8.86 5.64998 10.3 6.12998 11.74C6.33998 11.65 6.21994 11.49 6.20994 11.35C6.17343 10.4071 6.22704 9.46277 6.36997 8.53C6.37082 8.44318 6.38982 8.35751 6.42588 8.27853C6.46194 8.19955 6.51428 8.12907 6.57932 8.07156C6.64437 8.01406 6.72076 7.97083 6.80357 7.94473C6.88637 7.91863 6.97365 7.91021 7.05991 7.92001C7.41991 7.92001 7.61993 8.23002 7.57993 8.68002C7.45342 9.67468 7.41328 10.6784 7.45994 11.68C7.49468 12.1427 7.57164 12.6013 7.68992 13.05Z" fill="#7FC459"/>
<path d="M4.61006 14.1199L6.69001 13.4199C6.85001 14.4199 7.13006 15.4199 7.36006 16.3399C7.45006 16.7099 7.57008 17.0699 7.63008 17.4499C7.63789 17.525 7.66623 17.5966 7.71211 17.6566C7.75799 17.7166 7.81964 17.7627 7.89009 17.7899C7.69135 17.9194 7.46552 18.0015 7.23005 18.0299C6.00005 18.4399 4.79 18.8999 3.55 19.2899C3.38 19.2899 3.21009 19.4499 3.02009 19.2899C2.57522 18.6622 2.29336 17.9336 2.20002 17.1699C2.16997 16.533 2.34926 15.9038 2.7104 15.3784C3.07154 14.8529 3.59467 14.4601 4.20002 14.2599L4.61006 14.1199Z" fill="#F8972B"/>
<path d="M34 26.1595C34 25.2595 34 24.3595 34 23.4495C34 23.1095 34.12 23.0596 34.42 23.0596H37.9299C38.0889 23.0843 38.2329 23.1679 38.333 23.2939C38.4331 23.42 38.4819 23.5791 38.47 23.7396C38.47 24.2996 38.47 24.8595 38.47 25.4095C38.4737 25.5164 38.4541 25.6229 38.4127 25.7215C38.3713 25.8201 38.3091 25.9086 38.2302 25.9808C38.1513 26.0531 38.0577 26.1074 37.9558 26.14C37.8539 26.1725 37.7462 26.1826 37.64 26.1696C37.04 26.1696 36.44 26.1696 35.85 26.1696L34 26.1595Z" fill="#E5202B"/>
<path d="M28.8901 12.3H24.1101C23.9449 12.2683 23.7976 12.1757 23.6976 12.0404C23.5976 11.9052 23.552 11.7373 23.57 11.57C23.57 10.42 23.5001 10.1 24.9101 10.14C26.3201 10.18 27.6101 10.14 28.9101 10.14C29.046 10.8542 29.0392 11.5884 28.8901 12.3Z" fill="#F8972B"/>
<path d="M28.8901 12.3001V10.5401C28.8735 10.3963 28.8977 10.2508 28.96 10.1201C30.19 10.1201 31.4301 10.1201 32.6601 10.1201C33.1301 10.1201 33.3501 10.3701 33.3601 10.8401C33.3601 11.0801 33.3601 11.3201 33.3601 11.5601C33.3727 11.6458 33.3678 11.7331 33.3457 11.8168C33.3235 11.9005 33.2846 11.9789 33.2313 12.0471C33.178 12.1154 33.1115 12.1721 33.0356 12.2139C32.9598 12.2556 32.8763 12.2816 32.7901 12.2901H29.32C29.1789 12.3231 29.0326 12.3265 28.8901 12.3001Z" fill="#F2672F"/>
<path d="M8.06006 18.9199C8.14439 19.51 8.26472 20.0944 8.42017 20.6699C8.42017 20.7699 8.42017 20.8799 8.42017 20.9799C7.34523 21.0917 6.29511 21.3753 5.31006 21.8199C5.02006 21.8999 4.75005 22.0899 4.43005 22.0199L3.62012 20.5099C3.62012 20.3099 3.79017 20.2899 3.92017 20.2399C5.19017 19.8099 6.46011 19.3499 7.74011 18.9299C7.78788 18.9003 7.84263 18.8837 7.8988 18.882C7.95498 18.8802 8.01054 18.8933 8.06006 18.9199Z" fill="#F8972B"/>
<path d="M8.05994 18.92L4.17004 20.28C3.98515 20.3084 3.81192 20.3881 3.67004 20.51C3.41785 20.1355 3.20345 19.7369 3.03003 19.3201C4.03003 19.0501 5.03003 18.6501 6.03003 18.3201C6.61224 18.0682 7.22359 17.8902 7.84998 17.79C8.49998 18.02 8.60994 18.54 8.05994 18.92Z" fill="#FEC851"/>
<path d="M4.4801 22.0199C5.5701 21.6499 6.67013 21.2799 7.76013 20.8899C7.8766 20.8446 8.00259 20.8291 8.12659 20.8448C8.25058 20.8605 8.36862 20.907 8.47009 20.98C8.55448 21.072 8.61013 21.1867 8.63013 21.31C8.63013 21.86 8.6301 22 8.1001 22.16C7.22784 22.4979 6.33221 22.772 5.42017 22.98C3.84017 23.12 2.25017 23.04 0.670166 22.98C1.38017 22.9 2.09005 22.98 2.80005 22.98H4.92017C4.84017 22.62 4.6101 22.3599 4.4801 22.0199Z" fill="#FEC851"/>
<path d="M6.2301 11.3301C6.30529 11.5102 6.32621 11.7083 6.29016 11.9001C6.15016 11.9001 6.15015 11.8201 6.15015 11.7201C6.15015 11.6201 6.1701 11.4501 6.2301 11.3301Z" fill="#B2D899"/>
<path d="M11.61 37.0903C11.6329 37.2493 11.5923 37.411 11.4968 37.5402C11.4013 37.6694 11.2587 37.7557 11.0999 37.7803C11.0209 37.7945 10.9398 37.7924 10.8615 37.7742C10.7833 37.7559 10.7096 37.7218 10.645 37.6741C10.5804 37.6263 10.5262 37.5659 10.4858 37.4965C10.4454 37.427 10.4196 37.3501 10.41 37.2703C10.18 36.2703 9.97999 35.2703 9.76999 34.2703C9.46999 32.8203 9.16995 31.3704 8.85995 29.9204C8.75995 29.4504 8.91989 29.1404 9.29989 29.0404C9.67989 28.9404 9.9599 29.1604 10.0599 29.6204C10.5799 32.0504 11.0599 34.4904 11.5999 36.9204C11.6104 36.9764 11.6138 37.0335 11.61 37.0903Z" fill="white"/>
<path d="M27.5201 37.0004C27.6801 36.2404 27.8501 35.4004 28.0301 34.5504L29.0301 29.7304C29.1601 29.1204 29.6601 28.8804 30.0301 29.2304C30.1186 29.3022 30.1851 29.3975 30.2222 29.5053C30.2593 29.6131 30.2655 29.7292 30.24 29.8403C29.72 32.3137 29.1968 34.7903 28.6701 37.2703C28.6592 37.3505 28.6322 37.4277 28.5907 37.4971C28.5493 37.5666 28.4941 37.627 28.4288 37.6746C28.3634 37.7223 28.2891 37.7562 28.2103 37.7744C28.1314 37.7925 28.0497 37.7946 27.97 37.7803C27.68 37.7303 27.5001 37.5404 27.5201 37.0004Z" fill="white"/>
<path d="M17.0601 36.6995C17.0601 37.1795 17.0602 37.4895 16.6602 37.6295C16.5723 37.6613 16.4781 37.6716 16.3854 37.6598C16.2927 37.648 16.2041 37.6143 16.127 37.5616C16.0498 37.5089 15.9863 37.4386 15.9417 37.3565C15.897 37.2745 15.8725 37.1829 15.8701 37.0895C15.7801 36.0895 15.7201 35.1595 15.6401 34.1895C15.5401 32.7695 15.4501 31.3495 15.3401 29.9395C15.3401 29.3195 15.4601 28.9895 15.8901 28.9395C16.0359 28.9164 16.1848 28.9517 16.3047 29.0379C16.4245 29.124 16.5056 29.254 16.5302 29.3995C16.6064 29.8185 16.6433 30.2437 16.6401 30.6695C16.8001 32.7395 16.9301 34.7795 17.0601 36.6995Z" fill="white"/>
<path d="M22.0101 36.7095C22.1801 34.2895 22.3401 31.9496 22.5101 29.5996C22.5043 29.5091 22.519 29.4185 22.5532 29.3346C22.5874 29.2507 22.6401 29.1756 22.7075 29.115C22.7749 29.0544 22.8551 29.0097 22.9421 28.9846C23.0292 28.9594 23.1207 28.9543 23.2101 28.9695C23.5701 28.9695 23.7701 29.2895 23.7401 29.7195L23.2301 36.8696C23.2301 37.3996 22.9701 37.6796 22.5901 37.6696C22.2101 37.6596 22.0001 37.3595 22.0101 36.8395C22.0164 36.7964 22.0164 36.7526 22.0101 36.7095Z" fill="white"/>
<path d="M22.97 16.4404C22.97 18.6204 22.97 20.8004 22.97 22.9904H18.51C18.3836 22.799 18.337 22.5657 18.38 22.3404V17.3404C18.38 16.7104 18.38 16.6604 17.79 16.6804C17.7296 16.6861 17.6685 16.6783 17.6115 16.6575C17.5544 16.6368 17.5026 16.6036 17.46 16.5604C17.8 16.4004 18.16 16.5604 18.51 16.4704L22.97 16.4404Z" fill="#D19D85"/>
<path d="M29.52 17.8701H31.23C31.36 17.8701 31.5 17.8701 31.6 17.9501C31.5334 18.0036 31.456 18.0421 31.3732 18.0629C31.2903 18.0836 31.2039 18.0861 31.12 18.0701H30.12C29.69 18.0701 29.65 18.0701 29.65 18.5501C29.65 19.6801 29.65 20.8001 29.65 21.9301C29.65 22.1301 29.65 22.3301 29.65 22.5201C29.666 22.6797 29.6234 22.8397 29.53 22.9701C28.09 23.0101 26.65 23.0101 25.21 22.9701V18.4301C25.21 17.9101 25.21 17.8701 25.78 17.8701H29.52Z" fill="#6ECFF0"/>
<path d="M29.53 22.9903C29.53 21.4603 29.53 19.9203 29.53 18.3803C29.53 18.0603 29.6 17.9302 29.95 17.9502C30.5 17.9502 31.06 17.9502 31.61 17.9502C31.82 18.0502 31.77 18.2402 31.77 18.4002V22.9803C31.0241 23.0239 30.2763 23.0273 29.53 22.9903Z" fill="#4CC6E4"/>
<path d="M17.4701 16.5399C17.8001 16.5399 18.2201 16.3999 18.4701 16.6099C18.7201 16.8199 18.55 17.2599 18.55 17.6099C18.55 19.4099 18.55 21.2198 18.55 23.0198H17.0901V17.3099C17.0601 16.9499 17.0801 16.6299 17.4701 16.5399Z" fill="#E8B19C"/>
<path d="M5.42017 22.9796C6.27017 22.6296 7.15014 22.3695 8.02014 22.0895C8.43014 21.9595 8.67013 21.7596 8.63013 21.3096C8.71163 21.8756 8.83871 22.434 9.01013 22.9796H5.42017Z" fill="#F8982B"/>
</g>
<defs>
<clipPath id="clip0_1907_4102">
<rect width="38.47" height="40.87" fill="white"/>
</clipPath>
</defs>
</svg>
