<svg width="10" height="10" viewBox="0 0 10 10" fill="none" xmlns="http://www.w3.org/2000/svg">
<path d="M7.77326 0.387367L2.69326 5.46737C2.49924 5.66034 2.34542 5.88989 2.24071 6.14272C2.136 6.39555 2.08249 6.66663 2.08326 6.94028V7.49987C2.08326 7.61037 2.12716 7.71636 2.2053 7.7945C2.28344 7.87264 2.38942 7.91653 2.49993 7.91653H3.05951C3.33316 7.91731 3.60425 7.86379 3.85708 7.75908C4.1099 7.65438 4.33945 7.50056 4.53243 7.30653L9.61243 2.22653C9.85593 1.98244 9.99267 1.65173 9.99267 1.30695C9.99267 0.962169 9.85593 0.631463 9.61243 0.387367C9.36479 0.150656 9.03542 0.0185547 8.69284 0.0185547C8.35027 0.0185547 8.0209 0.150656 7.77326 0.387367ZM9.02326 1.63737L3.94326 6.71737C3.70831 6.95088 3.39076 7.08233 3.05951 7.0832H2.91659V6.94028C2.91746 6.60903 3.04891 6.29148 3.28243 6.05653L8.36243 0.976534C8.45142 0.891515 8.56977 0.844073 8.69284 0.844073C8.81592 0.844073 8.93426 0.891515 9.02326 0.976534C9.11074 1.06425 9.15986 1.18307 9.15986 1.30695C9.15986 1.43083 9.11074 1.54965 9.02326 1.63737Z" fill="white"/>
<path d="M9.58333 3.74125C9.47283 3.74125 9.36685 3.78515 9.28871 3.86329C9.21057 3.94143 9.16667 4.04741 9.16667 4.15792V6.25H7.5C7.16848 6.25 6.85054 6.3817 6.61612 6.61612C6.3817 6.85054 6.25 7.16848 6.25 7.5V9.16667H2.08333C1.75181 9.16667 1.43387 9.03497 1.19945 8.80055C0.96503 8.56613 0.833333 8.24819 0.833333 7.91667V2.08333C0.833333 1.75181 0.96503 1.43387 1.19945 1.19945C1.43387 0.965029 1.75181 0.833333 2.08333 0.833333H5.85083C5.96134 0.833333 6.06732 0.789435 6.14546 0.711295C6.2236 0.633154 6.2675 0.527174 6.2675 0.416667C6.2675 0.30616 6.2236 0.200179 6.14546 0.122039C6.06732 0.0438987 5.96134 0 5.85083 0L2.08333 0C1.531 0.000661607 1.00148 0.220367 0.610925 0.610925C0.220368 1.00148 0.000661607 1.531 0 2.08333L0 7.91667C0.000661607 8.469 0.220368 8.99852 0.610925 9.38908C1.00148 9.77963 1.531 9.99934 2.08333 10H6.80958C7.0833 10.0008 7.35445 9.94727 7.60735 9.84257C7.86024 9.73786 8.08986 9.58404 8.28292 9.39L9.38958 8.2825C9.58365 8.08953 9.73752 7.85999 9.84229 7.60717C9.94707 7.35435 10.0007 7.08326 10 6.80958V4.15792C10 4.04741 9.9561 3.94143 9.87796 3.86329C9.79982 3.78515 9.69384 3.74125 9.58333 3.74125ZM7.69375 8.80083C7.52626 8.96792 7.31445 9.08358 7.08333 9.13417V7.5C7.08333 7.38949 7.12723 7.28351 7.20537 7.20537C7.28351 7.12723 7.38949 7.08333 7.5 7.08333H9.13542C9.08387 7.31396 8.96834 7.52539 8.80208 7.69333L7.69375 8.80083Z" fill="white"/>
</svg>
