<svg width="18" height="17" viewBox="0 0 18 17" fill="none" xmlns="http://www.w3.org/2000/svg">
<path d="M7.65263 1.43063C7.06745 0.186391 5.58441 -0.347861 4.3402 0.237316C3.8156 0.484059 3.39359 0.90607 3.14688 1.43063H1.0728C0.480311 1.43063 0 1.91095 0 2.50343C0 3.09592 0.480311 3.57623 1.0728 3.57623H3.14329C3.72847 4.82047 5.21151 5.35472 6.45572 4.76955C6.98028 4.52284 7.4023 4.10079 7.64904 3.57623H16.0919C16.6844 3.57623 17.1647 3.09592 17.1647 2.50343C17.1647 1.91095 16.6844 1.43063 16.0919 1.43063H7.65263Z" fill="white"/>
<path d="M11.7686 5.63232C10.8042 5.63403 9.92702 6.19082 9.515 7.06273H1.0728C0.480311 7.06273 0 7.54304 0 8.13553C0 8.72801 0.480311 9.20832 1.0728 9.20832H9.51212C10.0973 10.4526 11.5803 10.9868 12.8245 10.4016C13.3491 10.1549 13.7711 9.73289 14.0179 9.20832H16.0919C16.6844 9.20832 17.1647 8.72801 17.1647 8.13553C17.1647 7.54304 16.6844 7.06273 16.0919 7.06273H14.0214C13.6095 6.19105 12.7327 5.63434 11.7686 5.63232Z" fill="white"/>
<path d="M5.39617 11.2642C4.43206 11.2661 3.55521 11.8229 3.14329 12.6946H1.0728C0.480311 12.6946 0 13.1749 0 13.7674C0 14.3598 0.480311 14.8402 1.0728 14.8402H3.14329C3.72847 16.0844 5.21151 16.6187 6.45572 16.0335C6.98028 15.7868 7.4023 15.3647 7.64904 14.8402H16.0919C16.6844 14.8402 17.1647 14.3598 17.1647 13.7674C17.1647 13.1749 16.6844 12.6946 16.0919 12.6946H7.65263C7.24013 11.8217 6.36155 11.2648 5.39617 11.2642Z" fill="white"/>
</svg>
