<svg width="168" height="185" viewBox="0 0 168 185" fill="none" xmlns="http://www.w3.org/2000/svg">
<path d="M110.165 114.673C113.764 114.481 117.28 114.673 120.374 116.863C120.863 117.171 121.326 117.519 121.758 117.903C135.626 131.772 149.472 145.64 163.296 159.509C163.507 159.752 163.702 160.009 163.878 160.279C164.456 161.319 163.878 162.192 163.358 162.988C159.388 169.542 153.926 175.066 147.418 179.11C146.435 179.729 145.338 180.624 144.032 179.755C143.512 179.292 142.93 178.861 142.431 178.361C129.228 165.141 116.026 151.914 102.827 138.68C99.6285 135.476 98.1723 131.648 98.7964 127.093C98.8432 126.755 98.5832 126.37 98.4688 126.011C99.6077 120.914 102.479 117.232 107.31 115.183C108.188 114.727 109.184 114.549 110.165 114.673Z" fill="#E4E4E4"/>
<path d="M79.4133 20.2959C84.6504 22.0173 89.2062 24.9766 93.4552 28.3778C102.068 35.2948 108.392 43.9124 112.027 54.4179C114.837 62.5696 115.827 71.2377 114.929 79.8131C114.191 87.3489 111.668 94.2659 108.584 101.053C107.357 104.771 104.855 107.699 102.489 110.685C98.7259 115.329 94.2265 119.324 89.1698 122.511C88.0933 123.208 87.0896 124.03 85.7686 124.269C85.5605 124.425 85.9766 124.586 85.805 124.394C85.7425 124.326 85.805 124.264 85.9246 124.243C87.0687 124.04 88.2857 123.364 89.1854 124.763C85.7269 124.493 82.6585 125.621 79.5225 126.994C73.7497 129.527 67.6284 130.733 61.3199 131.123C45.7177 132.086 32.0086 127.322 20.1354 117.331C14.2983 112.439 9.5775 106.353 6.29102 99.4822C6.48615 99.1784 6.76116 98.9342 7.08592 98.7765C7.41068 98.6187 7.77263 98.5533 8.13206 98.5877C10.7324 98.6293 13.2964 98.2548 15.8812 98.2236C16.7445 98.3381 17.1813 98.9673 17.6078 99.633C19.5325 102.701 21.8705 105.488 24.556 107.918C32.5675 115.851 43.1991 120.587 54.455 121.237C69.069 122.277 81.582 117.43 91.7702 107.132C100.715 98.104 105.266 86.9745 105.396 74.1287C105.516 62.8431 102 52.8057 95.1715 43.9072C93.4656 41.6813 91.3177 39.8766 89.3935 37.864C86.8225 35.4386 83.9403 33.3661 80.8227 31.7011C80.0374 31.2538 79.2052 30.869 78.9816 29.86C78.6956 27.2129 78.8568 24.5605 78.8724 21.9081C78.8383 21.6162 78.8691 21.3203 78.9626 21.0416C79.0561 20.7629 79.21 20.5083 79.4133 20.2959Z" fill="#CECECE"/>
<path d="M16.37 98.6862C13.0208 99.1595 9.60905 98.7954 6.27018 99.4663C3.87258 95.1049 2.17884 90.3922 1.2515 85.5024C0.317125 81.1338 -0.0966116 76.67 0.0189276 72.2041C0.440187 60.0292 4.12229 48.9569 11.3825 39.1847C18.5314 29.387 28.6361 22.1424 40.2102 18.517C45.1958 16.9614 50.3688 16.0867 55.5887 15.9166C63.2561 15.595 70.9102 16.8153 78.0975 19.5051C78.6019 19.6216 79.06 19.886 79.4133 20.2644C79.4133 23.6414 79.4133 27.0184 79.4133 30.3954C78.3731 30.7699 77.5306 30.1302 76.6569 29.7818C58.2255 22.5475 41.2919 25.1011 26.163 37.9209C16.7497 45.8832 11.7154 56.3575 10.3892 68.4752C9.25858 78.1047 11.1429 87.8479 15.7823 96.3615C16.162 97.0792 16.9317 97.7345 16.37 98.6862Z" fill="#E4E4E4"/>
<path d="M125.871 31.1918C125.284 31.186 124.711 31.0106 124.221 30.6867C123.731 30.3629 123.345 29.9044 123.11 29.3664C122.838 28.8415 122.735 28.2455 122.815 27.6598C122.895 27.0742 123.154 26.5277 123.557 26.0951C124.054 25.5854 124.601 25.1272 125.19 24.7273C135.81 16.9782 146.435 9.23259 157.065 1.49044L157.533 1.14719C159.702 -0.381825 161.46 -0.324607 162.635 1.30322C163.811 2.93105 163.249 4.70969 161.164 6.2335L128.654 29.9124C127.817 30.5209 127 31.1762 125.871 31.1918Z" fill="#02B558"/>
<path d="M160.061 40.48C160.121 41.206 159.909 41.9284 159.464 42.5057C159.02 43.0829 158.376 43.4733 157.658 43.6005C149.406 45.705 141.142 47.7749 132.866 49.8101C132.473 49.9148 132.063 49.9382 131.661 49.8788C131.258 49.8194 130.872 49.6786 130.526 49.4649C130.18 49.2512 129.881 48.9691 129.647 48.6359C129.414 48.3027 129.251 47.9253 129.169 47.527C128.773 45.7172 129.642 44.2297 131.582 43.7253C137.771 42.1287 143.975 40.6048 150.174 39.0446C152.114 38.5558 154.044 38.0045 155.994 37.5884C158.288 37.0683 160.025 38.3477 160.061 40.48Z" fill="#02B558"/>
<path d="M89.1801 124.732C88.062 124.144 86.8034 124.628 85.3628 124.284C89.0411 122.136 92.5218 119.667 95.7643 116.905C100.562 112.662 104.635 107.667 107.825 102.114C108.043 101.734 108.345 101.396 108.589 101.037C108.652 105.629 108.917 110.201 110.149 114.658C105.869 116.041 102.244 118.236 100.133 122.459C99.54 123.639 99.6128 125.132 98.4738 126.037C95.4312 125.273 92.3156 124.835 89.1801 124.732Z" fill="#02B558"/>
<path d="M144.032 179.787C145.639 179.901 146.898 179.028 148.11 178.201C154.032 174.217 159.056 169.039 162.859 162.999C163.348 162.16 163.686 161.241 163.857 160.284C165.074 161.444 166.276 162.625 167.498 163.753C168.231 164.419 168.018 165.11 167.753 165.88C166.858 168.377 165.267 170.462 163.535 172.355C160.128 176.079 156.743 179.87 152.348 182.517C151.509 183.02 150.641 183.472 149.748 183.87C149.377 184.08 148.944 184.155 148.524 184.08C148.104 184.005 147.724 183.785 147.449 183.459C146.352 182.226 145.187 181.009 144.032 179.787Z" fill="#CECECE"/>
<path d="M122.709 3.25328C122.677 3.96629 122.439 4.65462 122.023 5.23476C119.121 10.0662 116.245 14.9081 113.332 19.7344C112.11 21.7575 110.467 22.3348 108.818 21.4038C107.17 20.4729 106.805 18.5538 108.022 16.5099C110.935 11.6108 113.861 6.72043 116.801 1.83868C117.659 0.398077 118.882 -0.335226 120.551 0.148442C121.908 0.543698 122.683 1.55784 122.709 3.25328Z" fill="#02B558"/>
<path d="M16.37 98.6861C14.0297 94.0782 11.7829 89.4288 10.7584 84.3061C8.67808 74.0294 9.43739 64.0232 13.5824 54.3135C15.7706 49.1196 18.8923 44.3709 22.7929 40.3027C29.3546 33.4605 37.7791 28.6932 47.0232 26.5911C56.2673 24.489 65.9249 25.1445 74.8002 28.4762C76.3604 29.0535 77.8946 29.7764 79.4392 30.4265C83.1057 32.3508 86.6734 34.4103 89.5598 37.4579C91.3905 40.9476 91.7025 44.8169 91.9522 48.6031C92.6543 59.457 90.7612 69.8688 85.4929 79.4486C76.3708 96.0493 62.3912 105.894 43.7154 108.978C38.2023 109.852 32.5861 109.852 27.0731 108.978C26.0438 108.851 25.0463 108.537 24.1295 108.053C20.8894 105.489 18.6635 102.056 16.37 98.6861Z" fill="white"/>
<path d="M24.1346 108.089C27.9728 108.474 31.8213 109.26 35.6439 109.166C49.1658 108.828 61.2834 104.61 71.7109 95.7481C82.4764 86.5949 88.8057 74.9452 90.9536 61.1113C92.157 53.6138 91.7277 45.9449 89.695 38.6285C89.6117 38.2515 89.5544 37.8692 89.5234 37.4844C97.907 44.651 103.045 53.7627 105.037 64.5282C107.71 78.929 104.517 92.092 95.5355 103.601C88.3845 112.796 78.9191 118.548 67.4515 120.956C64.5016 121.622 61.4888 121.971 58.4647 121.996C46.9763 121.892 36.4968 118.621 27.4631 111.241C26.2267 110.333 25.1085 109.275 24.1346 108.089Z" fill="white"/>
<path d="M70.4888 62.6353C70.598 67.3523 68.6737 71.3153 65.9485 74.9766C63.6654 78.0398 61.1534 80.973 60.5606 84.9464C60.4826 85.4665 60.4253 85.9866 60.3577 86.5066C60.1081 88.4465 58.6935 89.7623 57.0449 89.6271C55.2298 89.4502 53.9817 87.9056 54.1689 85.9085C54.4721 82.2061 55.7497 78.6498 57.8718 75.6007C59.0992 73.848 60.3941 72.1474 61.6319 70.4C63.2805 68.0752 64.3207 65.5529 64.2791 62.6301C64.2271 58.7711 62.4432 56.5556 58.8339 56.0408C57.2107 55.8697 55.5792 56.2773 54.2271 57.1917C52.8751 58.106 51.8893 59.4684 51.4437 61.0387C51.2405 61.9205 51.1151 62.8185 51.0692 63.7222C50.9132 65.7349 49.7274 67.0039 47.9488 66.9883C46.1701 66.9727 44.9792 65.6049 44.8752 63.6234C44.5787 57.731 48.5157 52.0778 54.1116 50.4292C62.8385 47.808 70.4888 53.5184 70.4888 62.6353Z" fill="#008036"/>
<path d="M57.0241 101.089C56.0296 101.114 55.0663 100.742 54.346 100.056C53.6257 99.3694 53.2075 98.4252 53.1834 97.4307C53.1592 96.4362 53.5311 95.4729 54.2173 94.7526C54.9034 94.0323 55.8476 93.6141 56.8421 93.59C57.3345 93.578 57.8245 93.6632 58.284 93.8406C58.7435 94.018 59.1635 94.2841 59.5202 94.6239C59.8768 94.9636 60.1631 95.3703 60.3625 95.8207C60.562 96.271 60.6708 96.7563 60.6828 97.2487C60.6948 97.7411 60.6096 98.2311 60.4322 98.6906C60.2548 99.1501 59.9887 99.5702 59.6489 99.9268C59.3092 100.283 58.9025 100.57 58.4521 100.769C58.0018 100.969 57.5165 101.077 57.0241 101.089Z" fill="#008036"/>
</svg>
