<svg fill="none" height="27" viewBox="0 0 27 27" width="27" xmlns="http://www.w3.org/2000/svg" xmlns:xlink="http://www.w3.org/1999/xlink"><mask id="a" fill="#000" height="27" maskUnits="userSpaceOnUse" width="27" x="0" y="0"><path d="m0 0h27v27h-27z" fill="#fff"/><path d="m25.9972 14.0268c-.1438.4287-.3383.827-.679 1.139-.4188.3965-.9727.6191-1.5496.6229-.1218 0-.2455 0-.409 0v.2899c0 2.3942.0039 4.7883 0 7.1824-.0029 1.3102-.8347 2.3672-2.0887 2.662-.2224.0494-.4497.0734-.6776.0716-1.2716.0069-2.5433.0039-3.815.003-.5524 0-.846-.2909-.846-.8427 0-1.8732-.0211-3.7465.0084-5.6192.0132-.8241-.5549-1.4254-1.395-1.397-.6756.0231-1.3536.0245-2.0292 0-.8279-.0309-1.421.5484-1.4062 1.4112.0319 1.8477.0103 3.6969.0098 5.5451 0 .6343-.2715.9035-.9094.9035-1.23922 0-2.47833 0-3.71727 0-1.63993-.0024-2.79868-1.159-2.80212-2.7988-.00294-2.3619-.00294-4.7235 0-7.0848v-.2992c-.28232-.024-.55138-.0231-.81063-.0736-.8725-.1707-1.46856-.6867-1.7499-1.5254-.278886-.8285-.10557-1.5888.46104-2.2564.06285-.0745.13355-.1427.20278-.2119 3.33156-3.32853 6.66526-6.6548 10.0011-9.97878.2587-.25752.5784-.51356.9167-.62049.8568-.270264 1.6939-.204544 2.3877.45813.4242.40466.8347.82503 1.2491 1.2395 2.8932 2.8907 5.7878 5.78026 8.6837 8.66864.4213.4194.7998.8535.9668 1.4372zm-16.34618 10.5002v-.3153c0-1.653-.01424-3.3065.0108-4.959.01915-1.3023 1.06298-2.4457 2.36168-2.533.9972-.0672 2.0028-.0142 3.0044-.0118.0813.004.1619.0164.2406.0373 1.281.2909 2.1201 1.3405 2.1265 2.6811.0074 1.6039 0 3.2079 0 4.8118v.2943h3.0933c.9201 0 1.4018-.4797 1.4018-1.3974 0-2.6628 0-5.3256 0-7.9884 0-.5199.2999-.8181.8184-.822.3506-.0025.7012.0049 1.0517-.003.1809-.0018.356-.0637.4977-.176.1418-.1123.242-.2685.285-.444.1129-.4125-.0982-.695-.3712-.9673-3.306-3.29647-6.6091-6.59511-9.9093-9.89587-.5332-.5322-.9481-.53122-1.4828.00294l-8.83787 8.82663c-.4036.4032-.80917.8039-1.21031 1.2096-.26661.2693-.34664.5886-.1964.9408.1473.3379.42177.5052.79345.5052h.88035c.68249 0 .94075.26.94075.9467v7.9883c0 .6833.46154 1.2424 1.10867 1.2601 1.12438.0294 2.2414.0073 3.39425.0073z" fill="#000"/></mask><g fill="#008036"><path d="m25.9972 14.0268c-.1438.4287-.3383.827-.679 1.139-.4188.3965-.9727.6191-1.5496.6229-.1218 0-.2455 0-.409 0v.2899c0 2.3942.0039 4.7883 0 7.1824-.0029 1.3102-.8347 2.3672-2.0887 2.662-.2224.0494-.4497.0734-.6776.0716-1.2716.0069-2.5433.0039-3.815.003-.5524 0-.846-.2909-.846-.8427 0-1.8732-.0211-3.7465.0084-5.6192.0132-.8241-.5549-1.4254-1.395-1.397-.6756.0231-1.3536.0245-2.0292 0-.8279-.0309-1.421.5484-1.4062 1.4112.0319 1.8477.0103 3.6969.0098 5.5451 0 .6343-.2715.9035-.9094.9035-1.23922 0-2.47833 0-3.71727 0-1.63993-.0024-2.79868-1.159-2.80212-2.7988-.00294-2.3619-.00294-4.7235 0-7.0848v-.2992c-.28232-.024-.55138-.0231-.81063-.0736-.8725-.1707-1.46856-.6867-1.7499-1.5254-.278886-.8285-.10557-1.5888.46104-2.2564.06285-.0745.13355-.1427.20278-.2119 3.33156-3.32853 6.66526-6.6548 10.0011-9.97878.2587-.25752.5784-.51356.9167-.62049.8568-.270264 1.6939-.204544 2.3877.45813.4242.40466.8347.82503 1.2491 1.2395 2.8932 2.8907 5.7878 5.78026 8.6837 8.66864.4213.4194.7998.8535.9668 1.4372zm-16.34618 10.5002v-.3153c0-1.653-.01424-3.3065.0108-4.959.01915-1.3023 1.06298-2.4457 2.36168-2.533.9972-.0672 2.0028-.0142 3.0044-.0118.0813.004.1619.0164.2406.0373 1.281.2909 2.1201 1.3405 2.1265 2.6811.0074 1.6039 0 3.2079 0 4.8118v.2943h3.0933c.9201 0 1.4018-.4797 1.4018-1.3974 0-2.6628 0-5.3256 0-7.9884 0-.5199.2999-.8181.8184-.822.3506-.0025.7012.0049 1.0517-.003.1809-.0018.356-.0637.4977-.176.1418-.1123.242-.2685.285-.444.1129-.4125-.0982-.695-.3712-.9673-3.306-3.29647-6.6091-6.59511-9.9093-9.89587-.5332-.5322-.9481-.53122-1.4828.00294l-8.83787 8.82663c-.4036.4032-.80917.8039-1.21031 1.2096-.26661.2693-.34664.5886-.1964.9408.1473.3379.42177.5052.79345.5052h.88035c.68249 0 .94075.26.94075.9467v7.9883c0 .6833.46154 1.2424 1.10867 1.2601 1.12438.0294 2.2414.0073 3.39425.0073z"/><path d="m25.9972 14.0268.3792.1273.0207-.0615.0001-.0649zm-.679 1.139-.2702-.2951-.0048.0046zm-1.5496.6229v.4h.0026zm-.409 0v-.4h-.4v.4zm0 7.4723.4.0009v-.0002zm-2.0887 2.662.0867.3905.0048-.0011zm-.6776.0716.0032-.4h-.0053zm-3.815.003.0003-.4h-.0003zm-.8376-6.4619-.4-.0065v.0002zm-1.395-1.397-.0135-.3997h-.0001zm-2.0292 0-.015.3997.0004.0001zm-1.4062 1.4112-.4.0068v.0001zm.0098 5.5451-.4-.0001v.0001zm-4.62667.9035-.0006.4h.0006zm-2.80212-2.7988-.4.0005v.0004zm0-7.0848.4.0005v-.0005zm0-.2992h.4v-.3674l-.36607-.0312zm-.81063-.0736-.0768.3926h.00029zm-1.7499-1.5254.37923-.1272-.00013-.0005zm.46104-2.2564.30496.2589.00088-.0011zm.20278-.2119.2827.283h.00001zm10.0011-9.97878-.2822-.28352-.0002.00017zm.9167-.62049-.1204-.381467-.0002.00007zm2.3877.45813-.2763.28925.0002.00018zm1.2491 1.2395-.2829.28282.0002.00015zm8.6837 8.66864-.2825.2832.0003.0003zm.9668 1.4372.4.0009.0001-.0565-.0155-.0544zm-16.34868 11.5744h-.4v.7472l.62178-.4143zm.0108-5.2743.39998.006v-.0002zm2.36168-2.533.0268.3991h.0001zm3.0044-.0118.0193-.3995-.0091-.0005h-.0092zm.2406.0373-.1025.3866.0069.0019.007.0016zm2.1265 2.6811.4-.0018v-.0001zm0 5.1061h-.4v.4h.4zm5.3135-10.2078-.0028-.4h-.0002zm1.0517-.003-.0039-.4-.005.0001zm.7827-.62-.386-.1056-.0025.0105zm-.3712-.9673.2825-.2832h-.0001zm-9.9093-9.89587.2829-.28282-.0003-.0003zm-1.4828.00294.2827.28303v-.00004zm-8.83787 8.82663-.28267-.283h-.00004zm-1.21031 1.2096.28425.2814.00017-.0002zm-.1964.9408-.36793.1569.00125.0029zm3.72322 10.7003-.01091.3998.00044.0001zm3.39425.0073.22178.3329 1.10003-.7329h-1.32181zm15.96551-10.6264c-.134.3993-.3007.7247-.5699.9712l.5402.59c.4122-.3774.6344-.8486.7881-1.3067zm-.5748.9757c-.3451.3267-.8016.5103-1.2772.5134l.0052.8c.6783-.0044 1.3296-.2662 1.822-.7325zm-1.2746.5134c-.1299 0-.2374 0-.409 0v.8h.409zm-.809.4v.2899h.8v-.2899zm0 .2899c0 2.3951.0039 4.788 0 7.1818l.8.0013c.0039-2.3945 0-4.7899 0-7.1831zm0 7.1815c-.0025 1.1285-.7102 2.022-1.7802 2.2735l.183.7788c1.438-.338 2.3938-1.5587 2.3972-3.0505zm-1.7754 2.2724c-.1929.0428-.3901.0637-.5877.0622l-.0063.7999c.2581.0021.5155-.0252.7674-.0811zm-.593.0621c-1.2701.0069-2.54.0039-3.8126.003l-.0006.8c1.2708.0009 2.5442.0039 3.8175-.003zm-3.8129.003c-.2093 0-.3042-.0544-.348-.098-.0435-.0433-.098-.1368-.098-.3447h-.8c0 .3439.0924.6717.3338.9119.241.2397.5691.3308.9122.3308zm-.446-.4427c0-1.8794-.0211-3.7443.0083-5.6129l-.7999-.0126c-.0295 1.8768-.0084 3.7584-.0084 5.6255zm.0083-5.6128c.0082-.5067-.1633-.9703-.492-1.3049-.3304-.3363-.7939-.5159-1.3164-.4982l.0271.7995c.3176-.0108.5581.096.7186.2593.162.165.2679.4141.2628.7314zm-1.8085-1.8031c-.6671.0227-1.3358.0241-2.0011 0l-.0291.7995c.6859.0249 1.3734.0233 2.0575 0zm-2.0007 0c-.5134-.0192-.9799.1519-1.3162.4867-.336.3345-.5139.8043-.5049 1.331l.7999-.0136c-.0057-.3361.1056-.5874.2694-.7505.1636-.1628.4075-.2659.7219-.2542zm-1.8211 1.8178c.0318 1.8431.0103 3.6838.0098 5.5381l.8.0002c.0005-1.842.0221-3.6998-.0099-5.5521zm.0098 5.5382c0 .2711-.0596.3683-.0974.4058-.0384.0382-.1379.0977-.412.0977v.8c.3638 0 .719-.075.9758-.3301.2574-.2556.3336-.6102.3336-.9734zm-.5094.5035c-.0024 0-.0048 0-.0072 0s-.0049 0-.0073 0-.0048 0-.0072 0c-.0025 0-.0049 0-.0073 0s-.0048 0-.0073 0c-.0024 0-.0048 0-.0072 0s-.0049 0-.0073 0-.0048 0-.0072 0c-.0025 0-.0049 0-.0073 0s-.0048 0-.0073 0c-.0024 0-.0048 0-.0072 0s-.0049 0-.0073 0-.0048 0-.0072 0c-.0025 0-.0049 0-.0073 0s-.0049 0-.0073 0-.0048 0-.0072 0c-.0025 0-.0049 0-.0073 0s-.0048 0-.0073 0c-.0024 0-.0048 0-.0072 0s-.0049 0-.0073 0-.0048 0-.0072 0c-.0025 0-.0049 0-.0073 0s-.0048 0-.0073 0c-.0024 0-.0048 0-.0072 0s-.0049 0-.0073 0-.0048 0-.0072 0c-.0025 0-.0049 0-.0073 0s-.0048 0-.0073 0c-.0024 0-.0048 0-.0072 0-.00245 0-.00487 0-.00729 0s-.00484 0-.00726 0-.00484 0-.00726 0-.00484 0-.00727 0c-.00242 0-.00484 0-.00726 0s-.00484 0-.00726 0-.00484 0-.00726 0-.00484 0-.00726 0-.00484 0-.00726 0-.00484 0-.00726 0-.00484 0-.00726 0-.00484 0-.00726 0c-.00243 0-.00485 0-.00727 0s-.00484 0-.00726 0-.00484 0-.00726 0-.00484 0-.00726 0-.00484 0-.00726 0-.00484 0-.00726 0-.00484 0-.00726 0-.00484 0-.00726 0-.00484 0-.00727 0c-.00242 0-.00484 0-.00726 0s-.00484 0-.00726 0-.00484 0-.00726 0-.00484 0-.00726 0-.00484 0-.00726 0-.00484 0-.00726 0-.00484 0-.00726 0-.00484 0-.00726 0-.00485 0-.00727 0-.00484 0-.00726 0-.00484 0-.00726 0-.00484 0-.00726 0-.00484 0-.00726 0-.00484 0-.00726 0-.00484 0-.00726 0-.00484 0-.00726 0-.00484 0-.00726 0c-.00243 0-.00485 0-.00727 0s-.00484 0-.00726 0-.00484 0-.00726 0-.00484 0-.00726 0-.00484 0-.00726 0-.00484 0-.00726 0-.00484 0-.00726 0-.00484 0-.00726 0-.00484 0-.00726 0-.00485 0-.00727 0-.00484 0-.00726 0-.00484 0-.00726 0-.00484 0-.00726 0-.00484 0-.00726 0-.00484 0-.00726 0-.00484 0-.00726 0-.00484 0-.00726 0-.00484 0-.00726 0-.00484 0-.00727 0c-.00242 0-.00484 0-.00726 0s-.00484 0-.00726 0-.00484 0-.00726 0-.00484 0-.00726 0-.00484 0-.00726 0-.00484 0-.00726 0-.00484 0-.00726 0-.00484 0-.00726 0-.00484 0-.00726 0-.00484 0-.00727 0c-.00242 0-.00484 0-.00726 0s-.00484 0-.00726 0-.00484 0-.00726 0-.00484 0-.00726 0-.00484 0-.00726 0-.00484 0-.00726 0-.00484 0-.00726 0-.00484 0-.00726 0-.00484 0-.00726 0-.00484 0-.00727 0c-.00242 0-.00484 0-.00726 0s-.00484 0-.00726 0-.00484 0-.00726 0-.00484 0-.00726 0-.00484 0-.00726 0-.00484 0-.00726 0-.00484 0-.00726 0-.00484 0-.00726 0-.00484 0-.00726 0-.00484 0-.00726 0-.00484 0-.00727 0c-.00242 0-.00484 0-.00726 0s-.00484 0-.00726 0-.00484 0-.00726 0-.00484 0-.00726 0-.00484 0-.00726 0-.00484 0-.00726 0-.00484 0-.00726 0-.00484 0-.00726 0-.00484 0-.00726 0-.00484 0-.00726 0-.00484 0-.00726 0c-.00243 0-.00485 0-.00727 0s-.00484 0-.00726 0-.00484 0-.00726 0-.00484 0-.00726 0-.00484 0-.00726 0-.00484 0-.00726 0-.00484 0-.00726 0-.00484 0-.00726 0-.00484 0-.00726 0-.00484 0-.00726 0-.00484 0-.00726 0-.00484 0-.00727 0c-.00242 0-.00484 0-.00726 0s-.00484 0-.00726 0-.00484 0-.00726 0-.00484 0-.00726 0-.00484 0-.00726 0-.00484 0-.00726 0-.00484 0-.00726 0-.00484 0-.00726 0-.00484 0-.00726 0-.00484 0-.00726 0-.00484 0-.00726 0-.00484 0-.00726 0c-.00243 0-.00485 0-.00727 0s-.00484 0-.00726 0-.00484 0-.00726 0-.00484 0-.00726 0-.00484 0-.00726 0-.00484 0-.00726 0-.00484 0-.00726 0-.00484 0-.00726 0-.00484 0-.00726 0-.00484 0-.00726 0-.00484 0-.00726 0-.00484 0-.00726 0-.00484 0-.00726 0c-.00243 0-.00485 0-.00727 0s-.00484 0-.00726 0-.00484 0-.00726 0-.00484 0-.00726 0-.00484 0-.00726 0-.00484 0-.00726 0-.00484 0-.00726 0-.00484 0-.00726 0-.00484 0-.00726 0-.00484 0-.00726 0-.00484 0-.00726 0-.00484 0-.00726 0-.00484 0-.00726 0-.00484 0-.00726 0-.00484 0-.00727 0c-.00242 0-.00484 0-.00726 0s-.00484 0-.00726 0-.00484 0-.00726 0-.00484 0-.00726 0-.00484 0-.00726 0-.00484 0-.00726 0-.00484 0-.00726 0-.00484 0-.00726 0-.00484 0-.00726 0-.00484 0-.00726 0-.00484 0-.00726 0-.00484 0-.00726 0-.00484 0-.00726 0-.00484 0-.00726 0-.00484 0-.00726 0c-.00243 0-.00485 0-.00727 0s-.00484 0-.00726 0-.00484 0-.00726 0-.00484 0-.00726 0-.00484 0-.00726 0-.00484 0-.00726 0-.00484 0-.00726 0-.00484 0-.00726 0-.00484 0-.00726 0-.00484 0-.00726 0-.00484 0-.00726 0-.00484 0-.00726 0-.00484 0-.00726 0-.00484 0-.00726 0-.00484 0-.00726 0-.00484 0-.00726 0-.00484 0-.00727 0c-.00242 0-.00484 0-.00726 0s-.00484 0-.00726 0-.00484 0-.00726 0-.00484 0-.00726 0-.00484 0-.00726 0-.00484 0-.00726 0-.00484 0-.00726 0-.00484 0-.00726 0-.00484 0-.00726 0-.00484 0-.00726 0-.00484 0-.00726 0-.00484 0-.00726 0-.00484 0-.00726 0-.00484 0-.00726 0-.00484 0-.00726 0-.00484 0-.00726 0-.00484 0-.00726 0-.00484 0-.00726 0-.00484 0-.00727 0c-.00242 0-.00484 0-.00726 0s-.00484 0-.00726 0-.00484 0-.00726 0-.00484 0-.00726 0-.00484 0-.00726 0-.00484 0-.00726 0-.00484 0-.00726 0-.00484 0-.00726 0-.00484 0-.00726 0-.00484 0-.00726 0-.00484 0-.00726 0-.00484 0-.00726 0-.00484 0-.00726 0-.00484 0-.00726 0-.00484 0-.00726 0-.00484 0-.00726 0-.00484 0-.00726 0-.00484 0-.00726 0-.00484 0-.00726 0-.00484 0-.00726 0-.00484 0-.00726 0-.00484 0-.00726 0-.00484 0-.00727 0c-.00242 0-.00484 0-.00726 0s-.00484 0-.00726 0-.00484 0-.00726 0-.00484 0-.00726 0-.00484 0-.00726 0-.00484 0-.00726 0-.00484 0-.00726 0-.00484 0-.00726 0-.00484 0-.00726 0-.00484 0-.00726 0-.00484 0-.00726 0-.00484 0-.00726 0-.00484 0-.00726 0-.00484 0-.00726 0-.00484 0-.00726 0-.00484 0-.00726 0-.00484 0-.00726 0-.00484 0-.00726 0-.00484 0-.00726 0-.00484 0-.00726 0-.00484 0-.00726 0-.00484 0-.00726 0-.00484 0-.00726 0-.00484 0-.00726 0-.00484 0-.00726 0-.00484 0-.00726 0-.00484 0-.00726 0-.00484 0-.00726 0-.00485 0-.00727 0-.00484 0-.00726 0-.00484 0-.00726 0-.00484 0-.00726 0-.00484 0-.00726 0-.00484 0-.00726 0-.00484 0-.00726 0-.00484 0-.00726 0-.00484 0-.00726 0-.00484 0-.00726 0-.00484 0-.00726 0-.00484 0-.00726 0-.00484 0-.00726 0-.00484 0-.00726 0-.00484 0-.00726 0-.00484 0-.00726 0-.00484 0-.00726 0-.00484 0-.00726 0-.00484 0-.00726 0-.00484 0-.00726 0-.00484 0-.00726 0-.00484 0-.00726 0-.00484 0-.00726 0-.00484 0-.00726 0-.00484 0-.00726 0-.00484 0-.00726 0-.00484 0-.00726 0-.00484 0-.00726 0-.00484 0-.00726 0-.00484 0-.00726 0-.00484 0-.00726 0-.00484 0-.00726 0-.00484 0-.00726 0-.00484 0-.00726 0-.00484 0-.00726 0-.00484 0-.00726 0-.00484 0-.00726 0-.00484 0-.00726 0-.00484 0-.00726 0-.00484 0-.00726 0-.00484 0-.00726 0-.00484 0-.00726 0-.00484 0-.00726 0-.00484 0-.00726 0-.00484 0-.00726 0-.00484 0-.00726 0-.00484 0-.00726 0-.00484 0-.00726 0-.00485 0-.00726 0c-.00242 0-.00484 0-.00726 0s-.00485 0-.00727 0-.00484 0-.00725 0c-.00243 0-.00485 0-.00727 0s-.00484 0-.00726 0-.00484 0-.00726 0-.00484 0-.00726 0-.00484 0-.00726 0-.00484 0-.00726 0-.00484 0-.00726 0-.00484 0-.00726 0-.00484 0-.00726 0-.00484 0-.00726 0-.00484 0-.00726 0-.00484 0-.00726 0-.00484 0-.00726 0-.00484 0-.00726 0-.00484 0-.00726 0-.00484 0-.00726 0-.00484 0-.00726 0-.00484 0-.00726 0-.00484 0-.00726 0-.00484 0-.00726 0-.00484 0-.00726 0-.00484 0-.00726 0-.00484 0-.00726 0-.00484 0-.00726 0-.00484 0-.00726 0-.00484 0-.00726 0-.00484 0-.00726 0-.00484 0-.00726 0-.00484 0-.00726 0-.00484 0-.00726 0-.00484 0-.00726 0-.00484 0-.00726 0-.00484 0-.00726 0-.00484 0-.00726 0-.00484 0-.00726 0-.00484 0-.00726 0-.00484 0-.00726 0-.00484 0-.00726 0-.00484 0-.00726 0-.00484 0-.00726 0-.00484 0-.00726 0-.00484 0-.00726 0-.00484 0-.00726 0-.00484 0-.00726 0-.00484 0-.00726 0-.00484 0-.00726 0-.00484 0-.00726 0-.00484 0-.00726 0-.00484 0-.00726 0-.00484 0-.00726 0-.00484 0-.00726 0-.00484 0-.00726 0-.00484 0-.00726 0-.00484 0-.00726 0-.00484 0-.00726 0-.00483 0-.00725 0-.00484 0-.00726 0-.00484 0-.00726 0-.00484 0-.00726 0-.00484 0-.00726 0-.00484 0-.00726 0-.00484 0-.00726 0-.00484 0-.00726 0-.00484 0-.00726 0-.00484 0-.00726 0-.00484 0-.00726 0-.00484 0-.00726 0-.00484 0-.00726 0-.00484 0-.00726 0-.00484 0-.00726 0-.00484 0-.00726 0-.00484 0-.00726 0-.00484 0-.00726 0-.00484 0-.00726 0-.00484 0-.00726 0-.00484 0-.00726 0-.00484 0-.00726 0-.00484 0-.00726 0-.00484 0-.00726 0-.00484 0-.00726 0-.00484 0-.00726 0-.00484 0-.00726 0-.00484 0-.00726 0-.00484 0-.00726 0-.00484 0-.00726 0-.00484 0-.00726 0-.00484 0-.00726 0-.00484 0-.00726 0-.00484 0-.00726 0-.00484 0-.00726 0-.00484 0-.00726 0-.00484 0-.00726 0-.00484 0-.00726 0-.00484 0-.00726 0-.00484 0-.00726 0-.00484 0-.00726 0-.00484 0-.00726 0-.00484 0-.00726 0-.00484 0-.00726 0-.00484 0-.00726 0-.00484 0-.00726 0-.00484 0-.00726 0-.00484 0-.00726 0-.00484 0-.00726 0-.00484 0-.00725 0c-.00242 0-.00484 0-.00726 0s-.00484 0-.00726 0-.00484 0-.00726 0-.00484 0-.00726 0-.00484 0-.00726 0-.00484 0-.00726 0-.00484 0-.00726 0-.00484 0-.00726 0-.00484 0-.00726 0-.00484 0-.00726 0-.00484 0-.00726 0-.00484 0-.00726 0-.00484 0-.00726 0-.00484 0-.00726 0-.00484 0-.00726 0-.00484 0-.00726 0-.00484 0-.00726 0-.00484 0-.00726 0-.00484 0-.00726 0-.00484 0-.00726 0-.00484 0-.00726 0-.00484 0-.00726 0-.00484 0-.00726 0-.00484 0-.00726 0-.00484 0-.00726 0-.00484 0-.00726 0-.00484 0-.00726 0-.00484 0-.00726 0-.00484 0-.00726 0-.00484 0-.00725 0c-.00242 0-.00484 0-.00726 0s-.00484 0-.00726 0-.00484 0-.00726 0-.00484 0-.00726 0-.00484 0-.00726 0-.00484 0-.00726 0-.00484 0-.00726 0-.00484 0-.00726 0-.00484 0-.00726 0-.00484 0-.00726 0-.00484 0-.00726 0-.00484 0-.00726 0-.00484 0-.00726 0-.00484 0-.00726 0-.00484 0-.00726 0-.00484 0-.00726 0-.00484 0-.00726 0-.00484 0-.00726 0-.00484 0-.00726 0-.00484 0-.00726 0-.00484 0-.00726 0-.00484 0-.00726 0c-.00241 0-.00483 0-.00725 0s-.00484 0-.00726 0-.00484 0-.00726 0-.00484 0-.00726 0-.00484 0-.00726 0-.00484 0-.00726 0-.00484 0-.00726 0-.00484 0-.00726 0-.00484 0-.00726 0-.00484 0-.00726 0-.00484 0-.00726 0-.00484 0-.00726 0-.00484 0-.00726 0-.00484 0-.00726 0-.00484 0-.00726 0-.00484 0-.00726 0-.00484 0-.00726 0-.00484 0-.00726 0-.00484 0-.00726 0c-.00241 0-.00483 0-.00725 0s-.00484 0-.00726 0v.8h.00726.00725.00726.00726.00726.00726.00726.00726.00726.00726.00726.00726.00726.00726.00726.00726.00726.00726.00726.00726.00725.00726.00726.00726.00726.00726.00726.00726.00726.00726.00726.00726.00726.00726.00726.00726.00726.00726.00726.00726.00726.00726.00726.00725.00726.00726.00726.00726.00726.00726.00726.00726.00726.00726.00726.00726.00726.00726.00726.00726.00726.00726.00726.00726.00726.00726.00726.00726.00726.00726.00726.00726.00726.00725.00726.00726.00726.00726.00726.00726.00726.00726.00726.00726.00726.00726.00726.00726.00726.00726.00726.00726.00726.00726.00726.00726.00726.00726.00726.00726.00726.00726.00726.00726.00726.00726.00726.00726.00726.00726.00726.00726.00726.00726.00726.00726.00726.00726.00726.00726.00726.00726.00725.00726.00726.00726.00726.00726.00726.00726.00726.00726.00726.00726.00726.00726.00726.00726.00726.00726.00726.00726.00726.00726.00726.00726.00726.00726.00726.00726.00726.00726.00726.00726.00726.00726.00726.00726.00726.00726.00726.00726.00726.00726.00726.00726.00726.00726.00726.00726.00726.00726.00726.00726.00726.00726.00726.00727.00725.00727.00726.00726.00726.00726.00726.00726.00726.00726.00726.00726.00726.00726.00726.00726.00726.00726.00726.00726.00726.00726.00726.00726.00726.00726.00726.00726.00726.00726.00726.00726.00726.00726.00726.00726.00726.00726.00726.00726.00726.00726.00726.00726.00726.00726.00726.00726.00726.00726.00726.00727.00726.00726.00726.00726.00726.00726.00726.00726.00726.00726.00726.00726.00726.00726.00726.00726.00726.00726.00726.00726.00726.00726.00726.00726.00726.00726.00726.00726.00727.00726.00726.00726.00726.00726.00726.00726.00726.00726.00726.00726.00726.00726.00726.00726.00726.00726.00726.00726.00726.00726.00726.00727.00726.00726.00726.00726.00726.00726.00726.00726.00726.00726.00726.00726.00726.00726.00726.00726.00726.00726.00727.00726.00726.00726.00726.00726.00726.00726.00726.00726.00726.00726.00726.00726.00726.00726.00727.00726.00726.00726.00726.00726.00726.00726.00726.00726.00726.00726.00726.00726.00726.00726.00727.00726.00726.00726.00726.00726.00726.00726.00726.00726.00726.00726.00726.00726.00727.00726.00726.00726.00726.00726.00726.00726.00726.00726.00726.00726.00726.00727.00726.00726.00726.00726.00726.00726.00726.00726.00726.00726.00726.00726.00727.00726.00726.00726.00726.00726.00726.00726.00726.00726.00726.00727.00726.00726.00726.00726.00726.00726.00726.00726.00726.00726.00726.00727.00726.00726.00726.00726.00726.00726.00726.00726.00726.00726.00727.00726.00726.00726.00726.00726.00726.00726.00726.00726.00727.00726.00726.00726.00726.00726.00726.00726.00726.00726.00727.00726.00726.00726.00726.00726.00726.00726.00726.00727.00726.00726.00726.00726.00726.00726.00726.00726.00727.00726.00726.00726.00726.00726.00726.00726.00726.00727.00726.00726.00726.00726.00726.00726.00726.00726.00727.00726.00726.00726.00726.00726.00726.00726.00727.00726.00726.00726.00726.00726.00726.00726.00726.00727.00726.00726.00729.0072.0073.0073.0072.0073.0072.0073.0073.0072.0073.0072.0073.0073.0072.0073.0073.0072.0073.0072.0073.0073.0072.0073.0072.0073.0073.0072.0073.0072zm-3.71668 0c-.72356-.001-1.31882-.2551-1.73268-.6684-.41384-.4133-.66851-1.0079-.67003-1.7312l-.8.0017c.00193.9164.32835 1.72.90473 2.2956.57635.5755 1.38043.901 2.29679.9023zm-2.40271-2.3993c-.00294-2.3616-.00294-4.7229 0-7.0838l-.8-.001c-.00294 2.3616-.00294 4.7236 0 7.0858zm0-7.0843v-.2992h-.8v.2992zm-.36607-.6978c-.33139-.0282-.53543-.0223-.76805-.0676l-.15302.7852c.28587.0558.61996.0597.85321.0796zm-.76776-.0675c-.73377-.1436-1.21268-.5602-1.44747-1.2601l-.758466.2544c.327886.9775 1.041116 1.5929 2.052336 1.7908zm-1.4476-1.2606c-.23074-.6854-.0961-1.3008.3869-1.8698l-.60993-.5177c-.650207.7661-.862206 1.6713-.535168 2.6428zm.38778-1.8709c.04876-.0578.10299-.1101.17964-.1867l-.5654-.566c-.06181.0618-.14899.1459-.22592.2371zm.17965-.1867c3.33144-3.32844 6.66502-6.65458 10.00069-9.97844l-.5647-.56669c-3.3359 3.32411-6.66972 6.6505-10.00142 9.97923zm10.00049-9.97826c.2457-.24451.5099-.44508.7551-.52261l-.2411-.762797c-.4313.136338-.8065.447837-1.0783.718367zm.7549-.52254c.7597-.23965 1.4313-.16881 1.9911.36591l.5526-.57851c-.8278-.790621-1.8305-.851219-2.7844-.550337zm1.9913.36609c.4196.40031.8234.81395 1.2423 1.23289l.5657-.56564c-.4099-.41-.827-.83709-1.2558-1.24612zm1.2425 1.23304c2.8933 2.89078 5.788 5.78042 8.6839 8.66887l.565-.5664c-2.8958-2.88831-5.7903-5.77778-8.6835-8.66841zm8.6842 8.66917c.4142.4123.7275.7851.8644 1.2637l.7692-.22c-.197-.6887-.6408-1.1842-1.0692-1.6106zm.849 1.1528-.0025 1.0742.8.0018.0025-1.0742zm-15.5487 11.5753v-.3153h-.79998v.3153zm0-.3153c0-1.6576-.0142-3.3045.0108-4.953l-.79994-.0121c-.0251 1.6565-.01084 3.3167-.01084 4.9651zm.0108-4.9532c.0162-1.1028.9062-2.067 1.9885-2.1397l-.0536-.7982c-1.5151.1018-2.71276 1.4244-2.73484 2.9262zm1.9886-2.1397c.9791-.066 1.9475-.0134 2.9765-.0109l.002-.8c-.9742-.0024-2.017-.0557-3.0323.0127zm2.9582-.0113c.0532.0025.106.0107.1574.0243l.205-.7733c-.1059-.028-.2144-.0448-.3238-.0501zm.1713.0278c1.0966.249 1.8096 1.1353 1.8151 2.2929l.8-.0038c-.0073-1.5235-.9725-2.7365-2.4379-3.0693zm1.8151 2.2928c.0074 1.6029 0 3.2035 0 4.81h.8c0-1.6013.0074-3.2086 0-4.8136zm0 4.81v.2943h.8v-.2943zm.4.6943h.0062.0062.0062.0062.0061.0062.0062.0062.0062.0062.0061.0062.0062.0062.0062.0061.0062.0062.0062.0061.0062.0062.0062.0061.0062.0062.0061.0062.0062.0061.0062.0062.0061.0062.0062.0061.0062.0061.0062.0062.0061.0062.0061.0062.0061.0062.0061.0062.0061.0062.0061.0062.0061.0062.0061.0062.0061.0062.0061.0061.0062.0061.0062.0061.0061.0062.0061.0062.0061.0061.0062.0061.0061.0062.0061.0061.0061.0062.0061.0061.0062.0061.0061.0061.0061.0062.0061.0061.0061.0062.0061.0061.0061.0061.0061.0062.0061.0061.0061.0061.0061.0061.0061.0062.0061.0061.0061.0061.0061.0061.0061.0061.0061.0061.0061.0061.0061.0061.0061.0061.0061.0061.0061.0061.0061.0061.0061.0061.0061.0061.0061.006.0061.0061.0061.0061.0061.0061.0061.006.0061.0061.0061.0061.0061.006.0061.0061.0061.0061.006.0061.0061.0061.0061.006.0061.0061.0061.006.0061.0061.006.0061.0061.0061.006.0061.0061.006.0061.0061.006.0061.006.0061.0061.006.0061.0061.006.0061.006.0061.0061.006.0061.006.0061.006.0061.0061.006.0061.006.0061.006.0061.006.0061.006.0061.006.0061.006.0061.006.0061.006.006.0061.006.0061.006.0061.006.006.0061.006.0061.006.006.0061.006.0061.006.006.0061.006.006.0061.006.006.0061.006.006.0061.006.006.0061.006.006.0061.006.006.006.0061.006.006.006.0061.006.006.006.0061.006.006.006.0061.006.006.006.006.0061.006.006.006.006.0061.006.006.006.006.006.006.0061.006.006.006.006.006.006.0061.006.006.006.006.006.006.006.006.006.006.0061.006.006.006.006.006.006.006.006.006.006.006.006.006.006.006.006.006.006.006.006.006.006.006.006.006.006.006.006.006.006.006.006.006.006.006.006.006.006.006.006.006.006.006.0059.006.006.006.006.006.006.006.006.006.006.0059.006.006.006.006.006.006.006.006.0059.006.006.006.006.006.006.0059.006.006.006.006.006.006.0059.006.006.006.006.006.0059.006.006.006.006.0059.006.006.006.006.0059.006.006.006.006.0059.006.006.006.006.0059.006.006.006.0059.006.006.006.0059.006.006.006.006.0059.006.006.006.0059.006.006.006.0059.006.006.0059.006.006.006.0059.006.006.006.0059.006.006.0059.006.006.006.0059.006.006.0059.006.006.006.0059.006.006.0059.006.006.006.0059.006.006.0059.006.006.0059.006.006.006.0059.006.006.0059.006.006.0059.006.006.0059.006.006.0059.006.006.0059.006.006.0059.006.006.006.0059.006.006.0059.006.006.0059.006.006.0059.006.006.0059.006.006.0059.006.006.0059.006.006.0059.006.006.0059.006.006.0059.006.006v-.8c-.002 0-.004 0-.006 0s-.004 0-.006 0-.0039 0-.0059 0-.004 0-.006 0-.004 0-.006 0-.0039 0-.0059 0-.004 0-.006 0-.004 0-.006 0-.0039 0-.0059 0-.004 0-.006 0-.004 0-.006 0-.004 0-.0059 0c-.002 0-.004 0-.006 0s-.004 0-.006 0-.004 0-.0059 0c-.002 0-.004 0-.006 0s-.004 0-.006 0-.004 0-.0059 0c-.002 0-.004 0-.006 0s-.004 0-.006 0-.004 0-.0059 0c-.002 0-.004 0-.006 0s-.004 0-.006 0-.004 0-.0059 0c-.002 0-.004 0-.006 0s-.004 0-.006 0-.004 0-.0059 0c-.002 0-.004 0-.006 0s-.004 0-.006 0-.004 0-.0059 0c-.002 0-.004 0-.006 0s-.004 0-.006 0-.004 0-.006 0c-.0019 0-.0039 0-.0059 0s-.004 0-.006 0-.004 0-.006 0c-.0019 0-.0039 0-.0059 0s-.004 0-.006 0-.004 0-.006 0c-.0019 0-.0039 0-.0059 0s-.004 0-.006 0-.004 0-.006 0-.0039 0-.0059 0-.004 0-.006 0-.004 0-.006 0-.0039 0-.0059 0-.004 0-.006 0-.004 0-.006 0-.004 0-.0059 0c-.002 0-.004 0-.006 0s-.004 0-.006 0-.004 0-.0059 0c-.002 0-.004 0-.006 0s-.004 0-.006 0-.004 0-.006 0c-.0019 0-.0039 0-.0059 0s-.004 0-.006 0-.004 0-.006 0-.0039 0-.0059 0-.004 0-.006 0-.004 0-.006 0-.004 0-.0059 0c-.002 0-.004 0-.006 0s-.004 0-.006 0-.004 0-.006 0c-.0019 0-.0039 0-.0059 0s-.004 0-.006 0-.004 0-.006 0-.0039 0-.0059 0-.004 0-.006 0-.004 0-.006 0-.004 0-.006 0c-.0019 0-.0039 0-.0059 0s-.004 0-.006 0-.004 0-.006 0-.0039 0-.0059 0-.004 0-.006 0-.004 0-.006 0-.004 0-.006 0c-.0019 0-.0039 0-.0059 0s-.004 0-.006 0-.004 0-.006 0-.0039 0-.0059 0-.004 0-.006 0-.004 0-.006 0-.004 0-.006 0-.0039 0-.0059 0-.004 0-.006 0-.004 0-.006 0-.004 0-.006 0c-.0019 0-.0039 0-.0059 0s-.004 0-.006 0-.004 0-.006 0-.004 0-.0059 0c-.002 0-.004 0-.006 0s-.004 0-.006 0-.004 0-.006 0-.004 0-.0059 0c-.002 0-.004 0-.006 0s-.004 0-.006 0-.004 0-.006 0-.004 0-.0059 0c-.002 0-.004 0-.006 0s-.004 0-.006 0-.004 0-.006 0-.004 0-.006 0c-.0019 0-.0039 0-.0059 0s-.004 0-.006 0-.004 0-.006 0-.004 0-.006 0-.0039 0-.0059 0-.004 0-.006 0-.004 0-.006 0-.004 0-.006 0-.004 0-.0059 0c-.002 0-.004 0-.006 0s-.004 0-.006 0-.004 0-.006 0-.004 0-.006 0-.0039 0-.0059 0-.004 0-.006 0-.004 0-.006 0-.004 0-.006 0-.004 0-.006 0-.0039 0-.0059 0-.004 0-.006 0-.004 0-.006 0-.004 0-.006 0-.004 0-.006 0-.0039 0-.0059 0-.004 0-.006 0-.004 0-.006 0-.004 0-.006 0-.004 0-.006 0-.004 0-.0059 0c-.002 0-.004 0-.006 0s-.004 0-.006 0-.004 0-.006 0-.004 0-.006 0-.004 0-.006 0-.004 0-.0059 0c-.002 0-.004 0-.006 0s-.004 0-.006 0-.004 0-.006 0-.004 0-.006 0-.004 0-.006 0-.004 0-.006 0-.0039 0-.0059 0-.004 0-.006 0-.004 0-.006 0-.004 0-.006 0-.004 0-.006 0-.004 0-.006 0-.004 0-.006 0-.0039 0-.0059 0-.004 0-.006 0-.004 0-.006 0-.004 0-.006 0-.004 0-.006 0-.004 0-.006 0-.004 0-.006 0-.004 0-.006 0-.004 0-.006 0c-.0019 0-.0039 0-.0059 0s-.004 0-.006 0-.004 0-.006 0-.004 0-.006 0-.004 0-.006 0-.004 0-.006 0-.004 0-.006 0-.004 0-.006 0-.004 0-.006 0-.004 0-.006 0-.004 0-.006 0-.0039 0-.0059 0-.004 0-.006 0-.004 0-.006 0-.004 0-.006 0-.004 0-.006 0-.004 0-.006 0-.004 0-.006 0-.004 0-.006 0-.004 0-.006 0-.004 0-.006 0-.004 0-.006 0-.004 0-.006 0-.004 0-.006 0-.004 0-.006 0-.004 0-.006 0-.004 0-.006 0-.004 0-.006 0-.004 0-.006 0-.004 0-.006 0-.004 0-.006 0-.004 0-.006 0-.004 0-.006 0-.004 0-.006 0-.004 0-.006 0-.004 0-.006 0-.004 0-.006 0-.004 0-.006 0-.004 0-.006 0-.004 0-.006 0-.004 0-.006 0-.004 0-.006 0-.004 0-.006 0-.004 0-.006 0-.004 0-.006 0-.004 0-.006 0-.004 0-.006 0-.004 0-.006 0-.004 0-.006 0-.004 0-.006 0-.004 0-.006 0-.004 0-.006 0-.004 0-.006 0-.004 0-.006 0-.004 0-.006 0-.004 0-.0061 0c-.002 0-.004 0-.006 0s-.004 0-.006 0-.004 0-.006 0-.004 0-.006 0-.004 0-.006 0-.004 0-.006 0-.004 0-.006 0-.004 0-.006 0-.004 0-.006 0-.004 0-.006 0c-.0021 0-.0041 0-.0061 0s-.004 0-.006 0-.004 0-.006 0-.004 0-.006 0-.004 0-.006 0-.004 0-.006 0-.004 0-.006 0-.004 0-.0061 0c-.002 0-.004 0-.006 0s-.004 0-.006 0-.004 0-.006 0-.004 0-.006 0-.004 0-.006 0-.004 0-.006 0c-.0021 0-.0041 0-.0061 0s-.004 0-.006 0-.004 0-.006 0-.004 0-.006 0-.004 0-.006 0-.0041 0-.0061 0-.004 0-.006 0-.004 0-.006 0-.004 0-.006 0-.004 0-.006 0c-.0021 0-.0041 0-.0061 0s-.004 0-.006 0-.004 0-.006 0-.004 0-.006 0-.0041 0-.0061 0-.004 0-.006 0-.004 0-.006 0-.004 0-.006 0-.004 0-.0061 0c-.002 0-.004 0-.006 0s-.004 0-.006 0-.004 0-.006 0-.0041 0-.0061 0-.004 0-.006 0-.004 0-.006 0-.004 0-.006 0c-.0021 0-.0041 0-.0061 0s-.004 0-.006 0-.004 0-.006 0-.0041 0-.0061 0-.004 0-.006 0-.004 0-.006 0-.004 0-.0061 0c-.002 0-.004 0-.006 0s-.004 0-.006 0-.004 0-.0061 0c-.002 0-.004 0-.006 0s-.004 0-.006 0-.004 0-.0061 0c-.002 0-.004 0-.006 0s-.004 0-.006 0-.0041 0-.0061 0-.004 0-.006 0-.004 0-.006 0c-.0021 0-.0041 0-.0061 0s-.004 0-.006 0-.004 0-.0061 0c-.002 0-.004 0-.006 0s-.004 0-.006 0-.0041 0-.0061 0-.004 0-.006 0-.004 0-.0061 0c-.002 0-.004 0-.006 0s-.004 0-.006 0c-.0021 0-.0041 0-.0061 0s-.004 0-.006 0-.004 0-.0061 0c-.002 0-.004 0-.006 0s-.004 0-.0061 0c-.002 0-.004 0-.006 0s-.004 0-.006 0c-.0021 0-.0041 0-.0061 0s-.004 0-.006 0c-.0021 0-.0041 0-.0061 0s-.004 0-.006 0-.0041 0-.0061 0-.004 0-.006 0-.0041 0-.0061 0-.004 0-.006 0-.0041 0-.0061 0-.004 0-.006 0-.0041 0-.0061 0-.004 0-.006 0-.0041 0-.0061 0-.004 0-.006 0c-.0021 0-.0041 0-.0061 0s-.004 0-.006 0c-.0021 0-.0041 0-.0061 0s-.004 0-.0061 0c-.002 0-.004 0-.006 0s-.004 0-.0061 0c-.002 0-.004 0-.006 0s-.0041 0-.0061 0-.004 0-.006 0c-.0021 0-.0041 0-.0061 0s-.004 0-.0061 0c-.002 0-.004 0-.006 0s-.0041 0-.0061 0-.004 0-.006 0c-.0021 0-.0041 0-.0061 0s-.004 0-.0061 0c-.002 0-.004 0-.006 0s-.0041 0-.0061 0-.004 0-.0061 0c-.002 0-.004 0-.006 0s-.0041 0-.0061 0-.004 0-.006 0c-.0021 0-.0041 0-.0061 0s-.0041 0-.0061 0-.004 0-.006 0c-.0021 0-.0041 0-.0061 0s-.0041 0-.0061 0-.004 0-.006 0c-.0021 0-.0041 0-.0061 0s-.0041 0-.0061 0-.004 0-.0061 0c-.002 0-.004 0-.006 0-.0021 0-.0041 0-.0061 0s-.0041 0-.0061 0-.004 0-.006 0c-.0021 0-.0041 0-.0061 0s-.0041 0-.0061 0-.004 0-.0061 0c-.002 0-.004 0-.006 0-.0021 0-.0041 0-.0061 0s-.0041 0-.0061 0-.0041 0-.0061 0-.004 0-.0061 0c-.002 0-.004 0-.006 0-.0021 0-.0041 0-.0061 0s-.0041 0-.0061 0-.004 0-.0061 0c-.002 0-.004 0-.0061 0-.002 0-.004 0-.006 0-.0021 0-.0041 0-.0061 0s-.0041 0-.0061 0-.0041 0-.0061 0-.004 0-.0061 0c-.002 0-.004 0-.0061 0-.002 0-.004 0-.006 0-.0021 0-.0041 0-.0061 0-.0021 0-.0041 0-.0061 0s-.0041 0-.0061 0-.0041 0-.0061 0-.004 0-.0061 0c-.002 0-.004 0-.0061 0-.002 0-.004 0-.0061 0-.002 0-.004 0-.006 0-.0021 0-.0041 0-.0061 0-.0021 0-.0041 0-.0061 0-.0021 0-.0041 0-.0061 0-.0021 0-.0041 0-.0061 0s-.0041 0-.0061 0-.0041 0-.0061 0-.0041 0-.0061 0-.0041 0-.0061 0-.0041 0-.0061 0-.0041 0-.0061 0-.0041 0-.0061 0-.0041 0-.0061 0-.0041 0-.0061 0-.0041 0-.0061 0-.0041 0-.0061 0-.0041 0-.0061 0-.0041 0-.0061 0-.0041 0-.0061 0-.0041 0-.0061 0-.0041 0-.0061 0-.0041 0-.0061 0-.0041 0-.0061 0-.0041 0-.0061 0c-.0021 0-.0041 0-.0061 0-.0021 0-.0041 0-.0061 0-.0021 0-.0041 0-.0061 0-.0021 0-.0041 0-.0061 0-.0021 0-.0041 0-.0062 0-.002 0-.004 0-.0061 0-.002 0-.004 0-.0061 0-.002 0-.0041 0-.0061 0s-.0041 0-.0061 0-.0041 0-.0061 0c-.0021 0-.0041 0-.0061 0-.0021 0-.0041 0-.0061 0-.0021 0-.0041 0-.0062 0-.002 0-.004 0-.0061 0-.002 0-.0041 0-.0061 0s-.0041 0-.0061 0-.0041 0-.0061 0c-.0021 0-.0041 0-.0061 0-.0021 0-.0041 0-.0062 0-.002 0-.004 0-.0061 0-.002 0-.0041 0-.0061 0s-.0041 0-.0061 0c-.0021 0-.0041 0-.0062 0-.002 0-.004 0-.0061 0-.002 0-.0041 0-.0061 0s-.0041 0-.0061 0c-.0021 0-.0041 0-.0061 0-.0021 0-.0041 0-.0062 0-.002 0-.0041 0-.0061 0s-.0041 0-.0061 0c-.0021 0-.0041 0-.0062 0-.002 0-.004 0-.0061 0-.002 0-.0041 0-.0061 0-.0021 0-.0041 0-.0061 0-.0021 0-.0041 0-.0062 0-.002 0-.0041 0-.0061 0-.0021 0-.0041 0-.0061 0-.0021 0-.0041 0-.0062 0-.002 0-.0041 0-.0061 0-.0021 0-.0041 0-.0061 0-.0021 0-.0041 0-.0062 0-.002 0-.0041 0-.0061 0-.0021 0-.0041 0-.0062 0-.002 0-.004 0-.0061 0-.002 0-.0041 0-.0061 0-.0021 0-.0041 0-.0062 0-.002 0-.0041 0-.0061 0-.0021 0-.0041 0-.0062 0-.002 0-.004 0-.0061 0-.002 0-.0041 0-.0061 0-.0021 0-.0041 0-.0062 0-.002 0-.0041 0-.0061 0-.0021 0-.0041 0-.0062 0-.002 0-.0041 0-.0061 0-.0021 0-.0041 0-.0062 0-.002 0-.0041 0-.0061 0-.0021 0-.0041 0-.0062 0-.002 0-.0041 0-.0061 0-.0021 0-.0041 0-.0062 0-.002 0-.0041 0-.0061 0-.0021 0-.0041 0-.0062 0-.002 0-.0041 0-.0061 0-.0021 0-.0041 0-.0062 0-.002 0-.0041 0-.0061 0-.0021 0-.0041 0-.0062 0-.002 0-.0041 0-.0061 0-.0021 0-.0041 0-.0062 0-.002 0-.0041 0-.0061 0-.0021 0-.0042 0-.0062 0-.0021 0-.0041 0-.0062 0-.002 0-.0041 0-.0061 0-.0021 0-.0041 0-.0062 0-.002 0-.0041 0-.0061 0-.0021 0-.0042 0-.0062 0-.0021 0-.0041 0-.0062 0-.002 0-.0041 0-.0061 0-.0021 0-.0041 0-.0062 0s-.0041 0-.0062 0c-.002 0-.0041 0-.0061 0-.0021 0-.0041 0-.0062 0-.002 0-.0041 0-.0062 0-.002 0-.0041 0-.0061 0-.0021 0-.0041 0-.0062 0s-.0041 0-.0062 0c-.002 0-.0041 0-.0061 0-.0021 0-.0042 0-.0062 0-.0021 0-.0041 0-.0062 0-.002 0-.0041 0-.0062 0-.002 0-.0041 0-.0061 0-.0021 0-.0041 0-.0062 0s-.0041 0-.0062 0c-.002 0-.0041 0-.0062 0-.002 0-.0041 0-.0061 0-.0021 0-.0042 0-.0062 0-.0021 0-.0041 0-.0062 0s-.0041 0-.0062 0c-.002 0-.0041 0-.0062 0-.002 0-.0041 0-.0061 0-.0021 0-.0042 0-.0062 0-.0021 0-.0041 0-.0062 0s-.0041 0-.0062 0-.0041 0-.0062 0c-.002 0-.0041 0-.0062 0-.002 0-.0041 0-.0061 0-.0021 0-.0042 0-.0062 0-.0021 0-.0042 0-.0062 0-.0021 0-.0042 0-.0062 0-.0021 0-.0041 0-.0062 0zm3.0933 0c.5259 0 .9936-.1377 1.3283-.4712.3348-.3338.4735-.8008.4735-1.3262h-.8c0 .3923-.1023.624-.2383.7596-.1362.1357-.3694.2378-.7635.2378zm1.8018-1.7974c0-.0052 0-.0104 0-.0156s0-.0104 0-.0156 0-.0104 0-.0156 0-.0104 0-.0156 0-.0104 0-.0156 0-.0104 0-.0156 0-.0104 0-.0156 0-.0104 0-.0156 0-.0104 0-.0156 0-.0104 0-.0156 0-.0104 0-.0156 0-.0104 0-.0156 0-.0104 0-.0156 0-.0104 0-.0156 0-.0104 0-.0156 0-.0104 0-.0156c0-.0053 0-.0104 0-.0157 0-.0052 0-.0104 0-.0156s0-.0104 0-.0156 0-.0104 0-.0156 0-.0104 0-.0156 0-.0104 0-.0156 0-.0104 0-.0156 0-.0104 0-.0156 0-.0104 0-.0156 0-.0104 0-.0156 0-.0104 0-.0156 0-.0104 0-.0156 0-.0104 0-.0156 0-.0104 0-.0156 0-.0104 0-.0156 0-.0104 0-.0156 0-.0104 0-.0156 0-.0104 0-.0156 0-.0104 0-.0156 0-.0104 0-.0156 0-.0104 0-.0156 0-.0104 0-.0156 0-.0104 0-.0156 0-.0104 0-.0156 0-.0104 0-.0156 0-.0104 0-.0156 0-.0104 0-.0156 0-.0104 0-.0156 0-.0104 0-.0156 0-.0104 0-.0156 0-.0104 0-.0156 0-.0104 0-.0156 0-.0104 0-.0156 0-.0104 0-.0156 0-.0104 0-.0156 0-.0104 0-.0156 0-.0104 0-.0156 0-.0104 0-.0156 0-.0104 0-.0156 0-.0104 0-.0156 0-.0104 0-.0156 0-.0104 0-.0156 0-.0104 0-.0156 0-.0104 0-.0156 0-.0104 0-.0156c0-.0053 0-.0105 0-.0157s0-.0104 0-.0156 0-.0104 0-.0156 0-.0104 0-.0156 0-.0104 0-.0156 0-.0104 0-.0156 0-.0104 0-.0156 0-.0104 0-.0156 0-.0104 0-.0156 0-.0104 0-.0156 0-.0104 0-.0156 0-.0104 0-.0156 0-.0104 0-.0156 0-.0104 0-.0156 0-.0104 0-.0156 0-.0104 0-.0156 0-.0104 0-.0156 0-.0104 0-.0156 0-.0104 0-.0156 0-.0104 0-.0156 0-.0104 0-.0156 0-.0104 0-.0156 0-.0104 0-.0156 0-.0104 0-.0156 0-.0104 0-.0156 0-.0104 0-.0156 0-.0104 0-.0156 0-.0104 0-.0156 0-.0104 0-.0156 0-.0104 0-.0156 0-.0104 0-.0156 0-.0104 0-.0156 0-.0104 0-.0156 0-.0104 0-.0156 0-.0104 0-.0156 0-.0104 0-.0156 0-.0104 0-.0156 0-.0104 0-.0156 0-.0104 0-.0156 0-.0104 0-.0156 0-.0104 0-.0156 0-.0104 0-.0156 0-.0104 0-.0156 0-.0104 0-.0156 0-.0104 0-.0157c0-.0051 0-.0104 0-.0156s0-.0104 0-.0156 0-.0104 0-.0156 0-.0104 0-.0156 0-.0104 0-.0156 0-.0104 0-.0156 0-.0104 0-.0156 0-.0104 0-.0156 0-.0104 0-.0156 0-.0104 0-.0156 0-.0104 0-.0156 0-.0104 0-.0156 0-.0104 0-.0156 0-.0104 0-.0156 0-.0104 0-.0156 0-.0104 0-.0156 0-.0104 0-.0156 0-.0104 0-.0156 0-.0104 0-.0156 0-.0104 0-.0156 0-.0104 0-.0156 0-.0104 0-.0156 0-.0104 0-.0156 0-.0104 0-.0156 0-.0104 0-.0156 0-.0104 0-.0156 0-.0104 0-.0156 0-.0104 0-.0156 0-.0104 0-.0156 0-.0104 0-.0156 0-.0104 0-.0156 0-.0104 0-.0156 0-.0104 0-.0156 0-.0104 0-.0156 0-.0104 0-.0156 0-.0104 0-.0156 0-.0104 0-.0156 0-.0104 0-.0156 0-.0104 0-.0156 0-.0104 0-.0156 0-.0104 0-.0156 0-.0104 0-.0156 0-.0104 0-.0156 0-.0104 0-.0156 0-.0104 0-.0156c0-.0053 0-.0105 0-.0157s0-.0104 0-.0156 0-.0104 0-.0156 0-.0104 0-.0156 0-.0104 0-.0156 0-.0104 0-.0156 0-.0104 0-.0156 0-.0104 0-.0156 0-.0104 0-.0156 0-.0104 0-.0156 0-.0104 0-.0156 0-.0104 0-.0156 0-.0104 0-.0156 0-.0104 0-.0156 0-.0104 0-.0156 0-.0104 0-.0156 0-.0104 0-.0156 0-.0104 0-.0156 0-.0104 0-.0156 0-.0104 0-.0156 0-.0104 0-.0156 0-.0104 0-.0156 0-.0104 0-.0156 0-.0104 0-.0156 0-.0104 0-.0156 0-.0104 0-.0156 0-.0104 0-.0156 0-.0104 0-.0156 0-.0104 0-.0156 0-.0104 0-.0156 0-.0104 0-.0156 0-.0104 0-.0156 0-.0104 0-.0156 0-.0104 0-.0156 0-.0104 0-.0156 0-.0104 0-.0156 0-.0104 0-.0156 0-.0104 0-.0156 0-.0104 0-.0156 0-.0104 0-.0156 0-.0104 0-.0156 0-.0104 0-.0156 0-.0104 0-.0156 0-.0104 0-.0156 0-.0104 0-.0156c0-.0053 0-.0105 0-.0157s0-.0104 0-.0156 0-.0104 0-.0156 0-.0104 0-.0156 0-.0104 0-.0156 0-.0104 0-.0156 0-.0104 0-.0156 0-.0104 0-.0156 0-.0104 0-.0156 0-.0104 0-.0156 0-.0104 0-.0156 0-.0104 0-.0156 0-.0104 0-.0156 0-.0104 0-.0156 0-.0104 0-.0156 0-.0104 0-.0156 0-.0104 0-.0156 0-.0104 0-.0156 0-.0104 0-.0156 0-.0104 0-.0156 0-.0104 0-.0156 0-.0104 0-.0156 0-.0104 0-.0156 0-.0104 0-.0156 0-.0104 0-.0156 0-.0104 0-.0156 0-.0104 0-.0156 0-.0104 0-.0156 0-.0104 0-.0156 0-.0104 0-.0156 0-.0104 0-.0156 0-.0104 0-.0156 0-.0104 0-.0156 0-.0104 0-.0156 0-.0104 0-.0156 0-.0104 0-.0156 0-.0104 0-.0156 0-.0104 0-.0156 0-.0104 0-.0156 0-.0104 0-.0156 0-.0104 0-.0156 0-.0104 0-.0156 0-.0104 0-.0156 0-.0104 0-.0156 0-.0104 0-.0156c0-.0053 0-.0105 0-.0157s0-.0104 0-.0156 0-.0104 0-.0156 0-.0104 0-.0156 0-.0104 0-.0156 0-.0104 0-.0156 0-.0104 0-.0156 0-.0104 0-.0156 0-.0104 0-.0156 0-.0104 0-.0156 0-.0104 0-.0156 0-.0104 0-.0156 0-.0104 0-.0156 0-.0104 0-.0156 0-.0104 0-.0156 0-.0104 0-.0156 0-.0104 0-.0156 0-.0104 0-.0156 0-.0104 0-.0156 0-.0104 0-.0156 0-.0104 0-.0156 0-.0104 0-.0156 0-.0104 0-.0156 0-.0104 0-.0156 0-.0104 0-.0156 0-.0104 0-.0156 0-.0104 0-.0156 0-.0104 0-.0156 0-.0104 0-.0156 0-.0104 0-.0156 0-.0104 0-.0156 0-.0104 0-.0156 0-.0104 0-.0156 0-.0104 0-.0156 0-.0104 0-.0156 0-.0104 0-.0156 0-.0104 0-.0156 0-.0104 0-.0156 0-.0104 0-.0156 0-.0104 0-.0156 0-.0104 0-.0156 0-.0104 0-.0156 0-.0104 0-.0156 0-.0104 0-.0156 0-.0104 0-.0156c0-.0053 0-.0105 0-.0157s0-.0104 0-.0156 0-.0104 0-.0156 0-.0104 0-.0156 0-.0104 0-.0156 0-.0104 0-.0156 0-.0104 0-.0156 0-.0104 0-.0156 0-.0104 0-.0156 0-.0104 0-.0156 0-.0104 0-.0156 0-.0104 0-.0156 0-.0104 0-.0156 0-.0104 0-.0156 0-.0104 0-.0156 0-.0104 0-.0156 0-.0104 0-.0156 0-.0104 0-.0156 0-.0104 0-.0156 0-.0104 0-.0156 0-.0104 0-.0156 0-.0104 0-.0156 0-.0104 0-.0156 0-.0104 0-.0156 0-.0104 0-.0156 0-.0104 0-.0156 0-.0104 0-.0156 0-.0104 0-.0156 0-.0104 0-.0156 0-.0104 0-.0156 0-.0104 0-.0156 0-.0104 0-.0156 0-.0104 0-.0156 0-.0104 0-.0156 0-.0104 0-.0156 0-.0104 0-.0156 0-.0104 0-.0156 0-.0104 0-.0156 0-.0104 0-.0156 0-.0104 0-.0156 0-.0104 0-.0156 0-.0104 0-.0156 0-.0104 0-.0156 0-.0104 0-.0156 0-.0104 0-.0156 0-.0105 0-.0157 0-.0104 0-.0156 0-.0104 0-.0156 0-.0104 0-.0156 0-.0104 0-.0156 0-.0104 0-.0156 0-.0104 0-.0156 0-.0104 0-.0156 0-.0104 0-.0156 0-.0104 0-.0156 0-.0104 0-.0156 0-.0104 0-.0156 0-.0104 0-.0156 0-.0104 0-.0156 0-.0104 0-.0156 0-.0104 0-.0156 0-.0104 0-.0156 0-.0104 0-.0156 0-.0104 0-.0156 0-.0104 0-.0156 0-.0104 0-.0156 0-.0104 0-.0156 0-.0104 0-.0156 0-.0104 0-.0156 0-.0104 0-.0156 0-.0104 0-.0156 0-.0104 0-.0156 0-.0104 0-.0156 0-.0104 0-.0156 0-.0104 0-.0156 0-.0104 0-.0156 0-.0104 0-.0156 0-.0104 0-.0156 0-.0104 0-.0156 0-.0104 0-.0156 0-.0104 0-.0156 0-.0104 0-.0156 0-.0104 0-.0156 0-.0104 0-.0156 0-.0104 0-.0156 0-.0104 0-.0156 0-.0104 0-.0156 0-.0104 0-.0156 0-.0104 0-.0156 0-.0104 0-.0156c0-.0053 0-.0104 0-.0157 0-.0052 0-.0104 0-.0156s0-.0104 0-.0156 0-.0104 0-.0156 0-.0104 0-.0156 0-.0104 0-.0156 0-.0104 0-.0156 0-.0104 0-.0156 0-.0104 0-.0156 0-.0104 0-.0156 0-.0104 0-.0156 0-.0104 0-.0156 0-.0104 0-.0156 0-.0104 0-.0156 0-.0104 0-.0156 0-.0104 0-.0156 0-.0104 0-.0156 0-.0104 0-.0156 0-.0104 0-.0156 0-.0104 0-.0156 0-.0104 0-.0156 0-.0104 0-.0156 0-.0104 0-.0156 0-.0104 0-.0156 0-.0104 0-.0156 0-.0104 0-.0156 0-.0104 0-.0156 0-.0104 0-.0156 0-.0104 0-.0156 0-.0104 0-.0156 0-.0104 0-.0156 0-.0104 0-.0156 0-.0104 0-.0156 0-.0104 0-.0156 0-.0104 0-.0156 0-.0104 0-.0156 0-.0104 0-.0156 0-.0104 0-.0156 0-.0104 0-.0156 0-.0104 0-.0156 0-.0104 0-.0156 0-.0104 0-.0156 0-.0104 0-.0156 0-.0104 0-.0156 0-.0104 0-.0156c0-.0053 0-.0105 0-.0157s0-.0104 0-.0156 0-.0104 0-.0156 0-.0104 0-.0156 0-.0104 0-.0156 0-.0104 0-.0156 0-.0104 0-.0156 0-.0104 0-.0156 0-.0104 0-.0156 0-.0104 0-.0156 0-.0104 0-.0156 0-.0104 0-.0156 0-.0104 0-.0156 0-.0104 0-.0156 0-.0104 0-.0156 0-.0104 0-.0156 0-.0104 0-.0156 0-.0104 0-.0156 0-.0104 0-.0156 0-.0104 0-.0156 0-.0104 0-.0156 0-.0104 0-.0156 0-.0104 0-.0156 0-.0104 0-.0156 0-.0104 0-.0156 0-.0104 0-.0156 0-.0104 0-.0156 0-.0104 0-.0156 0-.0104 0-.0156 0-.0104 0-.0156 0-.0104 0-.0156 0-.0104 0-.0156 0-.0104 0-.0156 0-.0104 0-.0156 0-.0104 0-.0156 0-.0104 0-.0156 0-.0104 0-.0156 0-.0104 0-.0156 0-.0104 0-.0156 0-.0104 0-.0156 0-.0104 0-.0156 0-.0104 0-.0156 0-.0104 0-.0156 0-.0104 0-.0156 0-.0104 0-.0156c0-.0053 0-.0105 0-.0157s0-.0104 0-.0156 0-.0104 0-.0156 0-.0104 0-.0156 0-.0104 0-.0156 0-.0104 0-.0156 0-.0104 0-.0156 0-.0104 0-.0156 0-.0104 0-.0156 0-.0104 0-.0156 0-.0104 0-.0156 0-.0104 0-.0156 0-.0104 0-.0156 0-.0104 0-.0156 0-.0104 0-.0156 0-.0104 0-.0156 0-.0104 0-.0156 0-.0104 0-.0156 0-.0104 0-.0156 0-.0104 0-.0156 0-.0104 0-.0156 0-.0104 0-.0156 0-.0104 0-.0156 0-.0104 0-.0156 0-.0104 0-.0156 0-.0104 0-.0156 0-.0104 0-.0156 0-.0104 0-.0156 0-.0104 0-.0156 0-.0104 0-.0156 0-.0104 0-.0156 0-.0104 0-.0156 0-.0104 0-.0156 0-.0104 0-.0156 0-.0104 0-.0156 0-.0104 0-.0156 0-.0104 0-.0156 0-.0104 0-.0156 0-.0104 0-.0156 0-.0104 0-.0156 0-.0104 0-.0156 0-.0104 0-.0156 0-.0104 0-.0156 0-.0104 0-.0156 0-.0104 0-.0157c0-.0052 0-.0104 0-.0156h-.8v.0156.0157.0156.0156.0156.0156.0156.0156.0156.0156.0156.0156.0156.0156.0156.0156.0156.0156.0156.0156.0156.0156.0156.0156.0156.0156.0156.0156.0156.0156.0156.0156.0156.0156.0156.0156.0156.0156.0156.0156.0156.0156.0156.0156.0156.0157.0156.0156.0156.0156.0156.0156.0156.0156.0156.0156.0156.0156.0156.0156.0156.0156.0156.0156.0156.0156.0156.0156.0156.0156.0156.0156.0156.0156.0156.0156.0156.0156.0156.0156.0156.0156.0156.0156.0156.0156.0156.0156.0156.0156.0157.0156.0156.0156.0156.0156.0156.0156.0156.0156.0156.0156.0156.0156.0156.0156.0156.0156.0156.0156.0156.0156.0156.0156.0156.0156.0156.0156.0156.0156.0156.0156.0156.0156.0156.0156.0156.0156.0156.0156.0156.0156.0156.0156.0156.0157.0156.0156.0156.0156.0156.0156.0156.0156.0156.0156.0156.0156.0156.0156.0156.0156.0156.0156.0156.0156.0156.0156.0156.0156.0156.0156.0156.0156.0156.0156.0156.0156.0156.0156.0156.0156.0156.0156.0156.0156.0156.0156.0156.0156.0157.0156.0156.0156.0156.0156.0156.0156.0156.0156.0156.0156.0156.0156.0156.0156.0156.0156.0156.0156.0156.0156.0156.0156.0156.0156.0156.0156.0156.0156.0156.0156.0156.0156.0156.0156.0156.0156.0156.0156.0156.0156.0156.0156.0156.0157.0156.0156.0156.0156.0156.0156.0156.0156.0156.0156.0156.0156.0156.0156.0156.0156.0156.0156.0156.0156.0156.0156.0156.0156.0156.0156.0156.0156.0156.0156.0156.0156.0156.0156.0156.0156.0156.0156.0156.0156.0156.0156.0156.0156.0157.0156.0156.0156.0156.0156.0156.0156.0156.0156.0156.0156.0156.0156.0156.0156.0156.0156.0156.0156.0156.0156.0156.0156.0156.0156.0156.0156.0156.0156.0156.0156.0156.0156.0156.0156.0156.0156.0156.0156.0156.0156.0156.0156.0156.0157.0156.0156.0156.0156.0156.0156.0156.0156.0156.0156.0156.0156.0156.0156.0156.0156.0156.0156.0156.0156.0156.0156.0156.0156.0156.0156.0156.0156.0156.0156.0156.0156.0156.0156.0156.0156.0156.0156.0156.0156.0156.0156.0156.0156.0157.0156.0156.0156.0156.0156.0156.0156.0156.0156.0156.0156.0156.0156.0156.0156.0156.0156.0156.0156.0156.0156.0156.0156.0156.0156.0156.0156.0156.0156.0156.0156.0156.0156.0156.0156.0156.0156.0156.0156.0156.0156.0156.0156.0156.0156.0157.0156.0156.0156.0156.0156.0156.0156.0156.0156.0156.0156.0156.0156.0156.0156.0156.0156.0156.0156.0156.0156.0156.0156.0156.0156.0156.0156.0156.0156.0156.0156.0156.0156.0156.0156.0156.0156.0156.0156.0156.0156.0156.0156.0157.0156.0156.0156.0156.0156.0156.0156.0156.0156.0156.0156.0156.0156.0156.0156.0156.0156.0156.0156.0156.0156.0156.0156.0156.0156.0156.0156.0156.0156.0156.0156.0156.0156.0156.0156.0156.0156.0156.0156.0156.0156.0156.0156.0156.0157.0156.0156.0156.0156.0156.0156.0156.0156.0156.0156.0156.0156.0156.0156.0156.0156zm0-7.9884c0-.1835.0515-.2754.0978-.3219.0468-.0468.1396-.0988.3237-.1002l-.0061-.7999c-.3344.0025-.6508.1016-.8837.3349-.2332.2336-.3317.5507-.3317.8871zm.4212-.4221c.3321-.0023.7068.0049 1.0579-.003l-.0179-.7998c-.35.0078-.6765.0003-1.0456.0029zm1.0529-.0029c.2697-.0027.5308-.095.7421-.2624l-.4967-.6271c-.0721.0571-.1612.0886-.2533.0895zm.7421-.2624c.2114-.1675.361-.4005.4251-.6625l-.777-.1902c-.0218.0891-.0728.1685-.1448.2256zm.4224-.652c.1751-.6397-.1879-1.0702-.4745-1.3561l-.5649.5665c.1294.1291.2083.227.2501.3167.0346.0742.048.1509.0177.2617zm-.4746-1.3561c-3.3058-3.29638-6.6088-6.59487-9.9088-9.89549l-.5657.56563c3.3003 3.30091 6.6035 6.59969 9.9097 9.89636zm-9.9091-9.89579c-.2928-.29224-.6273-.51612-1.0242-.51529-.3964.00082-.7308.22556-1.0239.51837l.5654.56597c.2416-.24136.3821-.28418.4601-.28434.0775-.00017.2171.04157.4575.28152zm-2.048.00304-8.83794 8.82665.56533.566 8.83791-8.8266zm-8.83798 8.82665c-.40143.401-.80982.8046-1.21202 1.2113l.56884.5625c.40009-.4046.80282-.8025 1.20859-1.2078zm-1.21185 1.2111c-.17483.1766-.30694.3887-.36098.6351-.05459.2488-.02258.5015.08091.7441l.73584-.3139c-.04675-.1096-.04985-.1926-.03533-.2588.01507-.0687.05629-.1509.14806-.2436zm-.27883 1.3821c.10134.2325.25594.4256.46612.558.20883.1315.44762.1874.69401.1874v-.8c-.12529 0-.20958-.0278-.26772-.0644-.0568-.0357-.11309-.0952-.15904-.2007zm1.16013.7454h.88035v-.8h-.88035zm.88035 0c.30661 0 .4066.0615.44257.0977.03663.0369.09818.1392.09818.449h.8c0-.377-.06757-.748-.3307-1.0128-.26378-.2655-.63417-.3339-1.01005-.3339zm.54075.5467v.0156.0156.0156.0156.0156.0156.0156.0156.0156.0156.0156.0156.0156.0156.0156.0156.0156.0156.0156.0156.0156.0156.0156.0156.0156.0156.0156.0156.0156.0156.0156.0156.0156.0156.0156.0156.0156.0156.0156.0156.0156.0156.0157.0156.0156.0156.0156.0156.0156.0156.0156.0156.0156.0156.0156.0156.0156.0156.0156.0156.0156.0156.0156.0156.0156.0156.0156.0156.0156.0156.0156.0156.0156.0156.0156.0156.0156.0156.0156.0156.0156.0156.0156.0156.0156.0156.0157.0156.0156.0156.0156.0156.0156.0156.0156.0156.0156.0156.0156.0156.0156.0156.0156.0156.0156.0156.0156.0156.0156.0156.0156.0156.0156.0156.0156.0156.0156.0156.0156.0156.0156.0156.0156.0156.0156.0156.0156.0156.0156.0156.0156.0157.0156.0156.0156.0156.0156.0156.0156.0156.0156.0156.0156.0156.0156.0156.0156.0156.0156.0156.0156.0156.0156.0156.0156.0156.0156.0156.0156.0156.0156.0156.0156.0156.0156.0156.0156.0156.0156.0156.0156.0156.0156.0156.0156.0156.0157.0156.0156.0156.0156.0156.0156.0156.0156.0156.0156.0156.0156.0156.0156.0156.0156.0156.0156.0156.0156.0156.0156.0156.0156.0156.0156.0156.0156.0156.0156.0156.0156.0156.0156.0156.0156.0156.0156.0156.0156.0156.0156.0156.0156.0156.0157.0156.0156.0156.0156.0156.0156.0156.0156.0156.0156.0156.0156.0156.0156.0156.0156.0156.0156.0156.0156.0156.0156.0156.0156.0156.0156.0156.0156.0156.0156.0156.0156.0156.0156.0156.0156.0156.0156.0156.0156.0156.0156.0156.0157.0156.0156.0156.0156.0156.0156.0156.0156.0156.0156.0156.0156.0156.0156.0156.0156.0156.0156.0156.0156.0156.0156.0156.0156.0156.0156.0156.0156.0156.0156.0156.0156.0156.0156.0156.0156.0156.0156.0156.0156.0156.0156.0156.0156.0156.0157.0156.0156.0156.0156.0156.0156.0156.0156.0156.0156.0156.0156.0156.0156.0156.0156.0156.0156.0156.0156.0156.0156.0156.0156.0156.0156.0156.0156.0156.0156.0156.0156.0156.0156.0156.0156.0156.0156.0156.0156.0156.0156.0156.0157.0156.0156.0156.0156.0156.0156.0156.0156.0156.0156.0156.0156.0156.0156.0156.0156.0156.0156.0156.0156.0156.0156.0156.0156.0156.0156.0156.0156.0156.0156.0156.0156.0156.0156.0156.0156.0156.0156.0156.0156.0156.0156.0156.0156.0156.0157.0156.0156.0156.0156.0156.0156.0156.0156.0156.0156.0156.0156.0156.0156.0156.0156.0156.0156.0156.0156.0156.0156.0156.0156.0156.0156.0156.0156.0156.0156.0156.0156.0156.0156.0156.0156.0156.0156.0156.0156.0156.0156.0156.0156.0157.0156.0156.0156.0156.0156.0156.0156.0156.0156.0156.0156.0156.0156.0156.0156.0156.0156.0156.0156.0156.0156.0156.0156.0156.0156.0156.0156.0156.0156.0156.0156.0156.0156.0156.0156.0156.0156.0156.0156.0156.0156.0156.0156.0157.0156.0156.0156.0156.0156.0156.0156.0156.0156.0156.0156.0156.0156.0156.0156.0156.0156.0156.0156.0156h.8c0-.0052 0-.0104 0-.0156s0-.0104 0-.0156 0-.0104 0-.0156 0-.0104 0-.0156 0-.0104 0-.0156 0-.0104 0-.0156 0-.0104 0-.0156 0-.0104 0-.0156 0-.0104 0-.0156 0-.0104 0-.0156 0-.0104 0-.0156 0-.0104 0-.0156 0-.0104 0-.0156 0-.0104 0-.0156 0-.0104 0-.0156 0-.0104 0-.0156 0-.0104 0-.0156 0-.0104 0-.0156 0-.0104 0-.0156 0-.0105 0-.0156c0-.0053 0-.0105 0-.0157s0-.0104 0-.0156 0-.0104 0-.0156 0-.0104 0-.0156 0-.0104 0-.0156 0-.0104 0-.0156 0-.0104 0-.0156 0-.0104 0-.0156 0-.0104 0-.0156 0-.0104 0-.0156 0-.0104 0-.0156 0-.0104 0-.0156 0-.0104 0-.0156 0-.0104 0-.0156 0-.0104 0-.0156 0-.0104 0-.0156 0-.0104 0-.0156 0-.0104 0-.0156 0-.0104 0-.0156 0-.0104 0-.0156 0-.0104 0-.0156 0-.0104 0-.0156 0-.0104 0-.0156 0-.0104 0-.0156 0-.0104 0-.0156 0-.0104 0-.0156 0-.0104 0-.0156 0-.0104 0-.0156 0-.0104 0-.0156 0-.0104 0-.0156 0-.0104 0-.0156 0-.0104 0-.0156 0-.0104 0-.0156 0-.0104 0-.0156 0-.0104 0-.0156 0-.0104 0-.0156 0-.0104 0-.0156 0-.0104 0-.0156 0-.0104 0-.0156 0-.0104 0-.0156 0-.0104 0-.0156 0-.0104 0-.0156 0-.0104 0-.0156 0-.0104 0-.0156 0-.0104 0-.0157c0-.0052 0-.0104 0-.0156s0-.0104 0-.0156 0-.0104 0-.0156 0-.0104 0-.0156 0-.0104 0-.0156 0-.0104 0-.0156 0-.0104 0-.0156 0-.0104 0-.0156 0-.0104 0-.0156 0-.0104 0-.0156 0-.0104 0-.0156 0-.0104 0-.0156 0-.0104 0-.0156 0-.0104 0-.0156 0-.0104 0-.0156 0-.0104 0-.0156 0-.0104 0-.0156 0-.0104 0-.0156 0-.0104 0-.0156 0-.0104 0-.0156 0-.0104 0-.0156 0-.0104 0-.0156 0-.0104 0-.0156 0-.0104 0-.0156 0-.0104 0-.0156 0-.0104 0-.0156 0-.0104 0-.0156 0-.0104 0-.0156 0-.0104 0-.0156 0-.0104 0-.0156 0-.0104 0-.0156 0-.0104 0-.0156 0-.0104 0-.0156 0-.0104 0-.0156 0-.0104 0-.0156 0-.0104 0-.0156 0-.0104 0-.0156 0-.0104 0-.0156 0-.0104 0-.0156 0-.0104 0-.0156 0-.0104 0-.0156 0-.0104 0-.0156 0-.0104 0-.0156 0-.0104 0-.0156 0-.0104 0-.0157c0-.0052 0-.0104 0-.0156s0-.0104 0-.0156 0-.0104 0-.0156 0-.0104 0-.0156 0-.0104 0-.0156 0-.0104 0-.0156 0-.0104 0-.0156 0-.0104 0-.0156 0-.0104 0-.0156 0-.0104 0-.0156 0-.0104 0-.0156 0-.0104 0-.0156 0-.0104 0-.0156 0-.0104 0-.0156 0-.0104 0-.0156 0-.0104 0-.0156 0-.0104 0-.0156 0-.0104 0-.0156 0-.0104 0-.0156 0-.0104 0-.0156 0-.0104 0-.0156 0-.0104 0-.0156 0-.0104 0-.0156 0-.0104 0-.0156 0-.0104 0-.0156 0-.0104 0-.0156 0-.0104 0-.0156 0-.0104 0-.0156 0-.0104 0-.0156 0-.0104 0-.0156 0-.0104 0-.0156 0-.0104 0-.0156 0-.0104 0-.0156 0-.0104 0-.0156 0-.0104 0-.0156 0-.0104 0-.0156 0-.0104 0-.0156 0-.0104 0-.0156 0-.0104 0-.0156 0-.0104 0-.0156 0-.0104 0-.0156 0-.0104 0-.0156 0-.0104 0-.0156 0-.0104 0-.0156 0-.0105 0-.0156c0-.0053 0-.0105 0-.0157s0-.0104 0-.0156 0-.0104 0-.0156 0-.0104 0-.0156 0-.0104 0-.0156 0-.0104 0-.0156 0-.0104 0-.0156 0-.0104 0-.0156 0-.0104 0-.0156 0-.0104 0-.0156 0-.0104 0-.0156 0-.0104 0-.0156 0-.0104 0-.0156 0-.0104 0-.0156 0-.0104 0-.0156 0-.0104 0-.0156 0-.0104 0-.0156 0-.0104 0-.0156 0-.0104 0-.0156 0-.0104 0-.0156 0-.0104 0-.0156 0-.0104 0-.0156 0-.0104 0-.0156 0-.0104 0-.0156 0-.0104 0-.0156 0-.0104 0-.0156 0-.0104 0-.0156 0-.0104 0-.0156 0-.0104 0-.0156 0-.0104 0-.0156 0-.0104 0-.0156 0-.0104 0-.0156 0-.0104 0-.0156 0-.0104 0-.0156 0-.0104 0-.0156 0-.0104 0-.0156 0-.0104 0-.0156 0-.0104 0-.0156 0-.0104 0-.0156 0-.0104 0-.0156 0-.0104 0-.0156 0-.0104 0-.0156 0-.0104 0-.0156 0-.0104 0-.0156 0-.0104 0-.0157c0-.0052 0-.0104 0-.0156s0-.0104 0-.0156 0-.0104 0-.0156 0-.0104 0-.0156 0-.0104 0-.0156 0-.0104 0-.0156 0-.0104 0-.0156 0-.0104 0-.0156 0-.0104 0-.0156 0-.0104 0-.0156 0-.0104 0-.0156 0-.0104 0-.0156 0-.0104 0-.0156 0-.0104 0-.0156 0-.0104 0-.0156 0-.0104 0-.0156 0-.0104 0-.0156 0-.0104 0-.0156 0-.0104 0-.0156 0-.0104 0-.0156 0-.0104 0-.0156 0-.0104 0-.0156 0-.0104 0-.0156 0-.0104 0-.0156 0-.0104 0-.0156 0-.0104 0-.0156 0-.0104 0-.0156 0-.0104 0-.0156 0-.0104 0-.0156 0-.0104 0-.0156 0-.0104 0-.0156 0-.0104 0-.0156 0-.0104 0-.0156 0-.0104 0-.0156 0-.0104 0-.0156 0-.0104 0-.0156 0-.0104 0-.0156 0-.0104 0-.0156 0-.0104 0-.0156 0-.0104 0-.0156 0-.0104 0-.0156 0-.0104 0-.0156 0-.0104 0-.0156 0-.0104 0-.0156 0-.0105 0-.0156c0-.0053 0-.0105 0-.0157s0-.0104 0-.0156 0-.0104 0-.0156 0-.0104 0-.0156 0-.0104 0-.0156 0-.0104 0-.0156 0-.0104 0-.0156 0-.0104 0-.0156 0-.0104 0-.0156 0-.0104 0-.0156 0-.0104 0-.0156 0-.0104 0-.0156 0-.0104 0-.0156 0-.0104 0-.0156 0-.0104 0-.0156 0-.0104 0-.0156 0-.0104 0-.0156 0-.0104 0-.0156 0-.0104 0-.0156 0-.0104 0-.0156 0-.0104 0-.0156 0-.0104 0-.0156 0-.0104 0-.0156 0-.0104 0-.0156 0-.0104 0-.0156 0-.0104 0-.0156 0-.0104 0-.0156 0-.0104 0-.0156 0-.0104 0-.0156 0-.0104 0-.0156 0-.0104 0-.0156 0-.0104 0-.0156 0-.0104 0-.0156 0-.0104 0-.0156 0-.0104 0-.0156 0-.0104 0-.0156 0-.0104 0-.0156 0-.0104 0-.0156 0-.0104 0-.0156 0-.0104 0-.0156 0-.0104 0-.0156 0-.0104 0-.0156 0-.0104 0-.0156 0-.0104 0-.0156 0-.0104 0-.0157c0-.0052 0-.0104 0-.0156s0-.0104 0-.0156 0-.0104 0-.0156 0-.0104 0-.0156 0-.0104 0-.0156 0-.0104 0-.0156 0-.0104 0-.0156 0-.0104 0-.0156 0-.0104 0-.0156 0-.0104 0-.0156 0-.0104 0-.0156 0-.0104 0-.0156 0-.0104 0-.0156 0-.0104 0-.0156 0-.0104 0-.0156 0-.0104 0-.0156 0-.0104 0-.0156 0-.0104 0-.0156 0-.0104 0-.0156 0-.0104 0-.0156 0-.0104 0-.0156 0-.0104 0-.0156 0-.0104 0-.0156 0-.0104 0-.0156 0-.0104 0-.0156 0-.0104 0-.0156 0-.0104 0-.0156 0-.0104 0-.0156 0-.0104 0-.0156 0-.0104 0-.0156 0-.0104 0-.0156 0-.0104 0-.0156 0-.0104 0-.0156 0-.0104 0-.0156 0-.0104 0-.0156 0-.0104 0-.0156 0-.0104 0-.0156 0-.0104 0-.0156 0-.0104 0-.0156 0-.0104 0-.0156 0-.0104 0-.0156 0-.0104 0-.0156 0-.0104 0-.0156 0-.0104 0-.0156 0-.0104 0-.0156c0-.0053 0-.0105 0-.0157s0-.0104 0-.0156 0-.0104 0-.0156 0-.0104 0-.0156 0-.0104 0-.0156 0-.0104 0-.0156 0-.0104 0-.0156 0-.0104 0-.0156 0-.0104 0-.0156 0-.0104 0-.0156 0-.0104 0-.0156 0-.0104 0-.0156 0-.0104 0-.0156 0-.0104 0-.0156 0-.0104 0-.0156 0-.0104 0-.0156 0-.0104 0-.0156 0-.0104 0-.0156 0-.0104 0-.0156 0-.0104 0-.0156 0-.0104 0-.0156 0-.0104 0-.0156 0-.0104 0-.0156 0-.0104 0-.0156 0-.0104 0-.0156 0-.0104 0-.0156 0-.0104 0-.0156 0-.0104 0-.0156 0-.0104 0-.0156 0-.0104 0-.0156 0-.0104 0-.0156 0-.0104 0-.0156 0-.0104 0-.0156 0-.0104 0-.0156 0-.0104 0-.0156 0-.0104 0-.0156 0-.0104 0-.0156 0-.0104 0-.0156 0-.0104 0-.0156 0-.0104 0-.0156 0-.0104 0-.0156 0-.0104 0-.0156 0-.0104 0-.0156 0-.0104 0-.0156 0-.0104 0-.0156c0-.0053 0-.0105 0-.0157s0-.0104 0-.0156 0-.0104 0-.0156 0-.0104 0-.0156 0-.0104 0-.0156 0-.0104 0-.0156 0-.0104 0-.0156 0-.0104 0-.0156 0-.0104 0-.0156 0-.0104 0-.0156 0-.0104 0-.0156 0-.0104 0-.0156 0-.0104 0-.0156 0-.0104 0-.0156 0-.0104 0-.0156 0-.0104 0-.0156 0-.0104 0-.0156 0-.0104 0-.0156 0-.0104 0-.0156 0-.0104 0-.0156 0-.0104 0-.0156 0-.0104 0-.0156 0-.0104 0-.0156 0-.0104 0-.0156 0-.0104 0-.0156 0-.0104 0-.0156 0-.0104 0-.0156 0-.0104 0-.0156 0-.0104 0-.0156 0-.0104 0-.0156 0-.0104 0-.0156 0-.0104 0-.0156 0-.0104 0-.0156 0-.0104 0-.0156 0-.0104 0-.0156 0-.0104 0-.0156 0-.0104 0-.0156 0-.0104 0-.0156 0-.0104 0-.0156 0-.0104 0-.0156 0-.0104 0-.0156 0-.0104 0-.0156 0-.0104 0-.0156 0-.0104 0-.0156 0-.0104 0-.0156c0-.0053 0-.0105 0-.0157s0-.0104 0-.0156 0-.0104 0-.0156 0-.0104 0-.0156 0-.0104 0-.0156 0-.0104 0-.0156 0-.0104 0-.0156 0-.0104 0-.0156 0-.0104 0-.0156 0-.0104 0-.0156 0-.0104 0-.0156 0-.0104 0-.0156 0-.0104 0-.0156 0-.0104 0-.0156 0-.0104 0-.0156 0-.0104 0-.0156 0-.0104 0-.0156 0-.0104 0-.0156 0-.0104 0-.0156 0-.0104 0-.0156 0-.0104 0-.0156 0-.0104 0-.0156 0-.0104 0-.0156 0-.0104 0-.0156 0-.0104 0-.0156 0-.0104 0-.0156 0-.0104 0-.0156 0-.0104 0-.0156 0-.0104 0-.0156 0-.0104 0-.0156 0-.0104 0-.0156 0-.0104 0-.0156 0-.0104 0-.0156 0-.0104 0-.0156 0-.0104 0-.0156 0-.0104 0-.0156 0-.0104 0-.0156 0-.0104 0-.0156 0-.0104 0-.0156 0-.0104 0-.0156 0-.0104 0-.0156 0-.0104 0-.0156 0-.0104 0-.0156 0-.0104 0-.0156 0-.0104 0-.0157c0-.0052 0-.0104 0-.0156s0-.0104 0-.0156 0-.0104 0-.0156 0-.0104 0-.0156 0-.0104 0-.0156 0-.0104 0-.0156 0-.0104 0-.0156 0-.0104 0-.0156 0-.0104 0-.0156 0-.0104 0-.0156 0-.0104 0-.0156 0-.0104 0-.0156 0-.0104 0-.0156 0-.0104 0-.0156 0-.0104 0-.0156 0-.0104 0-.0156 0-.0104 0-.0156 0-.0104 0-.0156 0-.0104 0-.0156 0-.0104 0-.0156 0-.0104 0-.0156 0-.0104 0-.0156 0-.0104 0-.0156 0-.0104 0-.0156 0-.0104 0-.0156 0-.0104 0-.0156 0-.0104 0-.0156 0-.0104 0-.0156 0-.0104 0-.0156 0-.0104 0-.0156 0-.0104 0-.0156 0-.0104 0-.0156 0-.0104 0-.0156 0-.0104 0-.0156 0-.0104 0-.0156 0-.0104 0-.0156 0-.0104 0-.0156 0-.0104 0-.0156 0-.0104 0-.0156 0-.0104 0-.0156 0-.0104 0-.0156 0-.0104 0-.0156zm0 7.9883c0 .8542.59101 1.6352 1.49776 1.6599l.02182-.7997c-.38752-.0105-.71958-.3478-.71958-.8602zm1.4982 1.66c1.13114.0296 2.26254.0074 3.40472.0074v-.8c-1.16353 0-2.26617.0221-3.38379-.0072zm3.18294-.7254-.00147.0009.44356.6658.00147-.001z" mask="url(#a)"/></g></svg>