<svg width="39" height="39" viewBox="0 0 39 39" fill="none" xmlns="http://www.w3.org/2000/svg">
<g clip-path="url(#clip0_1907_4715)">
<path d="M19.1599 38.3201H1.35012C1.2253 38.1022 1.18261 37.8467 1.23 37.6001V19.6701C1.19868 19.5816 1.19342 19.486 1.21486 19.3947C1.23631 19.3033 1.28368 19.22 1.35109 19.1547C1.41851 19.0894 1.50322 19.0448 1.59523 19.0262C1.68724 19.0077 1.78245 19.016 1.86989 19.0501H18.6299C18.8155 19.0194 19.0057 19.0624 19.1599 19.1701C19.3299 19.3701 19.2801 19.6201 19.2901 19.8501V37.7501C19.3146 37.9495 19.2685 38.1511 19.1599 38.3201Z" fill="#FFE07E"/>
<path d="M20.5 19.1799H26.5801C26.7353 19.0747 26.9259 19.0352 27.1102 19.0699C27.9502 19.0699 28.7799 19.0699 29.6199 19.0699C30.1299 19.0699 30.62 19.0699 31.15 19.0699C31.302 19.0513 31.4557 19.0906 31.5801 19.1799H38.3101C38.3101 25.4599 38.3101 31.7432 38.3101 38.0299C38.3101 38.2899 38.2601 38.3399 38.0101 38.3399H20.5C20.3752 38.122 20.3325 37.8665 20.3799 37.6199V19.6799C20.3643 19.5928 20.3668 19.5034 20.3875 19.4173C20.4082 19.3313 20.4466 19.2504 20.5 19.1799Z" fill="#DE636F"/>
<path d="M1.3501 19.1801V38.3202H0.0100098V19.6502C0.0100098 19.4902 0.0100098 19.3301 0.0100098 19.1701C0.424389 19.0253 0.875659 19.0253 1.29004 19.1701L1.3501 19.1801Z" fill="#FFD067"/>
<path d="M20.5 19.1799V38.3199H19.1599V19.1699L20.5 19.1799Z" fill="#DB4B55"/>
<path d="M19.1598 19.1703H1.35001C1.29678 19.1016 1.25838 19.0225 1.23771 18.938C1.21703 18.8536 1.21444 18.7658 1.22989 18.6803V0.560303C1.21444 0.474779 1.21703 0.386966 1.23771 0.302551C1.25838 0.218136 1.29678 0.139015 1.35001 0.0703125H1.71989H18.7199C19.0599 0.0703125 19.1498 0.150295 19.1498 0.490295C19.1432 6.70363 19.1465 12.9303 19.1598 19.1703Z" fill="#DE636F"/>
<path d="M31.5801 19.1599H29.5801C28.8924 19.0438 28.2666 18.6919 27.8103 18.1645C27.3541 17.637 27.0959 16.9671 27.0801 16.2699C27.0801 14.9399 27.0801 13.6099 27.0801 12.2699C27.0801 12.0699 27.08 11.8599 27.21 11.7099C27.6115 11.63 28.0225 11.6098 28.4299 11.6499C28.6099 11.6499 28.8 11.6499 28.99 11.6499C29.86 11.6499 30.7201 11.6499 31.5901 11.6499C31.7025 11.6419 31.8145 11.6699 31.9099 11.7299C32.4699 11.7299 33.0301 11.7299 33.5901 11.7299C33.8801 11.7299 33.9399 11.8199 33.9399 12.0899C33.9399 13.4499 33.9399 14.7999 33.9399 16.1599C33.94 16.8356 33.712 17.4917 33.2927 18.0216C32.8735 18.5516 32.2875 18.9245 31.6299 19.0799C31.6299 19.0799 31.6101 19.1399 31.5801 19.1599Z" fill="#FFE07E"/>
<path d="M1.3501 0.0300297V19.1501H0.0200195C0.0200195 19.0201 0.0200195 18.9001 0.0200195 18.7701C0.0200195 12.6634 0.0200195 6.54671 0.0200195 0.420044C0.0200195 0.0900443 0.0799414 -0.0499483 0.439941 -0.0099483C0.799941 0.0300517 1.0401 0.0200297 1.3501 0.0300297Z" fill="#DB4B55"/>
<path d="M27.24 11.7704C27.24 13.2404 27.29 14.7104 27.24 16.1804C27.2536 16.8525 27.4867 17.5017 27.9038 18.029C28.3209 18.5562 28.8991 18.9324 29.55 19.1004C29.5823 19.1168 29.6123 19.137 29.6399 19.1604H26.6399C26.1839 19.0311 25.7618 18.804 25.4026 18.4949C25.0434 18.1858 24.7558 17.802 24.5601 17.3704C24.3928 17.0099 24.3041 16.6178 24.3 16.2204C24.3 14.8404 24.3 13.4604 24.3 12.0804C24.3 11.9704 24.3 11.8504 24.3 11.7404C24.6095 11.7154 24.9205 11.7154 25.23 11.7404C25.7575 11.747 26.2851 11.7236 26.8101 11.6704C26.9401 11.6504 27.11 11.6304 27.24 11.7704Z" fill="#FFD067"/>
<path d="M31.96 11.7401H29.0301C28.9956 11.7059 28.9683 11.665 28.95 11.6201C28.9297 11.4841 28.9297 11.346 28.95 11.2101V3.56006C28.9188 3.30575 28.9711 3.0482 29.0992 2.82629C29.2273 2.60439 29.4241 2.43022 29.66 2.33008C29.909 2.4494 30.1144 2.64381 30.2471 2.88599C30.3799 3.12817 30.4334 3.4059 30.4 3.68005C30.4 5.46005 30.4 7.24008 30.4 9.02008C30.4 9.15008 30.33 9.30009 30.47 9.40009C30.57 10.0101 30.4701 10.61 30.5201 11.22C30.5201 11.36 30.46 11.53 30.65 11.61C30.84 11.69 31.2601 11.61 31.5701 11.61C31.7173 11.5943 31.8646 11.6374 31.98 11.73C31.9737 11.734 31.967 11.7374 31.96 11.7401Z" fill="#B6DA9E"/>
<path d="M29.6199 2.28019C29.3941 2.48202 29.2213 2.73622 29.1167 3.02042C29.0121 3.30462 28.979 3.61014 29.02 3.91019C29.02 6.50019 29.02 9.09021 29.02 11.6802C28.6879 11.7203 28.3522 11.7203 28.02 11.6802C27.9917 11.6834 27.963 11.6802 27.9361 11.6708C27.9091 11.6613 27.8847 11.6459 27.8645 11.6258C27.8444 11.6056 27.829 11.5811 27.8196 11.5542C27.8102 11.5272 27.8069 11.4985 27.8101 11.4702C27.7394 10.8054 27.7394 10.135 27.8101 9.47019C27.8101 9.47019 27.8099 9.40022 27.8699 9.38022C27.8699 7.38022 27.8699 5.38022 27.8699 3.38022C27.864 3.17159 27.9129 2.965 28.0113 2.78092C28.1096 2.59684 28.2542 2.44161 28.4309 2.33054C28.6076 2.21947 28.8103 2.15638 29.0188 2.14756C29.2274 2.13873 29.4344 2.18444 29.6199 2.28019Z" fill="#98D1A3"/>
<path d="M27.8999 9.42989C27.8999 10.0599 27.8999 10.6899 27.8999 11.3199C27.8999 11.6299 28 11.7099 28.28 11.6899C28.56 11.6699 28.78 11.6899 29.03 11.6899V11.7599H27.2299H24.2299C24.7462 11.7299 25.2637 11.7299 25.78 11.7599H26.2199C26.3699 11.6299 26.5499 11.6799 26.7199 11.6699C27.1199 11.6699 27.1499 11.6699 26.9699 11.3099C26.5999 10.6399 26.2699 9.9599 25.9099 9.3099C25.3799 8.3099 24.85 7.3099 24.35 6.3099C24.1992 6.08527 24.1389 5.81182 24.1816 5.54464C24.2243 5.27745 24.3667 5.03636 24.58 4.86989C24.8309 4.85302 25.0806 4.9154 25.2941 5.04818C25.5077 5.18096 25.6742 5.37742 25.77 5.60988L27.58 9.07992C27.6649 9.21481 27.7731 9.33334 27.8999 9.42989Z" fill="#B6DA9E"/>
<path d="M31.9499 11.6903H30.52C30.43 11.5503 30.5201 11.4303 30.5801 11.3103C31.4901 9.5203 32.4498 7.75033 33.3698 5.96033C33.4427 5.80751 33.5461 5.67106 33.6733 5.55933C33.8005 5.44759 33.9491 5.36288 34.1101 5.3103C34.1797 5.26892 34.2591 5.24707 34.3401 5.24707C34.421 5.24707 34.5005 5.26892 34.57 5.3103C34.704 5.47779 34.7849 5.68137 34.8027 5.89508C34.8205 6.10879 34.7743 6.32297 34.6699 6.51031C33.7799 8.25031 32.8599 9.96031 31.9499 11.6903Z" fill="#B6DA9E"/>
<path d="M34.57 5.31964C34.3264 5.30753 34.0848 5.37123 33.8789 5.50195C33.6729 5.63268 33.5126 5.824 33.4199 6.04962C32.9099 7.04962 32.4198 8.04962 31.8798 8.98962C31.3398 9.92963 30.88 10.7396 30.52 11.6796C30.46 11.6796 30.3798 11.6797 30.3898 11.5797C30.3199 10.838 30.3199 10.0913 30.3898 9.34961C31.0498 7.98961 31.7599 6.65961 32.4999 5.34961C32.5965 5.1597 32.7432 4.99979 32.924 4.88709C33.1048 4.77438 33.3128 4.71317 33.5258 4.71008C33.7389 4.707 33.9488 4.76215 34.1328 4.86957C34.3168 4.97699 34.468 5.13261 34.57 5.31964Z" fill="#98D1A3"/>
<path d="M24.6198 4.79004C24.4437 5.02527 24.3486 5.31121 24.3486 5.60504C24.3486 5.89888 24.4437 6.18481 24.6198 6.42004C25.1998 7.42004 25.7199 8.48008 26.2599 9.52008C26.5899 10.1301 26.8999 10.7601 27.2599 11.3701C27.3799 11.5901 27.38 11.7101 27.08 11.6901C26.78 11.6701 26.58 11.6901 26.33 11.6901C25.45 10.0101 24.5599 8.33006 23.6799 6.69006C23.549 6.51407 23.4693 6.30534 23.4496 6.08691C23.4299 5.86849 23.471 5.64884 23.5683 5.45227C23.6655 5.2557 23.8151 5.08982 24.0007 4.97296C24.1862 4.8561 24.4005 4.79279 24.6198 4.79004Z" fill="#98D1A3"/>
<path d="M5.31006 36.0002C4.87593 36.0352 4.43907 36.015 4.01001 35.9402C3.53299 35.8297 3.10725 35.561 2.80225 35.1779C2.49724 34.7948 2.33097 34.3199 2.33008 33.8303C2.33008 30.4369 2.33008 27.0469 2.33008 23.6602C2.33008 23.0847 2.55862 22.5327 2.96558 22.1258C3.37253 21.7188 3.92448 21.4902 4.5 21.4902H14.6599C15.2354 21.4902 15.7874 21.7188 16.1943 22.1258C16.6013 22.5327 16.8301 23.0847 16.8301 23.6602C16.8301 27.0469 16.8301 30.4369 16.8301 33.8303C16.8275 34.4033 16.5993 34.9522 16.1951 35.3583C15.7908 35.7644 15.2429 35.995 14.6699 36.0002H13.8501C13.7969 35.9315 13.7585 35.8524 13.7378 35.768C13.7171 35.6836 13.7145 35.5958 13.73 35.5103C13.73 33.4403 13.73 31.3602 13.73 29.2902C13.7199 29.1402 13.7439 28.9898 13.8 28.8502C13.9 28.7102 14.06 28.7203 14.21 28.7103C14.3485 28.7083 14.4814 28.6551 14.583 28.5609C14.6846 28.4667 14.7477 28.3382 14.76 28.2003C14.82 27.8696 14.82 27.5309 14.76 27.2003C14.7428 27.0615 14.6752 26.9339 14.5701 26.8417C14.465 26.7495 14.3297 26.6992 14.1899 26.7003H5.38989C4.59989 26.7003 4.38989 26.8803 4.38989 27.7003C4.37993 27.8501 4.37993 28.0004 4.38989 28.1503C4.38981 28.3086 4.45142 28.4608 4.56152 28.5746C4.67163 28.6885 4.82169 28.7551 4.97998 28.7603C5.10998 28.7603 5.2501 28.7603 5.3501 28.8903C5.42094 29.0503 5.44836 29.2262 5.42993 29.4003V35.4802C5.4532 35.6623 5.41077 35.8468 5.31006 36.0002Z" fill="#417194"/>
<path d="M13.8699 28.84C13.8649 28.9366 13.8649 29.0334 13.8699 29.13V36H5.33008V29.13C5.33503 29.0334 5.33503 28.9366 5.33008 28.84C5.46008 28.68 5.64006 28.7 5.81006 28.7H13.4299C13.5599 28.7 13.7399 28.68 13.8699 28.84Z" fill="#EBB043"/>
<path d="M24.08 36.0001C23.5145 36.0934 22.9347 35.9674 22.4589 35.6477C21.9832 35.3281 21.6473 34.8389 21.52 34.28C21.4785 34.0829 21.4617 33.8814 21.4699 33.6801V23.8101C21.4509 23.5005 21.498 23.1904 21.6079 22.9003C21.7177 22.6102 21.888 22.3467 22.1074 22.1274C22.3267 21.908 22.59 21.7378 22.8801 21.6279C23.1702 21.5181 23.4804 21.4711 23.79 21.4901H33.6599C33.9694 21.4697 34.2797 21.5154 34.5703 21.624C34.8608 21.7327 35.1251 21.9017 35.3454 22.1201C35.5657 22.3385 35.737 22.6012 35.8481 22.8908C35.9592 23.1804 36.0076 23.4904 35.9899 23.8001C35.9899 27.0601 35.9899 30.33 35.9899 33.6C36.0061 33.9234 35.9537 34.2465 35.8364 34.5482C35.719 34.8499 35.5394 35.1234 35.309 35.3509C35.0787 35.5784 34.8031 35.7546 34.5 35.8682C34.1968 35.9818 33.8731 36.0302 33.55 36.0101H33.1398C33.459 35.5459 33.5813 34.9742 33.4799 34.4201C33.4799 33.7801 33.4799 33.13 33.4799 32.4801C33.4799 32.2701 33.19 32.1701 33.25 31.9301C33.32 31.8601 33.3999 31.8601 33.4899 31.8301C33.6314 31.8128 33.7672 31.7632 33.8864 31.6851C34.0057 31.6071 34.1054 31.5026 34.1779 31.3798C34.2504 31.2571 34.2936 31.1193 34.3044 30.9772C34.3152 30.835 34.2931 30.6923 34.2399 30.5601C34.1637 30.3424 34.0144 30.1578 33.8176 30.0375C33.6208 29.9172 33.3884 29.8687 33.1599 29.9001H32.1599C31.8247 29.9457 31.4836 29.9184 31.1599 29.8201C31.2717 28.9884 31.3086 28.1483 31.27 27.3101C31.3048 27.1655 31.3048 27.0147 31.27 26.8701C31.2314 26.765 31.16 26.6752 31.0664 26.6139C30.9727 26.5526 30.8617 26.5232 30.75 26.53H24.8898C24.6298 26.53 24.3599 26.5301 24.2099 26.8101C24.1421 26.9136 24.1103 27.0366 24.1198 27.16C24.1198 27.77 24.1198 28.3801 24.1198 28.9901C24.1198 29.6001 24.2501 29.7201 24.8601 29.7501C24.9464 29.7397 25.0335 29.7397 25.1198 29.7501C25.3298 29.8601 25.1698 29.95 25.1198 30.03C24.9318 30.1735 24.8008 30.379 24.75 30.6101C24.7053 30.79 24.7118 30.9789 24.7683 31.1555C24.8248 31.3321 24.9292 31.4894 25.07 31.6101C25.13 31.6601 25.2099 31.7201 25.1599 31.8301C25.1099 31.9401 24.8199 31.89 24.6499 31.91C24.4871 31.9105 24.3292 31.9661 24.2021 32.0678C24.075 32.1695 23.9861 32.3113 23.9499 32.47C23.8799 33.41 23.9499 34.35 23.9499 35.29C23.7699 35.56 24.05 35.7301 24.08 36.0001Z" fill="#417194"/>
<path d="M33.5201 32.3301C33.6301 32.4501 33.5901 32.59 33.5901 32.73C33.5901 33.51 33.5901 34.3001 33.5901 35.0801C33.6061 35.2588 33.5736 35.4385 33.4961 35.6003C33.4187 35.7622 33.2991 35.9003 33.15 36.0001H26.92C26.7549 35.5928 26.7549 35.1373 26.92 34.73C27.1032 34.6206 27.3201 34.5815 27.5301 34.6201H32.8301C33.2301 34.6201 33.38 34.43 33.4 34.03C33.42 33.63 33.4 33.1801 33.4 32.7601C33.3906 32.684 33.3965 32.6069 33.417 32.5331C33.4376 32.4593 33.4727 32.3903 33.5201 32.3301Z" fill="#8AB2DF"/>
<path d="M24.0801 36.0004C23.9326 35.9086 23.8132 35.7778 23.7356 35.6225C23.6579 35.4672 23.6248 35.2934 23.6399 35.1204C23.6399 34.3304 23.6399 33.5504 23.6399 32.7604C23.6148 32.6371 23.6362 32.5089 23.6999 32.4004C23.8399 32.5304 23.81 32.7004 23.82 32.8604C23.82 33.2404 23.82 33.6304 23.82 34.0104C23.82 34.3904 23.9999 34.5904 24.4199 34.6204C24.8399 34.6504 25.02 34.6204 25.31 34.6204C25.4481 34.6111 25.5861 34.6387 25.7099 34.7004C25.7478 34.7317 25.7757 34.7734 25.79 34.8204C25.8861 35.2118 25.8616 35.6231 25.72 36.0004H24.0801Z" fill="#8AB2DE"/>
<path d="M25.74 36.0004V34.8004C25.84 34.5904 26.04 34.6404 26.21 34.6304C26.393 34.6154 26.577 34.6154 26.76 34.6304C26.7996 34.6226 26.8403 34.6226 26.8799 34.6304V35.9004L25.74 36.0004Z" fill="#EBB044"/>
<path d="M4.73002 16.8401C4.41553 16.874 4.09751 16.8389 3.79789 16.7376C3.49827 16.6362 3.22421 16.4708 2.99491 16.2529C2.76561 16.0351 2.58655 15.7699 2.47001 15.4758C2.35346 15.1818 2.30233 14.8659 2.32011 14.5501V4.64009C2.30284 4.33306 2.35041 4.02583 2.45975 3.73842C2.5691 3.451 2.73766 3.18985 2.95463 2.97194C3.1716 2.75402 3.4321 2.58423 3.71903 2.47365C4.00597 2.36306 4.31281 2.31416 4.61991 2.33009H14.5701C14.8699 2.31754 15.169 2.36699 15.4488 2.47535C15.7285 2.58372 15.9828 2.74865 16.1958 2.95985C16.4089 3.17105 16.5762 3.42398 16.687 3.70277C16.7979 3.98156 16.85 4.28024 16.8401 4.58009V14.5801C16.8485 14.8774 16.7958 15.1732 16.6856 15.4494C16.5753 15.7256 16.4098 15.9763 16.199 16.1862C15.9883 16.396 15.7367 16.5604 15.46 16.6694C15.1833 16.7785 14.8874 16.8297 14.5901 16.8201H9.59012C9.54197 16.7623 9.5063 16.6951 9.48563 16.6228C9.46497 16.5504 9.45965 16.4746 9.47001 16.4001C9.47001 15.7001 9.47001 15.0001 9.47001 14.3001C9.47001 13.3601 9.47001 12.41 9.47001 11.47C9.54835 10.8914 9.45076 10.3025 9.18998 9.78004C9.00269 9.43983 8.73049 9.15394 8.39994 8.95009C8.24834 8.89111 8.1191 8.78623 8.03007 8.6501C7.98496 8.1578 7.98496 7.66236 8.03007 7.17006C8.03007 6.99006 8.16007 6.89004 8.28007 6.78004C8.62007 6.48004 8.62007 6.20007 8.28007 5.93007C8.20436 5.87531 8.1429 5.80307 8.10111 5.71949C8.05932 5.63592 8.03846 5.54351 8.04008 5.45009C8.06475 5.31789 8.06475 5.18225 8.04008 5.05006C7.88008 4.49006 7.43008 4.5901 7.04008 4.5901C6.65008 4.5901 6.53007 4.81009 6.53007 5.20009C6.54107 5.35527 6.51292 5.51072 6.44828 5.65223C6.38364 5.79375 6.28445 5.91679 6.15995 6.01008C6.09995 6.04669 6.05055 6.09808 6.01615 6.15937C5.98175 6.22067 5.96366 6.28977 5.96366 6.36006C5.96366 6.43035 5.98175 6.49945 6.01615 6.56074C6.05055 6.62203 6.09995 6.67349 6.15995 6.7101C6.28586 6.80058 6.38436 6.92413 6.44437 7.06709C6.50438 7.21005 6.52364 7.36685 6.50004 7.52009C6.49011 7.58304 6.49011 7.64715 6.50004 7.7101C6.55844 7.98746 6.52455 8.27632 6.4036 8.53267C6.28265 8.78902 6.08133 8.9988 5.83011 9.13008C5.51183 9.36596 5.26102 9.68138 5.10306 10.0447C4.9451 10.408 4.88539 10.8064 4.92997 11.2001C4.92997 12.8901 4.92997 14.59 4.92997 16.28C4.93986 16.4858 4.86801 16.6872 4.73002 16.8401Z" fill="#417194"/>
<path d="M9.57018 14.2998V16.8399H6.13C6.07806 16.7685 6.04073 16.6876 6.02014 16.6018C5.99954 16.516 5.99622 16.427 6.01013 16.3399C6.01013 14.4899 6.01013 12.6298 6.01013 10.7798C5.99492 10.0791 6.17127 9.38763 6.52014 8.77981C6.63241 8.59668 6.68798 8.38448 6.68005 8.16982C6.68005 7.85982 6.68005 7.54983 6.68005 7.23983C6.67591 7.18615 6.68306 7.13222 6.7008 7.08138C6.71854 7.03055 6.74644 6.98394 6.78307 6.94448C6.81971 6.90503 6.86431 6.87358 6.91369 6.85214C6.96307 6.83069 7.01634 6.81969 7.07018 6.81985C7.94018 6.71985 8.07018 6.81986 8.07018 7.64986C8.03507 7.98227 8.03507 8.31746 8.07018 8.64986C8.5872 8.86227 9.01639 9.24441 9.28723 9.73336C9.55806 10.2223 9.65436 10.7889 9.56017 11.3399C9.49147 11.3931 9.41217 11.4313 9.32775 11.4519C9.24334 11.4726 9.15571 11.4753 9.07018 11.4599C8.52018 11.4599 7.97005 11.4599 7.43005 11.4599C6.89005 11.4599 6.78014 11.6198 6.77014 12.1098C6.76014 12.5998 6.77014 13.0298 6.77014 13.4898C6.77014 13.9498 6.94004 14.1399 7.42004 14.1499H9.06017C9.24289 14.135 9.42463 14.1884 9.57018 14.2998Z" fill="#B6DA9E"/>
<path d="M8.08004 8.69049C7.99143 8.2936 7.96772 7.88493 8.00997 7.48047C8.00997 6.97047 8.00997 6.97046 7.50997 6.97046C6.80997 6.97046 6.81002 6.97049 6.81002 7.69049C6.85937 8.19306 6.75469 8.69877 6.50997 9.1405C6.2384 9.63197 6.11009 10.1898 6.13986 10.7505V16.8405H4.72994C4.72994 14.9005 4.72994 12.9605 4.72994 11.0205C4.71265 10.5562 4.82985 10.0968 5.06759 9.69757C5.30533 9.29838 5.65356 8.97647 6.07003 8.77051C6.14491 8.74537 6.20813 8.69418 6.2485 8.62628C6.28887 8.55839 6.30368 8.47831 6.29 8.40051C6.29 8.10051 6.29 7.8005 6.29 7.5105C6.29 7.2205 6.28992 6.9905 5.95992 6.8205C5.87834 6.77197 5.81172 6.70204 5.76705 6.61829C5.72239 6.53453 5.70136 6.44012 5.70651 6.34534C5.71166 6.25056 5.74262 6.15899 5.79611 6.08057C5.84959 6.00215 5.92362 5.93991 6.00997 5.90051C6.31997 5.76051 6.29 5.55049 6.29 5.31049C6.29 4.71049 6.44992 4.52051 6.95992 4.52051C6.97483 4.78697 6.97483 5.05404 6.95992 5.3205C6.95992 5.5705 7.06003 5.69047 7.32003 5.67047H7.58004C7.84004 5.67047 7.96992 5.59049 7.95992 5.31049C7.95313 5.25534 7.95959 5.19938 7.97872 5.14722C7.99785 5.09505 8.0292 5.04818 8.07003 5.0105C8.10367 5.11451 8.10367 5.22649 8.07003 5.33051C8.07003 5.59051 8.06984 5.78047 8.36984 5.92047C8.45546 5.96677 8.52702 6.0354 8.57687 6.11902C8.62671 6.20263 8.65304 6.29816 8.65304 6.39551C8.65304 6.49285 8.62671 6.58838 8.57687 6.672C8.52702 6.75561 8.45546 6.82418 8.36984 6.87048C8.27684 6.90991 8.20038 6.98011 8.15304 7.06934C8.1057 7.15856 8.09058 7.26136 8.11007 7.36047C8.08007 7.80047 8.08004 8.25049 8.08004 8.69049Z" fill="#98D1A3"/>
<path d="M13.8699 28.8396H8.19995H5.29004C4.47004 28.8396 4.29004 28.6996 4.29004 27.8396V27.3196C4.29004 26.7496 4.5201 26.5395 5.1001 26.5395H14.1699C14.2543 26.5282 14.3403 26.5349 14.4219 26.5593C14.5035 26.5837 14.579 26.6252 14.6433 26.681C14.7076 26.7368 14.7593 26.8057 14.7949 26.883C14.8306 26.9604 14.8494 27.0444 14.8501 27.1296C14.8801 27.4889 14.8801 27.8502 14.8501 28.2096C14.8101 28.7296 14.5499 28.8596 13.8699 28.8396Z" fill="#FEC252"/>
<path d="M9.60018 30.8204H10.6002C10.8265 30.8204 11.0437 30.9097 11.2047 31.0688C11.3657 31.2279 11.4574 31.4441 11.46 31.6704C11.4784 31.7856 11.4734 31.9032 11.4454 32.0164C11.4174 32.1296 11.3669 32.236 11.297 32.3293C11.227 32.4226 11.139 32.5009 11.0382 32.5595C10.9374 32.6181 10.8257 32.6558 10.71 32.6704C10.2871 32.6955 9.86298 32.6955 9.44002 32.6704H8.65999C8.53337 32.6697 8.40832 32.6425 8.2928 32.5906C8.17729 32.5387 8.0738 32.4633 7.98909 32.3692C7.90438 32.2751 7.84032 32.1643 7.80086 32.044C7.7614 31.9237 7.74756 31.7964 7.76009 31.6704C7.75701 31.5493 7.77933 31.4288 7.82552 31.3168C7.8717 31.2047 7.9406 31.1036 8.02815 31.0198C8.11571 30.936 8.21985 30.8714 8.33382 30.8302C8.44778 30.789 8.56912 30.772 8.69002 30.7804H9.62996L9.60018 30.8204Z" fill="#417194"/>
<path d="M33.52 32.33V34.09C33.52 34.52 33.3 34.7299 32.84 34.7299H26.9199C26.8702 34.671 26.8421 34.597 26.84 34.52C26.84 33.7 26.84 32.8799 26.84 32.0599C26.8357 32.0133 26.8413 31.9663 26.8566 31.922C26.8719 31.8777 26.8965 31.8372 26.9286 31.8032C26.9608 31.7691 26.9998 31.7423 27.0431 31.7245C27.0865 31.7067 27.133 31.6983 27.1799 31.7H27.3698C28.8998 31.7 30.4299 31.7 31.9599 31.7C32.3599 31.7 32.7899 31.61 33.1699 31.84L33.2199 31.89C33.2999 32.05 33.51 32.12 33.52 32.33Z" fill="#A2C4E8"/>
<path d="M23.9399 26.7998C23.9683 26.6843 24.0377 26.583 24.1352 26.515C24.2327 26.4469 24.3517 26.4166 24.4699 26.4298H28.75C28.91 27.3159 28.91 28.2236 28.75 29.1098C28.6046 29.2117 28.4258 29.2546 28.25 29.2298H24.8301C24.6284 29.2413 24.4266 29.2072 24.24 29.1298C24.1496 29.1034 24.0695 29.05 24.0105 28.9766C23.9515 28.9033 23.9163 28.8136 23.9099 28.7197C23.9199 28.0897 23.8699 27.4398 23.9399 26.7998Z" fill="#B6DA9E"/>
<path d="M31.04 29.7898H32.04C32.2053 30.2658 32.2053 30.7837 32.04 31.2598L31.9199 31.3398C31.8074 31.3592 31.6925 31.3592 31.58 31.3398H27.06C26.9509 31.3599 26.839 31.3599 26.7299 31.3398C26.6812 31.323 26.637 31.2957 26.6 31.2598C26.4501 30.7676 26.4501 30.2419 26.6 29.7498C26.7637 29.6569 26.9537 29.6217 27.1398 29.6498C27.6228 29.6248 28.107 29.6248 28.59 29.6498C29.0105 29.7197 29.4396 29.7197 29.86 29.6498C30.2583 29.5712 30.6712 29.6202 31.04 29.7898Z" fill="#FFE07E"/>
<path d="M25.73 34.73H24.5C23.9 34.73 23.72 34.55 23.72 33.97C23.72 33.39 23.72 32.97 23.72 32.4C23.72 31.83 24.0599 31.88 24.3999 31.84C24.7399 31.8 24.82 31.84 25.03 31.84C25.24 31.84 25.37 31.75 25.55 31.75C25.6102 31.7512 25.6684 31.771 25.7168 31.8069C25.7652 31.8427 25.8014 31.8928 25.8201 31.95C25.8701 32.7993 25.8701 33.6507 25.8201 34.5C25.821 34.5854 25.7886 34.6679 25.73 34.73Z" fill="#A2C4E8"/>
<path d="M28.73 29.8003H26.73C26.3811 29.9099 26.0121 29.9406 25.6499 29.8903C25.4599 29.8903 25.2601 30.0003 25.0701 29.8903H24.8899C23.9999 29.9603 23.8899 29.6503 23.8899 28.8903C23.8899 28.3303 23.8899 27.7703 23.8899 27.2103C23.8899 27.0803 23.89 26.9403 23.96 26.8203V28.4203C23.96 28.9403 24.16 29.1403 24.72 29.1403H28.72L28.77 29.1903C28.8166 29.2868 28.8373 29.3936 28.8303 29.5005C28.8233 29.6075 28.7888 29.7107 28.73 29.8003Z" fill="#98D1A3"/>
<path d="M29.93 26.4405H30.67C30.7882 26.4274 30.9072 26.4576 31.0047 26.5257C31.1023 26.5938 31.1717 26.695 31.2001 26.8105C31.235 27.45 31.235 28.091 31.2001 28.7305C31.1932 28.8512 31.1428 28.9654 31.0582 29.0518C30.9736 29.1382 30.8606 29.191 30.7401 29.2005C30.4681 29.295 30.172 29.295 29.9 29.2005C29.8655 29.1663 29.8385 29.1255 29.8202 29.0805C29.7751 28.2945 29.7751 27.5065 29.8202 26.7205C29.8172 26.6686 29.8254 26.6168 29.8443 26.5684C29.8633 26.5201 29.8926 26.4765 29.93 26.4405Z" fill="#B6DA9E"/>
<path d="M29.9299 26.4397V29.0497C29.5509 29.1845 29.1408 29.2053 28.75 29.1097V26.4297L29.9299 26.4397Z" fill="#A2C5E7"/>
<path d="M32.0901 31.2803V29.8203H33.24C33.383 30.2733 33.4071 30.7553 33.3101 31.2203C33.2905 31.2646 33.2634 31.3052 33.23 31.3403C33.0463 31.4104 32.8499 31.4412 32.6536 31.4308C32.4572 31.4205 32.2654 31.3692 32.0901 31.2803Z" fill="#DE636F"/>
<path d="M25.05 29.88C25.23 29.88 25.4001 29.76 25.5801 29.81C25.731 30.2612 25.7585 30.7446 25.6599 31.2101C25.6463 31.2521 25.6224 31.2899 25.5901 31.32C25.3518 31.3568 25.108 31.3062 24.9041 31.1776C24.7001 31.049 24.5495 30.8509 24.48 30.62C24.5217 30.4653 24.5936 30.3203 24.6914 30.1933C24.7892 30.0664 24.9111 29.9599 25.05 29.88Z" fill="#FEDE7E"/>
<path d="M33.24 31.2203C33.24 30.7503 33.24 30.2804 33.24 29.8104C33.4727 29.7902 33.7052 29.8522 33.897 29.9856C34.0888 30.1189 34.2278 30.3152 34.29 30.5403C34.2772 30.7614 34.1796 30.969 34.0176 31.1199C33.8555 31.2707 33.6413 31.3533 33.4199 31.3503C33.3793 31.3538 33.3389 31.3426 33.3059 31.3188C33.2729 31.2949 33.2494 31.26 33.24 31.2203Z" fill="#FEDF7E"/>
<path d="M29.94 29.1198C31.16 29.1198 31.24 29.1198 31.2 27.8798C31.2 27.5198 31.2 27.1598 31.2 26.7998C31.32 26.9298 31.2701 27.0798 31.2701 27.2198C31.2701 27.8398 31.2701 28.4598 31.2701 29.0798C31.2851 29.3387 31.1991 29.5932 31.0301 29.7898H29.93C29.8524 29.6949 29.811 29.5756 29.8128 29.453C29.8146 29.3304 29.8596 29.2124 29.94 29.1198Z" fill="#98D0A3"/>
<path d="M33.24 31.22C33.4623 31.2585 33.6909 31.2091 33.8774 31.0822C34.064 30.9553 34.194 30.7609 34.24 30.54C34.3013 30.7006 34.3203 30.8743 34.2949 31.0444C34.2695 31.2144 34.2008 31.375 34.0952 31.5107C33.9897 31.6464 33.8509 31.7526 33.6924 31.8191C33.5338 31.8855 33.3607 31.91 33.1899 31.8901C33.1243 31.8058 33.0886 31.7019 33.0886 31.595C33.0886 31.4882 33.1243 31.3844 33.1899 31.3L33.24 31.22Z" fill="#FDCF67"/>
<path d="M24.4799 30.6201C24.5871 30.8098 24.7385 30.9706 24.9213 31.0891C25.1042 31.2075 25.3131 31.2799 25.53 31.3001C25.5859 31.3733 25.6161 31.463 25.6161 31.5551C25.6161 31.6473 25.5859 31.7369 25.53 31.8101H25.0199C24.8099 31.7006 24.6425 31.5239 24.5446 31.3082C24.4467 31.0925 24.424 30.8503 24.4799 30.6201Z" fill="#FED067"/>
<path d="M25.73 34.73V31.8801C25.7837 31.8363 25.8474 31.8061 25.9153 31.7922C25.9832 31.7782 26.0532 31.781 26.1199 31.8C26.4499 31.8 26.6001 31.6901 26.6101 31.3701C26.6261 31.3345 26.6544 31.3061 26.6899 31.29H26.74C26.7831 31.3369 26.816 31.3922 26.8367 31.4525C26.8573 31.5127 26.8654 31.5766 26.8601 31.6401C26.8601 32.6401 26.8601 33.6401 26.8601 34.6401C26.8656 34.6631 26.8656 34.6871 26.8601 34.7101C26.492 34.6782 26.1211 34.7018 25.76 34.78L25.73 34.73Z" fill="#FDC253"/>
<path d="M26.8601 34.73C26.8934 33.5828 26.8666 32.4345 26.78 31.29H32.04C32.093 31.3645 32.1213 31.4537 32.1213 31.545C32.1213 31.6364 32.093 31.7256 32.04 31.8C30.48 31.8 28.9101 31.8 27.3401 31.8C27.0101 31.8 26.9099 31.8701 26.9199 32.2001C26.9199 33.0401 26.9199 33.8701 26.9199 34.7101L26.8601 34.73Z" fill="#FFD067"/>
<path d="M9.57007 14.2999H7.36011C6.86011 14.2999 6.66991 14.0999 6.65991 13.5999V12.0699C6.65991 11.5599 6.83987 11.3799 7.36987 11.3799H9.57007V14.2999Z" fill="#F2F4F6"/>
<path d="M8.02012 5.01023C8.02012 5.78023 8.02003 5.77018 7.18003 5.78018C6.90003 5.78018 6.78016 5.71019 6.81016 5.41019C6.84016 5.11019 6.76006 4.79024 6.96006 4.52024C7.21407 4.46955 7.47716 4.49031 7.72007 4.58023C7.80639 4.6151 7.88067 4.6743 7.93394 4.75064C7.9872 4.82699 8.0172 4.91718 8.02012 5.01023Z" fill="#B5D99E"/>
<path d="M32.04 31.8098V31.2998H33.24V31.8898L32.04 31.8098Z" fill="#DB4D56"/>
<path d="M25.5801 31.2795V29.8096H26.71C26.71 30.2996 26.71 30.8096 26.71 31.2896C26.5361 31.3834 26.3414 31.4318 26.1438 31.4301C25.9462 31.4283 25.7523 31.3765 25.5801 31.2795Z" fill="#DE636F"/>
<path d="M29.9399 29.1196V29.7996C29.5441 29.9095 29.1258 29.9095 28.73 29.7996V29.1096C29.1192 29.0398 29.5156 29.0196 29.9099 29.0496L29.9399 29.1196Z" fill="#8BB3DF"/>
<path d="M25.5801 31.2803H26.7C26.7 31.3903 26.7 31.5003 26.7 31.6103C26.7 31.7203 26.6299 31.8703 26.4399 31.8703C26.2499 31.8703 25.98 31.8703 25.75 31.8703L25.51 31.8003V31.2903L25.5801 31.2803Z" fill="#DC4F55"/>
</g>
<defs>
<clipPath id="clip0_1907_4715">
<rect width="38.31" height="38.33" fill="white"/>
</clipPath>
</defs>
</svg>
