<svg width="23" height="23" viewBox="0 0 23 23" fill="none" xmlns="http://www.w3.org/2000/svg">
<g clip-path="url(#clip0_1491_3593)">
<path d="M6.90687 2.29542C6.90687 2.05775 6.89967 1.85321 6.90687 1.64723C6.94288 0.744801 7.64651 0.0195495 8.55035 0.0116272C10.5189 -0.0051778 12.4874 -0.0051778 14.4559 0.0116272C15.3576 0.0195495 16.0562 0.747689 16.0922 1.65444C16.1001 1.85826 16.0922 2.06281 16.0922 2.29327H16.664C17.1041 2.29327 17.5448 2.29832 17.9848 2.29327C19.66 2.27167 19.5556 2.26159 19.5484 3.86839C19.5426 5.15325 19.5484 6.43809 19.5484 7.72367V8.05209H19.8573C20.6841 8.05209 21.5138 8.05209 22.3377 8.05209C22.7871 8.05209 22.9981 8.26167 22.9981 8.71541C22.9981 13.2537 22.9981 17.791 22.9981 22.3274C22.9981 22.7992 22.7979 22.9972 22.3211 22.9972C15.1048 22.9972 7.88803 22.9972 0.670757 22.9972C0.199032 22.9972 0.000976562 22.7963 0.000976562 22.3202C0.000976562 17.7906 0.000976562 13.2614 0.000976562 8.73271C0.000976562 8.25017 0.207664 8.05067 0.695953 8.04995C1.50497 8.04995 2.314 8.04995 3.12301 8.04995H3.4514V7.71576C3.4514 6.16154 3.4514 4.60682 3.4514 3.05164C3.4514 2.48123 3.63938 2.2947 4.21193 2.29398H6.90615L6.90687 2.29542ZM4.6174 3.4665V21.8319H8.62886V21.5201C8.62886 20.1449 8.62886 18.7698 8.62886 17.3947C8.62886 16.8718 8.82331 16.6788 9.34473 16.6788H13.632C14.1873 16.6788 14.3702 16.8639 14.3709 17.4264C14.3709 18.7924 14.3709 20.1584 14.3709 21.5244V21.837H18.3846V3.4766H16.0972V3.78916C16.0972 4.97511 16.0972 6.16131 16.0972 7.34774C16.0972 8.49288 15.3929 9.19508 14.2478 9.19652C12.4147 9.19652 10.5813 9.19652 8.74769 9.19652C7.60474 9.19652 6.90617 8.49072 6.90401 7.34342C6.90401 6.14834 6.90401 4.95325 6.90401 3.75818V3.4665H4.6174ZM14.9514 4.61308C14.9514 3.68736 14.9514 2.76213 14.9514 1.83737C14.9514 1.36059 14.7353 1.15029 14.2557 1.15029C12.4144 1.15029 10.5724 1.15029 8.72968 1.15029C8.26588 1.15029 8.05055 1.36634 8.04983 1.8244C8.04983 3.67534 8.04983 5.5263 8.04983 7.37725C8.04983 7.83602 8.26588 8.05065 8.73112 8.05065C10.5734 8.05065 12.4154 8.05065 14.2571 8.05065C14.7361 8.05065 14.95 7.8382 14.9514 7.36286C14.9529 6.44579 14.9529 5.52919 14.9514 4.61308ZM1.16624 9.21091V21.8341H3.42909V9.21091H1.16624ZM19.57 9.21091V21.8355H21.8343V9.21091H19.57ZM9.7934 17.8376V21.8348H13.2064V17.8376H9.7934Z" fill="black"/>
<path d="M8.04753 12.0797C7.85956 12.0797 7.67014 12.0897 7.48289 12.0797C7.12784 12.0566 6.90674 11.8225 6.90674 11.4963C6.91034 11.1815 7.12856 10.946 7.47137 10.9316C7.85668 10.9151 8.24342 10.9144 8.62872 10.9316C8.97081 10.9468 9.18832 11.183 9.19048 11.4985C9.19048 11.8247 8.96938 12.0566 8.61432 12.0797C8.42491 12.0897 8.23622 12.0797 8.04753 12.0797Z" fill="black"/>
<path d="M11.4935 12.0796C11.3048 12.0796 11.1154 12.0904 10.9282 12.0796C10.5753 12.0543 10.352 11.8167 10.3578 11.4904C10.3643 11.1779 10.5861 10.9445 10.9282 10.9308C11.3135 10.9157 11.7002 10.9143 12.0855 10.9308C12.1601 10.9303 12.2339 10.9449 12.3027 10.9736C12.3715 11.0023 12.4337 11.0447 12.4857 11.0981C12.5377 11.1515 12.5784 11.2149 12.6053 11.2844C12.6322 11.3539 12.6447 11.4282 12.6422 11.5027C12.6422 11.8181 12.4262 12.05 12.0848 12.0789C11.8889 12.094 11.6908 12.0789 11.4935 12.0789V12.0796Z" fill="black"/>
<path d="M14.9275 12.0777C14.7395 12.0777 14.5501 12.09 14.3629 12.0777C14.0236 12.0504 13.8076 11.8163 13.8098 11.5016C13.8078 11.4271 13.8209 11.3529 13.8483 11.2836C13.8756 11.2142 13.9167 11.1512 13.969 11.098C14.0213 11.0449 14.0838 11.0029 14.1527 10.9745C14.2216 10.946 14.2955 10.9318 14.3701 10.9326C14.7547 10.9153 15.1421 10.9161 15.5267 10.9326C15.8702 10.947 16.0892 11.1811 16.0935 11.4951C16.0978 11.8214 15.8774 12.0569 15.5173 12.0806C15.3207 12.0936 15.1227 12.0806 14.9253 12.0806L14.9275 12.0777Z" fill="black"/>
<path d="M8.04679 14.9512C7.85882 14.9512 7.67013 14.9584 7.48216 14.9512C7.13575 14.9361 6.90601 14.6963 6.90601 14.3693C6.90601 14.0424 7.13143 13.8213 7.47208 13.8126C7.85618 13.802 8.24173 13.802 8.62871 13.8126C8.9672 13.822 9.1883 14.0538 9.19047 14.3736C9.19257 14.4479 9.17989 14.5218 9.15317 14.5911C9.12645 14.6604 9.08622 14.7237 9.03482 14.7773C8.98342 14.8309 8.92189 14.8738 8.85377 14.9034C8.78566 14.933 8.71233 14.9488 8.63807 14.9498C8.44218 14.9599 8.24701 14.9512 8.04679 14.9512Z" fill="black"/>
<path d="M11.505 14.9512C11.3077 14.9512 11.1096 14.9606 10.913 14.9512C10.8386 14.9504 10.765 14.9348 10.6967 14.9052C10.6283 14.8757 10.5665 14.8329 10.5148 14.7793C10.4632 14.7257 10.4227 14.6623 10.3957 14.5929C10.3687 14.5235 10.3558 14.4495 10.3578 14.375C10.3552 14.3007 10.3678 14.2266 10.3949 14.1574C10.422 14.0881 10.463 14.0252 10.5154 13.9723C10.5677 13.9195 10.6303 13.878 10.6993 13.8502C10.7683 13.8225 10.8423 13.8092 10.9166 13.8111C11.3113 13.8003 11.7088 13.7996 12.1006 13.8111C12.1727 13.8109 12.2441 13.8251 12.3106 13.853C12.3771 13.8808 12.4374 13.9216 12.4879 13.9731C12.5384 14.0246 12.578 14.0857 12.6045 14.1527C12.631 14.2198 12.6438 14.2914 12.6422 14.3635C12.6453 14.4377 12.6336 14.5118 12.6077 14.5814C12.5819 14.6511 12.5424 14.7149 12.4917 14.7691C12.4409 14.8233 12.3799 14.8669 12.3121 14.8973C12.2444 14.9277 12.1712 14.9443 12.097 14.9462C11.9004 14.9613 11.7038 14.9512 11.505 14.9512Z" fill="black"/>
<path d="M14.9561 13.8134C15.1534 13.8134 15.3515 13.8048 15.5481 13.8134C15.692 13.8191 15.8284 13.8793 15.9296 13.9818C16.0308 14.0842 16.0892 14.2214 16.0931 14.3654C16.0969 14.5093 16.0459 14.6494 15.9503 14.7571C15.8547 14.8649 15.7217 14.9323 15.5783 14.9456C15.1577 14.9643 14.735 14.965 14.3144 14.9456C14.0069 14.9305 13.7987 14.6625 13.8103 14.3557C13.8129 14.2153 13.869 14.0812 13.9671 13.9807C14.0651 13.8802 14.1979 13.8209 14.3382 13.8149C14.3559 13.8138 14.3737 13.8138 14.3915 13.8149H14.9568L14.9561 13.8134Z" fill="black"/>
<path d="M10.8697 5.17985C10.5442 5.17985 10.2129 5.18345 9.88162 5.17985C9.46895 5.17481 9.20681 4.95299 9.1996 4.61089C9.1924 4.26879 9.46248 4.02749 9.88811 4.02244C10.2194 4.01884 10.55 4.02244 10.9216 4.02244C10.9216 3.63857 10.9108 3.27415 10.9216 2.91044C10.9374 2.47831 11.2817 2.21543 11.6648 2.33427C11.9205 2.41205 12.0674 2.61444 12.0746 2.93133C12.0825 3.28063 12.0746 3.62995 12.0746 4.02462H12.6147C12.8121 4.02462 13.0101 4.01669 13.2075 4.02821C13.5575 4.04982 13.7973 4.29181 13.7959 4.60438C13.7944 4.91695 13.5539 5.16327 13.2017 5.18055C12.8366 5.19424 12.4707 5.18055 12.0746 5.18055C12.0746 5.56803 12.0847 5.92455 12.0746 6.28106C12.0588 6.73911 11.6807 7.01567 11.291 6.85723C11.0253 6.75064 10.9223 6.53239 10.9187 6.25799C10.9144 5.91733 10.9115 5.57667 10.9065 5.23601C10.9115 5.22953 10.8992 5.22234 10.8697 5.17985Z" fill="black"/>
</g>
<defs>
<clipPath id="clip0_1491_3593">
<rect width="23" height="23" fill="white"/>
</clipPath>
</defs>
</svg>
