<svg enable-background="new 0 0 122.88 85.48" viewBox="0 0 122.88 85.48" xmlns="http://www.w3.org/2000/svg"><path d="m6.71 0h109.46c3.7.02 6.71 3.05 6.71 6.75v71.98c0 3.71-3.04 6.75-6.75 6.75h-109.42c-3.69-.02-6.71-3.05-6.71-6.75v-71.98c0-3.7 3.01-6.73 6.71-6.75z" fill="#f93"/><path d="m0 28.49h122.88v28.5h-122.88z" fill="#fff"/><path d="m0 56.99h122.88v21.74c0 3.71-3.04 6.75-6.75 6.75h-109.42c-3.69-.02-6.71-3.05-6.71-6.75z" fill="#128807"/><path d="m72.84 42.74c0-6.3-5.1-11.4-11.4-11.4s-11.4 5.1-11.4 11.4c0 6.29 5.1 11.4 11.4 11.4s11.4-5.1 11.4-11.4z" fill="#008"/><path d="m71.41 42.74c0-5.51-4.46-9.97-9.97-9.97s-9.97 4.46-9.97 9.97 4.46 9.97 9.97 9.97 9.97-4.46 9.97-9.97z" fill="#fff"/><g fill="#008"><path d="m63.43 42.74c0-1.1-.89-2-1.99-2s-1.99.89-1.99 2c0 1.1.89 1.99 1.99 1.99s1.99-.89 1.99-1.99z"/><path d="m71.82 44.11c.04-.27-.16-.52-.43-.56s-.52.16-.56.43.16.52.43.56c.28.03.53-.16.56-.43z"/><path d="m61.44 52.71.34-5.98-.34-2.85-.34 2.85z"/></g><path d="m71.11 46.75c.11-.25-.02-.55-.27-.65-.25-.11-.55.02-.65.27-.11.25.02.55.27.65.26.1.55-.02.65-.27z"/><path d="m58.86 52.37 1.88-5.69.41-2.84-1.07 2.67z"/><path d="m69.75 49.12c.17-.22.13-.53-.09-.7s-.53-.13-.7.09-.13.53.09.7.53.12.7-.09z"/><path d="m56.45 51.38 3.29-5.01 1.13-2.64-1.72 2.29z"/><path d="m67.81 51.05c.22-.17.26-.48.09-.7s-.48-.26-.7-.09-.26.48-.09.7c.17.21.49.26.7.09z"/><path d="m54.39 49.79 4.47-3.99 1.77-2.25-2.25 1.77z"/><path d="m65.45 52.42c.25-.11.38-.4.27-.65s-.4-.38-.65-.27c-.25.1-.38.4-.27.65.1.25.39.37.65.27z"/><path d="m52.8 47.73 5.36-2.7 2.29-1.72-2.64 1.13z"/><path d="m62.81 53.12c.27-.04.46-.29.43-.56-.04-.27-.29-.46-.56-.43-.27.04-.46.29-.43.56.03.28.28.47.56.43z"/><path d="m51.81 45.32 5.87-1.22 2.66-1.06-2.84.4z"/><path d="m60.07 53.12c.27.04.52-.16.56-.43s-.16-.52-.43-.56-.52.16-.56.43c-.03.28.16.53.43.56z"/><path d="m51.47 42.74 5.98.34 2.85-.34-2.85-.34z"/><path d="m57.43 52.42c.25.11.55-.02.65-.27s-.02-.55-.27-.65c-.25-.11-.55.02-.65.27s.02.54.27.65z"/><path d="m51.81 40.16 5.69 1.88 2.84.41-2.66-1.07z"/><path d="m55.06 51.05c.22.17.53.13.7-.09s.13-.53-.09-.7-.53-.13-.7.09c-.16.22-.12.53.09.7z"/><path d="m52.8 37.75 5.01 3.29 2.64 1.13-2.29-1.72z"/><path d="m53.13 49.12c.17.22.48.26.7.09s.26-.48.09-.7-.48-.26-.7-.09c-.21.16-.26.48-.09.7z"/><path d="m54.39 35.69 3.99 4.47 2.25 1.78-1.77-2.26z"/><path d="m51.76 46.75c.11.25.4.38.65.27s.38-.4.27-.65-.4-.38-.65-.27c-.25.1-.37.39-.27.65z"/><path d="m56.45 34.1 2.7 5.36 1.72 2.29-1.13-2.63z"/><path d="m51.06 44.11c.04.27.29.46.56.43.27-.04.46-.29.43-.56-.04-.27-.29-.46-.56-.43-.28.03-.47.28-.43.56z"/><path d="m58.86 33.11 1.22 5.87 1.07 2.66-.41-2.84z"/><path d="m51.06 41.37c-.04.27.16.52.43.56s.52-.16.56-.43-.16-.52-.43-.56c-.28-.03-.53.16-.56.43z"/><path d="m61.44 32.77-.34 5.98.34 2.85.34-2.85z"/><path d="m51.77 38.73c-.11.25.02.55.27.65s.55-.02.65-.27c.11-.25-.02-.55-.27-.65-.26-.1-.55.02-.65.27z"/><path d="m64.02 33.11-1.88 5.69-.41 2.84 1.07-2.66z"/><path d="m53.13 36.37c-.17.22-.13.53.09.7s.53.13.7-.09.13-.53-.09-.7-.53-.13-.7.09z"/><path d="m66.43 34.1-3.29 5.02-1.13 2.63 1.72-2.29z"/><path d="m55.07 34.43c-.22.17-.26.48-.09.7s.48.26.7.09.26-.48.09-.7-.49-.25-.7-.09z"/><path d="m68.49 35.69-4.47 3.99-1.77 2.26 2.25-1.78z"/><path d="m57.43 33.07c-.25.11-.37.4-.27.65.11.25.4.38.65.27s.38-.4.27-.65c-.1-.26-.39-.38-.65-.27z"/><path d="m70.08 37.75-5.36 2.7-2.29 1.72 2.64-1.13z"/><path d="m60.07 32.36c-.27.04-.46.29-.43.56.04.27.29.46.56.43.27-.04.47-.29.43-.56-.03-.27-.28-.47-.56-.43z"/><path d="m71.07 40.16-5.87 1.22-2.66 1.07 2.84-.41z"/><path d="m62.81 32.36c-.27-.04-.52.16-.56.43s.16.52.43.56.52-.16.56-.43c.03-.27-.16-.53-.43-.56z"/><path d="m71.41 42.74-5.98-.34-2.85.34 2.85.34z"/><path d="m65.45 33.07c-.25-.11-.55.02-.65.27-.11.25.02.55.27.65s.55-.02.65-.27c.1-.26-.02-.55-.27-.65z"/><path d="m71.07 45.32-5.69-1.88-2.84-.4 2.66 1.06z"/><path d="m67.81 34.43c-.22-.17-.53-.13-.7.09s-.13.53.09.7.53.13.7-.09.13-.53-.09-.7z"/><path d="m70.08 47.73-5.01-3.29-2.64-1.13 2.29 1.72z"/><path d="m69.75 36.37c-.17-.22-.48-.26-.7-.09s-.26.48-.09.7.48.26.7.09c.21-.17.26-.49.09-.7z"/><path d="m68.49 49.79-3.99-4.47-2.25-1.77 1.77 2.25z"/><path d="m71.12 38.73c-.11-.25-.4-.38-.65-.27s-.38.4-.27.65.4.37.65.27.37-.39.27-.65z"/><path d="m66.43 51.38-2.7-5.36-1.72-2.29 1.13 2.64z"/><path d="m71.82 41.37c-.04-.27-.29-.46-.56-.43-.27.04-.46.29-.43.56.04.27.29.46.56.43.28-.03.47-.28.43-.56z"/><path d="m64.02 52.37-1.22-5.86-1.07-2.67.41 2.84z"/></svg>