<svg width="19" height="21" viewBox="0 0 19 21" fill="none" xmlns="http://www.w3.org/2000/svg">
<path d="M18.0561 16.4148C17.834 15.142 17.081 14.2494 15.8168 13.8474L15.8167 13.8474L18.0561 16.4148ZM18.0561 16.4148C18.3621 18.165 17.0332 19.8572 15.2353 20.0635M18.0561 16.4148C18.0561 16.4148 18.0561 16.4148 18.0561 16.4148L15.2353 20.0635M15.2353 20.0635L15.2242 20.0996H15.1503H14.3876H14.3714L14.3561 20.0945C14.2445 20.0575 14.1316 20.0285 14.0148 19.9985C13.9806 19.9897 13.9461 19.9808 13.9112 19.9717C13.7593 19.9317 13.6029 19.8865 13.451 19.8185C11.9104 19.1303 11.1462 17.4631 11.6724 15.8924C11.6724 15.8924 11.6724 15.8924 11.6724 15.8924L15.2353 20.0635ZM7.36264 9.37436L7.36246 9.37447C7.31417 9.40327 7.30899 9.41758 7.30845 9.41915C7.30762 9.42153 7.3037 9.43538 7.32094 9.48596C7.55719 10.143 7.55715 10.8588 7.32082 11.5159C7.30312 11.5663 7.30739 11.5799 7.30809 11.5819C7.30875 11.5837 7.31437 11.5981 7.36271 11.6272C9.02988 12.628 10.6953 13.6317 12.3589 14.6385C12.4025 14.6648 12.4158 14.6642 12.4183 14.664C12.4204 14.6638 12.4347 14.6621 12.4738 14.6259C12.4738 14.6259 12.4738 14.6259 12.4738 14.6259L12.5418 14.6992L7.36264 9.37436ZM7.36264 9.37436C9.02556 8.37797 10.6858 7.37761 12.3434 6.3733L12.3434 6.37328M7.36264 9.37436L12.3434 6.37328M12.3434 6.37328C12.3964 6.34117 12.4138 6.34001 12.4197 6.34049C12.4241 6.34085 12.4412 6.34367 12.4867 6.38674C13.2613 7.12042 14.1987 7.42958 15.267 7.28632L15.267 7.28632M12.3434 6.37328L15.267 7.28632M15.267 7.28632C16.8332 7.07609 17.9711 5.84195 18.0913 4.2623C18.1997 2.8376 17.1898 1.45684 15.7393 1.035L15.7392 1.03499M15.267 7.28632L15.7392 1.03499M15.7392 1.03499C15.6092 0.997278 15.4742 0.968224 15.3434 0.940098C15.2854 0.927625 15.2283 0.915335 15.1728 0.902553L15.1617 0.9M15.7392 1.03499L15.1617 0.9M15.1617 0.9H15.1503M15.1617 0.9H15.1503M15.1503 0.9H14.4257H14.3931M15.1503 0.9H14.3931M14.3931 0.9L14.3668 0.919231M14.3931 0.9L14.3668 0.919231M14.3668 0.919231C14.3598 0.924279 14.3539 0.929453 14.3499 0.933126M14.3668 0.919231L14.3499 0.933126M6.65459 8.2409L6.6546 8.24089C8.3121 7.23737 9.97112 6.23631 11.6317 5.23774M6.65459 8.2409L11.6865 5.14319M6.65459 8.2409C6.60597 8.27034 6.58907 8.27069 6.58399 8.27019C6.57948 8.26975 6.56338 8.26665 6.52259 8.22812L6.52245 8.22799M6.65459 8.2409L6.52245 8.22799M11.6317 5.23774C11.6317 5.23772 11.6317 5.23771 11.6318 5.23769L11.6833 5.32339L11.6316 5.23776C11.6316 5.23775 11.6317 5.23775 11.6317 5.23774ZM11.6317 5.23774C11.6542 5.22413 11.6695 5.21448 11.681 5.20557C11.6921 5.19698 11.6951 5.19248 11.6957 5.19153L11.6959 5.19121C11.6959 5.19113 11.6962 5.18993 11.6962 5.18705C11.6963 5.1807 11.6948 5.16725 11.6865 5.14319M11.6865 5.14319C10.9902 3.14215 12.4065 1.17317 14.3499 0.933126M11.6865 5.14319L14.3499 0.933126M6.52245 8.22799C5.77053 7.52055 4.87123 7.20608 3.82441 7.31416M6.52245 8.22799L0.963107 11.0821M0.963107 11.0821L0.963104 11.0821C0.584659 9.28565 1.95193 7.50727 3.82441 7.31416M0.963107 11.0821C1.22329 12.3162 1.97999 13.1728 3.21329 13.5535L3.21341 13.5535M0.963107 11.0821L3.21341 13.5535M3.82441 7.31416L3.83467 7.41363L3.8244 7.31416C3.8244 7.31416 3.82441 7.31416 3.82441 7.31416ZM3.21341 13.5535C4.4578 13.9358 5.57702 13.6416 6.52166 12.7716C6.56341 12.7332 6.5797 12.73 6.58444 12.7296C6.58955 12.7291 6.60628 12.7295 6.65483 12.759L6.65498 12.7591M3.21341 13.5535L6.65498 12.7591M6.65498 12.7591C8.3076 13.7599 9.96175 14.7568 11.6174 15.7499L6.65498 12.7591ZM14.7887 2.23773L14.7887 2.23773C15.171 2.23521 15.5453 2.34325 15.864 2.54785C16.1828 2.75244 16.4315 3.04423 16.5792 3.38596C16.7268 3.72765 16.7668 4.10414 16.6943 4.46783C16.6218 4.83154 16.4399 5.16649 16.1712 5.43006C15.9025 5.69367 15.5592 5.87398 15.1845 5.94776C14.8098 6.02153 14.4211 5.98535 14.0677 5.8439C13.7144 5.70246 13.4125 5.46228 13.2002 5.15419C12.9878 4.84613 12.8744 4.48394 12.874 4.11352L12.874 4.11349C12.8732 3.61921 13.0736 3.1442 13.4321 2.79247C13.7907 2.44066 14.2784 2.24091 14.7887 2.23773ZM4.19389 12.3728L4.19365 12.3728C3.81256 12.3709 3.44079 12.2591 3.12527 12.052C2.80977 11.8449 2.56478 11.5517 2.42079 11.2098C2.27682 10.8679 2.24014 10.4924 2.31526 10.1304C2.39038 9.76843 2.57404 9.43582 2.84352 9.17471C3.11302 8.91357 3.45627 8.73568 3.83009 8.66389C4.20392 8.59209 4.5912 8.62971 4.94296 8.77186C5.29469 8.914 5.59486 9.15417 5.8059 9.46168C6.01691 9.76915 6.12946 10.1303 6.12968 10.4995L6.12968 10.4998C6.13045 10.7463 6.081 10.9905 5.98411 11.2185C5.88721 11.4464 5.74476 11.6536 5.56486 11.8279C5.38496 12.0022 5.17118 12.1402 4.93582 12.2338C4.70045 12.3274 4.44828 12.3746 4.19389 12.3728ZM14.7921 18.763H14.7919C14.4096 18.7614 14.0366 18.6493 13.7203 18.4413C13.4039 18.2334 13.1586 17.939 13.0148 17.5957C12.8711 17.2525 12.8353 16.8757 12.9119 16.5128C12.9885 16.15 13.1741 15.817 13.4456 15.5563C13.7172 15.2956 14.0625 15.1189 14.438 15.0491C14.8134 14.9792 15.2016 15.0195 15.5534 15.1646C15.9051 15.3096 16.2043 15.5529 16.4132 15.8631C16.6221 16.1733 16.7316 16.5366 16.728 16.9069L16.728 16.9071C16.7242 17.4017 16.5188 17.8753 16.1561 18.2235C15.7933 18.5718 15.3028 18.7661 14.7921 18.763Z" fill="white" stroke="white" stroke-width="0.2"/>
</svg>
