<svg fill="none" height="40" viewBox="0 0 40 40" width="40" xmlns="http://www.w3.org/2000/svg"><path d="m10.2344 40.0001c.9229-.2542 1.5906-.7907 1.8979-1.7897.8614.8615 1.7708 1.5626 2.9458 1.7897z" fill="#fff"/><path d="m0 38.0469c.270833 1.0312.921875 1.6823 1.95312 1.9531h-1.95312z" fill="#fff"/><g fill="#008036"><path d="m36.8991 14.8522c0 .2042-.0809.4-.225.5447-.144.1446-.3396.2263-.5437.2272-.2072-.0024-.405-.0869-.5499-.2351-.1448-.1482-.2249-.3479-.2225-.5551.0023-.2072.0869-.4049.235-.5498.1482-.1449.3479-.2249.5551-.2225.1013.0023.2012.0246.2938.0656.0927.041.1763.0999.2461.1734s.1244.1601.1606.2547c.0363.0947.0534.1956.0505.2969z"/><path d="m6.07713 35.3124c.1547-.0033.30687.0396.43708.1232.1302.0836.23253.2042.29389.3462.06137.142.07899.2991.05062.4512-.02836.1522-.10144.2924-.20988.4027-.10844.1104-.24733.186-.39892.217-.15158.0311-.30898.0162-.45209-.0427-.1431-.0588-.26541-.159-.35129-.2877-.08589-.1288-.13145-.2801-.13086-.4349.00285-.2023.08357-.3957.22538-.5401.14182-.1443.33382-.2285.53607-.2349z"/><path d="m29.4959 14.0303c-.7596 0-1.5022.2252-2.1338.6473-.6315.422-1.1238 1.0218-1.4145 1.7236s-.3667 1.474-.2185 2.219.5139 1.4293 1.051 1.9664c.5372.5371 1.2215.903 1.9665 1.0511.745.1482 1.5173.0722 2.219-.2185.7018-.2907 1.3017-.783 1.7237-1.4146.422-.6315.6472-1.3741.6472-2.1337.0002-.5044-.0991-1.0039-.2921-1.4699-.1929-.466-.4758-.8895-.8325-1.2462-.3566-.3566-.7801-.6395-1.2461-.8325-.466-.1929-.9655-.2922-1.4699-.292zm0 6.3541c-.4972.0002-.9834-.147-1.3969-.4231s-.7358-.6687-.9262-1.128c-.1903-.4593-.2402-.9648-.1432-1.4525.0969-.4877.3363-.9356.6879-1.2872s.7995-.591 1.2872-.688.9932-.0471 1.4525.1433.8519.5127 1.128.9262.4234.8996.4232 1.3968c-.0003.6662-.2651 1.305-.7363 1.776-.4711.471-1.11.7355-1.7762.7355z"/><path d="m6.87501 25.2896v-.2896h-1.5625v.2844 8.2406c-.00506.1299-.00229.26.00833.3896.02203.1893.11282.3638.25513.4905s.32621.1967.51675.1967.37445-.07.51675-.1967c.14231-.1267.23311-.3012.25513-.4905.01147-.1295.0146-.2597.00937-.3896.0007-2.7431.00104-5.4882.00104-8.2354z"/></g><path d="m19.766 0c-.4229.230208-.5782.580202-.5542 1.06145.0313.63542.0073 1.27396.0073 1.95313-.8031.21666-1.6.43544-2.3958.64794-1.5972.42638-3.1913.85136-4.7823 1.27497-.7229.19271-.9104.51251-.7167 1.23439 1.216 4.54372 2.4354 9.08572 3.6584 13.62602.0979.3594.0447.5823-.2282.8438-.9031.8625-1.7708 1.7572-2.6552 2.6447-.0977.1195-.1845.2475-.2594.3824-.6458-.8511-1.4135-1.1073-2.33121-1.0979-2.2125.0229-4.42605.0458-6.63646-.0063-1.3698-.0323-2.43958.4458-2.86978859 1.9666v13.5157c.27083359 1.0312.92187459 1.6823 1.95312859 1.9531h8.28123c.9229-.2542 1.5906-.7906 1.8979-1.7896.8615.8615 1.7709 1.5625 2.9459 1.7896h24.9198v-40zm-9.1406 37.3958c0 .7979-.249 1.0417-1.05524 1.0417h-6.99064c-.75208 0-1.01562-.2604-1.01666-1.0042v-12.301c0-.7188.27187-.9896.99062-.9917h2.75938 1.64479v.0084c1.01875 0 2.00416-.0146 2.98854.0083.36561.0083.63231.3292.67291.701.0079.104.01.2083.0063.3125zm2.3385-31.0812 6.2552-1.67817v1.73335c-.0099.14289-.0099.2863 0 .42918.0698.48958-.0146.81978-.6052.9229-.3948.06979-.5479.46773-.4771.90627.2084 1.29271-.2583 2.11037-1.4583 2.56767-.5208.199-.6854.5313-.5271 1.1209.9563 3.5521 1.9136 7.1034 2.8719 10.6541.0375.1375.0708.275.1177.4573h-1.5542zm6.2271 4.9885v6.1458h-.0396c-.4365-1.6114-.875-3.2218-1.3021-4.8364-.0013-.0515.0087-.1028.0292-.1501s.0511-.0895.0896-.1238c.4052-.3594.8218-.7 1.2229-1.0375zm11.1333 27.1344c-4.8826 0-9.7649 0-14.6469 0-.6052.0059-1.1908-.2148-1.6416-.6187-.55-.4782-1.1073-.9501-1.6438-1.4428-.1155-.1118-.1852-.2625-.1958-.4229-.0104-3.4361-.0104-6.8736 0-10.3125-.0032-.1258.0381-.2486.1167-.3469 1.0611-1.0736 2.1284-2.1416 3.202-3.2041.0167-.0156.0469-.0177.1042-.0365l.5604 2.1792c.1511.5885.3802.7656.9969.7667h14.726.3511c.6875.0135 1.1791.4677 1.1812 1.0906s-.4896 1.0927-1.1739 1.0948c-1.9396.0052-3.8792 0-5.8198 0-.5729 0-1.1458 0-1.7188 0-.6604 0-1.0416.2937-1.0333.7916s.3823.7709 1.0552.7709h9.7656c.1559-.007.312-.0004.4667.0198.2579.0474.4901.1862.6541.391.1639.2047.2486.4616.2384.7237-.0101.2621-.1143.5117-.2935.7032-.1793.1915-.4215.312-.6823.3394-.1428.0109-.2861.014-.4292.0093h-9.6875c-.1299-.005-.26-.0022-.3896.0084-.1903.0199-.3666.1093-.495.2512-.1285.1418-.2001.3261-.2011.5174-.001.1914.0686.3764.1955.5196s.3022.2346.4923.2566c.1295.0114.2596.0146.3896.0093h8.2416c.8688 0 1.4125.7375 1.1209 1.4907-.175.4489-.574.6937-1.1573.6937-2.7084 0-5.4167 0-8.125 0-.1177 0-.2344 0-.3521 0-.4688.0219-.8094.3521-.8084.7802.0011.1046.0231.208.0647.304s.1019.1827.1776.255c.0756.0724.1649.1288.2627.1661.0977.0372.2019.0546.3065.051 1.0156.0104 2.0313 0 3.0469 0h2.7729c.7292 0 1.2188.4479 1.2219 1.0864s-.499 1.1146-1.2167 1.1146zm8.0959-.0198h-5.5386c.2667-.7104.2969-1.4094-.0135-2.15 1.0229 0 1.8614-.3427 2.4291-1.1812.5677-.8386.599-1.7209.2084-2.6553.1041-.051.1948-.0968.2864-.1364.3502-.1446.6655-.3623.9247-.6387.2591-.2764.4562-.605.578-.9637.1219-.3588.1656-.7395.1283-1.1165s-.1548-.7417-.3445-1.0696c-.1036-.1901-.1597-.4024-.1636-.6188-.0093-3.0729-.0062-6.1458-.0072-9.2177 0-.7177-.2605-1.0844-.7719-1.0875-.5115-.0031-.7896.3708-.7896 1.075v8.0854.4834l-.5708-.0511c.4031-1.1146.2406-2.1073-.5771-2.9635-.8177-.8563-1.8854-.799-2.9906-.7677l-3.1865-.0063h-4.125c-.0084-.1667-.0208-.3042-.0208-.4417 0-4.6604-.0028-9.3212-.0084-13.98228 0-.30521.074-.44581.3823-.54998 1.2834-.43229 2.0646-1.35417 2.4292-2.6625h5.8656c.2.76875.5562 1.4646 1.1937 1.9521.4083.29543.8495.54255 1.3146.73644.2157.09584.3042.17815.3.41148-.0114.69063-.0208 1.38124 0 2.06974.0209.6886.6917 1.0625 1.1959.6729.1937-.1644.3155-.398.3396-.651.0354-1.0271.026-2.05625.0114-3.08437-.0073-.49584-.2885-.76042-.7781-.80104-1.2323-.10417-1.9542-.79998-2.0833-2.01457-.0698-.63854-.323-.87295-.9605-.87295-2.3173 0-4.6347 0-6.952 0-.6105 0-.8698.24377-.9375.85627-.1365 1.22604-.8594 1.9344-2.0709 2.03023-.5135.04063-.775.30416-.7989.82291-.0125.27292 0 .54686 0 .82082v14.6635h-1.5052v-21.82287h17.6041z" fill="#000"/></svg>