<svg width="46" height="47" viewBox="0 0 46 47" fill="none" xmlns="http://www.w3.org/2000/svg">
<path d="M11.1883 31.4692C11.5876 31.0544 11.9881 30.6243 12.4027 30.2095C12.8174 29.7948 13.241 29.7858 13.5801 30.1199C13.9192 30.454 13.8962 30.8982 13.5033 31.2976C13.0912 31.7162 12.6664 32.122 12.2466 32.5355L13.3984 33.6646L16.3853 30.6614C15.7109 29.878 14.9174 29.0651 14.2468 28.1613C11.5492 24.527 10.4077 20.4383 10.8274 15.9272C11.1563 12.3812 12.4911 9.24236 14.7152 6.47345C15.1337 5.95372 15.611 5.90379 15.995 6.34544C16.3149 6.71923 16.2202 7.06359 15.931 7.4169C14.6318 8.99781 13.647 10.8128 13.0298 12.764C10.2451 21.5661 15.4076 30.8931 24.3555 33.2152C33.2778 35.531 42.3997 29.7807 44.1606 20.7353C44.5709 18.6634 44.5686 16.5308 44.1536 14.4598C43.7386 12.3888 42.9192 10.4201 41.7422 8.66641C40.5653 6.91273 39.054 5.40859 37.295 4.24016C35.5359 3.07174 33.5637 2.26199 31.4912 1.85732C26.6935 0.917706 22.3181 2.01221 18.4264 4.9885L18.1974 5.1626C17.7482 5.49031 17.3016 5.45447 17.0239 5.06787C16.7462 4.68127 16.8268 4.28316 17.2465 3.9452C19.5566 2.06282 22.3087 0.801348 25.2423 0.280205C33.7065 -1.24442 42.0785 3.58037 44.9515 11.6452C48.5885 21.8388 42.4125 32.821 31.7907 34.9293C26.8407 35.9125 22.2618 34.8756 18.118 31.9748C18.0259 31.9108 17.9363 31.8468 17.8442 31.7815C17.8186 31.7636 17.7891 31.7508 17.8134 31.7636L14.545 35.0369C14.7229 35.1503 14.8907 35.2788 15.0467 35.4209C15.4703 35.8497 15.4664 36.2351 15.0377 36.6703C14.1521 37.5664 13.2563 38.4625 12.3644 39.3483C10.5356 41.1776 8.72352 43.0236 6.87174 44.8311C4.66676 46.9843 1.03104 46.0549 0.181297 43.1221C-0.271728 41.5629 0.135221 40.1919 1.2793 39.0449C3.71591 36.6033 6.15424 34.1638 8.59426 31.7265C8.62753 31.6932 8.66081 31.6586 8.69536 31.6253C9.85992 30.4502 9.85992 30.4502 11.1883 31.4692ZM9.93031 32.5982C7.35677 35.1662 4.75891 37.7367 2.18921 40.334C1.42137 41.1098 1.33818 42.2811 1.88079 43.2143C2.06672 43.5471 2.32779 43.8319 2.64321 44.0459C2.95862 44.2599 3.31965 44.3972 3.69752 44.4469C4.07539 44.4967 4.45964 44.4574 4.81966 44.3323C5.17968 44.2072 5.50552 43.9997 5.77118 43.7264C8.30377 41.2263 10.8095 38.6993 13.3216 36.1839C13.3524 36.1497 13.3806 36.1134 13.4061 36.075L9.93031 32.5982Z" fill="black"/>
<path d="M42.164 17.6348C42.164 19.4489 41.8063 21.2451 41.1113 22.9207C40.4163 24.5963 39.3978 26.1182 38.114 27.3995C36.8301 28.6807 35.3063 29.6961 33.6296 30.3874C31.9529 31.0787 30.1564 31.4323 28.3429 31.4281C24.6881 31.4213 21.1855 29.9636 18.6045 27.3751C16.0236 24.7866 14.5754 21.2792 14.5781 17.6233C14.5769 15.8091 14.9338 14.0126 15.6285 12.3368C16.3231 10.6609 17.3417 9.13881 18.6258 7.85773C19.91 6.57665 21.4343 5.56184 23.1115 4.87152C24.7887 4.18121 26.5856 3.82898 28.3992 3.83504C30.2089 3.83672 32.0006 4.19503 33.6719 4.88951C35.3431 5.58398 36.8612 6.60101 38.1395 7.88251C39.4177 9.164 40.4311 10.6848 41.1216 12.3582C41.8122 14.0315 42.1664 15.8245 42.164 17.6348ZM40.6283 17.6258C40.6209 14.3727 39.3243 11.2553 37.0228 8.95696C34.7213 6.6586 31.6027 5.36682 28.3506 5.36479C25.1065 5.37323 21.9976 6.66564 19.7031 8.95966C17.4086 11.2537 16.1149 14.3628 16.1048 17.6079C16.0882 24.3631 21.6077 29.8971 28.3557 29.8971C31.6089 29.893 34.7279 28.5992 37.0293 26.2991C39.3306 23.9989 40.6267 20.8801 40.6334 17.6258H40.6283Z" fill="black"/>
<path d="M28.3723 25.2951C26.6178 25.2951 24.862 25.2951 23.1075 25.2951C21.6819 25.2912 20.7067 24.3183 20.7067 22.8871C20.7067 19.3762 20.7067 15.8648 20.7067 12.353C20.7067 10.9449 21.6819 9.9694 23.0755 9.96812C26.6025 9.96812 30.129 9.96812 33.6551 9.96812C35.0487 9.96812 36.0264 10.9487 36.0277 12.3492C36.0277 15.861 36.0277 19.3723 36.0277 22.8833C36.0277 24.317 35.0576 25.2912 33.6346 25.2938C31.8826 25.2976 30.1281 25.2951 28.3723 25.2951ZM31.4335 11.4966C31.4335 13.0212 31.4539 14.4882 31.4168 15.9527C31.3897 16.2552 31.2532 16.5374 31.0329 16.7464C30.7552 17.0024 30.4084 16.8616 30.1102 16.6555C29.638 16.3303 29.1466 16.0295 28.6846 15.6903C28.4504 15.52 28.2815 15.5341 28.0537 15.6903C27.5482 16.0513 27.0299 16.4033 26.5026 16.7259C25.9434 17.0677 25.3278 16.7259 25.3125 16.0858C25.2958 15.3178 25.2997 14.5497 25.3125 13.7816C25.3202 13.3118 25.6107 13.034 26.0573 13.0263C26.5244 13.0263 26.8187 13.3067 26.8366 13.7944C26.8456 14.0504 26.8366 14.3065 26.8366 14.6431C27.2206 14.3871 27.5226 14.2015 27.8041 13.9967C28.188 13.7138 28.5617 13.724 28.9482 14.0031C29.2374 14.2117 29.5433 14.3999 29.8683 14.615V11.4991C27.5648 11.4991 25.301 11.4902 23.0358 11.4991C22.4817 11.4991 22.2398 11.8294 22.2398 12.472C22.2398 15.9036 22.2398 19.3365 22.2398 22.7706C22.2398 23.4811 22.5099 23.7538 23.2227 23.7576C24.3399 23.7576 25.4571 23.7576 26.5743 23.7576C28.8889 23.7576 31.2035 23.7576 33.5181 23.7576C34.2271 23.7576 34.4958 23.4786 34.5035 22.7694C34.5035 22.5133 34.5035 22.2573 34.5035 22.0013C34.5035 18.8556 34.5035 15.7103 34.5035 12.5655C34.5035 11.7309 34.2591 11.4915 33.4158 11.4889C32.7772 11.4953 32.1399 11.4966 31.4335 11.4966Z" fill="black"/>
<path d="M26.0816 20.6994C26.5743 20.6994 27.0683 20.6994 27.561 20.6994C28.101 20.6994 28.3851 20.9772 28.3813 21.4675C28.3813 21.936 28.0972 22.2202 27.593 22.224C26.5752 22.2326 25.5569 22.2326 24.5382 22.224C24.0404 22.224 23.7627 21.9245 23.7704 21.456C23.7781 20.9874 24.0481 20.7122 24.5587 20.7032C25.0693 20.6943 25.5697 20.6994 26.0816 20.6994Z" fill="black"/>
</svg>
