<svg width="8" height="9" viewBox="0 0 8 9" fill="none" xmlns="http://www.w3.org/2000/svg">
<path d="M3.74288 0C2.7506 0.00109166 1.79928 0.395728 1.0976 1.09734C0.395923 1.79894 0.00119108 2.75023 0 3.7425C0 4.70625 0.74625 6.2145 2.21813 8.22525C2.39335 8.4653 2.62277 8.66058 2.88773 8.79521C3.15268 8.92984 3.44568 9.00002 3.74288 9.00002C4.04007 9.00002 4.33307 8.92984 4.59802 8.79521C4.86298 8.66058 5.0924 8.4653 5.26763 8.22525C6.7395 6.2145 7.48575 4.70625 7.48575 3.7425C7.48456 2.75023 7.08983 1.79894 6.38815 1.09734C5.68647 0.395728 4.73515 0.00109166 3.74288 0ZM3.74288 5.23425C3.4462 5.23425 3.15619 5.14628 2.90952 4.98145C2.66285 4.81663 2.47059 4.58237 2.35706 4.30828C2.24352 4.03419 2.21382 3.73259 2.2717 3.44161C2.32957 3.15064 2.47244 2.88337 2.68221 2.67359C2.89199 2.46381 3.15927 2.32095 3.45024 2.26307C3.74121 2.20519 4.04281 2.2349 4.3169 2.34843C4.59099 2.46196 4.82526 2.65422 4.99008 2.90089C5.1549 3.14757 5.24288 3.43758 5.24288 3.73425C5.24288 4.13208 5.08484 4.51361 4.80354 4.79491C4.52223 5.07622 4.1407 5.23425 3.74288 5.23425Z" fill="#A0A0A0"/>
</svg>
