<svg width="20" height="24" viewBox="0 0 20 24" fill="none" xmlns="http://www.w3.org/2000/svg">
<path d="M10 0C7.3489 0.00291109 4.80721 1.05527 2.93251 2.92622C1.0578 4.79717 0.00318226 7.33393 0 9.97998C0 12.55 1.99379 16.572 5.92626 21.934C6.39441 22.5741 7.00737 23.0949 7.71526 23.4539C8.42315 23.8129 9.20597 24 10 24C10.794 24 11.5768 23.8129 12.2847 23.4539C12.9926 23.0949 13.6056 22.5741 14.0737 21.934C18.0062 16.572 20 12.55 20 9.97998C19.9968 7.33393 18.9422 4.79717 17.0675 2.92622C15.1928 1.05527 12.6511 0.00291109 10 0ZM10 13.958C9.20737 13.958 8.43254 13.7234 7.77349 13.2839C7.11444 12.8443 6.60077 12.2196 6.29745 11.4887C5.99412 10.7578 5.91476 9.95355 6.06939 9.17762C6.22402 8.4017 6.60571 7.68897 7.16619 7.12956C7.72666 6.57015 8.44075 6.18919 9.21815 6.03485C9.99555 5.88051 10.8014 5.95972 11.5336 6.26247C12.2659 6.56522 12.8918 7.07791 13.3322 7.73571C13.7726 8.3935 14.0076 9.16686 14.0076 9.95798C14.0076 11.0188 13.5854 12.0363 12.8338 12.7864C12.0822 13.5366 11.0629 13.958 10 13.958Z" fill="#008036"/>
</svg>
