<svg fill="none" height="1680" viewBox="0 0 1680 1680" width="1680" xmlns="http://www.w3.org/2000/svg" xmlns:xlink="http://www.w3.org/1999/xlink"><clipPath id="a"><path d="m0 0h1680v1680h-1680z"/></clipPath><g clip-path="url(#a)" clip-rule="evenodd" fill-rule="evenodd"><path d="m114.288 1140.15 60.46 8.58c23.794-188.786 193.081-328.038 383.042-322.967 15.212.39 32.375 3.12 46.027 3.12 3.511-7.411 8.972-50.318 9.362-61.24-35.886-1.56-66.311-5.851-104.537-2.73-170.458 14.432-314.001 126.77-373.29 285.917-6.631 18.72-22.234 69.43-21.064 89.32z" fill="#fcfdfd"/><path d="m236.768 1156.54c.39.39 1.17 0 1.17.78l12.482 2.73c13.262 1.56 35.106 5.85 47.198 5.85 16.382-103.37 88.154-177.481 176.308-205.176 23.794-7.411 57.729-11.701 83.864-10.921 8.191.39 21.843 2.73 28.084 1.95l9.362-61.24c-107.268-9.361-173.578 10.532-243.79 65.141-27.304 21.063-55.778 52.266-73.721 83.866-17.943 31.2-39.397 75.67-40.957 117.02z" fill="#fcfdfd"/><path d="m245.35 609.668 42.126.78.39-92.835c3.901 3.121 1.171 0 4.291 4.681l33.546 79.963 21.453.39 35.886-87.374 1.17 94.395 42.127.78.39-178.649c-13.262-.78-32.375-2.34-44.857.781-12.092 23.013-36.666 93.225-45.638 104.926l-46.417-106.097h-44.467z" fill="#fcfdfd"/><path d="m462.224 573.782-.39 36.666c16.773 0 115.069 2.731 122.87-2.73 3.901-3.121 11.312-11.702 15.212-15.603 12.873-13.262 8.582-18.723 8.582-53.438 0-14.043-2.341-14.043-9.362-20.674-22.623-22.233-10.921-18.333-76.062-17.553-37.446.391-22.233-28.084-16.773-31.205 7.022-3.9 81.133-1.56 92.445-1.56v-36.666c-16.772 0-112.728-3.12-120.139 3.121-3.901 3.51-10.922 11.312-15.213 15.602-9.361 9.362-8.971 5.461-8.581 23.014.39 40.176-4.681 31.985 12.872 49.928 21.844 22.234 18.333 13.652 77.623 14.042 11.702.39 17.162 3.121 18.333 13.262 3.9 29.255-15.603 23.794-38.617 23.794-21.063 0-42.126 0-62.8 0z" fill="#fcfdfd"/><path d="m75.6721 454.033v31.985h45.6369c0-14.432-1.95-10.141 5.851-19.503 11.312-1.56 38.227-5.071 42.907 5.461 2.341 5.851 2.341 17.943-.78 23.014-5.071 9.361-44.467 5.851-56.169 5.851l-.39 33.935c41.347.39 58.119-8.191 58.509 16.773.391 7.411 1.171 14.822-2.73 19.503-5.461 7.411-29.645 5.461-41.347 4.291-7.021-8.192-5.851-5.071-5.851-19.504l-45.6369-.78c0 33.156-3.9006 28.475 10.5317 41.347 6.241 5.851 10.9218 13.652 22.6232 14.042 22.624.78 48.758.39 71.772 0 13.652 0 14.042-5.461 21.843-12.872 8.192-8.191 14.043-10.142 14.433-21.843.39-7.802.78-29.645-.39-36.666-.78-6.631-10.922-15.993-16.773-19.113 4.291-12.872 17.163-14.823 17.163-23.014 0-47.198 4.29-34.326-20.674-60.07-6.241-6.241-5.85-5.851-17.552-5.851l-74.892.39c-6.2414 1.171-21.0638 17.553-28.0849 22.624z" fill="#fcfdfd"/><path d="m358.857 1174.87 60.85 10.53c10.142-40.96 19.893-60.46 46.418-82.3 30.425-24.58 57.339-30.43 101.806-28.09l8.971-61.63c-58.899-9.36-113.118 10.53-148.613 39.4-28.475 23.4-67.091 69.43-69.432 122.09z" fill="#fcfdfd"/><path d="m718.496 1110.9c0 20.67-3.511 30.81 5.07 39.39 5.461 5.47 13.263 16 21.064 17.17 20.673 2.73 66.31-10.14 66.31 12.87 0 23.4-10.921 18.33-33.155 18.33-17.553 0-35.106 0-53.048 0l-.391 31.21h84.644c22.624 0 17.943-1.17 29.645-12.87 13.262-12.88 10.532-8.59 10.141-33.16 0-24.18 3.511-20.67-9.361-33.94-14.432-14.43-7.411-13.26-39.786-13.26-25.354 0-42.907 3.9-43.687-13.26-.39-12.87 6.631-14.82 17.942-14.82 22.234 0 44.468.39 66.311 0l.78-30.82h-100.636c-7.801 12.49-22.234 14.44-21.843 33.16z" fill="#fcfdfd"/><path d="m736.438 778.175 17.553.78v-113.118l47.588 113.118h7.411c11.312-13.652 37.836-102.586 47.588-110.778v110.778l17.553-.39v-141.593l-23.794-.39-44.467 112.338-45.638-112.338h-23.403z" fill="#fbed5d"/><path d="m728.637 989.589h17.553v-109.218c9.362 7.022 39.006 94.396 46.417 108.828l8.972.78 45.637-111.558c4.291 7.801.78 92.835 1.951 111.168h15.992c2.731-9.361 3.121-128.721.39-140.423-.78 0-1.56-1.17-1.95-.39 0 .39-2.34-.78-3.121-.78-24.183-3.9-19.503 3.121-40.566 55.779l-23.794 52.659c-1.95-3.121 0 .39-1.95-3.511-10.142-21.063-32.375-88.934-42.127-105.317h-22.624z" fill="#fbed5d"/><path d="m737.999 567.541 17.552.78.39-112.338c7.412 10.142 18.723 44.077 24.574 58.51l17.553 44.077c3.901 10.531 1.56 9.751 12.872 9.751 10.532-12.482 34.716-95.175 47.198-112.338l.39 112.338 17.553-.39v-141.592l-24.184-.391-44.077 111.168c-9.362-9.361-38.616-101.026-46.418-110.777l-23.013-.391z" fill="#fbed5d"/><path d="m1424.12 1149.9c2.73 9.76 2.73 42.13 0 51.49-5.07 10.53-24.19 7.41-28.09 5.85-9.75-3.9-6.63-19.5-6.63-30.42s-2.73-27.31 5.46-31.6c9.37-4.68 23.41-2.73 29.26 4.68zm-52.27-26.52c-3.12 2.34-10.14 10.53-14.04 14.04-7.02 6.63-7.02 7.41-7.02 21.07.39 50.31-8.58 40.17 17.16 65.92 7.02 7.41 9.75 5.46 21.84 5.46 12.88 0 44.47 3.12 53.44-1.95 2.34-1.56 11.7-11.31 14.04-13.26 10.54-10.15 6.63-21.85 6.63-49.15 0-24.58 2.35-19.12-17.16-38.23-7.41-7.02-10.14-5.46-21.84-5.46-8.19.39-48.76-1.17-53.05 1.56z" fill="#fcfdfd"/><path d="m907.286 1200.61c-1.17-3.51-.78-45.63 0-48.75 3.51-12.1 31.595-11.71 35.105-.39 1.171 3.9 1.171 44.85 0 48.75-3.51 12.09-32.375 11.31-35.105.39zm-3.121 29.26c60.07 0 47.588 5.85 69.822-14.82 6.631-6.25 7.801-7.03 7.411-19.9 0-56.95 6.631-42.9-16.383-66.7-7.411-7.8-5.851-6.63-20.283-6.63-55.779.78-46.028-7.02-68.261 14.43-5.851 5.46-8.191 6.63-8.191 18.34-.391 58.89-5.461 45.24 14.822 67.09 7.801 8.19 7.411 8.19 21.063 8.19z" fill="#fcfdfd"/><path d="m1142.49 1217 1.56 12.87h38.23v-107.66l-37.84-.39c-3.12 19.5 1.56 44.86-.78 63.97-.78 8.97-8.58 11.7-14.04 16.38-10.14 9.36-11.7 7.8-21.84 0l-.39-79.57-37.84-.78c-1.95 12.48-.78 34.33-.78 47.59 0 33.93-5.85 34.32 17.55 56.17 7.03 6.63 8.98 4.68 19.51 4.68 32.76-.39 17.55-2.73 36.66-13.26z" fill="#fcfdfd"/><path d="m1487.7 1229.09 38.23.78.39-67.87c4.68-4.29 15.6-14.05 18.33-15.61 31.59-20.67 20.67 49.93 21.45 83.48h38.62v-73.33c0-12.88-.39-12.49-7.41-18.73-13.27-12.87-7.8-15.99-33.16-15.99-33.54 0-17.94 4.68-37.44 12.87l-.78-12.48-37.84-.39z" fill="#fcfdfd"/><path d="m500.06 1211.53c3.901 24.58 26.915 47.2 57.73 42.52 24.183-3.9 45.637-26.91 41.736-56.56-8.581-64.75-109.607-51.49-99.466 14.04z" fill="#fcfdfd"/><path d="m1211.14 1121.04-9.36 1.95c0 31.6-1.95 19.11 7.8 24.18.39 17.56-2.73 59.29 4.3 66.32 19.11 21.06 19.89 16.38 55.38 16.38l.39-24.58c-24.18 0-21.45-.39-21.06-43.29v-16h16.77l-.39-23.79-16.38-.39-.39-30.42-24.57-.39z" fill="#fcfdfd"/><path d="m1005.19 1229.87h38.62v-152.13h-38.62z" fill="#fcfdfd"/><path d="m999.73 939.661h5.85c0 22.624-1.95 18.723-13.261 30.035-10.532 10.922-28.084 7.411-33.545 3.901-10.532-7.412-10.142-23.404-.39-30.815 7.021-5.071 30.815-3.121 41.346-3.121zm-52.268-37.446c42.517 1.17 58.118-4.291 58.118 23.794-42.906 0-49.927-6.241-68.65 17.553-3.51 4.68-3.12 10.921-2.73 18.723.39 9.361 1.56 8.971 7.021 14.432 12.482 12.092 7.411 13.262 30.815 13.262 31.204 0 15.602-3.51 33.544-13.652v12.872l17.55.39-.39-63.97c.39-12.092 2.34-14.823-5.07-21.844-20.28-20.283-13.26-15.212-70.598-14.822z" fill="#fbed5d"/><path d="m1330.89 931.47c-.78-23.794 1.56-29.255 26.14-29.255 14.82 0 23.79 1.95 24.96 15.993.39 3.51 0 10.141-.39 13.652zm-17.55-18.723v53.048c0 4.291 15.21 23.794 28.87 24.184 16.77.39 38.22.39 54.99-.39v-14.042c-58.12-.78-67.09 8.191-66.31-29.645l67.87-.39c1.17-39.006 2.73-33.155-13.26-50.318-8.97-9.362-12.09-6.631-28.47-6.631-12.87 0-20.68-2.341-28.48 5.071-4.29 4.29-15.21 13.262-15.21 19.113z" fill="#fbed5d"/><path d="m1293.84 721.226c-7.02-26.914 8.19-29.645 24.57-29.645 19.9-.39 30.43 5.851 24.97 29.645zm8.19 57.729h56.95v-14.432c-62.02 1.56-66.31 5.071-66.31-29.645h68.26c.39-8.581.39-17.163.39-25.744 0-12.872-.78-11.702-7.8-18.333-16.78-15.993-8.19-12.872-38.62-12.872-23.01 0-17.55-1.17-29.64 10.922-13.27 12.872-9.36 9.751-9.36 33.155 0 40.177-6.25 30.425 12.09 48.758 4.29 4.291 5.46 8.191 14.04 8.191z" fill="#fbed5d"/><path d="m1019.62 755.942c-7.02 5.07-6.63 9.361-19.89 9.751-30.815 0-34.325-1.17-34.325-30.815 0-19.503-5.461-42.907 19.503-43.687 39.392-.39 35.882 3.121 34.712 64.751zm-38.223 23.013c40.953 0 31.593 2.731 47.593-12.482 10.92-10.141 7.8-9.751 7.8-35.105 0-38.617 2.73-30.035-12.1-45.248-7.8-8.191-8.58-8.191-23.4-8.191-34.325.39-28.084-4.681-47.587 14.822-7.801 7.412-5.461 11.702-5.461 25.744.39 36.276-4.291 35.496 10.922 51.489 7.801 8.191 6.241 8.971 22.233 8.971z" fill="#fbed5d"/><path d="m1289.94 1121.82c-1.95 5.46-1.56 4.29-1.56 10.92v97.13l39-.39-.39-107.27z" fill="#fcfdfd"/><g fill="#fbed5d"><path d="m1110.9 778.955h16.77c.78-19.113-.78-38.226 0-56.949.39-10.142 5.46-13.262 10.53-18.723 4.68-5.071 7.8-11.312 17.17-12.092 39.78-2.73 28.86 18.333 30.03 86.984l17.16.78.39-71.771c-.39-10.142-1.56-10.922-7.02-16.383-14.82-14.432-7.8-12.482-35.1-12.872-8.58 0-14.05-1.17-19.9 4.291-4.68 4.29-7.41 9.361-12.87 12.482l-.39-16.383-16.77-.39z"/><path d="m1023.52 554.669.39 12.872 17.17.39v-99.856l-17.17-.78v56.949c0 13.262-1.17 11.702-9.75 20.284-6.63 6.241-6.63 10.141-17.94 10.531-38.616.78-26.134-17.163-27.695-87.374l-16.772-.39-.39 67.871c0 12.092-.39 12.092 5.851 18.333 11.702 11.702 8.971 14.822 31.205 14.822 35.881-.39 16.381-4.68 35.101-13.652z"/><path d="m1468.98 773.494-16.78 40.957 16.39.78c5.46-8.971 54.6-131.061 55.77-137.302l-17.16.39c-5.85 11.702-10.92 26.524-15.6 39.396-3.12 7.412-11.31 34.326-17.16 37.446-9.75-8.581-24.97-62.02-35.11-76.842l-16.77-.39 36.66 86.594c3.52 7.021 4.3 5.851 9.76 8.971z"/><path d="m1099.59 888.173-11.32 1.17v11.702l10.93 4.291c0 14.432-2.34 52.658 0 63.97.78 4.291 9.75 13.262 14.04 16.773 5.85 5.46 19.5 4.68 28.86 2.73l-.39-12.482c-27.3-3.901-27.3 6.631-25.74-73.722h19.89l1.56-13.652-21.06-.39-.39-24.574-12.09-1.17z"/><path d="m1208.8 887.003-9.75 3.12c-.39.39-1.17.39-1.56.78v8.972c.39.39 1.17 0 1.56.78l8.97 3.12c2.34 50.708-10.53 60.85 13.66 81.913 5.85 5.461 3.51 3.901 12.48 4.291 5.07 0 11.31 0 16.77-.39l-.39-14.042c-21.84-.39-25.74-1.95-25.35-24.184 0-14.042-1.56-36.276.39-48.758l20.67-.39v-13.262h-21.06l-.39-25.744h-10.93c-3.51 5.851-3.9 16.382-5.07 23.794z"/><path d="m1199.83 468.075.39 11.312c9.36 2.731 6.63-1.56 10.53 4.681 0 13.652-1.95 52.658.39 63.58.78 5.461 10.15 13.652 13.66 17.163 6.24 5.461 19.5 4.29 28.86 2.73v-12.872c-10.14-1.17-14.04 1.56-20.67-3.9-5.07-4.291-5.46-10.532-5.07-19.114 0-15.992-1.17-34.715 0-50.318l21.06-.78v-13.262l-21.06-.39v-25.354h-12.09c-1.95 5.461-2.34 12.482-3.12 17.553-1.96 12.092-1.18 6.631-12.88 8.971z"/><path d="m1117.14 567.931h17.16v-141.202c-22.23-4.291-17.16 1.56-17.16 20.673z"/><path d="m1472.88 989.199 16.38.78c3.9-53.828-11.31-55.389 14.82-80.353 7.02-6.631 19.5-3.9 28.87-3.9v-16.773c-8.59 0-21.46-1.95-27.7 1.56-5.07 3.121-8.58 11.312-15.6 14.432v-15.992h-16.77z"/><path d="m1318.8 567.931 16.38.39.39-101.026-16.77.39z"/></g><path d="m1326.21 1080.86-35.88.39-.39 27.31 36.27.39z" fill="#fcfdfd"/><path d="m1318.8 455.983 16.77.39v-22.623h-16.77z" fill="#fbed5d"/><path d="m1326.21 1080.86v28.09l-36.27-.39.39-27.31c-3.9 2.34-1.95.39-2.73 5.46l.78 23.02c8.19 2.73 29.64 1.95 38.61.39 1.17-5.85.78-8.19.78-14.04.39-6.63 1.17-10.15-1.56-15.22z" fill="#93cfab"/></g></svg>