<svg clip-rule="evenodd" fill-rule="evenodd" height="77.6111mm" image-rendering="optimizeQuality" shape-rendering="geometricPrecision" text-rendering="geometricPrecision" viewBox="0 0 4307 4307" width="77.6111mm" xmlns="http://www.w3.org/2000/svg"><path d="m0 0h4307v4307h-4307z" fill="none"/><path d="m293 2923 155 22c61-484 495-841 982-828 39 1 83 8 118 8 9-19 23-129 24-157-92-4-170-15-268-7-437 37-805 325-957 733-17 48-57 178-54 229z" fill="#fcfdfd"/><path d="m607 2965c1 1 3 0 3 2l32 7c34 4 90 15 121 15 42-265 226-455 452-526 61-19 148-30 215-28 21 1 56 7 72 5l24-157c-275-24-445 27-625 167-70 54-143 134-189 215-46 80-101 194-105 300z" fill="#fcfdfd"/><path d="m629 1563 108 2 1-238c10 8 3 0 11 12l86 205 55 1 92-224 3 242 108 2 1-458c-34-2-83-6-115 2-31 59-94 239-117 269l-119-272h-114z" fill="#fcfdfd"/><path d="m1185 1471-1 94c43 0 295 7 315-7 10-8 29-30 39-40 33-34 22-48 22-137 0-36-6-36-24-53-58-57-28-47-195-45-96 1-57-72-43-80 18-10 208-4 237-4v-94c-43 0-289-8-308 8-10 9-28 29-39 40-24 24-23 14-22 59 1 103-12 82 33 128 56 57 47 35 199 36 30 1 44 8 47 34 10 75-40 61-99 61-54 0-108 0-161 0z" fill="#fcfdfd"/><path d="m194 1164v82h117c0-37-5-26 15-50 29-4 98-13 110 14 6 15 6 46-2 59-13 24-114 15-144 15l-1 87c106 1 149-21 150 43 1 19 3 38-7 50-14 19-76 14-106 11-18-21-15-13-15-50l-117-2c0 85-10 73 27 106 16 15 28 35 58 36 58 2 125 1 184 0 35 0 36-14 56-33 21-21 36-26 37-56 1-20 2-76-1-94-2-17-28-41-43-49 11-33 44-38 44-59 0-121 11-88-53-154-16-16-15-15-45-15l-192 1c-16 3-54 45-72 58z" fill="#fcfdfd"/><path d="m920 3012 156 27c26-105 51-155 119-211 78-63 147-78 261-72l23-158c-151-24-290 27-381 101-73 60-172 178-178 313z" fill="#fcfdfd"/><path d="m1842 2848c0 53-9 79 13 101 14 14 34 41 54 44 53 7 170-26 170 33 0 60-28 47-85 47-45 0-90 0-136 0l-1 80h217c58 0 46-3 76-33 34-33 27-22 26-85 0-62 9-53-24-87-37-37-19-34-102-34-65 0-110 10-112-34-1-33 17-38 46-38 57 0 114 1 170 0l2-79h-258c-20 32-57 37-56 85z" fill="#fcfdfd"/><path d="m1888 1995 45 2v-290l122 290h19c29-35 97-263 122-284v284l45-1v-363l-61-1-114 288-117-288h-60z" fill="#fbed5d"/><path d="m1868 2537h45v-280c24 18 100 242 119 279l23 2 117-286c11 20 2 238 5 285h41c7-24 8-330 1-360-2 0-4-3-5-1 0 1-6-2-8-2-62-10-50 8-104 143l-61 135c-5-8 0 1-5-9-26-54-83-228-108-270h-58z" fill="#fbed5d"/><path d="m1892 1455 45 2 1-288c19 26 48 113 63 150l45 113c10 27 4 25 33 25 27-32 89-244 121-288l1 288 45-1v-363l-62-1-113 285c-24-24-99-259-119-284l-59-1z" fill="#fbed5d"/><path d="m3651 2948c7 25 7 108 0 132-13 27-62 19-72 15-25-10-17-50-17-78s-7-70 14-81c24-12 60-7 75 12zm-134-68c-8 6-26 27-36 36-18 17-18 19-18 54 1 129-22 103 44 169 18 19 25 14 56 14 33 0 114 8 137-5 6-4 30-29 36-34 27-26 17-56 17-126 0-63 6-49-44-98-19-18-26-14-56-14-21 1-125-3-136 4z" fill="#fcfdfd"/><path d="m2326 3078c-3-9-2-117 0-125 9-31 81-30 90-1 3 10 3 115 0 125-9 31-83 29-90 1zm-8 75c154 0 122 15 179-38 17-16 20-18 19-51 0-146 17-110-42-171-19-20-15-17-52-17-143 2-118-18-175 37-15 14-21 17-21 47-1 151-14 116 38 172 20 21 19 21 54 21z" fill="#fcfdfd"/><path d="m2929 3120 4 33h98v-276l-97-1c-8 50 4 115-2 164-2 23-22 30-36 42-26 24-30 20-56 0l-1-204-97-2c-5 32-2 88-2 122 0 87-15 88 45 144 18 17 23 12 50 12 84-1 45-7 94-34z" fill="#fcfdfd"/><path d="m3814 3151 98 2 1-174c12-11 40-36 47-40 81-53 53 128 55 214h99v-188c0-33-1-32-19-48-34-33-20-41-85-41-86 0-46 12-96 33l-2-32-97-1z" fill="#fcfdfd"/><path d="m1282 3106c10 63 69 121 148 109 62-10 117-69 107-145-22-166-281-132-255 36z" fill="#fcfdfd"/><path d="m3105 2874-24 5c0 81-5 49 20 62 1 45-7 152 11 170 49 54 51 42 142 42l1-63c-62 0-55-1-54-111v-41h43l-1-61-42-1-1-78-63-1z" fill="#fcfdfd"/><path d="m2577 3153h99v-390h-99z" fill="#fcfdfd"/><path d="m2563 2409h15c0 58-5 48-34 77-27 28-72 19-86 10-27-19-26-60-1-79 18-13 79-8 106-8zm-134-96c109 3 149-11 149 61-110 0-128-16-176 45-9 12-8 28-7 48 1 24 4 23 18 37 32 31 19 34 79 34 80 0 40-9 86-35v33l45 1-1-164c1-31 6-38-13-56-52-52-34-39-181-38z" fill="#fbed5d"/><path d="m3412 2388c-2-61 4-75 67-75 38 0 61 5 64 41 1 9 0 26-1 35zm-45-48v136c0 11 39 61 74 62 43 1 98 1 141-1v-36c-149-2-172 21-170-76l174-1c3-100 7-85-34-129-23-24-31-17-73-17-33 0-53-6-73 13-11 11-39 34-39 49z" fill="#fbed5d"/><path d="m3317 1849c-18-69 21-76 63-76 51-1 78 15 64 76zm21 148h146v-37c-159 4-170 13-170-76h175c1-22 1-44 1-66 0-33-2-30-20-47-43-41-21-33-99-33-59 0-45-3-76 28-34 33-24 25-24 85 0 103-16 78 31 125 11 11 14 21 36 21z" fill="#fbed5d"/><path d="m2614 1938c-18 13-17 24-51 25-79 0-88-3-88-79 0-50-14-110 50-112 101-1 92 8 89 166zm-98 59c105 0 81 7 122-32 28-26 20-25 20-90 0-99 7-77-31-116-20-21-22-21-60-21-88 1-72-12-122 38-20 19-14 30-14 66 1 93-11 91 28 132 20 21 16 23 57 23z" fill="#fbed5d"/><path d="m3307 2876c-5 14-4 11-4 28v249l100-1-1-275z" fill="#fcfdfd"/><g fill="#fbed5d"><path d="m2848 1997h43c2-49-2-98 0-146 1-26 14-34 27-48 12-13 20-29 44-31 102-7 74 47 77 223l44 2 1-184c-1-26-4-28-18-42-38-37-20-32-90-33-22 0-36-3-51 11-12 11-19 24-33 32l-1-42-43-1z"/><path d="m2624 1422 1 33 44 1v-256l-44-2v146c0 34-3 30-25 52-17 16-17 26-46 27-99 2-67-44-71-224l-43-1-1 174c0 31-1 31 15 47 30 30 23 38 80 38 92-1 42-12 90-35z"/><path d="m3766 1983-43 105 42 2c14-23 140-336 143-352l-44 1c-15 30-28 68-40 101-8 19-29 88-44 96-25-22-64-159-90-197l-43-1 94 222c9 18 11 15 25 23z"/><path d="m2819 2277-29 3v30l28 11c0 37-6 135 0 164 2 11 25 34 36 43 15 14 50 12 74 7l-1-32c-70-10-70 17-66-189h51l4-35-54-1-1-63-31-3z"/><path d="m3099 2274-25 8c-1 1-3 1-4 2v23c1 1 3 0 4 2l23 8c6 130-27 156 35 210 15 14 9 10 32 11 13 0 29 0 43-1l-1-36c-56-1-66-5-65-62 0-36-4-93 1-125l53-1v-34h-54l-1-66h-28c-9 15-10 42-13 61z"/><path d="m3076 1200 1 29c24 7 17-4 27 12 0 35-5 135 1 163 2 14 26 35 35 44 16 14 50 11 74 7v-33c-26-3-36 4-53-10-13-11-14-27-13-49 0-41-3-89 0-129l54-2v-34l-54-1v-65h-31c-5 14-6 32-8 45-5 31-3 17-33 23z"/><path d="m2864 1456h44v-362c-57-11-44 4-44 53z"/><path d="m3776 2536 42 2c10-138-29-142 38-206 18-17 50-10 74-10v-43c-22 0-55-5-71 4-13 8-22 29-40 37v-41h-43z"/><path d="m3381 1456 42 1 1-259-43 1z"/></g><path d="m3400 2771-92 1-1 70 93 1z" fill="#fcfdfd"/><path d="m3381 1169 43 1v-58h-43z" fill="#fbed5d"/><path d="m3400 2771v72l-93-1 1-70c-10 6-5 1-7 14l2 59c21 7 76 5 99 1 3-15 2-21 2-36 1-17 3-26-4-39z" fill="#93cfab"/></svg>