<svg width="324" height="181" viewBox="0 0 324 181" fill="none" xmlns="http://www.w3.org/2000/svg">
<g clip-path="url(#clip0_571_3439)">
<path d="M259.857 57.8017C237.896 -9.90191 119.91 -12.8451 110.849 63.1172C110.849 63.1172 103.853 64.5069 97.6825 63.5591C64.0396 58.3959 5.17093 123.019 50.3518 172.399H302.661C329.96 125.24 310.351 76.9854 259.857 57.8017Z" fill="#F6F5F5"/>
<path d="M199.228 100.196L198.795 99.7716C226.955 70.7309 228.074 54.8484 229.768 30.8043C230.367 22.2921 231.046 12.6597 232.997 1.03613C219.654 7.25437 208.849 15.8666 200.856 26.6395C194.38 35.372 189.732 45.5391 187.029 56.8569C182.428 76.1434 185.15 92.3027 185.173 92.4636L184.575 92.5694C184.548 92.4071 181.81 76.1434 186.432 56.7366C189.148 45.3348 193.835 35.0894 200.361 26.2873C208.519 15.2855 219.592 6.52111 233.268 0.240557L233.79 0L233.693 0.568059C231.67 12.4191 230.983 22.2095 230.37 30.855C228.671 55.0237 227.546 70.9961 199.228 100.196Z" fill="#DADADA"/>
<path d="M193.92 93.9575L193.332 93.8126C193.443 93.3779 204.659 49.9531 218.769 25.8481L219.293 26.1568C205.225 50.182 194.031 93.5228 193.92 93.9575Z" fill="#DADADA"/>
<path d="M209.472 46.2492L208.865 46.2275C208.865 46.1405 209.122 37.424 204.583 29.0349L205.116 28.7451C209.737 37.2849 209.476 46.1608 209.472 46.2492Z" fill="#DADADA"/>
<path d="M202.999 63.9053L202.566 63.4706C209.019 57.0422 217.447 55.0569 217.535 55.0366L217.669 55.6308C217.593 55.6525 209.326 57.6016 202.999 63.9053Z" fill="#DADADA"/>
<path d="M220.651 118.804L220.591 118.199C231.571 117.108 240.479 109.726 247.823 95.6328C254.325 83.147 258.796 67.1949 263.119 51.7674C265.92 41.7684 268.57 32.3055 271.663 24.1136C240.062 32.0345 226.962 57.1626 226.833 57.4162L226.292 57.1408C226.423 56.8814 239.793 31.2143 272.082 23.376L272.644 23.2397L272.438 23.7803C269.259 32.0708 266.563 41.7148 263.703 51.9254C259.368 67.3819 254.889 83.3716 248.361 95.9081C240.914 110.205 231.851 117.692 220.651 118.804Z" fill="#DADADA"/>
<path d="M217.96 103.845L217.406 103.599C217.59 103.181 236.044 61.7187 251.556 49.6604L251.928 50.143C245.571 55.0845 237.685 65.9385 229.12 81.511C222.639 93.2997 218.006 103.742 217.96 103.845Z" fill="#DADADA"/>
<path d="M238.36 65.8154L237.762 65.7024C237.77 65.6574 238.628 60.9622 239.39 49.6169L239.995 49.6575C239.229 61.0463 238.368 65.769 238.36 65.8154Z" fill="#DADADA"/>
<path d="M228.009 83.476L227.664 82.9746C227.748 82.9166 236.188 77.1476 247.252 74.616L247.387 75.2101C236.428 77.7157 228.092 83.418 228.009 83.476Z" fill="#DADADA"/>
<path d="M80.9721 158.606C53.6992 130.485 52.6156 115.102 50.9757 91.8187C50.3892 83.5006 49.7246 74.0725 47.7799 62.6606L47.6831 62.0925L48.2047 62.3331C78.0392 76.0347 89.2029 99.486 93.3133 116.745C97.7647 135.439 95.1279 151.1 95.1019 151.256L94.5038 151.151C94.5298 150.996 97.1463 135.436 92.7181 116.866C88.6597 99.8469 77.6838 76.7563 48.4748 63.1287C50.353 74.3131 51.0032 83.5818 51.5811 91.7752C53.2122 114.927 54.2901 130.219 81.407 158.183L80.9721 158.606Z" fill="#DADADA"/>
<path d="M86.0809 152.593C85.974 152.174 75.1946 110.437 61.6484 87.2974L62.1714 86.9888C75.7609 110.204 86.5621 152.02 86.669 152.44L86.0809 152.593Z" fill="#DADADA"/>
<path d="M71.1044 106.646C71.1044 106.561 70.8487 98.0109 75.2942 89.7842L75.8288 90.074C71.4584 98.15 71.7025 106.541 71.7054 106.625L71.1044 106.646Z" fill="#DADADA"/>
<path d="M77.3443 123.656C71.2545 117.592 63.2967 115.714 63.2173 115.695L63.3516 115.102C63.434 115.119 71.5565 117.032 77.7734 123.217L77.3443 123.656Z" fill="#DADADA"/>
<path d="M62.2262 169.285C38.7964 167.1 29.4169 141.047 21.1398 118.061C18.3427 110.291 15.7003 102.952 12.6359 96.637L12.3657 96.0791L12.9711 96.2052C28.7985 99.5092 39.708 106.435 46.0737 111.663C52.9797 117.335 56.1871 122.303 56.2174 122.352L55.706 122.679C55.5817 122.485 43.0541 103.331 13.4507 96.9297C16.4154 103.145 18.9914 110.297 21.7119 117.854C29.9255 140.669 39.2356 166.529 62.2826 168.679L62.2262 169.285Z" fill="#DADADA"/>
<path d="M64.561 157.968C64.3848 157.65 46.6863 126.126 32.1562 116.879L32.4813 116.364C47.14 125.694 64.9135 157.352 65.0912 157.665L64.561 157.968Z" fill="#DADADA"/>
<path d="M45.0133 128.876C45.0046 128.841 44.1464 125.244 43.2795 116.597L43.8834 116.537C44.733 125.131 45.5883 128.696 45.597 128.731L45.0133 128.876Z" fill="#DADADA"/>
<path d="M54.9317 142.428C54.8537 142.384 46.9855 137.959 36.6973 135.928L36.8157 135.331C47.1964 137.381 55.1528 141.852 55.2308 141.898L54.9317 142.428Z" fill="#DADADA"/>
<path d="M280.066 171.985L279.921 171.394C305.719 165.074 310.584 137.28 315.288 110.4C316.939 100.964 318.646 91.2144 321.255 82.7761C295.574 87.7032 281.028 105.496 273.332 119.596C264.929 134.996 262.652 149.448 262.63 149.593L262.031 149.502C262.053 149.357 264.343 134.812 272.792 119.32C280.593 105.007 295.411 86.9293 321.641 82.0776L322.138 81.9863L321.985 82.4689C319.302 90.9797 317.565 100.902 315.886 110.498C311.149 137.578 306.25 165.571 280.066 171.985Z" fill="#DADADA"/>
<path d="M277.858 156.747L277.28 156.585C277.374 156.244 286.885 122.325 302.356 108.929L302.752 109.391C287.414 122.668 277.952 156.408 277.858 156.747Z" fill="#DADADA"/>
<path d="M288.791 128.307L288.196 128.183C288.21 128.115 289.6 121.203 289.112 111.056L289.718 111.027C290.21 121.257 288.805 128.237 288.791 128.307Z" fill="#DADADA"/>
<path d="M280.611 143.07L280.238 142.589C280.322 142.524 288.811 135.949 300.54 131.771L300.744 132.351C289.106 136.491 280.694 143.005 280.611 143.07Z" fill="#DADADA"/>
<path d="M220.544 47.449C220.154 47.4493 219.772 47.3335 219.447 47.1161C219.123 46.8988 218.87 46.5897 218.72 46.228C218.57 45.8664 218.531 45.4683 218.607 45.0842C218.683 44.7001 218.871 44.3473 219.147 44.0703C219.423 43.7933 219.774 43.6046 220.157 43.5281C220.54 43.4516 220.937 43.4908 221.298 43.6405C221.658 43.7903 221.967 44.044 222.184 44.3696C222.401 44.6952 222.516 45.0779 222.516 45.4695C222.516 45.994 222.308 46.4969 221.938 46.8679C221.568 47.2389 221.067 47.4479 220.544 47.449ZM220.544 44.0986C220.274 44.0983 220.01 44.1785 219.785 44.329C219.56 44.4794 219.384 44.6934 219.281 44.9439C219.177 45.1944 219.15 45.47 219.202 45.7361C219.255 46.0021 219.385 46.2465 219.576 46.4384C219.767 46.6302 220.011 46.7609 220.276 46.8139C220.541 46.867 220.816 46.8399 221.066 46.7362C221.315 46.6325 221.529 46.4568 221.679 46.2313C221.829 46.0058 221.91 45.7407 221.91 45.4695C221.909 45.1063 221.765 44.758 221.509 44.5011C221.253 44.2441 220.906 44.0994 220.544 44.0986Z" fill="#DADADA"/>
<path d="M56.9182 78.0518C56.5278 78.0518 56.1463 77.9357 55.8217 77.7182C55.4972 77.5007 55.2442 77.1915 55.0948 76.8298C54.9454 76.4681 54.9064 76.0701 54.9825 75.6861C55.0587 75.3021 55.2466 74.9494 55.5226 74.6726C55.7986 74.3957 56.1503 74.2072 56.5331 74.1308C56.916 74.0544 57.3128 74.0936 57.6734 74.2435C58.034 74.3933 58.3422 74.647 58.5591 74.9725C58.7759 75.2981 58.8917 75.6808 58.8917 76.0723C58.8909 76.5971 58.6828 77.1001 58.3128 77.4712C57.9429 77.8422 57.4413 78.051 56.9182 78.0518ZM56.9182 74.7014C56.6478 74.7014 56.3836 74.7818 56.1588 74.9324C55.9341 75.0831 55.7589 75.2972 55.6554 75.5477C55.552 75.7982 55.5249 76.0738 55.5777 76.3397C55.6304 76.6057 55.7605 76.8499 55.9517 77.0417C56.1428 77.2334 56.3864 77.3639 56.6515 77.4168C56.9166 77.4697 57.1914 77.4426 57.4412 77.3388C57.6909 77.2351 57.9044 77.0594 58.0545 76.8339C58.2047 76.6085 58.2849 76.3434 58.2849 76.0723C58.2845 75.7088 58.1404 75.3604 57.8842 75.1034C57.6279 74.8463 57.2805 74.7018 56.9182 74.7014Z" fill="#DADADA"/>
<path d="M239.972 122.155C239.582 122.155 239.2 122.039 238.876 121.821C238.551 121.604 238.298 121.295 238.149 120.933C237.999 120.571 237.96 120.173 238.036 119.789C238.113 119.405 238.301 119.052 238.577 118.776C238.853 118.499 239.204 118.31 239.587 118.234C239.97 118.157 240.367 118.197 240.727 118.346C241.088 118.496 241.396 118.75 241.613 119.076C241.83 119.401 241.946 119.784 241.946 120.175C241.945 120.7 241.737 121.203 241.367 121.575C240.997 121.946 240.495 122.154 239.972 122.155ZM239.972 118.806C239.702 118.806 239.437 118.886 239.213 119.037C238.988 119.188 238.813 119.402 238.709 119.652C238.606 119.903 238.579 120.179 238.632 120.445C238.685 120.711 238.815 120.955 239.006 121.147C239.197 121.338 239.441 121.469 239.706 121.521C239.972 121.574 240.246 121.547 240.496 121.443C240.746 121.339 240.959 121.163 241.109 120.937C241.259 120.712 241.339 120.447 241.339 120.175C241.338 119.812 241.194 119.464 240.938 119.207C240.682 118.95 240.334 118.806 239.972 118.806Z" fill="#DADADA"/>
<path d="M307.114 101.043C306.723 101.043 306.341 100.927 306.017 100.71C305.692 100.492 305.439 100.183 305.289 99.8215C305.14 99.4599 305.1 99.0618 305.176 98.6777C305.252 98.2936 305.44 97.9408 305.716 97.6638C305.992 97.3868 306.344 97.1981 306.727 97.1216C307.109 97.0451 307.506 97.0843 307.867 97.234C308.228 97.3838 308.536 97.6375 308.753 97.9631C308.97 98.2887 309.086 98.6714 309.086 99.063C309.085 99.5875 308.877 100.09 308.507 100.461C308.138 100.832 307.636 101.041 307.114 101.043ZM307.114 97.6921C306.843 97.6918 306.579 97.772 306.354 97.9224C306.129 98.0729 305.953 98.2869 305.85 98.5374C305.746 98.7879 305.719 99.0636 305.771 99.3296C305.824 99.5956 305.954 99.84 306.145 100.032C306.336 100.224 306.58 100.354 306.845 100.407C307.11 100.46 307.385 100.433 307.635 100.33C307.885 100.226 308.098 100.05 308.248 99.8248C308.399 99.5993 308.479 99.3342 308.479 99.063C308.478 98.6998 308.335 98.3516 308.079 98.0946C307.823 97.8376 307.476 97.6929 307.114 97.6921Z" fill="#DADADA"/>
<path d="M233.446 95.4097C234.201 95.4097 234.813 94.796 234.813 94.0389C234.813 93.2817 234.201 92.668 233.446 92.668C232.691 92.668 232.079 93.2817 232.079 94.0389C232.079 94.796 232.691 95.4097 233.446 95.4097Z" fill="#DADADA"/>
<path d="M296.337 145.857C297.092 145.857 297.704 145.243 297.704 144.486C297.704 143.729 297.092 143.115 296.337 143.115C295.582 143.115 294.97 143.729 294.97 144.486C294.97 145.243 295.582 145.857 296.337 145.857Z" fill="#DADADA"/>
<path d="M197.158 54.9088C197.159 54.1517 196.548 53.5371 195.793 53.536C195.038 53.535 194.425 54.1479 194.424 54.905C194.423 55.6621 195.034 56.2767 195.789 56.2778C196.544 56.2789 197.157 55.6659 197.158 54.9088Z" fill="#DADADA"/>
<path d="M44.9786 150.323C45.7334 150.323 46.3453 149.71 46.3453 148.952C46.3453 148.195 45.7334 147.582 44.9786 147.582C44.2237 147.582 43.6118 148.195 43.6118 148.952C43.6118 149.71 44.2237 150.323 44.9786 150.323Z" fill="#DADADA"/>
<path d="M83.8805 55.7179C83.7019 55.7179 83.5243 55.692 83.3531 55.6411L79.5765 54.5093C79.3452 54.4401 79.1298 54.3258 78.9426 54.173C78.7554 54.0203 78.6 53.8319 78.4855 53.6189C78.3709 53.4058 78.2993 53.1722 78.2748 52.9314C78.2503 52.6905 78.2733 52.4472 78.3426 52.2153L79.6299 47.9288C78.0345 47.0801 76.5662 46.0102 75.2682 44.7508L71.5869 47.2434C71.1826 47.5171 70.6866 47.619 70.2075 47.5266C69.7285 47.4343 69.3054 47.1552 69.0311 46.7507L66.822 43.4872C66.6864 43.2869 66.5916 43.0617 66.5431 42.8246C66.4945 42.5874 66.4931 42.343 66.539 42.1053C66.585 41.8676 66.6772 41.6414 66.8106 41.4396C66.944 41.2378 67.1158 41.0645 67.3162 40.9295L70.9541 38.4659C70.1814 36.6393 69.6965 34.7034 69.5165 32.7274L65.1996 32.2318C64.9597 32.2044 64.7276 32.1299 64.5165 32.0125C64.3054 31.8952 64.1194 31.7372 63.9691 31.5478C63.8188 31.3583 63.7073 31.141 63.6407 30.9083C63.5742 30.6755 63.5541 30.4319 63.5814 30.1914L64.0322 26.2787C64.0597 26.0372 64.1343 25.8036 64.2518 25.5911C64.3694 25.3786 64.5276 25.1914 64.7173 25.0403C64.907 24.8891 65.1246 24.777 65.3576 24.7102C65.5906 24.6435 65.8344 24.6235 66.0751 24.6513L70.3357 25.1411C70.9072 23.3476 71.7392 21.6483 72.8048 20.0981L69.8618 17.0376C69.694 16.8632 69.5621 16.6572 69.4738 16.4315C69.3856 16.2058 69.3426 15.9649 69.3474 15.7225C69.3522 15.4801 69.4048 15.2411 69.502 15.0191C69.5992 14.7972 69.7392 14.5967 69.9139 14.4291L72.7572 11.6975C73.1093 11.3594 73.5805 11.1749 74.0679 11.1844C74.5553 11.1939 75.019 11.3966 75.3577 11.7482L78.2733 14.7813C79.9234 13.7199 81.7263 12.9193 83.6189 12.4076L83.3473 8.22682C83.3169 7.73885 83.4806 7.25867 83.8026 6.89164C84.1247 6.52461 84.5787 6.3007 85.0652 6.26904L88.9978 6.01254C89.2389 5.99562 89.481 6.02668 89.7101 6.10394C89.9392 6.18121 90.1508 6.30314 90.3328 6.46274C90.5147 6.62234 90.6634 6.81644 90.7703 7.03389C90.8771 7.25133 90.9401 7.48783 90.9555 7.72977L91.2271 11.912C93.1749 12.1718 95.0711 12.7314 96.8487 13.5712L99.3482 10.1846C99.6389 9.79206 100.073 9.53077 100.555 9.45774C101.037 9.38471 101.528 9.50588 101.921 9.79479L105.1 12.1351C105.294 12.2787 105.458 12.4592 105.583 12.6664C105.708 12.8736 105.79 13.1034 105.826 13.3426C105.863 13.5819 105.851 13.826 105.793 14.0609C105.735 14.2958 105.632 14.517 105.488 14.7117L102.966 18.1288C104.222 19.5274 105.267 21.1041 106.065 22.808L110.227 21.7675C110.7 21.6518 111.199 21.7282 111.616 21.9801C112.033 22.232 112.333 22.639 112.452 23.1123L113.406 26.9366C113.464 27.1716 113.476 27.4158 113.44 27.6553C113.405 27.8948 113.322 28.1249 113.198 28.3323C113.073 28.5398 112.909 28.7205 112.714 28.8642C112.52 29.0079 112.299 29.1117 112.065 29.1697L107.849 30.2233C107.927 32.2062 107.697 34.1892 107.166 36.101L111.091 38.0689C111.307 38.1768 111.5 38.3265 111.658 38.5093C111.817 38.692 111.937 38.9044 112.013 39.1341C112.09 39.3637 112.12 39.6063 112.103 39.8477C112.085 40.0892 112.02 40.3248 111.912 40.5411L110.141 44.0625C109.92 44.499 109.537 44.8302 109.074 44.9839C108.611 45.1376 108.106 45.1012 107.67 44.8827L103.695 42.8902C102.572 44.3087 101.255 45.5606 99.7816 46.6086L101.616 50.6923C101.715 50.9132 101.77 51.1515 101.777 51.3935C101.784 51.6356 101.743 51.8766 101.657 52.1028C101.571 52.329 101.441 52.536 101.275 52.7117C101.109 52.8874 100.91 53.0285 100.689 53.1269L97.0929 54.7397C96.6476 54.9388 96.1419 54.9532 95.6861 54.7797C95.2303 54.6062 94.8614 54.259 94.6599 53.8137L92.8207 49.7098C90.8931 50.1376 88.9115 50.2671 86.9448 50.0938L85.6445 54.4006C85.5306 54.7812 85.2975 55.1148 84.9798 55.352C84.662 55.5893 84.2766 55.7176 83.8805 55.7179ZM75.3404 43.9669L75.5181 44.1437C76.875 45.4948 78.4309 46.6287 80.1313 47.5057L80.3567 47.6216L78.9234 52.3849C78.877 52.5402 78.8617 52.7031 78.8782 52.8644C78.8947 53.0256 78.9429 53.182 79.0198 53.3246C79.0967 53.4672 79.2009 53.5931 79.3264 53.6952C79.4519 53.7973 79.5963 53.8735 79.7513 53.9195L83.5265 55.0513C83.8397 55.1456 84.1775 55.1114 84.4656 54.9563C84.7538 54.8012 84.9689 54.5378 85.0637 54.2238L86.4998 49.4417L86.7483 49.4663C87.7795 49.5702 88.8175 49.5886 89.8517 49.5214C90.885 49.4547 91.911 49.3015 92.9189 49.0635L93.1631 49.007L95.2074 53.5659C95.3421 53.8645 95.5892 54.0973 95.8946 54.2135C96.2 54.3298 96.5389 54.3199 96.8371 54.1862L100.435 52.5733C100.582 52.5074 100.715 52.413 100.826 52.2954C100.938 52.1778 101.024 52.0394 101.082 51.8881C101.14 51.7368 101.167 51.5756 101.163 51.4137C101.158 51.2517 101.122 51.0923 101.056 50.9445L99.0159 46.3985L99.2239 46.2536C100.798 45.164 102.194 43.8374 103.365 42.3206L103.516 42.1221L107.936 44.3378C108.228 44.4847 108.567 44.5094 108.878 44.4064C109.188 44.3035 109.445 44.0814 109.593 43.7886L111.36 40.2643C111.432 40.1196 111.475 39.962 111.487 39.8006C111.498 39.6392 111.478 39.477 111.427 39.3235C111.376 39.1699 111.295 39.0279 111.19 38.9057C111.084 38.7834 110.955 38.6832 110.811 38.6109L106.432 36.4154L106.503 36.1705C107.09 34.1695 107.334 32.0831 107.225 30.0001L107.212 29.7494L111.913 28.5756C112.23 28.4968 112.502 28.2952 112.671 28.0151C112.839 27.7349 112.89 27.3992 112.812 27.0815L111.858 23.2573C111.778 22.9393 111.576 22.6662 111.295 22.4978C111.015 22.3293 110.679 22.2794 110.362 22.3588L105.711 23.5181L105.607 23.2877C104.788 21.4787 103.684 19.8133 102.339 18.3548L102.168 18.1708L104.989 14.3494C105.085 14.2193 105.154 14.0714 105.193 13.9143C105.232 13.7571 105.24 13.5938 105.216 13.4337C105.192 13.2736 105.136 13.1198 105.052 12.9813C104.969 12.8427 104.859 12.7221 104.729 12.6264L101.55 10.286C101.286 10.092 100.957 10.0105 100.634 10.0594C100.311 10.1083 100.02 10.2836 99.825 10.5469L97.025 14.3393L96.7981 14.2291C94.9439 13.3233 92.9514 12.7355 90.9035 12.4902L90.6536 12.4597L90.3472 7.7718C90.325 7.44527 90.1746 7.14091 89.9289 6.92549C89.6833 6.71006 89.3624 6.60115 89.0368 6.62263L85.1085 6.88202C84.7832 6.90219 84.479 7.05067 84.2624 7.29504C84.0459 7.53941 83.9345 7.8598 83.9527 8.18625L84.2576 12.8699L84.0134 12.9322C82.0147 13.4457 80.1157 14.2906 78.3947 15.4319L78.1837 15.5768L74.9185 12.1801C74.691 11.9444 74.3798 11.8087 74.0528 11.8024C73.7258 11.7962 73.4096 11.92 73.1732 12.1467L70.3314 14.8798C70.2152 14.9916 70.122 15.1254 70.0574 15.2733C69.9927 15.4213 69.9578 15.5806 69.9546 15.7421C69.9513 15.9036 69.9799 16.0642 70.0386 16.2146C70.0973 16.365 70.185 16.5024 70.2967 16.6188L73.5879 20.0373L73.4434 20.2431C72.2983 21.8648 71.4203 23.6604 70.8428 25.5614L70.7692 25.8034L66.0014 25.2556C65.8405 25.2364 65.6775 25.2493 65.5216 25.2936C65.3657 25.3378 65.2201 25.4125 65.0931 25.5134C64.9661 25.6142 64.8602 25.7393 64.7815 25.8813C64.7029 26.0233 64.6529 26.1796 64.6347 26.341L64.1824 30.2537C64.1459 30.579 64.2397 30.9056 64.4432 31.1616C64.6466 31.4176 64.9431 31.582 65.2675 31.6188L70.08 32.1723L70.0988 32.4216C70.2612 34.5009 70.7716 36.5379 71.6086 38.4471L71.7111 38.6804L67.6542 41.4265C67.5202 41.5169 67.4053 41.6329 67.3161 41.7679C67.2269 41.903 67.1652 42.0543 67.1344 42.2133C67.1037 42.3723 67.1046 42.5359 67.137 42.6945C67.1694 42.8532 67.2327 43.0039 67.3234 43.138L69.531 46.4014C69.715 46.6725 69.9986 46.8595 70.3197 46.9214C70.6409 46.9833 70.9733 46.9151 71.2445 46.7318L75.3404 43.9669ZM88.6453 42.154C86.8661 42.1487 85.1147 41.711 83.541 40.8785C81.9672 40.0459 80.618 38.8433 79.6089 37.3736C78.5997 35.9038 77.9606 34.2107 77.7463 32.4391C77.532 30.6675 77.7489 28.8702 78.3784 27.2011C79.0078 25.5319 80.0311 24.0405 81.3607 22.8547C82.6903 21.6688 84.2866 20.8238 86.0129 20.3918C87.7392 19.9599 89.5441 19.9539 91.2732 20.3745C93.0023 20.795 94.6041 21.6295 95.9414 22.8066C97.5797 24.2486 98.7544 26.146 99.3167 28.2582C99.8791 30.3705 99.8037 32.6026 99.1002 34.6719C98.3967 36.7412 97.0967 38.5544 95.3649 39.882C93.6331 41.2096 91.5474 41.9917 89.372 42.1294C89.1279 42.1409 88.8851 42.1496 88.6453 42.1496V42.154ZM88.6756 20.672C88.4445 20.672 88.2133 20.6807 87.9807 20.6952C86.6042 20.7659 85.2554 21.1103 84.0127 21.7084C82.77 22.3064 81.6583 23.1463 80.742 24.179C79.8257 25.2118 79.1231 26.4169 78.6752 27.7243C78.2272 29.0318 78.0428 30.4155 78.1326 31.795C78.2224 33.1746 78.5846 34.5225 79.1982 35.7604C79.8118 36.9983 80.6646 38.1016 81.707 39.0061C82.7494 39.9106 83.9606 40.5983 85.2703 41.0292C86.5799 41.4602 87.9619 41.6258 89.3359 41.5164C92.0436 41.3601 94.5834 40.1493 96.414 38.1421C98.2446 36.1348 99.2211 33.4898 99.1356 30.7708C99.0501 28.0517 97.9092 25.4737 95.9561 23.5862C94.003 21.6987 91.3921 20.6509 88.68 20.6662L88.6756 20.672Z" fill="#DADADA"/>
<path d="M324 172.095H0V172.704H324V172.095Z" fill="#102048"/>
<path d="M141.855 160.428H70.8617V171.523H141.855V160.428Z" fill="#02B558"/>
<path d="M95.1916 160.428H70.8617V171.523H95.1916V160.428Z" fill="#72DB9F"/>
<g style="mix-blend-mode:multiply" opacity="0.5">
<path d="M141.855 160.428H118.546V171.523H141.855V160.428Z" fill="#FFCC00"/>
</g>
<path d="M139.269 149.367H68.2756V160.461H139.269V149.367Z" fill="#02B558"/>
<path d="M87.1154 149.367H68.2756V160.461H87.1154V149.367Z" fill="#72DB9F"/>
<g style="mix-blend-mode:multiply" opacity="0.5">
<path d="M139.269 149.367H109.36V160.461H139.269V149.367Z" fill="#FFCC00"/>
</g>
<path d="M147.008 138.227H76.0151V149.322H147.008V138.227Z" fill="#02B558"/>
<path d="M103.772 138.227H76.0151V149.322H103.772V138.227Z" fill="#72DB9F"/>
<g style="mix-blend-mode:multiply" opacity="0.5">
<path d="M147.008 138.227H126.821V149.322H147.008V138.227Z" fill="#FFCC00"/>
</g>
<path d="M142.599 127.218H71.6057V138.313H142.599V127.218Z" fill="#02B558"/>
<path d="M92.7615 127.218H71.6057V138.313H92.7615V127.218Z" fill="#72DB9F"/>
<g style="mix-blend-mode:multiply" opacity="0.5">
<path d="M142.6 127.218H113.802V138.313H142.6V127.218Z" fill="#FFCC00"/>
</g>
<path d="M139.003 160.428H70.8617V162.083H139.003V160.428Z" fill="#008036"/>
<path d="M142.6 138.313H76.0151V140.03H142.6V138.313Z" fill="#008036"/>
<path d="M251.227 4.33716H149.339C147.902 4.33716 146.738 5.505 146.738 6.9456V159.476C146.738 160.916 147.902 162.084 149.339 162.084H251.227C252.663 162.084 253.827 160.916 253.827 159.476V6.9456C253.827 5.505 252.663 4.33716 251.227 4.33716Z" fill="#F0F1F3"/>
<path d="M243.481 140.808V14.7146L157.086 14.7146V140.808H243.481Z" fill="white"/>
<path d="M166.657 45.5898H162.001V73.6103H166.657V45.5898Z" fill="#02B558"/>
<path d="M173.9 40.4004H169.243V73.6102H173.9V40.4004Z" fill="#1D211F"/>
<path d="M181.142 30.542H176.486V73.6118H181.142V30.542Z" fill="#02B558"/>
<path d="M188.385 41.9568H183.729V73.6103H188.385V41.9568Z" fill="#1D211F"/>
<path d="M195.628 53.8918H190.971V73.6102H195.628V53.8918Z" fill="#02B558"/>
<path d="M202.87 39.6223H198.214V73.6103H202.87V39.6223Z" fill="#02B558"/>
<path d="M210.113 60.6377H205.457V73.6104H210.113V60.6377Z" fill="#1D211F"/>
<path opacity="0.5" d="M217.356 64.53H212.699V73.6103H217.356V64.53Z" fill="#F3A100"/>
<path d="M224.598 54.9294H219.942V73.6103H224.598V54.9294Z" fill="#02B558"/>
<path d="M231.842 49.7402H227.186V73.6104H231.842V49.7402Z" fill="#1D211F"/>
<path d="M239.085 45.5898H234.428V73.6103H239.085V45.5898Z" fill="#02B558"/>
<path opacity="0.5" d="M234.428 129.134H239.085V101.114H234.428V129.134Z" fill="#F3A100"/>
<path opacity="0.5" d="M227.186 129.133H231.842V95.9227H227.186V129.133Z" fill="#1E2346"/>
<path opacity="0.5" d="M219.942 129.134H224.598V86.0643H219.942V129.134Z" fill="#F3A100"/>
<path opacity="0.5" d="M212.699 129.133H217.356V97.4791H212.699V129.133Z" fill="#1E2346"/>
<path d="M205.457 129.133H210.113V109.414H205.457V129.133Z" fill="#02B558"/>
<path d="M198.214 129.133H202.87V95.1445H198.214V129.133Z" fill="#02B558"/>
<path d="M190.97 129.133H195.626V116.16H190.97V129.133Z" fill="#1D211F"/>
<path d="M183.727 129.134H188.384V120.054H183.727V129.134Z" fill="#02B558"/>
<path opacity="0.5" d="M176.486 129.133H181.142V110.452H176.486V129.133Z" fill="#F3A100"/>
<path d="M169.243 129.134H173.9V105.264H169.243V129.134Z" fill="#1D211F"/>
<path d="M162.001 129.134H166.657V101.114H162.001V129.134Z" fill="#02B558"/>
<path d="M200.283 155.598C203.283 155.598 205.715 153.159 205.715 150.149C205.715 147.14 203.283 144.701 200.283 144.701C197.283 144.701 194.85 147.14 194.85 150.149C194.85 153.159 197.283 155.598 200.283 155.598Z" fill="white"/>
<path d="M270.53 67.8298H166.364V121.755H270.53V67.8298Z" fill="#326D4A"/>
<path d="M256.188 115.857H180.706V115.015C180.706 109.904 176.982 105.741 172.403 105.741H171.647V83.8383H172.41C176.989 83.8383 180.713 79.6808 180.713 74.5639V73.7219H256.195V74.5639C256.195 79.675 259.92 83.8383 264.499 83.8383H265.254V105.746H264.499C259.92 105.746 256.195 109.904 256.195 115.021L256.188 115.857ZM182.187 114.172H254.707C255.076 108.81 258.926 104.503 263.737 104.093V85.4918C258.926 85.0817 255.076 80.7821 254.707 75.4131H182.187C181.819 80.7821 177.968 85.0817 173.157 85.4918V104.093C177.968 104.503 181.819 108.803 182.187 114.172Z" fill="#326D4A"/>
<path d="M228.558 85.5005H225.896C225.6 84.7473 225.202 84.039 224.711 83.3964H227.456L229.768 79.9895L228.557 79.0635H209.859L207.54 82.4762L208.751 83.4022H217.811C218.707 83.4005 219.589 83.629 220.372 84.0659C220.786 84.4849 221.128 84.9697 221.384 85.5005H209.446L207.125 88.9132L208.336 89.8392H221.504C221.102 90.8121 220.422 91.6437 219.55 92.2289C218.677 92.8142 217.651 93.1269 216.602 93.1273H207.754V97.04L214.876 109.601L216.086 110.527H220.972L213.731 97.4632H217.89C219.994 97.4438 222.02 96.661 223.593 95.2594C225.166 93.8579 226.179 91.9325 226.446 89.8392H227.458L229.776 86.4265L228.558 85.5005Z" fill="#326D4A"/>
<path d="M223.494 82.4762H226.24L228.558 79.0635H209.859L207.54 82.4762H216.6C217.6 82.4765 218.58 82.7605 219.426 83.2954C220.272 83.8303 220.95 84.5942 221.382 85.4991H209.444L207.124 88.9118H221.791C221.537 90.1041 220.884 91.173 219.939 91.9399C218.994 92.7069 217.815 93.1255 216.6 93.1259H207.752V97.0386L214.875 109.6H219.76L212.523 96.543H216.682C218.787 96.5239 220.813 95.7409 222.386 94.339C223.958 92.9371 224.972 91.0112 225.238 88.9176H226.25L228.569 85.5049H225C224.7 84.4064 224.189 83.3774 223.494 82.4762Z" fill="#326D4A"/>
<path d="M268.33 65.0532H164.164V118.978H268.33V65.0532Z" fill="#02B558"/>
<path d="M253.988 113.08H178.504V112.234C178.504 107.123 174.78 102.96 170.201 102.96H169.447V81.0618H170.201C174.78 81.0618 178.504 76.9042 178.504 71.7946V70.9512H253.988V71.7946C253.988 76.9042 257.712 81.0618 262.291 81.0618H263.045V102.97H262.291C257.712 102.97 253.988 107.127 253.988 112.244V113.08ZM179.985 111.395H252.506C252.874 106.033 256.726 101.726 261.535 101.316V82.7153C256.726 82.3052 252.874 78.0056 252.506 72.6365H179.985C179.618 77.9983 175.767 82.3052 170.955 82.7153V101.316C175.767 101.726 179.618 106.026 179.985 111.395Z" fill="#68B0AE"/>
<path d="M226.358 82.7255H223.7C223.403 81.9734 223.003 81.2666 222.511 80.6257H225.256L227.576 77.213L226.358 76.2957H207.663L205.342 79.7069L206.553 80.6329H215.609C216.506 80.6321 217.388 80.8605 218.172 81.2966C218.586 81.7162 218.927 82.2015 219.183 82.7327H207.245L204.918 86.1382L206.128 87.0627H219.294C218.893 88.0358 218.214 88.8676 217.341 89.4529C216.468 90.0382 215.442 90.3507 214.392 90.3508H205.546V94.2635L212.667 106.825L213.875 107.742H218.761L211.525 94.6837H215.684C217.788 94.6646 219.813 93.8819 221.386 92.4802C222.959 91.0786 223.972 89.153 224.239 87.0598H225.25L227.57 83.6471L226.358 82.7255Z" fill="#68B0AE"/>
<path d="M221.294 79.6997H224.039L226.358 76.2957H207.663L205.342 79.7069H214.403C215.403 79.7072 216.383 79.9913 217.229 80.5265C218.075 81.0617 218.753 81.826 219.185 82.7313H207.247L204.918 86.1382H219.583C219.329 87.3302 218.676 88.3988 217.731 89.1654C216.786 89.9321 215.608 90.3505 214.392 90.3508H205.546V94.2635L212.667 106.825H217.554L210.317 93.7679H214.476C216.58 93.7485 218.605 92.9656 220.178 91.564C221.751 90.1625 222.764 88.2371 223.031 86.144H224.042L226.362 82.7313H222.798C222.5 81.6316 221.989 80.6016 221.294 79.6997Z" fill="#B5D9D7"/>
<path d="M264.689 62.0579H160.523V115.983H264.689V62.0579Z" fill="#72DB9F"/>
<path d="M250.347 110.085H174.866V109.242C174.866 104.132 171.142 99.9744 166.563 99.9744H165.809V78.0664H166.563C171.142 78.0664 174.866 73.9088 174.866 68.7919V67.95H250.35V68.7919C250.35 73.903 254.074 78.0664 258.653 78.0664H259.407V99.9744H258.653C254.074 99.9744 250.35 104.132 250.35 109.242L250.347 110.085ZM176.344 108.4H248.872C249.24 103.038 253.091 98.7311 257.902 98.3209V79.7198C253.091 79.3097 249.24 75.0101 248.872 69.6411H176.344C175.977 75.0029 172.126 79.3097 167.316 79.7198V98.3224C172.121 98.7311 175.977 103.031 176.344 108.4Z" fill="#326D4A"/>
<path d="M222.717 79.7286H220.055C219.757 78.977 219.356 78.2707 218.864 77.6302H221.609L223.928 74.2175L222.717 73.2915H204.018L201.697 76.7042L202.908 77.6302H211.968C212.865 77.6285 213.747 77.857 214.531 78.2939C214.944 78.7133 215.286 79.198 215.543 79.7286H203.603L201.283 83.1413L202.493 84.0673H215.661C215.26 85.0401 214.58 85.8717 213.707 86.457C212.835 87.0422 211.809 87.3549 210.759 87.3554H201.911V91.268L209.032 103.829L210.243 104.754H215.129L207.892 91.697H212.052C214.156 91.6773 216.181 90.8944 217.754 89.4929C219.327 88.0914 220.341 86.1662 220.608 84.0731H221.619L223.938 80.6604L222.717 79.7286Z" fill="#02B558"/>
<path d="M217.653 76.7042H220.398L222.717 73.2915H204.018L201.697 76.7042H210.759C211.759 76.705 212.739 76.9894 213.585 77.5245C214.431 78.0596 215.109 78.8236 215.541 79.7286H203.603L201.283 83.1413H215.95C215.696 84.3336 215.042 85.4024 214.098 86.1694C213.153 86.9364 211.974 87.355 210.759 87.3554H201.911V91.268L209.032 103.829H213.919L206.682 90.771H210.661C210.694 90.771 210.73 90.771 210.765 90.771C210.79 90.7725 210.816 90.7725 210.841 90.771C212.945 90.7519 214.971 89.9692 216.544 88.5676C218.117 87.166 219.13 85.2404 219.397 83.1471H220.409L222.727 79.7344H219.165C218.863 78.6349 218.35 77.6054 217.653 76.7042Z" fill="#326D4A"/>
<g opacity="0.5">
<path d="M92.4423 70.8353L89.7449 68.4109L129.007 24.4571L153.789 49.5417L201.027 6.85303L219.15 32.8259L234.897 19.0011L237.282 21.7328L218.499 38.2254L200.41 12.3018L153.646 54.5586L129.139 29.7508L92.4423 70.8353Z" fill="#1E2346"/>
<path d="M239.653 28.0713L244.887 12.6409L228.947 15.8058L239.653 28.0713Z" fill="#1E2346"/>
</g>
<path d="M236.756 175.563C254.259 175.563 268.447 161.331 268.447 143.776C268.447 126.221 254.259 111.989 236.756 111.989C219.254 111.989 205.065 126.221 205.065 143.776C205.065 161.331 219.254 175.563 236.756 175.563Z" fill="#008036"/>
<path d="M236.756 168.171C250.188 168.171 261.077 157.249 261.077 143.776C261.077 130.303 250.188 119.381 236.756 119.381C223.324 119.381 212.435 130.303 212.435 143.776C212.435 157.249 223.324 168.171 236.756 168.171Z" fill="#72DB9F"/>
<path d="M236.756 167.246C249.679 167.246 260.156 156.738 260.156 143.776C260.156 130.814 249.679 120.306 236.756 120.306C223.833 120.306 213.357 130.814 213.357 143.776C213.357 156.738 223.833 167.246 236.756 167.246Z" fill="#02B558"/>
<path d="M248.173 134.37H245.336C245.019 133.569 244.592 132.816 244.068 132.134H246.992L249.463 128.498L248.173 127.512H228.251L225.78 131.148L227.07 132.134H236.721C237.677 132.132 238.617 132.376 239.452 132.841C239.891 133.288 240.254 133.805 240.527 134.37H227.813L225.341 138.006L226.631 138.991H240.658C240.231 140.028 239.507 140.914 238.577 141.538C237.647 142.162 236.554 142.495 235.435 142.495H226.011V146.657L233.598 160.038L234.888 161.024H240.089L232.38 147.112H236.811C239.051 147.092 241.208 146.259 242.883 144.767C244.559 143.275 245.639 141.226 245.925 138.997H246.998L249.468 135.361L248.173 134.37Z" fill="#008036"/>
<path d="M242.778 131.148H245.702L248.173 127.512H228.251L225.78 131.148H235.433C236.498 131.149 237.542 131.451 238.443 132.021C239.345 132.591 240.067 133.406 240.527 134.37H227.813L225.341 138.006H240.966C240.696 139.276 240 140.416 238.993 141.233C237.987 142.051 236.731 142.497 235.435 142.498H226.011V146.66L233.598 160.041H238.799L231.09 146.129H235.521C237.762 146.109 239.92 145.275 241.596 143.782C243.272 142.289 244.352 140.237 244.636 138.007H245.708L248.178 134.371H244.383C244.063 133.202 243.518 132.107 242.778 131.148Z" fill="white"/>
<path d="M196.232 144.182H148.808V172.376H196.232V144.182Z" fill="#1D211F"/>
<path d="M184.113 97.1632C182.629 96.5966 181.021 96.44 179.456 96.7096L182.303 89.4451L185.601 91.1304L184.113 97.1632Z" fill="#141930"/>
<path d="M182.274 93.2651C183.72 93.2651 184.893 92.0888 184.893 90.6378C184.893 89.1868 183.72 88.0105 182.274 88.0105C180.827 88.0105 179.654 89.1868 179.654 90.6378C179.654 92.0888 180.827 93.2651 182.274 93.2651Z" fill="#E6976D"/>
<path d="M173.058 87.9453C173.058 87.9453 172.217 92.2927 171.376 93.2636C170.535 94.2345 169.372 95.1475 170.018 96.1836C170.664 97.2197 172.153 97.4704 173.381 97.2864C174.674 97.0908 176.032 96.7661 176.873 97.156C177.714 97.5458 177.132 92.097 177.132 92.097L175.444 86.4541C175.444 86.4541 172.799 87.8801 173.058 87.9453Z" fill="#141930"/>
<path d="M151.308 122.648C149.353 123.52 147.335 124.242 145.272 124.81C145.272 124.81 148.894 127.491 152.773 124.463L151.308 122.648Z" fill="#E6976D"/>
<path d="M170.708 100.939C170.708 100.939 166.397 115.468 151.308 122.647L152.608 125.328C152.608 125.328 162.956 123.772 173.906 109.678L170.708 100.939Z" fill="#326D4A"/>
<path d="M146.673 163.057C146.673 163.057 143.763 167.404 140.789 168.564C140.789 168.564 144.022 168.823 145.832 167.136C147.643 165.449 146.673 163.057 146.673 163.057Z" fill="#E6976D"/>
<path d="M155.343 143.246C155.343 143.246 164.614 163.802 165.103 167.717C165.591 171.633 162.012 177.344 162.012 177.344H163.638L169.006 170.655L162.987 145.367L168.355 144.714L165.59 137.698L155.505 137.536L155.343 143.246Z" fill="#E37463"/>
<path d="M155.921 129.54C155.921 129.54 151.529 128.562 150.554 132.477C149.579 136.393 144.932 167.227 144.932 167.227L149.163 166.085L156.318 138.842L168.193 139.332C168.193 139.332 162.265 131.661 155.921 129.54Z" fill="#E6976D"/>
<path d="M149.162 166.085C149.162 166.085 149.813 168.043 148.674 169.511C147.536 170.979 145.66 173.24 145.66 173.24L145.172 172.424L146.234 169.347L139.615 170.163L135.873 168.043C135.873 168.043 140.443 168.656 144.932 167.227L149.162 166.085Z" fill="#42528E"/>
<path d="M163.638 177.342L169.006 170.653C170.307 172.23 169.982 173.644 169.982 173.644L169.765 179.191H168.79L168.356 174.409L164.127 178.651H159.682L162.014 177.347L163.638 177.342Z" fill="#42528E"/>
<path d="M181.928 99.3093L186.618 101.363C187.176 101.607 187.627 102.045 187.89 102.595C188.152 103.145 188.209 103.772 188.05 104.361C187.135 107.729 185.92 116.534 187.151 125.008H172.056C172.056 125.008 169.889 111.614 170.091 102.026C170.105 101.44 170.32 100.877 170.7 100.431C171.08 99.986 171.602 99.6864 172.178 99.5832L176.353 98.8325L181.928 99.3093Z" fill="#008036"/>
<path d="M184.2 102.41C184.065 104.225 181.465 105.509 178.392 105.281C175.319 105.054 172.936 103.397 173.07 101.583C173.205 99.7686 175.804 98.4846 178.877 98.7122C181.95 98.9397 184.333 100.597 184.2 102.41Z" fill="#E37463"/>
<path d="M181.353 93.1794C181.353 93.1794 181.433 97.1602 182.067 99.5556C179.999 99.9853 177.865 99.9853 175.797 99.5556C175.797 99.5556 177.146 98.2022 177.386 93.9837L181.353 93.1794Z" fill="#E37463"/>
<path d="M171.384 104.184L168.131 110.473C168.131 110.473 169.162 113.896 173.607 113.499L178.211 110.473L171.384 104.184Z" fill="#008036"/>
<path d="M187.147 125.008C187.147 125.008 189.438 131.209 189.567 135.212C189.69 139.037 188.582 143.851 179.927 144.509C171.788 145.128 170.493 145.332 164.259 145.332C164.259 145.332 162.537 132.825 158.27 129.37C158.27 129.37 164.71 127.312 172.052 125.008H187.147Z" fill="#02B558"/>
<path d="M187.971 102.815C187.774 102.674 187.567 102.549 187.351 102.441C185.241 101.395 183.037 104.76 183.037 104.76C183.037 104.76 179.669 111.715 171.088 117.899C171.364 120.241 171.637 122.2 171.822 123.466C176.051 121.662 180.862 118.879 184.78 114.648C185.585 113.779 186.263 112.97 186.839 112.214C187.114 108.782 187.615 105.958 188.05 104.36C188.185 103.849 188.157 103.309 187.971 102.815Z" fill="#02B558"/>
<path d="M183.391 103.974C183.391 103.974 176.837 116.341 159.894 122.088L161.102 124.942C161.102 124.942 175.242 123.472 184.77 113.915C193.306 105.354 188.873 102.397 187.788 101.808C185.711 100.68 183.391 103.974 183.391 103.974Z" fill="#326D4A"/>
<path d="M159.887 122.088L153.55 124.466L154.757 127.407C154.757 127.407 157.947 127.925 161.095 124.943L159.887 122.088Z" fill="#E6976D"/>
<g style="mix-blend-mode:multiply" opacity="0.4">
<path d="M181.596 96.7937C181.547 96.3589 181.508 95.9242 181.476 95.517L177.424 93.9751L177.385 93.9838C177.221 96.8676 176.541 98.4109 176.125 99.1007C178.971 98.9022 180.702 97.6791 181.596 96.7937Z" fill="#E37463"/>
</g>
<path d="M173.735 86.2539H182.148V96.437C182.148 96.7345 182.03 97.0197 181.82 97.2301C181.611 97.4404 181.326 97.5586 181.03 97.5586H174.853C174.557 97.5586 174.272 97.4404 174.063 97.2301C173.853 97.0197 173.735 96.7345 173.735 96.437V86.2539Z" fill="#E6976D"/>
<path d="M180.041 86.4539C180.041 86.4539 180.107 89.1131 181.853 90.7347C181.853 90.7347 182.564 88.8508 183.47 90.0855C184.376 91.3201 183.534 92.6157 182.047 92.8098C182.047 92.8098 181.595 96.2472 183.016 97.7369C184.438 99.2266 184.439 96.5037 186.315 96.7631C188.19 97.0225 189.418 96.5037 188.384 94.8183C187.349 93.133 185.604 88.8508 185.409 86.7742C185.214 84.6976 184.568 81.3907 182.24 82.1703C182.24 82.1703 181.917 80.0285 179.589 79.8995C177.262 79.7705 175.645 81.9747 173.833 81.6501C172.022 81.3254 170.213 82.0399 169.954 84.2455C169.636 86.9582 170.6 88.916 173.963 88.461C173.963 88.4682 178.942 87.6857 180.041 86.4539Z" fill="#1E2346"/>
<path d="M200.112 128.053H126.774V130.851H200.112V128.053Z" fill="#1A427D"/>
<path d="M200.953 129.164H125.933V129.74H200.953V129.164Z" fill="#A9BFF8"/>
<path d="M119.329 126.727C140.544 126.727 157.741 109.477 157.741 88.1988C157.741 66.9203 140.544 49.6707 119.329 49.6707C98.1149 49.6707 80.9172 66.9203 80.9172 88.1988C80.9172 109.477 98.1149 126.727 119.329 126.727Z" fill="#008036"/>
<path d="M140.173 109.106C151.685 97.5592 151.685 78.8377 140.173 67.2906C128.66 55.7436 109.995 55.7435 98.4828 67.2906C86.9705 78.8377 86.9705 97.5593 98.4828 109.106C109.995 120.653 128.66 120.653 140.173 109.106Z" fill="#72DB9F"/>
<path d="M139.383 108.314C150.459 97.2046 150.459 79.1924 139.383 68.0827C128.307 56.9731 110.349 56.9731 99.2726 68.0827C88.1964 79.1923 88.1964 97.2046 99.2726 108.314C110.349 119.424 128.307 119.424 139.383 108.314Z" fill="#02B558"/>
<path d="M133.167 76.7998H129.729C129.344 75.8289 128.827 74.9164 128.192 74.0885H131.736L134.731 69.6816L133.167 68.4875H109.021L106.025 72.8929L107.588 74.0885H119.29C120.448 74.087 121.587 74.3818 122.599 74.9449C123.131 75.4872 123.571 76.1139 123.899 76.7998H108.485L105.49 81.2052L107.053 82.4007H124.055C123.537 83.6571 122.659 84.7311 121.532 85.4869C120.405 86.2426 119.08 86.6463 117.724 86.6467H106.3L106.293 91.6911L115.486 107.911L117.05 109.107H123.359L114.014 92.2461H119.387C122.104 92.2209 124.72 91.2098 126.751 89.3999C128.782 87.59 130.091 85.1037 130.435 82.4007H131.736L134.731 77.9939L133.167 76.7998Z" fill="#008036"/>
<path d="M126.628 72.8929H130.172L133.167 68.4875H109.021L106.025 72.8929H117.727C119.02 72.8942 120.285 73.2623 121.378 73.9546C122.471 74.647 123.346 75.6354 123.902 76.8056H108.485L105.49 81.211H124.428C124.1 82.7506 123.256 84.1308 122.036 85.1211C120.816 86.1115 119.294 86.652 117.724 86.6525H106.3L106.293 91.6969L115.486 107.911H121.794L112.452 91.0506H117.823C120.539 91.026 123.155 90.0151 125.187 88.2051C127.218 86.3951 128.527 83.9084 128.871 81.2052H130.171L133.166 76.7998H128.564C128.18 75.3831 127.522 74.0558 126.628 72.8929Z" fill="white"/>
<path d="M198.965 130.851H128.416V132.167H198.965V130.851Z" fill="#102F54"/>
<path d="M123.986 181H121.648L130.261 132.167H133.829L123.986 181Z" fill="#1D211F"/>
<path d="M201.923 181H204.26L195.647 132.167H192.078L201.923 181Z" fill="#1D211F"/>
<path d="M156.535 126.763H132.608L128.416 111.137H152.342L156.535 126.763Z" fill="#F0F1F5"/>
<path d="M156.589 126.763H155.878L151.685 111.137L152.396 111.881L156.589 126.763Z" fill="#CBCED8"/>
<path d="M166.624 126.763H132.608V128.053H166.624V126.763Z" fill="#CBCED8"/>
<path d="M142.908 119.139C143.16 120.502 142.415 121.783 141.245 122C140.075 122.217 138.921 121.29 138.669 119.928C138.418 118.565 139.162 117.286 140.332 117.067C141.502 116.848 142.657 117.777 142.908 119.139Z" fill="#CBCED8"/>
<path d="M293.398 154.694C293.398 153.743 289.555 152.974 284.813 152.974C280.072 152.974 276.227 153.743 276.227 154.694C276.227 155.644 280.072 156.415 284.813 156.415C289.555 156.415 293.398 155.65 293.398 154.694Z" fill="#F0F1F3"/>
</g>
<defs>
<clipPath id="clip0_571_3439">
<rect width="324" height="181" fill="white"/>
</clipPath>
</defs>
</svg>
