<svg width="30" height="29" viewBox="0 0 30 29" fill="none" xmlns="http://www.w3.org/2000/svg">
<path d="M29.9978 28.7012C29.8445 28.9477 29.6162 29 29.3447 29C20.0592 28.9965 10.7735 28.9965 1.48749 29C0.993647 29 0.853499 28.8633 0.852765 28.3702C0.852765 26.8014 0.852765 25.2289 0.852765 23.6578C0.849096 22.5933 1.23287 21.7058 2.04445 20.961C1.68343 20.8429 1.35322 20.7406 1.02741 20.6278C0.31489 20.3805 -0.0520126 19.8105 0.00595754 19.0485C0.17746 16.7471 0.751505 14.4955 1.70103 12.3997C2.31522 11.0379 3.13121 9.81194 4.3207 8.90576C4.85271 8.50011 5.47863 8.22221 6.0576 7.88006C6.23078 7.77772 6.41789 7.67986 6.55218 7.53568C6.74518 7.33077 6.97689 7.16772 7.23339 7.05633C7.48989 6.94495 7.76587 6.88752 8.04472 6.88752C8.32358 6.88752 8.59956 6.94495 8.85606 7.05633C9.11256 7.16772 9.34428 7.33077 9.53728 7.53568C9.67666 7.68439 9.84584 7.80081 10.0333 7.87707C11.2023 8.33501 12.1511 9.09178 12.948 10.0592C14.2307 11.6183 14.9153 13.4703 15.4568 15.3909C15.795 16.6156 16.0075 17.8726 16.0908 19.1419C16.1145 19.452 16.0377 19.7615 15.8722 20.023C15.7066 20.2844 15.4615 20.4835 15.1743 20.5897C14.8192 20.7249 14.4537 20.8317 14.0678 20.9632L14.69 21.6864C15.0334 21.3031 15.3343 20.8646 15.7335 20.5508C16.1332 20.2533 16.5782 20.0244 17.0506 19.8733C18.0215 19.546 19.015 19.2898 19.9939 18.9895C20.1123 18.9426 20.208 18.8504 20.2603 18.7325C20.3212 18.5831 20.2456 18.4703 20.0871 18.3829C19.1251 17.8692 18.3907 17.0027 18.0325 15.9587C17.9767 15.8011 17.8975 15.7555 17.739 15.751C16.9479 15.7308 16.5443 15.3028 16.5355 14.4952C16.5311 14.0066 16.5032 13.5188 16.8804 13.1221C16.9435 13.0564 16.9237 12.898 16.9193 12.7785C16.89 11.882 16.9927 11.008 17.4168 10.2079C18.2614 8.62489 19.5661 7.73736 21.3412 7.66266C22.2628 7.62381 23.1926 7.56706 24.1061 7.82181C25.9538 8.33727 27.3532 10.1025 27.4303 12.0494C27.4369 12.2182 27.4442 12.387 27.4435 12.5559C27.4349 12.8474 27.5049 13.1357 27.646 13.3896C27.9556 13.9596 27.93 14.6028 27.6636 15.196C27.4801 15.6054 27.0971 15.76 26.6686 15.7503C26.4675 15.745 26.3809 15.813 26.3119 16.0028C25.9437 17.0428 25.2012 17.9016 24.2346 18.4053C24.0995 18.48 23.9454 18.5584 24.0298 18.7317C24.0971 18.8517 24.2055 18.9422 24.3343 18.9858C25.435 19.3249 26.5548 19.6036 27.6364 19.989C28.9653 20.4604 29.7168 21.4705 29.9567 22.8787C29.9675 22.9157 29.982 22.9515 30 22.9855L29.9978 28.7012ZM3.81585 28.0864H12.2391C12.2493 28.0436 12.2564 28.0001 12.2604 27.9564C12.2604 26.6341 12.2604 25.3118 12.2604 23.9895C12.2632 23.9016 12.2391 23.8149 12.1914 23.7415C11.7277 23.1648 11.1282 22.8869 10.3944 22.9369C9.78677 22.9787 9.30759 23.2821 8.90327 23.7296C8.77897 23.871 8.62262 23.9794 8.4478 24.0453C8.27297 24.1111 8.08497 24.1325 7.90017 24.1076C7.50905 24.0695 7.25662 23.805 6.99612 23.548C6.34965 22.9085 5.46029 22.7382 4.64797 23.1334C4.13945 23.3807 3.69991 23.7109 3.81364 24.4034C3.83272 24.5184 3.85033 24.6693 3.7953 24.7538C3.70284 24.8964 3.55974 25.0825 3.42252 25.0959C3.2853 25.1094 3.0226 24.9555 3.00132 24.8397C2.89859 24.2644 2.82668 23.6713 3.22146 23.1588C4.30308 21.7551 6.4201 21.6453 7.64628 22.9257C8.03446 23.3321 8.0528 23.3314 8.45346 22.919C9.62754 21.7088 11.5882 21.7416 12.7278 22.9832C12.8674 23.1288 12.9768 23.3014 13.0495 23.4908C13.1223 23.6802 13.1569 23.8826 13.1512 24.0859C13.1388 25.2991 13.1468 26.5116 13.1468 27.7248V28.0849H14.3407C14.3481 28.0411 14.3533 27.9969 14.3561 27.9526C14.3561 26.4585 14.3679 24.9696 14.3503 23.4785C14.3489 22.981 14.1933 22.4966 13.9059 22.0942C13.6184 21.6918 13.2136 21.392 12.7491 21.2374C11.8465 20.9228 10.9278 20.6464 10.001 20.4156C9.41768 20.2729 8.97885 20.0421 8.87319 19.4175H7.16123C6.96457 20.0189 6.76425 20.2266 6.31003 20.3551C5.35609 20.6255 4.39334 20.8945 3.44307 21.1896C2.45538 21.4974 1.77588 22.3699 1.75533 23.4218C1.72305 24.9323 1.74213 26.4436 1.74066 27.9549C1.74464 27.9963 1.75199 28.0372 1.76267 28.0774H2.94116C2.94116 27.6598 2.93602 27.2624 2.94116 26.8664C2.94703 26.519 3.12167 26.3121 3.38804 26.3151C3.65441 26.3181 3.81437 26.5243 3.81731 26.8761C3.81878 27.2743 3.81585 27.6695 3.81585 28.0864ZM17.7507 28.0804H26.5416C26.5416 26.717 26.5416 25.376 26.5416 24.0343C26.5416 23.9163 26.5167 23.7631 26.5768 23.6869C26.6832 23.554 26.8351 23.4076 26.9878 23.3784C27.1954 23.3381 27.3547 23.4965 27.4046 23.7146C27.4209 23.8133 27.426 23.9135 27.42 24.0134C27.42 25.266 27.42 26.5185 27.42 27.7711V28.0864H29.0908C29.1014 28.054 29.1092 28.0207 29.1143 27.987C29.1143 26.4257 29.1371 24.8643 29.1048 23.3045C29.0835 22.2586 28.6021 21.4234 27.6746 20.9774C27.0032 20.6539 26.2547 20.4956 25.5407 20.2655C25.5334 20.2655 25.518 20.2894 25.4996 20.311C25.675 20.6285 25.8394 20.9557 26.0316 21.265C26.2239 21.5743 26.2019 21.8627 26.003 22.1764C24.8685 23.9492 23.7451 25.7294 22.6158 27.5059C22.3369 27.9444 22.0133 27.9414 21.7352 27.4984C20.6118 25.7301 19.4957 23.9566 18.3642 22.1943C18.1499 21.8604 18.1323 21.5653 18.3414 21.2299C18.53 20.9311 18.6914 20.6076 18.9013 20.2311L17.3405 20.701C15.9683 21.1134 15.2389 22.1032 15.2374 23.5585C15.2374 24.9609 15.2374 26.3629 15.2374 27.7644V28.0864H16.8738C16.8738 27.6658 16.8738 27.2601 16.8738 26.8552C16.8775 26.5273 17.0441 26.3256 17.3024 26.3196C17.5606 26.3136 17.7478 26.5228 17.7514 26.8657C17.7544 27.2601 17.7507 27.6575 17.7507 28.0774V28.0804ZM25.7058 12.9391C25.609 12.9615 25.5348 12.9757 25.4622 12.9959C24.7284 13.2028 23.9792 13.2857 23.2344 13.1341C22.4896 12.9824 21.7668 12.7396 21.0271 12.5715C20.4034 12.4296 19.7687 12.3362 19.1383 12.2257C18.8411 12.1734 18.698 12.3333 18.698 12.6156C18.6878 13.4083 18.6195 14.2076 18.698 14.9905C18.8448 16.4144 20.0189 17.6351 21.4256 17.9481C22.8323 18.2611 24.3608 17.6052 25.1415 16.3905C25.8306 15.3185 25.73 14.1411 25.7058 12.9361V12.9391ZM26.5343 12.3415C26.6231 10.692 25.4262 9.03798 23.8097 8.68686C23.0392 8.51952 22.2203 8.52774 21.4256 8.55164C19.8545 8.59796 18.7413 9.40106 18.0882 10.8511C17.8724 11.3102 17.7836 11.8206 17.8314 12.3273C17.8848 12.2117 17.9244 12.0901 17.9495 11.965C18.0178 11.6198 18.2093 11.4091 18.563 11.3972C19.0194 11.3823 19.4913 11.3038 19.9279 11.3972C20.8231 11.5825 21.6985 11.8656 22.5835 12.1024C23.6277 12.3818 24.6624 12.4304 25.6699 11.9463C26.138 11.7132 26.3222 11.7879 26.5343 12.3355V12.3415ZM9.29512 14.4444C8.88273 14.3167 8.45639 14.2106 8.04766 14.053C7.21774 13.7325 6.49862 13.2207 5.81251 12.6567C5.54468 12.4326 5.46762 12.4625 5.3781 12.7919C5.28858 13.1214 5.21667 13.4479 5.1132 13.7676C5.0633 13.9222 4.99285 14.1179 4.87178 14.1919C4.62008 14.3413 4.60835 14.5527 4.62376 14.7963C4.63037 14.8949 4.62376 14.995 4.62376 15.0951C4.63096 15.8764 4.89395 16.633 5.3711 17.245C5.84826 17.857 6.51229 18.2895 7.25809 18.474C8.77339 18.8476 10.3401 18.108 11.0739 16.6729C11.4334 15.9722 11.498 15.2273 11.4363 14.4541H10.1412C10.1412 14.6962 10.1463 14.9225 10.1412 15.1481C10.1324 15.4544 9.96362 15.6427 9.709 15.6434C9.45437 15.6442 9.27605 15.4611 9.26872 15.1534C9.26064 14.9106 9.28412 14.6745 9.29512 14.4384V14.4444ZM12.1408 13.542C12.0102 12.015 11.363 10.8376 10.0862 10.0996C8.61416 9.24941 7.12014 9.31365 5.72005 10.2833C4.61935 11.0468 4.04846 12.151 3.95893 13.5143C4.2664 13.5442 4.2686 13.5442 4.32583 13.3231C4.41096 13.0071 4.47846 12.6851 4.57899 12.3751C4.82261 11.628 5.60631 11.3815 6.23004 11.8521C6.41863 11.9941 6.59695 12.1509 6.78553 12.2899C7.48998 12.8181 8.23039 13.297 9.10435 13.4434C9.67671 13.539 10.2689 13.5181 10.853 13.5397C11.2727 13.5472 11.6902 13.536 12.1408 13.536V13.542ZM10.1823 8.91696L10.1023 8.99167C10.1726 9.07169 10.2514 9.1436 10.3371 9.20608C11.7908 10.0331 12.6816 11.2657 12.9531 12.9473C13.0162 13.3365 12.9861 13.7407 13.3435 14.044C13.4726 14.1531 13.4903 14.4175 13.5233 14.6215C13.5409 14.8094 13.5431 14.9986 13.5299 15.187C13.524 15.934 13.1307 16.3606 12.402 16.3763C12.1995 16.3808 12.1144 16.451 12.0461 16.6355C11.6469 17.7023 10.9344 18.4852 9.94601 19.0194C9.86383 19.0634 9.76623 19.1934 9.77576 19.2719C9.7853 19.3503 9.90124 19.4668 9.9915 19.496C10.9161 19.7739 11.8451 20.0384 12.7741 20.3013C12.8727 20.3387 12.9793 20.3488 13.083 20.3305C13.6612 20.1542 14.2368 19.9679 14.8096 19.7717C15.1186 19.6648 15.2301 19.4609 15.2022 19.1262C15.1941 19.0366 15.1839 18.9484 15.1758 18.8588C14.9454 16.3262 14.2879 13.923 13.0214 11.7177C12.3353 10.5097 11.4195 9.53477 10.1823 8.91098V8.91696ZM5.98642 8.99167L5.92918 8.92594C5.91002 8.92765 5.89108 8.9314 5.87268 8.93713C5.7993 8.9715 5.73179 9.00513 5.66355 9.04398C4.26273 9.84258 3.32567 11.07 2.63223 12.5043C1.635 14.5684 1.07437 16.758 0.887251 19.0485C0.852029 19.4781 0.969433 19.6693 1.37889 19.8038C1.89255 19.9711 2.39888 20.1392 2.91401 20.2908C3.0421 20.326 3.17703 20.326 3.30512 20.2908C4.15045 20.0495 4.99286 19.797 5.83306 19.5438C5.99743 19.4945 6.22198 19.5438 6.26454 19.2763C6.31003 18.9872 6.06494 18.97 5.91231 18.8797C5.06142 18.3927 4.40562 17.617 4.05947 16.6878C3.97434 16.4637 3.87968 16.3688 3.62726 16.3643C2.98151 16.3524 2.58159 15.9206 2.56619 15.2669C2.56105 15.048 2.56619 14.8292 2.56619 14.611C2.56619 14.2935 2.69386 14.0417 2.903 13.8117C2.99718 13.7083 3.05766 13.5778 3.07617 13.4381C3.23321 11.5234 4.14019 10.1123 5.78683 9.18441C5.86105 9.12753 5.92809 9.06155 5.98642 8.98795V8.99167ZM20.7497 24.2943L20.7916 24.2757C20.4349 23.0804 20.0776 21.8851 19.6989 20.6151C19.4913 20.9886 19.3166 21.2949 19.1537 21.6072C19.1422 21.6369 19.1373 21.6689 19.1393 21.7008C19.1413 21.7327 19.1502 21.7637 19.1655 21.7917C19.6901 22.6254 20.2207 23.4546 20.7497 24.2906V24.2943ZM24.6565 20.618L23.5939 24.1852C24.1722 23.4046 24.6858 22.5985 25.1914 21.7872C25.2058 21.754 25.2128 21.718 25.212 21.6818C25.2113 21.6455 25.2027 21.6098 25.187 21.5773C25.0322 21.2762 24.8649 20.9894 24.6565 20.6158V20.618ZM6.87652 8.73469C7.27864 8.70107 7.66389 8.64431 8.0506 8.64357C8.43731 8.64282 8.81229 8.69884 9.19534 8.72947C9.1447 8.25061 8.65599 7.80759 8.07335 7.7792C7.52961 7.74857 7.03869 8.14005 6.87652 8.73097V8.73469ZM22.1755 25.7048C22.7207 24.8374 22.4177 23.9036 22.3032 22.981C22.2981 22.9377 22.2181 22.8831 22.1652 22.8734C22.1337 22.8675 22.064 22.9332 22.0537 22.9765C22.0221 23.111 22.0155 23.2507 21.9913 23.3874C21.846 24.1845 21.7506 24.9779 22.1755 25.7048ZM23.125 18.867H21.1526C21.1152 18.9902 21.0667 19.1479 21.0124 19.3257C21.7471 19.5735 22.5398 19.579 23.2777 19.3413L23.125 18.867ZM20.8319 21.3203L21.7939 20.4238L20.4819 20.1452C20.6022 20.5501 20.7079 20.9147 20.8319 21.3203ZM23.8764 20.1414L22.5637 20.4276L23.5257 21.3173C23.6468 20.9102 23.7539 20.5531 23.8764 20.1414ZM26.6076 14.8306C26.8212 14.865 26.9371 14.7911 26.9408 14.5737C26.9408 14.3764 26.9511 14.1785 26.9408 13.982C26.9269 13.7721 26.8535 13.7302 26.6099 13.7653L26.6076 14.8306ZM17.7478 13.7384C17.4645 13.7519 17.4264 13.7893 17.4132 14.0433C17.3772 14.7261 17.3985 14.7903 17.6854 14.8396C17.7008 14.8396 17.7184 14.8262 17.7478 14.8135V13.7384ZM22.1836 21.209C22.0266 21.4331 21.8556 21.578 21.8255 21.7491C21.7991 21.8985 21.9722 21.9799 22.1594 21.9732C22.3465 21.9665 22.5453 21.9396 22.5263 21.7491C22.5087 21.587 22.334 21.4376 22.1836 21.2075V21.209ZM3.73512 14.4511L3.65588 14.3959C3.58616 14.484 3.47243 14.5647 3.45628 14.6626C3.43193 14.8594 3.42995 15.0584 3.45041 15.2557C3.46362 15.4485 3.50764 15.4671 3.73512 15.4253V14.4511ZM12.3536 15.4559C12.6633 15.4358 12.6625 15.4335 12.6471 14.7768C12.6471 14.5871 12.6332 14.4115 12.3536 14.4541V15.4559Z" fill="black"/>
<path d="M13.0477 0.00614439C13.6876 0.0270619 14.2827 0.188425 14.7905 0.603787C14.9373 0.722568 15.0356 0.728552 15.1919 0.611265C16.093 -0.0610832 17.077 -0.190354 18.0904 0.281037C19.1368 0.768862 19.7106 1.64219 19.7737 2.80759C19.8302 3.8445 19.4391 4.75365 18.8058 5.54926C17.8416 6.75948 16.5802 7.55661 15.1955 8.1692C15.07 8.22041 14.9302 8.22173 14.8037 8.17292C13.2576 7.47666 11.8399 6.59588 10.8881 5.11821C10.2762 4.16721 10.012 3.13628 10.3657 2.00225C10.7194 0.868223 11.8744 0.00166207 13.0477 0.00614439ZM18.9056 2.5648C18.9056 1.70718 17.8402 0.768137 16.6309 0.938465C16.1333 1.00794 15.74 1.25224 15.3995 1.61829C15.106 1.9328 14.9042 1.92531 14.6019 1.63171C14.5527 1.5839 14.5065 1.53236 14.4551 1.4823C13.4344 0.443153 11.6271 0.884667 11.1963 2.29137C10.927 3.16766 11.1714 3.96326 11.6572 4.68716C12.4599 5.88244 13.6289 6.6153 14.88 7.22714C14.958 7.25797 15.0448 7.2561 15.1214 7.22192C16.2309 6.68329 17.2619 6.02663 18.0632 5.05547C18.5666 4.4511 18.8866 3.76083 18.9056 2.5648Z" fill="black"/>
<path d="M24.6565 20.6158C24.8649 20.9894 25.0321 21.2777 25.187 21.575C25.2027 21.6076 25.2112 21.6432 25.212 21.6795C25.2128 21.7158 25.2057 21.7518 25.1914 21.785C24.6858 22.5963 24.1721 23.4023 23.5939 24.183L24.6565 20.6158Z" fill="white"/>
<path d="M17.747 24.2525C17.7544 24.4018 17.7544 24.5514 17.747 24.7007C17.722 24.9547 17.5268 25.1362 17.3008 25.1198C17.0535 25.1019 16.8987 24.9532 16.8833 24.7052C16.8649 24.3987 16.8649 24.0913 16.8833 23.7848C16.8972 23.5346 17.0506 23.3874 17.2972 23.3672C17.5283 23.3478 17.7213 23.5248 17.747 23.7803C17.7624 23.9372 17.747 24.0971 17.747 24.2555V24.2525Z" fill="black"/>
<path d="M22.1366 17.3826C21.9111 17.3883 21.6872 17.3432 21.481 17.2505C21.2747 17.1577 21.0911 17.0197 20.9434 16.8462C20.7578 16.6281 20.7511 16.3875 20.9221 16.2075C21.0931 16.0274 21.3308 16.0267 21.5473 16.2119C21.9927 16.5929 22.3545 16.5914 22.8146 16.2067C23.023 16.0312 23.2446 16.0259 23.4192 16.1918C23.5939 16.3576 23.6027 16.6176 23.4273 16.8305C23.1045 17.2212 22.6788 17.3781 22.1366 17.3826Z" fill="black"/>
<path d="M20.9067 14.2891C20.9067 14.3391 20.9067 14.3884 20.9067 14.4385C20.8928 14.7814 20.7203 14.9845 20.451 14.9778C20.1942 14.9703 20.035 14.7724 20.0269 14.4452C20.0269 14.3167 20.0225 14.1874 20.0269 14.059C20.0408 13.7669 20.1949 13.5928 20.4422 13.5823C20.6895 13.5719 20.8664 13.743 20.8987 14.0231C20.9042 14.1119 20.9042 14.201 20.8987 14.2898L20.9067 14.2891Z" fill="black"/>
<path d="M24.3233 14.2965C24.3284 14.7582 24.1971 14.9688 23.9043 14.9763C23.5961 14.9845 23.4493 14.7642 23.4508 14.289C23.4481 14.1804 23.4542 14.0717 23.4691 13.9641C23.5102 13.7131 23.6636 13.5749 23.9094 13.5853C24.1552 13.5958 24.2998 13.7444 24.3196 13.9999C24.3292 14.0978 24.3233 14.1972 24.3233 14.2965Z" fill="black"/>
<path d="M8.03293 17.9705C7.57651 17.9608 7.17365 17.8211 6.85885 17.4677C6.65119 17.2332 6.63871 17.0001 6.81996 16.8089C7.00121 16.6176 7.23309 16.6243 7.46571 16.832C7.83994 17.1652 8.2494 17.1682 8.61556 16.8395C8.85111 16.6281 9.07566 16.6154 9.26058 16.8014C9.44549 16.9874 9.43228 17.2399 9.23342 17.464C8.91275 17.8256 8.50036 17.9668 8.03293 17.9705Z" fill="black"/>
<path d="M6.82878 14.9935C6.8243 15.0937 6.814 15.1934 6.79795 15.2923C6.78426 15.392 6.73409 15.4827 6.65747 15.5463C6.58086 15.6099 6.48347 15.6417 6.38482 15.6352C6.16468 15.6352 6.00252 15.5202 5.9717 15.2968C5.94345 15.0818 5.93976 14.8642 5.96069 14.6484C5.98417 14.3974 6.14413 14.2577 6.39436 14.2636C6.64458 14.2696 6.78108 14.4228 6.81117 14.6723C6.82217 14.7686 6.82217 14.868 6.82878 14.9935Z" fill="black"/>
</svg>
