<svg width="41" height="35" viewBox="0 0 41 35" fill="none" xmlns="http://www.w3.org/2000/svg">
<g clip-path="url(#clip0_1907_4340)">
<path d="M35.12 4.87012C37.1324 6.34487 38.7334 8.31076 39.77 10.5801C40.3379 11.8436 40.6765 13.1981 40.77 14.5801C40.87 14.7301 40.7701 14.9101 40.8501 15.0601V16.8201C40.7501 16.9701 40.85 17.1501 40.77 17.3001C40.6144 19.1097 40.1582 20.8807 39.4201 22.5402C39.1401 23.2002 38.8301 23.8401 38.5301 24.4901C38.1901 24.9501 37.9201 25.4901 37.5901 25.9001C36.2479 27.7645 34.4784 29.2801 32.4301 30.3201C30.5428 31.3002 28.4214 31.7397 26.3001 31.5901C24.0609 31.4936 21.8844 30.8221 19.9801 29.6401C19.0234 29.0235 18.2552 28.155 17.76 27.1301C17.69 27.0001 17.58 26.8501 17.76 26.6901C18.0352 26.7284 18.3002 26.8201 18.5401 26.9601C19.9552 27.4892 21.4418 27.8026 22.9501 27.8901C23.2089 27.9253 23.4713 27.9253 23.7301 27.8901C24.3501 27.9701 24.9401 28.1901 25.5601 28.2601C27.2616 28.4422 28.9816 28.1911 30.5601 27.5302C31.2651 27.2258 31.9356 26.847 32.5601 26.4001C32.9526 26.1358 33.3268 25.8451 33.6801 25.5302C35.9393 23.3668 37.3569 20.4714 37.6801 17.3601C37.8231 16.0638 37.7282 14.7523 37.4 13.4901C37.3493 13.3385 37.3224 13.18 37.3201 13.0201C37.4103 11.0535 37.069 9.09088 36.3201 7.27014C36.0128 6.55206 35.6483 5.85982 35.2301 5.20013C35.0401 5.04013 35.04 5.04012 35.12 4.87012Z" fill="#E5D6C1"/>
<path d="M40.8699 15.0796C40.7299 14.9396 40.8099 14.7596 40.7899 14.5996H40.8699V15.0796Z" fill="#F0E7DA"/>
<path d="M40.7899 17.3198C40.7899 17.1598 40.7299 16.9798 40.8699 16.8398V17.3198H40.7899Z" fill="#F1E9DD"/>
<path d="M23.7101 28.0298C23.2184 28.1136 22.7149 28.0966 22.2301 27.9798C20.9978 27.8569 19.7871 27.5711 18.63 27.1298C18.32 27.0098 18.0201 26.8697 17.7101 26.7397C17.4001 26.6097 17.48 26.4698 17.42 26.3098C16.9919 25.1337 16.628 23.9353 16.3301 22.7198C15.8571 20.7976 14.8682 19.0411 13.4701 17.6398C12.491 16.7553 11.377 16.0328 10.17 15.4998C8.69003 14.8298 7.17004 14.3398 5.68004 13.6198C4.27424 13.046 3.12587 11.9794 2.45006 10.6198C2.12442 9.87619 1.93469 9.08029 1.89 8.26978C1.8017 7.45121 1.88689 6.62323 2.14 5.83978C2.30096 5.19081 2.64863 4.60325 3.14 4.14978C4.14614 3.0702 5.38378 2.23256 6.75999 1.69977C8.53029 0.995888 10.3867 0.531774 12.28 0.319763C13.28 0.189763 14.28 0.119763 15.28 0.0697632C15.9467 0.0297632 16.6133 0.00976562 17.28 0.00976562C18.9507 0.0232904 20.6197 0.123413 22.28 0.309753C24.0275 0.474035 25.7596 0.77498 27.4601 1.20978C30.2564 1.92047 32.8883 3.1668 35.2101 4.87976C35.4004 5.3171 35.6314 5.73561 35.9 6.12976C36.6696 7.51996 37.1684 9.04357 37.37 10.6198C37.4729 11.3117 37.5264 12.0102 37.53 12.7098C37.53 12.8398 37.5301 12.9798 37.4701 13.0998C37.1801 12.8598 37.16 12.4998 37.02 12.1898C36.6889 11.4107 36.2802 10.667 35.8 9.96979C35.5002 9.53052 35.1658 9.11588 34.8 8.7298C34.1572 8.03216 33.4357 7.41131 32.65 6.87976C29.782 5.09837 26.561 3.96209 23.2101 3.54974C21.2795 3.2583 19.332 3.09129 17.38 3.04974C14.696 2.93522 12.0119 3.27327 9.44005 4.04974C8.46515 4.32805 7.53555 4.74575 6.68004 5.28979C6.28428 5.57152 5.93068 5.90825 5.62999 6.28979C5.33737 6.66727 5.15102 7.11607 5.09007 7.58978C5.0734 8.13778 5.20134 8.68049 5.46117 9.16327C5.72099 9.64605 6.10349 10.0519 6.57005 10.3398C7.44612 10.9204 8.40307 11.3686 9.41002 11.6697C11.2607 12.3141 13.0114 13.2164 14.6101 14.3498C16.4447 15.6701 17.8722 17.4786 18.7301 19.5698C19.3527 21.224 19.8769 22.9136 20.3 24.6298C20.5324 25.3508 20.9301 26.0074 21.4614 26.5474C21.9927 27.0874 22.643 27.4957 23.3601 27.7397C23.4301 27.8097 23.6201 27.8398 23.7101 28.0298Z" fill="#F2E8D7"/>
<path d="M3.15003 4.14007C2.57918 4.86134 2.19764 5.71381 2.04005 6.62005C1.8347 7.63538 1.88835 8.68606 2.19593 9.67523C2.50352 10.6644 3.05515 11.5602 3.80006 12.2801C4.65206 13.0023 5.6232 13.5707 6.67005 13.9601C8.05005 14.5301 9.46007 15.0401 10.8101 15.7001C12.1415 16.3315 13.3212 17.2425 14.2686 18.3712C15.216 19.4998 15.9088 20.8194 16.3001 22.24C16.7201 23.63 17.0001 25.07 17.5601 26.42L17.7101 26.74C18.3045 28.1776 19.4083 29.3455 20.8101 30.0201C22.3694 30.8135 24.067 31.299 25.8101 31.4501C27.7243 31.6435 29.6572 31.3881 31.4556 30.7042C33.2539 30.0203 34.8681 28.9267 36.1701 27.5101C37.0008 26.6663 37.7323 25.7302 38.3501 24.7201C38.3501 24.6301 38.4201 24.4801 38.5901 24.5101C37.6125 26.672 36.2581 28.6427 34.5901 30.3301C32.6321 32.3745 30.095 33.7705 27.3201 34.3301C25.3519 34.7444 23.3035 34.5347 21.4601 33.7301C20.0924 33.1741 18.8124 32.423 17.66 31.5001C16.4307 30.4372 15.5231 29.0517 15.04 27.5001C14.61 26.2201 14.28 24.9001 13.77 23.6401C12.8212 21.2906 11.0903 19.3408 8.87 18.1201C7.46 17.3101 5.95011 16.7101 4.48011 16.0301C3.51776 15.6057 2.62447 15.0394 1.83009 14.3501C1.27633 13.8204 0.833003 13.1862 0.525766 12.4842C0.218528 11.7822 0.053432 11.0262 0.0400482 10.2601C-0.0462249 8.66695 0.455567 7.09765 1.45008 5.85009C1.84143 5.32767 2.27988 4.84229 2.76002 4.40008C2.86002 4.30008 2.95003 4.13007 3.15003 4.14007Z" fill="#E93A43"/>
<path d="M35.7701 9.90027C36.4691 10.8736 37.0123 11.9498 37.3801 13.0903C38.5501 17.4903 37.3801 21.3503 34.5601 24.7903C34.2997 25.1241 34.001 25.4261 33.6701 25.6902C33.0914 25.4527 32.6163 25.0166 32.3301 24.4603C32.1329 24.1461 31.9719 23.8107 31.8502 23.4603C31.6202 22.8103 31.4502 22.1503 31.2302 21.4603C31.1804 21.3247 31.1804 21.1759 31.2302 21.0403C31.6802 20.3903 32.1501 19.7703 32.5401 19.0403C33.7614 16.9159 34.3543 14.4885 34.2501 12.0403C34.2191 11.4941 34.1388 10.9519 34.0101 10.4202C34.0101 10.2502 33.9001 10.0603 34.0801 9.91028C34.6397 9.82116 35.2095 9.81778 35.7701 9.90027Z" fill="#E93A43"/>
<path d="M35.7699 9.9001C35.3453 9.98348 34.9111 10.007 34.48 9.97011H33.9999C33.8687 10.061 33.7072 10.0969 33.5499 10.0701C32.0719 10.0612 30.5981 10.229 29.1599 10.5701C27.9161 10.8554 26.7109 11.2884 25.5699 11.8601C25.2599 12.0201 25.2499 12.0701 25.5699 12.2901C26.1299 12.7201 26.68 13.1601 27.2 13.6301C28.7811 15.125 29.9695 16.9865 30.6599 19.0501L31.23 20.6701C31.23 20.8001 31.34 20.9201 31.23 21.0501C31.51 21.9401 31.77 22.8301 32.08 23.7001C32.3903 24.5181 32.95 25.2178 33.6799 25.7001C33.3861 26.0155 33.0495 26.2882 32.6799 26.5101C32.3 26.3987 31.9732 26.1536 31.7599 25.8201C31.2298 25.1696 30.8385 24.4175 30.61 23.6101L30.1299 22.1301C29.6979 20.5937 29.1325 19.098 28.4399 17.6601C27.846 16.4658 27.0159 15.4044 25.9999 14.5401C23.9146 12.7808 21.579 11.3417 19.0699 10.2701C18.9199 10.2001 18.76 10.1501 18.72 9.9601C18.7826 9.55118 18.9364 9.16156 19.1699 8.82009C19.465 8.83811 19.7506 8.93105 19.9999 9.09011C21.1517 9.60353 22.2706 10.188 23.35 10.8401C23.5028 10.9593 23.691 11.024 23.8849 11.024C24.0787 11.024 24.2671 10.9593 24.4199 10.8401C26.3047 9.79329 28.3714 9.11456 30.5099 8.84011C31.5453 8.6766 32.5917 8.59302 33.6399 8.59011C34.0266 8.53649 34.4204 8.57414 34.7899 8.70009C35.1614 9.06127 35.4902 9.46392 35.7699 9.9001Z" fill="#922D2D"/>
<path d="M30.19 22.0898C30.53 22.8898 30.7 23.7598 31.07 24.5598C31.4145 25.3386 31.964 26.0091 32.66 26.4998C31.4496 27.4086 30.047 28.0278 28.56 28.3098C26.9471 28.6478 25.2733 28.5512 23.71 28.0298C22.9062 27.7635 22.1573 27.3535 21.4999 26.8198C20.831 26.2569 20.3496 25.5034 20.1199 24.6599C20.0299 24.4799 20.12 24.4498 20.28 24.4598C20.4273 24.4729 20.5721 24.5065 20.71 24.5598C22.2403 24.943 23.8391 24.9617 25.378 24.6143C26.9168 24.267 28.3527 23.5632 29.57 22.5598C29.78 22.4198 29.91 22.1998 30.19 22.0898Z" fill="#E93A43"/>
<path d="M30.1901 22.0902C29.402 22.9621 28.428 23.6456 27.3401 24.0902C25.8938 24.7548 24.3104 25.0666 22.7201 25.0002C21.9403 24.9655 21.1677 24.8345 20.4201 24.6102C20.3301 24.6102 20.16 24.4202 20.12 24.6802C19.85 23.7502 19.6001 22.8202 19.3201 21.9002C18.9026 20.0511 18.0807 18.3173 16.9136 16.8235C15.7465 15.3297 14.2633 14.1128 12.5701 13.2602C11.1303 12.5193 9.63993 11.8811 8.11015 11.3502C7.24738 11.0701 6.46278 10.5904 5.82011 9.95021C5.49759 9.6521 5.24651 9.28509 5.08549 8.87648C4.92447 8.46788 4.85761 8.02822 4.89005 7.59023C5.02183 7.5004 5.18176 7.46133 5.34013 7.48024C8.12079 7.44573 10.8961 7.73431 13.6101 8.34023C13.7279 8.35428 13.8408 8.39534 13.9401 8.46022C14.0763 8.59152 14.1553 8.77113 14.1601 8.96022C14.2083 9.43238 14.4014 9.87803 14.7129 10.2361C15.0244 10.5942 15.4391 10.8471 15.9001 10.9602C16.3532 11.1036 16.8391 11.1068 17.2941 10.9694C17.7491 10.832 18.152 10.5604 18.4501 10.1902C18.5301 10.1002 18.6002 10.0002 18.7402 10.0102C18.8647 10.1275 19.0155 10.2133 19.1801 10.2602C21.7212 11.3412 24.0819 12.8049 26.1801 14.6002C27.6107 15.9253 28.6897 17.5849 29.3201 19.4302C29.6201 20.2702 29.9401 21.2002 30.1901 22.0902Z" fill="#F05154"/>
<path d="M33.5199 8.67957C31.4358 8.71628 29.3679 9.05308 27.3799 9.67957C26.2873 10.0061 25.2419 10.4734 24.2699 11.0696C24.1595 11.1589 24.0219 11.2076 23.8799 11.2076C23.7379 11.2076 23.6004 11.1589 23.49 11.0696C22.1117 10.1962 20.6513 9.45938 19.1299 8.86957C19.0512 8.65803 19.0073 8.43518 18.9999 8.2096C18.9289 7.73103 18.7184 7.28403 18.3947 6.9245C18.0709 6.56498 17.6483 6.3089 17.1798 6.1883C16.7113 6.0677 16.2176 6.08793 15.7605 6.24646C15.3034 6.405 14.9032 6.69478 14.61 7.07959C14.5 7.20959 14.44 7.39959 14.23 7.38959C13.23 7.21959 12.14 7.00961 11.09 6.84961C9.41083 6.60009 7.7172 6.45976 6.0199 6.42957C5.8099 6.42957 5.58991 6.42957 5.40991 6.30957C6.01041 5.50337 6.83453 4.89135 7.77991 4.54957C10.2121 3.53517 12.815 2.99223 15.45 2.94959C19.2929 2.81215 23.1349 3.24688 26.85 4.23957C28.9253 4.76555 30.8918 5.65238 32.6599 6.85956C32.9473 7.28787 33.2046 7.73564 33.4299 8.19959C33.4899 8.34959 33.5899 8.49957 33.5199 8.67957Z" fill="#F05154"/>
<path d="M5.42993 6.2995C7.12961 6.27773 8.82827 6.39145 10.5099 6.63953C11.7963 6.77222 13.0703 7.0063 14.3199 7.33954C14.334 7.75433 14.2187 8.16321 13.99 8.50952C11.0106 7.84183 7.96294 7.52633 4.90991 7.56952C4.942 7.10124 5.1244 6.65581 5.42993 6.2995Z" fill="#922D2D"/>
<path d="M33.52 8.67957C33.3144 8.14358 33.0531 7.63078 32.7401 7.1496C32.7401 7.0596 32.55 6.98961 32.66 6.84961C33.4438 7.36405 34.1537 7.98307 34.77 8.68958L33.52 8.67957Z" fill="#EA3B44"/>
<path d="M31.2201 21.0598C30.7701 19.7898 30.3102 18.5199 29.7402 17.2899C29.0242 15.7999 28.002 14.4778 26.7402 13.4099C26.2802 12.9999 25.7401 12.6198 25.2901 12.2398C25.0601 12.0798 25.0801 12.0099 25.2901 11.8799C26.481 11.2625 27.744 10.7955 29.0501 10.4898C30.6591 10.096 32.3145 9.92445 33.9701 9.97989C34.5882 12.5605 34.3422 15.2725 33.2701 17.6999C32.7699 18.8568 32.1248 19.9455 31.3501 20.9399C31.3123 20.9854 31.2686 21.0258 31.2201 21.0598Z" fill="#F05154"/>
<path d="M13.97 8.51046C14.0387 8.10998 14.1492 7.71784 14.2999 7.34048C14.5859 6.8152 15.0455 6.40561 15.6001 6.18173C16.1547 5.95785 16.7698 5.93359 17.3403 6.11312C17.9108 6.29266 18.4012 6.66484 18.7277 7.16598C19.0541 7.66712 19.1963 8.26605 19.1299 8.86044C19.0497 9.24289 18.9186 9.61289 18.74 9.96047C18.3735 10.5152 17.8069 10.907 17.1586 11.0542C16.5102 11.2013 15.83 11.0925 15.2599 10.7505C14.9204 10.5558 14.6324 10.2826 14.4202 9.95376C14.2079 9.62493 14.0775 9.25001 14.0399 8.86044C14.0271 8.74192 14.0037 8.62481 13.97 8.51046Z" fill="#F3E8D7"/>
</g>
<defs>
<clipPath id="clip0_1907_4340">
<rect width="40.87" height="34.56" fill="white"/>
</clipPath>
</defs>
</svg>
