<svg width="19" height="18" viewBox="0 0 19 18" fill="none" xmlns="http://www.w3.org/2000/svg">
<g clip-path="url(#clip0_250_310)">
<path d="M19 10.6661C18.912 10.9272 18.8556 11.2046 18.7294 11.4455C18.5542 11.7703 18.2998 12.0462 17.9897 12.2476C17.6795 12.4491 17.3235 12.5697 16.9544 12.5985C16.5852 12.6273 16.2147 12.5633 15.8768 12.4124C15.539 12.2614 15.2446 12.0284 15.0207 11.7347C14.7969 11.4409 14.6507 11.0959 14.5956 10.7313C14.5406 10.3667 14.5784 9.99414 14.7056 9.64785C14.8327 9.30156 15.0453 8.99265 15.3236 8.74944C15.6019 8.50623 15.9371 8.33653 16.2985 8.25592C16.3514 8.2436 16.4039 8.22735 16.4588 8.21257C16.5083 7.49079 16.4454 6.8035 15.9823 6.20933C15.0506 5.01261 13.3154 5.1954 12.6123 6.56455C12.4357 6.91174 12.3461 7.29627 12.351 7.68539C12.354 9.68074 12.354 11.6759 12.351 13.6709C12.351 14.8016 12.0121 15.8092 11.2684 16.6763C10.9123 17.092 10.4695 17.4256 9.97096 17.6539C9.47237 17.8823 8.92986 17.9999 8.38108 17.9986C7.83229 17.9972 7.29035 17.8771 6.79287 17.6463C6.2954 17.4156 5.85428 17.0799 5.50013 16.6625C4.76834 15.8013 4.43387 14.8056 4.4309 13.6882C4.42718 13.6268 4.42718 13.5653 4.4309 13.5039C4.45316 13.3285 4.41407 13.2389 4.20576 13.2004C3.79707 13.1255 3.52493 12.7225 3.49574 12.1885C3.47793 11.8633 3.49277 11.5362 3.49277 11.2159C3.16917 11.0878 2.84954 10.9893 2.55663 10.8405C1.1435 10.1237 0.254851 9.01465 0.0287307 7.4233C0.0215968 7.39412 0.0111381 7.36586 -0.00244141 7.33905V6.30443H0.629408V6.07483C0.629408 4.81883 0.629408 3.56265 0.629408 2.30632C0.629408 1.47862 1.04553 0.926823 1.84165 0.680484C1.90721 0.654672 1.96141 0.606481 1.99454 0.544516C2.22017 0.112437 2.67834 -0.0959628 3.12811 0.0424797C3.55363 0.171561 3.84704 0.590813 3.80548 1.01008C3.756 1.50867 3.39678 1.86883 2.89704 1.89248C2.52941 1.90972 2.22907 1.75503 2.04649 1.43528C1.96584 1.29388 1.89558 1.30669 1.78475 1.36679C1.46511 1.53972 1.27165 1.8102 1.26868 2.16641C1.2578 3.52719 1.26423 4.88796 1.26521 6.24873C1.2693 6.26716 1.27562 6.28503 1.28402 6.30195H2.22412C2.13605 7.34199 2.34782 8.25887 3.21915 8.91314C3.73176 9.29842 4.32006 9.46593 4.95537 9.44869C5.7698 9.42701 6.47339 9.1452 7.01173 8.5126C7.55006 7.88 7.63863 7.11783 7.59162 6.3128H8.21754C8.22199 6.24678 8.22941 6.19406 8.22941 6.14135C8.22447 4.86038 8.21869 3.57942 8.21209 2.29846C8.20912 1.81514 7.99785 1.48405 7.60746 1.3328C7.5896 1.32669 7.57121 1.32223 7.55253 1.3195C7.43427 1.45104 7.33928 1.59145 7.21212 1.69146C7.11084 1.77041 6.99419 1.82754 6.86956 1.85921C6.74493 1.89087 6.61505 1.89638 6.48817 1.8754C6.36129 1.85441 6.24017 1.80737 6.13252 1.73729C6.02486 1.6672 5.93302 1.5756 5.86282 1.46829C5.79149 1.36203 5.74269 1.24239 5.71941 1.1167C5.69613 0.991012 5.69886 0.86193 5.72744 0.737329C5.75602 0.612729 5.80984 0.495234 5.88562 0.39207C5.96139 0.288906 6.05751 0.20224 6.1681 0.137359C6.27869 0.0724779 6.40141 0.0307452 6.52876 0.0147425C6.65611 -0.00126012 6.7854 0.00879512 6.90871 0.044284C7.03202 0.0797729 7.14675 0.139963 7.24588 0.221148C7.34502 0.302333 7.42647 0.402794 7.48524 0.516418C7.51938 0.580959 7.57381 0.658806 7.63616 0.680484C8.4773 0.976091 8.84642 1.47813 8.84988 2.36396C8.85483 3.61372 8.85895 4.86366 8.86225 6.11375V6.29899H9.46837C9.72567 8.31897 8.5535 10.5001 6.00878 11.1997C6.00878 11.4371 6.02413 11.6825 6.00483 11.9249C5.99336 12.1694 5.95367 12.4117 5.88657 12.6472C5.77821 12.9817 5.52933 13.1852 5.16863 13.233C5.13952 13.2388 5.11091 13.2469 5.08303 13.2571C4.87769 15.1357 5.93012 16.8694 7.64803 17.2823C8.89887 17.5828 9.95525 17.1916 10.8008 16.2476C11.451 15.52 11.7132 14.6425 11.7137 13.6798C11.7137 11.6785 11.7068 9.67729 11.7167 7.67603C11.7221 6.55568 12.1947 5.66936 13.1803 5.10968C14.4034 4.41451 15.9259 4.8658 16.6646 6.10242C16.9508 6.58806 17.1 7.14158 17.0966 7.70461C17.0966 7.87015 17.0966 8.03619 17.0966 8.18596C17.3692 8.29681 17.6408 8.37759 17.8858 8.51308C18.4488 8.82642 18.7937 9.31368 18.9352 9.94185C18.9515 10.0133 18.9743 10.0828 18.9941 10.1532L19 10.6661ZM8.25069 6.94392C8.16905 8.76683 6.82025 9.94285 5.19832 10.0714C4.37845 10.1365 3.60756 9.95862 2.93068 9.48023C2.05589 8.86438 1.62147 8.00219 1.57743 6.94491H0.643264C0.616545 8.93779 2.45322 10.8124 4.95142 10.708C7.3096 10.6094 8.91469 8.73973 8.85334 6.94195L8.25069 6.94392ZM16.7809 11.9751C17.1989 11.9724 17.5991 11.8064 17.8952 11.5127C18.1914 11.219 18.3598 10.8212 18.3642 10.405C18.3642 9.5492 17.6468 8.8284 16.7809 8.82594C15.915 8.82347 15.203 9.53638 15.201 10.4025C15.201 10.6091 15.2418 10.8137 15.3212 11.0045C15.4005 11.1954 15.5169 11.3688 15.6636 11.5149C15.8104 11.6609 15.9846 11.7767 16.1763 11.8557C16.368 11.9347 16.5734 11.9753 16.7809 11.9751ZM4.10185 11.346C4.12016 11.6647 4.1256 11.9948 4.16321 12.321C4.18795 12.5338 4.30374 12.6092 4.52095 12.6132C4.66939 12.6156 4.81783 12.6132 4.96626 12.6132C5.19783 12.6102 5.31261 12.5393 5.33834 12.3176C5.37693 11.9919 5.38138 11.6623 5.39969 11.347H4.10334L4.10185 11.346ZM2.85251 1.25002C2.89257 1.25054 2.93233 1.24314 2.96949 1.22825C3.00666 1.21336 3.04048 1.1913 3.06902 1.1633C3.09755 1.1353 3.12022 1.10193 3.13572 1.06515C3.15121 1.02836 3.15922 0.988891 3.15928 0.949003C3.16034 0.907588 3.15304 0.866381 3.13781 0.82783C3.12257 0.789279 3.09972 0.75417 3.0706 0.724579C3.04148 0.694988 3.00669 0.671512 2.9683 0.655561C2.9299 0.63961 2.88867 0.63151 2.84707 0.631721C2.76624 0.633898 2.68925 0.666546 2.63167 0.723064C2.57408 0.779581 2.54019 0.855739 2.53683 0.936181C2.53623 0.977602 2.54399 1.01873 2.55965 1.05711C2.5753 1.09549 2.59854 1.13035 2.62798 1.15962C2.65742 1.18889 2.69247 1.21198 2.73103 1.22751C2.7696 1.24304 2.81091 1.25069 2.85251 1.25002ZM6.96274 0.95047C6.96329 0.869844 6.93284 0.792064 6.87764 0.733071C6.82244 0.674079 6.74668 0.638344 6.66587 0.633188C6.62436 0.63093 6.58281 0.637045 6.54373 0.651135C6.50464 0.665224 6.46882 0.687005 6.43838 0.715197C6.40794 0.743389 6.38352 0.777399 6.36659 0.8152C6.34965 0.853002 6.34053 0.893808 6.33979 0.935194C6.33807 0.974999 6.3443 1.01476 6.3581 1.05216C6.37189 1.08955 6.39299 1.12385 6.42019 1.15307C6.44738 1.1823 6.48012 1.20588 6.51651 1.22243C6.55291 1.23898 6.59223 1.24821 6.63222 1.24954C6.67379 1.25214 6.71545 1.24638 6.75475 1.23265C6.79405 1.21892 6.83017 1.19749 6.86099 1.1696C6.89181 1.14171 6.91669 1.10796 6.93417 1.07032C6.95165 1.03268 6.96137 0.991915 6.96274 0.95047Z" fill="black"/>
<path d="M16.7869 11.344C16.663 11.345 16.5402 11.3217 16.4254 11.2753C16.3106 11.2289 16.2062 11.1604 16.1181 11.0736C16.03 10.9869 15.96 10.8838 15.9121 10.77C15.8641 10.6563 15.8393 10.5342 15.8389 10.4108C15.8379 10.286 15.8618 10.1621 15.909 10.0464C15.9563 9.93076 16.0261 9.82555 16.1144 9.73685C16.2027 9.64815 16.3078 9.57771 16.4236 9.5296C16.5393 9.4815 16.6635 9.45667 16.7889 9.45654C17.0365 9.46218 17.2721 9.56407 17.4452 9.74043C17.6183 9.9168 17.7153 10.1536 17.7153 10.4003C17.7153 10.6469 17.6183 10.8837 17.4452 11.0601C17.2721 11.2364 17.0365 11.3383 16.7889 11.344H16.7869ZM16.7909 10.0911C16.7099 10.0901 16.6317 10.1203 16.5726 10.1754C16.5135 10.2305 16.478 10.3062 16.4737 10.3867C16.4709 10.428 16.4766 10.4695 16.4905 10.5085C16.5044 10.5475 16.5261 10.5833 16.5545 10.6136C16.5828 10.6439 16.6171 10.6681 16.6552 10.6846C16.6933 10.7012 16.7344 10.7098 16.776 10.7099C16.8176 10.711 16.859 10.7039 16.8977 10.6889C16.9365 10.6739 16.9718 10.6514 17.0017 10.6226C17.0316 10.5938 17.0555 10.5594 17.0718 10.5214C17.0882 10.4833 17.0968 10.4424 17.0971 10.401C17.0944 10.3205 17.0614 10.244 17.0047 10.1866C16.9479 10.1292 16.8716 10.0951 16.7909 10.0911Z" fill="black"/>
</g>
<defs>
<clipPath id="clip0_250_310">
<rect width="19" height="18" fill="white"/>
</clipPath>
</defs>
</svg>
