<svg width="4" height="15" viewBox="0 0 4 15" fill="none" xmlns="http://www.w3.org/2000/svg">
<path fill-rule="evenodd" clip-rule="evenodd" d="M3.75 1.875C3.75 2.91053 2.91053 3.75 1.875 3.75C0.839466 3.75 0 2.91053 0 1.875C0 0.839466 0.839466 0 1.875 0C2.91053 0 3.75 0.839466 3.75 1.875ZM3.75 7.125C3.75 8.16053 2.91053 9 1.875 9C0.839466 9 0 8.16053 0 7.125C0 6.08947 0.839466 5.25 1.875 5.25C2.91053 5.25 3.75 6.08947 3.75 7.125ZM1.875 15C2.91053 15 3.75 14.1605 3.75 13.125C3.75 12.0895 2.91053 11.25 1.875 11.25C0.839466 11.25 0 12.0895 0 13.125C0 14.1605 0.839466 15 1.875 15Z" fill="black"/>
</svg>
