<svg width="22" height="19" viewBox="0 0 22 19" fill="none" xmlns="http://www.w3.org/2000/svg">
<path d="M0 6.52943V6.10478C0.0613927 5.99347 0.121657 5.88216 0.18474 5.77085C1.19518 4.01272 2.21239 2.25904 3.20988 0.492554C3.41039 0.13692 3.65709 -0.00110642 4.06544 6.67346e-06C8.69261 0.0100245 13.3196 0.0120644 17.9464 0.00612789H18.1396C18.255 0.00318619 18.3689 0.0330984 18.4677 0.0923004C18.5665 0.151502 18.6459 0.2375 18.6966 0.340057C19.7634 2.19522 20.83 4.05186 21.8964 5.90999C21.9646 6.02529 22.0004 6.15654 22 6.29011C21.9437 7.49448 21.3849 8.405 20.3103 8.98325C20.1655 9.06172 20.1115 9.13908 20.112 9.30493C20.1184 12.3058 20.1197 15.3067 20.116 18.3077C20.116 18.8041 19.9194 19 19.4153 19H2.59089C2.08397 19 1.88966 18.8074 1.88966 18.3093C1.88966 15.3229 1.89116 12.3361 1.89416 9.3489C1.89416 9.15633 1.84403 9.04948 1.66323 8.95932C1.13267 8.6944 0.733331 8.28812 0.427494 7.78444C0.191498 7.39319 0.0923707 6.96298 0 6.52943ZM2.97783 17.9119H4.87593V17.6164C4.87593 15.8472 4.87255 14.0773 4.87593 12.3081C4.87931 11.1104 5.6577 10.3512 6.87035 10.3496C7.32094 10.3496 7.77434 10.3268 8.22212 10.3574C8.51613 10.3774 8.82872 10.4242 9.09063 10.5466C9.80707 10.8805 10.1366 11.4838 10.1388 12.258C10.1428 14.0629 10.1388 15.8677 10.1388 17.6721V17.9086H19.0199V9.34667C18.4674 9.35502 17.9453 9.26431 17.4547 9.02499C16.9672 8.77962 16.5482 8.41953 16.2347 7.97645C15.5785 8.85413 14.7235 9.3361 13.6292 9.33944C12.5348 9.34278 11.6697 8.85469 11.0158 7.99148C9.67696 9.85536 6.97962 9.72068 5.76923 7.9848C5.07926 8.91257 4.14992 9.36782 2.97783 9.34667V17.9119ZM1.58663 5.50649H20.4162C20.3948 5.46086 20.3846 5.43581 20.3711 5.41244C19.5657 4.01105 18.7574 2.61077 17.9577 1.2066C17.8833 1.07637 17.7859 1.08138 17.671 1.08138C13.2237 1.08138 8.77634 1.08045 4.32903 1.0786C4.2634 1.07224 4.1974 1.08651 4.14046 1.11939C4.08352 1.15227 4.03854 1.20207 4.01193 1.2617C3.2403 2.61671 2.46435 3.96968 1.68408 5.32061C1.65535 5.37459 1.62606 5.4308 1.58889 5.50649H1.58663ZM9.06078 17.9136C9.06528 17.8635 9.07204 17.8229 9.07204 17.7817C9.07204 15.9225 9.07204 14.0629 9.07204 12.2029C9.07204 11.7343 8.74987 11.4237 8.27281 11.4154C7.8149 11.4087 7.35699 11.4154 6.89851 11.4154C6.24966 11.4154 5.97086 11.6903 5.97086 12.3303C5.97086 14.1113 5.97086 15.8922 5.97086 17.6732V17.9125L9.06078 17.9136ZM5.18571 6.60568H1.13041C1.32867 7.59522 2.16114 8.27532 3.15806 8.27532C3.64052 8.27608 4.1079 8.10929 4.47853 7.8041C4.84916 7.49891 5.09947 7.07472 5.18571 6.60568ZM6.36851 6.59733C6.50876 7.60969 7.5023 8.3499 8.57808 8.26419C9.65386 8.17848 10.3804 7.24849 10.3883 6.59733H6.36851ZM11.6162 6.59733C11.6483 7.30804 12.4436 8.26697 13.6129 8.27142C14.7821 8.27588 15.5898 7.31694 15.6259 6.59733H11.6162ZM20.8775 6.60512H16.8379C16.9213 7.47166 17.7842 8.22189 18.7372 8.26864C19.2378 8.29755 19.7319 8.14463 20.1264 7.83865C20.5209 7.53268 20.7886 7.09477 20.8792 6.60735L20.8775 6.60512Z" fill="#008036"/>
<path d="M14.1203 15.5455C13.6618 15.5455 13.2039 15.5488 12.7455 15.5455C11.7767 15.5383 11.1684 14.9366 11.1656 13.9755C11.1615 13.2891 11.1615 12.6027 11.1656 11.9163C11.1712 10.9601 11.7851 10.354 12.7539 10.3524C13.6776 10.3501 14.6013 10.3501 15.525 10.3524C16.4927 10.3524 17.1105 10.9595 17.1156 11.914C17.119 12.6001 17.119 13.2865 17.1156 13.9733C17.1117 14.9433 16.5034 15.5411 15.5166 15.5461C15.0514 15.5455 14.5861 15.5455 14.1203 15.5455ZM14.1288 14.4786C14.6013 14.4786 15.0733 14.4786 15.5459 14.4786C15.8872 14.4786 16.0359 14.335 16.037 14.0055C16.0404 13.3006 16.0404 12.5936 16.037 11.8845C16.037 11.569 15.8816 11.4181 15.5588 11.417C14.6148 11.4137 13.6705 11.4137 12.7258 11.417C12.3951 11.417 12.247 11.5706 12.2453 11.9035C12.2431 12.6036 12.2431 13.3035 12.2453 14.0033C12.2453 14.3372 12.3918 14.4764 12.7331 14.478C13.1989 14.4786 13.6641 14.4769 14.1299 14.4769L14.1288 14.4786Z" fill="#008036"/>
</svg>
