<svg width="44" height="44" viewBox="0 0 44 44" fill="none" xmlns="http://www.w3.org/2000/svg">
<g clip-path="url(#clip0_1907_4809)">
<path d="M0.0919074 20.0174C0.509467 15.253 2.46667 10.7543 5.66772 7.20181C8.86878 3.64928 13.1396 1.23621 17.8337 0.327623C19.2054 0.0415455 20.6059 -0.0817776 22.0065 -0.0398771C22.0496 -0.00258564 22.0838 0.0439099 22.1065 0.0961629C22.1292 0.148416 22.14 0.205068 22.1379 0.262007C22.2036 1.16216 22.2036 2.06591 22.1379 2.96606C22.0329 3.21546 21.8096 3.20234 21.5997 3.21547C20.0598 3.2683 18.5316 3.50184 17.0462 3.91121C14.1158 4.72293 11.4271 6.23576 9.21171 8.31913C6.99637 10.4025 5.32105 12.9938 4.33047 15.8694C3.84199 17.3278 3.52926 18.8393 3.39882 20.3718C3.06214 24.3552 4.00904 28.3418 6.10119 31.7479C8.19334 35.154 11.3207 37.8006 15.0252 39.3002C17.0976 40.1126 19.2958 40.5568 21.5209 40.6128C21.7439 40.6128 21.9935 40.6129 22.1248 40.836C22.2035 41.7576 22.2035 42.6842 22.1248 43.6057C22.1238 43.6552 22.1127 43.7039 22.0924 43.749C22.0721 43.7942 22.0429 43.8347 22.0065 43.8683C18.5998 43.9359 15.2302 43.1508 12.204 41.5843C9.34294 40.1859 6.82485 38.1742 4.82898 35.6922C2.83311 33.2103 1.40841 30.319 0.656089 27.2239C0.0359878 24.835 -0.154979 22.355 0.0919074 19.8993" fill="#78909C"/>
<path d="M22.0066 43.9865V40.8887V40.8231C22.2613 40.7079 22.542 40.6625 22.82 40.6918C23.1203 40.7771 23.4386 40.7771 23.7389 40.6918C23.844 40.6353 23.9608 40.6039 24.0801 40.6C24.2445 40.665 24.4273 40.665 24.5917 40.6C25.8663 40.3955 27.1187 40.0702 28.3318 39.6285C29.2359 39.2982 30.1133 38.8989 30.9563 38.4341C32.2334 37.7122 33.4376 36.8682 34.5519 35.9138C35.0792 35.5766 35.527 35.1287 35.8641 34.6011C37.2282 32.9936 38.3548 31.199 39.2101 29.2718C39.8276 27.7795 40.268 26.2199 40.5224 24.625C40.5874 24.4605 40.5874 24.2775 40.5224 24.113C40.5263 23.9937 40.5578 23.8769 40.6143 23.7718C40.6997 23.4581 40.6997 23.1272 40.6143 22.8135C40.6931 22.2359 40.6143 21.6453 40.6143 21.0677C40.6935 20.8067 40.6935 20.528 40.6143 20.267C40.5575 20.1386 40.5262 20.0004 40.5224 19.86C40.5582 19.7795 40.5768 19.6922 40.5768 19.6041C40.5768 19.5159 40.5582 19.4287 40.5224 19.3482C40.4279 18.985 40.3535 18.6169 40.2994 18.2455C39.6287 15.088 38.1757 12.1496 36.074 9.70015C35.9809 9.61162 35.9014 9.50992 35.8378 9.39826C35.7411 9.12885 35.5433 8.90757 35.2865 8.78128C35.2355 8.7622 35.1894 8.73244 35.151 8.69395C35.1125 8.65545 35.0826 8.60914 35.0635 8.55815C35.0119 8.44753 34.9372 8.3493 34.8444 8.27005C34.7515 8.19079 34.6429 8.13238 34.5256 8.09875C33.6464 7.45556 32.8196 6.78612 31.9011 6.14292C29.8252 4.83856 27.5169 3.94716 25.1033 3.51762C24.9404 3.50479 24.7809 3.46483 24.6311 3.39945C24.5506 3.36362 24.4633 3.34513 24.3751 3.34513C24.287 3.34513 24.1997 3.36362 24.1191 3.39945C23.9749 3.4076 23.831 3.38057 23.6995 3.32069C23.4529 3.23568 23.1848 3.23568 22.9382 3.32069C22.6246 3.37939 22.3003 3.32843 22.0197 3.17632V0.0522085C25.9833 0.00616456 29.8801 1.07499 33.2659 3.1369C35.7807 4.59727 37.9713 6.55527 39.7041 8.8912C41.4369 11.2271 42.6755 13.892 43.3439 16.7229C44.0537 19.6023 44.1732 22.5956 43.695 25.5224C43.2169 28.4492 42.151 31.2488 40.5618 33.7524C38.9725 36.2559 36.8928 38.4116 34.4481 40.0893C32.0033 41.767 29.2442 42.932 26.3371 43.514C24.9175 43.8428 23.4637 44.0014 22.0066 43.9865Z" fill="#617D8C"/>
<path d="M22.0065 40.8886C17.0052 40.8886 12.2088 38.9013 8.67244 35.3638C5.13604 31.8264 3.14917 27.0286 3.14917 22.0258C3.14917 17.0231 5.13604 12.2253 8.67244 8.68785C12.2088 5.15039 17.0052 3.16309 22.0065 3.16309C22.0767 3.22772 22.1192 3.31717 22.1247 3.41249C22.21 4.35129 22.21 5.29585 22.1247 6.23464C21.8885 6.5103 21.5602 6.48406 21.2453 6.49719C21.0021 6.41887 20.7407 6.41887 20.4975 6.49719C19.6708 6.68096 18.8176 6.77286 18.004 7.00914C14.6063 7.91129 11.6224 9.95523 9.55315 12.7979C7.79745 15.1096 6.75314 17.8829 6.54803 20.7788C6.46929 21.4416 6.46929 22.1113 6.54803 22.7741C6.55452 22.822 6.55452 22.8705 6.54803 22.9184C6.46901 23.1436 6.46901 23.389 6.54803 23.6142C6.7055 24.1392 6.74486 24.7037 6.86296 25.2419C7.29741 27.3377 8.16347 29.3199 9.4061 31.0624C10.6487 32.8049 12.2407 34.2693 14.0804 35.3623C14.2223 35.4497 14.3717 35.5244 14.5267 35.5855C16.5061 36.7197 18.7193 37.3843 20.996 37.5282C21.3766 37.5282 21.8226 37.5282 22.1506 37.817C22.2359 38.747 22.2359 39.6829 22.1506 40.6129C22.1446 40.7119 22.1028 40.8053 22.0327 40.8755L22.0065 40.8886Z" fill="#617D8C"/>
<path d="M21.9936 6.27495C21.9936 5.23795 21.9936 4.18781 21.9936 3.1377C22.3216 3.1377 22.6366 3.30835 22.9778 3.22959C23.2307 3.15701 23.4991 3.15701 23.7521 3.22959L24.1587 3.32149C24.2332 3.28896 24.3138 3.27213 24.3951 3.27213C24.4764 3.27213 24.5567 3.28896 24.6312 3.32149C25.1692 3.4265 25.7204 3.51838 26.2584 3.64965C29.1138 4.33251 31.7668 5.68197 34.0006 7.5876C34.2106 7.77137 34.4336 7.9289 34.6436 8.09955C34.844 8.22769 35.0143 8.39789 35.1424 8.59836L35.3391 8.79521C35.5762 8.94727 35.7776 9.14878 35.9296 9.38592C37.3108 10.9517 38.4398 12.7231 39.2759 14.6365C39.8474 15.8923 40.2577 17.2155 40.4965 18.5745C40.4965 18.8764 40.6013 19.1651 40.6538 19.4539C40.6867 19.5307 40.7035 19.6133 40.7035 19.6968C40.7035 19.7802 40.6867 19.8628 40.6538 19.9396L40.7458 20.3465C40.8176 20.5997 40.8176 20.8679 40.7458 21.121C40.8245 21.7442 40.8245 22.3749 40.7458 22.9981C40.8247 23.3171 40.8247 23.6505 40.7458 23.9694L40.6538 24.2714C40.6863 24.3459 40.7032 24.4263 40.7032 24.5077C40.7032 24.589 40.6863 24.6694 40.6538 24.7439C40.4964 25.5315 40.3915 26.3191 40.1685 27.0804C39.8981 28.0507 39.5423 28.9951 39.1055 29.9026C38.715 30.7409 38.2768 31.556 37.7932 32.3441C37.4134 32.9469 36.9737 33.5099 36.4809 34.0244C36.2579 34.2606 36.2185 34.6282 35.8773 34.7726C35.4896 35.2571 35.0495 35.6974 34.5651 36.0852C33.3466 37.1714 31.9976 38.1018 30.5495 38.8549C29.4659 39.4214 28.3325 39.8871 27.1638 40.2463C26.3117 40.528 25.4318 40.7172 24.5393 40.8107C24.4648 40.8433 24.3844 40.86 24.3031 40.86C24.2219 40.86 24.1415 40.8433 24.067 40.8107L23.7652 40.9026C23.4419 40.9817 23.1044 40.9817 22.781 40.9026L21.9016 40.9945V37.8704C22.7021 37.7129 23.5158 37.7129 24.3163 37.5816C26.1004 37.321 27.8164 36.7146 29.3683 35.7964C30.0142 35.4552 30.633 35.0646 31.2188 34.6281C31.3894 34.5231 31.5467 34.405 31.7173 34.3131C31.8722 34.2302 32.0103 34.1188 32.1242 33.985C33.065 33.0334 33.9418 32.0204 34.7487 30.9527C35.8996 29.2244 36.7061 27.2901 37.1239 25.2559C37.1455 25.0449 37.1938 24.8375 37.2681 24.6389C37.3331 24.4745 37.3331 24.2914 37.2681 24.1269C37.2611 24.0122 37.2886 23.8979 37.3469 23.7988C37.4254 23.5198 37.4254 23.2246 37.3469 22.9456C37.5669 19.423 36.5351 15.936 34.4337 13.1007C33.8608 12.2914 33.2055 11.5435 32.4785 10.8692C32.3174 10.728 32.172 10.5695 32.0453 10.3967C32.0014 10.3176 31.9415 10.2486 31.8691 10.1943C31.7968 10.14 31.7139 10.1017 31.6256 10.0817C30.8777 9.60911 30.1819 9.07087 29.4077 8.6377C27.6998 7.66844 25.8184 7.04411 23.87 6.80004C23.7251 6.78085 23.5839 6.74103 23.4503 6.68186C23.1927 6.58279 22.9073 6.58279 22.6497 6.68186C22.3863 6.63709 22.1508 6.49105 21.9936 6.27495Z" fill="#556F7A"/>
<path d="M34.6565 35.9406C35.0624 35.4726 35.5009 35.034 35.9688 34.6279C35.6764 35.1899 35.2183 35.6482 34.6565 35.9406Z" fill="#69808C"/>
<path d="M35.9425 9.38563C35.7083 9.23 35.5076 9.02916 35.3521 8.79492C35.4995 8.82001 35.6355 8.89035 35.7413 8.99618C35.8471 9.102 35.9174 9.23809 35.9425 9.38563Z" fill="#6D828E"/>
<path d="M40.7588 23.8249V22.8535C40.8302 23.0055 40.8671 23.1713 40.8671 23.3392C40.8671 23.5071 40.8302 23.6729 40.7588 23.8249Z" fill="#768894"/>
<path d="M35.1553 8.54569C34.9608 8.41036 34.7918 8.24145 34.6565 8.04688C34.9189 8.07313 35.1291 8.24378 35.1553 8.54569Z" fill="#6D828F"/>
<path d="M22.8857 40.7578H23.8699C23.7174 40.8351 23.5488 40.8753 23.3778 40.8753C23.2069 40.8753 23.0383 40.8351 22.8857 40.7578Z" fill="#748792"/>
<path d="M23.7651 3.24253H22.9907C23.1064 3.16896 23.2406 3.12988 23.3777 3.12988C23.5149 3.12988 23.6493 3.16896 23.7651 3.24253Z" fill="#7B8C98"/>
<path d="M40.7588 21.0156V20.2412C40.8323 20.357 40.8712 20.4913 40.8712 20.6284C40.8712 20.7656 40.8323 20.8999 40.7588 21.0156Z" fill="#7A8C97"/>
<path d="M24.6442 3.33426H24.1716C24.2012 3.30073 24.2376 3.27389 24.2783 3.2555C24.319 3.23711 24.3634 3.22754 24.4081 3.22754C24.4528 3.22754 24.4968 3.23711 24.5375 3.2555C24.5782 3.27389 24.6146 3.30073 24.6442 3.33426Z" fill="#7A8C98"/>
<path d="M40.6799 19.887V19.4014C40.7121 19.4331 40.7375 19.4709 40.7549 19.5126C40.7723 19.5543 40.7815 19.599 40.7815 19.6442C40.7815 19.6894 40.7723 19.7341 40.7549 19.7758C40.7375 19.8174 40.7121 19.8553 40.6799 19.887Z" fill="#798B97"/>
<path d="M40.6799 24.6386V24.166C40.7117 24.1966 40.737 24.2333 40.7543 24.2739C40.7715 24.3145 40.7802 24.3582 40.7802 24.4023C40.7802 24.4464 40.7715 24.49 40.7543 24.5306C40.737 24.5712 40.7117 24.6079 40.6799 24.6386Z" fill="#768995"/>
<path d="M24.1716 40.666H24.6442C24.6146 40.6995 24.5782 40.7264 24.5375 40.7448C24.4968 40.7632 24.4528 40.7727 24.4081 40.7727C24.3634 40.7727 24.319 40.7632 24.2783 40.7448C24.2376 40.7264 24.2012 40.6995 24.1716 40.666Z" fill="#768A95"/>
<path d="M6.39088 22.8665C6.20335 20.7622 6.49949 18.6428 7.25685 16.6707C7.66553 15.4681 8.23976 14.3282 8.96285 13.2841C9.1072 13.0609 9.27761 12.8772 9.43509 12.6672C9.68401 12.5218 9.96704 12.4453 10.2552 12.4453C10.5435 12.4453 10.8265 12.5218 11.0754 12.6672C11.6374 12.9702 12.2157 13.2419 12.8077 13.481C15.0011 14.4705 17.3335 15.117 19.7233 15.3975C19.9989 15.3975 20.3136 15.3975 20.5105 15.6994C20.6021 16.3558 20.6286 17.0198 20.5893 17.6815C20.5893 18.1803 20.5893 18.6922 20.5893 19.191C20.5893 20.1361 20.5893 21.0681 20.5893 22.0132C20.5999 22.3082 20.7013 22.5927 20.8799 22.8277C21.0584 23.0627 21.3053 23.2367 21.5866 23.3259C21.7572 23.4046 21.9805 23.3915 22.0986 23.5884C22.1699 23.822 22.1964 24.0669 22.1771 24.3104V36.9512C22.2317 37.2284 22.1753 37.516 22.0198 37.7519C19.612 37.7089 17.2427 37.14 15.0779 36.0849L14.3561 35.6779C14.1221 35.4097 13.9869 35.0696 13.9726 34.7139C13.9582 34.3582 14.0656 34.0082 14.2772 33.722C14.5606 33.3024 14.815 32.8638 15.0385 32.4094C15.4671 31.4775 15.6562 30.4533 15.5885 29.4298C15.5209 28.4063 15.1987 27.4159 14.6511 26.5487C14.1035 25.6814 13.3479 24.9647 12.453 24.4638C11.5582 23.9628 10.5524 23.6936 9.52703 23.6803C9.05502 23.6975 8.58522 23.7546 8.12283 23.851C7.76382 23.9253 7.39012 23.8664 7.07136 23.6853C6.75259 23.5041 6.51078 23.213 6.39088 22.8665Z" fill="#AC6DAD"/>
<path d="M12.7288 13.547C12.3033 13.4428 11.8993 13.2651 11.5348 13.022C11.2312 12.8148 10.8861 12.6758 10.5237 12.6146C10.1613 12.5534 9.78986 12.5715 9.43506 12.6675C10.6743 10.9776 12.2439 9.55699 14.0485 8.49196C15.853 7.42694 17.855 6.73971 19.9331 6.47188C20.0906 6.47188 20.2482 6.47187 20.4057 6.37998C20.6292 6.31979 20.8646 6.31979 21.0881 6.37998L21.9672 6.28809C22.2821 6.28809 22.5576 6.44555 22.8726 6.39304C23.122 6.3274 23.3843 6.3274 23.6338 6.39304C24.3818 6.53743 25.1297 6.64247 25.8646 6.82624C28.0306 7.38452 30.0556 8.39063 31.8091 9.7797H31.8879C32.0323 9.87158 32.1504 9.98978 32.2817 10.0817C33.1359 10.8941 33.9254 11.7719 34.6435 12.707C34.6435 12.707 34.5518 12.707 34.5124 12.707C34.1458 12.5995 33.759 12.5791 33.3831 12.6474C33.0072 12.7158 32.6524 12.871 32.347 13.1007C32.0094 13.3317 31.6141 13.4635 31.2055 13.4814C30.6544 13.127 30.2737 12.5888 29.7488 12.1687C27.3703 10.2656 24.3753 9.30363 21.3338 9.4658C18.2923 9.62796 15.4167 10.9029 13.2539 13.0482C13.1227 13.3238 12.9913 13.547 12.7288 13.547Z" fill="#465B65"/>
<path d="M6.39071 22.8662C6.6246 23.2623 6.99468 23.5594 7.43193 23.702C7.86918 23.8446 8.34334 23.8228 8.76566 23.6406C9.02171 23.5949 9.28395 23.5949 9.54 23.6406C9.66587 23.7878 9.73956 23.9724 9.74985 24.1657C10.3015 27.3739 12.0868 30.2386 14.7234 32.1467C14.8808 32.2517 15.0646 32.3435 15.1171 32.5536C15.0037 32.8211 14.8629 33.0762 14.6971 33.3148C14.387 33.6207 14.1846 34.0193 14.1207 34.4502C14.0568 34.8811 14.1348 35.3211 14.3428 35.7039C12.4492 34.641 10.7973 33.196 9.49163 31.4605C8.18592 29.7251 7.2548 27.7371 6.75786 25.6227C6.60039 24.9664 6.5088 24.3101 6.37758 23.6144C6.31229 23.3961 6.31229 23.1633 6.37758 22.945L6.39071 22.8662Z" fill="#465B65"/>
<path d="M21.1143 6.3667H20.4319C20.533 6.29954 20.6517 6.26367 20.7731 6.26367C20.8945 6.26367 21.0132 6.29954 21.1143 6.3667Z" fill="#6A8390"/>
<path d="M6.39094 22.8926V23.562C6.32143 23.4643 6.28394 23.3473 6.28394 23.2273C6.28394 23.1073 6.32143 22.9903 6.39094 22.8926Z" fill="#6A838F"/>
<path d="M31.2843 13.5465C31.7333 13.3663 32.1714 13.1604 32.5966 12.9296C32.8928 12.729 33.236 12.609 33.5926 12.5813C33.9493 12.5537 34.3068 12.6195 34.6303 12.7721C35.9255 14.4525 36.8229 16.4047 37.2549 18.4821C37.5475 19.6535 37.6844 20.8584 37.6617 22.0656C37.6622 22.3084 37.6357 22.5506 37.5829 22.7876C37.6021 22.8384 37.6021 22.8944 37.5829 22.9451C37.4315 23.2733 37.1755 23.5417 36.8547 23.7081C36.534 23.8745 36.1669 23.9293 35.8116 23.864C35.3654 23.864 34.9192 23.7195 34.4993 23.7064C33.0074 23.7263 31.5742 24.2911 30.4696 25.2944C29.3651 26.2978 28.6654 27.6704 28.5022 29.1539C28.353 30.2911 28.5447 31.447 29.0532 32.475C29.2722 32.9292 29.5222 33.3678 29.8013 33.7876C30.0133 34.0722 30.1131 34.4249 30.0817 34.7784C30.0502 35.1319 29.8898 35.4614 29.6309 35.704C28.8836 36.2497 28.043 36.6545 27.1505 36.8986C25.5009 37.4894 23.7586 37.7783 22.0066 37.7518V23.5883C22.0308 23.5439 22.0673 23.5075 22.1117 23.4833C22.3336 23.4351 22.5436 23.3435 22.73 23.2136C22.9163 23.0837 23.0751 22.9182 23.1971 22.7266C23.3191 22.5349 23.402 22.321 23.4409 22.0972C23.4798 21.8733 23.4742 21.644 23.4239 21.4224C23.4239 20.6742 23.4239 19.926 23.4239 19.1778V16.2244C23.4123 16.0468 23.4344 15.8686 23.4893 15.6993C23.5499 15.6021 23.6354 15.5228 23.7369 15.4697C23.8384 15.4167 23.9525 15.3917 24.0669 15.3974C26.3856 15.1327 28.6558 14.5451 30.8118 13.6516C30.9577 13.5767 31.1205 13.5405 31.2843 13.5465Z" fill="#9B52A0"/>
<path d="M29.6309 35.6387C29.8694 35.2995 29.9802 34.887 29.9442 34.4739C29.9082 34.0608 29.7275 33.6737 29.4339 33.381C29.2191 33.1155 29.0547 32.8129 28.9485 32.4883C28.9485 32.2914 29.0928 32.2127 29.224 32.1077C30.5599 31.1634 31.6938 29.9618 32.5591 28.5733C33.4244 27.1848 34.0038 25.6373 34.2632 24.0218C34.2847 23.8572 34.3529 23.7023 34.4599 23.5755C34.8478 23.5239 35.2423 23.5598 35.6145 23.6805C35.9916 23.7841 36.3926 23.759 36.7538 23.6093C37.115 23.4595 37.416 23.1936 37.6092 22.8535C37.6898 23.1099 37.6898 23.3847 37.6092 23.6411L37.5044 23.9561C37.5369 24.0306 37.5538 24.1111 37.5538 24.1924C37.5538 24.2738 37.5369 24.3542 37.5044 24.4287C37.4107 25.0498 37.2747 25.6637 37.0976 26.2664C36.7627 27.4397 36.2867 28.568 35.6802 29.6267C35.234 30.2831 34.8666 31.0051 34.368 31.6351C34.0763 32.081 33.7228 32.4831 33.3181 32.8296C32.9457 33.1388 32.6073 33.4864 32.3079 33.8667C32.1636 33.9585 32.0454 34.0767 31.9142 34.1685L30.0243 35.4812C29.9062 35.6387 29.7621 35.6387 29.6309 35.6387Z" fill="#465B65"/>
<path d="M37.6224 23.6544V22.8668C37.6167 22.8409 37.6167 22.814 37.6224 22.7881C37.6875 22.9232 37.7214 23.0712 37.7214 23.2212C37.7214 23.3712 37.6875 23.5193 37.6224 23.6544Z" fill="#6F7F89"/>
<path d="M23.6206 6.37907H22.8594C22.9725 6.30509 23.1048 6.26562 23.24 6.26562C23.3752 6.26563 23.5074 6.30509 23.6206 6.37907Z" fill="#71808A"/>
<path d="M32.308 10.1202C32.223 10.1052 32.1427 10.0699 32.0742 10.0174C32.0057 9.96482 31.9509 9.89659 31.9143 9.81836C32.0029 9.82228 32.088 9.85329 32.1584 9.90729C32.2288 9.96129 32.2812 10.0356 32.308 10.1202Z" fill="#62747F"/>
<path d="M31.9272 34.1818C31.9571 34.0991 32.01 34.0267 32.0797 33.9731C32.1495 33.9196 32.233 33.8872 32.3207 33.8799C32.2871 33.9602 32.2334 34.0303 32.1643 34.0833C32.0953 34.1363 32.0135 34.1703 31.9272 34.1818Z" fill="#61747F"/>
<path d="M37.5176 24.4413V23.9688C37.5511 23.9983 37.5777 24.0347 37.5961 24.0755C37.6145 24.1162 37.6239 24.1603 37.6239 24.205C37.6239 24.2497 37.6145 24.2939 37.5961 24.3346C37.5777 24.3754 37.5511 24.4117 37.5176 24.4413Z" fill="#6F7F8A"/>
<path d="M20.4187 15.6077C20.4558 15.2226 20.6322 14.8644 20.9146 14.6001C21.1971 14.3359 21.5664 14.1838 21.953 14.1726C22.3396 14.1613 22.7167 14.2915 23.0141 14.5388C23.3115 14.7862 23.5085 15.1336 23.568 15.5158C23.5697 15.5464 23.5697 15.5771 23.568 15.6077V19.2569C23.4941 19.6148 23.2993 19.9363 23.016 20.1671C22.7327 20.3979 22.3783 20.524 22.0129 20.524C21.6475 20.524 21.2934 20.3979 21.0101 20.1671C20.7268 19.9363 20.532 19.6148 20.4581 19.2569L20.4187 15.6077Z" fill="#FDD838"/>
<path d="M20.445 19.2568C20.5071 19.4769 20.6152 19.6813 20.7622 19.8564C20.9092 20.0316 21.0916 20.1734 21.2975 20.2727C21.5035 20.372 21.7283 20.4264 21.9569 20.4323C22.1854 20.4382 22.4125 20.3955 22.6232 20.3069C22.8423 20.2053 23.038 20.0595 23.1983 19.8789C23.3586 19.6982 23.48 19.4865 23.5549 19.2568C23.5549 20.2151 23.5549 21.1864 23.5549 22.1446C23.5192 22.5359 23.34 22.9001 23.0516 23.1667C22.7632 23.4334 22.3861 23.5837 21.9934 23.5886C21.7763 23.5892 21.5614 23.5449 21.3622 23.4585C21.1631 23.372 20.9837 23.2452 20.8359 23.0862C20.688 22.9272 20.5748 22.7393 20.503 22.5344C20.4312 22.3294 20.4025 22.1118 20.4187 21.8953C20.4319 21.0158 20.445 20.1363 20.445 19.2568Z" fill="#F9C02D"/>
</g>
<defs>
<clipPath id="clip0_1907_4809">
<rect width="44" height="44" fill="white"/>
</clipPath>
</defs>
</svg>
