<svg width="20" height="25" viewBox="0 0 20 25" fill="none" xmlns="http://www.w3.org/2000/svg">
<path d="M14.5003 0C14.7496 0.166967 14.822 0.39785 14.8119 0.688085C14.7938 1.24051 14.8119 1.79685 14.8059 2.34797C14.8059 2.75952 14.6317 2.92844 14.2155 2.92844C11.2718 2.92844 8.32837 2.92844 5.38514 2.92844C4.96296 2.92844 4.77599 2.74712 4.77398 2.33297C4.77398 1.77924 4.7847 1.22421 4.76862 0.673085C4.7599 0.376328 4.85373 0.151314 5.11642 0H14.5003Z" fill="#008036"/>
<path d="M16.309 1.44238C16.8304 1.46782 17.3209 1.44238 17.7934 1.52391C18.8039 1.69544 19.5652 2.60789 19.5652 3.60643C19.5652 9.98639 19.5616 16.3661 19.5545 22.7456C19.5545 24.0586 18.5614 24.9997 17.2164 24.9997H2.31464C0.974369 24.9997 -0.000669789 24.0527 3.45219e-07 22.7567C3.45219e-07 16.4342 0.00334447 10.1114 0.0100458 3.7884C0.0100458 2.58311 0.751217 1.67718 1.93132 1.49782C2.36289 1.4326 2.81322 1.48673 3.28767 1.48673C3.28767 1.7561 3.29906 2.03133 3.28767 2.30526C3.23004 3.5386 4.22586 4.40996 5.43746 4.40213C8.34785 4.38256 11.2582 4.39691 14.168 4.39561C15.4546 4.39561 16.3084 3.56599 16.3124 2.32026L16.309 1.44238ZM12.7439 20.0233C13.6151 20.0233 14.4863 20.0272 15.3521 20.0233C15.8111 20.0233 16.1563 19.6972 16.1563 19.287C16.1543 19.1884 16.1322 19.0913 16.0914 19.0011C16.0506 18.9109 15.9918 18.8295 15.9185 18.7616C15.8451 18.6936 15.7586 18.6405 15.6641 18.6053C15.5695 18.5701 15.4687 18.5535 15.3675 18.5565C13.6037 18.5519 11.8399 18.55 10.0734 18.5623C9.89188 18.5726 9.71696 18.6325 9.56884 18.7352C9.30681 18.9106 9.22975 19.227 9.3296 19.5178C9.42945 19.8087 9.72096 20.0168 10.0828 20.0187C10.9721 20.0233 11.858 20.0233 12.7439 20.0233ZM12.7037 10.2571C13.5816 10.2571 14.4595 10.2616 15.3374 10.2571C15.7944 10.2571 16.1147 9.95051 16.1194 9.53962C16.1248 9.11307 15.8031 8.79805 15.3353 8.7974C13.5876 8.79262 11.8401 8.79414 10.0929 8.80197C9.91937 8.8085 9.75077 8.85982 9.60435 8.95067C9.32625 9.12155 9.23243 9.44309 9.32893 9.74441C9.37822 9.89698 9.4772 10.0298 9.61092 10.1227C9.74464 10.2157 9.90582 10.2638 10.0701 10.2597C10.948 10.259 11.8258 10.2551 12.7037 10.2551V10.2571ZM12.7151 15.1402C13.593 15.1402 14.4709 15.1454 15.3487 15.1402C15.8024 15.1363 16.1194 14.8252 16.1194 14.409C16.1194 13.9929 15.8024 13.6792 15.3487 13.6779C13.5934 13.6727 11.8379 13.6742 10.0822 13.6825C9.90835 13.69 9.73993 13.7434 9.59497 13.8371C9.3229 14.0079 9.23176 14.3373 9.33161 14.6354C9.43146 14.9334 9.71962 15.1389 10.0815 15.1408C10.9594 15.1408 11.8372 15.1382 12.7151 15.1382V15.1402ZM5.07559 9.24417C4.93151 9.08829 4.8129 8.93958 4.67351 8.81305C4.53625 8.6849 4.35341 8.61334 4.16321 8.61334C3.973 8.61334 3.79015 8.6849 3.65289 8.81305C3.58122 8.87605 3.52315 8.95231 3.48206 9.03737C3.44097 9.12244 3.41769 9.21461 3.41358 9.30852C3.40946 9.40243 3.42459 9.4962 3.45809 9.58436C3.49158 9.67252 3.54277 9.75332 3.60867 9.82203C3.931 10.1618 4.26875 10.4899 4.62057 10.8003C4.90806 11.056 5.30545 11.0651 5.57752 10.8082C6.37364 10.0542 7.16507 9.29504 7.93237 8.51303C8.31502 8.12171 8.09521 7.49167 7.55978 7.34948C7.25688 7.26926 7.0049 7.37166 6.78845 7.58298C6.23626 8.11975 5.68005 8.65783 5.0776 9.24221L5.07559 9.24417ZM5.08498 14.4978C4.95095 14.3504 4.83702 14.2173 4.71104 14.0999C4.38267 13.7947 3.93234 13.7894 3.63413 14.0797C3.33593 14.3699 3.33994 14.8089 3.65625 15.1232C3.94619 15.415 4.24127 15.7024 4.54149 15.9855C4.89867 16.3226 5.31282 16.32 5.67402 15.9809C5.89583 15.7722 6.11162 15.5569 6.33008 15.3437C6.84944 14.8376 7.37214 14.3353 7.88613 13.824C8.00548 13.7138 8.08351 13.5679 8.1078 13.4095C8.13209 13.2511 8.10124 13.0894 8.02016 12.95C7.94936 12.8146 7.83379 12.7063 7.69205 12.6425C7.55032 12.5787 7.39066 12.5632 7.23878 12.5985C7.07116 12.6401 6.91758 12.7235 6.79315 12.8405C6.23224 13.3707 5.68273 13.9166 5.08698 14.4958L5.08498 14.4978ZM5.08832 19.3757C4.93553 19.2172 4.8129 19.0711 4.67083 18.9472C4.52923 18.8191 4.34197 18.7497 4.14872 18.7537C3.95547 18.7577 3.7714 18.8347 3.6355 18.9685C3.49961 19.1023 3.42256 19.2823 3.42068 19.4704C3.4188 19.6586 3.49223 19.84 3.62542 19.9763C3.93502 20.2946 4.25535 20.6051 4.58238 20.9071C4.8826 21.1842 5.30746 21.2051 5.60031 20.9279C6.38436 20.1857 7.15569 19.4278 7.92098 18.67C8.02866 18.5597 8.09647 18.4183 8.11413 18.2672C8.13178 18.1161 8.09832 17.9635 8.01882 17.8325C7.95013 17.7006 7.83833 17.5947 7.70099 17.5314C7.56366 17.4681 7.4086 17.451 7.26023 17.4829C7.08422 17.5237 6.92239 17.6089 6.79113 17.7301C6.22822 18.2565 5.67938 18.8011 5.09033 19.3711L5.08832 19.3757Z" fill="#465B65"/>
</svg>
