<svg clip-rule="evenodd" fill-rule="evenodd" height="461.023mm" image-rendering="optimizeQuality" shape-rendering="geometricPrecision" text-rendering="geometricPrecision" viewBox="0 0 18870 19857" width="438.095mm" xmlns="http://www.w3.org/2000/svg"><path d="m9541 18566c-468 0-807-92-1181-369-132-98-245-214-338-345-100-142-198-334-198-547h3221c0 667-911 1261-1504 1261zm-352-18566h504c104 0 561 171 682 214 276 100 494 274 718 452 125 100 315 350 388 494l170 407c39 120 96 504 88 648l-25 398c133 70 283 131 430 193 136 58 275 137 405 202 267 134 520 291 763 453 129 86 231 160 353 255l495 417c134 102 341 328 447 464l274 334c666 890 1063 1918 1232 3021 112 727 68 2649 68 3595 0 249-46 1035 51 1163 71 94 339 97 493 116 459 55 938 229 1298 525 118 98 216 175 313 295 26 32 44 44 72 80 276 353 434 773 462 1204v275c-19 295-101 590-248 864-86 159-192 293-301 428-233 289-574 499-914 637-270 108-595 171-968 171h-3981c-2 120-90 433-127 541-171 500-420 830-780 1195-320 323-834 596-1271 704-76 19-468 112-541 112h-549c-193-8-380-37-634-123-316-106-613-233-890-418-259-173-491-380-677-629-96-128-177-245-253-400-112-225-203-468-267-721-10-42-18-82-31-136-11-46-25-62-27-125h-3980c-375 0-696-63-968-171-287-115-648-330-859-570-31-35-35-48-68-83-32-34-36-40-63-74-287-361-450-803-473-1252v-220c17-331 112-659 291-955 159-260 353-475 592-654 243-181 496-322 828-417 1143-329 978 352 978-1514 0-1008-47-2825 85-3653 247-1555 887-2745 2023-3750l252-204c119-97 235-175 357-266 344-255 917-573 1303-733l330-126c190-88 102-251 102-612 0-279 121-623 217-816 220-440 596-784 1033-1002 117-59 244-105 375-142l309-71c35-9 73-16 114-20zm-5148 9875 16-1063c0-693 120-1524 394-2143l238-491c87-159 180-303 286-444 232-308 319-404 589-671l296-252c384-309 895-623 1352-820 91-39 165-70 258-106 980-382 2114-468 3156-230 925 212 1623 583 2336 1159l237 219c440 440 590 625 934 1193 124 206 305 612 382 833 419 1196 298 2040 298 3363 0 479-28 2058 37 2410 29 155 96 333 161 446 94 162 100 149 191 265 75 96 71 81 153 151 36 30 45 40 83 69 59 44 117 82 185 118 130 70 286 137 440 169 178 38 371 32 546 62 309 53 601 193 762 453 285 461 150 1004-318 1288-64 39-108 57-176 82-113 43-285 78-438 78h-13978c-268 0-583-70-771-246-455-426-432-1042-32-1377 217-182 392-257 699-289 322-33 489-13 813-174 448-222 764-609 860-1115 62-321 11-1522 11-1934 0-334 0-668 0-1003zm4452-7748c0-422 445-836 881-836 318 0 478 51 717 241 137 110 271 360 271 565v167h-1808c-56 0-61-87-61-137z"/><path d="m15163 2978c0 264 68 356 224 535 46 53 81 67 129 114 86 82 143 159 228 243 85 85 148 169 228 259 158 178 277 352 415 542l277 437c255 426 530 1025 656 1486 33 121 75 234 110 361 63 228 131 482 343 614 205 129 448 161 676 63 57-24 148-91 190-130 103-97 200-312 200-452 0-178-161-704-222-887-154-463-285-766-497-1190-305-610-897-1498-1381-1976-294-291-518-701-1038-605-270 49-538 282-538 586z"/><path d="m30 7050c0 674 931 888 1276 288 55-95 78-234 113-358 190-671 418-1262 781-1863 32-53 58-99 91-152 196-312 581-844 828-1087l235-251c154-154 353-319 353-619 0-187-89-340-189-433-238-221-603-255-869-78l-253 218c-340 328-838 933-1083 1302-556 835-692 1185-1023 2092-22 62-40 124-60 183-40 120-77 233-112 359-30 109-88 260-88 399z"/></svg>