<svg width="16" height="16" viewBox="0 0 16 16" fill="none" xmlns="http://www.w3.org/2000/svg">
<g clip-path="url(#clip0_250_355)">
<path d="M7.981 15.9998C3.52955 15.982 -0.0221136 12.3821 0.000103667 7.91206C0.0218766 3.55222 3.64373 -0.0188417 8.02631 0.00204428C9.07816 0.00588617 10.1189 0.217063 11.0891 0.623486C12.0593 1.02991 12.9399 1.62361 13.6804 2.37064C14.421 3.11767 15.007 4.00337 15.4051 4.97709C15.8031 5.95081 16.0053 6.99344 16.0001 8.04537C15.9792 12.4363 12.3694 16.0167 7.981 15.9998ZM15.4669 8.02892C15.4802 3.90105 12.1405 0.5473 8.00188 0.533524C3.92057 0.519304 0.551091 3.86328 0.532429 7.93827C0.513322 12.0613 3.7886 15.4217 7.91302 15.4617C8.89849 15.4751 9.87685 15.293 10.7914 14.9257C11.706 14.5585 12.5387 14.0134 13.2413 13.3222C13.9438 12.6309 14.5022 11.8071 14.8843 10.8985C15.2663 9.98993 15.4643 9.01457 15.4669 8.02892Z" fill="black"/>
<path d="M1.06871 7.80186C1.11315 5.13201 2.86253 2.58926 5.31088 1.60984C5.61348 1.48852 5.92718 1.39387 6.23956 1.29877C6.46662 1.22856 6.6137 1.29433 6.65814 1.46364C6.70257 1.63295 6.60037 1.74892 6.36887 1.81203C4.82432 2.2333 3.59304 3.10075 2.69279 4.42323C1.98539 5.46442 1.62992 6.62202 1.60104 7.88006C1.60335 7.92987 1.60187 7.97981 1.59659 8.02939C1.57127 8.17293 1.48462 8.25735 1.33754 8.26491C1.27009 8.26722 1.20442 8.24303 1.15459 8.19751C1.10475 8.15199 1.07472 8.08877 1.07093 8.02139C1.06643 7.9483 1.0657 7.87503 1.06871 7.80186Z" fill="black"/>
<path d="M3.46582 8.00126C3.46521 7.73706 3.54312 7.47863 3.68963 7.25879C3.83615 7.03894 4.04468 6.86762 4.28875 6.76652C4.53282 6.66542 4.80143 6.63911 5.06047 6.69096C5.31951 6.74281 5.5573 6.87045 5.74366 7.05771C5.93002 7.24496 6.05656 7.48338 6.10719 7.74268C6.15782 8.00198 6.13026 8.27049 6.02803 8.5141C5.92579 8.75772 5.75348 8.96546 5.53298 9.11096C5.31247 9.25646 5.0537 9.33316 4.78953 9.33131C4.43836 9.32816 4.10256 9.18682 3.85482 8.93789C3.60708 8.68897 3.46733 8.35247 3.46582 8.00126ZM5.59868 8.00838C5.60005 7.85065 5.55475 7.69603 5.46848 7.56397C5.38222 7.43192 5.25883 7.32832 5.11385 7.26621C4.96887 7.20409 4.80876 7.18623 4.65366 7.21487C4.49855 7.24351 4.35538 7.31739 4.24214 7.42719C4.1289 7.53699 4.05065 7.67781 4.01723 7.83197C3.98381 7.98613 3.99671 8.14674 4.05431 8.29358C4.11191 8.44043 4.21164 8.56696 4.34095 8.65727C4.47027 8.74758 4.6234 8.79764 4.78109 8.80115C4.88687 8.80351 4.99205 8.78486 5.09057 8.74628C5.18909 8.70769 5.27898 8.64993 5.35502 8.57636C5.43106 8.50279 5.49176 8.41486 5.53358 8.31767C5.57541 8.22048 5.59753 8.11596 5.59868 8.01016V8.00838Z" fill="black"/>
<path d="M7.99299 9.33426C7.72957 9.3332 7.47236 9.25412 7.25385 9.10699C7.03534 8.95986 6.86531 8.75128 6.76523 8.50759C6.66516 8.2639 6.63951 7.99603 6.69155 7.73778C6.74359 7.47952 6.87097 7.24247 7.0576 7.05656C7.24424 6.87065 7.48178 6.7442 7.74022 6.6932C7.99866 6.64219 8.26641 6.66891 8.50968 6.76996C8.75295 6.87102 8.96083 7.04188 9.10707 7.261C9.25331 7.48012 9.33136 7.73766 9.33136 8.00111C9.33136 8.17663 9.29671 8.35042 9.22939 8.51252C9.16206 8.67461 9.06339 8.82182 8.93904 8.94568C8.81469 9.06955 8.66711 9.16763 8.50477 9.23431C8.34242 9.301 8.16849 9.33496 7.99299 9.33426ZM8.00543 7.20122C7.84677 7.20008 7.69136 7.24615 7.55896 7.33358C7.42656 7.42101 7.32315 7.54586 7.26189 7.69223C7.20062 7.8386 7.18426 7.99987 7.2149 8.15556C7.24555 8.31125 7.32179 8.45432 7.43395 8.56655C7.54611 8.67878 7.68912 8.7551 7.84478 8.78583C8.00043 8.81656 8.16171 8.8003 8.3081 8.73911C8.45449 8.67793 8.57938 8.57458 8.66688 8.44221C8.75438 8.30985 8.80053 8.15444 8.79948 7.99577C8.79751 7.78573 8.71323 7.58485 8.56476 7.43628C8.41628 7.28771 8.21545 7.20331 8.00543 7.20122Z" fill="black"/>
<path d="M12.5332 8.00922C12.5314 8.27345 12.4512 8.53117 12.3026 8.74968C12.1541 8.96819 11.9439 9.13763 11.6989 9.23648C11.4539 9.33533 11.185 9.35914 10.9265 9.30488C10.6679 9.25061 10.4313 9.12072 10.2466 8.93171C10.062 8.74269 9.93772 8.50306 9.88954 8.24326C9.84136 7.98346 9.87146 7.71521 9.97602 7.47256C10.0806 7.2299 10.2549 7.02378 10.4768 6.88039C10.6987 6.73699 10.9582 6.66278 11.2224 6.66718C11.5732 6.6744 11.9071 6.81909 12.1523 7.07009C12.3974 7.3211 12.5342 7.65834 12.5332 8.00922ZM11.1855 8.8011C11.3434 8.8042 11.4987 8.7605 11.6317 8.67549C11.7648 8.59049 11.8698 8.46799 11.9333 8.32344C11.9969 8.17888 12.0163 8.01874 11.989 7.86319C11.9617 7.70765 11.889 7.56367 11.7801 7.44938C11.6711 7.33509 11.5307 7.25561 11.3767 7.22096C11.2226 7.18632 11.0618 7.19807 10.9144 7.2547C10.767 7.31134 10.6396 7.41034 10.5484 7.53923C10.4572 7.66813 10.4061 7.82114 10.4017 7.979C10.3992 8.08445 10.4174 8.18939 10.4555 8.28779C10.4935 8.38618 10.5505 8.47612 10.6233 8.55246C10.6961 8.62881 10.7832 8.69007 10.8797 8.73273C10.9762 8.77539 11.0801 8.79862 11.1855 8.8011Z" fill="black"/>
<path d="M7.50156 1.59938C7.32738 1.62382 7.21051 1.53361 7.19629 1.38385C7.18029 1.22165 7.27717 1.10655 7.45935 1.09144C7.64153 1.07633 7.81482 1.06834 7.98901 1.06922C8.02649 1.06373 8.06472 1.0663 8.10113 1.07673C8.13755 1.08717 8.17133 1.10525 8.20021 1.12976C8.2291 1.15428 8.25243 1.18466 8.26864 1.2189C8.28486 1.25314 8.29359 1.29046 8.29426 1.32835C8.29492 1.36623 8.28751 1.4038 8.27252 1.4386C8.25752 1.47339 8.23528 1.5046 8.20727 1.53012C8.17927 1.55564 8.14616 1.57489 8.11013 1.5866C8.0741 1.59832 8.03599 1.60223 7.99834 1.59806C7.83304 1.60472 7.6673 1.59938 7.50156 1.59938Z" fill="black"/>
</g>
<defs>
<clipPath id="clip0_250_355">
<rect width="16" height="16" fill="white"/>
</clipPath>
</defs>
</svg>
