<svg width="24" height="24" viewBox="0 0 24 24" fill="none" xmlns="http://www.w3.org/2000/svg">
<g clip-path="url(#clip0_1491_3610)">
<path d="M23.9992 12.1611C23.9795 13.9947 23.535 15.7988 22.7008 17.4318C22.486 17.849 22.0895 18.0379 21.6829 17.9241C21.4911 17.8733 21.3233 17.7564 21.2093 17.5941C21.0952 17.4318 21.0421 17.2345 21.0594 17.0369C21.0857 16.8794 21.1364 16.7271 21.2097 16.5853C22.9993 12.6406 22.6277 8.91043 19.9542 5.50374C18.1732 3.23547 15.7573 1.96324 12.8675 1.77362C8.549 1.48741 5.22044 3.24622 3.03218 6.97133C0.324238 11.5823 1.86254 17.7209 6.36289 20.6096C10.1675 23.051 14.9055 22.8099 18.4602 20.0014C18.6228 19.8654 18.8146 19.7689 19.0207 19.7194C19.2029 19.6859 19.391 19.7158 19.5538 19.8042C19.7165 19.8926 19.8439 20.0342 19.9148 20.2053C19.9971 20.3769 20.017 20.5717 19.9711 20.7563C19.9253 20.941 19.8165 21.1039 19.6635 21.217C18.9735 21.7065 18.2942 22.2267 17.5504 22.6209C10.7151 26.2473 2.17463 22.3941 0.342128 14.8759C-1.11457 8.89973 2.14958 2.78898 7.90406 0.718198C14.4896 -1.65096 21.6542 2.04624 23.5576 8.79523C23.8618 9.84851 23.9964 10.9254 23.9992 12.1611Z" fill="black"/>
<path d="M11.9893 10.8135C12.2288 10.8133 12.4629 10.8842 12.6621 11.0171C12.8613 11.1501 13.0165 11.3391 13.1082 11.5603C13.1999 11.7814 13.2239 12.0248 13.1772 12.2596C13.1304 12.4944 13.015 12.7101 12.8456 12.8793C12.6763 13.0485 12.4604 13.1637 12.2255 13.2103C11.9906 13.2569 11.7471 13.2328 11.5259 13.141C11.3047 13.0492 11.1158 12.8939 10.9829 12.6947C10.85 12.4955 10.7793 12.2614 10.7795 12.022C10.7803 11.7016 10.908 11.3945 11.1347 11.168C11.3615 10.9415 11.6687 10.814 11.9893 10.8135Z" fill="black"/>
<path d="M17.4853 10.8135C17.6443 10.8129 17.8018 10.8436 17.9489 10.9038C18.096 10.964 18.2298 11.0527 18.3426 11.1646C18.4555 11.2765 18.5451 11.4096 18.6065 11.5561C18.6679 11.7027 18.6998 11.8599 18.7005 12.0188C18.7011 12.1777 18.6704 12.3352 18.6101 12.4822C18.5498 12.6293 18.4612 12.763 18.3492 12.8758C18.2372 12.9886 18.1041 13.0782 17.9575 13.1396C17.8109 13.2009 17.6536 13.2328 17.4947 13.2334C17.1736 13.2347 16.8652 13.1084 16.6374 12.8823C16.4095 12.6563 16.2808 12.349 16.2795 12.0281C16.2783 11.7072 16.4047 11.399 16.6308 11.1712C16.8569 10.9434 17.1643 10.8147 17.4853 10.8135Z" fill="black"/>
<path d="M6.48319 10.8136C6.72291 10.8107 6.95808 10.8791 7.15887 11.0101C7.35965 11.141 7.51701 11.3286 7.61101 11.549C7.70501 11.7695 7.73141 12.0129 7.68685 12.2483C7.6423 12.4838 7.52879 12.7007 7.36073 12.8717C7.19268 13.0426 6.97764 13.1597 6.74288 13.2083C6.50813 13.2569 6.26423 13.2347 6.04211 13.1446C5.81999 13.0544 5.62964 12.9003 5.49522 12.7019C5.36079 12.5035 5.28835 12.2696 5.28706 12.03C5.2842 11.8712 5.31305 11.7134 5.37189 11.5659C5.43073 11.4184 5.51838 11.2841 5.62975 11.1708C5.74111 11.0576 5.87396 10.9677 6.02049 10.9063C6.16703 10.845 6.32432 10.8134 6.48319 10.8136Z" fill="black"/>
</g>
<defs>
<clipPath id="clip0_1491_3610">
<rect width="24" height="24" fill="white"/>
</clipPath>
</defs>
</svg>
