<svg width="35" height="11" viewBox="0 0 35 11" fill="none" xmlns="http://www.w3.org/2000/svg">
<path d="M34.8819 3.23566C34.5642 2.32731 33.6984 1.67503 32.6815 1.67503H32.6602C31.9991 1.67503 31.4034 1.95017 30.9793 2.39187C30.5544 1.95017 29.9586 1.67503 29.2983 1.67503H29.277C28.6959 1.67503 28.1647 1.88779 27.7567 2.23999V2.06096C27.7428 1.88266 27.5961 1.74254 27.4148 1.74254H25.8549C25.6642 1.74254 25.5101 1.89661 25.5101 2.0881V10.5589C25.5101 10.7504 25.6642 10.9045 25.8549 10.9045H27.4148C27.5887 10.9045 27.7318 10.7747 27.7545 10.6066L27.7538 4.52554C27.7536 4.5052 27.7546 4.48487 27.7567 4.46464C27.7817 4.19316 27.9805 3.97011 28.2946 3.94222H28.5821C28.7135 3.95395 28.8243 4.00019 28.9116 4.06989C29.0473 4.17775 29.1229 4.34357 29.1229 4.52554L29.1288 10.5766C29.1288 10.7681 29.2836 10.9229 29.4736 10.9229H31.0335C31.2177 10.9229 31.3674 10.7761 31.3762 10.5934L31.3754 4.51747C31.3747 4.31789 31.4672 4.1374 31.6293 4.03026C31.7093 3.97889 31.8054 3.94443 31.9162 3.93415H32.2038C32.5413 3.9635 32.7453 4.21957 32.7446 4.51747L32.7504 10.5604C32.7504 10.7519 32.9053 10.906 33.0953 10.906H34.6552C34.8452 10.906 35 10.7519 35 10.5604V4.06109C35 3.61791 34.9501 3.42935 34.8819 3.23566M24.3217 1.7646H23.4295V0.314764C23.4295 0.140868 23.2886 0 23.1148 0C23.0942 0 23.0744 0.00291178 23.0553 0.00659311C22.0663 0.278075 22.2644 1.64795 20.4587 1.7646H20.2833C20.2569 1.7646 20.232 1.76826 20.2077 1.7734H20.2063L20.2077 1.77413C20.0537 1.80863 19.9377 1.94509 19.9377 2.10946V3.66935C19.9377 3.85938 20.0925 4.01419 20.2833 4.01419H21.2247L21.2232 10.6287C21.2232 10.8173 21.3758 10.9699 21.5644 10.9699H23.1067C23.2945 10.9699 23.4472 10.8173 23.4472 10.6287L23.4479 4.01419H24.3217C24.5118 4.01419 24.6666 3.85938 24.6666 3.66935V2.10946C24.6666 1.91943 24.5118 1.76462 24.3217 1.76462" fill="#00BAF2"/>
<path d="M18.7094 1.76502H17.1495C16.9594 1.76502 16.8053 1.91985 16.8053 2.10986V5.33533C16.8017 5.53489 16.6403 5.69485 16.44 5.69485H15.7869C15.5844 5.69485 15.4208 5.53196 15.4208 5.32944L15.4149 2.10988C15.4149 1.91985 15.2601 1.76504 15.0701 1.76504H13.5102C13.3194 1.76504 13.1654 1.91985 13.1654 2.10988V5.64496C13.1654 6.98766 14.1229 7.94518 15.4663 7.94518C15.4663 7.94518 16.4744 7.94518 16.5053 7.95105C16.6872 7.9716 16.8288 8.1242 16.8288 8.31203C16.8288 8.49767 16.6902 8.64954 16.5104 8.6723C16.5016 8.67375 16.4935 8.67596 16.484 8.67743L14.2028 8.6855C14.0121 8.6855 13.858 8.84031 13.858 9.03034V10.5895C13.858 10.7803 14.0121 10.9344 14.2028 10.9344H16.7533C18.0974 10.9344 19.0542 9.97759 19.0542 8.63415V2.10988C19.0542 1.91985 18.9001 1.76504 18.7094 1.76504M3.61065 4.62325V5.58591C3.61065 5.78765 3.44703 5.95202 3.24527 5.95202L2.25547 5.95275V4.0238H3.24527C3.44703 4.0238 3.61065 4.18667 3.61065 4.38919V4.62325ZM3.74786 1.76465H0.338245C0.151142 1.76465 0 1.91654 0 2.10289V3.63125C0 3.63418 0.000727946 3.63711 0.000727946 3.64005C0.000727946 3.64739 0 3.65473 0 3.66132V10.5789C0 10.7667 0.140868 10.9201 0.315513 10.9245H1.90472C2.09476 10.9245 2.24956 10.7704 2.24956 10.5796L2.25545 8.20895H3.74784C4.99662 8.20895 5.86683 7.34242 5.86683 6.08848V3.88807C5.86683 2.63413 4.99662 1.76467 3.74784 1.76467L3.74786 1.76465ZM10.0829 8.2854V8.529C10.0829 8.54882 10.08 8.56789 10.077 8.58623C10.0734 8.60344 10.0685 8.62036 10.0624 8.63686C10.0139 8.77334 9.87746 8.87238 9.7153 8.87238H9.06597C8.86345 8.87238 8.69837 8.7183 8.69837 8.529V8.23478C8.69837 8.23112 8.69763 8.22744 8.69763 8.22378L8.69837 7.4409V7.19581L8.6991 7.19363C8.69983 7.00505 8.86345 6.85245 9.06597 6.85245H9.7153C9.91854 6.85245 10.0829 7.0058 10.0829 7.19584L10.0829 8.2854ZM9.83493 1.77361H7.67043C7.47894 1.77361 7.32414 1.91889 7.32414 2.09717V2.70397C7.32414 2.70763 7.32487 2.71204 7.32487 2.7157C7.32487 2.72011 7.32412 2.7245 7.32412 2.72891V3.56022C7.32412 3.7488 7.48849 3.90288 7.691 3.90288H9.752C9.9149 3.92856 10.044 4.04743 10.0624 4.23305V4.43409C10.044 4.61092 9.91637 4.74004 9.7608 4.75472H8.74022C7.38283 4.75472 6.41579 5.65648 6.41579 6.92288V8.73665C6.41579 9.99572 7.2471 10.8916 8.59492 10.8916H11.4234C11.9312 10.8916 12.3428 10.5071 12.3428 10.0339V4.11492C12.3428 2.67976 11.6032 1.77361 9.83491 1.77361H9.83493Z" fill="#1F336B"/>
</svg>
