<svg width="44" height="44" viewBox="0 0 44 44" fill="none" xmlns="http://www.w3.org/2000/svg">
<g clip-path="url(#clip0_2503_4911)">
<path d="M43.9999 11.3127C43.6991 12.0582 43.4993 12.8671 43.0782 13.5352C42.0749 15.1261 40.5667 15.9683 38.6825 16.0167C36.8692 16.0639 35.0527 16.0371 33.2383 16.0253C32.7848 16.0223 32.351 15.8392 32.0324 15.5164C31.7138 15.1936 31.5365 14.7574 31.5395 14.3038C31.5425 13.8503 31.7255 13.4165 32.0483 13.0979C32.3712 12.7793 32.8073 12.602 33.2609 12.605C34.6466 12.5942 36.0335 12.605 37.4192 12.605H38.0218C37.4847 11.8412 37.0303 11.1365 36.5093 10.4898C34.0333 7.42293 30.9094 5.28523 27.1067 4.24431C21.4133 2.68562 16.0938 3.57185 11.277 7.01257C7.36149 9.80554 4.85963 13.5975 3.91325 18.3262C2.85944 23.5899 3.87994 28.4626 7.02848 32.8282C9.83434 36.719 13.607 39.1801 18.3078 40.1759C19.8434 40.5163 21.4201 40.6339 22.9892 40.525C23.346 40.4853 23.7059 40.4814 24.0634 40.5132C24.4939 40.5672 24.8876 40.783 25.1647 41.1168C25.4418 41.4506 25.5816 41.8773 25.5555 42.3103C25.5201 43.1804 24.8315 43.8593 23.9184 43.927C23.7498 43.9399 23.5833 43.9775 23.4157 44.0033H20.583C20.4755 43.9764 20.3681 43.941 20.2543 43.9249C19.2402 43.7745 18.2079 43.7004 17.2121 43.4673C11.0557 42.0257 6.32916 38.572 3.10221 33.1548C0.353284 28.5356 -0.485681 23.5212 0.416663 18.2231C1.2191 13.5395 3.36539 9.54666 6.77604 6.25632C10.5609 2.60398 15.0851 0.567621 20.3488 0.147243C23.2889 -0.0965859 26.2476 0.271744 29.0381 1.22898C33.7461 2.84174 37.5005 5.71277 40.3013 9.84207C40.3647 9.9366 40.4431 10.0225 40.5677 10.1794C40.5677 8.53689 40.5613 6.99324 40.5677 5.45281C40.5694 5.06142 40.706 4.68259 40.9546 4.38024C41.2031 4.07789 41.5483 3.87053 41.932 3.79314C42.3062 3.7176 42.6949 3.76799 43.0374 3.93646C43.38 4.10493 43.6572 4.382 43.8258 4.72449C43.8817 4.83191 43.9419 4.93933 43.9999 5.04676V11.3127Z" fill="white"/>
<path d="M23.7553 15.1796C23.7553 17.4226 23.7477 19.6666 23.7553 21.9096C23.7633 22.1737 23.716 22.4365 23.6165 22.6812C23.5169 22.926 23.3674 23.1472 23.1773 23.3308C20.9659 25.5436 18.7526 27.7555 16.5376 29.9662C15.5396 30.9556 14.011 30.6193 13.6125 29.3335C13.3976 28.6245 13.6125 28.0208 14.1281 27.5073C15.4451 26.1968 16.7589 24.8837 18.0694 23.5682C18.714 22.9236 19.351 22.263 20.0148 21.6346C20.1233 21.5359 20.208 21.4138 20.2623 21.2776C20.3167 21.1413 20.3393 20.9945 20.3285 20.8482C20.3199 16.676 20.3199 12.5037 20.3285 8.33144C20.3285 7.62461 20.6508 7.09394 21.277 6.77705C21.5498 6.6301 21.859 6.56435 22.1679 6.58757C22.4769 6.6108 22.7728 6.72203 23.0205 6.9081C23.5265 7.25615 23.7585 7.75566 23.7574 8.37226C23.7524 10.641 23.7517 12.9101 23.7553 15.1796Z" fill="white"/>
<path d="M43.638 26.5996C43.4553 27.2109 43.2738 28.0831 42.9311 28.8856C42.6088 29.6322 41.6657 29.9093 40.8751 29.6311C40.1349 29.3711 39.6354 28.588 39.7847 27.8049C39.9191 27.1069 40.0985 26.4183 40.3218 25.7435C40.5797 24.9647 41.3961 24.5307 42.1964 24.6779C43.0278 24.8304 43.6208 25.5201 43.638 26.5996Z" fill="white"/>
<path d="M30.4239 42.2339C30.0547 42.2197 29.6993 42.0896 29.4082 41.8621C29.117 41.6345 28.9049 41.3211 28.8018 40.9663C28.587 40.2745 28.8491 39.471 29.485 39.0929C30.0969 38.7265 30.7337 38.4034 31.3907 38.1261C32.1888 37.792 33.1148 38.1766 33.508 38.9371C33.7106 39.313 33.762 39.7522 33.6515 40.1647C33.5411 40.5772 33.2773 40.932 32.9139 41.1564C32.3218 41.499 31.7122 41.8106 31.0878 42.0899C30.8858 42.1812 30.6473 42.1877 30.4239 42.2339Z" fill="white"/>
<path d="M35.5889 35.4542C35.6008 35.2909 35.5814 35.1792 35.6201 35.0932C36.0852 34.0448 36.7416 33.1285 37.732 32.5398C38.3432 32.1757 39.2058 32.4324 39.6774 32.9792C40.149 33.5259 40.2736 34.3434 39.8729 34.9289C39.4416 35.5671 38.9556 36.1666 38.4206 36.7207C37.9157 37.2363 37.2454 37.2911 36.5944 36.9957C36.2902 36.8711 36.0311 36.6569 35.8515 36.3816C35.6719 36.1062 35.5803 35.7828 35.5889 35.4542V35.4542Z" fill="white"/>
</g>
<defs>
<clipPath id="clip0_2503_4911">
<rect width="44" height="44" fill="white"/>
</clipPath>
</defs>
</svg>
