<svg width="20" height="23" viewBox="0 0 20 23" fill="none" xmlns="http://www.w3.org/2000/svg">
<path d="M14.5436 23.0001C14.0919 22.1452 13.6402 21.2903 13.1885 20.4355C12.7522 19.6125 12.3148 18.7897 11.8766 17.9671C11.8973 17.8503 11.9952 17.854 12.0696 17.8304C13.3246 17.4395 14.4742 16.728 15.4214 15.7557C15.7708 15.4053 16.0923 15.0237 16.3825 14.615C16.4301 14.546 16.4676 14.4541 16.5716 14.465L19.4613 19.8663C19.4188 19.9395 19.3662 19.9093 19.3237 19.9068C18.3166 19.8512 17.3096 19.7956 16.3025 19.7321C16.1627 19.723 16.0827 19.7544 16.0155 19.9008C15.5618 20.8825 15.0974 21.8581 14.6387 22.8361C14.6152 22.887 14.5687 22.9329 14.5878 23.0001H14.5436Z" fill="#40596B"/>
<path d="M7.5693 17.9714C6.70101 19.6009 5.83327 21.2308 4.9661 22.861C4.94521 22.9057 4.92653 22.9515 4.91015 22.9983H4.86483C4.88273 22.9233 4.83126 22.8719 4.8044 22.8169C4.35179 21.8491 3.89192 20.8886 3.44714 19.9178C3.37049 19.7503 3.2793 19.7249 3.12601 19.7364C2.11897 19.8005 1.11192 19.8573 0.100402 19.9118C0.068279 19.9122 0.0361577 19.9108 0.00417553 19.9075C-0.013168 19.8374 0.0276707 19.7987 0.0506089 19.7551C0.968508 18.0333 1.88734 16.3115 2.80711 14.5897C2.82555 14.5589 2.84554 14.5292 2.86697 14.5008C2.97159 14.4923 3.00404 14.5891 3.05327 14.6562C4.18508 16.2022 5.60724 17.2879 7.36621 17.8402C7.44397 17.8589 7.53405 17.8704 7.5693 17.9714Z" fill="#40596B"/>
<path d="M7.56929 17.9713C6.9701 17.7669 6.37706 17.5479 5.81815 17.2292C4.70012 16.5958 3.7257 15.7026 2.96487 14.6138C2.93577 14.5727 2.9022 14.5352 2.87031 14.4965C2.16538 13.4295 1.66578 12.2585 1.43808 10.972C0.954137 8.23805 1.47948 5.74182 3.04935 3.5323C4.21248 1.89375 5.73758 0.792911 7.5911 0.302981C10.4002 -0.440382 12.9525 0.181997 15.1814 2.19374C16.6612 3.52985 17.5961 5.24584 17.9787 7.28359C18.4504 9.80583 18.0028 12.1514 16.678 14.2956C16.6433 14.3513 16.6108 14.4081 16.5773 14.465C16.2388 14.9065 15.9059 15.3535 15.5193 15.7485C14.5356 16.7605 13.3396 17.4995 12.0338 17.9024C11.9823 17.921 11.9316 17.9426 11.8822 17.9671C10.4701 18.3654 8.98736 18.3675 7.57431 17.9731L7.56929 17.9713Z" fill="#FED05C"/>
<path d="M9.71706 2.51831C10.5245 2.51738 11.324 2.68967 12.0694 3.02523C12.8147 3.36079 13.4911 3.85295 14.0592 4.47316C14.6274 5.09336 15.076 5.82929 15.3792 6.63831C15.6824 7.44733 15.834 8.31335 15.8253 9.18619C15.794 12.8395 13.1281 15.7549 9.707 15.7519C6.306 15.7489 3.55005 12.8486 3.58754 9.03013C3.62278 5.44275 6.30823 2.52497 9.71706 2.51831Z" fill="#F7B54C"/>
<path d="M6.94101 13.166C7.01374 12.6949 7.08927 12.2013 7.1648 11.7077C7.22298 11.34 7.28303 10.9724 7.34494 10.6051C7.37627 10.4194 7.289 10.2906 7.1771 10.1714C6.6512 9.61816 6.12585 9.06433 5.60107 8.50989C5.48526 8.38891 5.36554 8.26792 5.43323 8.0659C5.49869 7.87235 5.64359 7.83667 5.81087 7.81126C6.55664 7.69876 7.30073 7.57537 8.04874 7.45984C8.21658 7.43323 8.31505 7.32376 8.38442 7.16589C8.71171 6.44007 9.04348 5.71424 9.36965 4.98842C9.4407 4.83056 9.52183 4.70534 9.70533 4.70655C9.88884 4.70776 9.96772 4.83721 10.041 4.99327C10.3649 5.71244 10.6961 6.42797 11.0184 7.14835C11.0526 7.23749 11.1092 7.31452 11.1818 7.37074C11.2543 7.42695 11.34 7.46013 11.4291 7.46652C12.1754 7.57297 12.9195 7.69939 13.6669 7.81673C13.8146 7.83971 13.9276 7.90562 13.9813 8.06711C14.035 8.22861 13.9595 8.35442 13.8566 8.4639C13.324 9.03125 12.7936 9.60222 12.2565 10.1641C12.1144 10.3129 12.0551 10.4617 12.0887 10.6807C12.2252 11.4888 12.3455 12.2999 12.4769 13.1092C12.5021 13.2658 12.4725 13.391 12.3572 13.4872C12.2313 13.5925 12.1043 13.5725 11.9701 13.4951C11.3104 13.1158 10.6464 12.7457 9.98955 12.361C9.90783 12.3061 9.81356 12.277 9.71737 12.277C9.62117 12.277 9.5269 12.3061 9.44519 12.361C8.78222 12.7487 8.11309 13.1243 7.44341 13.4987C7.17822 13.6481 6.93485 13.4927 6.94101 13.166Z" fill="#FEFEFE"/>
</svg>
