<svg width="13" height="13" viewBox="0 0 13 13" fill="none" xmlns="http://www.w3.org/2000/svg">
<g clip-path="url(#clip0_313_4427)">
<path d="M5.86523 0C6.08495 0.101562 6.14894 0.275576 6.14792 0.511201C6.14149 2.22388 6.14453 3.9369 6.14453 5.64958C6.14453 5.98101 6.0064 6.11914 5.67531 6.11914C3.95382 6.11914 2.23268 6.1161 0.511197 6.12253C0.274218 6.12253 0.101562 6.05922 0 5.83984V0.279297C0.057573 0.156401 0.156401 0.057573 0.279297 0H5.86523ZM5.37367 5.352V0.771868H0.769504V5.352H5.37367Z" fill="black"/>
<path d="M9.67382 13C9.43684 12.9435 9.19343 12.9055 8.96289 12.8273C8.30831 12.6006 7.75014 12.1584 7.37981 11.573C7.00948 10.9875 6.84895 10.2937 6.92453 9.60511C7.10836 7.98756 8.47437 6.81788 10.1031 6.88322C11.5588 6.94179 12.8152 8.1101 12.9749 9.55195C12.9808 9.58461 12.9888 9.61685 12.999 9.64844V10.207C12.9892 10.2344 12.9816 10.2624 12.9763 10.291C12.9034 10.9227 12.6355 11.516 12.2098 11.9884C11.7841 12.4608 11.2218 12.7888 10.6011 12.9269C10.4785 12.9543 10.3546 12.976 10.2314 13H9.67382ZM9.95685 7.64258C9.35106 7.64266 8.76999 7.88286 8.34096 8.31055C7.91194 8.73825 7.66993 9.31856 7.66796 9.92435C7.66796 11.1946 8.68867 12.2342 9.94296 12.2383C11.2057 12.2423 12.2366 11.2064 12.2383 9.9318C12.2384 9.32598 11.9983 8.74483 11.5706 8.31573C11.143 7.88662 10.5627 7.64455 9.95685 7.64258Z" fill="black"/>
<path d="M10.2324 13C10.3557 12.976 10.4796 12.9543 10.6021 12.9269C11.2228 12.7888 11.7851 12.4608 12.2108 11.9884C12.6365 11.516 12.9044 10.9227 12.9773 10.291C12.9826 10.2624 12.9902 10.2344 13 10.207V13H10.2324Z" fill="white"/>
<path d="M0.279297 0C0.156401 0.057573 0.057573 0.156401 0 0.279297V0H0.279297Z" fill="white"/>
<path d="M3.11831 8.43306C3.11831 8.88163 3.0814 9.31903 3.12744 9.74762C3.18567 10.2893 3.67351 10.681 4.22263 10.6878C4.71757 10.6938 5.21286 10.6877 5.70781 10.6894C5.96815 10.6894 6.1408 10.8387 6.14385 11.0645C6.1469 11.2904 5.97187 11.4508 5.70612 11.4512C5.22369 11.4512 4.74127 11.4512 4.25919 11.4512C3.17586 11.4471 2.33932 10.6085 2.33627 9.52554C2.33627 9.16702 2.33627 8.80851 2.33627 8.42088C2.29599 8.46726 2.27161 8.4923 2.25062 8.52006C2.12265 8.68933 2.00044 8.86132 1.86739 9.02551C1.80588 9.10266 1.71642 9.15244 1.61843 9.16404C1.52044 9.17564 1.42183 9.14812 1.344 9.08747C1.26576 9.03055 1.21305 8.94511 1.19728 8.84965C1.18151 8.75418 1.20393 8.65634 1.25971 8.57728C1.64531 8.05254 2.03463 7.53017 2.43276 7.01491C2.58848 6.81382 2.87015 6.83684 3.03265 7.04876C3.33734 7.44926 3.63729 7.85348 3.93961 8.25601C4.01307 8.35419 4.08958 8.45033 4.15999 8.55088C4.29101 8.73809 4.25682 8.96491 4.08247 9.09254C3.90812 9.22017 3.68942 9.18293 3.55299 9.00859C3.40674 8.82171 3.26693 8.63077 3.11831 8.43306Z" fill="black"/>
<path d="M10.7406 4.56007C10.8851 4.36812 11.027 4.17414 11.1749 3.98455C11.2172 3.92529 11.2763 3.88016 11.3446 3.85509C11.413 3.83002 11.4873 3.82617 11.5578 3.84404C11.7122 3.8779 11.8242 3.97778 11.8408 4.13283C11.8513 4.23439 11.8317 4.36203 11.7731 4.44091C11.4007 4.95515 11.0195 5.46195 10.6343 5.96434C10.4725 6.17593 10.1881 6.17187 10.0249 5.95791C9.64303 5.45687 9.26465 4.95289 8.88977 4.44598C8.75435 4.26181 8.79159 4.03228 8.96628 3.906C9.14097 3.77972 9.36271 3.81697 9.50388 3.99945C9.64505 4.18192 9.78386 4.37184 9.93891 4.57665C9.94467 4.52553 9.95076 4.49643 9.95076 4.46697C9.95076 4.1325 9.95346 3.79835 9.95076 3.46421C9.945 2.80676 9.44837 2.31317 8.78889 2.30945C8.28954 2.30674 7.79019 2.30944 7.29118 2.30775C7.19705 2.30931 7.1057 2.27585 7.03487 2.21384C6.96404 2.15182 6.91878 2.06569 6.90789 1.97218C6.897 1.87867 6.92126 1.78445 6.97595 1.70783C7.03064 1.6312 7.11186 1.57763 7.20383 1.55753C7.24529 1.54938 7.28754 1.54598 7.32977 1.54738C7.81625 1.54738 8.30274 1.54569 8.78923 1.54738C9.87256 1.55111 10.7091 2.38865 10.7128 3.47233C10.7128 3.83084 10.7128 4.1897 10.7128 4.54855L10.7406 4.56007Z" fill="black"/>
</g>
<defs>
<clipPath id="clip0_313_4427">
<rect width="13" height="13" fill="white"/>
</clipPath>
</defs>
</svg>
