<svg width="9" height="13" viewBox="0 0 9 13" fill="none" xmlns="http://www.w3.org/2000/svg">
<path d="M4.14822 13L0.746219 7.06V6.268H1.14222C1.77822 6.268 2.31222 6.208 2.74422 6.088C3.18822 5.968 3.53622 5.77 3.78822 5.494C4.04022 5.218 4.19022 4.84 4.23822 4.36H0.746219V3.208H4.22022C4.13622 2.764 3.96822 2.404 3.71622 2.128C3.46422 1.84 3.12222 1.63 2.69022 1.498C2.27022 1.366 1.75422 1.3 1.14222 1.3H0.746219V0.147999H8.19822V1.3H4.79622C5.07222 1.528 5.30022 1.798 5.48022 2.11C5.66022 2.422 5.77422 2.788 5.82222 3.208H8.19822V4.36H5.85822C5.77422 5.236 5.43822 5.92 4.85022 6.412C4.27422 6.892 3.50622 7.198 2.54622 7.33L5.98422 13H4.14822Z" fill="black"/>
</svg>
