<svg width="15" height="15" viewBox="0 0 15 15" fill="none" xmlns="http://www.w3.org/2000/svg">
<path d="M14.725 13.4033L11.8218 10.4988C13.9941 7.59583 13.4018 3.48146 10.4988 1.30914C7.59583 -0.86319 3.48146 -0.270867 1.30914 2.63212C-0.86319 5.5351 -0.270867 9.64947 2.63212 11.8218C4.96403 13.5668 8.16687 13.5668 10.4988 11.8218L13.4033 14.7262C13.7683 15.0912 14.36 15.0912 14.725 14.7262C15.09 14.3612 15.09 13.7695 14.725 13.4045L14.725 13.4033ZM6.58967 11.2612C4.00964 11.2612 1.91813 9.16971 1.91813 6.58967C1.91813 4.00964 4.00964 1.91813 6.58967 1.91813C9.16971 1.91813 11.2612 4.00964 11.2612 6.58967C11.2585 9.16854 9.16857 11.2585 6.58967 11.2612Z" fill="#8391A1"/>
</svg>
