<svg width="19" height="23" viewBox="0 0 19 23" fill="none" xmlns="http://www.w3.org/2000/svg">
<path d="M17.7719 0.344032C16.9293 -0.151802 15.9085 -0.109672 15.108 0.457458L1.03675 10.4227C0.294622 10.9477 -0.0845441 11.8 0.0159188 12.7042C0.116382 13.6084 0.680271 14.3505 1.52286 14.6973L7.69323 17.2315C7.76777 17.2607 7.83583 17.3028 7.8974 17.3514L13.1085 21.519C13.5557 21.8755 14.0905 22.0602 14.6317 22.0602C14.9493 22.0602 15.2701 21.9954 15.5812 21.869C16.4205 21.5223 16.9812 20.7737 17.0817 19.8695L18.971 2.72922C19.0747 1.75375 18.6145 0.843106 17.7719 0.344032ZM1.62657 12.5195C1.61036 12.3737 1.61036 12.001 1.97333 11.745L15.9474 1.84774L7.87796 15.5528L2.1386 13.1968C1.72703 13.0283 1.64277 12.6686 1.62657 12.5195ZM15.4678 19.6913C15.4192 20.132 15.0951 20.3135 14.959 20.3718C14.8229 20.4301 14.4664 20.5306 14.1196 20.2519L9.27147 16.376L17.3409 2.67088L15.4678 19.6913Z" fill="black"/>
</svg>
