<svg width="19" height="19" viewBox="0 0 19 19" fill="none" xmlns="http://www.w3.org/2000/svg">
<path d="M2.97427e-05 9.48904C-0.00805033 11.5192 1.6312 13.1715 3.66141 13.1796C4.5964 13.1833 5.4977 12.8306 6.1818 12.1933L11.6598 14.6666C11.6218 14.8714 11.6009 15.079 11.5974 15.2873C11.5909 17.3315 13.2428 18.9939 15.287 19.0004C17.3312 19.0068 18.9935 17.3549 19 15.3108C19.0065 13.2666 17.3546 11.6042 15.3104 11.5977C14.0891 11.5939 12.9445 12.1927 12.2513 13.1983L7.10456 10.8744C7.47013 9.99163 7.47154 9.00012 7.10853 8.11635L12.2482 5.78058C13.4055 7.45445 15.7006 7.87313 17.3745 6.71579C19.0484 5.55845 19.467 3.26334 18.3097 1.58947C17.1524 -0.0844012 14.8572 -0.503082 13.1833 0.654258C12.1865 1.34351 11.5923 2.47883 11.5942 3.69077C11.5975 3.89937 11.6187 4.10726 11.6575 4.31227L6.19366 6.79507C4.71334 5.40504 2.38647 5.47825 0.996436 6.95857C0.353107 7.64374 -0.00345432 8.54919 2.97427e-05 9.48904Z" fill="white"/>
</svg>
