<svg width="15" height="15" viewBox="0 0 15 15" fill="none" xmlns="http://www.w3.org/2000/svg">
<path d="M2.34807e-05 7.4912C-0.0063554 9.09394 1.28777 10.3984 2.89054 10.4048C3.62867 10.4077 4.34021 10.1293 4.88028 9.62608L9.20496 11.5787C9.1749 11.7404 9.15843 11.9043 9.15565 12.0687C9.15056 13.6825 10.4546 14.9949 12.0684 15C13.6822 15.0051 14.9946 13.701 14.9997 12.0872C15.0048 10.4734 13.7007 9.16107 12.0869 9.15594C11.1227 9.1529 10.2191 9.62567 9.6719 10.4195L5.60876 8.58486C5.89736 7.88798 5.89847 7.10522 5.61189 6.40752L9.66941 4.56353C10.5831 5.88498 12.395 6.21551 13.7165 5.30184C15.0379 4.38817 15.3684 2.57627 14.4547 1.25482C13.5411 -0.0666313 11.7291 -0.397163 10.4077 0.51651C9.62072 1.06065 9.15164 1.95694 9.15314 2.91371C9.15577 3.07839 9.17248 3.24252 9.20308 3.40436L4.88964 5.36443C3.72099 4.26706 1.88402 4.32485 0.786645 5.4935C0.278763 6.03442 -0.00272705 6.74923 2.34807e-05 7.4912Z" fill="#28B446"/>
</svg>
