<svg width="46" height="32" viewBox="0 0 46 32" fill="none" xmlns="http://www.w3.org/2000/svg">
<g clip-path="url(#clip0_2503_5191)">
<path d="M45.9998 26.6303C45.6116 27.4771 44.9276 27.7376 44.0365 27.7049C42.9294 27.6654 41.82 27.7049 40.7129 27.6902C40.4485 27.6902 40.3281 27.7658 40.2348 28.0229C39.347 30.4608 37.2319 31.9865 34.7521 32C32.2724 32.0136 30.1392 30.4676 29.2391 28.0037C29.148 27.7556 29.0366 27.6902 28.789 27.6914C26.154 27.6981 23.519 27.6981 20.884 27.6914C20.614 27.6914 20.5049 27.7782 20.4126 28.0296C19.5474 30.4518 17.4052 31.9955 14.9311 31.9989C12.457 32.0023 10.3182 30.4586 9.44283 28.0353C9.3427 27.7556 9.20881 27.6846 8.92978 27.6891C7.85193 27.7049 6.77408 27.7026 5.69622 27.6891C4.82089 27.6812 4.19871 27.1591 4.12107 26.3968C4.02994 25.4553 4.65663 24.7674 5.6501 24.7527C6.69757 24.737 7.74617 24.7527 8.79364 24.7527H9.28757C9.79274 23.0241 10.7952 21.7375 12.3884 20.9515C15.4734 19.4303 19.2346 20.9515 20.3676 24.2036C20.5285 24.6648 20.7378 24.7674 21.1856 24.7674C23.6856 24.746 26.1867 24.755 28.6867 24.7606C28.9409 24.7606 29.1086 24.7505 29.2143 24.4359C30.0435 21.9551 32.2521 20.3403 34.751 20.3516C37.3027 20.3629 39.4764 22.0013 40.3113 24.5419C40.3293 24.5983 40.3439 24.6546 40.3664 24.7336H43.0734C43.0802 24.5656 43.0925 24.419 43.0925 24.2724C43.0925 22.0814 43.1015 19.8904 43.0824 17.6994C43.0733 17.4374 42.9872 17.184 42.8349 16.9709C42.3173 16.2538 41.7525 15.5715 41.2249 14.8623C41.1555 14.7588 41.06 14.6757 40.9482 14.6212C40.8363 14.5667 40.7121 14.5429 40.588 14.5522C37.0552 14.5627 33.5216 14.5649 29.9873 14.5589C28.8127 14.5589 28.2569 14.0086 28.2546 12.8235C28.2501 9.74657 28.2501 6.66963 28.2546 3.59269V2.93754H27.6662C20.4032 2.93754 13.1414 2.93754 5.88074 2.93754C5.62771 2.9447 5.37487 2.91739 5.12917 2.85635C4.45411 2.66239 4.07045 2.067 4.1222 1.34532C4.14138 1.0283 4.26827 0.727421 4.48177 0.492724C4.69526 0.258027 4.9825 0.103663 5.29569 0.0553049C5.50214 0.022039 5.71102 0.00619501 5.92012 0.00794275C13.7359 0.00794275 21.5516 0.00794275 29.3673 0.00794275C30.6398 0.00794275 31.1675 0.541315 31.1675 1.81216C31.1675 2.16849 31.1675 2.52482 31.1675 2.9319H31.6952C33.4774 2.9319 35.2595 2.95332 37.0406 2.92288C37.8979 2.90822 38.4368 3.26906 38.8081 4.02796C39.8207 6.08589 40.8873 8.11112 41.8695 10.1803C42.6075 11.7371 43.534 13.1967 44.6283 14.5262C45.129 15.1352 45.543 15.814 45.9964 16.4613L45.9998 26.6303ZM39.2919 11.5966C39.28 11.5279 39.262 11.4603 39.2379 11.3948C38.3468 9.61426 37.4602 7.83147 36.55 6.06108C36.4859 5.93704 36.2496 5.83556 36.0921 5.83556C34.7004 5.81864 33.3075 5.82654 31.9157 5.82654H31.1945V11.5955L39.2919 11.5966ZM17.8046 26.1578C17.8043 25.7787 17.7292 25.4034 17.5834 25.0535C17.4376 24.7037 17.2241 24.3862 16.9553 24.1195C16.6865 23.8528 16.3676 23.6421 16.0171 23.4996C15.6666 23.357 15.2914 23.2855 14.9131 23.2891C14.1491 23.2962 13.4187 23.6049 12.8803 24.1483C12.342 24.6917 12.0391 25.4259 12.0373 26.1916C12.052 26.9566 12.3645 27.6856 12.9081 28.2229C13.4518 28.7601 14.1834 29.0631 14.9469 29.0671C15.3251 29.0641 15.6991 28.9865 16.0474 28.8387C16.3957 28.6909 16.7116 28.4758 16.9769 28.2056C17.2423 27.9355 17.452 27.6156 17.594 27.2642C17.736 26.9128 17.8076 26.5369 17.8046 26.1578ZM31.8685 26.1736C31.8674 26.5528 31.941 26.9285 32.0849 27.2792C32.2289 27.6299 32.4404 27.9488 32.7074 28.2175C32.9743 28.4862 33.2916 28.6996 33.6409 28.8454C33.9902 28.9911 34.3647 29.0665 34.7431 29.0671C35.5073 29.0598 36.2383 28.7531 36.7797 28.2125C37.3211 27.672 37.63 26.9405 37.6403 26.1747C37.6323 25.4091 37.3242 24.6774 36.7826 24.1375C36.241 23.5976 35.5093 23.2929 34.7454 23.2891C34.3668 23.2871 33.9916 23.3604 33.6415 23.5047C33.2914 23.6489 32.9733 23.8613 32.7056 24.1295C32.4379 24.3977 32.2258 24.7165 32.0818 25.0673C31.9377 25.4182 31.8644 25.7942 31.8662 26.1736H31.8685Z" fill="white"/>
<path d="M7.65852 11.6831C9.69159 11.6831 11.7258 11.6831 13.76 11.6831C14.4463 11.6831 14.9638 12.0496 15.181 12.6507C15.3824 13.2054 15.2676 13.855 14.7883 14.1944C14.4671 14.4307 14.0846 14.5689 13.6868 14.5924C9.64921 14.621 5.6112 14.6248 1.57282 14.6037C0.591722 14.6037 -0.0248361 13.9655 -0.00233393 13.0814C0.0224184 12.2391 0.672732 11.6831 1.64145 11.682C3.64864 11.6813 5.65433 11.6816 7.65852 11.6831Z" fill="white"/>
<path d="M9.98779 8.88315C7.93672 8.88315 5.88565 8.88879 3.83346 8.88315C3.06726 8.88315 2.49908 8.37572 2.37082 7.62246C2.32738 7.3002 2.39431 6.97271 2.56067 6.69352C2.72703 6.41434 2.98297 6.19998 3.28666 6.08549C3.46848 6.01753 3.66078 5.98204 3.85483 5.98062C7.9581 5.97498 12.0602 5.96822 16.1635 5.98062C17.0107 5.98062 17.5766 6.55008 17.6261 7.32702C17.679 8.20206 17.0478 8.87639 16.1444 8.87864C14.0911 8.88879 12.04 8.88428 9.98779 8.88315Z" fill="white"/>
<path d="M7.09611 20.3213C6.04863 20.3213 5.00228 20.3213 3.95593 20.3213C3.04122 20.3213 2.39428 19.7428 2.35378 18.9095C2.3144 18.1055 2.95233 17.4176 3.86142 17.4063C6.04413 17.3763 8.22721 17.3763 10.4107 17.4063C11.3344 17.4165 11.9532 18.0604 11.9397 18.8858C11.9262 19.736 11.2736 20.3213 10.3252 20.3247C9.24843 20.3247 8.17283 20.3213 7.09611 20.3213Z" fill="white"/>
</g>
<defs>
<clipPath id="clip0_2503_5191">
<rect width="46" height="32" fill="white"/>
</clipPath>
</defs>
</svg>
