<svg width="44" height="44" viewBox="0 0 44 44" fill="none" xmlns="http://www.w3.org/2000/svg">
<path d="M41.2537 44.0006H2.76372C2.67076 43.9685 2.57895 43.9306 2.48369 43.9054C1.17074 43.5541 0.15618 42.4316 0.0402639 41.1071C-0.0058522 40.3638 -0.012356 39.6186 0.0207622 38.8747C0.0448636 37.5375 0.674943 36.555 1.85706 35.9501C2.14513 35.8021 2.23465 35.6506 2.23465 35.3372C2.22547 28.006 2.22547 20.6748 2.23465 13.3435C2.2419 13.2112 2.21855 13.079 2.1664 12.9572C2.11425 12.8353 2.03469 12.7272 1.93395 12.6411C0.685264 11.4681 0.0322402 10.0184 0.021911 8.29561C0.0134946 6.9068 0.0134946 5.51799 0.021911 4.12918C0.0291503 3.03629 0.467041 1.99033 1.24054 1.21827C2.01405 0.446212 3.06076 0.0103381 4.15358 0.00522531C16.0635 0.000634208 27.9734 0.00292948 39.8834 0.0121117C41.5613 0.0121117 42.7905 0.852285 43.556 2.33406C43.7499 2.70594 43.852 3.12603 43.9967 3.52431V9.02445C43.965 9.07059 43.9407 9.12129 43.9244 9.17481C43.7097 10.5889 43.0475 11.7573 42.0089 12.7329C41.8822 12.8572 41.8061 13.0241 41.7954 13.2012C41.7847 20.6235 41.7801 28.042 41.7816 35.4566C41.7816 35.6861 41.8643 35.8009 42.0651 35.9157C42.4312 36.1292 42.8513 36.3381 43.0911 36.664C43.463 37.1702 43.7017 37.7728 43.9967 38.3341V41.2563C43.6994 41.8302 43.4607 42.4374 43.0923 42.9562C42.6631 43.561 41.9492 43.7929 41.2537 44.0006ZM7.92946 35.5702V30.3111C7.92946 27.2603 7.92946 24.2099 7.92946 21.1599C7.92946 19.3108 9.15289 17.9461 11.0018 17.86C12.6579 17.7843 14.3209 17.8417 15.9816 17.8486C16.1819 17.8518 16.3811 17.8788 16.575 17.9289C18.0888 18.3065 19.0115 19.5289 19.0138 21.1863C19.0184 25.8118 19.0184 30.4374 19.0138 35.0629V35.5656H40.4652V13.7797C36.6629 14.7186 34.6235 14.0012 32.6816 11.0308C31.4834 13.0612 29.739 14.2365 27.3667 14.2445C24.9944 14.2526 23.2224 13.0853 22.0024 11.0308C20.7721 13.1105 19.0115 14.2572 16.6381 14.2445C14.2647 14.2319 12.5282 13.0612 11.3232 11.0147C10.5359 12.4276 9.43639 13.4009 7.95358 13.922C6.47077 14.4431 5.00631 14.3409 3.55105 13.7475V35.5702H7.92946ZM22.0093 36.9039C15.9113 36.9039 9.81281 36.9039 3.71401 36.9039C3.49946 36.9012 3.28493 36.91 3.07132 36.9303C2.22203 37.0222 1.52078 37.6121 1.3888 38.458C1.29239 39.0744 1.31305 39.7114 1.30961 40.3392C1.30043 41.9392 2.07628 42.7117 3.67156 42.7117H29.9983C33.5057 42.7117 37.013 42.7117 40.5203 42.7117C41.8792 42.7117 42.7078 41.8761 42.7135 40.5125C42.7135 39.9834 42.7227 39.4531 42.7135 38.9229C42.7149 38.613 42.6451 38.3069 42.5093 38.0283C42.3736 37.7496 42.1757 37.5059 41.9308 37.316C41.4786 36.9544 40.9484 36.897 40.3929 36.897C34.2635 36.9039 28.1349 36.9062 22.007 36.9039H22.0093ZM17.7204 35.5748V35.1478C17.7204 30.494 17.7204 25.8394 17.7204 21.184C17.7204 19.9214 16.9606 19.1547 15.6936 19.1501C14.2624 19.1444 12.8244 19.1949 11.3989 19.1341C10.125 19.0813 9.21831 19.9513 9.22405 21.3148C9.25274 25.9117 9.23554 30.5085 9.23554 35.1054V35.576L17.7204 35.5748ZM21.3275 1.31598H12.0221V7.58055H21.3275V1.31598ZM32.0137 1.31598H22.7071V7.58284H32.0137V1.31598ZM10.6667 1.30107C8.41724 1.30107 6.21368 1.25745 4.01012 1.31828C3.35494 1.32509 2.72538 1.57377 2.24239 2.01654C1.7594 2.45932 1.45704 3.06497 1.39339 3.71713C1.27862 4.99002 1.36814 6.28241 1.36814 7.58973H10.6644L10.6667 1.30107ZM33.3679 7.5817H42.7181C42.7181 6.50279 42.7181 5.45831 42.7181 4.41498C42.7181 2.51885 41.4947 1.29532 39.6045 1.29188C37.6717 1.29188 35.7395 1.29188 33.8075 1.29188H33.3679V7.5817ZM22.7415 8.94755C23.0445 11.2523 25.1425 13.0325 27.416 12.9579C29.7596 12.8798 31.8358 11.048 31.9414 8.94755H22.7415ZM12.068 8.95444C12.3595 11.2351 14.4277 13.0061 16.7207 12.959C19.0402 12.912 21.067 11.1375 21.2771 8.95444H12.068ZM33.4379 8.94755C33.4919 11.0445 35.8148 13.0256 38.0861 12.9579C40.4124 12.8879 42.6768 10.8838 42.5965 8.94755H33.4379ZM1.40258 8.94755C1.57359 11.1834 3.92749 13.122 6.19647 12.9487C8.52283 12.7708 10.7184 10.7679 10.5577 8.94755H1.40258Z" fill="black"/>
<path d="M29.9352 28.4837C28.2894 28.4837 26.6425 28.4516 25.0001 28.4917C22.9343 28.5422 21.6615 26.8745 21.7384 25.2424C21.8073 23.7847 21.7476 22.3224 21.7557 20.8613C21.7498 20.1094 22.028 19.3829 22.5347 18.8273C23.0413 18.2716 23.739 17.9278 24.4883 17.8645C24.7718 17.8369 25.0621 17.8312 25.3456 17.8312C28.5224 17.8312 31.7 17.8312 34.8783 17.8312C36.4437 17.8312 37.5857 18.6094 38.0011 19.9603C38.098 20.2887 38.1479 20.6291 38.1492 20.9715C38.1653 22.4165 38.1584 23.8627 38.1561 25.3089C38.1561 27.1752 36.8822 28.463 35.0045 28.4802C33.314 28.494 31.6246 28.4837 29.9352 28.4837ZM29.9467 27.1706C31.6361 27.1706 33.3255 27.1706 35.0149 27.1706C36.1201 27.1706 36.8512 26.4636 36.8512 25.3526C36.8649 23.8911 36.8649 22.4303 36.8512 20.9703C36.8397 19.8593 36.1201 19.1557 35.0149 19.1534C31.6361 19.1488 28.2577 19.1488 24.8797 19.1534C23.7492 19.1534 23.0434 19.8765 23.0434 21.0151C23.0434 22.4468 23.0434 23.8788 23.0434 25.3112C23.0434 26.459 23.7641 27.1695 24.9267 27.1718C26.5993 27.1718 28.2726 27.1706 29.9467 27.1683V27.1706Z" fill="black"/>
<path d="M29.9157 25.3549C29.3292 25.3549 28.7428 25.3549 28.1552 25.3549C27.7305 25.3491 27.4424 25.084 27.4424 24.719C27.4424 24.354 27.7317 24.0739 28.1517 24.0716C29.353 24.064 30.555 24.064 31.7577 24.0716C32.1755 24.0716 32.4555 24.3643 32.4464 24.7362C32.4372 25.1081 32.1732 25.348 31.7646 25.3537C31.146 25.3606 30.5309 25.3537 29.9157 25.3549Z" fill="black"/>
<path d="M26.7309 22.3649C26.7292 22.4831 26.7043 22.5998 26.6575 22.7083C26.6108 22.8168 26.5431 22.9151 26.4584 22.9975C26.3737 23.0799 26.2736 23.1448 26.1638 23.1885C26.054 23.2322 25.9366 23.2538 25.8185 23.2521C25.7003 23.2505 25.5836 23.2256 25.4751 23.1788C25.3666 23.132 25.2683 23.0644 25.1859 22.9796C25.1035 22.8949 25.0387 22.7948 24.995 22.685C24.9513 22.5752 24.9297 22.4578 24.9313 22.3396C24.9347 22.101 25.0327 21.8734 25.2038 21.707C25.3749 21.5407 25.6051 21.4491 25.8437 21.4524C26.0824 21.4558 26.3099 21.5538 26.4763 21.7249C26.6426 21.896 26.7342 22.1262 26.7309 22.3649Z" fill="black"/>
<path d="M33.1671 22.3592C33.164 22.2414 33.1848 22.1243 33.2282 22.0148C33.2717 21.9054 33.337 21.8059 33.42 21.7224C33.5031 21.6389 33.6022 21.5731 33.7114 21.5291C33.8206 21.4851 33.9377 21.4637 34.0554 21.4662C34.2935 21.4619 34.5236 21.5519 34.6956 21.7166C34.8676 21.8813 34.9675 22.1073 34.9736 22.3454C34.9733 22.5899 34.8768 22.8245 34.705 22.9984C34.5332 23.1724 34.2999 23.2718 34.0554 23.2751C33.8175 23.2673 33.5919 23.1675 33.4262 22.9966C33.2605 22.8258 33.1676 22.5972 33.1671 22.3592Z" fill="black"/>
</svg>
