<svg width="330" height="177" viewBox="0 0 330 177" fill="none" xmlns="http://www.w3.org/2000/svg">
<g clip-path="url(#clip0_392_5856)">
<path d="M259.923 58.6534C237.556 -10.0479 117.384 -13.0345 108.154 64.0472C108.154 64.0472 101.031 65.4559 94.7457 64.4957C60.4798 59.2563 0.519472 124.831 46.5385 174.94H303.518C331.324 127.092 311.351 78.1242 259.923 58.6534Z" fill="#F6F5F5"/>
<path d="M198.17 101.671L197.729 101.242C226.413 71.7717 227.554 55.6566 229.278 31.2582C229.891 22.6191 230.581 12.8462 232.569 1.04995C218.984 7.35982 207.972 16.0989 199.832 27.032C193.233 35.8932 188.501 46.2087 185.746 57.6932C181.062 77.2655 183.833 93.6629 183.858 93.8261L183.249 93.932C183.22 93.7673 180.433 77.264 185.14 57.5726C187.905 46.0014 192.679 35.6065 199.327 26.6747C207.637 15.5093 218.913 6.61719 232.843 0.244088L233.375 0L233.277 0.576421C231.216 12.6006 230.516 22.5367 229.892 31.3097C228.16 55.8345 227.014 72.0408 198.17 101.671Z" fill="#DADADA"/>
<path d="M192.764 95.3421L192.165 95.1877C192.28 94.7465 203.702 50.6833 218.074 26.2217L218.607 26.5334C204.283 50.92 192.879 94.9009 192.764 95.3421Z" fill="#DADADA"/>
<path d="M208.605 46.9308L207.987 46.9087C207.987 46.8204 208.249 37.9755 203.624 29.4628L204.168 29.1687C208.876 37.8328 208.608 46.8411 208.605 46.9308Z" fill="#DADADA"/>
<path d="M202.013 64.8456L201.571 64.4044C208.143 57.8828 216.728 55.8668 216.818 55.8477L216.954 56.4506C216.876 56.4726 208.455 58.4519 202.013 64.8456Z" fill="#DADADA"/>
<path d="M219.99 120.555L219.93 119.939C231.113 118.832 240.187 111.343 247.665 97.0421C254.287 84.3723 258.849 68.1852 263.244 52.5303C266.099 42.3839 268.798 32.7817 271.948 24.469C239.76 32.5067 226.419 58.0035 226.287 58.2623L225.737 57.9815C225.87 57.7197 239.488 31.6729 272.375 23.7279L272.947 23.5896L272.736 24.1381C269.498 32.5508 266.754 42.3369 263.84 52.6965C259.426 68.3822 254.864 84.6062 248.213 97.3274C240.63 111.828 231.399 119.424 219.99 120.555Z" fill="#DADADA"/>
<path d="M217.25 105.375L216.685 105.125C216.873 104.702 235.668 62.6283 251.469 50.3923L251.847 50.8805C245.373 55.8964 237.341 66.9089 228.618 82.7122C222.017 94.6747 217.297 105.27 217.25 105.375Z" fill="#DADADA"/>
<path d="M238.027 66.7838L237.419 66.6706C237.428 66.6235 238.302 61.8591 239.077 50.3481L239.694 50.3893C238.914 61.9488 238.035 66.7367 238.027 66.7838Z" fill="#DADADA"/>
<path d="M227.485 84.7061L227.134 84.1959C227.22 84.1371 235.809 78.2845 247.084 75.7156L247.222 76.3185C236.068 78.8595 227.57 84.6473 227.485 84.7061Z" fill="#DADADA"/>
<path d="M77.7319 160.941C49.9539 132.404 48.8503 116.795 47.1786 93.1688C46.59 84.7282 45.9057 75.1612 43.9236 63.5811L43.825 63.0046L44.3577 63.2488C74.7447 77.1522 86.1137 100.949 90.3017 118.463C94.8354 137.432 92.1499 153.324 92.122 153.481L91.5127 153.375C91.5407 153.218 94.2042 137.429 89.6939 118.583C85.5619 101.314 74.3827 77.8846 44.6314 64.0561C46.5444 75.4053 47.208 84.8106 47.7952 93.1247C49.4565 116.616 50.5543 132.135 78.1748 160.51L77.7319 160.941Z" fill="#DADADA"/>
<path d="M82.9293 154.84C82.8204 154.415 71.8399 112.064 58.0443 88.5837L58.577 88.2705C72.4182 111.826 83.4178 154.26 83.5282 154.687L82.9293 154.84Z" fill="#DADADA"/>
<path d="M67.674 108.218C67.674 108.131 67.415 99.4552 71.9414 91.1057L72.4844 91.3998C68.0345 99.5949 68.2818 108.109 68.2847 108.194L67.674 108.218Z" fill="#DADADA"/>
<path d="M74.0266 125.474C67.8241 119.319 59.7189 117.413 59.6365 117.395L59.7749 116.792C59.8573 116.811 68.1302 118.752 74.4622 125.036L74.0266 125.474Z" fill="#DADADA"/>
<path d="M58.6329 171.78C34.7692 169.562 25.2146 143.126 16.7857 119.8C13.9368 111.916 11.2454 104.47 8.12429 98.0598L7.84766 97.4951L8.46569 97.6231C24.5863 100.974 35.6977 108.003 42.1813 113.309C49.2137 119.064 52.482 124.104 52.5129 124.154L51.992 124.487C51.8654 124.29 39.1043 104.853 8.95425 98.3583C11.9738 104.665 14.5961 111.922 17.3669 119.591C25.734 142.742 35.2166 168.983 58.6904 171.165L58.6329 171.78Z" fill="#DADADA"/>
<path d="M61.011 160.295C60.83 159.973 42.8038 127.983 28.0061 118.601L28.3372 118.079C43.2673 127.544 61.3685 159.669 61.551 159.988L61.011 160.295Z" fill="#DADADA"/>
<path d="M41.0997 130.775C41.0909 130.738 40.2168 127.09 39.3412 118.314L39.9563 118.254C40.8201 126.975 41.6912 130.593 41.7001 130.628L41.0997 130.775Z" fill="#DADADA"/>
<path d="M51.2032 144.526C51.1238 144.48 43.1098 139.991 32.6311 137.931L32.7503 137.325C43.3247 139.405 51.4269 143.942 51.5078 143.989L51.2032 144.526Z" fill="#DADADA"/>
<path d="M280.508 174.518L280.361 173.919C306.637 167.506 311.591 139.301 316.381 112.026C318.063 102.452 319.801 92.5584 322.458 83.9943C296.302 89.0057 281.485 107.05 273.648 121.357C265.088 136.983 262.77 151.649 262.748 151.796L262.138 151.703C262.16 151.556 264.492 136.797 273.096 121.077C281.042 106.553 296.136 88.2073 322.85 83.2855L323.356 83.1914L323.202 83.6826C320.469 92.3173 318.7 102.387 316.989 112.125C312.164 139.604 307.175 168.011 280.508 174.518Z" fill="#DADADA"/>
<path d="M278.257 159.057L277.661 158.892C277.756 158.545 287.445 124.126 303.201 110.534L303.605 111.002C287.991 124.471 278.352 158.707 278.257 159.057Z" fill="#DADADA"/>
<path d="M289.393 130.197L288.787 130.072C288.802 130.002 290.216 122.989 289.72 112.693L290.338 112.663C290.838 123.043 289.408 130.127 289.393 130.197Z" fill="#DADADA"/>
<path d="M281.061 145.179L280.682 144.69C280.767 144.624 289.414 137.953 301.358 133.712L301.566 134.3C289.714 138.501 281.147 145.112 281.061 145.179Z" fill="#DADADA"/>
<path d="M219.881 48.1468C219.484 48.147 219.095 48.0295 218.764 47.809C218.433 47.5884 218.176 47.2748 218.023 46.9078C217.871 46.5408 217.831 46.1369 217.908 45.7471C217.986 45.3574 218.177 44.9993 218.458 44.7182C218.739 44.4372 219.097 44.2457 219.487 44.1681C219.877 44.0905 220.281 44.1302 220.649 44.2822C221.016 44.4341 221.33 44.6916 221.551 45.022C221.772 45.3523 221.89 45.7407 221.89 46.1381C221.889 46.6703 221.677 47.1806 221.301 47.557C220.924 47.9335 220.414 48.1456 219.881 48.1468ZM219.881 44.7485C219.606 44.7482 219.337 44.8295 219.107 44.9823C218.878 45.135 218.7 45.3523 218.594 45.6065C218.488 45.8608 218.461 46.1406 218.514 46.4106C218.568 46.6805 218.701 46.9286 218.896 47.1232C219.09 47.3178 219.338 47.4504 219.609 47.504C219.879 47.5576 220.159 47.5299 220.413 47.4245C220.668 47.319 220.885 47.1405 221.038 46.9115C221.191 46.6825 221.272 46.4133 221.272 46.1381C221.272 45.9553 221.237 45.7742 221.167 45.6052C221.097 45.4361 220.995 45.2825 220.866 45.1531C220.737 45.0236 220.583 44.9208 220.414 44.8506C220.245 44.7805 220.064 44.7442 219.881 44.7441V44.7485Z" fill="#DADADA"/>
<path d="M53.2266 79.2022C52.829 79.2022 52.4404 79.0844 52.1098 78.8637C51.7793 78.6429 51.5216 78.3292 51.3695 77.9622C51.2174 77.5952 51.1776 77.1913 51.2551 76.8016C51.3327 76.412 51.5241 76.0541 51.8052 75.7732C52.0864 75.4922 52.4445 75.3009 52.8345 75.2234C53.2244 75.1459 53.6285 75.1857 53.9958 75.3377C54.3631 75.4898 54.6771 75.7472 54.8979 76.0775C55.1188 76.4079 55.2367 76.7962 55.2367 77.1935C55.2359 77.726 55.0239 78.2365 54.6471 78.613C54.2703 78.9895 53.7595 79.2014 53.2266 79.2022ZM53.2266 75.8024C52.9512 75.8021 52.6819 75.8835 52.4528 76.0361C52.2237 76.1888 52.045 76.406 51.9394 76.6602C51.8338 76.9143 51.8061 77.1941 51.8596 77.464C51.9132 77.7339 52.0457 77.9819 52.2403 78.1766C52.4349 78.3713 52.6829 78.504 52.953 78.5578C53.2231 78.6116 53.503 78.5841 53.7575 78.4788C54.012 78.3736 54.2294 78.1953 54.3825 77.9665C54.5355 77.7377 54.6172 77.4687 54.6172 77.1935C54.6168 76.8249 54.4702 76.4716 54.2096 76.2108C53.9489 75.9501 53.5954 75.8032 53.2266 75.8024Z" fill="#DADADA"/>
<path d="M239.67 123.955C239.273 123.955 238.884 123.837 238.554 123.617C238.223 123.396 237.965 123.082 237.813 122.715C237.661 122.348 237.621 121.944 237.699 121.555C237.776 121.165 237.968 120.807 238.249 120.526C238.53 120.245 238.888 120.054 239.278 119.976C239.668 119.899 240.072 119.939 240.44 120.091C240.807 120.243 241.121 120.5 241.342 120.83C241.563 121.161 241.68 121.549 241.68 121.946C241.68 122.479 241.468 122.989 241.091 123.366C240.714 123.742 240.203 123.954 239.67 123.955ZM239.67 120.555C239.395 120.555 239.126 120.637 238.897 120.79C238.668 120.943 238.49 121.16 238.384 121.414C238.279 121.668 238.251 121.948 238.305 122.218C238.359 122.488 238.491 122.736 238.686 122.93C238.881 123.125 239.129 123.257 239.399 123.311C239.669 123.364 239.949 123.337 240.203 123.232C240.457 123.126 240.675 122.948 240.828 122.719C240.981 122.49 241.062 122.222 241.062 121.946C241.062 121.578 240.915 121.224 240.654 120.964C240.393 120.703 240.039 120.556 239.67 120.555Z" fill="#DADADA"/>
<path d="M308.054 102.534C307.656 102.534 307.267 102.417 306.937 102.196C306.606 101.975 306.349 101.661 306.196 101.294C306.044 100.927 306.005 100.523 306.082 100.133C306.16 99.7437 306.352 99.3858 306.633 99.1049C306.914 98.8241 307.272 98.6328 307.662 98.5555C308.052 98.4782 308.457 98.5182 308.824 98.6704C309.191 98.8227 309.505 99.0804 309.726 99.4109C309.946 99.7414 310.064 100.13 310.064 100.527C310.063 101.06 309.851 101.57 309.475 101.947C309.098 102.323 308.586 102.534 308.054 102.534ZM308.054 99.1362C307.778 99.1362 307.509 99.2178 307.28 99.3706C307.051 99.5235 306.873 99.7407 306.768 99.9949C306.662 100.249 306.635 100.529 306.688 100.799C306.742 101.068 306.875 101.316 307.069 101.511C307.264 101.705 307.512 101.838 307.782 101.892C308.052 101.945 308.332 101.918 308.586 101.812C308.841 101.707 309.058 101.529 309.211 101.3C309.364 101.071 309.446 100.802 309.446 100.527C309.446 100.344 309.411 100.163 309.341 99.9936C309.271 99.8243 309.169 99.6704 309.04 99.5408C308.91 99.4111 308.757 99.3083 308.587 99.2381C308.418 99.1679 308.237 99.1318 308.054 99.1318V99.1362Z" fill="#DADADA"/>
<path d="M233.023 96.8156C233.792 96.8156 234.416 96.1928 234.416 95.4245C234.416 94.6563 233.792 94.0334 233.023 94.0334C232.255 94.0334 231.631 94.6563 231.631 95.4245C231.631 96.1928 232.255 96.8156 233.023 96.8156Z" fill="#DADADA"/>
<path d="M297.078 148.006C297.846 148.006 298.47 147.383 298.47 146.615C298.47 145.847 297.846 145.224 297.078 145.224C296.309 145.224 295.685 145.847 295.685 146.615C295.685 147.383 296.309 148.006 297.078 148.006Z" fill="#DADADA"/>
<path d="M196.061 55.7112C196.062 54.9429 195.44 54.3192 194.671 54.3181C193.902 54.317 193.278 54.939 193.277 55.7073C193.276 56.4756 193.898 57.0993 194.667 57.1003C195.436 57.1014 196.06 56.4795 196.061 55.7112Z" fill="#DADADA"/>
<path d="M41.0644 152.538C41.8332 152.538 42.4565 151.915 42.4565 151.147C42.4565 150.379 41.8332 149.756 41.0644 149.756C40.2956 149.756 39.6724 150.379 39.6724 151.147C39.6724 151.915 40.2956 152.538 41.0644 152.538Z" fill="#DADADA"/>
<path d="M80.6882 56.5344C80.5062 56.5347 80.3251 56.5079 80.151 56.455L76.3045 55.308C76.0689 55.2378 75.8495 55.1218 75.6589 54.9668C75.4682 54.8117 75.3099 54.6207 75.1932 54.4045C75.0765 54.1883 75.0036 53.9512 74.9786 53.7068C74.9537 53.4625 74.9772 53.2155 75.0478 52.9802L76.3589 48.6305C74.7338 47.7696 73.2382 46.6839 71.9164 45.4057L68.1669 47.935C67.755 48.2124 67.2499 48.3155 66.7621 48.2218C66.2743 48.1281 65.8435 47.8453 65.5638 47.435L63.3109 44.1235C63.1729 43.9203 63.0764 43.6918 63.027 43.4513C62.9775 43.2107 62.976 42.9628 63.0226 42.7217C63.0693 42.4805 63.163 42.251 63.2986 42.0462C63.4342 41.8413 63.6089 41.6653 63.8127 41.528L67.5195 39.0282C66.7327 37.1746 66.2387 35.2102 66.0553 33.2051L61.6584 32.7022C61.4141 32.6744 61.1777 32.5988 60.9627 32.4797C60.7476 32.3606 60.5582 32.2004 60.4051 32.0081C60.2521 31.8159 60.1385 31.5953 60.0707 31.3592C60.003 31.123 59.9824 30.8758 60.0103 30.6317L60.4694 26.6614C60.5273 26.1686 60.7784 25.7188 61.1676 25.4107C61.5568 25.1025 62.0524 24.9611 62.5457 25.0174L66.8867 25.5159C67.4688 23.6954 68.3161 21.9706 69.4015 20.3971L66.4011 17.287C66.2296 17.1103 66.0948 16.9014 66.0046 16.6724C65.9143 16.4433 65.8704 16.1986 65.8753 15.9525C65.8802 15.7064 65.9339 15.4637 66.0333 15.2385C66.1326 15.0132 66.2757 14.8098 66.4541 14.6401L69.3486 11.8668C69.7076 11.5244 70.1874 11.3377 70.6836 11.3473C71.1797 11.357 71.6519 11.5622 71.9973 11.9183L74.9683 14.9975C76.649 13.9206 78.4853 13.1083 80.413 12.5888L80.1378 8.34644C80.1221 8.10128 80.1547 7.85542 80.2341 7.6229C80.3134 7.39038 80.4378 7.17574 80.6001 6.99126C80.7625 6.80678 80.9595 6.65609 81.1802 6.54774C81.4008 6.4394 81.6406 6.37552 81.886 6.35981L85.8929 6.09805C86.1384 6.08088 86.3849 6.11244 86.6182 6.19086C86.8514 6.26928 87.0669 6.39303 87.2521 6.555C87.4372 6.71696 87.5886 6.91394 87.6972 7.13458C87.8059 7.35522 87.8699 7.59516 87.8854 7.8406L88.162 12.0844C90.1417 12.3491 92.0689 12.9165 93.876 13.7667L96.435 10.3345C96.7313 9.93645 97.1731 9.67158 97.6641 9.59776C98.155 9.52393 98.6553 9.64714 99.0557 9.94046L102.293 12.3153C102.491 12.4607 102.658 12.6437 102.786 12.8538C102.913 13.064 102.997 13.2972 103.033 13.54C103.07 13.7828 103.058 14.0304 102.999 14.2686C102.94 14.5069 102.834 14.7311 102.687 14.9284L100.12 18.3958C101.399 19.8162 102.462 21.4164 103.276 23.1455L107.514 22.0896C107.996 21.9702 108.506 22.0463 108.932 22.3011C109.358 22.556 109.665 22.969 109.788 23.4498L110.759 27.332C110.878 27.8134 110.802 28.3226 110.546 28.7476C110.29 29.1725 109.875 29.4784 109.393 29.598L105.098 30.6656C105.179 32.6778 104.944 34.6903 104.402 36.6299L108.401 38.6282C108.621 38.7378 108.818 38.8896 108.979 39.0751C109.14 39.2606 109.263 39.4761 109.341 39.7091C109.418 39.9422 109.449 40.1883 109.431 40.4333C109.414 40.6783 109.348 40.9174 109.237 41.1369L107.438 44.7117C107.214 45.1548 106.823 45.4913 106.352 45.6475C105.88 45.8038 105.366 45.7671 104.921 45.5454L100.873 43.5235C99.728 44.9619 98.386 46.2321 96.8867 47.2968L98.7512 51.4392C98.8516 51.6635 98.9069 51.9053 98.9138 52.1509C98.9206 52.3966 98.8791 52.6412 98.7913 52.8707C98.7036 53.1003 98.5714 53.3103 98.4025 53.4888C98.2335 53.6673 98.0309 53.8108 97.8064 53.9111L94.1423 55.5477C93.6888 55.7492 93.1739 55.7633 92.71 55.587C92.2461 55.4107 91.8707 55.0583 91.6657 54.6066L89.7925 50.4436C88.8123 50.6592 87.8171 50.8002 86.8156 50.8657C85.8131 50.9316 84.8071 50.9203 83.8063 50.8318L82.4908 55.2036C82.3732 55.5895 82.1344 55.9273 81.8097 56.167C81.4851 56.4066 81.0918 56.5355 80.6882 56.5344ZM71.9929 44.6102L72.1724 44.7896C73.555 46.1607 75.1402 47.3113 76.8725 48.2011L77.1006 48.3173L75.6423 53.1582C75.5948 53.3156 75.579 53.4809 75.5956 53.6445C75.6122 53.8082 75.6611 53.9669 75.7393 54.1116C75.8175 54.2563 75.9236 54.3841 76.0514 54.4877C76.1792 54.5914 76.3262 54.6688 76.484 54.7154L80.3306 55.8639C80.6494 55.9587 80.9928 55.9236 81.2859 55.7663C81.579 55.609 81.7979 55.3422 81.8948 55.0242L83.359 50.1716L83.6121 50.1981C84.6619 50.3027 85.7185 50.3214 86.7714 50.2539C87.8243 50.1855 88.8697 50.0301 89.897 49.7893L90.1457 49.7304L92.2279 54.3581C92.3653 54.6607 92.617 54.8968 92.928 55.0147C93.239 55.1326 93.584 55.1228 93.8878 54.9874L97.5504 53.3508C97.7009 53.2843 97.8368 53.1886 97.9501 53.0693C98.0635 52.9501 98.1522 52.8096 98.211 52.656C98.2698 52.5024 98.2976 52.3386 98.2928 52.1742C98.2881 52.0098 98.2508 51.8479 98.1831 51.698L96.1097 47.0865L96.3217 46.9395C97.9233 45.8329 99.3452 44.4869 100.538 42.9486L100.694 42.7471L105.195 44.9955C105.493 45.144 105.837 45.1688 106.153 45.0644C106.469 44.96 106.731 44.7348 106.881 44.4381L108.681 40.8619C108.755 40.7152 108.8 40.5552 108.812 40.3913C108.824 40.2273 108.803 40.0626 108.751 39.9066C108.699 39.7507 108.617 39.6065 108.509 39.4825C108.401 39.3585 108.269 39.2571 108.122 39.1841L103.659 36.9504L103.732 36.7019C104.33 34.6713 104.578 32.5542 104.468 30.4406L104.455 30.1862L109.242 28.9951C109.401 28.9556 109.552 28.8852 109.684 28.7876C109.817 28.6901 109.929 28.5674 110.014 28.4266C110.099 28.2858 110.155 28.1296 110.18 27.967C110.204 27.8044 110.197 27.6386 110.157 27.479L109.186 23.5969C109.104 23.2746 108.898 22.9978 108.612 22.8272C108.327 22.6566 107.985 22.6061 107.663 22.6867L102.926 23.8631L102.818 23.6292C101.985 21.7926 100.861 20.1017 99.4913 18.6208L99.3177 18.4325L102.189 14.5548C102.286 14.4228 102.357 14.2727 102.397 14.1133C102.436 13.9538 102.444 13.7881 102.419 13.6257C102.395 13.4633 102.338 13.3073 102.253 13.1667C102.168 13.0261 102.056 12.9037 101.924 12.8064L98.6937 10.4331C98.4254 10.2364 98.0901 10.1537 97.761 10.203C97.4319 10.2523 97.1356 10.4296 96.9367 10.6963L94.0849 14.546L93.8539 14.4328C91.9646 13.5142 89.9348 12.9178 87.8486 12.6682L87.594 12.6373L87.285 7.88325C87.262 7.55205 87.1086 7.24342 86.8585 7.0249C86.6084 6.80638 86.2819 6.69572 85.9503 6.71712L81.9434 6.9774C81.6119 6.99749 81.3018 7.14806 81.0812 7.39611C80.8605 7.64417 80.7473 7.96949 80.7662 8.30085L81.0752 13.055L80.8265 13.1182C78.7901 13.637 76.8549 14.4924 75.1008 15.6489L74.8859 15.7959L71.5603 12.3491C71.3285 12.11 71.0115 11.9722 70.6785 11.9659C70.3454 11.9596 70.0234 12.0852 69.7827 12.3153L66.8882 15.0872C66.6495 15.3166 66.5116 15.6313 66.505 15.9622C66.4984 16.293 66.6235 16.613 66.8529 16.8518L70.2036 20.3236L70.0564 20.5324C68.8895 22.1777 67.9951 23.9999 67.4077 25.9291L67.3326 26.1761L62.4766 25.6203C62.3128 25.6008 62.1467 25.6139 61.9879 25.6586C61.8291 25.7034 61.6808 25.779 61.5513 25.8812C61.4219 25.9834 61.3139 26.1101 61.2335 26.2541C61.1531 26.3981 61.102 26.5565 61.083 26.7202L60.6239 30.6905C60.5867 31.0207 60.6822 31.3521 60.8894 31.6118C61.0967 31.8716 61.3987 32.0385 61.729 32.0758L66.6292 32.636L66.6498 32.8904C66.8152 35.0003 67.335 37.0673 68.1875 39.0047L68.292 39.2415L64.1585 42.0354C64.022 42.1271 63.9049 42.2448 63.8141 42.3819C63.7233 42.5189 63.6605 42.6726 63.6293 42.834C63.5981 42.9954 63.5992 43.1613 63.6324 43.3223C63.6657 43.4833 63.7304 43.6361 63.823 43.772L66.0715 47.0836C66.2592 47.3583 66.548 47.5478 66.875 47.6106C67.2019 47.6734 67.5405 47.6045 67.8167 47.4188L71.9929 44.6102ZM85.5427 42.7692C83.7306 42.7635 81.9469 42.3192 80.3442 41.4742C78.7415 40.6293 77.3675 39.4089 76.3398 37.9174C75.3121 36.4259 74.6614 34.7079 74.4433 32.9102C74.2252 31.1125 74.4462 29.2888 75.0874 27.5952C75.7286 25.9015 76.7709 24.3883 78.1251 23.1851C79.4793 21.9819 81.1051 21.1244 82.8633 20.6862C84.6216 20.248 86.4599 20.242 88.2209 20.6687C89.982 21.0955 91.6134 21.9423 92.9754 23.1366C94.6439 24.6003 95.8402 26.5258 96.4128 28.6693C96.9853 30.8128 96.9084 33.078 96.1918 35.1778C95.4751 37.2776 94.1509 39.1176 92.387 40.4648C90.623 41.8121 88.4987 42.6058 86.2829 42.7456C86.0328 42.7618 85.7855 42.7692 85.5398 42.7692H85.5427ZM85.5751 20.9721C85.3397 20.9721 85.1027 20.9721 84.8673 20.9956C83.4786 21.0859 82.1214 21.4486 80.873 22.063C79.6246 22.6775 78.5096 23.5316 77.5916 24.5767C76.6735 25.6218 75.9705 26.8373 75.5225 28.1539C75.0746 29.4705 74.8905 30.8623 74.9808 32.25C75.0712 33.6377 75.4341 34.994 76.049 36.2415C76.6639 37.489 77.5186 38.6032 78.5644 39.5206C79.6103 40.438 80.8267 41.1406 82.1442 41.5882C83.4617 42.0358 84.8545 42.2198 86.2432 42.1295C89.001 41.9709 91.5878 40.7423 93.4523 38.7055C95.3168 36.6686 96.3115 33.9846 96.2243 31.2255C96.1372 28.4664 94.9752 25.8504 92.9859 23.9351C90.9966 22.0198 88.3375 20.9566 85.5751 20.9721Z" fill="#DADADA"/>
<path d="M178.623 28.751H89.6189C85.6115 28.751 82.3628 31.9974 82.3628 36.002V167.38C82.3628 171.385 85.6115 174.631 89.6189 174.631H178.623C182.63 174.631 185.879 171.385 185.879 167.38V36.002C185.879 31.9974 182.63 28.751 178.623 28.751Z" fill="#02B558"/>
<path d="M152.363 35.1697H115.878V41.2899H152.363V35.1697Z" fill="#72DB9F"/>
<path d="M175.553 50.6187H92.6885V68.9836H175.553V50.6187Z" fill="#72DB9F"/>
<path d="M171.927 53.1318H96.3158V66.4721H171.927V53.1318Z" fill="white"/>
<path d="M153.289 77.5022H148.963C146.913 77.5022 145.251 79.1623 145.251 81.21C145.251 83.2578 146.913 84.9179 148.963 84.9179H153.289C155.338 84.9179 157 83.2578 157 81.21C157 79.1623 155.338 77.5022 153.289 77.5022Z" fill="#1D211F"/>
<path d="M171.842 77.5022H167.516C165.466 77.5022 163.804 79.1623 163.804 81.21C163.804 83.2578 165.466 84.9179 167.516 84.9179H171.842C173.891 84.9179 175.553 83.2578 175.553 81.21C175.553 79.1623 173.891 77.5022 171.842 77.5022Z" fill="#1D211F"/>
<path d="M173.717 93.8792H163.164C162.151 93.8792 161.329 94.7001 161.329 95.7129V101.727C161.329 102.74 162.151 103.561 163.164 103.561H173.717C174.73 103.561 175.552 102.74 175.552 101.727V95.7129C175.552 94.7001 174.73 93.8792 173.717 93.8792Z" fill="#1D211F"/>
<path d="M151.026 93.8792H140.473C139.46 93.8792 138.638 94.7001 138.638 95.7129V101.727C138.638 102.74 139.46 103.561 140.473 103.561H151.026C152.039 103.561 152.861 102.74 152.861 101.727V95.7129C152.861 94.7001 152.039 93.8792 151.026 93.8792Z" fill="#1D211F"/>
<path d="M128.335 93.8792H117.782C116.769 93.8792 115.947 94.7001 115.947 95.7129V101.727C115.947 102.74 116.769 103.561 117.782 103.561H128.335C129.348 103.561 130.17 102.74 130.17 101.727V95.7129C130.17 94.7001 129.348 93.8792 128.335 93.8792Z" fill="#1D211F"/>
<path d="M105.644 93.8792H95.0915C94.078 93.8792 93.2565 94.7001 93.2565 95.7129V101.727C93.2565 102.74 94.078 103.561 95.0915 103.561H105.644C106.657 103.561 107.479 102.74 107.479 101.727V95.7129C107.479 94.7001 106.657 93.8792 105.644 93.8792Z" fill="#1D211F"/>
<path d="M173.717 111.39H163.164C162.151 111.39 161.329 112.211 161.329 113.223V119.238C161.329 120.25 162.151 121.071 163.164 121.071H173.717C174.73 121.071 175.552 120.25 175.552 119.238V113.223C175.552 112.211 174.73 111.39 173.717 111.39Z" fill="#1D211F"/>
<path d="M151.026 111.39H140.473C139.46 111.39 138.638 112.211 138.638 113.223V119.238C138.638 120.25 139.46 121.071 140.473 121.071H151.026C152.039 121.071 152.861 120.25 152.861 119.238V113.223C152.861 112.211 152.039 111.39 151.026 111.39Z" fill="#1D211F"/>
<path d="M128.335 111.39H117.782C116.769 111.39 115.947 112.211 115.947 113.223V119.238C115.947 120.25 116.769 121.071 117.782 121.071H128.335C129.348 121.071 130.17 120.25 130.17 119.238V113.223C130.17 112.211 129.348 111.39 128.335 111.39Z" fill="#1D211F"/>
<path d="M105.644 111.39H95.0915C94.078 111.39 93.2565 112.211 93.2565 113.223V119.238C93.2565 120.25 94.078 121.071 95.0915 121.071H105.644C106.657 121.071 107.479 120.25 107.479 119.238V113.223C107.479 112.211 106.657 111.39 105.644 111.39Z" fill="#1D211F"/>
<path d="M173.717 128.899H163.164C162.151 128.899 161.329 129.72 161.329 130.732V136.747C161.329 137.759 162.151 138.58 163.164 138.58H173.717C174.73 138.58 175.552 137.759 175.552 136.747V130.732C175.552 129.72 174.73 128.899 173.717 128.899Z" fill="#1D211F"/>
<path d="M151.026 128.899H140.473C139.46 128.899 138.638 129.72 138.638 130.732V136.747C138.638 137.759 139.46 138.58 140.473 138.58H151.026C152.039 138.58 152.861 137.759 152.861 136.747V130.732C152.861 129.72 152.039 128.899 151.026 128.899Z" fill="#1D211F"/>
<path d="M128.335 128.899H117.782C116.769 128.899 115.947 129.72 115.947 130.732V136.747C115.947 137.759 116.769 138.58 117.782 138.58H128.335C129.348 138.58 130.17 137.759 130.17 136.747V130.732C130.17 129.72 129.348 128.899 128.335 128.899Z" fill="#1D211F"/>
<path d="M105.644 128.899H95.0915C94.078 128.899 93.2565 129.72 93.2565 130.732V136.747C93.2565 137.759 94.078 138.58 95.0915 138.58H105.644C106.657 138.58 107.479 137.759 107.479 136.747V130.732C107.479 129.72 106.657 128.899 105.644 128.899Z" fill="#1D211F"/>
<path d="M173.717 147.027H163.164C162.151 147.027 161.329 147.848 161.329 148.861V154.875C161.329 155.888 162.151 156.709 163.164 156.709H173.717C174.73 156.709 175.552 155.888 175.552 154.875V148.861C175.552 147.848 174.73 147.027 173.717 147.027Z" fill="#1D211F"/>
<path d="M151.026 147.027H140.473C139.46 147.027 138.638 147.848 138.638 148.861V154.875C138.638 155.888 139.46 156.709 140.473 156.709H151.026C152.039 156.709 152.861 155.888 152.861 154.875V148.861C152.861 147.848 152.039 147.027 151.026 147.027Z" fill="#1D211F"/>
<path d="M128.335 147.027H117.782C116.769 147.027 115.947 147.848 115.947 148.861V154.875C115.947 155.888 116.769 156.709 117.782 156.709H128.335C129.348 156.709 130.17 155.888 130.17 154.875V148.861C130.17 147.848 129.348 147.027 128.335 147.027Z" fill="#1D211F"/>
<path d="M105.644 147.027H95.0915C94.078 147.027 93.2565 147.848 93.2565 148.861V154.875C93.2565 155.888 94.078 156.709 95.0915 156.709H105.644C106.657 156.709 107.479 155.888 107.479 154.875V148.861C107.479 147.848 106.657 147.027 105.644 147.027Z" fill="#1D211F"/>
<path d="M155.464 62.8311C155.736 62.8456 156.009 62.8338 156.279 62.7958C156.863 62.725 157.41 62.4718 157.842 62.0723C158.336 61.6312 158.692 60.9695 158.831 60.0857H158.797C158.584 60.3457 158.314 60.5532 158.007 60.6924C157.701 60.8317 157.367 60.8988 157.031 60.8886C155.686 60.8886 154.824 59.8783 154.824 58.6034C154.824 57.1903 155.854 55.9565 157.375 55.9565C158.897 55.9565 159.846 57.1976 159.846 59.1049C159.846 60.7474 159.294 61.8988 158.56 62.6076C157.964 63.1696 157.201 63.5209 156.386 63.6075C156.079 63.6575 155.768 63.6767 155.456 63.6648L155.464 62.8311ZM155.83 58.5343C155.83 59.4651 156.394 60.1195 157.268 60.1195C157.56 60.129 157.85 60.0619 158.108 59.9249C158.366 59.7879 158.584 59.5858 158.739 59.3387C158.804 59.2274 158.836 59.0998 158.831 58.971C158.831 57.6961 158.36 56.7197 157.302 56.7197C156.441 56.7153 155.83 57.4726 155.83 58.5299V58.5343Z" fill="#1D211F"/>
<path d="M161.363 62.8311C161.636 62.8456 161.909 62.8338 162.18 62.7958C162.764 62.7244 163.31 62.4713 163.743 62.0723C164.237 61.6312 164.593 60.9695 164.73 60.0857H164.699C164.486 60.3456 164.216 60.5531 163.91 60.6923C163.603 60.8315 163.269 60.8986 162.933 60.8886C161.588 60.8886 160.726 59.8783 160.726 58.6034C160.726 57.1903 161.749 55.9565 163.276 55.9565C164.804 55.9565 165.748 57.1976 165.748 59.1049C165.748 60.7474 165.196 61.8988 164.461 62.6076C163.866 63.1696 163.103 63.5209 162.289 63.6075C161.981 63.6575 161.669 63.6767 161.357 63.6648L161.363 62.8311ZM161.731 58.5343C161.731 59.4651 162.295 60.1195 163.167 60.1195C163.459 60.1292 163.749 60.0621 164.007 59.9251C164.265 59.7881 164.483 59.5859 164.639 59.3387C164.704 59.2277 164.736 59.0999 164.73 58.971C164.73 57.6961 164.259 56.7197 163.203 56.7197C162.345 56.7153 161.731 57.4726 161.731 58.5299V58.5343Z" fill="#1D211F"/>
<path d="M269.557 133.54H213.08V174.94H269.557V133.54Z" fill="#9CFFC9"/>
<path d="M269.56 142.913H254.512V143.53H269.56V142.913Z" fill="#E49B31"/>
<path d="M269.559 165.573H243.38V166.19H269.559V165.573Z" fill="#E49B31"/>
<path d="M241.235 148.542C241.234 153.36 240.5 158.15 239.058 162.748C237.979 166.191 235.827 169.2 232.917 171.337C230.008 173.474 226.491 174.626 222.88 174.627H213.08V133.543H238.804C240.413 138.38 241.234 143.444 241.235 148.542Z" fill="#008036"/>
<path d="M186.772 164.916H140.214C138.664 164.916 137.407 166.172 137.407 167.721V172.134C137.407 173.684 138.664 174.94 140.214 174.94H186.772C188.323 174.94 189.58 173.684 189.58 172.134V167.721C189.58 166.172 188.323 164.916 186.772 164.916Z" fill="#9CFFC9"/>
<path d="M183.811 157.691V162.102C183.811 162.846 183.515 163.56 182.988 164.086C182.462 164.612 181.748 164.908 181.004 164.908H134.444C134.076 164.908 133.711 164.836 133.37 164.695C133.029 164.554 132.719 164.347 132.459 164.087C132.198 163.826 131.991 163.517 131.85 163.176C131.709 162.836 131.637 162.471 131.637 162.102V157.691C131.637 156.947 131.933 156.233 132.459 155.707C132.986 155.181 133.7 154.885 134.444 154.884H181.004C181.748 154.885 182.461 155.182 182.988 155.708C183.514 156.234 183.81 156.947 183.811 157.691Z" fill="#9CFFC9"/>
<path d="M189.581 167.721V172.133C189.581 172.501 189.509 172.866 189.368 173.207C189.227 173.547 189.02 173.857 188.76 174.117C188.499 174.378 188.189 174.585 187.848 174.726C187.508 174.866 187.142 174.939 186.773 174.938H153.386C151.08 172.096 149.67 168.431 148.824 164.914C148.053 161.623 147.622 158.262 147.538 154.884H181.004C181.748 154.885 182.461 155.181 182.987 155.707C183.513 156.233 183.81 156.946 183.811 157.689V162.101C183.811 162.845 183.515 163.558 182.988 164.084C182.462 164.611 181.748 164.906 181.004 164.907H186.772C187.142 164.906 187.508 164.979 187.849 165.12C188.191 165.261 188.501 165.469 188.762 165.73C189.023 165.992 189.23 166.302 189.371 166.644C189.511 166.986 189.583 167.352 189.581 167.721Z" fill="#008036"/>
<path d="M214.05 85.5148L210.29 97.0538L210.012 97.9066L208.268 103.27L208.256 103.308L202.635 103.184L181.065 102.696L179.488 98.1846L179.223 97.4302L175.048 85.5192C187.998 89.9954 198.671 80.2005 214.05 85.5148Z" fill="#02B558"/>
<path d="M210.012 97.9067L208.268 103.27L202.635 103.184L181.065 102.696L179.488 98.1846C186.903 98.0479 199.66 97.8758 210.012 97.9067Z" fill="#008036"/>
<path d="M234.111 163.061C233.032 166.505 230.881 169.515 227.971 171.651C225.061 173.788 221.544 174.94 217.933 174.94H169.078C165.641 174.938 162.299 173.81 159.565 171.727C156.831 169.645 154.855 166.724 153.942 163.413C152.873 159.532 152.283 155.535 152.187 151.511C152.187 151.127 152.175 150.743 152.175 150.361C152.175 149.908 152.181 149.455 152.193 149.003C152.591 134.601 159.634 121.188 170.937 112.241L182.624 102.995L209.369 103.612L224.071 117.67C226.152 119.635 227.964 121.867 229.459 124.308C232.933 130.071 235.144 136.504 235.945 143.184C236.747 149.863 236.122 156.637 234.111 163.057V163.061Z" fill="#02B558"/>
<path d="M213.189 101.092H176.567C174.661 101.092 173.116 102.636 173.116 104.54C173.116 106.445 174.661 107.988 176.567 107.988H213.189C215.095 107.988 216.64 106.445 216.64 104.54C216.64 102.636 215.095 101.092 213.189 101.092Z" fill="#72DB9F"/>
<path d="M234.111 163.061C233.032 166.505 230.881 169.514 227.971 171.651C225.061 173.788 221.544 174.94 217.933 174.94H169.078C165.641 174.938 162.299 173.81 159.565 171.727C156.831 169.645 154.855 166.724 153.942 163.413C152.873 159.532 152.283 155.535 152.187 151.51C160.268 159.21 169.792 169.277 192.055 169.586C219.699 169.969 231.612 157.022 233.752 133.544C237.006 143.095 237.132 153.434 234.111 163.061Z" fill="#419964"/>
<path d="M44.3636 166.39L39.4163 164.538L27.9237 174.631H41.5235L44.3636 166.39Z" fill="#464747"/>
<path d="M44.3635 166.39H55.2882L54.0506 174.219L41.5235 174.631L44.3635 166.39Z" fill="url(#paint0_linear_392_5856)"/>
<path d="M88.2136 122.511L87.8118 125.249L87.5705 126.899L85.84 138.758L85.1778 143.288L84.5892 147.33L83.05 157.86L81.9802 165.165C81.5898 167.822 80.2559 170.25 78.2222 172.005C76.1886 173.759 73.591 174.725 70.904 174.724H46.7327L46.7636 174.415L47.5494 166.382L47.6598 165.251L64.5117 162.005L66.7749 145.58C65.661 140.802 65.9332 136.204 66.4159 132.978C66.6282 131.456 66.9548 129.952 67.3929 128.48L74.9124 126.322L88.2136 122.511Z" fill="#1D211F"/>
<path d="M83.0514 157.86L81.9816 165.165C81.5912 167.822 80.2573 170.25 78.2237 172.005C76.1901 173.759 73.5924 174.725 70.9055 174.724H69.6694C80.7441 172.75 78.5795 158.614 83.0514 157.86Z" fill="#464747"/>
<path d="M38.1236 170.662L35.7531 174.472L36.278 174.798L38.6485 170.988L38.1236 170.662Z" fill="white"/>
<path d="M85.84 138.759L84.5907 147.33C81.1091 146.334 76.5179 141.361 76.5179 141.361L85.84 138.759Z" fill="#464747"/>
<path d="M111.452 160.619C111.452 160.619 105.578 163.632 95.065 161.7L103.8 155.906L111.452 160.619Z" fill="#102048"/>
<path d="M108.219 164.776L98.8262 164.986L98.7703 162.958L98.6217 157.403L106.97 158.022L107.366 160.166L108.219 164.776Z" fill="url(#paint1_linear_392_5856)"/>
<path d="M107.366 160.166L98.7703 162.958L98.6217 157.403L106.97 158.022L107.366 160.166Z" fill="#E28B6D"/>
<path d="M118.873 174.709L108.515 166.365L108.222 164.779L98.8247 164.986L99.0852 174.709H118.873Z" fill="#464747"/>
<path d="M111.802 168.753L108.091 171.069L108.419 171.594L112.13 169.278L111.802 168.753Z" fill="white"/>
<path d="M67.3929 128.487L101.004 123.152C102.577 122.903 104.188 123.114 105.642 123.761C107.059 124.391 108.268 125.407 109.133 126.692C109.997 127.978 110.481 129.481 110.529 131.03L111.452 160.623C111.452 160.623 101.868 158.614 95.065 161.704L94.447 141.464C90.337 143.335 83.2177 143.73 76.0028 143.01L67.3929 128.487Z" fill="#1D211F"/>
<path d="M106.721 159.695H106.103C106.103 154.575 106.226 150.324 106.335 146.574C106.6 137.441 106.747 132.41 104.422 130.281C102.537 128.558 98.7732 128.612 93.3094 129.252C87.4557 129.934 85.1219 123.705 85.0983 123.642L85.6796 123.432C85.7664 123.67 87.8707 129.283 93.2373 128.637C99.019 127.955 102.771 127.928 104.839 129.814C107.377 132.134 107.236 136.962 106.956 146.577C106.84 150.339 106.721 154.59 106.721 159.695Z" fill="#464747"/>
<path d="M95.0768 157.972L94.8575 157.394C94.9355 157.365 102.776 154.453 111.43 156.61L111.283 157.21C102.823 155.1 95.1533 157.947 95.0768 157.972Z" fill="#464747"/>
<path d="M50.1658 174.821C49.2034 172.894 50.694 164.921 50.7544 164.582L51.3621 164.698C50.9383 166.946 49.9936 173.1 50.7161 174.55L50.1658 174.821Z" fill="#464747"/>
<path d="M84.8688 126.015C84.8688 126.015 82.4938 131.063 77.1389 134.463C75.3215 135.613 73.5337 136.138 71.9326 136.144C69.5149 136.144 67.5048 134.976 66.4159 132.985C66.6282 131.464 66.9548 129.96 67.393 128.487L74.9125 126.33L82.5011 126.089L84.8688 126.015Z" fill="#464747"/>
<path d="M78.8326 95.5847V102.737H85.8415V96.5508L78.8326 95.5847Z" fill="#008036"/>
<path d="M85.8415 92.1277H78.8326V95.5848L85.8415 96.5509V92.1277Z" fill="url(#paint2_linear_392_5856)"/>
<path d="M80.8986 93.1071C81.0531 93.1071 82.5894 95.5143 85.8415 96.551L85.7944 92.7969L80.8986 93.1071Z" fill="#102048"/>
<path d="M86.6655 83.5783C86.6655 83.5783 90.5297 93.982 85.531 94.651C80.5322 95.3201 79.7596 93.0556 79.7596 93.0556L78.2145 87.5442L81.6667 82.9092L86.6655 83.5783Z" fill="url(#paint3_linear_392_5856)"/>
<path d="M89.03 88.5915C89.0411 87.9947 88.5659 87.5019 87.9686 87.4908C87.3714 87.4798 86.8783 87.9547 86.8672 88.5515C86.8562 89.1483 87.3314 89.641 87.9286 89.6521C88.5259 89.6631 89.019 89.1883 89.03 88.5915Z" fill="#F9B384"/>
<path d="M81.4107 88.5235C81.4107 88.5235 81.6682 82.9606 86.667 83.5782C86.667 83.5782 83.3031 79.2609 78.8679 80.9313C76.6164 81.7813 75.1096 83.9297 74.8948 86.3236C74.6093 89.419 76.4178 92.9408 78.9429 93.5658C79.6059 92.0878 80.3426 90.6439 81.1502 89.2396L81.4107 88.5235Z" fill="#102048"/>
<path d="M81.9755 90.5627C82.7353 90.2059 83.0128 89.1969 82.5953 88.309C82.1777 87.4211 81.2233 86.9906 80.4635 87.3474C79.7037 87.7042 79.4262 88.7132 79.8437 89.6011C80.2613 90.489 81.2157 90.9195 81.9755 90.5627Z" fill="#F9B384"/>
<path opacity="0.4" d="M86.4042 89.2252C86.4154 88.4432 85.7901 87.8002 85.0076 87.789C84.225 87.7778 83.5815 88.4027 83.5703 89.1847C83.5591 89.9667 84.1845 90.6097 84.967 90.6209C85.7496 90.632 86.393 90.0072 86.4042 89.2252Z" fill="#EB5D60"/>
<path d="M81.5431 89.5014C81.5232 89.5024 81.5033 89.4993 81.4846 89.4924C81.4659 89.4854 81.4488 89.4747 81.4343 89.461C81.4199 89.4472 81.4084 89.4307 81.4005 89.4123C81.3927 89.394 81.3886 89.3743 81.3887 89.3543C81.3812 89.0929 81.2776 88.8433 81.0976 88.6534C80.9176 88.4635 80.6739 88.3466 80.413 88.325C80.3926 88.3231 80.3729 88.3169 80.355 88.307C80.3371 88.297 80.3215 88.2834 80.3092 88.2671C80.2969 88.2508 80.2881 88.2321 80.2834 88.2121C80.2788 88.1922 80.2783 88.1715 80.2821 88.1514C80.2883 88.1112 80.3098 88.075 80.3422 88.0503C80.3745 88.0256 80.4152 88.0144 80.4557 88.0191C80.7898 88.0539 81.0999 88.2087 81.3284 88.4549C81.5568 88.701 81.688 89.0217 81.6977 89.3572C81.6955 89.3955 81.6794 89.4317 81.6522 89.4589C81.6251 89.486 81.5888 89.5022 81.5505 89.5043L81.5431 89.5014Z" fill="#102048"/>
<path d="M104.955 85.3811C104.955 85.3811 110.361 85.7928 113.303 89.2441L106.609 90.8925L104.955 85.3811Z" fill="#BA5C36"/>
<path d="M114.539 82.4209C114.564 82.915 113.203 85.381 112.201 87.1265C111.612 88.1337 111.156 88.8999 111.156 88.8999L107.551 89.9498L104.979 86.0751L104.855 85.8839C104.855 85.8839 104.892 85.7163 104.96 85.4207V85.4134C104.967 85.4134 104.967 85.3957 104.973 85.3766C105.405 83.5414 106.939 77.2889 107.823 77.0771C108.603 76.8977 108.145 80.321 108.145 80.321C108.145 80.321 110.069 74.7537 111.206 74.9817C112.116 75.1611 110.334 80.5004 110.334 80.5004C110.334 80.5004 110.971 79.8328 111.614 80.0431C111.809 80.1055 111.984 80.2194 112.121 80.3729C112.257 80.5264 112.349 80.7137 112.388 80.9151C112.388 80.9151 112.844 80.5931 113.302 80.8651C113.759 81.1371 113.717 82.0091 113.717 82.0091C113.717 82.0091 114.489 81.6533 114.539 82.4209Z" fill="url(#paint4_linear_392_5856)"/>
<path d="M77.1948 100.226L74.7461 109.793L70.9481 124.624C68.37 125.768 65.6506 126.187 63.4904 125.83C60.9888 125.415 59.2363 123.956 59.354 121.38C59.663 114.428 77.1948 100.226 77.1948 100.226Z" fill="#008036"/>
<path d="M76.7239 102.943L74.7462 109.793L70.9482 124.624C68.37 125.768 65.6507 126.187 63.4905 125.83C68.9955 110.05 76.7239 102.943 76.7239 102.943Z" fill="#045625"/>
<path d="M92.0292 124.592C86.9275 124.937 70.8496 138.225 66.9854 129.653C66.9854 129.653 67.5225 97.6773 84.0404 98.2714C85.4719 98.3249 86.8522 98.8182 87.9931 99.6839C89.1341 100.55 89.9803 101.746 90.4165 103.109C90.9137 104.751 91.2818 106.429 91.5172 108.128C91.8871 110.775 92.0974 113.441 92.147 116.113C92.2147 118.58 92.1838 121.392 92.0292 124.592Z" fill="#008036"/>
<path d="M92.1528 116.109C89.5998 114.459 86.9333 109.491 86.9333 109.491L91.523 108.131C91.8927 110.775 92.103 113.439 92.1528 116.109Z" fill="#045625"/>
<path d="M112.201 87.131C111.612 88.1383 111.156 88.9044 111.156 88.9044L107.551 89.9543L104.979 86.0796L104.959 85.4252V85.3811H104.973L112.201 87.131Z" fill="#E28B6D"/>
<path d="M84.0417 98.2699C84.0417 98.2699 91.9733 98.8258 96.7661 99.7522L104.959 85.384C107.376 87.3475 110.246 88.6754 113.307 89.247L106.132 106.13C105.356 107.703 104.166 109.037 102.691 109.989C101.217 110.94 99.5111 111.475 97.7564 111.535L85.475 111.956L84.0417 98.2699Z" fill="#008036"/>
<path d="M96.7661 99.9815H96.7234C96.5762 99.9521 81.5946 97.2082 79.043 99.4624C79.0206 99.4852 78.9938 99.5031 78.9643 99.515C78.9347 99.5269 78.903 99.5327 78.8711 99.5318C78.8393 99.531 78.8079 99.5236 78.779 99.5102C78.7501 99.4967 78.7243 99.4775 78.7031 99.4536C78.682 99.4298 78.666 99.4018 78.6561 99.3715C78.6462 99.3412 78.6427 99.3092 78.6457 99.2775C78.6487 99.2458 78.6583 99.215 78.6737 99.1871C78.6892 99.1592 78.7102 99.1348 78.7354 99.1154C81.4548 96.7126 96.1833 99.4095 96.8087 99.5242C96.8652 99.5353 96.9155 99.567 96.9499 99.613C96.9844 99.6591 97.0005 99.7163 96.9952 99.7736C96.9899 99.8308 96.9635 99.8841 96.9212 99.923C96.8789 99.962 96.8236 99.9839 96.7661 99.9844V99.9815Z" fill="#BA5C36"/>
<path d="M260.902 161.447L261.933 174.631H244.772L253.429 168.656L253.275 160.417L260.902 161.447Z" fill="#464747"/>
<path d="M286.204 155.834L290.843 167.112L279.093 177L280.794 165.876L278.474 158.46L286.204 155.834Z" fill="#464747"/>
<path d="M265.438 92.2292C265.257 92.767 265.113 93.3162 265.006 93.8733C264.776 95.0159 264.579 96.4746 264.417 98.1921C263.874 103.803 263.644 112.141 263.583 120.996C263.453 140.939 264.208 163.508 264.208 163.508L261.066 163.46L253.336 163.342L250.602 163.298C246.46 131.706 247.64 105.027 248.266 95.7393C248.283 95.4173 248.308 95.1217 248.321 94.8438C248.451 93.138 248.538 92.2292 248.538 92.2292H265.438Z" fill="#1D211F"/>
<path d="M289.142 158.769L287.57 159.159L279.33 161.217L274.295 162.479C274.295 162.479 268.334 140.373 263.572 120.998C261.284 111.654 259.268 102.946 258.341 97.6626C258.019 95.7966 257.828 94.3555 257.803 93.4658L265.001 93.8746L274.091 94.3937C274.091 94.3937 274.315 95.6965 274.747 98.039C276.482 107.377 281.56 133.232 289.142 158.769Z" fill="#1D211F"/>
<path d="M274.752 98.0377C271.312 98.3157 267.857 98.3648 264.411 98.1847C262.241 98.0744 260.207 97.8818 258.346 97.6539C254.945 97.2376 251.575 96.5955 248.26 95.732C247.202 95.4482 246.626 95.2614 246.626 95.2614L248.316 94.8364L258.728 92.2219H265.438C265.257 92.7596 265.113 93.3089 265.006 93.8659L274.095 94.385C274.095 94.385 274.319 95.6952 274.752 98.0377Z" fill="#464747"/>
<path d="M263.899 123.415C263.399 121.32 261.035 111.395 260.728 109.715L255.948 107.925L256.166 107.346L261.316 109.275V109.488C261.352 109.947 263.241 117.983 264.502 123.271L263.899 123.415Z" fill="#464747"/>
<path d="M251.763 132.453C249.515 132.453 248.085 131.896 248.007 131.865L248.236 131.291C248.26 131.302 250.783 132.278 254.349 131.585L254.468 132.193C253.577 132.366 252.671 132.453 251.763 132.453Z" fill="#464747"/>
<path d="M269.666 132.019C268.747 132.017 267.83 131.936 266.924 131.778L267.039 131.169C267.082 131.178 271.264 131.951 273.195 130.603L273.549 131.109C272.521 131.828 270.995 132.019 269.666 132.019Z" fill="#464747"/>
<path d="M253.637 168.466L253.261 168.957L255.683 170.811L256.059 170.32L253.637 168.466Z" fill="white"/>
<path d="M280.869 165.534L280.637 166.106L283.935 167.445L284.167 166.872L280.869 165.534Z" fill="white"/>
<path d="M256.366 58.4475C256.366 58.4475 245.751 59.7857 243.071 71.7334L246.267 85.9472L244.824 95.4245C244.824 95.4245 259.252 96.8655 274.094 94.3951L269.585 70.2423L256.366 58.4475Z" fill="#008036"/>
<path d="M262.963 88.7294C262.963 88.7294 259.768 86.3854 263.942 76.1111L266.724 86.231L262.963 88.7294Z" fill="#045625"/>
<path d="M262.643 68.4844C262.694 68.58 262.725 68.6846 262.735 68.7922C262.745 68.8999 262.734 69.0085 262.702 69.1119C262.67 69.2153 262.619 69.3113 262.55 69.3947C262.481 69.478 262.396 69.5469 262.3 69.5975L250.55 75.8144L249.778 74.3576L261.528 68.1407C261.624 68.09 261.729 68.0588 261.837 68.0486C261.945 68.0385 262.053 68.0497 262.157 68.0816C262.26 68.1135 262.357 68.1655 262.44 68.2347C262.523 68.3038 262.592 68.3886 262.643 68.4844Z" fill="#102048"/>
<path d="M265.646 85.381L265.329 85.2089L261.23 83.0032L254.359 79.2887C254.236 78.4609 254.328 77.7565 254.824 77.2742L254.483 77.1389C254.207 77.0224 253.965 76.8394 253.777 76.6065C253.589 76.3735 253.462 76.0977 253.407 75.8037L253.395 75.7287C253.266 75.2485 253.253 74.7443 253.359 74.2582L253.519 74.0494C253.921 73.523 254.108 73.2583 254.62 72.8436L253.737 72.8936C253.737 72.8936 251.572 73.4818 252.58 72.0951C253.273 71.1319 254.826 70.3158 255.71 69.9085C255.892 69.8224 256.097 69.7952 256.295 69.8305C256.493 69.8658 256.675 69.9619 256.817 70.1055C259.791 73.1936 265.022 76.886 265.022 76.886L265.078 77.6389L265.585 84.5796L265.646 85.381Z" fill="url(#paint5_linear_392_5856)"/>
<path d="M257.535 73.5731L255.663 72.6584C255.469 72.5627 255.249 72.5318 255.036 72.5702L253.044 72.9158L252.991 72.6114L254.983 72.2658C255.261 72.217 255.546 72.2572 255.8 72.3805L257.672 73.2951L257.535 73.5731Z" fill="#E28B6D"/>
<path d="M257.187 75.3304L254.943 74.4716C254.843 74.4332 254.737 74.4133 254.63 74.4128H253.353V74.104H254.63C254.775 74.104 254.918 74.1304 255.054 74.1819L257.298 75.0422L257.187 75.3304Z" fill="#E28B6D"/>
<path d="M256.878 77.0801L254.84 76.3096C254.679 76.2486 254.505 76.2274 254.334 76.2478L253.498 76.3419L253.463 76.0346L254.299 75.9405C254.519 75.9156 254.742 75.9434 254.949 76.0213L256.989 76.7904L256.878 77.0801Z" fill="#E28B6D"/>
<path d="M265.587 84.5782L265.328 85.209L261.227 82.9959L263.942 76.1111L265.079 77.6374L265.587 84.5782Z" fill="#E28B6D"/>
<path d="M262.963 88.7294C262.963 88.7294 269.096 94.5481 274.094 94.3937L272.65 87.5442L262.963 88.7294Z" fill="#045625"/>
<path d="M256.366 58.4476C257.036 58.3935 257.709 58.3817 258.381 58.4123C270.759 58.8343 280.242 69.4792 279.637 81.8416C279.388 86.9531 278.06 92.0263 273.785 92.1277L262.963 88.7294C263.983 84.9062 264.745 80.9358 263.942 76.1112L268.967 78.5066L256.366 58.4476Z" fill="#008036"/>
<path d="M259.898 88.2559L244.772 88.6265L244.357 87.3471L242.836 82.6754L238.433 69.1586L253.559 68.7881L259.898 88.2559Z" fill="#72DB9F"/>
<path opacity="0.3" d="M246.045 81.0549C246.045 81.0549 246.021 85.2326 244.357 87.3472L242.837 82.6739L246.045 81.0549Z" fill="#1F3C88"/>
<path d="M238.717 80.7285C239.194 79.1918 240.062 77.7728 241.015 76.492C241.32 76.0846 241.981 75.0833 242.615 75.2362C243.904 75.545 242.615 77.811 242.615 77.811C242.615 77.811 243.852 75.9567 244.316 76.8846C244.779 77.8125 244.11 78.8404 244.11 78.8404C244.11 78.8404 246.067 77.5537 245.346 80.1285C245.346 80.1285 246.944 79.9226 245.964 81.674C245.267 82.9224 244.813 84.3209 243.938 85.4649C243.062 86.609 241.398 87.2692 240.022 86.6104C238.403 85.8355 238.196 83.7665 238.403 82.1916C238.465 81.6958 238.57 81.2062 238.717 80.7285Z" fill="url(#paint6_linear_392_5856)"/>
<path d="M241.486 80.3212C241.46 80.3222 241.434 80.3165 241.411 80.3047C241.388 80.2929 241.368 80.2753 241.353 80.2538C241.338 80.2322 241.329 80.2072 241.327 80.1812C241.324 80.1552 241.329 80.129 241.339 80.105L242.811 76.7832C242.827 76.7457 242.858 76.7164 242.897 76.7015C242.935 76.6866 242.977 76.6875 243.015 76.7038C243.034 76.7121 243.05 76.724 243.064 76.7387C243.078 76.7535 243.089 76.7709 243.097 76.7898C243.104 76.8088 243.107 76.829 243.107 76.8494C243.106 76.8697 243.102 76.8897 243.093 76.9082L241.622 80.2301C241.611 80.2569 241.592 80.2799 241.568 80.2961C241.544 80.3123 241.515 80.3211 241.486 80.3212Z" fill="#E28B6D"/>
<path d="M242.995 81.5579C242.972 81.5582 242.949 81.5532 242.928 81.5432C242.891 81.5256 242.863 81.4942 242.849 81.4556C242.835 81.4171 242.836 81.3746 242.853 81.3373L244.245 78.364C244.263 78.3269 244.294 78.2983 244.333 78.2844C244.371 78.2704 244.414 78.2724 244.451 78.2897C244.488 78.3071 244.516 78.3384 244.53 78.3769C244.544 78.4154 244.542 78.4578 244.525 78.4948L243.134 81.4682C243.122 81.4948 243.102 81.5173 243.077 81.5332C243.053 81.549 243.024 81.5576 242.995 81.5579Z" fill="#E28B6D"/>
<path d="M244.153 82.5621C244.125 82.5643 244.098 82.5588 244.073 82.5462C244.049 82.5336 244.029 82.5145 244.015 82.4909C244 82.4673 243.993 82.4403 243.994 82.4128C243.994 82.3854 244.002 82.3586 244.017 82.3356L245.215 80.0563C245.235 80.0201 245.268 79.993 245.307 79.9812C245.347 79.9693 245.389 79.9736 245.426 79.9931C245.462 80.0126 245.489 80.0457 245.501 80.0852C245.513 80.1246 245.508 80.1671 245.489 80.2034L244.29 82.4826C244.276 82.507 244.256 82.5272 244.232 82.5412C244.208 82.5552 244.181 82.5624 244.153 82.5621Z" fill="#E28B6D"/>
<path d="M249.151 70.138H243.741L242.814 68.2837H248.224L249.151 70.138Z" fill="#102048"/>
<path d="M256.228 64.4825C255.276 64.4891 254.343 64.2088 253.553 63.6782C253.509 63.6392 253.481 63.5849 253.475 63.5264C253.47 63.4679 253.487 63.4094 253.523 63.3628C253.558 63.3161 253.611 63.2848 253.669 63.2751C253.727 63.2655 253.786 63.2781 253.835 63.3105C253.924 63.3767 256.022 64.9384 258.839 63.2444C258.891 63.217 258.952 63.2107 259.009 63.2266C259.066 63.2426 259.114 63.2797 259.145 63.3303C259.176 63.3809 259.186 63.4413 259.173 63.4991C259.161 63.5569 259.127 63.6078 259.078 63.6414C258.225 64.1805 257.238 64.4717 256.228 64.4825Z" fill="#045625"/>
<path d="M262.963 88.9601C262.941 88.9601 262.918 88.9571 262.897 88.9513C262.867 88.9426 262.839 88.928 262.815 88.9084C262.791 88.8888 262.771 88.8646 262.757 88.8371C262.742 88.8097 262.733 88.7797 262.731 88.7488C262.728 88.7179 262.731 88.6867 262.741 88.6572C264.964 81.1327 263.731 76.2125 263.718 76.158L263.628 75.8125L273.205 77.4153C273.262 77.4288 273.312 77.4637 273.345 77.5128C273.378 77.5619 273.391 77.6216 273.381 77.6798C273.371 77.738 273.34 77.7902 273.293 77.8261C273.246 77.8619 273.187 77.8785 273.128 77.8727L264.239 76.3845C264.477 77.6432 265.11 82.2665 263.185 88.7822C263.173 88.8324 263.145 88.8772 263.105 88.9094C263.065 88.9417 263.015 88.9595 262.963 88.9601Z" fill="#045625"/>
<path d="M269.971 77.2699H269.957C269.896 77.2662 269.838 77.2382 269.798 77.1921C269.757 77.1461 269.736 77.0858 269.74 77.0244C269.74 76.9744 269.999 71.9894 266.533 66.8677C266.499 66.8168 266.486 66.7544 266.498 66.6941C266.51 66.6339 266.545 66.5807 266.596 66.5464C266.647 66.5121 266.709 66.4994 266.769 66.5111C266.83 66.5228 266.883 66.558 266.917 66.6089C270.475 71.8659 270.206 77.0008 270.203 77.0494C270.2 77.1089 270.174 77.1651 270.131 77.2061C270.088 77.2472 270.03 77.27 269.971 77.2699Z" fill="#045625"/>
<path d="M260.618 52.7583V58.7226C260.618 60.6475 259.117 62.2062 257.265 62.2062C255.414 62.2062 253.912 60.6475 253.912 58.7226V52.7583H260.618Z" fill="url(#paint7_linear_392_5856)"/>
<path d="M257.449 53.5539C257.449 53.5539 257.101 57.2389 253.918 58.305V53.0715L257.449 53.5539Z" fill="#102048"/>
<path d="M251.381 45.9601C251.381 45.9601 250.34 54.3257 253.603 55.3183C256.865 56.3109 259.846 53.4273 259.846 53.4273L259.231 46.5277L254.408 43.6926L251.381 45.9601Z" fill="url(#paint8_linear_392_5856)"/>
<path d="M269.947 62.2194L263.509 62.6458C262.694 61.7488 262.233 60.49 261.932 59.0666C261.661 60.5371 261.876 61.7473 262.594 62.7075L260.85 62.8237C259.303 60.5136 258.006 55.3963 259.539 51.0201L259.718 49.9907C259.718 49.9907 258.618 46.6586 257.023 46.5175C257.023 46.5175 251.55 50.2069 249.113 46.091C247.294 43.025 248.828 38.9959 253.201 41.9736C253.201 41.9736 263.706 37.049 263.683 47.1468C263.675 48.957 264.357 50.7378 265.699 51.9494C265.813 52.0623 265.934 52.1674 266.062 52.2641C268.42 54.1228 270.961 57.8432 269.947 62.2194Z" fill="#1D211F"/>
<path d="M261.404 50.564C261.715 49.6001 261.298 48.6032 260.473 48.3375C259.647 48.0717 258.726 48.6377 258.415 49.6016C258.105 50.5655 258.522 51.5624 259.347 51.8281C260.172 52.0939 261.093 51.528 261.404 50.564Z" fill="url(#paint9_linear_392_5856)"/>
<path d="M259.665 50.6261C259.626 50.6261 259.589 50.6106 259.561 50.583C259.534 50.5555 259.518 50.5181 259.518 50.4791C259.518 49.8129 260.045 49.2233 260.669 49.1924H260.676C260.715 49.1924 260.753 49.2079 260.78 49.2355C260.808 49.263 260.824 49.3004 260.824 49.3394C260.826 49.3805 260.811 49.4208 260.784 49.4514C260.756 49.4819 260.718 49.5004 260.676 49.5027C260.438 49.5301 260.217 49.6454 260.059 49.8262C259.901 50.007 259.816 50.2403 259.82 50.4805C259.817 50.5198 259.8 50.5566 259.771 50.5836C259.743 50.6106 259.705 50.6258 259.665 50.6261Z" fill="#102048"/>
<path d="M252.527 49.1555C252.527 49.2321 252.504 49.3069 252.462 49.3705C252.419 49.4342 252.359 49.4837 252.288 49.513C252.217 49.5422 252.139 49.5497 252.064 49.5347C251.989 49.5197 251.92 49.4827 251.866 49.4285C251.812 49.3742 251.775 49.3052 251.76 49.2301C251.746 49.1549 251.753 49.0771 251.783 49.0065C251.812 48.9359 251.862 48.8756 251.926 48.8332C251.99 48.7909 252.065 48.7685 252.142 48.7688C252.192 48.7688 252.243 48.7788 252.289 48.7982C252.336 48.8177 252.379 48.8462 252.415 48.8821C252.45 48.9181 252.479 48.9607 252.498 49.0076C252.517 49.0546 252.527 49.1048 252.527 49.1555Z" fill="#102048"/>
<path d="M254.859 48.9585C254.859 49.035 254.837 49.1098 254.794 49.1734C254.752 49.237 254.691 49.2865 254.621 49.3158C254.55 49.3451 254.472 49.3528 254.397 49.3378C254.322 49.3229 254.253 49.2861 254.199 49.232C254.145 49.1779 254.108 49.109 254.093 49.034C254.078 48.9589 254.086 48.8812 254.115 48.8105C254.144 48.7399 254.194 48.6794 254.257 48.6369C254.321 48.5944 254.396 48.5718 254.472 48.5718C254.523 48.5716 254.574 48.5815 254.621 48.6008C254.668 48.6202 254.711 48.6487 254.747 48.6846C254.783 48.7206 254.811 48.7633 254.83 48.8103C254.85 48.8573 254.86 48.9077 254.859 48.9585Z" fill="#102048"/>
<path d="M253.082 51.7393C253.041 51.7393 253.002 51.7235 252.973 51.6951C252.66 51.3878 252.532 51.0966 252.592 50.829C252.625 50.7187 252.682 50.6168 252.758 50.5303C252.834 50.4438 252.928 50.3747 253.033 50.3276L252.999 49.5644C252.998 49.5441 253.002 49.5238 253.008 49.5047C253.015 49.4856 253.026 49.468 253.039 49.453C253.053 49.438 253.07 49.4258 253.088 49.4172C253.106 49.4085 253.126 49.4036 253.147 49.4026C253.187 49.4018 253.226 49.4166 253.256 49.444C253.286 49.4714 253.304 49.5092 253.307 49.5497L253.351 50.5349L253.242 50.5717C253.157 50.6011 252.927 50.7187 252.886 50.8981C252.845 51.0775 253.024 51.3187 253.18 51.4746C253.196 51.4883 253.208 51.5051 253.216 51.5239C253.224 51.5426 253.229 51.5629 253.229 51.5834C253.229 51.6039 253.224 51.6241 253.216 51.6429C253.208 51.6616 253.196 51.6784 253.18 51.6922C253.154 51.7192 253.119 51.736 253.082 51.7393Z" fill="#102048"/>
<path d="M253.394 52.8524C253.32 52.854 253.246 52.8491 253.173 52.8377C253.153 52.8355 253.133 52.829 253.115 52.8187C253.097 52.8084 253.082 52.7945 253.07 52.7779C253.058 52.7612 253.049 52.7423 253.045 52.7222C253.041 52.7021 253.041 52.6814 253.045 52.6613C253.053 52.6215 253.075 52.5861 253.108 52.5623C253.141 52.5385 253.181 52.5281 253.222 52.5333C253.488 52.5563 253.757 52.5251 254.011 52.4417C254.265 52.3583 254.5 52.2244 254.701 52.0481C254.716 52.0349 254.734 52.0248 254.753 52.0184C254.772 52.012 254.792 52.0095 254.812 52.0109C254.832 52.0123 254.852 52.0177 254.87 52.0268C254.888 52.0358 254.904 52.0483 254.918 52.0635C254.931 52.0788 254.941 52.0965 254.947 52.1156C254.954 52.1348 254.956 52.155 254.955 52.1752C254.953 52.1953 254.948 52.215 254.939 52.233C254.93 52.2511 254.917 52.2672 254.902 52.2804C254.485 52.6472 253.949 52.8504 253.394 52.8524Z" fill="#102048"/>
<path opacity="0.4" d="M256.396 51.7392C256.956 51.7392 257.41 51.2856 257.41 50.7261C257.41 50.1665 256.956 49.7129 256.396 49.7129C255.836 49.7129 255.382 50.1665 255.382 50.7261C255.382 51.2856 255.836 51.7392 256.396 51.7392Z" fill="#EB5D60"/>
<path d="M330 174.322H0V174.94H330V174.322Z" fill="#102048"/>
<path d="M203.642 124.511H206.62L209.136 120.821H188.845L186.329 124.511H196.16C197.246 124.511 198.309 124.818 199.227 125.397C200.145 125.975 200.881 126.801 201.349 127.78H188.399L185.882 131.469H201.796C201.521 132.758 200.812 133.915 199.787 134.744C198.762 135.574 197.482 136.027 196.163 136.028H186.563V140.252L194.29 153.831H199.587L191.735 139.714H196.249C198.531 139.693 200.729 138.847 202.436 137.332C204.143 135.816 205.243 133.735 205.532 131.472H206.624L209.141 127.783H205.275C204.95 126.596 204.395 125.484 203.642 124.511Z" fill="white"/>
</g>
<defs>
<linearGradient id="paint0_linear_392_5856" x1="41.5235" y1="170.511" x2="55.2882" y2="170.511" gradientUnits="userSpaceOnUse">
<stop stop-color="#FEBBBA"/>
<stop offset="1" stop-color="#FF928E"/>
</linearGradient>
<linearGradient id="paint1_linear_392_5856" x1="98.6217" y1="161.195" x2="108.219" y2="161.195" gradientUnits="userSpaceOnUse">
<stop stop-color="#FEBBBA"/>
<stop offset="1" stop-color="#FF928E"/>
</linearGradient>
<linearGradient id="paint2_linear_392_5856" x1="78.8326" y1="94.3393" x2="85.8415" y2="94.3393" gradientUnits="userSpaceOnUse">
<stop stop-color="#FEBBBA"/>
<stop offset="1" stop-color="#FF928E"/>
</linearGradient>
<linearGradient id="paint3_linear_392_5856" x1="78.2145" y1="88.8426" x2="88.0914" y2="88.8426" gradientUnits="userSpaceOnUse">
<stop stop-color="#FEBBBA"/>
<stop offset="1" stop-color="#FF928E"/>
</linearGradient>
<linearGradient id="paint4_linear_392_5856" x1="104.855" y1="82.4665" x2="114.539" y2="82.4665" gradientUnits="userSpaceOnUse">
<stop stop-color="#FEBBBA"/>
<stop offset="1" stop-color="#FF928E"/>
</linearGradient>
<linearGradient id="paint5_linear_392_5856" x1="252.314" y1="77.5977" x2="265.643" y2="77.5977" gradientUnits="userSpaceOnUse">
<stop stop-color="#FEBBBA"/>
<stop offset="1" stop-color="#FF928E"/>
</linearGradient>
<linearGradient id="paint6_linear_392_5856" x1="238.325" y1="81.0476" x2="246.275" y2="81.0476" gradientUnits="userSpaceOnUse">
<stop stop-color="#FEBBBA"/>
<stop offset="1" stop-color="#FF928E"/>
</linearGradient>
<linearGradient id="paint7_linear_392_5856" x1="253.912" y1="57.483" x2="260.618" y2="57.483" gradientUnits="userSpaceOnUse">
<stop stop-color="#FEBBBA"/>
<stop offset="1" stop-color="#FF928E"/>
</linearGradient>
<linearGradient id="paint8_linear_392_5856" x1="251.223" y1="49.6099" x2="259.846" y2="49.6099" gradientUnits="userSpaceOnUse">
<stop stop-color="#FEBBBA"/>
<stop offset="1" stop-color="#FF928E"/>
</linearGradient>
<linearGradient id="paint9_linear_392_5856" x1="258.342" y1="50.0215" x2="261.537" y2="50.0215" gradientUnits="userSpaceOnUse">
<stop stop-color="#FEBBBA"/>
<stop offset="1" stop-color="#FF928E"/>
</linearGradient>
<clipPath id="clip0_392_5856">
<rect width="330" height="177" fill="white"/>
</clipPath>
</defs>
</svg>
