<svg width="4" height="8" viewBox="0 0 4 8" fill="none" xmlns="http://www.w3.org/2000/svg">
<path d="M3.56248 2.9688L1.65164 1.05797C1.5344 0.940777 1.3754 0.874961 1.20962 0.875C1.04385 0.875039 0.884879 0.94093 0.767686 1.05818C0.650494 1.17543 0.584678 1.33443 0.584717 1.5002C0.584756 1.66597 0.650647 1.82494 0.767895 1.94214L2.67873 3.85255C2.69813 3.87191 2.71352 3.8949 2.72403 3.92021C2.73453 3.94552 2.73993 3.97265 2.73993 4.00005C2.73993 4.02746 2.73453 4.05459 2.72403 4.0799C2.71352 4.10521 2.69813 4.1282 2.67873 4.14755L0.767895 6.05797C0.650647 6.17516 0.584756 6.33413 0.584717 6.49991C0.584678 6.66568 0.650494 6.82468 0.767686 6.94193C0.884879 7.05918 1.04385 7.12507 1.20962 7.12511C1.3754 7.12515 1.5344 7.05933 1.65164 6.94214L3.56248 5.0313C3.83549 4.75754 3.98881 4.38668 3.98881 4.00005C3.98881 3.61342 3.83549 3.24257 3.56248 2.9688Z" fill="white"/>
</svg>
