<svg width="14" height="13" viewBox="0 0 14 13" fill="none" xmlns="http://www.w3.org/2000/svg">
<path d="M0 4.89321C0.0931726 4.6687 0.276594 4.59339 0.515554 4.57931C1.95114 4.49415 3.386 4.40336 4.82122 4.31679C4.9122 4.31152 4.93084 4.26506 4.95824 4.20207C5.49413 2.90402 6.03003 1.60609 6.56592 0.308267C6.66056 0.0795304 6.77017 0.00175951 7 0C7 1.41981 7 2.83986 7 4.26014C6.78771 4.27034 6.64777 4.36571 6.57067 4.56313C6.42014 4.9474 6.25498 5.32605 6.10554 5.71068C6.069 5.80218 6.012 5.83842 5.92614 5.83877C5.77158 5.83877 5.61849 5.85813 5.46503 5.86446C5.17077 5.87643 4.87713 5.89391 4.58409 5.9169C4.39117 5.93203 4.27644 6.02247 4.21286 6.19209C4.14928 6.3617 4.20482 6.49578 4.33563 6.60346C4.68676 6.89272 5.03972 7.17988 5.39816 7.46034C5.47124 7.51665 5.47526 7.56415 5.4548 7.63946C5.34372 8.04861 5.23508 8.45846 5.12888 8.86901C5.07407 9.08015 5.12888 9.2276 5.29403 9.34338C5.41168 9.42537 5.62908 9.41376 5.78218 9.31874C5.98826 9.191 6.19031 9.05658 6.40333 8.93939C6.60319 8.8296 6.77894 8.67793 7.00183 8.60614V10.4652C6.62694 10.663 6.27362 10.8949 5.91116 11.1127C4.98894 11.667 4.07 12.2265 3.14814 12.7815C2.87593 12.9451 2.56097 12.8195 2.49885 12.5299C2.48131 12.4486 2.50506 12.3726 2.52516 12.2969C2.88153 10.9526 3.23936 9.60883 3.59865 8.2655C3.62971 8.14937 3.61254 8.08004 3.51389 8.00122C2.41774 7.12428 1.32427 6.24452 0.23348 5.36195C0.132902 5.287 0.0533892 5.18901 0.00218998 5.0769L0 4.89321Z" fill="#FDD92F"/>
<path d="M6.9978 4.26024C6.9978 2.8402 6.9978 1.42015 6.9978 0.000105589C7.20242 -0.00376534 7.32372 0.0989906 7.3968 0.27635C7.92806 1.56819 8.46335 2.85826 8.99096 4.1515C9.04248 4.27819 9.10934 4.31197 9.24673 4.31866C9.90076 4.35068 10.5541 4.39749 11.2077 4.43866C11.6706 4.46775 12.1334 4.49649 12.5962 4.52488C12.925 4.54458 13.2506 4.56007 13.5772 4.58294C13.7906 4.59842 13.9251 4.70153 13.9792 4.88346C14.0332 5.0654 13.9613 5.21214 13.81 5.33284C12.6805 6.23301 11.5518 7.13388 10.424 8.03546C10.344 8.09951 10.3509 8.15898 10.3725 8.24062C10.7349 9.60248 11.0934 10.9651 11.4573 12.3262C11.5073 12.5138 11.4668 12.6647 11.3111 12.7837C11.1555 12.9026 10.9878 12.8931 10.7916 12.7731L7.5868 10.8194C7.39095 10.7001 7.19328 10.5836 6.99634 10.4675C6.99634 9.84764 6.99634 9.22794 6.99634 8.60836L7.00182 8.60343C7.03555 8.61613 7.06838 8.63095 7.10011 8.64777C7.40703 8.83498 7.71066 9.02747 8.02051 9.21081C8.13524 9.27838 8.23462 9.38078 8.37529 9.39732C8.71692 9.43744 8.93031 9.20448 8.85029 8.87228C8.76662 8.5327 8.68039 8.19276 8.57187 7.85986C8.49879 7.63781 8.48637 7.45904 8.73519 7.33975C8.78233 7.31687 8.81814 7.27218 8.85942 7.2384C9.12579 7.02092 9.3991 6.81084 9.65669 6.58421C9.85582 6.40826 9.81161 6.12498 9.58727 5.97753C9.46925 5.89976 9.33442 5.90961 9.20727 5.90082C8.82289 5.87337 8.43741 5.86175 8.05266 5.84205C7.97374 5.83818 7.90651 5.81988 7.87252 5.7319C7.72308 5.35642 7.55757 4.98657 7.41616 4.60828C7.34309 4.40875 7.22105 4.2898 7.00145 4.26763L6.9978 4.26024Z" fill="#FABF15"/>
<path d="M10.777 2.60331C10.7787 2.65472 10.7697 2.70595 10.7505 2.75394C10.7313 2.80193 10.7022 2.8457 10.665 2.88264C10.6279 2.91959 10.5834 2.94895 10.5342 2.96897C10.485 2.989 10.4321 2.99928 10.3787 2.9992C10.2708 3.00139 10.1664 2.96247 10.0881 2.89091C10.0098 2.81935 9.96404 2.72093 9.96069 2.61704C9.96047 2.51102 10.0034 2.40915 10.0802 2.33324C10.1571 2.25733 10.2617 2.21342 10.3717 2.21094C10.4252 2.21075 10.4782 2.22079 10.5276 2.24047C10.5769 2.26014 10.6218 2.28907 10.6595 2.32557C10.6972 2.36207 10.727 2.40542 10.7471 2.4531C10.7673 2.50077 10.7774 2.55183 10.777 2.60331Z" fill="#008036"/>
<path d="M12.0533 8.78476C12.0527 8.73336 12.0628 8.68235 12.0829 8.63476C12.1031 8.58717 12.133 8.54396 12.1708 8.50767C12.2086 8.47139 12.2536 8.44277 12.3031 8.42352C12.3526 8.40426 12.4056 8.39475 12.4589 8.39555C12.5669 8.39545 12.6705 8.43625 12.7475 8.50914C12.8245 8.58203 12.8686 8.68116 12.8703 8.78511C12.8686 8.89106 12.8238 8.99213 12.7455 9.06657C12.6672 9.141 12.5616 9.18285 12.4516 9.18311C12.3982 9.18243 12.3455 9.17155 12.2965 9.15111C12.2475 9.13066 12.2032 9.10106 12.1661 9.06401C12.1291 9.02696 12.1001 8.9832 12.0807 8.93527C12.0613 8.88733 12.052 8.83618 12.0533 8.78476Z" fill="#008036"/>
<path d="M1.94277 8.78686C1.94463 8.83831 1.93575 8.88959 1.91665 8.93767C1.89755 8.98575 1.86863 9.02965 1.83159 9.06677C1.79455 9.10388 1.75015 9.13346 1.70103 9.15374C1.6519 9.17403 1.59905 9.18461 1.5456 9.18486C1.32235 9.18486 1.12066 8.99589 1.12432 8.78651C1.1276 8.58381 1.31724 8.39942 1.52624 8.3959C1.58069 8.39353 1.63507 8.40195 1.68602 8.42062C1.73697 8.4393 1.7834 8.46784 1.82244 8.50448C1.86148 8.54113 1.8923 8.58509 1.91299 8.63366C1.93369 8.68223 1.94383 8.73437 1.94277 8.78686Z" fill="#008036"/>
<path d="M3.22224 2.60305C3.22101 2.55161 3.23053 2.50046 3.25021 2.45263C3.2699 2.4048 3.29936 2.36126 3.33684 2.3246C3.37433 2.28795 3.41907 2.25891 3.46843 2.23922C3.51778 2.21953 3.57074 2.20958 3.62416 2.20997C3.73199 2.21218 3.83482 2.25421 3.91139 2.32737C3.98796 2.40052 4.03242 2.49922 4.03558 2.60305C4.03549 2.65555 4.02456 2.7075 4.00343 2.75589C3.9823 2.80428 3.95138 2.84814 3.91248 2.88492C3.87358 2.92169 3.82748 2.95065 3.77685 2.97011C3.72622 2.98956 3.67208 2.99912 3.61758 2.99823C3.56435 2.99837 3.51164 2.98813 3.46263 2.96814C3.41361 2.94814 3.3693 2.9188 3.33236 2.88188C3.29543 2.84496 3.26664 2.80122 3.24771 2.7533C3.22878 2.70539 3.22012 2.65428 3.22224 2.60305Z" fill="#008036"/>
<path d="M7.00098 12.2178C7.22678 12.1918 7.42263 12.4247 7.41167 12.6158C7.39888 12.8372 7.23592 12.9987 7.00098 13.0005V12.2178Z" fill="#008036"/>
<path d="M7.00102 12.2178V13.0004C6.75621 12.9934 6.58887 12.8347 6.58887 12.6094C6.58887 12.3842 6.75731 12.2252 7.00102 12.2178Z" fill="#008036"/>
<path d="M6.99899 8.60674C6.77611 8.67712 6.60037 8.8302 6.4005 8.94C6.18821 9.05718 5.98616 9.19161 5.77935 9.31935C5.62626 9.41436 5.40885 9.42492 5.2912 9.34398C5.12495 9.22821 5.07197 9.07935 5.12605 8.86962C5.23323 8.45953 5.34186 8.04968 5.45197 7.64007C5.47243 7.56476 5.46731 7.51725 5.39533 7.46095C5.03689 7.17943 4.68393 6.89333 4.3328 6.60406C4.20199 6.49638 4.14682 6.3602 4.21003 6.19269C4.27324 6.02518 4.38834 5.93263 4.58126 5.9175C4.87357 5.89404 5.16721 5.87656 5.4622 5.86507C5.61566 5.85873 5.76875 5.84008 5.92331 5.83938C6.00918 5.83938 6.06727 5.80419 6.10271 5.71129C6.25216 5.32666 6.41731 4.94801 6.56785 4.56373C6.64494 4.36737 6.78488 4.27095 6.99717 4.26074L7.00192 4.26532C7.00192 5.47446 7.00083 6.68348 6.99863 7.89238C6.99863 8.12886 7.00192 8.36534 7.00374 8.60182L6.99899 8.60674Z" fill="#FABF15"/>
<path d="M7.00438 8.60115C7.00438 8.36467 6.99927 8.12819 6.99927 7.89171C6.99927 6.68281 7.00037 5.47379 7.00256 4.26465C7.22179 4.28682 7.34273 4.40541 7.41727 4.60529C7.55867 4.98359 7.72419 5.35344 7.87363 5.72892C7.91017 5.81689 7.97484 5.83449 8.05377 5.83906C8.43851 5.85877 8.82399 5.87038 9.20837 5.89783C9.33553 5.90663 9.47035 5.89783 9.58837 5.97454C9.81272 6.12199 9.85693 6.40633 9.65779 6.58123C9.40202 6.80785 9.12689 7.01794 8.86053 7.23541C8.81924 7.2706 8.78343 7.31389 8.7363 7.33676C8.48747 7.45606 8.50026 7.63482 8.57297 7.85687C8.68259 8.18977 8.76772 8.52971 8.85139 8.8693C8.93287 9.20149 8.71949 9.43446 8.3764 9.39434C8.23572 9.3778 8.13634 9.2754 8.02161 9.20783C7.71177 9.02519 7.40813 8.8327 7.10121 8.64479C7.06994 8.62826 7.0376 8.61368 7.00438 8.60115Z" fill="#F7911F"/>
</svg>
