<svg width="18" height="18" viewBox="0 0 18 18" fill="none" xmlns="http://www.w3.org/2000/svg">
<path d="M18 5.69632V6.46976C17.9779 6.55852 17.953 6.64727 17.9333 6.7365C17.6019 8.14532 16.7521 9.09157 15.3512 9.43298C13.9733 9.76828 12.8034 9.3245 11.8814 8.24253C11.8461 8.2012 11.8119 8.15894 11.7738 8.11385C11.0673 9.03287 10.1678 9.53253 9.02133 9.53113C7.87488 9.52972 6.9721 9.01785 6.28291 8.11667C5.17449 9.448 3.80739 9.83543 2.17457 9.30337C2.17128 9.33671 2.16658 9.35972 2.16658 9.38273C2.16658 11.7558 2.16658 14.1289 2.16658 16.502C2.16658 16.7264 2.21354 16.7701 2.43513 16.7701C3.6473 16.7701 4.85963 16.7701 6.07212 16.7701C6.12235 16.7701 6.17258 16.7635 6.23174 16.7598V12.0167C6.23174 11.5058 6.47398 11.2654 6.98289 11.2626H11.0241C11.5325 11.2626 11.7753 11.5077 11.7753 12.0182V16.7678H15.5052C15.8179 16.7678 15.839 16.7471 15.839 16.4259V11.4509C15.839 11.3809 15.839 11.31 15.8432 11.2405C15.8737 10.8808 16.1488 10.6262 16.493 10.6366C16.5767 10.638 16.6594 10.6559 16.7362 10.6895C16.813 10.723 16.8823 10.7713 16.9403 10.8318C16.9983 10.8923 17.0438 10.9636 17.0741 11.0417C17.1044 11.1199 17.119 11.2032 17.1169 11.287C17.1197 13.0505 17.1197 14.8142 17.1169 16.578C17.1164 16.8675 17.0274 17.1498 16.8618 17.3872C16.6962 17.6246 16.462 17.8057 16.1906 17.9061C16.093 17.9427 15.9916 17.969 15.8916 18H2.08067C2.07269 17.9915 2.06612 17.9789 2.05673 17.9761C1.24126 17.7361 0.88868 17.2637 0.88868 16.4099C0.88868 13.9435 0.882582 11.4791 0.894789 9.0108C0.897136 8.61304 0.873665 8.24581 0.592452 7.93822C0.574039 7.91535 0.558289 7.89046 0.545505 7.86402C0.0835449 7.07274 -0.134292 6.23073 0.0858905 5.32299C0.430169 3.8982 0.788371 2.4767 1.16051 1.05849C1.33092 0.401044 1.88302 0.000469606 2.56047 0H15.4019C16.1451 0 16.685 0.418889 16.8671 1.14067C17.1056 2.08646 17.3426 3.03256 17.5779 3.97897C17.7206 4.55048 17.8596 5.12246 18 5.69632ZM6.93594 1.23506C6.93313 1.29189 6.92937 1.33227 6.92937 1.37266C6.92937 2.94208 6.92655 4.51151 6.93218 6.08046C6.93538 6.26753 6.95915 6.45367 7.00307 6.63553C7.26926 7.78043 8.3744 8.47921 9.50818 8.22515C10.4269 8.01993 11.1443 7.12298 11.148 6.15325C11.1537 4.56034 11.148 2.96791 11.148 1.37501C11.148 1.32805 11.141 1.28531 11.1363 1.23412L6.93594 1.23506ZM5.65006 1.22802H2.69614C2.42197 1.22802 2.39428 1.2515 2.32715 1.51871C2.02575 2.71949 1.72622 3.92074 1.42012 5.12011C1.30229 5.58221 1.20276 6.0396 1.3037 6.52142C1.54829 7.69543 2.72808 8.4778 3.89049 8.23313C4.94257 8.01148 5.65523 7.12768 5.65851 6.02599C5.66274 4.48568 5.65851 2.9449 5.65851 1.40412C5.65898 1.35341 5.65382 1.30175 5.65006 1.2299V1.22802ZM12.3917 1.236C12.3884 1.29752 12.3842 1.33791 12.3842 1.37689C12.3842 2.94224 12.3842 4.50634 12.3842 6.06919C12.3838 6.20393 12.3953 6.33844 12.4184 6.47117C12.4695 6.76004 12.5783 7.03565 12.7382 7.28153C12.8981 7.52741 13.106 7.73852 13.3493 7.90224C13.5927 8.06597 13.8665 8.17894 14.1545 8.23442C14.4425 8.2899 14.7387 8.28675 15.0254 8.22515C16.1991 7.97955 16.9761 6.73979 16.684 5.55967C16.3474 4.19781 15.9977 2.84206 15.6615 1.48161C15.6146 1.29376 15.5282 1.22238 15.3357 1.22379C14.4104 1.23037 13.4855 1.22661 12.5602 1.22708C12.51 1.23037 12.4583 1.23506 12.3917 1.23788V1.236ZM10.4819 16.7617V12.5526H7.52419V16.7626L10.4819 16.7617Z" fill="#B0B0B0"/>
</svg>
