<svg width="15" height="15" viewBox="0 0 15 15" fill="none" xmlns="http://www.w3.org/2000/svg">
<path d="M6.74835 3.90482C6.74835 4.67015 6.74835 5.43547 6.74835 6.20079C6.74835 6.55229 6.55006 6.74849 6.19563 6.74849C4.69581 6.74849 3.19599 6.74849 1.69617 6.74849C0.729732 6.74849 0.0012524 6.01586 0 5.0478C0 3.9346 0 2.82029 0 1.70486C0 0.728449 0.729729 0.0025047 1.70911 0.00125235C2.81845 -0.000417449 3.92767 -0.000417449 5.03674 0.00125235C6.02488 0.00125235 6.74835 0.727197 6.74835 1.7178C6.74919 2.44611 6.74919 3.17512 6.74835 3.90482ZM5.74977 5.75037V5.58339C5.74977 4.30766 5.74977 3.03207 5.74977 1.75663C5.74977 1.27489 5.47549 0.999791 4.99833 0.999373C3.92043 0.999373 2.84267 0.999373 1.76505 0.999373C1.27328 0.999373 1.0015 1.27113 1.0015 1.76205C1.0015 2.83434 1.0015 3.90691 1.0015 4.97975C1.0015 5.48069 1.2716 5.74953 1.77382 5.74995H5.75269L5.74977 5.75037Z" fill="#B0B0B0"/>
<path d="M11.0984 6.74932H8.80229C8.44911 6.74932 8.25123 6.55187 8.25081 6.19996C8.25081 4.70048 8.25081 3.20086 8.25081 1.70111C8.25081 0.733041 8.98054 0.00333937 9.94823 0.00166957C11.0679 -2.29222e-07 12.1874 -2.29222e-07 13.3068 0.00166957C14.2669 0.00166957 14.9971 0.734293 14.9987 1.69109C15.0004 2.8157 15.0004 3.94044 14.9987 5.06533C14.9987 6.01252 14.264 6.74598 13.3172 6.7489C12.5766 6.75099 11.8369 6.74932 11.0984 6.74932ZM9.24939 5.74369C9.29114 5.74661 9.31535 5.74995 9.3404 5.74995C10.6625 5.74995 11.9851 5.75287 13.3063 5.74995C13.72 5.74995 13.9977 5.45272 13.9985 5.02609C14.0002 3.92764 14.0002 2.82919 13.9985 1.73074C13.9985 1.28282 13.7146 1.00188 13.2642 1.00146C12.1707 0.999791 11.0773 0.999791 9.98414 1.00146C9.52492 1.00146 9.2494 1.28282 9.24814 1.74452C9.24814 2.22876 9.24814 2.713 9.24814 3.19724L9.24939 5.74369Z" fill="#B0B0B0"/>
<path d="M3.92126 8.25005C4.68161 8.25005 5.44195 8.25005 6.2023 8.25005C6.54629 8.25005 6.74793 8.44876 6.74835 8.78856C6.74835 10.2989 6.74835 11.8091 6.74835 13.3191C6.75045 13.5394 6.70876 13.7579 6.62569 13.9619C6.54262 14.1659 6.41983 14.3514 6.26446 14.5075C6.10909 14.6636 5.92423 14.7873 5.72063 14.8714C5.51704 14.9555 5.29876 14.9983 5.07848 14.9973C3.94325 15.0003 2.80802 15.0003 1.67279 14.9973C1.4525 14.9981 1.23426 14.9551 1.03071 14.8709C0.827155 14.7867 0.642348 14.6629 0.487011 14.5067C0.331673 14.3505 0.208893 14.165 0.125794 13.961C0.0426944 13.757 0.00092747 13.5386 0.00291839 13.3183C0.000691905 12.1887 0.000691905 11.0588 0.00291839 9.92862C0.000926403 9.70839 0.0426998 9.48996 0.125809 9.286C0.208919 9.08205 0.331708 8.89663 0.487057 8.74051C0.642406 8.58439 0.82722 8.46068 1.03077 8.37656C1.23431 8.29243 1.45254 8.24958 1.67279 8.25047C2.42172 8.24796 3.17149 8.25047 3.92126 8.25005ZM5.74977 9.24901H5.57735C4.30714 9.24901 3.03679 9.24901 1.7663 9.24901C1.26534 9.24901 0.998993 9.51993 0.998576 10.0234V13.2252C0.998576 13.7287 1.26743 13.9996 1.76713 13.9996C2.83418 13.9996 3.90151 13.9996 4.96911 13.9996C5.48176 13.9996 5.74935 13.7328 5.74977 13.2219V9.24901Z" fill="#B0B0B0"/>
<path d="M8.24956 11.0895C8.24956 10.3245 8.24956 9.55917 8.24956 8.79357C8.24956 8.45251 8.45078 8.25089 8.79227 8.25089C10.2971 8.25089 11.8021 8.25089 13.3072 8.25089C14.2648 8.25089 14.9967 8.98351 14.9983 9.94072C15 11.0653 15 12.1899 14.9983 13.3145C14.9983 14.2622 14.2636 14.9956 13.3164 14.9981C12.1864 15.0006 11.0565 15.0006 9.92653 14.9981C9.70616 14.9996 9.48768 14.9573 9.28378 14.8737C9.07988 14.7901 8.89461 14.6669 8.73872 14.5111C8.58284 14.3554 8.45944 14.1702 8.37568 13.9664C8.29193 13.7625 8.24948 13.5441 8.25082 13.3237C8.24789 12.5786 8.24956 11.8343 8.24956 11.0895ZM9.24856 9.24901V9.41348C9.24856 10.6889 9.24856 11.9644 9.24856 13.2398C9.24856 13.7287 9.52242 13.9996 10.0154 13.9996C11.0881 13.9996 12.1607 13.9996 13.2333 13.9996C13.7251 13.9996 13.9989 13.7274 13.9993 13.2386C13.9993 12.1663 13.9993 11.0939 13.9993 10.0213C13.9993 9.52035 13.7301 9.24943 13.2291 9.24901C11.9589 9.24901 10.6885 9.24901 9.41805 9.24901H9.24856Z" fill="#B0B0B0"/>
</svg>
