<svg width="19" height="14" viewBox="0 0 19 14" fill="none" xmlns="http://www.w3.org/2000/svg">
<path d="M15.0417 0H3.95833C2.9089 0.001235 1.90282 0.411353 1.16076 1.14039C0.418698 1.86943 0.00125705 2.85787 0 3.88889L0 10.1111C0.00125705 11.1421 0.418698 12.1306 1.16076 12.8596C1.90282 13.5886 2.9089 13.9988 3.95833 14H15.0417C16.0911 13.9988 17.0972 13.5886 17.8392 12.8596C18.5813 12.1306 18.9987 11.1421 19 10.1111V3.88889C18.9987 2.85787 18.5813 1.86943 17.8392 1.14039C17.0972 0.411353 16.0911 0.001235 15.0417 0ZM3.95833 1.55556H15.0417C15.6716 1.55556 16.2756 1.80139 16.721 2.23897C17.1664 2.67656 17.4167 3.27005 17.4167 3.88889H1.58333C1.58333 3.27005 1.83356 2.67656 2.27895 2.23897C2.72435 1.80139 3.32844 1.55556 3.95833 1.55556ZM15.0417 12.4444H3.95833C3.32844 12.4444 2.72435 12.1986 2.27895 11.761C1.83356 11.3234 1.58333 10.7299 1.58333 10.1111V5.44444H17.4167V10.1111C17.4167 10.7299 17.1664 11.3234 16.721 11.761C16.2756 12.1986 15.6716 12.4444 15.0417 12.4444Z" fill="#B0B0B0"/>
</svg>
