<svg width="28" height="21" viewBox="0 0 28 21" fill="none" xmlns="http://www.w3.org/2000/svg">
<path d="M27.1356 3.8821C27.4478 4.8803 27.1751 5.71277 26.4224 6.44022C22.805 9.94033 19.1942 13.4462 15.5899 16.9579C14.7009 17.8251 13.8049 18.6922 12.9435 19.5921C12.1375 20.4314 11.203 20.6905 10.0867 20.3244C9.64717 20.0922 9.29648 19.7598 8.94679 19.4168C6.50292 17.008 4.05607 14.6015 1.60627 12.1972C0.415938 11.0256 0.413962 9.72194 1.60034 8.56187C2.06989 8.10324 2.5391 7.64525 3.00799 7.18791C4.16473 6.06542 5.53682 6.06253 6.68072 7.18791C8.03009 8.51081 9.38243 9.83082 10.718 11.1662C10.9491 11.3975 11.0667 11.4216 11.3176 11.1759C14.6465 7.92242 17.9831 4.67893 21.3272 1.44539C22.2163 0.578226 23.3167 0.385525 24.3055 0.94147C24.517 1.06571 24.7118 1.21525 24.8854 1.38661C25.4267 1.8992 25.9552 2.42624 26.4906 2.94461C26.7698 3.21021 26.9894 3.52944 27.1356 3.8821Z" fill="#FDFEFE"/>
</svg>
