<svg width="20" height="21" viewBox="0 0 20 21" fill="none" xmlns="http://www.w3.org/2000/svg">
<path d="M18.8073 9.15693C18.6425 9.14772 18.4776 9.17145 18.3221 9.22673C18.1666 9.28201 18.0237 9.36774 17.9017 9.47889C17.7798 9.59005 17.6812 9.72441 17.6118 9.8741C17.5424 10.0238 17.5035 10.1858 17.4974 10.3507C17.4213 12.0528 16.7708 13.6788 15.6518 14.9636C14.5329 16.2484 13.0116 17.1162 11.3361 17.4253C9.66064 17.7344 7.92987 17.4666 6.42613 16.6656C4.92239 15.8647 3.73442 14.5778 3.05602 13.015C2.37762 11.4521 2.24883 9.70551 2.69064 8.06005C3.13245 6.41458 4.1188 4.96738 5.48878 3.95452C6.85877 2.94166 8.53154 2.42292 10.2342 2.48291C11.9369 2.5429 13.569 3.17808 14.8643 4.28485L13.9218 5.22737C13.8051 5.34413 13.7256 5.49286 13.6934 5.65478C13.6612 5.8167 13.6778 5.98453 13.7409 6.13705C13.8041 6.28958 13.9111 6.41995 14.0483 6.51168C14.1856 6.60342 14.347 6.6524 14.512 6.65243H18.3406C18.562 6.65243 18.7743 6.56448 18.9309 6.40792C19.0875 6.25136 19.1754 6.03901 19.1754 5.8176V1.98906C19.1754 1.82397 19.1264 1.66259 19.0347 1.52534C18.9429 1.38809 18.8126 1.28111 18.66 1.21794C18.5075 1.15477 18.3397 1.13823 18.1778 1.17043C18.0159 1.20263 17.8671 1.28211 17.7504 1.39883L16.6359 2.51333C14.9371 1.00963 12.7778 0.127936 10.512 0.0128808C8.2463 -0.102175 6.00873 0.556245 4.16641 1.88012C2.32409 3.204 0.986425 5.11473 0.372853 7.29883C-0.240718 9.48294 -0.0937556 11.8107 0.789631 13.9003C1.67302 15.9899 3.24037 17.7172 5.23456 18.7989C7.22875 19.8806 9.53136 20.2524 11.7646 19.8533C13.9979 19.4542 16.0292 18.3079 17.5254 16.6025C19.0215 14.8971 19.8936 12.7338 19.9986 10.4676C20.0064 10.3033 19.9818 10.1391 19.9262 9.98432C19.8706 9.82953 19.785 9.68722 19.6744 9.5655C19.5638 9.44379 19.4303 9.34506 19.2815 9.27496C19.1327 9.20485 18.9716 9.16475 18.8073 9.15693Z" fill="white"/>
<path d="M9.57477 5.81763C9.24266 5.81763 8.92414 5.94956 8.6893 6.1844C8.45446 6.41924 8.32253 6.73776 8.32253 7.06988V10.6538C8.32262 11.0966 8.49859 11.5212 8.81174 11.8343L10.3086 13.3311C10.5448 13.5592 10.8611 13.6855 11.1894 13.6826C11.5178 13.6797 11.8318 13.548 12.064 13.3159C12.2962 13.0837 12.4279 12.7696 12.4307 12.4413C12.4336 12.1129 12.3074 11.7966 12.0793 11.5604L10.827 10.3082V7.06988C10.827 6.73776 10.6951 6.41924 10.4602 6.1844C10.2254 5.94956 9.90689 5.81763 9.57477 5.81763Z" fill="white"/>
</svg>
