<svg width="19" height="19" viewBox="0 0 19 19" fill="none" xmlns="http://www.w3.org/2000/svg">
<path d="M17.8348 8.68346C17.6786 8.67472 17.5221 8.69722 17.3747 8.74965C17.2273 8.80207 17.0918 8.88336 16.9761 8.98877C16.8605 9.09418 16.767 9.22159 16.7011 9.36355C16.6353 9.50551 16.5984 9.65917 16.5927 9.81554C16.5205 11.4296 15.9036 12.9715 14.8425 14.1899C13.7814 15.4083 12.3388 16.2311 10.75 16.5243C9.16112 16.8174 7.51984 16.5635 6.09385 15.8039C4.66787 15.0444 3.54133 13.8241 2.89801 12.342C2.25468 10.86 2.13255 9.20367 2.55151 7.64329C2.97048 6.08291 3.90583 4.71054 5.20498 3.75005C6.50412 2.78956 8.0904 2.29764 9.70505 2.35453C11.3197 2.41141 12.8674 3.01375 14.0958 4.06329L13.202 4.95708C13.0913 5.0678 13.0159 5.20885 12.9854 5.36239C12.9548 5.51594 12.9705 5.67509 13.0304 5.81973C13.0903 5.96436 13.1918 6.08799 13.3219 6.17498C13.4521 6.26198 13.6051 6.30842 13.7617 6.30846H17.3923C17.6022 6.30846 17.8036 6.22505 17.952 6.07658C18.1005 5.92812 18.1839 5.72675 18.1839 5.51679V1.88621C18.1839 1.72966 18.1374 1.57663 18.0504 1.44647C17.9635 1.31631 17.8398 1.21487 17.6952 1.15496C17.5506 1.09506 17.3914 1.07938 17.2379 1.10991C17.0843 1.14044 16.9433 1.21582 16.8325 1.3265L15.7757 2.38337C14.1648 0.95743 12.1171 0.121321 9.96849 0.0122148C7.81991 -0.0968916 5.69804 0.527483 3.95098 1.78291C2.20392 3.03833 0.93542 4.85026 0.353574 6.92143C-0.228271 8.99261 -0.0889078 11.2 0.748801 13.1816C1.58651 15.1631 3.07282 16.8011 4.9639 17.8269C6.85497 18.8526 9.03852 19.2052 11.1563 18.8267C13.2741 18.4483 15.2004 17.3613 16.6192 15.744C18.038 14.1268 18.865 12.0754 18.9645 9.92637C18.972 9.77058 18.9487 9.61485 18.8959 9.46806C18.8432 9.32128 18.762 9.18632 18.6571 9.0709C18.5522 8.95548 18.4256 8.86186 18.2845 8.79538C18.1434 8.7289 17.9906 8.69087 17.8348 8.68346Z" fill="#B0B0B0"/>
<path d="M9.07971 5.51685C8.76477 5.51685 8.46272 5.64196 8.24002 5.86466C8.01732 6.08736 7.89221 6.3894 7.89221 6.70435V10.103C7.8923 10.5229 8.05918 10.9255 8.35613 11.2224L9.77559 12.6418C9.99955 12.8582 10.2995 12.9779 10.6109 12.9751C10.9222 12.9724 11.2201 12.8476 11.4402 12.6274C11.6604 12.4072 11.7853 12.1094 11.788 11.798C11.7907 11.4867 11.671 11.1867 11.4547 10.9627L10.2672 9.77522V6.70435C10.2672 6.3894 10.1421 6.08736 9.9194 5.86466C9.6967 5.64196 9.39466 5.51685 9.07971 5.51685Z" fill="#B0B0B0"/>
</svg>
