<svg width="11" height="11" viewBox="0 0 11 11" fill="none" xmlns="http://www.w3.org/2000/svg">
<path d="M11 5.5C11 6.95869 10.4205 8.35764 9.38909 9.38909C8.35764 10.4205 6.95869 11 5.5 11C4.04131 11 2.64236 10.4205 1.61091 9.38909C0.579463 8.35764 0 6.95869 0 5.5C0 5.31766 0.0724328 5.1428 0.201364 5.01386C0.330295 4.88493 0.505164 4.8125 0.6875 4.8125C0.869836 4.8125 1.0447 4.88493 1.17364 5.01386C1.30257 5.1428 1.375 5.31766 1.375 5.5C1.375 6.31585 1.61693 7.11337 2.07019 7.79173C2.52345 8.47008 3.16769 8.99879 3.92143 9.311C4.67518 9.62321 5.50458 9.7049 6.30475 9.54574C7.10492 9.38658 7.83992 8.99371 8.41682 8.41682C8.99371 7.83992 9.38658 7.10492 9.54574 6.30475C9.7049 5.50458 9.62321 4.67518 9.311 3.92143C8.99879 3.16769 8.47008 2.52345 7.79173 2.07019C7.11337 1.61693 6.31585 1.375 5.5 1.375C5.31766 1.375 5.1428 1.30257 5.01386 1.17364C4.88493 1.0447 4.8125 0.869836 4.8125 0.6875C4.8125 0.505164 4.88493 0.330295 5.01386 0.201364C5.1428 0.0724328 5.31766 0 5.5 0C6.95821 0.00157716 8.35624 0.581546 9.38735 1.61265C10.4185 2.64376 10.9984 4.04179 11 5.5ZM3.20833 5.5C3.20833 5.68234 3.28077 5.8572 3.4097 5.98614C3.53863 6.11507 3.7135 6.1875 3.89583 6.1875H4.89958C5.07371 6.34077 5.29968 6.42197 5.53154 6.41459C5.7634 6.40721 5.98374 6.3118 6.14777 6.14777C6.3118 5.98374 6.40721 5.7634 6.41459 5.53154C6.42197 5.29968 6.34077 5.07371 6.1875 4.89958V2.97917C6.1875 2.79683 6.11507 2.62196 5.98614 2.49303C5.8572 2.3641 5.68234 2.29167 5.5 2.29167C5.31766 2.29167 5.1428 2.3641 5.01386 2.49303C4.88493 2.62196 4.8125 2.79683 4.8125 2.97917V4.8125H3.89583C3.7135 4.8125 3.53863 4.88493 3.4097 5.01386C3.28077 5.1428 3.20833 5.31766 3.20833 5.5ZM3.08917 2.24308C3.22514 2.24308 3.35806 2.20276 3.47112 2.12722C3.58418 2.05168 3.6723 1.9443 3.72433 1.81868C3.77637 1.69305 3.78998 1.55482 3.76346 1.42146C3.73693 1.2881 3.67145 1.1656 3.5753 1.06945C3.47915 0.973299 3.35665 0.907821 3.22329 0.881293C3.08993 0.854766 2.9517 0.868381 2.82607 0.920416C2.70045 0.972451 2.59307 1.06057 2.51753 1.17363C2.44199 1.28669 2.40167 1.41961 2.40167 1.55558C2.40167 1.73792 2.4741 1.91279 2.60303 2.04172C2.73196 2.17065 2.90683 2.24308 3.08917 2.24308ZM1.33513 4.01042C1.4711 4.01042 1.60402 3.9701 1.71708 3.89455C1.83014 3.81901 1.91826 3.71164 1.97029 3.58601C2.02233 3.46039 2.03594 3.32215 2.00941 3.18879C1.98289 3.05543 1.91741 2.93293 1.82126 2.83678C1.72511 2.74063 1.60261 2.67515 1.46925 2.64863C1.33589 2.6221 1.19765 2.63571 1.07203 2.68775C0.946406 2.73978 0.839033 2.8279 0.76349 2.94096C0.687946 3.05402 0.647625 3.18694 0.647625 3.32292C0.647625 3.50525 0.720058 3.68012 0.848989 3.80905C0.97792 3.93798 1.15279 4.01042 1.33513 4.01042Z" fill="#A4A4A4"/>
</svg>
