<svg width="13" height="13" viewBox="0 0 13 13" fill="none" xmlns="http://www.w3.org/2000/svg">
<g clip-path="url(#clip0_313_3968)">
<path d="M11.375 2.16667H9.69584C9.57012 1.55535 9.23749 1.00606 8.75401 0.611389C8.27054 0.216715 7.66578 0.000787867 7.04167 0L5.95834 0C5.33422 0.000787867 4.72947 0.216715 4.24599 0.611389C3.76252 1.00606 3.42989 1.55535 3.30417 2.16667H1.625C1.48134 2.16667 1.34357 2.22374 1.24199 2.32532C1.1404 2.4269 1.08334 2.56467 1.08334 2.70833C1.08334 2.85199 1.1404 2.98977 1.24199 3.09135C1.34357 3.19293 1.48134 3.25 1.625 3.25H2.16667V10.2917C2.16753 11.0097 2.45315 11.6981 2.96087 12.2058C3.4686 12.7135 4.15697 12.9991 4.875 13H8.125C8.84303 12.9991 9.53141 12.7135 10.0391 12.2058C10.5469 11.6981 10.8325 11.0097 10.8333 10.2917V3.25H11.375C11.5187 3.25 11.6564 3.19293 11.758 3.09135C11.8596 2.98977 11.9167 2.85199 11.9167 2.70833C11.9167 2.56467 11.8596 2.4269 11.758 2.32532C11.6564 2.22374 11.5187 2.16667 11.375 2.16667ZM5.95834 1.08333H7.04167C7.37765 1.08374 7.70528 1.18808 7.97963 1.38203C8.25397 1.57598 8.4616 1.85006 8.57404 2.16667H4.42596C4.5384 1.85006 4.74603 1.57598 5.02038 1.38203C5.29472 1.18808 5.62235 1.08374 5.95834 1.08333ZM9.75 10.2917C9.75 10.7226 9.5788 11.136 9.27405 11.4407C8.9693 11.7455 8.55598 11.9167 8.125 11.9167H4.875C4.44403 11.9167 4.0307 11.7455 3.72595 11.4407C3.42121 11.136 3.25 10.7226 3.25 10.2917V3.25H9.75V10.2917Z" fill="black"/>
<path d="M5.41667 9.75008C5.56033 9.75008 5.6981 9.69301 5.79968 9.59143C5.90127 9.48985 5.95833 9.35207 5.95833 9.20841V5.95841C5.95833 5.81476 5.90127 5.67698 5.79968 5.5754C5.6981 5.47382 5.56033 5.41675 5.41667 5.41675C5.27301 5.41675 5.13523 5.47382 5.03365 5.5754C4.93207 5.67698 4.875 5.81476 4.875 5.95841V9.20841C4.875 9.35207 4.93207 9.48985 5.03365 9.59143C5.13523 9.69301 5.27301 9.75008 5.41667 9.75008Z" fill="black"/>
<path d="M7.58333 9.75008C7.72699 9.75008 7.86476 9.69301 7.96635 9.59143C8.06793 9.48985 8.125 9.35207 8.125 9.20841V5.95841C8.125 5.81476 8.06793 5.67698 7.96635 5.5754C7.86476 5.47382 7.72699 5.41675 7.58333 5.41675C7.43967 5.41675 7.3019 5.47382 7.20031 5.5754C7.09873 5.67698 7.04166 5.81476 7.04166 5.95841V9.20841C7.04166 9.35207 7.09873 9.48985 7.20031 9.59143C7.3019 9.69301 7.43967 9.75008 7.58333 9.75008Z" fill="black"/>
</g>
<defs>
<clipPath id="clip0_313_3968">
<rect width="13" height="13" fill="white"/>
</clipPath>
</defs>
</svg>
