<svg fill="none" height="32" viewBox="0 0 32 32" width="32" xmlns="http://www.w3.org/2000/svg"><g fill="#fff"><path d="m0 .00299249h5.15351v.96617251c.48538.091895.92093.074395 1.33254-.135271 1.92148-.979751 1.50471-.8198991 3.69675-.82960599 1.6542-.00776553 3.309.00323564 4.9632 0 1.3507-.00517702 2.4988.46398999 3.4514 1.42368199.8323.83738 1.673 1.6657 2.5001 2.50762.0637.06884.1417.12279.2287.15802.0869.03523.1805.05088.2741.04582 2.9965-.00604 5.9927-.00734 8.9887-.00389h.3883v13.41626h-21.66694v-6.4622c-.75202-.2162-1.4471-.4019-2.13571-.62-.23557-.0744-.45302-.2193-.66724-.3488-.55269-.33259-.64006-.3559-1.34096-.27436v1.54276h-5.16645zm19.8471 4.12802751c-.6866-.68595-1.3138-1.29877-1.9254-1.92583-.783-.80244-1.7273-1.18102-2.8475-1.1739-1.9565.011-3.9136.01486-5.86998-.00455-.54471-.01553-1.08372.11425-1.56165.37598-.51775.28474-1.0355.59214-1.65097.6355-.26663.01877-.53521 0-.81026 0v6.72558c.06408.01126.12911.01625.19415.01488.31299-.04973.63307-.03018.93768.05726.3046.08744.58631.24065.82525.44881.12037.10096.27893.15918.42584.22584.5443.25791 1.13681.39837 1.73898.41222 0-.76167-.00647-1.49617.00518-2.23066 0-.19414-.07509-.27112-.23753-.35848-.38442-.20708-.75008-.45301-1.15457-.69762l.66596-.82057c1.72152 1.14865 2.34932 1.12925 4.20672-.14623.0588.08929.1237.17447.1941.25496.9108.91504 1.8227 1.82877 2.7356 2.74122.3016.30351.6531.43746 1.0718.32357.7857-.21938 1.0135-1.15642.4181-1.75954-1.1218-1.1342-2.2486-2.26128-3.3803-3.38124-.0757-.07507-.1941-.10807-.2841-.1566l.8032-.81927c.3566.36498.6983.73385 1.0639 1.07812.1148.10259.2611.16306.4149.17148.8465.01618 1.6943.00844 2.5415.00844zm10.109 1.05547h-13.3546c.3236.30933.5928.55069.8413.81213.0635.06953.1417.12395.229.15923.0872.03527.1813.05054.2752.04464 2.675-.00647 5.3485-.00777 8.0205-.00388h.3831c-.0466.76555.0648 1.44631.6142 1.98796.5495.54164 1.2232.65167 1.9519.58826v4.14157c-.7462-.0414-1.4283.0699-1.97.6167-.5417.5469-.642 1.2296-.5999 1.9498h-12.4084c.0563-.7435-.0557-1.4236-.6013-1.9659-.5455-.5423-1.2296-.6362-1.9415-.6057v-4.13391c.8549.06471 1.5966-.11064 2.1532-.86001-.2719-.25885-.5236-.50479-.7851-.74034-.0459-.04142-.156-.07376-.1993-.04787-.6783.40122-1.4148.56301-2.2069.54165v8.84428h19.598zm-11.5845 3.75334c1.5157-.93575 2.8126-.84902 3.7536.20321.4076.45539.6426 1.03926.6639 1.65006.0214.6108-.1722 1.2097-.5469 1.6925-.3748.4828-.9071.8188-1.5041.9495-.5971.1308-1.2211.048-1.7634-.2339-1.2641-.6519-1.6374-1.85-1.1196-3.59418-.0279.00768-.055.01808-.0809.03106-1.0116.65552-1.9856.55392-2.8398-.30609-.211-.2129-.4-.44781-.6181-.69436-.479.59176-1.151.9961-1.8982 1.14217v2.1355c1.3772.3236 2.2199 1.1784 2.5363 2.5406h10.3963c.3236-1.3829 1.1773-2.2228 2.5389-2.5425v-2.12971c-1.3836-.32357-2.2211-1.17972-2.5395-2.5238h-6.8977c.2026.56624.1664 1.09494-.0841 1.67735zm-17.31799-7.89496v9.27143h3.05858v-9.26883zm20.64509 9.80653c.0022-.2019-.0356-.4023-.1113-.5895s-.1878-.3576-.3298-.50125c-.142-.14364-.311-.25772-.4973-.33563-.1864-.07791-.3863-.11811-.5883-.11827-.2046-.00309-.4077.03449-.5977.11053-.1899.07603-.3629.18901-.5088.33241-.1459.14339-.262.31431-.3413.50291-.0794.1886-.1205.391-.121.5956.004.4076.1664.7976.453 1.0875.2865.2899.6746.4569 1.0821.4656.2038.0009.4058-.0385.5943-.1159s.3599-.1912.5043-.3349c.1445-.1438.2591-.3146.3373-.5028.0783-.1881.1186-.3899.1187-.5937z"/><path d="m15.6819 31.0004c-1.2297-.3837-2.2361-1.1797-3.3253-1.8178-2.3479-1.3751-4.67778-2.7826-7.00958-4.1843-1.25359-.7539-1.40891-2.4345-.32359-3.3651.66077-.5681 1.55842-.6587 2.37257-.2213 1.68656.906 3.3712 1.8159 5.0538 2.7296.0525.0285.1062.0544.1741.0893.0408-.0783.0777-.1469.1139-.2161.1307-.2631.3163-.495.5444-.68.2282-.185.4934-.3188.7778-.3923 2.0024-.5417 4.0048-1.0872 6.0117-1.6114.373-.0861.7543-.1317 1.1371-.1359.6045-.0213 1.2109.0065 1.816-.0097.5881-.0181 1.1677.1438 1.6613.464.3566.2252.7236.4342 1.1384.6821v-1.6463h5.1774v10.3165h-5.1463c-.011-.2433-.0214-.4866-.033-.7468l-2.0859.7468zm5.1043-5.6248c-.0376.0304-.0511.0492-.0647.0537-1.8879.5035-3.7673 1.0419-5.6667 1.4962-1.165.2776-2.0458-.288-2.4593-1.4166-.0365-.0893-.1016-.164-.1851-.2123-1.8413-1.0011-3.6825-2.0009-5.53409-2.9832-.20648-.1012-.4372-.1424-.66595-.1191-.44656.0453-.76821.3883-.85687.8212-.08607.4226.10614.8413.52875 1.095 3.12977 1.8753 6.26256 3.7451 9.39836 5.6092.2809.1558.5966.2379.9177.2388 2.3603.0194 4.7212.0123 7.0821.0065.2013.0041.4017-.0261.5928-.0893.6058-.2194 1.2051-.4581 1.7998-.7053.0438-.024.0814-.058.1097-.0991.0284-.0411.0466-.0883.0534-.1378.01-1.7352.01-3.4703 0-5.2055-.0037-.0514-.0183-.1014-.0429-.1467-.0245-.0453-.0584-.0848-.0994-.116-.5816-.3611-1.1699-.7123-1.7649-1.0535-.154-.0881-.3391-.169-.5106-.1709-.9061-.0084-1.8309-.0964-2.7182.044-1.128.1792-2.2269.5481-3.3369.8413-1.0031.2636-2.0054.5306-3.0068.8011-.5177.1405-.8154.5501-.7966 1.0717.0055.2293.0917.4493.2435.6213.1517.1719.3593.2849.5861.3189.2194.0219.441-.0001.6517-.0647 1.5106-.3921 3.0185-.7972 4.5303-1.1972.3171-.0841.6343-.165.9708-.2523.0841.3449.1676.6536.244.9493zm6.1113-3.6628v8.2406h3.0528v-8.2406z"/><path d="m25.8225 30.2536-2.0878.7468h2.1209c-.011-.2433-.0214-.4879-.0331-.7468z"/></g></svg>