<svg fill="none" height="32" viewBox="0 0 32 32" width="32" xmlns="http://www.w3.org/2000/svg" xmlns:xlink="http://www.w3.org/1999/xlink"><clipPath id="a"><path d="m0 0h32v32h-32z"/></clipPath><g clip-path="url(#a)" fill="#fff"><path d="m23.9376 32c-.3975-.075-.8009-.1259-1.1909-.2284-2.3016-.6033-3.9658-1.9858-4.995-4.1308-.0308-.0642-.0641-.1284-.1108-.22-.3267.2058-.6458.3975-.955.6033-.4592.305-.9033.3059-1.3667 0-.5375-.3558-1.0933-.6842-1.6325-1.0375-.1516-.1-.2583-.1083-.4166-.0058-.5475.36-1.1092.6983-1.66 1.0533-.45.2909-.8892.2967-1.3417 0-.55834-.3616-1.12085-.7183-1.69168-1.0591-.05485-.0254-.11455-.0386-.17499-.0386-.06043 0-.12016.0132-.175.0386-.37084.2083-.7325.4366-1.08334.6741-.39916.2675-.80999.3867-1.25666.1409-.44667-.2459-.56167-.6575-.56083-1.1375.00444-4.465.00444-8.9306 0-13.3967v-.4433c-.12334-.0059-.2325-.0151-.34167-.0151-1.18666 0-2.37417-.0216-3.56001.0076-.659995.0166-1.155828-.1734-1.42666141-.805v-9.25004c.02457981-.05389.04491761-.10961.06083171-.16667.1434607-.70978.5204507-1.35108 1.0708397-1.821653.4675-.41 1.03-.610029 1.61833-.75919559h21.18754c.1775.05249999.3575.09834459.5325.15751159 1.375.4625 2.2 1.666677 2.2008 3.216677 0 4.56111-.0014 9.12227-.0042 13.68337 0 .2341.0642.3333.2917.4166 2.5878.9534 4.2094 2.7723 4.865 5.4567.0708.29.1183.5833.1767.8783v1.375c-.02.0892-.0475.1775-.0592.2675-.1841 1.4956-.8181 2.8999-1.8182 4.027-1 1.1271-2.3188 1.9238-3.7818 2.2847-.38.095-.7692.1567-1.1533.2333zm1.6458-14.8809c.0083-.075.0167-.1158.0167-.1567 0-4.5833.0108-9.16662-.0059-13.74495-.005-1.28334-.94-2.15418-2.2233-2.15418-5.8333 0-11.6647 0-17.49417 0-.08833 0-.17584.00754-.32417.0142.76917.8725.85001 1.8775.84834 2.93083-.01389 7.4656-.0164 14.9319-.00751 22.3992v.45c.48334-.3025.91085-.5567 1.32418-.8334.46167-.3066.90749-.2991 1.36749 0 .55.3567 1.11084.6959 1.65834 1.0559.0542.046.123.0713.1942.0713.0711 0 .1399-.0253.1941-.0713.5742-.3759 1.1575-.7392 1.7392-1.1034.1731-.1187.3776-.1834.5876-.1857.2099-.0024.4158.0576.5916.1724.295.1758.5833.3683.8725.5483.3616.2225.7275.6134 1.0891.6109.3617-.0025.7209-.4076 1.0909-.6184.1666-.0958.1925-.1967.15-.3767-.2211-.9666-.2458-1.9677-.0725-2.9441.525-3.1575 3.2666-5.75 6.4533-6.055.6392-.0608 1.2833-.0092 1.95-.0092zm-1.0133 1.0083c-.8482-.0041-1.6888.1602-2.473.4834-.7842.3231-1.4965.7986-2.0956 1.399-.599.6004-1.073 1.3138-1.3944 2.0987s-.4838 1.6258-.4779 2.474c.0059 3.4833 2.9084 6.3516 6.425 6.3483 3.5 0 6.385-2.9 6.3775-6.3958-.0041-3.5234-2.8733-6.4134-6.3591-6.4076zm-19.2442-6.4166v-.4108c0-2.58225 0-5.16559 0-7.75003 0-.16667 0-.33334-.01084-.5-.075-1.12167-1.08333-2.03085-2.20916-1.98918-.5528.02543-1.07422.26418-1.45465.66606-.38044.40188-.59025.93557-.58535 1.48893-.0075 2.76 0 5.52001 0 8.28082.0038.0715.01131.1427.0225.2134z"/><path d="m16.0192 10.6599h7.12c.1141 0 .23 0 .3433.0075.3125.03.5125.2358.515.5208s-.2.5001-.5075.5334c-.1037.0081-.2077.0103-.3117.0067-4.7883 0-9.5766 0-14.36496 0-.14511.0066-.29045-.0055-.4325-.0359-.11393-.0245-.21493-.09-.28387-.184-.06894-.0939-.10106-.2099-.09029-.326-.00525-.1217.03572-.2409.1147-.3336.07899-.0927.19013-.1522.31112-.1664.13382-.0191.2691-.026.40418-.0208z"/><path d="m10.1391 2.66675c.285.015.4425.17167.5242.44584.045.10437.1148.19618.2033.2675.2009.19166.4392.35081.6109.56498.0414.05414.0715.11604.0885.18205.017.066.0205.13478.0104.20219-.0101.0674-.0336.13206-.0692.19018s-.0826.10846-.1381.14807c-.1111.07926-.248.11391-.3835.09709s-.2597-.08387-.3481-.18791c-.0209-.0225-.0384-.04916-.0575-.07332-.1742-.22-.39-.31084-.65918-.19084-.25416.11333-.34834.32417-.2975.58834.05666.28833.26083.39832.54088.42249.805.06833 1.3708.53501 1.5266 1.24418.1667.74333-.14 1.36582-.8633 1.79915-.0791.05527-.1365.13627-.1625.22917-.0758.29-.25.4675-.5484.45666-.28079-.01-.44828-.17498-.50994-.46081-.03836-.0976-.10296-.1827-.18667-.24585-.20333-.18917-.44416-.34498-.61833-.55664-.04922-.05458-.08626-.11905-.10864-.18905s-.02957-.14395-.02114-.21696c.00844-.073.03232-.14337.07007-.20642s.0885-.11735.14886-.15926c.24167-.175.54669-.11416.76502.15417.31.37917.78917.36418.95997-.02999.145-.33333-.0525-.67503-.4308-.74336-.1533-.0275-.31252-.02582-.46169-.06499-.29977-.07589-.57042-.23868-.77799-.46789s-.34279-.51463-.38867-.82044c-.0925-.69.19916-1.30832.79166-1.63415.15584-.08333.25002-.16667.28418-.35917.04584-.25334.24332-.37585.50661-.38501z"/><path d="m18.6558 9.06015c-1.5516 0-3.1036 0-4.6558 0-.2708 0-.5-.06087-.6183-.3267-.0327-.07408-.0479-.1547-.0443-.2356.0037-.0809.026-.15986.0652-.23071s.0943-.13167.1609-.17769c.0666-.04603.143-.07604.2232-.08765.0932-.0103.1871-.0131.2808-.00834h9.1875c.0833 0 .1667 0 .25.005.1313.00849.2546.0658.3457.16065.0912.09484.1435.22035.1468.35184.0018.13152-.0448.25913-.1308.35865-.086.09951-.2055.16403-.3359.18135-.0933.00917-.1871.01171-.2808.00753z"/><path d="m16.8133 14.3867h-4.3133c-.104.0051-.2082.0023-.3117-.0084-.1157-.0094-.2242-.0601-.3056-.1428-.0814-.0828-.1303-.1922-.1377-.308-.0317-.2575.0741-.4567.3166-.5475.1382-.0437.2828-.0629.4276-.0567 2.8738-.0033 5.748-.0033 8.6225 0h.1558c.3616.0175.6025.2392.5967.5475-.0059.3084-.2426.515-.6176.5159-1.4766.0011-2.9544.0011-4.4333 0z"/><path d="m16.55 15.9951h4.1533c.2633 0 .4742.0758.5833.3283.0305.0724.0444.1507.0409.2291s-.0244.1551-.0611.2245c-.0368.0694-.0885.1297-.1514.1767-.063.0469-.1355.0793-.2125.0948-.0826.0133-.1664.0177-.25.0133h-8.245c-.375 0-.5917-.1358-.655-.4025-.0833-.365.1625-.6583.5792-.66 1.1141-.005 2.2283 0 3.3416 0z"/><path d="m12.2641 22.3858c-1.2278 0-2.45555 0-3.68333 0-.27083 0-.49999-.1058-.53749-.37-.01751-.1974.04223-.394.16666-.5483.09417-.1083.31834-.1391.48584-.1416.88417-.0134 1.76832-.0067 2.65332-.0067h4.4008c.1143-.0052.2287.0009.3417.0183.1304.02.2481.0892.329.1934.0809.1041.1188.2354.106.3666-.0046.132-.0612.2569-.1575.3473-.0964.0904-.2246.139-.3567.1352-.5091.0108-1.0191.0042-1.5291.005z"/><path d="m14.9342 18.6599h2.4358c.1143-.0038.2288.0037.3417.0225.112.0236.2131.0834.2878.1702.0746.0868.1187.1957.1253.31s-.0245.2276-.0886.3225c-.0641.0948-.1577.1659-.2662.2023-.0995.0294-.203.0426-.3067.0392-1.6866 0-3.373 0-5.0591 0-.1443.003-.2872-.0288-.4167-.0925-.2283-.125-.2942-.35-.2233-.5933.0758-.2634.2816-.3759.5475-.3767h2.6233z"/><path d="m16.2568 6.38588c-.76 0-1.52 0-2.28 0-.3984 0-.6392-.20081-.6425-.52164-.0034-.32084.2425-.54084.6308-.54167 1.5306-.00333 3.0608-.00333 4.5908 0 .3984 0 .6342.20501.6367.53084s-.2225.53081-.6258.53247c-.77.0025-1.54 0-2.31 0z"/><path d="m9.33338 14.3842c-.27 0-.54166.0083-.81166 0-.13457.0006-.2642-.0507-.36196-.1432-.09776-.0924-.15612-.219-.16298-.3534-.00687-.1344.03829-.2663.12611-.3683.08783-.1019.21157-.1661.3455-.1793.57167-.025 1.14499-.025 1.71661 0 .0683.0043.135.0223.1963.0528.0612.0306.1156.0731.1601.1251.0444.052.078.1124.0987.1776.0206.0652.028.1339.0216.202-.0217.2809-.2358.4742-.5467.4909-.0208 0-.0416 0-.0625 0h-.71912z"/><path d="m9.3266 19.7266c-.26 0-.52082.0117-.78082 0-.33333-.0183-.5425-.2358-.54334-.5292-.00083-.2933.2075-.5175.54-.5267.53056-.0144 1.0614-.0144 1.59256 0 .0681-.0018.1359.0098.1996.0343.0636.0246.1218.0614.171.1085.0493.0471.0888.1036.1161.166.0274.0625.0421.1297.0432.1979.0109.29-.2041.515-.5258.5492-.0208.0013-.0417.0013-.0625 0z"/><path d="m9.32505 17.0592c-.26084 0-.52166.0083-.78083 0-.31916-.0133-.5425-.24-.5425-.5308-.0005-.0707.01332-.1407.04061-.2058.02729-.0652.06749-.1242.11819-.1734.05069-.0492.11081-.0876.17675-.113.06595-.0253.13635-.0371.20695-.0345.53084-.01 1.06249-.0108 1.59328 0 .1374-.0009.2697.052.3685.1476.0988.0955.1562.2259.1599.3632.0014.0707-.0112.1409-.0371.2066-.0259.0658-.0645.1257-.1137.1764s-.108.0911-.173.1189c-.0649.0279-.1347.0425-.2054.0431-.26999.0117-.54082.0017-.81165.0017z"/><path d="m23.3875 26.375c.2133-.3042.3983-.5658.5833-.8292.8889-1.2694 1.7778-2.5383 2.6667-3.8066.0659-.1061.1455-.203.2366-.2883.0899-.0749.2022-.1176.3191-.1213s.2317.0319.3261.101c.0944.069.163.1677.1948.2803.0318.1125.0251.2325-.0191.3408-.0445.0937-.0981.1827-.16.2658-1.1667 1.67-2.335 3.3395-3.505 5.0084-.3558.5083-.6458.5349-1.0833.1033-.4567-.4556-.9126-.9117-1.3676-1.3684-.3-.3025-.3275-.6075-.0833-.845s.5434-.2.845.1009c.3459.3433.685.6916 1.0467 1.0583z"/></g></svg>