<svg fill="none" height="27" viewBox="0 0 27 27" width="27" xmlns="http://www.w3.org/2000/svg" xmlns:xlink="http://www.w3.org/1999/xlink"><mask id="a" fill="#000" height="27" maskUnits="userSpaceOnUse" width="27" x="0" y="0"><path d="m0 0h27v27h-27z" fill="#fff"/><path clip-rule="evenodd" d="m9.42436 25.8681c.0883.0435.17659.087.264.1319l.40114-.0006c.3859-.1119.6483-.3737.8807-.6898.2875-.3908.5812-.7758.8754-1.1613.1989-.2608.398-.5217.5954-.7847.0348-.0527.0835-.0947.1407-.1215.0572-.0267.1206-.0372.1834-.0302.4954.0106.9907.0106 1.4861 0 .0628-.0076.1264.0024.1839.0288.0574.0265.1064.0684.1414.121.2216.2986.4472.5945.6729.8904.2671.3502.5343.7006.7949 1.0556.2323.3174.4923.5798.8794.6911h.3908c.1529-.0844.3063-.1679.4597-.2513.3655-.1989.7309-.3977 1.0893-.6092.2783-.1633.3455-.4691.2-.7174-.1394-.2378-.4165-.3106-.7057-.1803-.073.0327-.1428.0715-.2124.1101-.0226.0125-.0451.025-.0677.0372-.2103.1118-.4202.2259-.6316.3409-.1243.0676-.2492.1355-.3751.2034-.2143-.2824-.4272-.5624-.639-.8409-.4251-.5589-.8455-1.1117-1.2635-1.6664-.1498-.197-.3217-.2973-.5779-.293-.7223.011-1.4451.0092-2.1674 0-.1057-.0079-.2117.0112-.308.0556s-.1797.1126-.2424.1982c-.1553.2027-.3146.4033-.4737.6037-.0483.0607-.0965.1214-.1445.1822l-1.38705 1.7557c-.02934-.0056-.05804-.0142-.08562-.0257-.40508-.2405-.80999-.4813-1.21492-.7222-.92226-.5486-1.84463-1.0972-2.76936-1.642-.16107-.0951-.12249-.1932-.07243-.3203l.00149-.0038c.14039-.3565.27968-.7137.41894-1.0708.22107-.567.44205-1.1337.66717-1.6965.1107-.2758.07462-.4991-.08193-.7535-.34614-.5663-.67638-1.1448-.97849-1.7368-.14127-.2764-.31618-.4287-.62196-.4703-.4658-.0637-.93099-.132-1.39626-.2004-.46751-.0686-.93509-.1373-1.40344-.2014-.20731-.0281-.28804-.1003-.28804-.3222.01101-1.5053.01101-3.0103 0-4.5152-.00183-.2476.09418-.3137.31985-.3443.49412-.0662.98755-.1393 1.48102-.2123.4312-.0639.86244-.1277 1.29421-.187.307-.0422.47763-.1994.61767-.474.29477-.58524.62134-1.15825.96748-1.71538.16206-.26113.2067-.48803.09051-.77424-.19385-.47911-.38186-.96029-.56985-1.44144-.16667-.42656-.33333-.8531-.50404-1.27815-.07706-.19264-.0636-.30515.13516-.40973.27295-.14357.53896-.30014.80502-.45674.11247-.0662.22495-.1324.33797-.19763l2.92262-1.69095c.03033.03949.05968.07684.08838.11323.0326.04139.0642.08155.0951.12223.1164.15302.2329.30599.3494.45896.46.60391.92 1.20791 1.3758 1.81541.1559.2067.3437.31433.606.28069.6942-.0914 1.3974-.0914 2.0916 0 .2599.03669.4531-.06237.6115-.26908.2311-.30306.4682-.6023.7054-.90162.0911-.11503.1823-.23007.2731-.34535.1427-.18029.2855-.36113.4285-.54228.1942-.24591.3888-.49241.5842-.73891.018.00888.0334.01606.0471.02243.0221.01032.0397.01851.0563.02834 1.3116.78442 2.626 1.56393 3.9433 2.33857.1492.08745.1529.17245.096.31617-.1541.38791-.3059.77713-.4576 1.16633-.2083.53423-.4166 1.06842-.631 1.59913-.1192.29477-.0758.5296.0918.79807.3449.54979.6684 1.11365.9564 1.69404.148.2978.3376.4488.6593.4923.5158.0692 1.0309.1444 1.546.2195.418.061.836.122 1.2543.1798.189.0257.2581.1022.2581.2985-.0065 1.5215-.0065 3.0431 0 4.5646.0012.2073-.0716.2844-.2734.3101-.4916.0611-.982.1345-1.4725.208-.0885.0132-.177.0265-.2655.0396-.3657.0575-.5669.2966-.5205.6116.0447.3027.2893.4691.6563.4201.2133-.0282.4262-.0622.6392-.0963.3412-.0546.6826-.1092 1.026-.1397.6275-.0563 1.0531-.3333 1.2433-.9449v-5.3713c-.1908-.6097-.6177-.87876-1.2439-.94359-.499-.05181-.9953-.12894-1.4918-.20609-.2828-.04396-.5658-.08792-.8492-.12722-.0792-.00569-.1552-.03298-.2199-.07892s-.1156-.10874-.1471-.18158c-.2299-.43971-.4794-.86781-.7338-1.29284-.0366-.05127-.059-.1113-.0649-.17403-.006-.06272.0048-.1259.0312-.18311.2812-.70504.5561-1.41322.8308-2.12109.0456-.11736.0911-.23471.1367-.35203.2832-.72836.1187-1.20905-.5504-1.60778-1.2924-.76852-2.585-1.53665-3.8779-2.30435-.677-.401182-1.2059-.302098-1.6811.31802-.5247.68433-1.0476 1.36927-1.5644 2.0591-.0352.05716-.0857.10333-.1458.13327s-.1274.04245-.1942.03613c-.4948-.01406-.9907-.01162-1.4855 0-.0629.00676-.1264-.00405-.1835-.03126-.0572-.02721-.1056-.06974-.14-.12285-.5204-.69656-1.0488-1.38823-1.5778-2.07929-.4642-.607884-1.00295-.711236-1.66343-.31984-1.30057.76934-2.60033 1.54133-3.89927 2.31597-.6403.38099-.81581.9002-.54428 1.59921.01892.04871.03785.09743.05677.14615.30149.77626.60292 1.55235.91193 2.32575.02702.05706.03832.1203.03273.18319-.00559.0629-.02787.12317-.06453.17457-.2538.42381-.50515.85128-.73387 1.28976-.08439.16084-.17368.24279-.35714.26726-.46238.06128-.92417.12954-1.38592.19779-.35847.05298-.71691.10596-1.07559.15567-.75099.10397-1.1271.52103-1.1271 1.27453v4.6619c.00061.776.36877 1.1833 1.13688 1.2885.44196.0606.8834.1256 1.32478.1905.3868.057.77356.1139 1.16058.1679.06644.0059.13002.0298.1839.0691.05387.0393.09601.0926.12188.1541.12258.2313.25273.4589.38293.6865.12377.2164.24758.4329.365.6528.05139.1012.06253.2181.03119.3272-.22241.592-.45261 1.1809-.68281 1.7699-.092.2353-.184.4707-.2755.7063-.28926.7448-.1272 1.217.55713 1.6242 1.1856.7099 2.37385 1.4152 3.56476 2.116.17911.1056.36641.1979.55364.2901zm13.36554.0975c.0438.0114.0876.0227.1313.0344l.6837-.0019c.056-.0156.1125-.0303.169-.045.1225-.0317.245-.0636.363-.1054 1.0024-.3712 1.6145-1.0782 1.8176-2.1325.0107-.0377.0251-.0744.0428-.1094v-.6838c-.0168-.0269-.03-.0559-.0392-.0862-.0905-.6103-.3773-1.1173-.8097-1.5491-.2931-.2935-.5864-.5871-.88-.8806-1.5399-1.5436-3.082-3.0851-4.6264-4.6246-.6097-.6073-.9663-1.313-.9442-2.1943.0232-.9601-.2863-1.8218-.814-2.6113-.6678-.99926-1.4867-1.84017-2.6169-2.3025-1.7496-.71614-3.3739-.40913-4.8796.67883-.48247.34858-.45802.73697.0545 1.04267.2112.1268.4223.2536.6334.3805.7364.4426 1.4728.8852 2.2134 1.3215.1504.0887.195.1786.1614.3474-.0705.3809-.2173.7436-.4317 1.0663-.2145.3227-.492.5986-.8159.8111-.1706.115-.2929.123-.4764.0104-.8127-.5029-1.6346-.9914-2.4568-1.4801l-.07073-.042c-.47334-.282-.88308-.049-.90143.5014-.02508.8074.13255 1.6099.46111 2.3478.92835 2.127 3.39415 3.4125 5.66115 2.9354.1994-.0421.3266.0043.4691.1474 2.1107 2.1124 4.2203 4.2255 6.329 6.3394.3626.3639.7675.652 1.2634.7999.1023.0305.2057.0574.3091.0843zm-11.1336-16.05896c-.0336-.02119-.071-.04476-.1143-.07189 1.4536-.7149 2.8186-.69352 4.0943.24395.9302.6825 1.6341 1.5608 1.9313 2.7068.0597.2281.0871.4634.0813.699-.0366 1.2341.4471 2.2365 1.3088 3.0926 1.8036 1.7992 3.6053 3.5999 5.4049 5.4019.6415.6428.7663 1.4274.3486 2.1514-.4954.8599-1.7056 1.0874-2.4774.4642-.1132-.0928-.2214-.1916-.3242-.296-2.1795-2.1706-4.3536-4.3469-6.5222-6.5289-.2629-.2648-.5223-.3541-.8922-.2648-1.82.4403-3.281-.1474-4.3983-1.6152-.37737-.4953-.60244-1.072-.7009-1.7276.02785.0142.05333.0268.0771.0384.04568.0225.08508.0418.12288.0644.17367.1039.3476.2074.52152.3109.4759.2832.9517.5663 1.422.8584.2654.1651.5051.1651.7773.0207 1.3686-.7259 2.1276-1.8413 2.2138-3.402.0159-.2869-.0911-.477-.3357-.6208-.607-.3604-1.214-.7256-1.8211-1.0907-.188-.1131-.376-.2261-.564-.3391-.0475-.0288-.0947-.05858-.1535-.09566z" fill="#000" fill-rule="evenodd"/></mask><g fill="#000"><path clip-rule="evenodd" d="m9.42436 25.8681c.0883.0435.17659.087.264.1319l.40114-.0006c.3859-.1119.6483-.3737.8807-.6898.2875-.3908.5812-.7758.8754-1.1613.1989-.2608.398-.5217.5954-.7847.0348-.0527.0835-.0947.1407-.1215.0572-.0267.1206-.0372.1834-.0302.4954.0106.9907.0106 1.4861 0 .0628-.0076.1264.0024.1839.0288.0574.0265.1064.0684.1414.121.2216.2986.4472.5945.6729.8904.2671.3502.5343.7006.7949 1.0556.2323.3174.4923.5798.8794.6911h.3908c.1529-.0844.3063-.1679.4597-.2513.3655-.1989.7309-.3977 1.0893-.6092.2783-.1633.3455-.4691.2-.7174-.1394-.2378-.4165-.3106-.7057-.1803-.073.0327-.1428.0715-.2124.1101-.0226.0125-.0451.025-.0677.0372-.2103.1118-.4202.2259-.6316.3409-.1243.0676-.2492.1355-.3751.2034-.2143-.2824-.4272-.5624-.639-.8409-.4251-.5589-.8455-1.1117-1.2635-1.6664-.1498-.197-.3217-.2973-.5779-.293-.7223.011-1.4451.0092-2.1674 0-.1057-.0079-.2117.0112-.308.0556s-.1797.1126-.2424.1982c-.1553.2027-.3146.4033-.4737.6037-.0483.0607-.0965.1214-.1445.1822l-1.38705 1.7557c-.02934-.0056-.05804-.0142-.08562-.0257-.40508-.2405-.80999-.4813-1.21492-.7222-.92226-.5486-1.84463-1.0972-2.76936-1.642-.16107-.0951-.12249-.1932-.07243-.3203l.00149-.0038c.14039-.3565.27968-.7137.41894-1.0708.22107-.567.44205-1.1337.66717-1.6965.1107-.2758.07462-.4991-.08193-.7535-.34614-.5663-.67638-1.1448-.97849-1.7368-.14127-.2764-.31618-.4287-.62196-.4703-.4658-.0637-.93099-.132-1.39626-.2004-.46751-.0686-.93509-.1373-1.40344-.2014-.20731-.0281-.28804-.1003-.28804-.3222.01101-1.5053.01101-3.0103 0-4.5152-.00183-.2476.09418-.3137.31985-.3443.49412-.0662.98755-.1393 1.48102-.2123.4312-.0639.86244-.1277 1.29421-.187.307-.0422.47763-.1994.61767-.474.29477-.58524.62134-1.15825.96748-1.71538.16206-.26113.2067-.48803.09051-.77424-.19385-.47911-.38186-.96029-.56985-1.44144-.16667-.42656-.33333-.8531-.50404-1.27815-.07706-.19264-.0636-.30515.13516-.40973.27295-.14357.53896-.30014.80502-.45674.11247-.0662.22495-.1324.33797-.19763l2.92262-1.69095c.03033.03949.05968.07684.08838.11323.0326.04139.0642.08155.0951.12223.1164.15302.2329.30599.3494.45896.46.60391.92 1.20791 1.3758 1.81541.1559.2067.3437.31433.606.28069.6942-.0914 1.3974-.0914 2.0916 0 .2599.03669.4531-.06237.6115-.26908.2311-.30306.4682-.6023.7054-.90162.0911-.11503.1823-.23007.2731-.34535.1427-.18029.2855-.36113.4285-.54228.1942-.24591.3888-.49241.5842-.73891.018.00888.0334.01606.0471.02243.0221.01032.0397.01851.0563.02834 1.3116.78442 2.626 1.56393 3.9433 2.33857.1492.08745.1529.17245.096.31617-.1541.38791-.3059.77713-.4576 1.16633-.2083.53423-.4166 1.06842-.631 1.59913-.1192.29477-.0758.5296.0918.79807.3449.54979.6684 1.11365.9564 1.69404.148.2978.3376.4488.6593.4923.5158.0692 1.0309.1444 1.546.2195.418.061.836.122 1.2543.1798.189.0257.2581.1022.2581.2985-.0065 1.5215-.0065 3.0431 0 4.5646.0012.2073-.0716.2844-.2734.3101-.4916.0611-.982.1345-1.4725.208-.0885.0132-.177.0265-.2655.0396-.3657.0575-.5669.2966-.5205.6116.0447.3027.2893.4691.6563.4201.2133-.0282.4262-.0622.6392-.0963.3412-.0546.6826-.1092 1.026-.1397.6275-.0563 1.0531-.3333 1.2433-.9449v-5.3713c-.1908-.6097-.6177-.87876-1.2439-.94359-.499-.05181-.9953-.12894-1.4918-.20609-.2828-.04396-.5658-.08792-.8492-.12722-.0792-.00569-.1552-.03298-.2199-.07892s-.1156-.10874-.1471-.18158c-.2299-.43971-.4794-.86781-.7338-1.29284-.0366-.05127-.059-.1113-.0649-.17403-.006-.06272.0048-.1259.0312-.18311.2812-.70504.5561-1.41322.8308-2.12109.0456-.11736.0911-.23471.1367-.35203.2832-.72836.1187-1.20905-.5504-1.60778-1.2924-.76852-2.585-1.53665-3.8779-2.30435-.677-.401182-1.2059-.302098-1.6811.31802-.5247.68433-1.0476 1.36927-1.5644 2.0591-.0352.05716-.0857.10333-.1458.13327s-.1274.04245-.1942.03613c-.4948-.01406-.9907-.01162-1.4855 0-.0629.00676-.1264-.00405-.1835-.03126-.0572-.02721-.1056-.06974-.14-.12285-.5204-.69656-1.0488-1.38823-1.5778-2.07929-.4642-.607884-1.00295-.711236-1.66343-.31984-1.30057.76934-2.60033 1.54133-3.89927 2.31597-.6403.38099-.81581.9002-.54428 1.59921.01892.04871.03785.09743.05677.14615.30149.77626.60292 1.55235.91193 2.32575.02702.05706.03832.1203.03273.18319-.00559.0629-.02787.12317-.06453.17457-.2538.42381-.50515.85128-.73387 1.28976-.08439.16084-.17368.24279-.35714.26726-.46238.06128-.92417.12954-1.38592.19779-.35847.05298-.71691.10596-1.07559.15567-.75099.10397-1.1271.52103-1.1271 1.27453v4.6619c.00061.776.36877 1.1833 1.13688 1.2885.44196.0606.8834.1256 1.32478.1905.3868.057.77356.1139 1.16058.1679.06644.0059.13002.0298.1839.0691.05387.0393.09601.0926.12188.1541.12258.2313.25273.4589.38293.6865.12377.2164.24758.4329.365.6528.05139.1012.06253.2181.03119.3272-.22241.592-.45261 1.1809-.68281 1.7699-.092.2353-.184.4707-.2755.7063-.28926.7448-.1272 1.217.55713 1.6242 1.1856.7099 2.37385 1.4152 3.56476 2.116.17911.1056.36641.1979.55364.2901zm13.36554.0975c.0438.0114.0876.0227.1313.0344l.6837-.0019c.056-.0156.1125-.0303.169-.045.1225-.0317.245-.0636.363-.1054 1.0024-.3712 1.6145-1.0782 1.8176-2.1325.0107-.0377.0251-.0744.0428-.1094v-.6838c-.0168-.0269-.03-.0559-.0392-.0862-.0905-.6103-.3773-1.1173-.8097-1.5491-.2931-.2935-.5864-.5871-.88-.8806-1.5399-1.5436-3.082-3.0851-4.6264-4.6246-.6097-.6073-.9663-1.313-.9442-2.1943.0232-.9601-.2863-1.8218-.814-2.6113-.6678-.99926-1.4867-1.84017-2.6169-2.3025-1.7496-.71614-3.3739-.40913-4.8796.67883-.48247.34858-.45802.73697.0545 1.04267.2112.1268.4223.2536.6334.3805.7364.4426 1.4728.8852 2.2134 1.3215.1504.0887.195.1786.1614.3474-.0705.3809-.2173.7436-.4317 1.0663-.2145.3227-.492.5986-.8159.8111-.1706.115-.2929.123-.4764.0104-.8127-.5029-1.6346-.9914-2.4568-1.4801l-.07073-.042c-.47334-.282-.88308-.049-.90143.5014-.02508.8074.13255 1.6099.46111 2.3478.92835 2.127 3.39415 3.4125 5.66115 2.9354.1994-.0421.3266.0043.4691.1474 2.1107 2.1124 4.2203 4.2255 6.329 6.3394.3626.3639.7675.652 1.2634.7999.1023.0305.2057.0574.3091.0843zm-11.1336-16.05896c-.0336-.02119-.071-.04476-.1143-.07189 1.4536-.7149 2.8186-.69352 4.0943.24395.9302.6825 1.6341 1.5608 1.9313 2.7068.0597.2281.0871.4634.0813.699-.0366 1.2341.4471 2.2365 1.3088 3.0926 1.8036 1.7992 3.6053 3.5999 5.4049 5.4019.6415.6428.7663 1.4274.3486 2.1514-.4954.8599-1.7056 1.0874-2.4774.4642-.1132-.0928-.2214-.1916-.3242-.296-2.1795-2.1706-4.3536-4.3469-6.5222-6.5289-.2629-.2648-.5223-.3541-.8922-.2648-1.82.4403-3.281-.1474-4.3983-1.6152-.37737-.4953-.60244-1.072-.7009-1.7276.02785.0142.05333.0268.0771.0384.04568.0225.08508.0418.12288.0644.17367.1039.3476.2074.52152.3109.4759.2832.9517.5663 1.422.8584.2654.1651.5051.1651.7773.0207 1.3686-.7259 2.1276-1.8413 2.2138-3.402.0159-.2869-.0911-.477-.3357-.6208-.607-.3604-1.214-.7256-1.8211-1.0907-.188-.1131-.376-.2261-.564-.3391-.0475-.0288-.0947-.05858-.1535-.09566z" fill-rule="evenodd"/><path d="m9.68836 26-.18271.3558.08631.0444.09702-.0002zm-.264-.1319.17679-.3588zm.66514.1313.0007.4.0565-.0001.0543-.0158zm.8807-.6898-.3222-.2371-.0001.0002zm.8754-1.1613-.318-.2427zm.5954-.7847.3199.2401.0071-.0095.0066-.0099zm.1407-.1215-.1695-.3623v.0001zm.1834-.0302-.0443.3975.0178.002.0179.0004zm1.4861 0 .0085.3999.02-.0004.0197-.0024zm.1839.0288-.1673.3633zm.1414.121-.3331.2215.0057.0086.0062.0083zm.6729.8904-.3181.2426zm.7949 1.0556.3227-.2363-.0003-.0004zm.8794.6911-.1106.3844.0542.0156h.0564zm.3908 0v.4h.103l.0903-.0498zm.4597-.2513-.1912-.3514zm1.0893-.6092-.2024-.345-.0009.0005zm.2-.7174-.3451.2023zm-.7057-.1803.1639.3648.0003-.0001zm-.2124.1101-.194-.3498zm-.0677.0372.1876.3533.0033-.0017zm-.6316.3409-.1912-.3514zm-.3751.2034-.3186.2418.2071.2729.3015-.1626zm-.639-.8409-.3184.2422zm-1.2635-1.6664.3195-.2408-.0012-.0015zm-.5779-.293.0061.4h.0006zm-2.1674 0-.0298.3989.0123.0009.0124.0002zm-.308.0556-.1675-.3632zm-.2424.1982.3176.2433.0052-.007zm-.4737.6037.3132.2487zm-.1445.1822-.3137-.2483-.0002.0003zm-1.38705 1.7557-.0749.393.23835.0454.1504-.1904zm-.08562-.0257-.20422.344.02434.0144.02612.0109zm-1.21492-.7222.20449-.3438zm-2.76936-1.642-.20331.3444.00027.0002zm-.07243-.3203-.37222-.1465zm.00149-.0038-.37217-.1466-.00005.0001zm.41894-1.0708-.37267-.1453zm.66717-1.6965-.37122-.149-.00017.0004zm-.08193-.7535-.3413.2086.00063.0011zm-.97849-1.7368.35628-.1818-.0001-.0002zm-.62196-.4703-.05424.3963.00034.0001zm-1.39626-.2004-.05812.3958zm-1.40344-.2014.05421-.3963h-.00042zm-.28804-.3222-.4-.003v.003zm0-4.5152.39999-.0029zm.31985-.3443-.05316-.3964-.00055.0001zm1.48102-.2123.05858.3957zm1.29421-.187.05444.3963h.00003zm.61767-.474.35634.1818.00091-.0018zm.96748-1.71538.33976.2111.00011-.00017zm.09051-.77424-.3708.15003.00018.00044zm-.56985-1.44144.37257-.14557zm-.50404-1.27815-.37139.14855.00021.00052zm.13516-.40973-.18621-.35401-.00004.00002zm.80502-.45674.2029.34472zm.33797-.19763.19996.34643.00036-.00021zm2.92262-1.69095.31718-.24366-.2137-.27831-.30379.17575zm.08838.11323.3143-.24739zm.0951.12223-.31847.24203.00013.00018zm.3494.45896.3183-.24236zm1.3758 1.81541-.32.24004.0007.00086zm.606.28069.0509.39676.0013-.00018zm2.0916 0 .0559-.39609-.0037-.00049zm.6115-.26908.3175.2433.0006-.00078zm.7054-.90162.3135.24842zm.2731-.34535-.3137-.24822-.0005.00067zm.4285-.54228-.3139-.24788zm.5842-.73891.177-.35869-.2897-.14299-.2007.25317zm.0471.02243-.1691.36252zm.0563.02834.2053-.3433-.0018-.00107zm3.9433 2.33857-.2028.3448.0005.0003zm.096.31617.3717.1477.0002-.00051zm-.4576 1.16633-.3727-.1453zm-.631 1.59913.3708.15002.0001-.00018zm.0918.79807-.3394.21179.0005.00078zm.9564 1.69404-.3583.1778.0001.0002zm.6593.4923-.0535.3964h.0003zm1.546.2195-.0577.3958zm1.2543.1798-.0547.3963.0008.0001zm.2581.2985.4.0017v-.0017zm0 4.5646-.4.0017v.0007zm-.2734.3101.0494.3969.0011-.0001zm-1.4725.208.0592.3955zm-.2655.0396-.0589-.3956-.0032.0005zm-.5205.6116.3958-.0584zm.6563.4201-.0525-.3965h-.0004zm.6392-.0963.0632.395zm1.026-.1397.0354.3984h.0003zm1.2433-.9449.3819.1188.0181-.058v-.0608zm0-5.3713h.4v-.0611l-.0183-.0583zm-1.2439-.94359-.0413.39789h.0001zm-1.4918-.20609.0615-.39525zm-.8492-.12722.0549-.39621-.0131-.00181-.0131-.00095zm-.2199-.07892-.2316.32615v.00001zm-.1471-.18158.3672-.15864-.0058-.0136-.0069-.01313zm-.7338-1.29284.3432-.20543-.0083-.01386-.0094-.01314zm-.0649-.17403.3982-.0375zm.0312-.18311.3632.16758.0045-.00959.0039-.00981zm.8308-2.12109.3729.14474zm.1367-.35203-.3728-.14494v.0001zm-.5504-1.60778.2048-.34361-.0003-.0002zm-3.8779-2.30435.2043-.343933-.0003-.000185zm-1.6811.31802.3174.24339.0001-.0001zm-1.5644 2.0591-.3201-.23982-.0109.01455-.0095.01548zm-.1458.13327.1784.35803zm-.1942.03613.0377-.39822-.0132-.00124-.0131-.00038zm-1.4855 0-.0094-.39989-.0167.00039-.0166.00179zm-.1835-.03126.172-.36112zm-.14-.12285.3358-.21739-.0073-.01127-.008-.01076zm-1.5778-2.07929-.3179.24276.0003.00038zm-1.66343-.31984.20365.34428.00027-.00016zm-3.89927 2.31597.20454.34374.00034-.0002zm-.54428 1.59921.37286-.14484zm.05677.14615.37286-.14482zm.91193 2.32575-.37145.14841.00461.01154.00532.01123zm-.0318.35776-.32566-.23227-.00929.01303-.00822.01373zm-.73387 1.28976.3542.18586.00045-.00087zm-.35714.26726.05255.39653.00031-.00004zm-1.38592.19779-.05849-.39571v.00001zm-1.07559.15567.05485.39623h.00006zm-1.1271 5.93643h-.4v.0003zm1.13688 1.2885.05436-.3963h-.00009zm1.32478.1905.05824-.3957zm1.16058.1679-.05526.3961.00992.0014.00997.0009zm.1839.0691.23584-.3231zm.12188.1541-.36871.1551.00691.0164.00834.0157zm.38293.6865.34721-.1986zm.365.6528.35673-.1811-.00387-.0073zm.03119.3272.37445.1406.0056-.0149.00439-.0153zm-.68281 1.7699.37255.1456zm-.2755.7063-.37285-.1449-.00002.0001zm.55713 1.6242.20547-.3431-.00089-.0006zm3.56476 2.116.20308-.3446-.00021-.0001zm14.05048.422-.1031.3865.0512.0136.0529-.0001zm-.1313-.0344-.1006.3871zm.815.0325.0011.4.0542-.0001.0523-.0146zm.169-.045-.1005-.3871zm.363-.1054.1337.377.0052-.0019zm1.8176-2.1325-.3848-.1094-.0047.0167-.0033.0171zm.0428-.1094.3569.1806.0431-.0852v-.0954zm0-.6838h.4v-.1144l-.0606-.0972zm-.0392-.0862-.3956.0587.0043.0292.0086.0283zm-.8097-1.5491-.283.2827.0004.0004zm-.88-.8806-.2832.2825.0004.0003zm-4.6264-4.6246.2824-.2833-.0001-.0001zm-.9442-2.1943.3998.01v-.0003zm-.814-2.6113-.3326.2223zm-2.6169-2.3025-.1515.37019.0001.00002zm-4.8796.67883.2343.32424v-.00003zm.0545 1.04267.2058-.343-.0009-.0005zm.6334.3805.206-.3428zm2.2134 1.3215.2031-.3446h-.0001zm.1614.3474-.3923-.0782-.001.0054zm-1.2476 1.8774-.2194-.3344-.0041.0027zm-.4764.0104-.2105.3402.0014.0008zm-2.4568-1.4801-.20437.3438v.0001zm-.07073-.042-.20469.3436.00032.0002zm-.90143.5014-.39978-.0133-.00003.0009zm.46111 2.3478.36662-.16-.00121-.0027zm5.66115 2.9354.0824.3915.0004-.0001zm.4691.1474-.2835.2823.0005.0005zm6.329 6.3394.2833-.2823-.0001-.0002zm1.2634.7999-.1143.3833v.0001zm-10.9388-16.04655-.1766-.35894-.6446.31703.609.38106zm.1143.07189-.2134.33836zm3.98.17206-.2369.3224.0003.0001zm1.9313 2.7068-.3872.1004.0002.0009zm.0813.699.3999.0119v-.0022zm1.3088 3.0926.2825-.2832-.0006-.0005zm5.4049 5.4019.2831-.2826h-.0001zm.3486 2.1514-.3465-.1998-.0001.0002zm-2.4774.4642-.2537.3094.0024.0018zm-.3242-.296.2851-.2806-.0028-.0028zm-6.5222-6.5289-.2838.2818.0001.0001zm-.8922-.2648-.0939-.3889-.0002.0001zm-4.3983-1.6152.3182-.2422v-.0001zm-.7009-1.7276.1821-.3561-.69331-.3545.11565.77zm.0771.0384-.17637.359v.0001zm.12288.0644.20542-.3433-.00069-.0004zm.52152.3109.2045-.3438zm1.422.8584.2113-.3397-.0003-.0002zm.7773.0207.1874.3534zm2.2138-3.402-.3994-.0222v.0001zm-.3357-.6208-.2043.344.0017.0009zm-1.8211-1.0907-.2061.3428zm-.564-.3391-.2074.342.0014.0009zm-1.93874 15.6419c-.09085-.0467-.18212-.0916-.26991-.1349l-.35357.7176c.0888.0438.17411.0858.25807.1289zm.21784-.0448-.40117.0006.00125.8.40122-.0006zm.559-.5267c-.212.2883-.4085.4667-.66977.5425l.22287.7683c.5105-.148.8386-.4931 1.0915-.8371zm.8797-1.1671c-.2938.3851-.5897.7729-.8796 1.1669l.6444.4741c.285-.3874.5767-.7697.8712-1.1557zm.5934-.7821c-.1962.2615-.3943.5212-.5934.7821l.636.4853c.1987-.2605.3988-.5227.5973-.7872zm.2912-.2436c-.1239.0579-.2294.149-.3048.263l.6672.4414c-.0058.0087-.0139.0157-.0234.0201zm.3972-.0655c-.136-.0152-.2735.0075-.3972.0654l.339.7247c-.0094.0043-.0199.0061-.0304.0049zm1.4332-.0024c-.4896.0105-.9793.0105-1.4689 0l-.0172.7998c.5011.0107 1.0022.0107 1.5032 0zm.3598.0654c-.1247-.0574-.263-.0792-.3995-.0626l.0965.7942c-.0109.0013-.0218-.0004-.0316-.005zm.3072.2629c-.076-.1144-.1824-.2055-.3072-.2629l-.3346.7266c-.0099-.0045-.0183-.0117-.0244-.0208zm.6579.8692c-.226-.2963-.45-.59-.6697-.8861l-.6425.4767c.2234.301.4506.599.676.8946zm.7992 1.0615c-.2631-.3584-.5325-.7117-.7992-1.0615l-.6362.4852c.2675.3507.5325.6981.7905 1.0497zm.6675.5433c-.2607-.0749-.4544-.2522-.6672-.5429l-.6455.4726c.252.3441.5781.6915 1.0916.8392zm.2803-.0155h-.3908v.8h.3908zm.2685-.2027c-.1532.0833-.3077.1674-.4618.2525l.3866.7004c.1516-.0838.304-.1666.4575-.2502zm1.0772-.6023c-.3514.2074-.7106.4029-1.0772.6023l.3823.7027c.3645-.1983.7361-.4004 1.1015-.616zm.0582-.1706c.0221.0376.0222.0675.017.0872-.0047.0182-.02.051-.0743.0829l.4049.69c.4683-.2749.6-.8255.3426-1.2646zm-.1964-.0179c.0762-.0343.1244-.0306.145-.0253.0166.0043.0339.0134.0514.0432l.6902-.4045c-.122-.2081-.3129-.3544-.542-.4134-.2251-.0579-.46-.0254-.6731.0705zm-.1826.0952c.072-.04.1272-.0703.1823-.0951l-.3279-.7297c-.0909.0408-.1753.0879-.2424.1252zm-.0708.039c.0244-.0133.0485-.0267.0708-.039l-.388-.6996c-.0229.0126-.0438.0243-.0646.0355zm-.6314.3407c.2118-.1152.4198-.2284.6281-.339l-.3753-.7065c-.2123.1128-.4239.2278-.6351.3427zm-.3762.2041c.1265-.0683.252-.1366.3762-.2041l-.3823-.7028c-.1243.0677-.2486.1353-.3738.2028zm-1.1474-.9508c.2118.2784.4246.5582.6388.8405l.6373-.4836c-.2145-.2826-.4276-.5628-.6393-.8412zm-1.2646-1.6679c.4187.5555.8396 1.1091 1.2646 1.6679l.6368-.4843c-.4252-.5591-.8451-1.1112-1.2624-1.6651zm-.2517-.1337c.0717-.0012.1107.0118.1364.0253.0281.0147.0662.0438.1165.1099l.6366-.4845c-.0995-.1308-.2222-.2503-.3816-.3339-.1617-.0848-.3368-.1198-.5213-.1167zm-2.1792 0c.7249.0092 1.4517.011 2.1786 0l-.0122-.7999c-.7176.0109-1.4366.0091-2.1562-.0001zm-.1354.0189c.0346-.016.0727-.0228.1107-.02l.0597-.7978c-.1735-.013-.3474.0185-.5054.0913zm-.0871.0712c.0225-.0307.0524-.0552.0871-.0712l-.335-.7265c-.158.0728-.2948.1847-.3976.3251zm-.4833.6161c.1588-.1999.3202-.4032.478-.6091l-.635-.4866c-.1529.1995-.31.3974-.4695.5982zm-.1441.1817c.0478-.0604.0959-.1209.1441-.1817l-.6265-.4975c-.0482.0607-.0966.1217-.1449.1827zm-1.3868 1.7555 1.387-1.7558-.6277-.4959-1.38703 1.7558zm-.55323.0956c.05304.0221.10817.0386.16448.0494l.14981-.7859c-.00239-.0004-.00466-.0011-.00677-.002zm-1.26565-.7477c.4049.2409.80995.4818 1.21519.7224l.40843-.6879c-.40492-.2404-.80969-.4812-1.21464-.7221zm-2.76791-1.6412c.92388.5443 1.84553 1.0925 2.76791 1.6412l.40898-.6876c-.92214-.5485-1.84523-1.0976-2.7708-1.6429zm-.24161-.8114c-.01393.0354-.08271.1868-.06943.3509.01829.2262.16283.373.31077.4603l.40663-.6889c-.01042-.0062.00835.0026.03138.0335.0271.0365.04477.0831.04861.1306.00324.0401-.00479.0645-.0035.06.00178-.0063.00573-.0173.01997-.0535zm.00149-.0038-.00149.0038.74443.2929.0015-.0038zm.41849-1.0696c-.1393.3572-.27834.7138-.41844 1.0695l.74434.2932c.14068-.3572.28023-.7151.41944-1.0721zm.66845-1.6998c-.22588.5647-.44749 1.1331-.66845 1.6998l.74534.2906c.22118-.5673.44153-1.1324.6659-1.6933zm-.05121-.3952c.05853.0951.07898.1593.08474.207.00535.0443.00142.1011-.03336.1878l.74244.298c.07592-.1892.1093-.3819.08515-.5818-.02374-.1964-.09961-.371-.19764-.5303zm-.99411-1.7647c.30773.603.64324 1.1906.99348 1.7636l.68259-.4172c-.34204-.5596-.66701-1.129-.9635-1.71zm-.31957-.2557c.09494.0129.14549.0387.18031.0659.03865.0302.08489.0834.13937.19l.71236-.364c-.08679-.1699-.19864-.331-.35921-.4564-.16439-.1284-.35418-.1996-.56502-.2282zm-1.40048-.201c.46494.0683.93208.1369 1.40014.2009l.10849-.7926c-.46354-.0634-.9268-.1315-1.3924-.1998zm-1.39952-.2008c.46606.0637.93169.1321 1.39952.2008l.11623-.7915c-.46717-.0686-.93671-.1376-1.40734-.202zm-.63384-.7186c0 .1467.02409.3465.17408.507.14442.1544.33504.1946.46018.2116l.10757-.7927c-.03531-.0048-.04548-.0091-.04208-.0078.00626.0024.03188.0138.05873.0425.02759.0295.0389.0585.04243.0711.00246.0087-.00091.002-.00091-.0317zm.00001-4.5122c.011 1.5028.011 3.0059 0 4.5092l.79998.0059c.01103-1.5072.01103-3.0142 0-4.521zm.66613-.7436c-.12182.0165-.32018.0521-.47248.2023-.16666.1645-.19486.3776-.19365.5413l.79998-.0059c-.00013-.0183.00069-.0301.00144-.0368.00075-.0066.00122-.0062-.00037-.0008-.00169.0057-.00559.0166-.01354.0304-.00814.0142-.01889.0284-.03196.0413-.02668.0263-.04961.0342-.04807.0336.00096-.0003.00635-.0021.01796-.0046.01158-.0025.02718-.0052.04811-.0081zm1.47615-.2117c-.49393.0731-.98464.1458-1.4756.2116l.10631.7929c.49729-.0667.99343-.1401 1.48645-.2131zm1.29835-.1876c-.43419.0596-.86749.1238-1.29835.1876l.11716.7914c.43155-.0639.86072-.1275 1.29007-.1864zm.31578-.25942c-.05518.1082-.10124.16262-.13989.19362-.03402.0272-.08291.053-.17592.0658l.10894.7926c.214-.0295.40391-.1034.56697-.2339.15842-.1268.2677-.2883.35256-.4546zm.98404-1.74475c-.35143.56565-.68404 1.1491-.98496 1.74656l.7145.35991c.28862-.57311.60915-1.13568.94999-1.68428zm.05966-.41268c.03616.08908.03946.14696.0333.19254-.00682.05053-.02983.11842-.09306.22031l.67974.42185c.09883-.15925.17917-.33537.20613-.53513.02764-.2047-.00484-.40338-.08487-.6005zm-.5718-1.44634c.18784.48078.37672.96419.57162 1.4459l.7416-.30005c-.19281-.47652-.37994-.95547-.56808-1.43699zm-.50265-1.27465c.16989.42301.33586.8478.50265 1.27465l.74514-.29114c-.16656-.42627-.3339-.85457-.50543-1.28166zm.32009-.91279c-.13957.07343-.30709.19708-.36948.41634-.05717.2009.00491.38527.04918.49593l.74278-.29711c-.01379-.03447-.01615-.04765-.01605-.04704.00049.00296.0043.02938-.00647.0672-.01147.04032-.03213.0679-.04539.08127-.00997.01007-.00945.0058.01793-.00861zm.78837-.44747c-.26744.15742-.52524.30907-.78833.44745l.37242.70803c.28282-.14876.55703-.31025.82171-.46604zm.34092-.19935c-.11475.06623-.22869.1333-.34092.19935l.4058.68944c.11272-.06634.22373-.13168.33502-.19592zm2.92226-1.69073-2.92263 1.69094.40064.69245 2.92258-1.69094zm.60299.21206c-.0288-.03663-.0568-.07217-.0855-.1095l-.6344.48732c.03199.04165.06281.0808.09127.11696zm.0993.12758c-.0334-.04382-.0671-.08665-.0993-.12758l-.62863.49478c.03294.04185.06243.07934.09096.11687zm.3492.45864c-.1166-.15299-.233-.30588-.3494-.45882l-.63664.48443c.1165.15311.23304.30616.34954.45912zm1.3775 1.81773c-.4568-.60886-.9177-1.21401-1.3775-1.81773l-.6365.48473c.4601.6041.9193 1.20694 1.374 1.81308zm.2352.12398c-.0615.00788-.0942-.00195-.1163-.01278-.0268-.01309-.0671-.04248-.1196-.11207l-.6386.48181c.1034.13712.2349.26489.4066.34888.1763.08625.3687.11341.5696.08766zm2.1946.00017c-.7289-.09596-1.4671-.09596-2.196 0l.1044.79316c.6596-.08683 1.3276-.08683 1.9871 0zm.2418-.11579c-.0506.06605-.0902.09328-.1166.10536-.0231.01056-.058.01991-.1215.01094l-.1119.79214c.1964.02773.3881.00589.5662-.07558.1748-.07996.311-.20562.4188-.34627zm.7094-.90676c-.2368.29884-.4763.601-.71.90754l.6362.48503c.2284-.29959.4632-.5959.7008-.89572zm.2724-.34447c-.0904.11477-.1812.22937-.2724.34447l.627.49685c.0911-.11496.1826-.23043.2738-.34621zm.4288-.54261c-.1431.18119-.2857.36185-.4283.54194l.6274.49645c.1428-.1805.2857-.36151.4287-.54264zm.5847-.73954c-.1957.24687-.3906.49368-.5847.73954l.6278.49575c.1942-.24596.3886-.49214.5838-.73827zm.5295-.09157c-.0137-.0064-.0255-.01191-.0391-.01861l-.354.71739c.0224.01104.0414.0199.055.02625zm.0908.04648c-.0366-.0216-.0728-.03808-.0908-.04648l-.3381.72503c.0057.00267.01.00466.0139.0065.0038.00178.0063.00301.0081.0039.0036.00177.0028.00149-.0001-.00021zm3.9426 2.33814c-1.3165-.77414-2.6301-1.55315-3.9408-2.33706l-.4106.68658c1.3124.78493 2.6277 1.56494 3.9458 2.34008zm.2651.80816c.0322-.08128.0906-.24176.0456-.42281-.0502-.20198-.1964-.31837-.3113-.38565l-.4045.6902c.0156.00915.0076.00696-.0079-.01015-.0187-.02059-.0412-.05511-.0527-.10153-.0109-.04363-.0066-.07602-.0048-.08592.0014-.00761.0015-.00313-.0082.02148zm-.4568 1.16443c.1518-.3894.3031-.77741.4566-1.16392l-.7434-.29541c-.1547.38932-.3069.77975-.4586 1.16874zm-.6328 1.60368c.2155-.53335.4246-1.06983.6328-1.60368l-.7454-.29059c-.2084.53462-.4158 1.06653-.6291 1.5946zm.0602.43644c-.065-.1041-.089-.17515-.0961-.22928-.0065-.04981-.0024-.11253.0358-.20698l-.7416-.30003c-.081.20031-.1147.4024-.0875.61081.0267.20409.1082.38469.2107.54906zm.9754 1.72798c-.2951-.59463-.6255-1.17021-.9759-1.72877l-.6777.42515c.3395.54103.6561 1.09318.937 1.65927zm.3545.27375c-.1079-.0146-.1667-.0429-.2067-.0732-.0422-.032-.0918-.08796-.1478-.20072l-.7165.35602c.092.185.2112.3535.3811.4823.1723.1306.3692.1995.5829.2284zm1.5503.2201c-.5147-.0751-1.0321-.1506-1.5506-.2202l-.1064.7929c.5132.0689 1.026.1437 1.5415.2189zm1.2513.1794c-.4166-.0576-.8331-.1183-1.2513-.1794l-.1155.7916c.4177.061.8372.1222 1.2573.1803zm.6033.6947c0-.1327-.0208-.3204-.1568-.4763-.1363-.1561-.3191-.2011-.4474-.2185l-.1078.7927c.0265.0036.0293.0066.0194.0024-.0129-.0054-.0404-.0201-.0669-.0505-.0266-.0304-.0372-.0593-.0406-.0721-.0026-.0097.0001-.0056.0001.0223zm0 4.5629c-.0065-1.5204-.0065-3.0408 0-4.5612l-.8-.0035c-.0065 1.5227-.0065 3.0454 0 4.5681zm-.6229.7086c.1301-.0166.3193-.0592.4605-.2171.1429-.1598.1632-.3547.1624-.4921l-.8.0047c.0002.0307-.0028.0361-.0003.0269.0033-.0126.0142-.0421.0416-.0728.0272-.0304.0545-.0438.0648-.048.0073-.0029.0011.0008-.03.0048zm-1.4638.2067c.4913-.0735.9768-.1462 1.4627-.2066l-.0987-.7939c-.4975.0619-.9928.136-1.4825.2094zm-.2658.0398c.0887-.0132.1773-.0265.2658-.0398l-.1185-.7911c-.0885.0132-.1768.0264-.2651.0396zm-.1836.1575c-.008-.0541.0057-.0744.0149-.0852.0141-.0166.0597-.0552.1719-.0728l-.1242-.7903c-.2535.0398-.4914.1495-.6577.3456-.1713.2018-.2349.4586-.1964.7195zm.2076.082c-.1159.0155-.1657-.009-.1779-.0169-.0061-.004-.0102-.0082-.014-.0145-.0042-.0069-.0115-.0221-.0157-.0506l-.7915.1167c.037.2511.165.4757.3847.6188.2131.1388.469.173.7201.1395zm.6289-.0948c-.2139.0342-.4214.0674-.6285.0948l.1049.7931c.2196-.029.4379-.064.65-.0979zm1.0538-.1432c-.3597.032-.7149.089-1.0538.1432l.1264.79c.3436-.055.6711-.1072.9982-.1363zm.8967-.6652c-.0739.2377-.1833.3825-.312.4767-.133.0974-.3197.1648-.585.1886l.0714.7968c.3621-.0325.702-.1318.9862-.3399.2886-.2112.4871-.5107.6033-.8846zm-.018-5.2525v5.3713h.8v-5.3713zm-.8851-.5457c.2683.0278.4571.0957.5915.1933.1291.0937.2382.2364.3119.4719l.7634-.2389c-.1171-.3743-.3169-.671-.6054-.88043-.2833-.20562-.6211-.30458-.979-.34163zm-1.512-.2087c.4947.0769 1.0011.1556 1.5119.2087l.0826-.79575c-.4873-.05059-.9735-.12607-1.4716-.20348zm-.8427-.12628c.2796.03876.5593.08218.8427.12628l.1229-.79053c-.2824-.04388-.5685-.08836-.8558-.12818zm-.3966-.14898c.1244.08833.2706.14079.4228.15173l.0574-.79794c-.0062-.00044-.0121-.00256-.0171-.0061zm-.2827-.34911c.0605.14005.1583.26079.2827.3491l.4631-.6523c-.005-.00356-.0089-.00843-.0114-.01407zm-.7098-1.24603c.2531.42294.498.84329.7226 1.27276l.7089-.37073c-.2353-.44994-.4895-.88578-.7451-1.3129zm-.12-.34197c.0125.13303.06.26031.1376.36896l.6511-.46486c.0044.00611.0071.01332.0078.0209zm.0663-.38818c-.0559.12127-.0788.2552-.0663.38818l.7965-.075c.0007.00753-.0006.01511-.0038.02197zm.8211-2.09826c-.2748.70816-.549 1.41462-.8294 2.11766l.7431.29635c.2819-.70704.5575-1.41695.8321-2.12453zm.1368-.35213c-.0456.11738-.0912.23478-.1368.35214l.7458.28947c.0456-.11737.0911-.23467.1367-.35194zm-.3824-1.11934c.2903.17302.4116.3287.4586.46622.0472.13781.0469.33627-.0762.65302l.7456.28987c.16-.4116.2191-.81767.0875-1.20198-.1316-.3846-.4272-.66862-.8059-.89434zm-3.8773-2.30402c1.2928.76766 2.5853 1.53575 3.8777 2.30423l.4089-.68762c-1.2925-.76856-2.5852-1.53673-3.8781-2.304473zm-1.1594.21738c.2025-.26434.3759-.36473.5216-.39223.1465-.02765.3476.00286.6381.17504l.4079-.688238c-.3865-.229006-.7884-.349539-1.1944-.272921-.4069.076781-.7356.335987-1.0082.691769zm-1.5617 2.05563c.5154-.68801 1.0371-1.37154 1.5616-2.05553l-.6349-.48678c-.5249.68466-1.0489 1.37101-1.567 2.06267zm-.2876.25148c.1269-.06324.2336-.16075.308-.28151l-.6811-.41958c.0039-.00643.0096-.01161.0163-.01497zm-.4103.07632c.1412.01336.2833-.01308.4103-.07632l-.3568-.71606c.0068-.00337.0144-.00477.0219-.00406zm-1.4384.00167c.49-.01151.9787-.01387 1.4647-.00005l.0228-.79968c-.5035-.01431-1.0067-.01178-1.5063-.00005zm-.365-.07003c.124.05905.2619.08252.3984.06785l-.0855-.79542c.0106-.00114.0214.00069.0312.00533zm-.3037-.26659c.0746.11523.1798.20753.3037.26659l.3441-.72224c.0097.00464.018.01187.0238.02088zm-1.5596-2.05353c.529.69106 1.0561 1.38107 1.575 2.07556l.6409-.47883c-.522-.69862-1.0517-1.39195-1.5807-2.083zm-1.14191-.21886c.27856-.16507.47805-.19453.62591-.16612.1475.02835.3206.12908.5157.3846l.6358-.48551c-.269-.352368-.5975-.607261-1.0005-.684712-.40269-.077382-.80282.03718-1.18475.263505zm-3.89831 2.31539c1.29853-.77439 2.59788-1.54614 3.89804-2.31523l-.4073-.688556c-1.30098.769576-2.60115 1.541816-3.9005 2.316696zm-.3763 1.11083c-.11388-.29316-.11436-.49689-.06392-.64534.05021-.14777.17326-.30664.43988-.46529l-.40908-.68749c-.37369.22235-.65853.51358-.78827.89541-.12951.38116-.08198.78653.07567 1.19238zm.05677.14617c-.01892-.04871-.03784-.09744-.05677-.14617l-.74572.28967c.01892.04871.03784.09742.05676.14614zm.91052 2.32215c-.30818-.7713-.60891-1.54559-.91052-2.32215l-.74573.28964c.30138.77596.60351 1.55385.91335 2.32934zm.05971.36703c.01189-.13381-.01214-.26837-.06964-.3898l-.72304.34237c-.00345-.00729-.00489-.01538-.00418-.0234zm-.13731.37142c.07803-.10939.12541-.23763.13731-.37142l-.79686-.07083c.00071-.00801.00355-.0157.00824-.02229zm-.70487 1.24248c.22294-.42739.46916-.84637.72239-1.26924l-.68634-.41102c-.25436.42475-.51084.86071-.74535 1.31028zm-.65893.47876c.14421-.01923.28453-.06631.40931-.16392.11935-.09336.19467-.21009.24917-.31398l-.7084-.3717c-.02988.05695-.04141.06161-.03367.05556.0018-.00141.00385-.00278.00587-.00391.00199-.00113.00307-.00152.00272-.00139-.00081.00031-.00944.00352-.03073.00636zm-1.3803.197c.46226-.0683.92108-.13614 1.37999-.19696l-.10511-.79306c-.46584.06174-.93059.13044-1.39185.19861zm-1.07916.1562c.36077-.05.721-.1033 1.07916-.1562l-.11697-.7914c-.35876.05302-.71542.10574-1.07202.15516zm-.78201.8783c0-.3113.07683-.498.18093-.6151.10521-.1184.28612-.2196.60102-.2632l-.1097-.79245c-.43609.06037-.81873.21971-1.089324.52425-.271702.3057-.382926.7043-.382926 1.1465zm0 4.6619v-4.6619h-.8v4.6619zm.79115.8922c-.32732-.0448-.50808-.1455-.61135-.2619-.1023-.1153-.17954-.3034-.1798-.6307l-.8.0007c.000354.4488.107495.8523.381455 1.161.272985.3076.660355.4631 1.101155.5235zm1.32875.1911c-.44106-.0649-.88444-.1302-1.32866-.1911l-.10872.7926c.4397.0603.8792.125 1.32091.19zm1.1576.1674c-.38528-.0538-.77055-.1104-1.1576-.1674l-.11647.7915c.38655.0569.77479.114 1.16355.1682zm.36448.1422c-.1126-.0822-.24549-.1322-.38438-.1445l-.07073.7969c-.006-.0005-.01173-.0027-.01657-.0062zm.25474.3221c-.05406-.1286-.14214-.2399-.25474-.3221l-.47169.6462c-.00484-.0036-.00864-.0084-.01098-.0139zm.36144.643c-.13074-.2286-.25763-.4505-.37669-.6752l-.70691.3745c.12612.2381.25951.4712.38918.6979zm.37065.663c-.12063-.2259-.24736-.4475-.37065-.663l-.69442.3972c.12425.2172.24514.4286.35935.6426zm.06277.626c.05927-.2063.03821-.4273-.05897-.6187l-.71331.3622c.00559.011.0068.0237.00339.0356zm-.6947 1.8051c.23004-.5885.46122-1.1799.68471-1.7749l-.74891-.2813c-.22131.5891-.45054 1.1756-.6809 1.765zm-.27519.7055c.09132-.2351.18317-.4701.27519-.7055l-.7451-.2912c-.09197.2352-.18413.471-.2758.707zm.38885 1.1357c-.30088-.1791-.4231-.3352-.46989-.4716-.04687-.1367-.04637-.336.08106-.6641l-.74575-.2896c-.16184.4167-.22494.8258-.09202 1.2133.13301.3877.43399.6713.81744.8995zm3.56305 2.115c-1.19003-.7003-2.37742-1.4052-3.56216-2.1144l-.41094.6863c1.18646.7104 2.37558 1.4162 3.56735 2.1176zm.52756.276c-.18953-.0934-.36328-.1792-.52735-.2759l-.40617.6892c.19416.1145.395.2132.57995.3043zm13.42305.1042c-.0451-.012-.0901-.0237-.1337-.0351l-.2012.7743c.044.0115.0866.0225.1288.0338zm.5796-.0154-.6837.0019.0021.8.6838-.0019zm.0696-.0321c-.0559.0145-.116.0301-.1761.0469l.2152.7705c.0519-.0145.1048-.0283.162-.0431zm.3298-.0953c-.0988.035-.2044.0627-.3298.0953l.201.7743c.1195-.031.2591-.067.3962-.1156zm1.5585-1.8311c-.1761.9142-.6898 1.5094-1.5637 1.833l.2778.7502c1.1309-.4188 1.8414-1.2375 2.0714-2.4319zm.0787-.2144c-.0293.0577-.0529.1182-.0707.1806l.7695.2189c.0037-.0132.0088-.026.015-.0383zm-.0431-.5032v.6838h.8v-.6838zm-.0219.03c.0194.0639.0471.125.0824.1816l.6789-.4232c.0018.0028.0032.0059.0042.0092zm-.7096-1.3822c.3811.3806.6206.8118.6967 1.3247l.7913-.1174c-.105-.7078-.4391-1.2905-.9227-1.7734zm-.8802-.8809c.2935.2935.5867.587.8798.8805l.5661-.5653c-.2932-.2936-.5866-.5873-.8802-.8809zm-4.626-4.6241c1.5441 1.5392 3.086 3.0805 4.6256 4.6238l.5664-.565c-1.5402-1.5439-3.0826-3.0856-4.6272-4.6254zm-1.0617-2.4875c-.0253 1.0134.3917 1.8202 1.0618 2.4876l.5646-.5668c-.5493-.5471-.8454-1.1518-.8267-1.9009zm-.7467-2.3791c.4919.7358.7675 1.5178.7467 2.3794l.7997.0193c.0257-1.0587-.3176-2-.8813-2.8433zm-2.4357-2.15459c1.0301.42143 1.7932 1.19319 2.4357 2.15459l.6651-.4445c-.6931-1.03724-1.5678-1.94727-2.7979-2.45052zm-4.4939.63283c1.4098-1.0187 2.8895-1.28949 4.4938-.63285l.303-.74039c-1.895-.77562-3.6638-.43239-5.2653.72481zm.0251.37496c-.2131-.1271-.2069-.20321-.2059-.18377.0013.02312-.0172-.04811.1808-.19116l-.4685-.64848c-.2845.20553-.53206.50277-.51106.88366.02079.37725.29538.64815.59476.82675zm.6345.3812c-.2111-.1269-.4223-.2538-.6336-.3807l-.4116.686c.211.1267.422.2535.6331.3804zm2.2104 1.3197c-.7387-.4353-1.4737-.877-2.2104-1.3197l-.4121.6857c.7362.4424 1.4741.8859 2.2164 1.3232zm.3507.7701c.0253-.127.0347-.2892-.0422-.4524-.0752-.1596-.203-.2556-.3084-.3177l-.4063.6892c.0209.0123.025.0171.0213.0136-.0052-.005-.0187-.0196-.0302-.0441-.0118-.0249-.0152-.0466-.0158-.0583-.0005-.0092.001-.0068-.003.0134zm-.4909 1.2096c.2443-.3677.4116-.7809.4919-1.215l-.7866-.1455c-.0607.3278-.1871.64-.3716.9177zm-.9295.9242c.369-.2422.6852-.5566.9295-.9242l-.6663-.4428c-.1845.2777-.4234.5152-.7021.6981zm-.905.0169c.1261.0774.281.1446.4644.139.1822-.0056.3299-.0813.4447-.1586l-.4471-.6635c-.0271.0183-.0407.0243-.0442.0257-.0016.0007.007-.0028.0221-.0033.0152-.0004.0243.0025.0233.0022-.0029-.001-.0168-.0062-.0449-.0234zm-2.45207-1.4772c.82272.4889 1.64157.9756 2.45067 1.4764l.421-.6803c-.8162-.5052-1.6413-.9955-2.46294-1.4839zm-.07073-.0421.07073.042.40874-.6877-.07073-.042zm-.29728.171c.00614-.1842.07139-.2248.0758-.2272.002-.0012.06577-.0365.22116.056l.40938-.6873c-.31795-.1894-.69573-.2492-1.02152-.0667-.32338.1812-.47217.5323-.48438.8985zm.42674 2.1717c-.30405-.6829-.44993-1.4255-.42671-2.1726l-.79962-.0249c-.02695.8676.14244 1.73.49552 2.5229zm5.21344 2.7067c-2.0794.4375-4.35892-.7489-5.21224-2.704l-.73321.32c1.00336 2.2988 3.65545 3.6834 6.11015 3.1669zm.8348.2566c-.0966-.0971-.2166-.1905-.3729-.2413-.1594-.0519-.3156-.0462-.4624-.0152l.1656.7827c.0526-.0112.0597-.0034.0494-.0067-.0073-.0024.0076-.0011.0534.045zm6.3288 6.3391c-2.1088-2.114-4.2185-4.2272-6.3293-6.3396l-.5659.5655c2.1106 2.1122 4.2202 4.2253 6.3288 6.3391zm1.0946.6992c-.413-.1233-.7624-.3658-1.0945-.699l-.5667.5647c.3933.3945.8535.7281 1.4325.9008zm.2953.0803c-.1046-.0271-.2011-.0522-.2953-.0804l-.2287.7667c.1102.0328.2206.0615.3228.088zm-11.5607-15.4045c.0427.0267.0795.0499.1131.0711l.4267-.67671c-.0335-.02119-.0715-.04509-.1155-.07264zm4.5434-.41747c-.6945-.51035-1.429-.78149-2.1979-.81887-.7654-.0372-1.5376.15846-2.3099.53825l.3531.71789c.6814-.33512 1.3185-.48622 1.9179-.45708.596.02897 1.1818.23728 1.763.66448zm2.0816 2.92867c-.3255-1.255-1.0957-2.2053-2.0819-2.92885l-.4732.64495c.8742.6415 1.5117 1.4476 1.7807 2.4847zm.094.8091c.0067-.273-.0251-.5457-.0942-.81l-.774.2026c.0502.1918.0733.3898.0685.588zm1.1908 2.7992c-.7974-.7923-1.2237-1.692-1.1908-2.797l-.7997-.0238c-.0405 1.3633.5007 2.4682 1.4266 3.3883zm5.406 5.403c-1.7997-1.8023-3.6016-3.6031-5.4054-5.4024l-.565.5663c1.8035 1.7991 3.6049 3.5995 5.4044 5.4014zm.4121 2.6339c.2503-.434.3465-.9035.2713-1.3697-.0748-.4639-.314-.8942-.6833-1.2642l-.5662.5652c.2723.2728.4161.5561.4597.8263.0432.2678-.0072.5526-.1745.8427zm-3.0752.5755c.9636.7781 2.4576.4964 3.0753-.5757l-.6932-.3993c-.3731.6475-1.2996.8209-1.8795.3526zm-.3579-.3266c.1126.1145.2313.2229.3556.3247l.5072-.6186c-.1022-.0838-.1999-.173-.2927-.2673zm-6.5209-6.5276c2.1691 2.1826 4.3436 4.3594 6.5237 6.5304l.5645-.5668c-2.1791-2.1701-4.3527-4.3459-6.5208-6.5275zm-.5147-.1579c.133-.0321.2151-.0252.2749-.0069.0621.0191.1381.0625.2397.1647l.5676-.5637c-.1614-.1625-.3464-.2962-.5722-.3656-.2282-.0702-.4607-.0634-.6977-.0062zm-4.81042-1.7617c.59422.7806 1.29632 1.3481 2.11312 1.6552.8185.3078 1.7219.3425 2.6975.1065l-.1881-.7776c-.8443.2043-1.5815.1653-2.2278-.0777-.648-.2436-1.2351-.7038-1.7582-1.3909zm-.77814-1.9105c.10693.712.35434 1.3542.77822 1.9106l.63644-.4847c-.3308-.4343-.53355-.9455-.62353-1.5447zm.64904-.38c-.024-.0118-.04677-.023-.07138-.0355l-.3642.7122c.03108.0159.05927.0298.08283.0413zm.15123.0797c-.05415-.0322-.10851-.0587-.15123-.0797l-.35275.7181c.04864.0238.07306.0361.09453.0489zm.52129.3108c-.1739-.1035-.34744-.2067-.5206-.3104l-.41084.6865c.17418.1042.34854.208.52239.3114zm1.4285.8623c-.474-.2943-.9531-.5794-1.4285-.8623l-.40905.6875c.47645.2835.94905.5648 1.41555.8545zm.3789.0073c-.093.0492-.1536.0599-.1956.0591-.0406-.0009-.0976-.0131-.183-.0662l-.4226.6793c.18.112.3756.1823.5893.1867.2122.0043.4075-.0571.5867-.1522zm2.0018-3.0708c-.078 1.413-.75 2.4068-2.0018 3.0708l.3748.7067c1.4855-.7878 2.3314-2.025 2.4258-3.7334zm-.1389-.2538c.0775.0456.1051.0816.1171.1035.0116.0212.0267.0624.0218.1502l.7988.0443c.011-.199-.0194-.3963-.1185-.5779-.0987-.1807-.2469-.3117-.414-.4098zm-1.8246-1.0928c.6068.365 1.2148.7307 1.8229 1.0919l.4085-.6879c-.6059-.3598-1.2119-.7243-1.8191-1.08955zm-.5639-.339c.1879.1129.3758.2259.5639.339l.4123-.68554c-.188-.11308-.3761-.22622-.5642-.33924zm-.1609-.1002c.0582.0367.1085.0684.1595.0993l.4149-.684c-.044-.02667-.0882-.05451-.1477-.09201z" mask="url(#a)"/></g></svg>