<svg width="18" height="18" viewBox="0 0 18 18" fill="none" xmlns="http://www.w3.org/2000/svg">
<path d="M12.375 0C9.2205 0 6.75 1.48275 6.75 3.375V5.31525C6.38775 5.2725 6.01125 5.25 5.625 5.25C2.4705 5.25 0 6.73275 0 8.625V14.625C0 16.5173 2.4705 18 5.625 18C8.18025 18 10.287 17.0273 10.995 15.6517C11.4435 15.717 11.9055 15.75 12.375 15.75C15.5295 15.75 18 14.2673 18 12.375V3.375C18 1.48275 15.5295 0 12.375 0ZM16.5 9.375C16.5 10.26 14.736 11.25 12.375 11.25C11.991 11.25 11.6145 11.2238 11.25 11.1728V9.68475C11.6175 9.7275 11.994 9.75 12.375 9.75C14.0205 9.75 15.48 9.3465 16.5 8.69175V9.375ZM1.5 10.9417C2.52 11.5965 3.9795 12 5.625 12C7.2705 12 8.73 11.5965 9.75 10.9417V11.625C9.75 12.51 7.986 13.5 5.625 13.5C3.264 13.5 1.5 12.51 1.5 11.625V10.9417ZM16.5 6.375C16.5 7.26 14.736 8.25 12.375 8.25C11.9738 8.25 11.58 8.2215 11.2005 8.166C11.0557 7.50075 10.6005 6.903 9.921 6.42375C10.659 6.63375 11.49 6.75 12.375 6.75C14.0205 6.75 15.48 6.3465 16.5 5.69175V6.375ZM12.375 1.5C14.736 1.5 16.5 2.49 16.5 3.375C16.5 4.26 14.736 5.25 12.375 5.25C10.014 5.25 8.25 4.26 8.25 3.375C8.25 2.49 10.014 1.5 12.375 1.5ZM5.625 6.75C7.986 6.75 9.75 7.74 9.75 8.625C9.75 9.51 7.986 10.5 5.625 10.5C3.264 10.5 1.5 9.51 1.5 8.625C1.5 7.74 3.264 6.75 5.625 6.75ZM5.625 16.5C3.264 16.5 1.5 15.51 1.5 14.625V13.9418C2.52 14.5965 3.9795 15 5.625 15C7.2705 15 8.73 14.5965 9.75 13.9418V14.625C9.75 15.51 7.986 16.5 5.625 16.5ZM12.375 14.25C11.991 14.25 11.6145 14.2237 11.25 14.1727V12.6847C11.6175 12.7275 11.994 12.75 12.375 12.75C14.0205 12.75 15.48 12.3465 16.5 11.6917V12.375C16.5 13.26 14.736 14.25 12.375 14.25Z" fill="#B3B3B3"/>
</svg>
