<svg width="17" height="17" viewBox="0 0 17 17" fill="none" xmlns="http://www.w3.org/2000/svg">
<path d="M8.5 11.3333C7.93962 11.3333 7.39182 11.1672 6.92588 10.8558C6.45995 10.5445 6.09679 10.102 5.88234 9.58427C5.66789 9.06655 5.61178 8.49686 5.72111 7.94724C5.83043 7.39763 6.10028 6.89278 6.49653 6.49653C6.89278 6.10028 7.39763 5.83043 7.94724 5.72111C8.49686 5.61178 9.06655 5.66789 9.58427 5.88234C10.102 6.09679 10.5445 6.45995 10.8558 6.92589C11.1672 7.39182 11.3333 7.93962 11.3333 8.5C11.3333 9.25145 11.0348 9.97212 10.5035 10.5035C9.97212 11.0348 9.25145 11.3333 8.5 11.3333ZM8.5 7.08333C8.21981 7.08333 7.94591 7.16642 7.71294 7.32209C7.47997 7.47775 7.29839 7.699 7.19117 7.95787C7.08395 8.21673 7.05589 8.50157 7.11055 8.77638C7.16522 9.05118 7.30014 9.30361 7.49827 9.50173C7.69639 9.69986 7.94882 9.83478 8.22362 9.88945C8.49843 9.94411 8.78327 9.91605 9.04213 9.80883C9.301 9.70161 9.52225 9.52003 9.67791 9.28706C9.83358 9.05409 9.91667 8.78019 9.91667 8.5C9.91667 8.12428 9.76741 7.76394 9.50173 7.49827C9.23606 7.23259 8.87572 7.08333 8.5 7.08333ZM12.75 16.2917C12.75 15.1645 12.3022 14.0835 11.5052 13.2865C10.7082 12.4894 9.62717 12.0417 8.5 12.0417C7.37283 12.0417 6.29183 12.4894 5.4948 13.2865C4.69777 14.0835 4.25 15.1645 4.25 16.2917C4.25 16.4795 4.32463 16.6597 4.45747 16.7925C4.5903 16.9254 4.77047 17 4.95833 17C5.14619 17 5.32636 16.9254 5.4592 16.7925C5.59204 16.6597 5.66667 16.4795 5.66667 16.2917C5.66667 15.5402 5.96518 14.8196 6.49653 14.2882C7.02788 13.7568 7.74855 13.4583 8.5 13.4583C9.25145 13.4583 9.97212 13.7568 10.5035 14.2882C11.0348 14.8196 11.3333 15.5402 11.3333 16.2917C11.3333 16.4795 11.408 16.6597 11.5408 16.7925C11.6736 16.9254 11.8538 17 12.0417 17C12.2295 17 12.4097 16.9254 12.5425 16.7925C12.6754 16.6597 12.75 16.4795 12.75 16.2917ZM12.75 5.66667C12.1896 5.66667 11.6418 5.5005 11.1759 5.18916C10.7099 4.87783 10.3468 4.43533 10.1323 3.9176C9.91789 3.39988 9.86178 2.83019 9.97111 2.28058C10.0804 1.73097 10.3503 1.22611 10.7465 0.829865C11.1428 0.433617 11.6476 0.163768 12.1972 0.054443C12.7469 -0.0548818 13.3165 0.00122763 13.8343 0.215676C14.352 0.430124 14.7945 0.79328 15.1058 1.25922C15.4172 1.72516 15.5833 2.27295 15.5833 2.83333C15.5833 3.58478 15.2848 4.30545 14.7535 4.8368C14.2221 5.36816 13.5014 5.66667 12.75 5.66667ZM12.75 1.41667C12.4698 1.41667 12.1959 1.49975 11.9629 1.65542C11.73 1.81108 11.5484 2.03234 11.4412 2.2912C11.3339 2.55006 11.3059 2.83491 11.3606 3.10971C11.4152 3.38452 11.5501 3.63694 11.7483 3.83507C11.9464 4.03319 12.1988 4.16812 12.4736 4.22278C12.7484 4.27744 13.0333 4.24939 13.2921 4.14216C13.551 4.03494 13.7722 3.85336 13.9279 3.62039C14.0836 3.38742 14.1667 3.11352 14.1667 2.83333C14.1667 2.45761 14.0174 2.09728 13.7517 1.8316C13.4861 1.56592 13.1257 1.41667 12.75 1.41667ZM17 10.625C16.9989 9.49818 16.5507 8.41782 15.754 7.62104C14.9572 6.82425 13.8768 6.37613 12.75 6.375C12.5621 6.375 12.382 6.44963 12.2491 6.58247C12.1163 6.7153 12.0417 6.89547 12.0417 7.08333C12.0417 7.2712 12.1163 7.45136 12.2491 7.5842C12.382 7.71704 12.5621 7.79167 12.75 7.79167C13.5014 7.79167 14.2221 8.09018 14.7535 8.62153C15.2848 9.15288 15.5833 9.87355 15.5833 10.625C15.5833 10.8129 15.658 10.993 15.7908 11.1259C15.9236 11.2587 16.1038 11.3333 16.2917 11.3333C16.4795 11.3333 16.6597 11.2587 16.7925 11.1259C16.9254 10.993 17 10.8129 17 10.625ZM4.25 5.66667C3.68962 5.66667 3.14182 5.5005 2.67588 5.18916C2.20994 4.87783 1.84679 4.43533 1.63234 3.9176C1.41789 3.39988 1.36178 2.83019 1.47111 2.28058C1.58043 1.73097 1.85028 1.22611 2.24653 0.829865C2.64278 0.433617 3.14763 0.163768 3.69724 0.054443C4.24686 -0.0548818 4.81655 0.00122763 5.33427 0.215676C5.85199 0.430124 6.2945 0.79328 6.60583 1.25922C6.91716 1.72516 7.08333 2.27295 7.08333 2.83333C7.08333 3.58478 6.78482 4.30545 6.25347 4.8368C5.72212 5.36816 5.00145 5.66667 4.25 5.66667ZM4.25 1.41667C3.96981 1.41667 3.69591 1.49975 3.46294 1.65542C3.22997 1.81108 3.04839 2.03234 2.94117 2.2912C2.83395 2.55006 2.80589 2.83491 2.86055 3.10971C2.91522 3.38452 3.05014 3.63694 3.24827 3.83507C3.44639 4.03319 3.69882 4.16812 3.97362 4.22278C4.24843 4.27744 4.53327 4.24939 4.79213 4.14216C5.051 4.03494 5.27225 3.85336 5.42792 3.62039C5.58358 3.38742 5.66667 3.11352 5.66667 2.83333C5.66667 2.45761 5.51741 2.09728 5.25173 1.8316C4.98606 1.56592 4.62572 1.41667 4.25 1.41667ZM1.41667 10.625C1.41667 9.87355 1.71518 9.15288 2.24653 8.62153C2.77788 8.09018 3.49855 7.79167 4.25 7.79167C4.43786 7.79167 4.61803 7.71704 4.75087 7.5842C4.88371 7.45136 4.95833 7.2712 4.95833 7.08333C4.95833 6.89547 4.88371 6.7153 4.75087 6.58247C4.61803 6.44963 4.43786 6.375 4.25 6.375C3.12318 6.37613 2.04282 6.82425 1.24604 7.62104C0.449253 8.41782 0.00112514 9.49818 0 10.625C0 10.8129 0.0746278 10.993 0.207466 11.1259C0.340304 11.2587 0.520472 11.3333 0.708333 11.3333C0.896195 11.3333 1.07636 11.2587 1.2092 11.1259C1.34204 10.993 1.41667 10.8129 1.41667 10.625Z" fill="#B3B3B3"/>
</svg>
