<svg width="19" height="19" viewBox="0 0 19 19" fill="none" xmlns="http://www.w3.org/2000/svg">
<path d="M9.5 19C8.21275 19 6.99833 18.4348 6.16867 17.4491C4.9495 17.5893 3.69313 17.1277 2.78271 16.2181C1.87308 15.3077 1.41392 14.0489 1.52396 12.7648C0.56525 12.0017 0 10.7873 0 9.5C0 8.21275 0.56525 6.99833 1.55167 6.16867C1.41313 4.95188 1.87229 3.69313 2.78271 2.78271C3.69313 1.8715 4.9495 1.41313 6.23517 1.52396C6.99833 0.566042 8.21275 0 9.5 0C10.7873 0 12.0017 0.56525 12.8313 1.55088C14.0521 1.41154 15.3069 1.87229 16.2173 2.78192C17.1269 3.69233 17.5861 4.95108 17.476 6.23517C18.4348 6.99833 19 8.21275 19 9.5C19 10.7873 18.4348 12.0017 17.4483 12.8313C17.5869 14.0481 17.1277 15.3069 16.2173 16.2173C15.3061 17.1277 14.0473 17.5861 12.7648 17.476C12.0017 18.434 10.7873 19 9.5 19ZM6.23279 15.8935C6.67692 15.8935 7.08858 16.0843 7.37913 16.4287C7.90796 17.0565 8.68062 17.4167 9.5 17.4167C10.3194 17.4167 11.092 17.0565 11.6209 16.4287C11.9399 16.0495 12.4046 15.8579 12.9002 15.8983C13.7188 15.9671 14.5184 15.6766 15.0979 15.0971C15.6766 14.5184 15.9687 13.7172 15.899 12.8994C15.8563 12.4054 16.0495 11.9391 16.4295 11.6193C17.0565 11.0913 17.4167 10.3178 17.4167 9.49921C17.4167 8.68062 17.0565 7.90717 16.4295 7.37913C16.0503 7.06008 15.8563 6.593 15.899 6.099C15.9687 5.28121 15.6774 4.48004 15.0979 3.90133C14.5184 3.32263 13.714 3.03367 12.901 3.10017C12.4054 3.14529 11.9399 2.94896 11.6209 2.57054C11.092 1.94275 10.3194 1.58254 9.5 1.58254C8.68062 1.58254 7.90796 1.94275 7.37913 2.57054C7.05929 2.94975 6.593 3.13975 6.09979 3.10096C5.27725 3.02971 4.48163 3.32262 3.90213 3.90213C3.32342 4.48083 3.03129 5.282 3.10096 6.09979C3.14371 6.59379 2.95054 7.06008 2.57054 7.37992C1.94354 7.90796 1.58333 8.68142 1.58333 9.5C1.58333 10.3186 1.94354 11.092 2.57054 11.6201C2.94975 11.9391 3.14371 12.4062 3.10096 12.9002C3.03129 13.718 3.32262 14.5192 3.90213 15.0979C4.48163 15.6774 5.28992 15.9671 6.099 15.899C6.14412 15.8951 6.18846 15.8935 6.23279 15.8935ZM7.125 6.33333C6.688 6.33333 6.33333 6.688 6.33333 7.125C6.33333 7.562 6.688 7.91667 7.125 7.91667C7.562 7.91667 7.91667 7.562 7.91667 7.125C7.91667 6.688 7.562 6.33333 7.125 6.33333ZM11.875 11.0833C11.438 11.0833 11.0833 11.438 11.0833 11.875C11.0833 12.312 11.438 12.6667 11.875 12.6667C12.312 12.6667 12.6667 12.312 12.6667 11.875C12.6667 11.438 12.312 11.0833 11.875 11.0833ZM8.57533 12.3144L11.742 7.56438C11.985 7.201 11.8869 6.70858 11.5227 6.46633C11.1578 6.2225 10.6669 6.32225 10.4247 6.68563L7.258 11.4356C7.01496 11.799 7.11312 12.2914 7.47729 12.5337C7.61267 12.6239 7.76467 12.6667 7.91587 12.6667C8.17158 12.6667 8.42333 12.5432 8.57533 12.3144Z" fill="#B3B3B3"/>
</svg>
