<svg width="21" height="21" viewBox="0 0 21 21" fill="none" xmlns="http://www.w3.org/2000/svg">
<path d="M10.5 0C4.71012 0 0 4.71012 0 10.5C0 16.2899 4.71012 21 10.5 21C16.2899 21 21 16.2899 21 10.5C21 4.71012 16.2899 0 10.5 0ZM15.4569 14.5136L15.0001 15.0386C14.518 15.5216 13.8827 15.75 13.2501 15.75C10.0004 15.75 5.25 11.2499 5.25 7.74988C5.25 7.11725 5.47837 6.482 5.96138 5.99988L6.48637 5.54313C6.87663 5.15287 7.51013 5.15287 7.90038 5.54313L8.77538 6.68237C9.16563 7.07263 9.16563 7.70613 8.77538 8.09638L8.03075 9.03175C8.81913 10.9952 10.1561 12.278 11.9683 12.9692L12.9036 12.2246C13.2939 11.8344 13.9274 11.8344 14.3176 12.2246L15.4569 13.0996C15.8471 13.4899 15.8471 14.1234 15.4569 14.5136Z" fill="#008036"/>
</svg>
