<svg width="10" height="10" viewBox="0 0 10 10" fill="none" xmlns="http://www.w3.org/2000/svg">
<g clip-path="url(#clip0_313_3992)">
<path fill-rule="evenodd" clip-rule="evenodd" d="M8.52625 1.45333C7.59042 0.516667 6.34625 0.000416667 5.02083 0C2.28958 0 0.066667 2.2225 0.065417 4.955C0.0650003 5.82833 0.293334 6.68083 0.727084 7.4325L0.0237503 10L2.65042 9.31083C3.37417 9.70583 4.18917 9.91375 5.01833 9.91417H5.02042C7.75125 9.91417 9.97458 7.69125 9.97583 4.95875C9.97667 3.635 9.46167 2.38958 8.52625 1.45333ZM5.02083 9.07708H5.01917C4.28 9.07708 3.55542 8.87833 2.92292 8.50292L2.7725 8.41375L1.21375 8.8225L1.63 7.3025L1.53208 7.14667C1.11958 6.49083 0.902084 5.73292 0.9025 4.955C0.903334 2.68417 2.75125 0.836667 5.02292 0.836667C6.12292 0.836667 7.15708 1.26583 7.93458 2.04417C8.71208 2.82292 9.14 3.8575 9.13958 4.95792C9.13833 7.22958 7.29083 9.07708 5.02083 9.07708ZM7.28 5.9925C7.15625 5.93042 6.5475 5.63083 6.43375 5.58958C6.32042 5.54833 6.23792 5.5275 6.155 5.65125C6.07208 5.775 5.83542 6.05417 5.76292 6.13708C5.69083 6.21958 5.61833 6.23 5.49458 6.16792C5.37083 6.10583 4.97167 5.97542 4.49875 5.55333C4.13083 5.225 3.88208 4.81958 3.81 4.69542C3.73792 4.57125 3.8025 4.50458 3.86417 4.44292C3.92 4.3875 3.98792 4.29833 4.05 4.22583C4.1125 4.15417 4.13292 4.1025 4.17458 4.01958C4.21583 3.93708 4.19542 3.86458 4.16417 3.8025C4.13292 3.74083 3.88542 3.13125 3.7825 2.88333C3.68208 2.64167 3.58 2.67458 3.50375 2.67083C3.43167 2.66708 3.34917 2.66667 3.26625 2.66667C3.18375 2.66667 3.04958 2.6975 2.93625 2.82167C2.82292 2.94583 2.50292 3.24542 2.50292 3.85458C2.50292 4.46417 2.94667 5.05292 3.00833 5.13542C3.07 5.21792 3.88125 6.46875 5.12333 7.005C5.41875 7.1325 5.64958 7.20875 5.82917 7.26583C6.12583 7.36 6.39583 7.34667 6.60917 7.315C6.84708 7.27958 7.34167 7.01542 7.445 6.72625C7.54833 6.43708 7.54833 6.18875 7.51708 6.1375C7.48625 6.08542 7.40375 6.05458 7.28 5.9925Z" fill="black"/>
</g>
<defs>
<clipPath id="clip0_313_3992">
<rect width="10" height="10" fill="white"/>
</clipPath>
</defs>
</svg>
