<svg width="31" height="34" viewBox="0 0 31 34" fill="none" xmlns="http://www.w3.org/2000/svg">
<g clip-path="url(#clip0_313_4437)">
<path d="M23.1658 34.0026C22.4463 32.7389 21.7268 31.4752 21.0074 30.2115C20.3123 28.9949 19.6157 27.7786 18.9176 26.5626C18.9506 26.39 19.1065 26.3953 19.225 26.3605C21.2241 25.7827 23.0553 24.7308 24.564 23.2936C25.1205 22.7756 25.6327 22.2115 26.095 21.6073C26.1708 21.5054 26.2305 21.3695 26.3962 21.3856L30.9991 29.3701C30.9314 29.4783 30.8476 29.4336 30.7799 29.43C29.1758 29.3477 27.5717 29.2655 25.9676 29.1716C25.7448 29.1582 25.6174 29.2047 25.5104 29.4211C24.7877 30.8722 24.048 32.3145 23.3173 33.7603C23.2798 33.8354 23.2059 33.9033 23.2362 34.0026H23.1658Z" fill="#40596B"/>
<path d="M12.0565 26.569C10.6735 28.9778 9.29126 31.3872 7.90996 33.7971C7.87668 33.8632 7.84694 33.9309 7.82084 34.0001H7.74865C7.77717 33.8892 7.69517 33.8132 7.6524 33.7319C6.93145 32.3013 6.19892 30.8814 5.49045 29.4463C5.36836 29.1986 5.2231 29.1611 4.97892 29.1781C3.37482 29.2728 1.77072 29.3569 0.159501 29.4374C0.108333 29.438 0.0571676 29.436 0.00622387 29.4311C-0.0214022 29.3274 0.0436488 29.2702 0.0801865 29.2058C1.54229 26.6605 3.00588 24.1152 4.47095 21.57C4.50033 21.5244 4.53217 21.4806 4.56631 21.4385C4.73296 21.426 4.78464 21.569 4.86306 21.6683C6.66589 23.9537 8.93122 25.5586 11.733 26.375C11.8569 26.4027 12.0004 26.4197 12.0565 26.569Z" fill="#40596B"/>
<path d="M12.0566 26.5688C11.1021 26.2666 10.1575 25.943 9.26722 25.4718C7.48634 24.5355 5.93421 23.2152 4.72229 21.6056C4.67595 21.5448 4.62247 21.4893 4.57167 21.4321C3.44881 19.8549 2.653 18.1239 2.2903 16.2221C1.51944 12.1806 2.35625 8.49055 4.85685 5.22431C6.70958 2.80213 9.13889 1.17481 12.0913 0.450568C16.5658 -0.648311 20.6313 0.271723 24.1817 3.24558C26.5388 5.2207 28.028 7.75737 28.6375 10.7697C29.3888 14.4982 28.6758 17.9656 26.5656 21.1352C26.5103 21.2175 26.4587 21.3016 26.4052 21.3856C25.866 22.0383 25.3358 22.6991 24.72 23.2829C23.153 24.7789 21.248 25.8714 19.168 26.4669C19.0859 26.4945 19.0053 26.5264 18.9265 26.5626C16.6772 27.1513 14.3154 27.1544 12.0646 26.5716L12.0566 26.5688Z" fill="#FED05C"/>
<path d="M15.4777 3.72486C16.7638 3.72348 18.0373 3.97817 19.2246 4.47421C20.4119 4.97025 21.4892 5.69779 22.3942 6.61461C23.2992 7.53143 24.0139 8.61932 24.4968 9.81526C24.9797 11.0112 25.2212 12.2914 25.2074 13.5817C25.1575 18.9822 20.9111 23.2919 15.4617 23.2874C10.0443 23.283 5.65439 18.9956 5.7141 13.351C5.77025 8.04792 10.0478 3.73469 15.4777 3.72486Z" fill="#F7B54C"/>
<path d="M11.0558 19.4652C11.1716 18.7687 11.2919 18.0391 11.4122 17.3095C11.5049 16.7658 11.6006 16.2225 11.6992 15.6795C11.7491 15.405 11.6101 15.2145 11.4318 15.0384C10.5941 14.2206 9.75731 13.4019 8.9214 12.5823C8.73693 12.4034 8.54622 12.2246 8.65405 11.9259C8.75832 11.6398 8.98913 11.5871 9.25559 11.5495C10.4435 11.3832 11.6288 11.2008 12.8202 11.03C13.0876 10.9907 13.2444 10.8289 13.3549 10.5955C13.8763 9.52255 14.4047 8.4496 14.9243 7.37665C15.0375 7.14328 15.1667 6.95819 15.459 6.95997C15.7513 6.96176 15.8769 7.15313 15.9937 7.38381C16.5097 8.44692 17.0372 9.50466 17.5505 10.5696C17.6051 10.7013 17.6952 10.8152 17.8108 10.8983C17.9263 10.9814 18.0628 11.0305 18.2047 11.0399C19.3935 11.1973 20.5787 11.3841 21.7693 11.5576C22.0046 11.5916 22.1846 11.689 22.2701 11.9277C22.3557 12.1665 22.2354 12.3525 22.0714 12.5143C21.223 13.353 20.3782 14.197 19.5227 15.0277C19.2963 15.2476 19.2019 15.4676 19.2553 15.7912C19.4728 16.9858 19.6644 18.1849 19.8738 19.3812C19.9139 19.6128 19.8667 19.7979 19.6831 19.94C19.4826 20.0956 19.2803 20.0661 19.0664 19.9516C18.0157 19.391 16.9579 18.8438 15.9117 18.2752C15.7815 18.194 15.6314 18.151 15.4782 18.151C15.3249 18.151 15.1748 18.194 15.0446 18.2752C13.9886 18.8483 12.9227 19.4035 11.856 19.957C11.4336 20.1779 11.046 19.9481 11.0558 19.4652Z" fill="#FEFEFE"/>
</g>
<defs>
<clipPath id="clip0_313_4437">
<rect width="31" height="34" fill="white"/>
</clipPath>
</defs>
</svg>
