<svg width="38" height="42" viewBox="0 0 38 42" fill="none" xmlns="http://www.w3.org/2000/svg">
<g opacity="0.25" clip-path="url(#clip0_340_4623)">
<path d="M28.3969 42.0033C27.515 40.4423 26.633 38.8813 25.7511 37.3202C24.899 35.8174 24.0452 34.3148 23.1895 32.8127C23.2299 32.5995 23.421 32.6061 23.5663 32.5631C26.0168 31.8494 28.2615 30.55 30.1108 28.7746C30.793 28.1347 31.4209 27.4379 31.9876 26.6915C32.0804 26.5656 32.1536 26.3977 32.3568 26.4176L37.999 36.2809C37.916 36.4145 37.8133 36.3593 37.7303 36.3549C35.764 36.2532 33.7977 36.1517 31.8314 36.0357C31.5583 36.0191 31.4021 36.0765 31.271 36.3438C30.385 38.1364 29.4783 39.918 28.5826 41.704C28.5367 41.7968 28.446 41.8807 28.4832 42.0033H28.3969Z" fill="#40596B"/>
<path d="M14.779 32.8203C13.0836 35.7958 11.3893 38.7721 9.69611 41.7492C9.65533 41.8307 9.61886 41.9144 9.58687 41.9999H9.49838C9.53334 41.8629 9.43283 41.769 9.38039 41.6685C8.49665 39.9013 7.59871 38.1473 6.73026 36.3746C6.5806 36.0687 6.40254 36.0223 6.10323 36.0433C4.13692 36.1603 2.1706 36.2642 0.195553 36.3636C0.132831 36.3644 0.0701118 36.3618 0.00766469 36.3558C-0.0261995 36.2277 0.0535404 36.157 0.0983286 36.0775C1.89058 32.9333 3.68466 29.7892 5.48055 26.645C5.51657 26.5888 5.55559 26.5346 5.59745 26.4826C5.80172 26.4672 5.86508 26.6439 5.96121 26.7665C8.17112 29.5896 10.948 31.5722 14.3825 32.5806C14.5343 32.6149 14.7102 32.6358 14.779 32.8203Z" fill="#40596B"/>
<path d="M14.7789 32.8204C13.609 32.4471 12.451 32.0473 11.3597 31.4652C9.17671 30.3086 7.2741 28.6776 5.78852 26.6893C5.73171 26.6142 5.66616 26.5458 5.6039 26.4751C4.22748 24.5267 3.25198 22.3884 2.80737 20.0391C1.86245 15.0467 2.88822 10.4884 5.95347 6.45367C8.22456 3.46155 11.2024 1.45134 14.8215 0.556685C20.3064 -0.800755 25.2899 0.335758 29.642 4.00935C32.5314 6.44921 34.3568 9.58274 35.104 13.3038C36.0249 17.9096 35.1509 22.1929 32.5642 26.1083C32.4964 26.21 32.4331 26.3138 32.3675 26.4176C31.7067 27.2239 31.0567 28.0401 30.3018 28.7614C28.381 30.6093 26.0458 31.9589 23.4962 32.6946C23.3955 32.7286 23.2967 32.768 23.2002 32.8127C20.443 33.54 17.5478 33.5438 14.7887 32.8238L14.7789 32.8204Z" fill="#FED05C"/>
<path d="M18.9727 4.60133C20.5492 4.59963 22.1103 4.91424 23.5657 5.527C25.021 6.13976 26.3416 7.03848 27.451 8.17102C28.5603 9.30356 29.4364 10.6474 30.0283 12.1248C30.6202 13.6021 30.9163 15.1835 30.8994 16.7774C30.8382 23.4486 25.633 28.7724 18.953 28.7668C12.3124 28.7613 6.93121 23.4652 7.0044 16.4924C7.07322 9.94158 12.3167 4.61347 18.9727 4.60133Z" fill="#F7B54C"/>
<path d="M13.5522 24.0451C13.6942 23.1847 13.8417 22.2834 13.9892 21.3821C14.1028 20.7106 14.22 20.0394 14.3409 19.3686C14.4021 19.0295 14.2317 18.7943 14.0132 18.5767C12.9864 17.5664 11.9606 16.5551 10.9359 15.5426C10.7098 15.3217 10.476 15.1008 10.6082 14.7319C10.736 14.3784 11.0189 14.3133 11.3456 14.2669C12.8017 14.0614 14.2546 13.8361 15.7151 13.6251C16.0429 13.5765 16.2351 13.3766 16.3706 13.0884C17.0096 11.763 17.6574 10.4376 18.2943 9.11215C18.433 8.82387 18.5914 8.59522 18.9497 8.59743C19.308 8.59964 19.4621 8.83603 19.6052 9.12099C20.2377 10.4342 20.8844 11.7409 21.5136 13.0563C21.5804 13.2191 21.6909 13.3598 21.8326 13.4624C21.9742 13.5651 22.1415 13.6257 22.3154 13.6373C23.7727 13.8317 25.2255 14.0626 26.685 14.2769C26.9734 14.3188 27.194 14.4392 27.2989 14.7341C27.4038 15.029 27.2563 15.2587 27.0553 15.4586C26.0153 16.4947 24.9798 17.5373 23.9311 18.5634C23.6536 18.8351 23.5378 19.1068 23.6033 19.5066C23.8699 20.9823 24.1047 22.4635 24.3615 23.9413C24.4106 24.2274 24.3527 24.456 24.1277 24.6316C23.8819 24.8238 23.6339 24.7873 23.3717 24.646C22.0838 23.9534 20.7872 23.2775 19.5047 22.575C19.3451 22.4748 19.1611 22.4217 18.9732 22.4217C18.7854 22.4217 18.6013 22.4748 18.4418 22.575C17.1473 23.283 15.8408 23.9689 14.5332 24.6526C14.0154 24.9254 13.5402 24.6415 13.5522 24.0451Z" fill="#FEFEFE"/>
</g>
<defs>
<clipPath id="clip0_340_4623">
<rect width="38" height="42" fill="white"/>
</clipPath>
</defs>
</svg>
